<?xml version="1.0" encoding="utf-8"?>
<!-- Generator: Adobe Illustrator 15.0.2, SVG Export Plug-In . SVG Version: 6.00 Build 0)  -->
<!DOCTYPE svg PUBLIC "-//W3C//DTD SVG 1.1//EN" "http://www.w3.org/Graphics/SVG/1.1/DTD/svg11.dtd">
<svg version="1.1" id="Layer_2" xmlns="http://www.w3.org/2000/svg" xmlns:xlink="http://www.w3.org/1999/xlink" x="0px" y="0px"
	 width="197px" height="38px" viewBox="0 0 197 38" enable-background="new 0 0 197 38" xml:space="preserve">
<g id="artproject-button">
	<path d="M20.655,22.9c-1.012,0.562-2.162,0.824-3.312,0.824c-2.749,0-4.724-1.874-4.724-4.648c0-2.787,2.112-4.649,4.761-4.649
		c1.162,0,2.287,0.312,3.125,1.162l-0.788,0.825c-0.6-0.65-1.512-1.012-2.412-1.012c-2.025,0-3.562,1.525-3.562,3.674
		c0,2.111,1.487,3.674,3.662,3.674c0.712,0,1.55-0.188,2.2-0.512v-2.713h-2.037v-0.974h3.087V22.9z"/>
	<path d="M23.095,19.076c0-2.674,1.937-4.649,4.624-4.649c2.687,0,4.624,1.975,4.624,4.649c0,2.674-1.937,4.648-4.624,4.648
		C25.032,23.725,23.095,21.75,23.095,19.076z M31.218,19.076c0-2.037-1.425-3.674-3.499-3.674c-2.075,0-3.5,1.637-3.5,3.674
		s1.425,3.674,3.5,3.674C29.793,22.75,31.218,21.113,31.218,19.076z"/>
	<path d="M44.943,15.627h-2.924V23.5h-1.05v-7.873h-2.924v-0.975h6.898V15.627z"/>
	<path d="M46.419,19.076c0-2.674,1.937-4.649,4.624-4.649c2.687,0,4.624,1.975,4.624,4.649c0,2.674-1.937,4.648-4.624,4.648
		C48.356,23.725,46.419,21.75,46.419,19.076z M54.542,19.076c0-2.037-1.425-3.674-3.499-3.674c-2.075,0-3.5,1.637-3.5,3.674
		s1.425,3.674,3.5,3.674C53.118,22.75,54.542,21.113,54.542,19.076z"/>
	<path d="M63.844,16.377h-2.524v-1.725h6.999v1.725h-2.524V23.5h-1.95V16.377z"/>
	<path d="M70.057,14.652h1.949v3.299h3.787v-3.299h1.95V23.5h-1.95v-3.824h-3.787V23.5h-1.949V14.652z"/>
	<path d="M80.369,14.652h6.011v1.799h-4.062v1.65h3.836V19.9h-3.836v1.8h4.287v1.8h-6.236V14.652z"/>
	<path d="M96.28,14.652h1.612l3.849,8.848h-2.199l-0.763-1.875h-3.437L94.605,23.5h-2.149L96.28,14.652z M97.03,17.227l-1.075,2.75
		h2.162L97.03,17.227z"/>
	<path d="M103.381,14.652h3.425c1.812,0,3.336,0.625,3.336,2.687c0,1.237-0.662,2.2-1.911,2.425l2.249,3.736h-2.337l-1.85-3.537
		h-0.962V23.5h-1.95V14.652z M105.331,18.314h1.149c0.712,0,1.637-0.025,1.637-0.987c0-0.887-0.8-1.025-1.512-1.025h-1.274V18.314z"
		/>
	<path d="M113.719,16.377h-2.524v-1.725h6.998v1.725h-2.524V23.5h-1.949V16.377z"/>
	<path d="M124.381,14.652h3.287c1.837,0,3.361,0.587,3.361,2.687c0,2.075-1.412,2.712-3.273,2.712h-1.425V23.5h-1.95V14.652z
		 M126.331,18.401h1.3c0.687,0,1.374-0.238,1.374-1.062c0-0.912-0.925-1.037-1.675-1.037h-0.999V18.401z"/>
	<path d="M133.006,14.652h3.425c1.812,0,3.336,0.625,3.336,2.687c0,1.237-0.662,2.2-1.911,2.425l2.249,3.736h-2.337l-1.85-3.537
		h-0.962V23.5h-1.95V14.652z M134.956,18.314h1.149c0.712,0,1.637-0.025,1.637-0.987c0-0.887-0.8-1.025-1.512-1.025h-1.274V18.314z"
		/>
	<path d="M146.155,14.427c2.762,0,4.773,1.812,4.773,4.649s-2.012,4.648-4.773,4.648c-2.763,0-4.774-1.812-4.774-4.648
		S143.393,14.427,146.155,14.427z M146.155,21.926c1.661,0,2.749-1.2,2.749-2.85c0-1.65-1.088-2.85-2.749-2.85
		c-1.662,0-2.75,1.2-2.75,2.85C143.405,20.726,144.493,21.926,146.155,21.926z"/>
	<path d="M157.579,20.538c0,1.638-0.425,3.187-2.824,3.187c-1.399,0-2.425-0.649-2.712-2.062l1.787-0.438
		c0.05,0.425,0.45,0.774,0.875,0.774c0.912,0,0.925-1.012,0.925-1.674v-5.674h1.949V20.538z"/>
	<path d="M160.08,14.652h6.011v1.799h-4.062v1.65h3.837V19.9h-3.837v1.8h4.287v1.8h-6.236V14.652z"/>
	<path d="M174.416,16.952c-0.387-0.462-0.949-0.725-1.674-0.725c-1.475,0-2.562,1.2-2.562,2.85c0,1.649,1.088,2.85,2.5,2.85
		c0.787,0,1.424-0.35,1.824-0.95l1.624,1.212c-0.737,1.051-1.986,1.537-3.199,1.537c-2.762,0-4.773-1.812-4.773-4.648
		s2.012-4.649,4.773-4.649c0.987,0,2.237,0.337,2.987,1.3L174.416,16.952z"/>
	<path d="M179.655,16.377h-2.524v-1.725h6.998v1.725h-2.524V23.5h-1.949V16.377z"/>
</g>
</svg>
