<?xml version="1.0" encoding="utf-8"?>
<!-- Generator: Adobe Illustrator 15.0.2, SVG Export Plug-In . SVG Version: 6.00 Build 0)  -->
<!DOCTYPE svg PUBLIC "-//W3C//DTD SVG 1.1//EN" "http://www.w3.org/Graphics/SVG/1.1/DTD/svg11.dtd">
<svg version="1.1" id="Layer_1" xmlns="http://www.w3.org/2000/svg" xmlns:xlink="http://www.w3.org/1999/xlink" x="0px" y="0px"
	 width="361.128px" height="504.538px" viewBox="0 0 361.128 504.538" enable-background="new 0 0 361.128 504.538"
	 xml:space="preserve">
<g id="artproject">
<path fill="#FFFFFF" d="M69.758,276.358h-4.104v-1.621l3.886-6.068h1.853v6.218h1.405v1.472h-1.405v1.964h-1.635V276.358z
	 M69.758,270.987H69.73l-2.413,3.899h2.44V270.987z"/>
<path fill="#FFFFFF" d="M88.591,268.67h1.486l4.159,9.652h-1.964l-0.9-2.208h-4.185l-0.873,2.208h-1.922L88.591,268.67z
	 M90.772,274.641l-1.485-3.926l-1.513,3.926H90.772z"/>
<g>
	<defs>
		<rect id="SVGID_1_" width="361.128" height="504.538"/>
	</defs>
	<clipPath id="SVGID_2_">
		<use xlink:href="#SVGID_1_"  overflow="visible"/>
	</clipPath>
	<path clip-path="url(#SVGID_2_)" fill="#FFFFFF" d="M98.862,268.67h3.354c1.853,0,3.598,0.6,3.598,2.767
		c0,1.392-0.804,2.414-2.235,2.618l2.562,4.268h-2.072l-2.235-4.091h-1.255v4.091h-1.717V268.67z M101.915,272.76
		c0.969,0,2.1-0.082,2.1-1.336c0-1.146-1.064-1.282-1.95-1.282h-1.486v2.618H101.915z"/>
	<polygon clip-path="url(#SVGID_2_)" fill="#FFFFFF" points="112.73,270.224 109.772,270.224 109.772,268.67 117.407,268.67 
		117.407,270.224 114.449,270.224 114.449,278.321 112.73,278.321 	"/>
	<rect x="122.087" y="268.669" clip-path="url(#SVGID_2_)" fill="#FFFFFF" width="1.718" height="9.652"/>
	<path clip-path="url(#SVGID_2_)" fill="#FFFFFF" d="M134.196,270.741c-0.368-0.518-1.022-0.763-1.691-0.763
		c-0.79,0-1.582,0.354-1.582,1.241c0,1.936,4.581,0.831,4.581,4.266c0,2.073-1.635,3.082-3.531,3.082
		c-1.2,0-2.372-0.368-3.162-1.309l1.295-1.254c0.423,0.641,1.145,1.009,1.908,1.009c0.791,0,1.691-0.438,1.691-1.323
		c0-2.113-4.581-0.9-4.581-4.349c0-1.991,1.773-2.917,3.558-2.917c1.01,0,2.018,0.286,2.768,0.995L134.196,270.741z"/>
	<polygon clip-path="url(#SVGID_2_)" fill="#FFFFFF" points="142.815,270.224 139.857,270.224 139.857,268.67 147.493,268.67 
		147.493,270.224 144.535,270.224 144.535,278.321 142.815,278.321 	"/>
	<path clip-path="url(#SVGID_2_)" fill="#FFFFFF" d="M156.943,270.741c-0.368-0.518-1.022-0.763-1.691-0.763
		c-0.79,0-1.582,0.354-1.582,1.241c0,1.936,4.581,0.831,4.581,4.266c0,2.073-1.635,3.082-3.531,3.082
		c-1.2,0-2.372-0.368-3.162-1.309l1.295-1.254c0.423,0.641,1.145,1.009,1.908,1.009c0.791,0,1.691-0.438,1.691-1.323
		c0-2.113-4.581-0.9-4.581-4.349c0-1.991,1.773-2.917,3.558-2.917c1.01,0,2.018,0.286,2.768,0.995L156.943,270.741z"/>
	<path clip-path="url(#SVGID_2_)" fill="#FFFFFF" d="M178.875,276.809c-0.914,1.253-2.168,1.76-3.586,1.76
		c-2.945,0-4.989-2.127-4.989-5.072c0-2.944,2.044-5.071,4.989-5.071c1.309,0,2.481,0.436,3.326,1.514l-0.735,0.613
		c-0.6-0.899-1.623-1.31-2.591-1.31c-2.522,0-4.089,1.854-4.089,4.254c0,2.398,1.567,4.253,4.089,4.253
		c0.968,0,2.168-0.463,2.85-1.499L178.875,276.809z"/>
	<polygon clip-path="url(#SVGID_2_)" fill="#FFFFFF" points="184.059,268.669 189.963,268.669 189.963,269.488 184.959,269.488 
		184.959,272.924 189.649,272.924 189.649,273.741 184.959,273.741 184.959,277.505 190.18,277.505 190.18,278.321 184.059,278.321 
			"/>
	<polygon clip-path="url(#SVGID_2_)" fill="#FFFFFF" points="195.691,268.669 196.592,268.669 196.592,277.505 201.091,277.505 
		201.091,278.321 195.691,278.321 	"/>
	<polygon clip-path="url(#SVGID_2_)" fill="#FFFFFF" points="206.043,268.669 211.946,268.669 211.946,269.488 206.942,269.488 
		206.942,272.924 211.633,272.924 211.633,273.741 206.942,273.741 206.942,277.505 212.164,277.505 212.164,278.321 
		206.043,278.321 	"/>
	<path clip-path="url(#SVGID_2_)" fill="#FFFFFF" d="M217.677,268.669h2.78c1.474,0,3.109,0.368,3.109,2.551
		c0,0.98-0.586,1.772-1.73,2.004v0.026c1.267,0.097,2.152,1.022,2.152,2.372c0,2.224-1.922,2.7-3.229,2.7h-3.082V268.669z
		 M218.576,272.841h1.868c1.868,0,2.222-1.022,2.222-1.621c0-1.351-0.953-1.731-2.099-1.731h-1.991V272.841z M218.576,277.504h2.059
		c2.113,0,2.454-1.173,2.454-1.854c0-1.43-1.173-1.99-2.316-1.99h-2.196V277.504z"/>
	<path clip-path="url(#SVGID_2_)" fill="#FFFFFF" d="M229.813,268.669h2.536c0.764,0,3.436,0,3.436,2.536
		c0,1.84-1.404,2.345-2.468,2.482l2.809,4.635h-1.022l-2.712-4.581h-1.678v4.581h-0.9V268.669z M230.714,272.923h1.909
		c1.894,0,2.263-1.05,2.263-1.718c0-0.667-0.369-1.717-2.263-1.717h-1.909V272.923z"/>
	<path clip-path="url(#SVGID_2_)" fill="#FFFFFF" d="M244.405,268.67h0.927l4.062,9.651h-1.008l-1.05-2.562h-5.113l-1.091,2.562
		h-0.94L244.405,268.67z M244.828,269.651l-2.249,5.289h4.431L244.828,269.651z"/>
	<polygon clip-path="url(#SVGID_2_)" fill="#FFFFFF" points="255.548,269.488 252.249,269.488 252.249,268.669 259.747,268.669 
		259.747,269.488 256.448,269.488 256.448,278.322 255.548,278.322 	"/>
	<rect x="264.781" y="268.669" clip-path="url(#SVGID_2_)" fill="#FFFFFF" width="0.899" height="9.652"/>
	<polygon clip-path="url(#SVGID_2_)" fill="#FFFFFF" points="271.872,268.669 273.031,268.669 278.907,277.122 278.935,277.122 
		278.935,268.669 279.834,268.669 279.834,278.321 278.676,278.321 272.8,269.869 272.772,269.869 272.772,278.321 271.872,278.321 
			"/>
	<path clip-path="url(#SVGID_2_)" fill="#FFFFFF" d="M293.991,277.695c-1.118,0.64-2.345,0.873-3.6,0.873
		c-2.944,0-4.989-2.127-4.989-5.072s2.045-5.072,4.989-5.072c1.432,0,2.591,0.437,3.478,1.336l-0.656,0.683
		c-0.585-0.709-1.771-1.2-2.821-1.2c-2.521,0-4.089,1.854-4.089,4.254s1.567,4.253,4.089,4.253c1.036,0,1.964-0.136,2.699-0.572
		v-3.244h-2.317v-0.818h3.218V277.695z"/>
	<path clip-path="url(#SVGID_2_)" fill="#FFFFFF" d="M0,295.945h2.781c1.364,0,3.109,0.532,3.109,2.55
		c0,1.745-1.39,2.521-2.904,2.521H0.9v4.581H0V295.945z M0.9,300.199h2.046c1.022,0,2.044-0.438,2.044-1.704
		c0-1.241-1.063-1.731-2.099-1.731H0.9V300.199z"/>
	<path clip-path="url(#SVGID_2_)" fill="#FFFFFF" d="M13.323,295.945h0.927l4.063,9.652h-1.008l-1.05-2.562h-5.113l-1.091,2.562
		h-0.94L13.323,295.945z M13.746,296.928l-2.249,5.289h4.431L13.746,296.928z"/>
	<polygon clip-path="url(#SVGID_2_)" fill="#FFFFFF" points="24.466,296.764 21.167,296.764 21.167,295.945 28.665,295.945 
		28.665,296.764 25.366,296.764 25.366,305.598 24.466,305.598 	"/>
	<polygon clip-path="url(#SVGID_2_)" fill="#FFFFFF" points="35.839,296.764 32.541,296.764 32.541,295.945 40.039,295.945 
		40.039,296.764 36.739,296.764 36.739,305.598 35.839,305.598 	"/>
	<polygon clip-path="url(#SVGID_2_)" fill="#FFFFFF" points="45.073,295.945 50.977,295.945 50.977,296.765 45.973,296.765 
		45.973,300.199 50.663,300.199 50.663,301.018 45.973,301.018 45.973,304.78 51.194,304.78 51.194,305.598 45.073,305.598 	"/>
	<path clip-path="url(#SVGID_2_)" fill="#FFFFFF" d="M56.706,295.945h2.536c0.764,0,3.436,0,3.436,2.536
		c0,1.84-1.405,2.345-2.468,2.481l2.808,4.635h-1.022l-2.712-4.581h-1.678v4.581h-0.9V295.945z M57.606,300.199h1.909
		c1.894,0,2.263-1.05,2.263-1.718c0-0.667-0.369-1.718-2.263-1.718h-1.909V300.199z"/>
	<polygon clip-path="url(#SVGID_2_)" fill="#FFFFFF" points="68.339,295.945 69.498,295.945 75.374,304.398 75.401,304.398 
		75.401,295.945 76.301,295.945 76.301,305.598 75.142,305.598 69.266,297.146 69.239,297.146 69.239,305.598 68.339,305.598 	"/>
	<polygon clip-path="url(#SVGID_2_)" fill="#FFFFFF" points="89.587,295.945 90.746,295.945 96.622,304.398 96.649,304.398 
		96.649,295.945 97.549,295.945 97.549,305.598 96.39,305.598 90.514,297.146 90.487,297.146 90.487,305.598 89.587,305.598 	"/>
	<path clip-path="url(#SVGID_2_)" fill="#FFFFFF" d="M108.092,295.701c2.946,0,4.99,2.127,4.99,5.07c0,2.945-2.044,5.072-4.99,5.072
		c-2.945,0-4.989-2.127-4.989-5.072C103.104,297.828,105.147,295.701,108.092,295.701 M108.092,305.024
		c2.523,0,4.09-1.854,4.09-4.253s-1.567-4.254-4.09-4.254c-2.522,0-4.089,1.854-4.089,4.254S105.57,305.024,108.092,305.024"/>
	<path clip-path="url(#SVGID_2_)" fill="#FFFFFF" d="M119.1,304.371c0.368,0,0.654,0.285,0.654,0.653s-0.286,0.655-0.654,0.655
		c-0.368,0-0.654-0.287-0.654-0.655S118.731,304.371,119.1,304.371"/>
	<polygon clip-path="url(#SVGID_2_)" fill="#FFFFFF" points="127.978,297.091 127.963,297.091 126.219,298.523 125.715,297.895 
		128.1,295.945 128.795,295.945 128.795,305.598 127.978,305.598 	"/>
	<path clip-path="url(#SVGID_2_)" fill="#FFFFFF" d="M146.428,295.945h0.927l4.063,9.652h-1.008l-1.05-2.562h-5.113l-1.091,2.562
		h-0.94L146.428,295.945z M146.851,296.928l-2.249,5.289h4.431L146.851,296.928z"/>
	<polygon clip-path="url(#SVGID_2_)" fill="#FFFFFF" points="156.358,295.945 157.517,295.945 163.393,304.398 163.42,304.398 
		163.42,295.945 164.32,295.945 164.32,305.598 163.161,305.598 157.285,297.146 157.258,297.146 157.258,305.598 156.358,305.598 	
		"/>
	<path clip-path="url(#SVGID_2_)" fill="#FFFFFF" d="M170.378,295.945h2.986c5.016,0,5.221,4.118,5.221,4.827
		s-0.205,4.825-5.221,4.825h-2.986V295.945z M171.278,304.78h1.854c2.563,0,4.553-1.241,4.553-4.008c0-2.768-1.99-4.009-4.553-4.009
		h-1.854V304.78z"/>
	<polygon clip-path="url(#SVGID_2_)" fill="#FFFFFF" points="193.371,296.764 190.071,296.764 190.071,295.945 197.569,295.945 
		197.569,296.764 194.271,296.764 194.271,305.598 193.371,305.598 	"/>
	<polygon clip-path="url(#SVGID_2_)" fill="#FFFFFF" points="202.604,295.945 203.503,295.945 203.503,300.199 208.902,300.199 
		208.902,295.945 209.802,295.945 209.802,305.598 208.902,305.598 208.902,301.018 203.503,301.018 203.503,305.598 
		202.604,305.598 	"/>
	<polygon clip-path="url(#SVGID_2_)" fill="#FFFFFF" points="215.996,295.945 221.899,295.945 221.899,296.765 216.896,296.765 
		216.896,300.199 221.586,300.199 221.586,301.018 216.896,301.018 216.896,304.78 222.117,304.78 222.117,305.598 215.996,305.598 
			"/>
	<path clip-path="url(#SVGID_2_)" fill="#FFFFFF" d="M242.669,304.085c-0.914,1.253-2.168,1.759-3.586,1.759
		c-2.944,0-4.989-2.127-4.989-5.072c0-2.943,2.045-5.07,4.989-5.07c1.31,0,2.481,0.435,3.326,1.513l-0.735,0.614
		c-0.6-0.9-1.623-1.311-2.591-1.311c-2.521,0-4.089,1.854-4.089,4.254s1.567,4.253,4.089,4.253c0.968,0,2.168-0.463,2.851-1.499
		L242.669,304.085z"/>
	<path clip-path="url(#SVGID_2_)" fill="#FFFFFF" d="M252.216,295.701c2.946,0,4.99,2.127,4.99,5.07c0,2.945-2.044,5.072-4.99,5.072
		c-2.944,0-4.988-2.127-4.988-5.072C247.228,297.828,249.271,295.701,252.216,295.701 M252.216,305.024
		c2.523,0,4.091-1.854,4.091-4.253s-1.567-4.254-4.091-4.254c-2.521,0-4.089,1.854-4.089,4.254S249.694,305.024,252.216,305.024"/>
	<polygon clip-path="url(#SVGID_2_)" fill="#FFFFFF" points="262.773,295.945 263.674,295.945 263.674,304.78 268.173,304.78 
		268.173,305.598 262.773,305.598 	"/>
	<path clip-path="url(#SVGID_2_)" fill="#FFFFFF" d="M277.487,295.701c2.946,0,4.99,2.127,4.99,5.07c0,2.945-2.044,5.072-4.99,5.072
		c-2.945,0-4.989-2.127-4.989-5.072C272.498,297.828,274.542,295.701,277.487,295.701 M277.487,305.024
		c2.523,0,4.09-1.854,4.09-4.253s-1.566-4.254-4.09-4.254c-2.521,0-4.089,1.854-4.089,4.254S274.966,305.024,277.487,305.024"/>
	<path clip-path="url(#SVGID_2_)" fill="#FFFFFF" d="M294.902,301.903c0,2.058-0.886,3.94-3.517,3.94
		c-2.632,0-3.518-1.883-3.518-3.94v-5.958h0.899v5.727c0,1.377,0.368,3.354,2.618,3.354c2.249,0,2.617-1.977,2.617-3.354v-5.727
		h0.899V301.903z"/>
	<path clip-path="url(#SVGID_2_)" fill="#FFFFFF" d="M300.919,295.945h2.536c0.764,0,3.436,0,3.436,2.536
		c0,1.84-1.405,2.345-2.468,2.481l2.808,4.635h-1.021l-2.713-4.581h-1.678v4.581h-0.899V295.945z M301.818,300.199h1.909
		c1.894,0,2.263-1.05,2.263-1.718c0-0.667-0.369-1.718-2.263-1.718h-1.909V300.199z"/>
	<path clip-path="url(#SVGID_2_)" fill="#FFFFFF" d="M319.644,295.945h2.78c1.474,0,3.109,0.368,3.109,2.55
		c0,0.98-0.586,1.772-1.73,2.004v0.027c1.267,0.096,2.152,1.021,2.152,2.372c0,2.223-1.922,2.699-3.229,2.699h-3.082V295.945z
		 M320.543,300.117h1.868c1.868,0,2.222-1.023,2.222-1.622c0-1.351-0.953-1.731-2.099-1.731h-1.991V300.117z M320.543,304.78h2.059
		c2.113,0,2.454-1.173,2.454-1.855c0-1.43-1.173-1.99-2.316-1.99h-2.196V304.78z"/>
	<polygon clip-path="url(#SVGID_2_)" fill="#FFFFFF" points="331.781,295.945 332.682,295.945 332.682,304.78 337.181,304.78 
		337.181,305.598 331.781,305.598 	"/>
	<path clip-path="url(#SVGID_2_)" fill="#FFFFFF" d="M348.99,301.903c0,2.058-0.886,3.94-3.517,3.94
		c-2.633,0-3.519-1.883-3.519-3.94v-5.958h0.9v5.727c0,1.377,0.368,3.354,2.618,3.354c2.249,0,2.616-1.977,2.616-3.354v-5.727h0.9
		V301.903z"/>
	<polygon clip-path="url(#SVGID_2_)" fill="#FFFFFF" points="355.007,295.945 360.911,295.945 360.911,296.765 355.907,296.765 
		355.907,300.199 360.597,300.199 360.597,301.018 355.907,301.018 355.907,304.78 361.128,304.78 361.128,305.598 355.007,305.598 
			"/>
	<rect x="61.561" y="323.221" clip-path="url(#SVGID_2_)" fill="#FFFFFF" width="0.9" height="9.652"/>
	<polygon clip-path="url(#SVGID_2_)" fill="#FFFFFF" points="68.653,323.221 69.812,323.221 75.688,331.674 75.715,331.674 
		75.715,323.221 76.615,323.221 76.615,332.873 75.456,332.873 69.58,324.421 69.553,324.421 69.553,332.873 68.653,332.873 	"/>
	<path clip-path="url(#SVGID_2_)" fill="#FFFFFF" d="M97.835,331.36c-0.914,1.253-2.168,1.759-3.586,1.759
		c-2.945,0-4.989-2.127-4.989-5.071s2.044-5.071,4.989-5.071c1.309,0,2.481,0.435,3.326,1.513l-0.735,0.614
		c-0.6-0.9-1.623-1.31-2.591-1.31c-2.522,0-4.089,1.854-4.089,4.254c0,2.398,1.567,4.253,4.089,4.253
		c0.968,0,2.168-0.463,2.85-1.499L97.835,331.36z"/>
	<path clip-path="url(#SVGID_2_)" fill="#FFFFFF" d="M107.383,322.977c2.946,0,4.99,2.127,4.99,5.071s-2.044,5.071-4.99,5.071
		c-2.945,0-4.989-2.127-4.989-5.071S104.438,322.977,107.383,322.977 M107.383,332.301c2.523,0,4.09-1.854,4.09-4.253
		c0-2.4-1.567-4.254-4.09-4.254c-2.522,0-4.089,1.854-4.089,4.254C103.294,330.446,104.861,332.301,107.383,332.301"/>
	<polygon clip-path="url(#SVGID_2_)" fill="#FFFFFF" points="117.94,323.221 118.84,323.221 118.84,332.056 123.339,332.056 
		123.339,332.873 117.94,332.873 	"/>
	<polygon clip-path="url(#SVGID_2_)" fill="#FFFFFF" points="128.291,323.221 129.191,323.221 129.191,332.056 133.69,332.056 
		133.69,332.873 128.291,332.873 	"/>
	<path clip-path="url(#SVGID_2_)" fill="#FFFFFF" d="M141.601,323.222h0.927l4.063,9.651h-1.008l-1.05-2.562h-5.113l-1.091,2.562
		h-0.94L141.601,323.222z M142.024,324.203l-2.249,5.289h4.431L142.024,324.203z"/>
	<path clip-path="url(#SVGID_2_)" fill="#FFFFFF" d="M151.53,323.221h2.781c1.473,0,3.109,0.368,3.109,2.55
		c0,0.981-0.586,1.773-1.731,2.004v0.027c1.267,0.096,2.153,1.022,2.153,2.372c0,2.223-1.922,2.7-3.23,2.7h-3.082V323.221z
		 M152.43,327.393h1.868c1.868,0,2.222-1.022,2.222-1.622c0-1.35-0.954-1.73-2.099-1.73h-1.991V327.393z M152.43,332.056h2.058
		c2.114,0,2.454-1.173,2.454-1.854c0-1.431-1.172-1.99-2.316-1.99h-2.196V332.056z"/>
	<path clip-path="url(#SVGID_2_)" fill="#FFFFFF" d="M168.031,322.977c2.946,0,4.99,2.127,4.99,5.071s-2.044,5.071-4.99,5.071
		c-2.945,0-4.989-2.127-4.989-5.071S165.086,322.977,168.031,322.977 M168.031,332.301c2.523,0,4.09-1.854,4.09-4.253
		c0-2.4-1.567-4.254-4.09-4.254c-2.522,0-4.089,1.854-4.089,4.254C163.942,330.446,165.509,332.301,168.031,332.301"/>
	<path clip-path="url(#SVGID_2_)" fill="#FFFFFF" d="M178.574,323.221h2.536c0.765,0,3.437,0,3.437,2.536
		c0,1.84-1.405,2.345-2.468,2.482l2.808,4.635h-1.021l-2.713-4.581h-1.678v4.581h-0.9V323.221z M179.474,327.475h1.909
		c1.894,0,2.263-1.05,2.263-1.718c0-0.667-0.369-1.717-2.263-1.717h-1.909V327.475z"/>
	<path clip-path="url(#SVGID_2_)" fill="#FFFFFF" d="M193.166,323.222h0.927l4.063,9.651h-1.008l-1.051-2.562h-5.112l-1.091,2.562
		h-0.94L193.166,323.222z M193.589,324.203l-2.249,5.289h4.432L193.589,324.203z"/>
	<polygon clip-path="url(#SVGID_2_)" fill="#FFFFFF" points="204.309,324.04 201.009,324.04 201.009,323.221 208.507,323.221 
		208.507,324.04 205.208,324.04 205.208,332.874 204.309,332.874 	"/>
	<rect x="213.542" y="323.221" clip-path="url(#SVGID_2_)" fill="#FFFFFF" width="0.9" height="9.652"/>
	<path clip-path="url(#SVGID_2_)" fill="#FFFFFF" d="M224.996,322.977c2.946,0,4.99,2.127,4.99,5.071s-2.044,5.071-4.99,5.071
		c-2.944,0-4.988-2.127-4.988-5.071S222.052,322.977,224.996,322.977 M224.996,332.301c2.523,0,4.09-1.854,4.09-4.253
		c0-2.4-1.566-4.254-4.09-4.254c-2.521,0-4.089,1.854-4.089,4.254C220.907,330.446,222.475,332.301,224.996,332.301"/>
	<polygon clip-path="url(#SVGID_2_)" fill="#FFFFFF" points="235.553,323.221 236.712,323.221 242.588,331.674 242.615,331.674 
		242.615,323.221 243.515,323.221 243.515,332.873 242.356,332.873 236.48,324.421 236.453,324.421 236.453,332.873 
		235.553,332.873 	"/>
	<polygon clip-path="url(#SVGID_2_)" fill="#FFFFFF" points="255.534,323.221 256.46,323.221 258.861,331.769 258.888,331.769 
		261.327,323.221 262.474,323.221 264.913,331.769 264.941,331.769 267.34,323.221 268.268,323.221 265.459,332.873 
		264.354,332.873 261.914,324.284 261.887,324.284 259.446,332.873 258.342,332.873 	"/>
	<rect x="273.207" y="323.221" clip-path="url(#SVGID_2_)" fill="#FFFFFF" width="0.9" height="9.652"/>
	<polygon clip-path="url(#SVGID_2_)" fill="#FFFFFF" points="282.439,324.04 279.141,324.04 279.141,323.221 286.639,323.221 
		286.639,324.04 283.34,324.04 283.34,332.874 282.439,332.874 	"/>
	<polygon clip-path="url(#SVGID_2_)" fill="#FFFFFF" points="291.672,323.221 292.572,323.221 292.572,327.475 297.972,327.475 
		297.972,323.221 298.87,323.221 298.87,332.873 297.972,332.873 297.972,328.293 292.572,328.293 292.572,332.873 291.672,332.873 
			"/>
	<path clip-path="url(#SVGID_2_)" fill="#FFFFFF" d="M81.515,350.497h3.354c1.853,0,3.598,0.6,3.598,2.767
		c0,1.392-0.804,2.414-2.235,2.618l2.562,4.268h-2.072l-2.235-4.09h-1.255v4.09h-1.717V350.497z M84.568,354.587
		c0.969,0,2.1-0.082,2.1-1.336c0-1.145-1.064-1.282-1.95-1.282h-1.486v2.618H84.568z"/>
	<path clip-path="url(#SVGID_2_)" fill="#FFFFFF" d="M98.234,350.252c3.012-0.055,5.139,1.962,5.139,5.058
		c0,3.013-2.127,5.03-5.139,5.085c-2.972,0-5.099-2.018-5.099-5.03C93.135,352.269,95.262,350.252,98.234,350.252 M98.247,358.84
		c2.005,0,3.327-1.527,3.327-3.585c0-1.922-1.322-3.449-3.327-3.449c-1.99,0-3.313,1.527-3.313,3.449
		C94.934,357.312,96.257,358.84,98.247,358.84"/>
	<polygon clip-path="url(#SVGID_2_)" fill="#FFFFFF" points="110.917,356.019 107.291,350.497 109.445,350.497 111.817,354.341 
		114.216,350.497 116.262,350.497 112.635,356.019 112.635,360.148 110.917,360.148 	"/>
	<path clip-path="url(#SVGID_2_)" fill="#FFFFFF" d="M122.809,350.497h1.486l4.159,9.652h-1.964l-0.9-2.208h-4.185l-0.873,2.208
		h-1.922L122.809,350.497z M124.99,356.468l-1.485-3.926l-1.513,3.926H124.99z"/>
	<polygon clip-path="url(#SVGID_2_)" fill="#FFFFFF" points="133.08,350.497 134.798,350.497 134.798,358.595 138.901,358.595 
		138.901,360.148 133.08,360.148 	"/>
	<path clip-path="url(#SVGID_2_)" fill="#FFFFFF" d="M157.898,352.76c-0.709-0.749-1.363-0.954-2.032-0.954
		c-1.99,0-3.313,1.527-3.313,3.449c0,2.059,1.323,3.585,3.313,3.585c0.778,0,1.528-0.354,2.168-1.172l1.418,1.009
		c-0.872,1.2-2.182,1.718-3.599,1.718c-2.972,0-5.099-2.018-5.099-5.03c0-3.096,2.127-5.112,5.099-5.112
		c1.309,0,2.427,0.422,3.381,1.526L157.898,352.76z"/>
	<path clip-path="url(#SVGID_2_)" fill="#FFFFFF" d="M168.727,350.252c3.012-0.055,5.139,1.962,5.139,5.058
		c0,3.013-2.127,5.03-5.139,5.085c-2.972,0-5.099-2.018-5.099-5.03C163.628,352.269,165.755,350.252,168.727,350.252 M168.74,358.84
		c2.005,0,3.327-1.527,3.327-3.585c0-1.922-1.322-3.449-3.327-3.449c-1.99,0-3.313,1.527-3.313,3.449
		C165.427,357.312,166.75,358.84,168.74,358.84"/>
	<path clip-path="url(#SVGID_2_)" fill="#FFFFFF" d="M179.053,350.497h3.245c1.867,0,3.558,0.655,3.558,2.794
		c0,2.427-1.812,2.864-3.858,2.864h-1.227v3.994h-1.718V350.497z M181.807,354.682c0.98,0,2.249-0.054,2.249-1.362
		c0-1.187-1.131-1.35-2.059-1.35h-1.227v2.712H181.807z"/>
	<polygon clip-path="url(#SVGID_2_)" fill="#FFFFFF" points="190.918,350.497 197.312,350.497 197.312,352.051 192.636,352.051 
		192.636,354.424 197.066,354.424 197.066,355.978 192.636,355.978 192.636,358.595 197.557,358.595 197.557,360.148 
		190.918,360.148 	"/>
	<polygon clip-path="url(#SVGID_2_)" fill="#FFFFFF" points="202.782,350.497 205.06,350.497 209.735,357.668 209.763,357.694 
		209.735,357.694 209.763,357.668 209.763,350.497 211.48,350.497 211.48,360.148 209.299,360.148 204.527,352.746 204.501,352.746 
		204.501,360.148 202.782,360.148 	"/>
	<polygon clip-path="url(#SVGID_2_)" fill="#FFFFFF" points="217.184,350.497 218.901,350.497 218.901,354.342 223.414,354.342 
		223.414,350.497 225.132,350.497 225.132,360.148 223.414,360.148 223.414,355.896 218.901,355.896 218.901,360.148 
		217.184,360.148 	"/>
	<path clip-path="url(#SVGID_2_)" fill="#FFFFFF" d="M233.943,350.497h1.486l4.159,9.652h-1.964l-0.9-2.208h-4.185l-0.873,2.208
		h-1.922L233.943,350.497z M236.125,356.468l-1.485-3.926l-1.513,3.926H236.125z"/>
	<path clip-path="url(#SVGID_2_)" fill="#FFFFFF" d="M252.789,359.44c-1.173,0.627-2.509,0.955-3.994,0.955
		c-2.972,0-5.099-2.019-5.099-5.032c0-3.094,2.127-5.111,5.099-5.111c1.471,0,2.794,0.313,3.803,1.213l-1.268,1.281
		c-0.613-0.599-1.554-0.939-2.522-0.939c-1.989,0-3.313,1.525-3.313,3.448c0,2.059,1.324,3.585,3.313,3.585
		c0.872,0,1.663-0.164,2.264-0.505v-2.275h-1.978v-1.555h3.695V359.44z"/>
	<polygon clip-path="url(#SVGID_2_)" fill="#FFFFFF" points="258.356,350.497 264.749,350.497 264.749,352.051 260.074,352.051 
		260.074,354.424 264.506,354.424 264.506,355.978 260.074,355.978 260.074,358.595 264.995,358.595 264.995,360.148 
		258.356,360.148 	"/>
	<polygon clip-path="url(#SVGID_2_)" fill="#FFFFFF" points="270.222,350.497 272.498,350.497 277.175,357.668 277.201,357.694 
		277.175,357.694 277.201,357.668 277.201,350.497 278.919,350.497 278.919,360.148 276.737,360.148 271.967,352.746 
		271.939,352.746 271.939,360.148 270.222,360.148 	"/>
	<path clip-path="url(#SVGID_2_)" fill="#FFFFFF" d="M141.167,483.335v3.053c0,0,5.43,3.047,12.694,3.047
		c7.261,0,13.375-3.261,13.375-3.261s4.887,3.189,13.987,3.189c7.19,0,12.153-3.262,12.153-3.262s5.581,3.333,13.996,3.333
		c6.881,0,11.996-3.047,11.996-3.047v-2.981c0,0-5.504,3.194-12.229,3.194c-8.256,0-13.605-3.623-13.605-3.623
		s-6.958,3.762-12.616,3.762c-7.183,0-13.681-3.762-13.681-3.762s-5.58,3.623-13.221,3.623
		C146.366,486.601,141.167,483.335,141.167,483.335"/>
	<path clip-path="url(#SVGID_2_)" fill="#FFFFFF" d="M141.167,490.884v3.054c0,0,5.43,3.056,12.694,3.056
		c7.261,0,13.375-3.271,13.375-3.271s4.887,3.198,13.987,3.198c7.19,0,12.153-3.269,12.153-3.269s5.581,3.342,13.996,3.342
		c6.881,0,11.996-3.056,11.996-3.056v-2.981c0,0-5.504,3.189-12.229,3.189c-8.256,0-13.605-3.62-13.605-3.62
		s-6.958,3.768-12.616,3.768c-7.183,0-13.681-3.768-13.681-3.768s-5.58,3.62-13.221,3.62
		C146.366,494.146,141.167,490.884,141.167,490.884"/>
	<path clip-path="url(#SVGID_2_)" fill="#FFFFFF" d="M141.167,498.429v3.056c0,0,5.43,3.054,12.694,3.054
		c7.261,0,13.375-3.263,13.375-3.263s4.887,3.193,13.987,3.193c7.19,0,12.153-3.27,12.153-3.27s5.581,3.339,13.996,3.339
		c6.881,0,11.996-3.054,11.996-3.054v-2.979c0,0-5.504,3.192-12.229,3.192c-8.256,0-13.605-3.62-13.605-3.62
		s-6.958,3.762-12.616,3.762c-7.183,0-13.681-3.762-13.681-3.762s-5.58,3.62-13.221,3.62
		C146.366,501.697,141.167,498.429,141.167,498.429"/>
	<path clip-path="url(#SVGID_2_)" fill="#FFFFFF" d="M214.364,446.879c-0.433,1.239-1.104,2.382-1.865,3.5
		c-0.166,0.26-0.493,0.623-0.906,0.463c-0.406-0.192-0.347-0.469-0.27-0.677c2.117-2.847,3.6-6.737,2.479-10.382
		c-0.384-1.451-1.872-2.381-3.185-2.974c-1.599-0.632-3.361-0.852-5.067-0.514c-0.639,0.178-1.082,0.208-1.212-0.075
		c-0.086-0.187-0.105-0.203-0.12-0.402c0.04-0.463,0.572-0.485,0.829-0.589c2.725-0.638,5.481,0.036,7.601,1.454
		c0.771,0.569,1.517,1.297,1.89,2.24C215.705,441.389,215.289,444.406,214.364,446.879 M210.722,448.287
		c-0.127,0.046-0.32,0.123-0.36-0.077c-0.094-0.802,0.449-1.572,0.835-2.221c-0.113-0.1-0.316-0.065-0.439-0.238
		c-0.343-0.518,0-1.175,0.147-1.688c-0.094-0.182-0.147-0.358-0.17-0.562c-0.064-0.6,0.223-1.219,0.724-1.555
		c0.454-0.655,0.414-1.5,0.101-2.186c-0.1-0.286,0.221-0.27,0.434-0.119c0.795,0.564,0.692,2.584,0.026,3.517
		c-0.127,0.192-0.026,0.355,0.01,0.499c0.17,0.383,0.17,0.319,0.375,0.785c0.328,0.634-0.082,1.081-0.298,1.681
		C211.759,446.945,211.458,447.714,210.722,448.287 M210.032,440.64c-0.423,0.13-0.826-0.152-1.096-0.386
		c-0.371-0.1-0.559,0.193-0.881,0.172c-0.59-0.105-0.666-0.807-1.009-1.219c-0.589-0.783-1.211,0.306-1.837-0.053
		c-0.15-0.155-0.203-0.438-0.15-0.649c0.051-0.321,0.167-0.716,0.634-0.83c0.546-0.103,1.156-0.125,1.628,0.195
		c0.687,0.403,0.625,1.436,1.562,1.397c0.783-0.255-0.167-1.12,0.261-1.313c0.316-0.158,1.11,0.68,1.319,1.253
		c0.096,0.188,0.102,0.293,0.096,0.465C210.528,440.277,210.385,440.514,210.032,440.64 M209.673,453.324
		c-0.744,0.817-1.285,1.644-1.727,2.575l-0.047,0.044c-0.659-0.359-0.847-0.254-1.231,0.372c-0.361,0.583-0.389,0.814,0.159,1.212
		l-0.043,0.126c-0.791,1.292-1.511,2.285-2.742,3.354c-0.961,0.813-2.759-0.029-2.916-1.357c-2.502,1.813-5.486,0.355-6.071-1.681
		c-1.378,1.567-3.319,2.751-6.491,0.276c-2.12,1.119-5.707,2.077-8.216-1.266h-0.037c-2.507,3.343-6.096,2.385-8.217,1.266
		c-3.173,2.475-5.109,1.291-6.489-0.276c-0.59,2.036-3.571,3.494-6.075,1.681c-0.161,1.328-1.952,2.171-2.916,1.357
		c-1.233-1.068-1.947-2.062-2.744-3.354l-0.035-0.126c0.536-0.397,0.509-0.629,0.149-1.212c-0.377-0.626-0.558-0.731-1.224-0.372
		l-0.043-0.044c-0.457-0.932-0.978-1.758-1.734-2.575c-0.279-0.316-0.829-0.557-0.442-0.866c0.232-0.212,0.519-0.347,0.838-0.471
		c0.543-0.23,1.184-0.434,1.68-0.021c0.65,0.862,0.076,2.163,0.397,2.426c0.096,0.088,0.246,0.132,0.379,0.035
		c0.546-0.491,1.1-1.792,1.94-1.424c0.756,0.521,1.351,1.925,1.512,3.113c0.067,0.627,0.224,1.389-0.291,1.814
		c-0.338,0.298-0.935-0.067-1.241,0.282c-0.18,0.479,0.157,0.704,0.416,1.114c0.376,0.425,0.838,1.022,1.534,1.067
		c0.971-0.134,1.091-1.143,1.492-1.797c0.115-0.18,0.115-0.087,0.271,0.015c0.896,0.645,2.082,1.097,3.195,0.95
		c0.561-0.131,1.194-0.422,1.374-1.034c0.142-0.396,0.083-0.762-0.007-1.121c-0.619-1.12-1.166,0.673-1.986,0.12
		c-0.858-0.656-1.578-1.642-1.914-2.764c-0.123-0.403-0.283-1.001,0.101-1.366c0.457-0.395,0.981-0.029,1.507-0.061
		c0.408,0.031,0.269-0.334,0.246-0.447c-0.366-0.581-1.368-0.784-1.422-1.622c0.054-0.734,0.681-1.021,1.345-1.375
		c1.055-0.474,2.272-0.826,3.464-0.602c0.277,0.074,0.563,0.194,0.669,0.556c0.053,0.318-0.083,0.452-0.157,0.639
		c-0.148,0.402-0.558,0.843-0.149,1.314c0.149,0.23,0.359,0.216,0.626,0.065c0.365-0.388,0.828-0.873,1.344-0.781
		c0.686,0.074,1.068,1.073,1.23,1.843c0.242,1.128,0.344,2.397-0.312,3.322c-0.702,0.606-1.193-0.588-1.854-0.087
		c-0.186,0.193-0.013,0.774,0.134,1.096c0.389,0.673,0.802,1.197,1.571,1.354c1.158,0.161,1.84-0.107,2.795-1.085
		c0.372-0.421,0.271-0.246,0.722-0.777c0.4,0.389,1.003,0.928,1.56,1.157c1.286,0.634,3.164,0.711,4.137-0.151
		c0.644-0.542,1.003-1.557,0.788-1.812c-0.975-0.994-1.082,0.574-1.761,0.82c-0.868,0.307-1.264,0.092-1.685-0.342
		c-1.024-1.384-1.113-3.399-0.514-5.071c0.09-0.18,0.09-0.18,0.202-0.349c0.326-0.456,0.716-0.592,1.17-0.517
		c0.634,0.119,1.05,0.612,1.319,1.143c0.116,0.216,0.416,0.209,0.644,0.129c0.242-0.077,0.45-0.361,0.318-0.592
		c-0.377-0.526-0.994-0.912-1.328-1.458c-0.219-0.372-0.319-0.945-0.116-1.386c0.143-0.378,0.487-0.685,0.839-0.949
		c0.758-0.48,1.753-0.734,2.748-0.734h0.045c0.987,0,1.979,0.254,2.735,0.734c0.351,0.265,0.704,0.571,0.841,0.949
		c0.206,0.44,0.105,1.014-0.116,1.386c-0.34,0.546-0.942,0.932-1.328,1.458c-0.131,0.23,0.083,0.515,0.317,0.592
		c0.237,0.08,0.523,0.087,0.642-0.129c0.272-0.53,0.691-1.023,1.322-1.143c0.454-0.075,0.848,0.061,1.182,0.517
		c0.101,0.169,0.101,0.169,0.184,0.349c0.605,1.672,0.513,3.688-0.505,5.071c-0.42,0.434-0.819,0.648-1.689,0.342
		c-0.671-0.246-0.778-1.814-1.748-0.82c-0.226,0.256,0.126,1.271,0.776,1.812c0.972,0.862,2.848,0.785,4.145,0.151
		c0.556-0.229,1.145-0.769,1.555-1.157c0.448,0.531,0.352,0.356,0.729,0.777c0.943,0.978,1.632,1.246,2.78,1.085
		c0.774-0.157,1.191-0.682,1.575-1.354c0.146-0.321,0.329-0.902,0.135-1.096c-0.647-0.501-1.151,0.693-1.85,0.087
		c-0.659-0.925-0.548-2.194-0.311-3.322c0.164-0.77,0.551-1.769,1.225-1.843c0.527-0.092,0.973,0.394,1.354,0.781
		c0.253,0.15,0.463,0.165,0.622-0.065c0.408-0.472,0-0.912-0.159-1.314c-0.069-0.187-0.21-0.32-0.155-0.639
		c0.108-0.361,0.398-0.481,0.682-0.556c1.176-0.225,2.402,0.128,3.457,0.602c0.659,0.354,1.289,0.641,1.347,1.375
		c-0.058,0.838-1.054,1.041-1.434,1.622c-0.013,0.113-0.153,0.479,0.256,0.447c0.524,0.031,1.045-0.334,1.498,0.061
		c0.396,0.365,0.23,0.963,0.099,1.366c-0.324,1.122-1.046,2.107-1.901,2.764c-0.821,0.553-1.376-1.24-1.982-0.12
		c-0.088,0.359-0.163,0.725-0.018,1.121c0.185,0.612,0.811,0.903,1.377,1.034c1.115,0.146,2.303-0.306,3.193-0.95
		c0.161-0.102,0.161-0.194,0.273-0.015c0.403,0.654,0.518,1.663,1.486,1.797c0.701-0.045,1.167-0.643,1.543-1.067
		c0.258-0.41,0.592-0.636,0.412-1.114c-0.311-0.35-0.893,0.016-1.238-0.282c-0.505-0.426-0.356-1.188-0.296-1.814
		c0.17-1.188,0.759-2.593,1.517-3.113c0.839-0.368,1.381,0.933,1.939,1.424c0.143,0.097,0.282,0.053,0.383-0.035
		c0.311-0.263-0.262-1.563,0.394-2.426c0.491-0.412,1.135-0.209,1.687,0.021c0.316,0.124,0.603,0.259,0.826,0.471
		C210.501,452.768,209.952,453.008,209.673,453.324 M203.798,463.554c-0.168,0.046-0.571,0-0.824-0.044
		c-1.207-0.277-9.898-2.008-22.618-2.017h-0.045c-12.727,0.009-21.429,1.739-22.632,2.017c-0.25,0.044-0.646,0.09-0.808,0.044
		c-0.16-0.059-0.35-0.321-0.234-0.545c0.068-0.195,0.256-0.306,0.42-0.369c4.562-0.983,14.091-2.4,23.254-2.41h0.045
		c9.149,0.01,18.689,1.427,23.238,2.41c0.176,0.063,0.362,0.174,0.426,0.369C204.136,463.232,203.949,463.495,203.798,463.554
		 M203.054,467.862c-0.107-0.008-0.056-0.267-0.065-0.434c-0.07-0.27-0.486-0.39-0.512-0.454c-0.154-0.092-0.142-0.577,0.053-0.71
		c0.102-0.082,0.293-0.097,0.405-0.029c0.292,0.149,0.562,0.491,0.541,0.91C203.401,467.476,203.302,467.868,203.054,467.862
		 M201.597,468.713c0.033,0.073,0.076,0.12,0.146,0.203c0.084,0.135,0.363,0.344,0.1,0.51c-0.108,0.013-0.241,0-0.36-0.113
		c-0.833-0.81-0.98-2.076-0.614-3.158c0.211-0.489,0.689-1.314,1.288-1.287c0.411,0.01,0.166,0.566-0.058,0.785
		C201.447,466.434,201.051,467.722,201.597,468.713 M196.479,464.71c0.067-0.494,0.523-0.845,1.016-0.777l0.802,0.092
		c0.496,0.07,0.854,0.516,0.797,1.016c-0.071,0.501-0.519,0.852-1.015,0.792l-0.806-0.105
		C196.775,465.665,196.419,465.219,196.479,464.71 M197.048,468.333l0.813,0.106c0.487,0.058,0.844,0.507,0.786,0.999
		c-0.071,0.51-0.515,0.859-1.011,0.799l-0.815-0.103c-0.495-0.061-0.852-0.509-0.781-1.01
		C196.096,468.623,196.555,468.273,197.048,468.333 M190.742,465.929l1.385-1.18c0.243-0.209,0.608-0.172,0.812,0.064l1.164,1.391
		c0.214,0.24,0.182,0.612-0.065,0.815l-1.385,1.165c-0.242,0.209-0.605,0.169-0.812-0.067l-1.168-1.391
		C190.467,466.49,190.503,466.115,190.742,465.929 M185.95,464.053c0-0.499,0.394-0.903,0.898-0.903h0.819
		c0.493,0,0.904,0.404,0.904,0.903c0,0.493-0.411,0.912-0.904,0.912h-0.819C186.344,464.965,185.95,464.546,185.95,464.053
		 M186.746,467.489h0.823c0.501,0,0.897,0.408,0.897,0.914c0,0.5-0.396,0.899-0.897,0.899h-0.823c-0.495,0-0.904-0.399-0.904-0.899
		C185.842,467.897,186.251,467.489,186.746,467.489 M176.882,467.652v-4.52c0-0.393,0.311-0.722,0.711-0.722h5.906
		c0.402,0,0.719,0.329,0.719,0.722v4.52c0,0.403-0.316,0.718-0.719,0.718h-5.906C177.193,468.37,176.882,468.056,176.882,467.652
		 M174.811,468.403c0,0.5-0.4,0.899-0.899,0.899h-0.825c-0.492,0-0.901-0.399-0.901-0.899c0-0.506,0.409-0.914,0.901-0.914h0.825
		C174.411,467.489,174.811,467.897,174.811,468.403 M173.813,464.965h-0.82c-0.501,0-0.904-0.419-0.904-0.912
		c0-0.499,0.403-0.903,0.904-0.903h0.82c0.499,0,0.898,0.404,0.898,0.903C174.711,464.546,174.312,464.965,173.813,464.965
		 M166.545,466.204l1.176-1.391c0.209-0.236,0.575-0.273,0.811-0.064l1.381,1.18c0.246,0.187,0.273,0.562,0.073,0.798l-1.171,1.391
		c-0.2,0.236-0.566,0.276-0.812,0.067l-1.384-1.165C166.376,466.816,166.346,466.444,166.545,466.204 M164.619,469.125
		c0.065,0.501-0.289,0.949-0.784,1.01l-0.81,0.103c-0.492,0.061-0.951-0.289-1.008-0.799c-0.07-0.492,0.289-0.941,0.787-0.999
		l0.807-0.106C164.104,468.273,164.552,468.623,164.619,469.125 M163.395,465.727l-0.817,0.105c-0.493,0.06-0.945-0.291-1.01-0.792
		c-0.061-0.5,0.293-0.945,0.786-1.016l0.814-0.092c0.496-0.067,0.952,0.283,1.005,0.777
		C164.24,465.219,163.887,465.665,163.395,465.727 M201.504,473.299c-7.064-0.719-13.882-1.099-21.148-1.118h-0.045
		c-7.283,0.02-14.083,0.399-21.157,1.118c-0.531,0.037-0.884-0.097-0.904-0.333c-0.031-0.307,0.067-0.473,0.296-0.533
		c1.938-0.358,4.095-0.567,6.063-0.71c5.148-0.514,10.42-0.829,15.702-0.829h0.045c5.273,0,10.55,0.315,15.7,0.829
		c1.969,0.143,4.107,0.352,6.051,0.71c0.229,0.061,0.34,0.227,0.303,0.533C202.385,473.202,202.03,473.336,201.504,473.299
		 M180.355,474.53h-0.045c-1.044-0.014-13.831-0.2-15.34-0.617c2.212-0.479,11.844-0.599,15.34-0.607h0.045
		c3.486,0.009,13.123,0.129,15.334,0.607C194.178,474.33,181.393,474.517,180.355,474.53 M158.556,465.652
		c-0.218-0.219-0.459-0.775-0.056-0.785c0.608-0.027,1.079,0.798,1.281,1.287c0.373,1.082,0.226,2.349-0.609,3.158
		c-0.117,0.113-0.253,0.126-0.353,0.113c-0.273-0.166,0.012-0.375,0.094-0.51c0.075-0.083,0.113-0.13,0.148-0.203
		C159.608,467.722,159.215,466.434,158.556,465.652 M157.665,467.429c-0.013,0.167,0.04,0.426-0.062,0.434
		c-0.241,0.006-0.339-0.387-0.425-0.717c-0.019-0.419,0.25-0.761,0.546-0.91c0.124-0.067,0.3-0.053,0.41,0.029
		c0.183,0.133,0.204,0.618,0.048,0.71C158.154,467.039,157.742,467.159,157.665,467.429 M150.101,439.672
		c-0.019-0.172,0.004-0.277,0.09-0.465c0.21-0.573,1.001-1.411,1.316-1.253c0.431,0.193-0.509,1.059,0.256,1.313
		c0.954,0.038,0.886-0.994,1.573-1.397c0.475-0.32,1.081-0.298,1.624-0.195c0.472,0.114,0.586,0.509,0.635,0.83
		c0.057,0.212,0,0.494-0.146,0.649c-0.626,0.358-1.255-0.73-1.837,0.053c-0.342,0.412-0.426,1.113-1.009,1.219
		c-0.329,0.021-0.507-0.271-0.881-0.172c-0.272,0.233-0.669,0.516-1.098,0.386C150.274,440.514,150.133,440.277,150.101,439.672
		 M150.296,448.21c-0.038,0.2-0.241,0.123-0.358,0.077c-0.736-0.573-1.038-1.342-1.387-2.163c-0.212-0.6-0.615-1.047-0.299-1.681
		c0.206-0.466,0.206-0.402,0.379-0.785c0.04-0.144,0.139-0.307,0.006-0.499c-0.665-0.933-0.768-2.952,0.034-3.517
		c0.206-0.15,0.531-0.167,0.419,0.119c-0.295,0.686-0.336,1.53,0.112,2.186c0.497,0.336,0.788,0.955,0.71,1.555
		c-0.014,0.203-0.066,0.38-0.153,0.562c0.148,0.513,0.486,1.17,0.139,1.688c-0.112,0.173-0.334,0.139-0.435,0.238
		C149.846,446.638,150.394,447.408,150.296,448.21 M149.063,450.842c-0.403,0.16-0.749-0.203-0.898-0.463
		c-0.758-1.118-1.441-2.261-1.863-3.5c-0.934-2.473-1.349-5.49-0.184-7.955c0.37-0.943,1.125-1.671,1.898-2.24
		c2.122-1.418,4.867-2.092,7.591-1.454c0.268,0.104,0.792,0.126,0.828,0.589c-0.008,0.199-0.027,0.216-0.119,0.402
		c-0.136,0.283-0.57,0.253-1.21,0.075c-1.712-0.338-3.467-0.118-5.071,0.514c-1.314,0.593-2.792,1.522-3.191,2.974
		c-1.112,3.645,0.365,7.535,2.489,10.382C149.406,450.373,149.463,450.649,149.063,450.842 M157.009,443.523
		c-0.087,0.454-0.246,1.032,0.023,1.403c0.167,0.405,1.102,0.415,0.692,1.017c-0.229,0.694,1.026,1.231,0.458,1.459
		c-0.426,0.087-0.8,0.071-1.456,0.274c-1.031,0.343-1.784,0.902-2.651,1.442c-0.264,0.149-0.493,0.438-0.631,0.708
		c-0.421-0.208-1.065-0.336-1.552-0.299c-0.017-0.363,0.083-0.494,0.017-0.812c-0.037-0.749-0.298-1.412-0.573-2.114
		c0.218-0.745,0.311-1.447,0.043-2.219c-0.209-0.552,0.208-1.26-0.043-1.71c-0.077-0.135,0-0.194,0-0.194
		c0.275-0.21,0.639-0.455,0.974-0.686c0.895,0.169,1.525-0.337,2.087-0.927c0.572,0.195,1.16-0.301,1.598-0.037
		c0.209,0.134,0.472,0.449,0.252,0.71c-0.203,0.408-0.155,1.097,0.142,1.453C156.565,443.227,156.838,443.367,157.009,443.523
		 M159.117,451.521c0.08,0.217,0.101,0.472,0.232,0.682c-0.573,0.481-0.895,1.372-0.726,2.264c0.095,0.797,0.432,1.505,0.716,2.217
		c-0.222,0.043-0.373,0.08-0.589,0.036c0.163-1.419-1.072-4.667-2.828-5.188c-0.403-0.062-0.866,0.11-1.242,0.281
		c-0.198-0.296-0.312-0.478-0.445-0.647c0-0.067,0.062-0.067,0.07-0.099c1.076-1.22,2.309-2.023,4.318-2.366
		c0,0,1.075-0.262,1.584-0.068c0.413,0.268-0.2,0.645-0.509,0.919C159.187,450.12,159.009,450.702,159.117,451.521 M163.181,438.072
		c0.117,0.374-0.528,0.449-0.309,0.874c0.176,0.239,0.223,0.562,0.153,0.846c-0.073,0.274-0.356,0.312-0.522,0.126
		c-0.154-0.209-0.399-0.462-0.706-0.502c-0.192,0-0.322,0.084-0.395,0.219c-0.147,0.417,0.771,1.231,1.045,1.904
		c0.237,0.521,0.734,1.134,0.216,1.647c0.04,0.571,0.598,1.19,0.163,1.659c-0.456,0.15-1.276-1.487-1.25-1.943
		c0.093-1.104-0.907-1.634-1.098-2.648c-0.141-0.912-0.247-1.724,0.128-2.532c0.094-0.186,0.22-0.246,0.393-0.268
		c0.283-0.044,0.369,0.268,0.643,0.165c0.392-0.503-0.144-1.042,0.133-1.634c0.152-0.607,0.657-1.198,1.25-1.363
		c0.273-0.03,0.453,0.171,0.445,0.314c-0.027,0.542-0.635,0.679-0.745,1.182C162.503,436.797,162.835,437.521,163.181,438.072
		 M158.011,438.327c0.313-2.509,1.508-5.294,4.135-6.1c0.129-0.055,0.33-0.112,0.486-0.166c2.173-0.613,4.474,0.024,6.489,0.858
		c1.663,0.574,3.464,1.06,5.234,1.381c0.24,0.04,0.518,0.097,0.649,0.353c0.072,0.17,0.103,0.484-0.035,0.634
		c-0.298,0.404-0.527,0.262-1.239,0.091c-2.522-0.629-5.037-1.411-7.454-2.252c-1.5-0.506-4.679-0.137-5.943,1.697
		c-0.317,0.349-0.552,0.815-0.754,1.263c-0.71,1.935-0.956,4.466-0.092,6.461c0.65,1.71,1.555,3.131,2.75,4.537
		c0.112,0.22,0.141,0.451-0.064,0.63c-0.166,0.107-0.259,0.225-0.531,0.134c-0.588-0.297-1.072-0.985-1.44-1.545
		c-1.326-1.92-2.178-4.341-2.244-6.594C157.954,439.374,157.98,438.399,158.011,438.327 M164.268,436.388
		c-0.078-0.402,0.049-0.644,0.098-0.764c0.229-0.545,0.812-1.323,1.308-1.227c0.356,0.16-0.017,0.642,0.306,0.853
		c0.46-0.021,0.812-0.387,1.311-0.239c0.449,0.239,0.958,0.29,1.459,0.418c0.143,0.08,0.251,0.276,0.171,0.434
		c-0.207,0.408-0.669,0.53-1.098,0.545c-0.506,0.022-0.655-0.314-1.023-0.289c-0.992,0.433-0.917,1.844-1.928,2.132
		c-0.253,0.017-0.499-0.066-0.559-0.331C164.043,437.424,164.499,436.863,164.268,436.388 M175.157,449.034
		c-0.246,0.227-0.577,0.307-0.829,0.485c-1.6,0.966-1.806,3.304-1.56,5.103c0.066,0.322,0.1,0.732,0.245,1.067
		c-0.155,0.069-0.392-0.088-0.531-0.209c-0.193-0.217-0.533-0.553-0.893-0.477c-0.548,0.117-0.639,0.833-1.127,1.02
		c-0.032-0.015,0.036-3.82-0.928-5.226c-0.441-0.588-1.202-1.224-2.09-1.179c-0.307-0.72-0.762-1.428-1.561-1.652
		c-0.659-0.216-1.922,0-2.056-0.306c-0.176-0.579,0.413-0.621,0.712-0.845c1.312-0.746,2.302-1.244,4.604-1.09
		c1.108,0.083,2.04,0.354,3.112,0.493c1.117,0.188,1.75,0.292,3.095,0.413c0.268,0.013,0.19,0.036,0.559,0.088
		C175.403,447.445,174.978,448.08,175.157,449.034 M175.809,444.719c0.074,0.287,0.074,0.287,0.11,0.515
		c-1.368-0.046-2.727-0.275-4.019-0.435c-1.979-0.319-4.173-0.968-6.136-0.057c-0.391,0.129-0.786,0.322-1.169,0.471
		c-0.083-0.286-0.083-0.286-0.105-0.414c0,0-0.222-0.928-0.274-1.417c0.237-0.521,0.052-1.238-0.161-1.664
		c0.318-0.593,0.601-1.188,0.617-1.926c0.187-0.292,0.591-0.173,0.874-0.307c0.61-0.25,1.078-0.785,1.356-1.367
		c0.487-0.21,0.974-0.087,1.613-0.248c0.526-0.148,0.684-0.208,0.947-0.416c0.288-0.178,0.561-0.993,1.193-0.771
		c0.934,0.136,2.086,0.275,3.121,0.149c0.201-0.036,0.36-0.066,0.651,0c-0.099,0.754-0.016,1.48,0.215,2.137
		c-0.28,0.649-0.187,1.374,0.185,1.95c-0.305,1.119-0.635,2.716,0.453,3.545C175.45,444.532,175.65,444.636,175.809,444.719
		 M176.943,434.8c0.231-0.269,0.306-0.296,0.506-0.372c0.2-0.03,0.342,0.076,0.423,0.226c0.145,0.745-0.436,1.396-0.765,2.097
		c-0.071,0.195,0.022,0.366,0.229,0.346c0.227-0.021,0.467-0.227,0.681-0.06c0.203,0.134,0.181,0.208,0.104,0.343
		c-0.271,0.642,0.42,1.338-0.095,1.843c-0.377,0.613-0.777,1.848-0.755,1.995c0.014,0.145-0.022,0.285,0.215,0.381
		c0.225,0,0.493-0.229,0.702,0.12c0.232,0.694,0.268,1.544,0.154,2.323c-0.094,0.395-0.144,0.528-0.363,0.61
		c-0.357,0.016-0.33-0.289-0.386-0.484c-0.083-0.419,0.056-0.972-0.365-1.24c-0.34-0.015-0.578,0.44-0.919,0.106
		c-0.345-0.486-0.084-1.577-0.007-1.755c0.116-0.449,0.498-0.727,0.312-1.159c-0.241-0.262-0.225-0.67-0.225-0.965
		c-0.036-0.352,0.4-0.438,0.172-0.79c-0.305-0.114-0.494-1.021-0.494-1.148C176.054,436.551,176.65,435.301,176.943,434.8
		 M176.714,428.385c0.332-0.932,0.862-1.446,1.761-1.856c0.277-0.126,0.475-0.083,0.475-0.083v2.472c0,0-1.393,0.179-2.193,0.239
		C176.544,428.945,176.645,428.649,176.714,428.385 M180.318,433.554h-0.004h0.01H180.318h0.029h-0.01h0.01
		c1.076,0.021,0.803,2.547,0.803,5.653c0,3.116,0.332,5.639-0.803,5.664h-0.029c-1.144-0.025-0.812-2.548-0.812-5.664
		C179.506,436.101,179.24,433.575,180.318,433.554 M180.311,431.323h0.045c1.037,0,2.092,0.058,3.141,0.14
		c0.25,0.03,0.452,0.239,0.398,0.522c-0.053,0.196-0.213,0.329-0.386,0.343c-1.067-0.08-2.094-0.023-3.153-0.023h-0.045
		c-1.062,0-2.09-0.057-3.153,0.023c-0.187-0.014-0.343-0.146-0.392-0.343c-0.058-0.283,0.142-0.492,0.398-0.522
		C178.205,431.381,179.27,431.323,180.311,431.323 M181.709,426.445c0,0,0.198-0.043,0.482,0.083
		c0.885,0.41,1.428,0.925,1.748,1.856c0.085,0.265,0.172,0.561-0.038,0.771c-0.806-0.061-2.192-0.239-2.192-0.239V426.445z
		 M184.27,439.154c0,0.295,0.015,0.703-0.225,0.965c-0.189,0.433,0.201,0.71,0.315,1.159c0.066,0.178,0.333,1.269-0.01,1.755
		c-0.346,0.334-0.576-0.121-0.919-0.106c-0.419,0.269-0.282,0.821-0.372,1.24c-0.047,0.195-0.019,0.5-0.376,0.484
		c-0.224-0.082-0.268-0.216-0.366-0.61c-0.113-0.779-0.083-1.629,0.153-2.323c0.213-0.35,0.478-0.12,0.698-0.12
		c0.243-0.096,0.202-0.236,0.207-0.381c0.036-0.147-0.363-1.382-0.742-1.995c-0.523-0.505,0.171-1.201-0.092-1.843
		c-0.082-0.135-0.101-0.209,0.105-0.343c0.21-0.167,0.443,0.038,0.669,0.06c0.214,0.021,0.31-0.15,0.235-0.346
		c-0.329-0.7-0.904-1.352-0.762-2.097c0.083-0.149,0.223-0.256,0.414-0.226c0.208,0.076,0.271,0.104,0.508,0.372
		c0.293,0.501,0.89,1.751,0.868,2.416c0,0.127-0.183,1.034-0.485,1.148C183.872,438.717,184.29,438.803,184.27,439.154
		 M184.85,444.719c0.156-0.083,0.353-0.187,0.529-0.254c1.088-0.829,0.755-2.426,0.45-3.545c0.376-0.576,0.458-1.301,0.182-1.95
		c0.24-0.656,0.318-1.383,0.222-2.137c0.286-0.066,0.453-0.036,0.647,0c1.038,0.126,2.193-0.014,3.127-0.149
		c0.632-0.223,0.898,0.593,1.186,0.771c0.263,0.208,0.433,0.268,0.955,0.416c0.637,0.161,1.113,0.038,1.604,0.248
		c0.279,0.582,0.744,1.117,1.359,1.367c0.277,0.134,0.688,0.015,0.876,0.307c0.007,0.737,0.296,1.333,0.618,1.926
		c-0.223,0.426-0.402,1.144-0.162,1.664c-0.061,0.489-0.271,1.417-0.271,1.417c-0.023,0.128-0.023,0.128-0.107,0.414
		c-0.382-0.148-0.779-0.342-1.177-0.471c-1.957-0.911-4.152-0.263-6.142,0.057c-1.284,0.159-2.64,0.389-4.007,0.435
		C184.776,445.006,184.776,445.006,184.85,444.719 M194.985,434.397c0.493-0.097,1.08,0.682,1.308,1.227
		c0.05,0.12,0.166,0.361,0.09,0.764c-0.223,0.476,0.223,1.036-0.04,1.531c-0.06,0.265-0.303,0.348-0.556,0.331
		c-1.019-0.288-0.939-1.699-1.929-2.132c-0.363-0.025-0.514,0.312-1.022,0.289c-0.439-0.015-0.888-0.137-1.101-0.545
		c-0.083-0.157,0.031-0.354,0.17-0.434c0.5-0.128,1.014-0.179,1.463-0.418c0.5-0.147,0.852,0.219,1.311,0.239
		C194.995,435.039,194.628,434.558,194.985,434.397 M186.329,449.52c-0.255-0.179-0.58-0.259-0.829-0.485
		c0.178-0.954-0.237-1.589-0.746-2.313c0.358-0.052,0.285-0.075,0.545-0.088c1.348-0.121,1.99-0.226,3.106-0.413
		c1.076-0.139,2.002-0.41,3.112-0.493c2.301-0.154,3.297,0.344,4.598,1.09c0.309,0.224,0.89,0.266,0.717,0.845
		c-0.136,0.306-1.4,0.09-2.063,0.306c-0.788,0.225-1.256,0.933-1.557,1.652c-0.882-0.045-1.654,0.591-2.089,1.179
		c-0.964,1.405-0.895,5.211-0.923,5.226c-0.495-0.187-0.584-0.902-1.127-1.02c-0.366-0.076-0.709,0.26-0.893,0.477
		c-0.146,0.121-0.38,0.278-0.546,0.209c0.158-0.335,0.19-0.745,0.25-1.067C188.134,452.823,187.931,450.485,186.329,449.52
		 M198.203,441.539c0.28-0.673,1.196-1.487,1.051-1.904c-0.077-0.135-0.206-0.219-0.393-0.219c-0.313,0.04-0.56,0.293-0.701,0.502
		c-0.173,0.186-0.456,0.148-0.532-0.126c-0.074-0.283-0.014-0.606,0.159-0.846c0.223-0.425-0.422-0.5-0.312-0.874
		c0.347-0.551,0.686-1.275,0.455-1.954c-0.108-0.503-0.712-0.64-0.743-1.182c-0.01-0.144,0.179-0.345,0.441-0.314
		c0.592,0.165,1.108,0.756,1.257,1.363c0.266,0.592-0.261,1.131,0.137,1.634c0.267,0.103,0.354-0.209,0.636-0.165
		c0.173,0.021,0.303,0.082,0.389,0.268c0.373,0.809,0.273,1.62,0.127,2.532c-0.183,1.015-1.188,1.544-1.095,2.648
		c0.037,0.456-0.792,2.094-1.254,1.943c-0.435-0.469,0.123-1.088,0.169-1.659C197.475,442.673,197.963,442.061,198.203,441.539
		 M185.651,434.653c0.132-0.256,0.413-0.312,0.646-0.353c1.776-0.321,3.574-0.807,5.237-1.381c2.016-0.834,4.309-1.472,6.493-0.858
		c0.146,0.054,0.356,0.111,0.483,0.166c2.614,0.806,3.818,3.591,4.138,6.1c0.028,0.072,0.053,1.047,0.046,1.382
		c-0.077,2.253-0.915,4.674-2.236,6.594c-0.36,0.56-0.848,1.248-1.438,1.545c-0.27,0.091-0.369-0.026-0.538-0.134
		c-0.197-0.179-0.182-0.41-0.07-0.63c1.211-1.406,2.101-2.827,2.758-4.537c0.859-1.995,0.616-4.526-0.092-6.461
		c-0.211-0.447-0.448-0.914-0.753-1.263c-1.272-1.834-4.446-2.203-5.943-1.697c-2.419,0.841-4.931,1.623-7.462,2.252
		c-0.694,0.171-0.934,0.313-1.239-0.091C185.544,435.138,185.582,434.823,185.651,434.653 M201.903,456.72
		c-0.211,0.044-0.375,0.007-0.586-0.036c0.284-0.712,0.626-1.42,0.713-2.217c0.179-0.892-0.151-1.782-0.721-2.264
		c0.128-0.21,0.15-0.465,0.219-0.682c0.129-0.819-0.059-1.401-0.57-1.971c-0.309-0.274-0.931-0.651-0.502-0.919
		c0.502-0.193,1.58,0.068,1.58,0.068c2.006,0.343,3.237,1.146,4.316,2.366c0.007,0.031,0.07,0.031,0.07,0.099
		c-0.138,0.17-0.248,0.352-0.444,0.647c-0.383-0.171-0.834-0.343-1.246-0.281C202.974,452.053,201.743,455.301,201.903,456.72
		 M203.63,444.927c0.267-0.371,0.11-0.949,0.018-1.403c0.174-0.156,0.441-0.297,0.622-0.531c0.292-0.356,0.346-1.045,0.142-1.453
		c-0.218-0.261,0.044-0.576,0.254-0.71c0.436-0.264,1.015,0.232,1.593,0.037c0.565,0.59,1.192,1.096,2.09,0.927
		c0.337,0.23,0.701,0.476,0.976,0.686c0,0,0.077,0.06,0,0.194c-0.256,0.45,0.157,1.158-0.046,1.71
		c-0.275,0.771-0.179,1.474,0.046,2.219c-0.271,0.702-0.533,1.365-0.576,2.114c-0.062,0.318,0.039,0.449,0.015,0.812
		c-0.483-0.037-1.129,0.091-1.552,0.299c-0.128-0.271-0.36-0.559-0.626-0.708c-0.868-0.54-1.624-1.1-2.651-1.442
		c-0.657-0.203-1.027-0.188-1.456-0.274c-0.568-0.228,0.686-0.765,0.458-1.459C202.529,445.342,203.454,445.332,203.63,444.927
		 M217.106,443.182c0.349-0.357,0.575-0.851,0.575-1.389c0-0.688-0.356-1.279-0.881-1.627c0.192-0.318,0.309-0.681,0.309-1.063
		c0-0.948-0.665-1.732-1.558-1.919l0.031-0.067c0.022-0.127,0.034-0.26,0.034-0.396c0-1.081-0.872-1.956-1.944-1.956
		c-0.161,0-0.313,0.023-0.453,0.053l-0.004-0.029c-0.253-0.784-0.994-1.354-1.864-1.354c-0.297,0-0.577,0.07-0.834,0.2l-0.017-0.034
		c-0.349-0.522-0.945-0.855-1.622-0.855c-0.408,0-0.78,0.117-1.093,0.325l-0.034-0.021c-0.309-0.218-0.688-0.336-1.095-0.336
		c-0.638,0-1.193,0.308-1.557,0.767c-0.34-0.282-0.782-0.459-1.265-0.459c-0.206,0-0.417,0.034-0.607,0.087
		c-0.147-0.925-0.952-1.634-1.925-1.634c-0.197,0-0.396,0.03-0.568,0.081l-0.023-0.015c0-1.078-0.872-1.949-1.954-1.949
		c-0.555,0-1.061,0.229-1.417,0.605l-0.007-0.03c-0.356-0.525-0.951-0.868-1.623-0.868c-0.726,0-1.362,0.399-1.688,0.981
		l-0.016,0.013c-0.319-0.247-0.733-0.388-1.169-0.388c-0.767,0-1.414,0.441-1.747,1.073l-0.081-0.007
		c-0.123-0.028-0.258-0.038-0.379-0.038c-0.701,0-1.307,0.361-1.657,0.903c-0.158-0.052-0.328-0.072-0.508-0.072
		c-0.674,0-1.266,0.353-1.618,0.873l-0.043-0.006c-0.305-0.195-0.678-0.315-1.074-0.315c-0.14,0-0.275,0.014-0.405,0.036
		l-0.011-0.066c0.064-0.194,0.127-0.397,0.173-0.605l0.008,0.013c0.354-0.243,0.578-0.661,0.578-1.123
		c0-0.427-0.187-0.8-0.492-1.046v0.008c-0.249-1.811-1.312-3.354-2.805-4.27l0.006,0.035c-0.149-0.619-0.485-0.971-1.071-1.149
		c0.01-0.29-0.003-1.122-0.003-1.122l1.311-0.015c0,0.748,0.613,1.361,1.369,1.361c0.67,0,1.243-0.501,1.339-1.153h0.027
		c0.617-0.127,1.094-0.677,1.094-1.335c0-0.681-0.505-1.239-1.149-1.344h0.025c-0.133-0.613-0.686-1.082-1.336-1.082
		c-0.714,0-1.307,0.551-1.359,1.255h-1.32v-1.434h0.032c0.612-0.145,1.072-0.689,1.072-1.338c0-0.666-0.473-1.226-1.104-1.339
		l-0.043-0.04c-0.123-0.607-0.67-1.076-1.318-1.087h-0.029c-0.659,0.011-1.198,0.479-1.322,1.087l-0.046,0.04
		c-0.629,0.113-1.104,0.673-1.104,1.339c0,0.648,0.459,1.193,1.074,1.338h0.03v1.434h-1.317c-0.065-0.704-0.646-1.255-1.358-1.255
		c-0.662,0-1.205,0.469-1.337,1.082h0.021c-0.647,0.104-1.14,0.663-1.14,1.344c0,0.658,0.464,1.208,1.088,1.335h0.025
		c0.097,0.652,0.658,1.153,1.343,1.153c0.752,0,1.361-0.613,1.361-1.361l1.314,0.015c0,0-0.016,0.832-0.006,1.122
		c-0.576,0.179-0.918,0.53-1.072,1.149l0.007-0.035c-1.49,0.915-2.554,2.459-2.796,4.27l-0.007-0.008
		c-0.298,0.246-0.496,0.619-0.496,1.046c0,0.462,0.231,0.88,0.592,1.123v-0.013c0.044,0.208,0.103,0.411,0.163,0.605v0.066
		c-0.133-0.022-0.265-0.036-0.411-0.036c-0.394,0-0.762,0.12-1.074,0.315l-0.031,0.006c-0.352-0.521-0.951-0.873-1.633-0.873
		c-0.172,0-0.338,0.021-0.509,0.072c-0.337-0.542-0.945-0.903-1.635-0.903c-0.135,0-0.265,0.01-0.398,0.038l-0.08,0.007
		c-0.329-0.632-0.985-1.073-1.746-1.073c-0.436,0-0.844,0.141-1.171,0.388l-0.013-0.013c-0.329-0.582-0.96-0.981-1.685-0.981
		c-0.681,0-1.278,0.343-1.624,0.868l-0.012,0.03c-0.358-0.376-0.86-0.605-1.415-0.605c-1.081,0-1.954,0.871-1.954,1.949l-0.02,0.015
		c-0.183-0.051-0.365-0.081-0.565-0.081c-0.982,0-1.781,0.709-1.937,1.634c-0.187-0.053-0.39-0.087-0.6-0.087
		c-0.485,0-0.928,0.177-1.265,0.459c-0.361-0.459-0.93-0.767-1.561-0.767c-0.407,0-0.773,0.118-1.09,0.336l-0.032,0.021
		c-0.311-0.208-0.69-0.325-1.099-0.325c-0.672,0-1.263,0.333-1.615,0.855l-0.013,0.034c-0.258-0.13-0.542-0.2-0.844-0.2
		c-0.862,0-1.597,0.57-1.86,1.354l-0.004,0.029c-0.144-0.029-0.293-0.053-0.45-0.053c-1.081,0-1.95,0.875-1.95,1.956
		c0,0.137,0.007,0.27,0.041,0.396l0.029,0.067c-0.893,0.187-1.559,0.971-1.559,1.919c0,0.383,0.113,0.745,0.316,1.063h-0.004
		c-0.536,0.348-0.885,0.939-0.885,1.627c0,0.538,0.217,1.031,0.573,1.389l-0.012,0.005c-0.246,0.286-0.388,0.645-0.388,1.04
		c0,0.628,0.36,1.164,0.885,1.419l0.008,0.006c-0.079,0.193-0.138,0.41-0.138,0.639c0,0.693,0.459,1.288,1.085,1.505l0.007-0.014
		c-0.08,0.194-0.13,0.419-0.13,0.644c0,0.672,0.418,1.239,1.016,1.468c-0.021,0.114-0.031,0.228-0.031,0.336
		c0,0.742,0.509,1.368,1.195,1.532l0.053,0.089c-0.104,0.203-0.163,0.423-0.163,0.659c0,0.785,0.641,1.417,1.412,1.417
		c0.322,0,0.613-0.103,0.849-0.282l0.015,0.036c0.947,0.563,1.546,1.562,2.053,2.514v0.094c-0.133,0.237-0.213,0.514-0.213,0.807
		c0,0.875,0.706,1.582,1.581,1.582c0.074,0,0.135-0.008,0.204-0.013c0,0,1.764,2.314,2.737,3.329h-0.009
		c-0.297,0.261-0.483,0.644-0.483,1.066c0,0.731,0.555,1.343,1.261,1.42l0.203,1.143c-0.292,0.477-0.463,1.025-0.476,1.615
		c-0.019,1.267,0.702,2.419,1.751,2.947l0.032,1.396c0,0-0.627,0.321-0.829,0.65c-0.133,0.217-0.216,0.478-0.225,0.748
		c-0.007,0.583,0.323,1.088,0.803,1.345c0,0,0.62,0.469,2.244,0.695c5.304,0.699,10.571,0.985,16.099,1.17
		c1.44,0.023,2.901,0.037,4.365,0.037h0.045c1.463,0,2.921-0.014,4.358-0.037c5.522-0.185,10.788-0.471,16.101-1.17
		c1.62-0.227,2.242-0.695,2.242-0.695c0.48-0.257,0.807-0.762,0.793-1.345c0-0.271-0.075-0.531-0.21-0.748
		c-0.198-0.329-0.834-0.65-0.834-0.65l0.029-1.396c1.056-0.528,1.771-1.681,1.741-2.947c-0.008-0.59-0.171-1.139-0.463-1.615
		l0.198-1.143c0.712-0.077,1.256-0.688,1.256-1.42c0-0.423-0.182-0.806-0.478-1.066h-0.009c0.974-1.015,2.741-3.329,2.741-3.329
		c0.068,0.005,0.134,0.013,0.205,0.013c0.87,0,1.575-0.707,1.575-1.582c0-0.293-0.079-0.569-0.22-0.807v-0.094
		c0.522-0.951,1.106-1.95,2.063-2.514l0.013-0.036c0.233,0.18,0.533,0.282,0.845,0.282c0.782,0,1.415-0.632,1.415-1.417
		c0-0.236-0.057-0.456-0.163-0.659l0.055-0.089c0.681-0.164,1.202-0.79,1.202-1.532c0-0.108-0.014-0.222-0.045-0.336
		c0.599-0.229,1.024-0.796,1.024-1.468c0-0.225-0.054-0.449-0.134-0.644l0.011,0.014c0.632-0.217,1.08-0.812,1.08-1.505
		c0-0.229-0.046-0.445-0.137-0.639l0.008-0.006c0.532-0.255,0.892-0.791,0.892-1.419c0-0.396-0.145-0.754-0.393-1.04
		L217.106,443.182z"/>
	<path clip-path="url(#SVGID_2_)" fill="#FFFFFF" d="M181.655,463.12c0.686,0,0.949,0.285,0.729,0.516
		c-0.52,0.329-1.447,1.009-1.447,1.009h-0.46c-1.012,0-1.364,0-1.364,0.388c-0.013,0.308,0,0.067,0,0.509
		c-0.403,0.28-1.486,1.136-1.486,1.136v-2.888c0,0,0.188-0.669,0.792-0.669H181.655"/>
	<polygon clip-path="url(#SVGID_2_)" fill="#FFFFFF" points="182.542,466.677 179.975,466.677 182.542,464.89 	"/>
	<path clip-path="url(#SVGID_2_)" fill="#FFFFFF" d="M180.374,454.472c-1.185-0.028-1.343-0.269-1.343-1.268
		c0-1.048,0.158-1.247,1.343-1.287h0.056c1.184,0.05,1.342,0.269,1.342,1.287c0,1.039-0.158,1.239-1.342,1.268H180.374z"/>
	<path clip-path="url(#SVGID_2_)" fill="#FFFFFF" d="M196.01,455.038c-0.845-0.283-0.915-0.477-0.697-1.215
		c0.219-0.749,0.376-0.859,1.243-0.643l0.036,0.024c0.852,0.268,0.917,0.475,0.703,1.207c-0.231,0.749-0.38,0.866-1.239,0.636
		L196.01,455.038z"/>
	<path clip-path="url(#SVGID_2_)" fill="#FFFFFF" d="M164.957,455.038c0.843-0.283,0.91-0.477,0.69-1.215
		c-0.219-0.749-0.379-0.859-1.238-0.643l-0.043,0.024c-0.851,0.268-0.914,0.475-0.696,1.207c0.227,0.749,0.373,0.866,1.237,0.636
		L164.957,455.038z"/>
	<polygon clip-path="url(#SVGID_2_)" fill="#FFFFFF" points="145.498,4.56 138.825,4.56 138.825,0 157.325,0 157.325,4.56 
		150.651,4.56 150.651,23.39 145.498,23.39 	"/>
	<polygon clip-path="url(#SVGID_2_)" fill="#FFFFFF" points="169.185,0 174.338,0 174.338,8.722 184.348,8.722 184.348,0 189.502,0 
		189.502,23.39 184.348,23.39 184.348,13.281 174.338,13.281 174.338,23.39 169.185,23.39 	"/>
	<polygon clip-path="url(#SVGID_2_)" fill="#FFFFFF" points="203.707,0 219.598,0 219.598,4.757 208.86,4.757 208.86,9.119 
		219.003,9.119 219.003,13.876 208.86,13.876 208.86,18.633 220.191,18.633 220.191,23.39 203.707,23.39 	"/>
	<path clip-path="url(#SVGID_2_)" fill="#FFFFFF" d="M148.967,48.465h4.262l10.175,23.39h-5.815l-2.015-4.955h-9.085l-1.949,4.955
		h-5.682L148.967,48.465z M150.949,55.271l-2.841,7.268h5.715L150.949,55.271z"/>
	<path clip-path="url(#SVGID_2_)" fill="#FFFFFF" d="M175,48.465h9.051c4.79,0,8.821,1.652,8.821,7.104
		c0,3.27-1.751,5.814-5.054,6.408l5.946,9.878h-6.178l-4.89-9.35h-2.544v9.35H175V48.465z M180.153,58.145h3.04
		c1.883,0,4.327-0.066,4.327-2.61c0-2.345-2.114-2.708-3.997-2.708h-3.37V58.145z"/>
	<polygon clip-path="url(#SVGID_2_)" fill="#FFFFFF" points="209.589,53.025 202.916,53.025 202.916,48.465 221.416,48.465 
		221.416,53.025 214.743,53.025 214.743,71.855 209.589,71.855 	"/>
	<path clip-path="url(#SVGID_2_)" fill="#FFFFFF" d="M80.581,96.93h8.688c4.857,0,8.887,1.553,8.887,7.102
		c0,5.485-3.734,7.169-8.656,7.169h-3.766v9.118h-5.153V96.93z M85.734,106.841h3.436c1.817,0,3.634-0.628,3.634-2.809
		c0-2.411-2.445-2.742-4.427-2.742h-2.643V106.841z"/>
	<path clip-path="url(#SVGID_2_)" fill="#FFFFFF" d="M110.643,96.93h9.052c4.79,0,8.821,1.652,8.821,7.103
		c0,3.27-1.751,5.814-5.054,6.409l5.946,9.877h-6.177l-4.89-9.349h-2.544v9.349h-5.154V96.93z M115.797,106.61h3.04
		c1.883,0,4.327-0.066,4.327-2.61c0-2.345-2.114-2.709-3.997-2.709h-3.37V106.61z"/>
	<path clip-path="url(#SVGID_2_)" fill="#FFFFFF" d="M152.666,96.335c7.301,0,12.619,4.791,12.619,12.29
		s-5.318,12.289-12.619,12.289c-7.301,0-12.619-4.79-12.619-12.289S145.364,96.335,152.666,96.335 M152.666,116.157
		c4.394,0,7.268-3.171,7.268-7.532s-2.874-7.533-7.268-7.533s-7.268,3.172-7.268,7.533S148.271,116.157,152.666,116.157"/>
	<path clip-path="url(#SVGID_2_)" fill="#FFFFFF" d="M190.129,112.49c0,4.328-1.124,8.424-7.467,8.424
		c-3.7,0-6.409-1.717-7.168-5.451l4.724-1.156c0.132,1.123,1.188,2.049,2.312,2.049c2.411,0,2.444-2.677,2.444-4.427V96.93h5.154
		V112.49z"/>
	<polygon clip-path="url(#SVGID_2_)" fill="#FFFFFF" points="203.971,96.93 219.861,96.93 219.861,101.687 209.125,101.687 
		209.125,106.048 219.267,106.048 219.267,110.805 209.125,110.805 209.125,115.562 220.456,115.562 220.456,120.319 
		203.971,120.319 	"/>
	<path clip-path="url(#SVGID_2_)" fill="#FFFFFF" d="M249.131,103.008c-1.022-1.222-2.511-1.916-4.427-1.916
		c-3.897,0-6.771,3.171-6.771,7.533c0,4.36,2.874,7.532,6.606,7.532c2.081,0,3.767-0.925,4.823-2.511l4.295,3.204
		c-1.949,2.776-5.253,4.064-8.457,4.064c-7.301,0-12.619-4.79-12.619-12.289s5.318-12.29,12.619-12.29
		c2.61,0,5.913,0.892,7.896,3.436L249.131,103.008z"/>
	<polygon clip-path="url(#SVGID_2_)" fill="#FFFFFF" points="270.209,101.489 263.536,101.489 263.536,96.93 282.036,96.93 
		282.036,101.489 275.362,101.489 275.362,120.319 270.209,120.319 	"/>
	<rect x="157.578" y="198.845" clip-path="url(#SVGID_2_)" fill="#FFFFFF" width="45.38" height="2.011"/>
</g>
</g>
</svg>
