<?xml version="1.0" encoding="utf-8"?>
<!-- Generator: Adobe Illustrator 15.0.2, SVG Export Plug-In . SVG Version: 6.00 Build 0)  -->
<!DOCTYPE svg PUBLIC "-//W3C//DTD SVG 1.1//EN" "http://www.w3.org/Graphics/SVG/1.1/DTD/svg11.dtd">
<svg version="1.1" xmlns="http://www.w3.org/2000/svg" xmlns:xlink="http://www.w3.org/1999/xlink" x="0px" y="0px"
	 width="276.695px" height="256px" viewBox="0 0 276.695 256" enable-background="new 0 0 276.695 256" xml:space="preserve">
<g id="Layer_2" display="none">
	<g id="_x38_oFRPS_1_" display="inline">
		
			<image overflow="visible" width="756" height="311" id="_x38_oFRPS" xlink:href="170C106F.jpg"  transform="matrix(1 0 0 1 -265.8442 83.5332)">
		</image>
	</g>
</g>
<g id="Layer_1">
	<g>
		<path fill="#231F20" d="M77.369,205.48c0,3.088,0.741,5.237,2.224,6.447c1.483,1.211,3.859,2.027,7.13,2.452
			c1.149,0.183,1.875,0.424,2.179,0.727c0.303,0.303,0.454,0.758,0.454,1.362c0,0.484-0.136,0.894-0.407,1.227
			c-0.274,0.332-0.804,0.498-1.59,0.498H53.294c-0.667,0-1.137-0.166-1.408-0.498c-0.273-0.333-0.409-0.742-0.409-1.227
			c0-0.969,0.544-1.544,1.636-1.725c2.178-0.303,4.024-0.696,5.537-1.182c1.514-0.483,2.725-1.089,3.634-1.815
			c0.908-0.727,1.559-1.604,1.952-2.634c0.395-1.028,0.59-2.241,0.59-3.633v-49.398H64.1l-20.063,58.752
			c-0.485,1.575-0.863,2.618-1.136,3.133c-0.271,0.515-0.771,0.771-1.497,0.771c-0.666,0-1.136-0.318-1.408-0.952
			c-0.271-0.637-0.619-1.56-1.043-2.771l-19.699-58.934h-0.909v45.131c0,1.574,0.062,3.058,0.181,4.449
			c0.12,1.394,0.409,2.649,0.863,3.77c0.453,1.12,1.104,2.074,1.952,2.86c0.848,0.787,2.028,1.361,3.542,1.725
			c1.149,0.304,2.118,0.501,2.905,0.592c0.788,0.09,1.438,0.182,1.952,0.271c0.516,0.091,0.893,0.257,1.135,0.5
			c0.243,0.241,0.363,0.636,0.363,1.18c0,0.485-0.135,0.879-0.407,1.181c-0.274,0.303-0.713,0.453-1.318,0.453H1.905
			c-1.27,0-1.905-0.423-1.905-1.271c0-0.604,0.121-1.014,0.362-1.225c0.242-0.212,0.591-0.362,1.045-0.455
			c0.454-0.09,1.044-0.182,1.771-0.271c0.726-0.091,1.572-0.317,2.542-0.682c2.301-0.848,4.147-2.104,5.538-3.77
			c1.393-1.664,2.09-3.949,2.09-6.854v-46.767c0-2.119-0.318-3.936-0.955-5.449c-0.634-1.512-2.072-2.603-4.312-3.268l-3.995-1.091
			c-0.907-0.241-1.544-0.499-1.907-0.771c-0.363-0.271-0.544-0.65-0.544-1.136c0-0.666,0.194-1.09,0.59-1.271
			c0.394-0.181,0.862-0.271,1.407-0.271h21.705c1.088,0,1.906,0.227,2.45,0.682c0.544,0.453,0.968,1.193,1.271,2.223l15.528,49.13
			h0.635l16.891-49.764c0.305-0.848,0.682-1.438,1.136-1.772c0.454-0.331,1.196-0.498,2.226-0.498H86.54
			c1.15,0,1.727,0.453,1.727,1.362c0,0.363-0.093,0.696-0.273,0.998c-0.183,0.304-0.574,0.546-1.181,0.728l-4.54,1.089
			c-0.908,0.243-1.681,0.485-2.315,0.727c-0.636,0.242-1.136,0.605-1.5,1.089c-0.362,0.484-0.635,1.105-0.815,1.862
			c-0.182,0.758-0.272,1.74-0.272,2.952V205.48z M113.693,196.233c-0.303,0.666-0.637,1.497-1.001,2.497
			c-0.363,0.998-0.544,1.801-0.544,2.404c0,0.606,0.213,0.909,0.637,0.909c0.303,0,0.771-0.317,1.407-0.953
			c0.634-0.635,1.301-1.347,1.996-2.135c0.697-0.786,1.316-1.543,1.862-2.27c0.546-0.726,0.879-1.18,0.999-1.362
			c0.364-0.483,0.758-0.725,1.181-0.725c0.362,0,0.71,0.166,1.044,0.498c0.334,0.334,0.318,0.863-0.046,1.589
			c-0.181,0.424-0.74,1.303-1.68,2.635c-0.937,1.332-2.072,2.706-3.404,4.13c-1.333,1.423-2.8,2.693-4.403,3.812
			c-1.605,1.12-3.195,1.68-4.769,1.68c-1.029,0-1.83-0.286-2.406-0.861c-0.575-0.574-0.863-1.347-0.863-2.316
			c0-1.393,0.303-2.876,0.909-4.448c0.604-1.575,1.209-2.966,1.814-4.179l-0.452-0.271c-1.333,1.453-2.711,2.906-4.133,4.359
			c-1.422,1.452-2.86,2.755-4.314,3.903c-1.452,1.15-2.921,2.074-4.403,2.771s-2.981,1.043-4.494,1.043
			c-1.938,0-3.391-0.544-4.359-1.634s-1.452-2.573-1.452-4.449c0-1.998,0.423-4.133,1.27-6.401c0.849-2.272,1.862-4.465,3.043-6.585
			c1.182-2.118,2.421-4.071,3.724-5.857c1.301-1.786,2.406-3.225,3.314-4.313c1.271-1.392,2.708-2.875,4.312-4.449
			s3.33-3.026,5.178-4.359c1.846-1.331,3.752-2.437,5.72-3.314c1.967-0.876,3.919-1.316,5.857-1.316
			c0.908,0,1.771,0.136,2.589,0.409c0.816,0.272,1.436,0.591,1.86,0.953c0.666-1.021,1.636-1.532,2.906-1.532h1.997
			c0.727,0,1.211,0.241,1.453,0.727c0.243,0.484,0.182,1.149-0.183,1.996L113.693,196.233z M99.335,159.385
			c-0.422,0.423-0.848,0.635-1.27,0.635c-0.305,0-0.531-0.09-0.683-0.271c-0.151-0.184-0.226-0.364-0.226-0.547
			c0-0.242,0.09-0.605,0.271-1.091l2.907-7.722c0.119-0.303,0.15-0.59,0.091-0.862c-0.061-0.272-0.273-0.5-0.636-0.683l-6.269-3.088
			c-0.667-0.303-0.998-0.667-0.998-1.091c0-0.666,0.422-0.999,1.27-0.999h7.632c0.667,0,1.089-0.333,1.272-0.999l1.816-7.541
			c0.181-0.848,0.545-1.271,1.091-1.271c0.544,0,0.908,0.424,1.089,1.271l1.816,7.541c0.184,0.666,0.607,0.999,1.273,0.999h7.631
			c0.848,0,1.272,0.333,1.272,0.999c0,0.424-0.334,0.788-1,1.091l-6.177,3.088c-0.667,0.304-0.849,0.818-0.545,1.545l2.906,7.722
			c0.182,0.485,0.272,0.849,0.272,1.091c0,0.183-0.076,0.363-0.227,0.547c-0.152,0.181-0.379,0.271-0.682,0.271
			c-0.424,0-0.848-0.212-1.272-0.635l-5.45-5.541c-0.546-0.544-1.092-0.544-1.636,0L99.335,159.385z M108.171,188.329
			c1.212-1.877,2.362-3.691,3.452-5.448c1.091-1.756,2.03-3.359,2.817-4.812c0.787-1.451,1.408-2.724,1.863-3.814
			c0.452-1.089,0.682-1.967,0.682-2.633c0-0.484-0.138-0.894-0.41-1.226c-0.271-0.334-0.802-0.5-1.589-0.5
			c-1.395,0-3.332,0.998-5.815,2.997c-2.483,1.998-5.147,5.085-7.995,9.261c-1.211,1.757-2.316,3.513-3.316,5.269
			c-0.999,1.756-1.847,3.406-2.544,4.948c-0.696,1.544-1.24,2.937-1.633,4.179c-0.396,1.241-0.592,2.226-0.592,2.95
			c0,0.483,0.105,0.907,0.317,1.271s0.65,0.546,1.317,0.546c0.728,0,1.649-0.379,2.77-1.136c1.123-0.756,2.303-1.74,3.545-2.95
			c1.24-1.213,2.482-2.604,3.725-4.179C106.006,191.479,107.143,189.904,108.171,188.329z M182.888,196.233
			c-0.303,0.666-0.635,1.497-0.998,2.497c-0.363,0.998-0.545,1.801-0.545,2.404c0,0.606,0.211,0.909,0.637,0.909
			c0.301,0,0.77-0.317,1.406-0.953c0.635-0.635,1.301-1.347,1.996-2.135c0.697-0.786,1.318-1.543,1.863-2.27
			c0.543-0.726,0.877-1.18,0.998-1.362c0.363-0.483,0.758-0.725,1.182-0.725c0.363,0,0.709,0.166,1.043,0.498
			c0.334,0.334,0.318,0.863-0.045,1.589c-0.182,0.424-0.74,1.303-1.68,2.635s-2.072,2.706-3.406,4.13
			c-1.332,1.423-2.799,2.693-4.404,3.812c-1.605,1.12-3.193,1.68-4.766,1.68c-1.029,0-1.832-0.286-2.404-0.861
			c-0.574-0.574-0.859-1.347-0.859-2.316c0-1.393,0.299-2.876,0.904-4.448c0.605-1.575,1.209-2.966,1.814-4.179l-0.453-0.271
			c-1.33,1.453-2.705,2.906-4.125,4.359c-1.42,1.452-2.855,2.755-4.307,3.903c-1.449,1.15-2.914,2.074-4.395,2.771
			s-2.975,1.043-4.484,1.043c-1.936,0-3.385-0.544-4.352-1.634s-1.451-2.573-1.451-4.449c0-1.998,0.424-4.133,1.27-6.401
			c0.846-2.272,1.857-4.465,3.035-6.585c1.18-2.118,2.418-4.071,3.717-5.857s2.402-3.225,3.309-4.313
			c1.268-1.392,2.703-2.875,4.305-4.449s3.324-3.026,5.168-4.359c1.84-1.331,3.746-2.437,5.715-3.314
			c1.967-0.876,3.918-1.316,5.855-1.316c0.908,0,1.771,0.136,2.59,0.409c0.816,0.272,1.438,0.591,1.861,0.953
			c0.664-1.021,1.635-1.532,2.906-1.532h1.998c0.725,0,1.209,0.241,1.451,0.727c0.242,0.484,0.182,1.149-0.182,1.996
			L182.888,196.233z M177.376,188.329c1.209-1.877,2.357-3.691,3.445-5.448c1.088-1.756,2.023-3.359,2.809-4.812
			c0.787-1.451,1.404-2.724,1.859-3.814c0.451-1.089,0.68-1.967,0.68-2.633c0-0.484-0.137-0.894-0.408-1.226
			c-0.271-0.334-0.801-0.5-1.586-0.5c-1.391,0-3.324,0.998-5.801,2.997c-2.479,1.998-5.137,5.085-7.977,9.261
			c-1.209,1.757-2.312,3.513-3.309,5.269s-1.844,3.406-2.537,4.948c-0.695,1.544-1.238,2.937-1.631,4.179
			c-0.393,1.241-0.59,2.226-0.59,2.95c0,0.483,0.105,0.907,0.316,1.271s0.65,0.546,1.316,0.546c0.723,0,1.645-0.379,2.764-1.136
			c1.117-0.756,2.295-1.74,3.535-2.95c1.236-1.213,2.477-2.604,3.715-4.179C175.216,191.479,176.351,189.904,177.376,188.329z
			 M219.429,170.644c0,1.029-0.289,1.832-0.865,2.406c-0.578,0.576-1.318,0.863-2.229,0.863c-0.789,0-1.455-0.227-2.002-0.681
			c-0.545-0.454-1.076-0.954-1.592-1.498c-0.516-0.545-1.061-1.045-1.639-1.498c-0.576-0.455-1.256-0.682-2.045-0.682
			c-1.092,0-1.926,0.349-2.502,1.044s-0.863,1.558-0.863,2.587c0,1.271,0.271,2.571,0.816,3.901
			c1.752,4.114,3.219,7.715,4.396,10.802c1.178,3.085,1.768,6.08,1.768,8.983c0,1.574-0.258,3.087-0.771,4.538
			c-0.514,1.452-1.256,2.738-2.225,3.856c-0.967,1.12-2.176,2.013-3.629,2.678c-1.453,0.667-3.088,0.998-4.9,0.998
			c-1.15,0-2.361-0.121-3.633-0.366c-1.27-0.244-2.449-0.625-3.539-1.145c-1.088-0.518-1.98-1.172-2.676-1.96
			c-0.697-0.788-1.045-1.756-1.045-2.908c0-1.028,0.332-1.862,1-2.498c0.666-0.635,1.424-0.953,2.271-0.953
			c1.029,0,1.816,0.242,2.361,0.727c0.547,0.485,0.971,1.12,1.273,1.908c0.182,0.484,0.393,0.984,0.637,1.499
			c0.24,0.514,0.529,0.981,0.863,1.406c0.332,0.425,0.756,0.772,1.271,1.043c0.516,0.274,1.166,0.41,1.955,0.41
			c1.453,0,2.498-0.438,3.135-1.315c0.637-0.879,0.953-1.923,0.953-3.133c0-1.695-0.559-3.737-1.678-6.128
			c-1.117-2.391-2.402-5.613-3.852-9.67c-0.969-2.602-1.451-5.204-1.451-7.807c0-1.573,0.271-3.086,0.816-4.539
			c0.545-1.451,1.35-2.737,2.408-3.857c1.059-1.119,2.391-2.012,3.994-2.679c1.604-0.665,3.467-0.998,5.586-0.998
			c0.604,0,1.348,0.077,2.225,0.229c0.879,0.151,1.709,0.397,2.496,0.733s1.469,0.81,2.043,1.419
			C219.14,168.975,219.429,169.735,219.429,170.644z M238.134,169.966c0,1.03-0.105,2.029-0.318,2.998
			c-0.211,0.968-0.559,2.075-1.043,3.316s-1.137,2.696-1.953,4.361s-1.861,3.68-3.133,6.041c-1.635,3.15-2.936,5.663-3.904,7.541
			s-1.727,3.362-2.27,4.452c-0.547,1.091-0.895,1.863-1.045,2.318c-0.152,0.453-0.227,0.802-0.227,1.044
			c0,0.605,0.271,0.908,0.816,0.908c0.484,0,1.029-0.241,1.635-0.727c0.605-0.484,1.209-1.059,1.816-1.727
			c0.604-0.666,1.166-1.362,1.678-2.089c0.516-0.728,0.955-1.333,1.318-1.819c0.121-0.241,0.287-0.452,0.5-0.634
			c0.211-0.182,0.469-0.273,0.771-0.273c0.666,0,1.074,0.197,1.227,0.591c0.15,0.394,0.137,0.771-0.047,1.136
			c-0.303,0.666-0.908,1.636-1.816,2.908c-0.906,1.271-1.998,2.543-3.268,3.815c-1.271,1.271-2.633,2.393-4.086,3.361
			c-1.453,0.97-2.877,1.453-4.27,1.453c-1.211,0-2.301-0.347-3.27-1.044c-0.967-0.696-1.451-1.74-1.451-3.135
			c0-0.969,0.271-2.241,0.816-3.816c0.545-1.574,1.211-3.239,1.998-4.996c0.787-1.756,1.604-3.468,2.451-5.134
			s1.574-3.043,2.18-4.135c1.996-3.815,3.48-6.632,4.449-8.449s1.453-3.149,1.453-3.999c0-0.544-0.242-0.816-0.727-0.816
			c-0.424,0-0.893,0.182-1.408,0.545c-0.514,0.364-1.059,0.818-1.635,1.364c-0.574,0.545-1.148,1.136-1.725,1.77
			c-0.574,0.637-1.074,1.197-1.498,1.683c-0.543,0.606-1.059,0.908-1.541,0.908c-0.789,0-1.182-0.302-1.182-0.908
			c0-0.303,0.072-0.576,0.227-0.819c0.15-0.241,0.348-0.515,0.59-0.817c0.361-0.544,1.059-1.393,2.09-2.544
			c1.027-1.15,2.223-2.315,3.586-3.497c1.361-1.181,2.783-2.227,4.268-3.136c1.482-0.907,2.922-1.362,4.314-1.362
			c1.209,0,2.117,0.303,2.723,0.91C237.832,168.119,238.134,168.937,238.134,169.966z M238.582,159.396
			c-1.395,0-2.561-0.485-3.5-1.458s-1.408-2.155-1.408-3.554c0-1.397,0.469-2.565,1.408-3.509c0.939-0.941,2.105-1.411,3.5-1.411
			s2.561,0.47,3.502,1.411c0.938,0.943,1.408,2.111,1.408,3.509c0,1.398-0.471,2.581-1.408,3.554
			C241.142,158.91,239.976,159.396,238.582,159.396z M254.162,179.361c1.816-2.602,3.541-4.72,5.176-6.356
			c1.635-1.635,3.148-2.905,4.541-3.814c1.391-0.908,2.664-1.527,3.814-1.86c1.15-0.334,2.211-0.5,3.18-0.5
			c1.82,0,3.246,0.439,4.275,1.316s1.547,2.193,1.547,3.948c0,1.392-0.381,3.223-1.139,5.491c-0.756,2.269-2.137,5.309-4.137,9.121
			c-1.455,2.722-2.652,4.976-3.59,6.762c-0.939,1.784-1.697,3.222-2.271,4.312c-0.574,1.088-0.984,1.937-1.227,2.541
			s-0.361,1.089-0.361,1.452c0,0.604,0.27,0.907,0.816,0.907c0.363,0,0.832-0.227,1.406-0.681c0.574-0.453,1.18-0.998,1.816-1.634
			c0.637-0.634,1.273-1.3,1.91-1.996c0.637-0.695,1.137-1.286,1.5-1.771c0.182-0.241,0.363-0.453,0.545-0.635
			c0.182-0.181,0.426-0.272,0.729-0.272c0.668,0,1.076,0.196,1.227,0.59c0.152,0.393,0.137,0.771-0.045,1.135
			c-0.303,0.665-0.926,1.634-1.863,2.903c-0.941,1.271-2.062,2.541-3.365,3.813c-1.301,1.27-2.709,2.389-4.223,3.358
			c-1.514,0.967-2.998,1.45-4.451,1.45c-1.271,0-2.344-0.336-3.223-1.01c-0.879-0.673-1.316-1.707-1.316-3.099
			c0-1.877,0.742-4.328,2.225-7.355c1.482-3.026,3.285-6.539,5.402-10.534c1.697-3.208,3.059-5.842,4.086-7.9
			c1.029-2.058,1.545-3.602,1.545-4.632c0-0.604-0.121-0.998-0.363-1.18s-0.514-0.272-0.816-0.272c-0.789,0-1.711,0.334-2.77,1
			c-1.061,0.666-2.137,1.499-3.225,2.497c-1.09,0.999-2.119,2.073-3.088,3.224c-0.967,1.15-1.756,2.178-2.361,3.087
			c-1.15,1.815-2.135,3.481-2.951,4.995c-0.816,1.512-1.633,3.116-2.451,4.812c-0.818,1.694-1.711,3.617-2.68,5.767
			s-2.148,4.768-3.539,7.854c-0.305,0.728-0.652,1.272-1.047,1.635c-0.393,0.364-1.012,0.545-1.861,0.545h-2.451
			c-0.545,0-1.074-0.062-1.588-0.181c-0.516-0.12-0.771-0.454-0.771-0.998c0-0.483,0.119-0.998,0.361-1.542
			c0.121-0.361,0.395-1.057,0.816-2.086c0.426-1.028,0.939-2.269,1.545-3.719c0.604-1.451,1.287-3.055,2.043-4.809
			c0.756-1.753,1.5-3.537,2.227-5.351c1.328-3.146,2.42-5.943,3.268-8.392c0.848-2.449,1.422-4.188,1.727-5.216
			c0.059-0.242,0.135-0.619,0.225-1.134c0.092-0.514-0.105-0.771-0.59-0.771s-1.074,0.362-1.77,1.088
			c-0.697,0.725-1.893,2.056-3.586,3.991c-0.547,0.544-0.971,0.816-1.271,0.816c-0.789,0-1.182-0.333-1.182-0.997
			c0-0.304,0.076-0.575,0.227-0.817c0.152-0.242,0.318-0.514,0.5-0.816c0.061-0.06,0.514-0.649,1.361-1.77
			c0.848-1.118,1.893-2.327,3.133-3.628c1.242-1.299,2.574-2.493,3.996-3.583c1.422-1.088,2.77-1.633,4.041-1.633
			c0.908,0,1.619,0.212,2.133,0.636c0.516,0.424,0.773,1.15,0.773,2.18c0,1.151-0.318,2.618-0.955,4.405
			c-0.635,1.784-1.316,3.465-2.041,5.039L254.162,179.361z"/>
		<g>
			<g>
				<g>
					<path fill="#231F20" d="M166.333,163.311c-0.244-0.516-0.549-0.924-0.91-1.229c-0.365-0.303-0.744-0.529-1.137-0.682
						c-0.395-0.15-0.713-0.227-0.955-0.227c-0.486,0-0.789,0.136-0.91,0.41c-0.123,0.272-0.213,0.651-0.273,1.136
						c0,0.305-0.045,0.653-0.137,1.047c-0.092,0.395-0.303,0.803-0.635,1.228c-0.334,0.425-0.836,0.772-1.504,1.047
						c-0.668,0.271-1.576,0.407-2.729,0.407c-1.943,0-3.674-0.142-5.191-0.428c-1.518-0.281-3.004-0.426-4.459-0.426
						c-2.672,0-5.312,0.593-7.92,1.774c-2.61,1.183-4.976,2.76-7.101,4.729c-2.123,1.972-3.837,4.199-5.145,6.684
						c-1.303,2.485-1.954,5.032-1.954,7.642c0,2.545,0.816,4.484,2.454,5.817c1.638,1.336,3.668,2.063,6.094,2.184l-0.021,0.455
						c-1.029,0.485-2.012,1.106-2.95,1.864c-0.936,0.759-1.797,1.591-2.583,2.501c-0.786,0.909-1.406,1.911-1.859,3.001
						c-0.454,1.092-0.681,2.243-0.681,3.455c0,1.941,0.533,3.487,1.596,4.639c1.062,1.152,2.399,2.107,4.01,2.864
						c1.608,0.759,3.342,1.411,5.195,1.958c1.853,0.544,3.584,1.166,5.194,1.863s2.947,1.561,4.012,2.592
						c1.062,1.028,1.594,2.425,1.594,4.185c0,1.817-0.426,3.348-1.275,4.592c-0.85,1.243-1.957,2.272-3.324,3.092
						c-1.365,0.818-2.912,1.408-4.642,1.774c-1.73,0.362-3.475,0.543-5.235,0.543c-1.64,0-3.308-0.104-5.008-0.316
						c-1.699-0.213-3.262-0.637-4.689-1.273c-1.426-0.637-2.594-1.531-3.505-2.684c-0.912-1.151-1.365-2.637-1.365-4.457
						c0-1.515,0.272-2.805,0.817-3.863c0.546-1.062,1.227-1.941,2.046-2.638c0.819-0.698,1.669-1.242,2.547-1.637
						c0.88-0.395,1.653-0.683,2.319-0.864c0.727-0.182,1.092-0.547,1.092-1.092c0-0.787-1.031-1.181-3.093-1.181
						c-1.091,0-2.441,0.136-4.048,0.407c-1.608,0.274-3.141,0.818-4.6,1.638c-1.461,0.819-2.722,1.94-3.784,3.365
						c-1.063,1.423-1.596,3.318-1.596,5.684s0.667,4.381,2.001,6.048s3.064,2.998,5.188,3.994c2.125,0.995,4.535,1.719,7.236,2.173
						c2.7,0.451,5.386,0.678,8.055,0.678c2.91,0,5.763-0.35,8.555-1.048c2.791-0.695,5.293-1.756,7.506-3.18
						c2.217-1.425,3.992-3.211,5.326-5.362c1.334-2.15,2.004-4.649,2.004-7.498c0-2.543-0.564-4.619-1.688-6.226
						c-1.125-1.605-2.506-2.937-4.146-3.998c-1.641-1.06-3.447-1.923-5.424-2.591c-1.973-0.665-3.781-1.287-5.42-1.862
						c-1.642-0.576-3.023-1.196-4.146-1.862c-1.125-0.666-1.685-1.576-1.685-2.728c0-0.727,0.166-1.392,0.501-1.998
						s0.762-1.168,1.277-1.683c0.518-0.515,1.08-0.954,1.689-1.318c0.609-0.362,1.188-0.637,1.735-0.818
						c2.189-0.727,4.41-1.756,6.664-3.089c2.252-1.333,4.291-2.877,6.117-4.634c1.826-1.759,3.301-3.696,4.426-5.818
						c1.129-2.12,1.689-4.392,1.689-6.816c0-1.272-0.188-2.361-0.561-3.272c-0.375-0.907-0.748-1.573-1.121-1.997l0.273-0.365
						c0.484,0.121,1.197,0.259,2.139,0.41c0.939,0.151,1.805,0.227,2.594,0.227c1.457,0,2.793-0.407,4.008-1.223
						c1.213-0.817,1.818-2.104,1.818-3.858C166.695,164.447,166.574,163.824,166.333,163.311z M148.513,178.564
						c-0.787,2.154-1.809,4.186-3.053,6.095c-1.248,1.909-2.645,3.53-4.197,4.865c-1.551,1.334-3.084,2.002-4.607,2.002
						c-1.764,0-2.644-1.396-2.644-4.187c0-2.12,0.44-4.287,1.322-6.5c0.882-2.214,1.991-4.213,3.329-6.003
						c1.335-1.788,2.767-3.243,4.287-4.363c1.521-1.123,2.889-1.685,4.107-1.685c1.762,0,2.643,1.364,2.643,4.093
						C149.701,174.521,149.304,176.414,148.513,178.564z"/>
				</g>
			</g>
		</g>
	</g>
</g>
</svg>
