<?xml version="1.0" encoding="utf-8"?>
<!-- Generator: Adobe Illustrator 15.0.2, SVG Export Plug-In . SVG Version: 6.00 Build 0)  -->
<!DOCTYPE svg PUBLIC "-//W3C//DTD SVG 1.1//EN" "http://www.w3.org/Graphics/SVG/1.1/DTD/svg11.dtd">
<svg version="1.1" id="Layer_1" xmlns="http://www.w3.org/2000/svg" xmlns:xlink="http://www.w3.org/1999/xlink" x="0px" y="0px"
	 width="326.023px" height="256px" viewBox="-99.282 -108.571 326.023 256" enable-background="new -99.282 -108.571 326.023 256"
	 xml:space="preserve">
<path fill="#002F65" d="M-99.282,58.695v12.73c0,0,22.635,12.723,52.91,12.723c30.271,0,55.772-13.614,55.772-13.614
	s20.381,13.313,58.312,13.313c29.964,0,50.67-13.608,50.67-13.608s23.274,13.909,58.333,13.909
	c28.676,0,50.026-12.723,50.026-12.723V58.992c0,0-22.952,13.313-50.994,13.313c-34.42,0-56.725-15.09-56.725-15.09
	s-29.008,15.685-52.58,15.685C36.487,72.901,9.4,57.216,9.4,57.216s-23.269,15.09-55.131,15.09
	C-77.606,72.306-99.282,58.695-99.282,58.695"/>
<path fill="#002F65" d="M-99.282,90.161v12.733c0,0,22.635,12.729,52.91,12.729c30.271,0,55.772-13.62,55.772-13.62
	s20.381,13.322,58.312,13.322c29.964,0,50.67-13.613,50.67-13.613s23.274,13.911,58.333,13.911
	c28.676,0,50.026-12.729,50.026-12.729V90.462c0,0-22.952,13.315-50.994,13.315c-34.42,0-56.725-15.099-56.725-15.099
	s-29.008,15.699-52.58,15.699C36.487,104.378,9.4,88.679,9.4,88.679s-23.269,15.099-55.131,15.099
	C-77.606,103.778-99.282,90.161-99.282,90.161"/>
<path fill="#002F65" d="M-99.282,121.629v12.737c0,0,22.635,12.722,52.91,12.722c30.271,0,55.772-13.611,55.772-13.611
	s20.381,13.313,58.312,13.313c29.964,0,50.67-13.615,50.67-13.615s23.274,13.913,58.333,13.913
	c28.676,0,50.026-12.722,50.026-12.722v-12.44c0,0-22.952,13.319-50.994,13.319c-34.42,0-56.725-15.093-56.725-15.093
	s-29.008,15.688-52.58,15.688c-29.956,0-57.043-15.688-57.043-15.688s-23.269,15.093-55.131,15.093
	C-77.606,135.245-99.282,121.629-99.282,121.629"/>
<path fill="#B5975C" d="M150.072-43.86c0.827-0.835,1.345-1.979,1.345-3.242c0-1.607-0.828-3.009-2.062-3.826l-0.009-0.009
	c0.461-0.721,0.738-1.573,0.738-2.481c0-2.212-1.575-4.061-3.664-4.489l0.075-0.166c0.057-0.293,0.094-0.604,0.094-0.918
	c0-2.528-2.058-4.58-4.581-4.58c-0.356,0-0.717,0.045-1.048,0.119l-0.018-0.081c-0.599-1.833-2.323-3.159-4.361-3.159
	c-0.694,0-1.363,0.155-1.96,0.446l-0.039-0.067c-0.821-1.216-2.217-2.015-3.799-2.015c-0.944,0-1.834,0.287-2.547,0.781
	l-0.093-0.074c-0.729-0.494-1.613-0.78-2.558-0.78c-1.501,0-2.811,0.714-3.654,1.82c-0.795-0.681-1.829-1.099-2.975-1.099
	c-0.49,0-0.967,0.08-1.412,0.221c-0.35-2.179-2.237-3.841-4.515-3.841c-0.461,0-0.919,0.075-1.336,0.201l-0.044-0.035
	c0-2.527-2.054-4.578-4.587-4.578c-1.295,0-2.476,0.548-3.309,1.419l-0.03-0.076c-0.829-1.214-2.222-2.021-3.799-2.021
	c-1.697,0-3.181,0.929-3.965,2.306l-0.034,0.026c-0.758-0.578-1.702-0.911-2.735-0.911c-1.787,0-3.324,1.021-4.087,2.508
	l-0.206-0.01c-0.287-0.065-0.596-0.09-0.896-0.09c-1.628,0-3.051,0.843-3.865,2.118c-0.375-0.104-0.776-0.159-1.184-0.159
	c-1.592,0-2.988,0.818-3.808,2.045l-0.093-0.012c-0.729-0.474-1.59-0.752-2.516-0.752c-0.338,0-0.655,0.039-0.957,0.104
	l-0.021-0.176c0.155-0.456,0.297-0.921,0.401-1.406l0.009,0.023c0.835-0.578,1.383-1.546,1.383-2.632
	c0-0.995-0.458-1.876-1.171-2.462v0.02c-0.585-4.236-3.077-7.867-6.569-10.002l0.008,0.073c-0.346-1.432-1.148-2.276-2.492-2.676
	c0.007-0.686-0.017-2.637-0.017-2.637l3.065-0.038c0,1.764,1.436,3.193,3.197,3.193c1.589,0,2.917-1.169,3.153-2.692l0.054-0.009
	c1.459-0.298,2.554-1.587,2.554-3.13c0-1.589-1.16-2.906-2.679-3.151l0.053,0.01c-0.31-1.448-1.596-2.544-3.135-2.544
	c-1.673,0-3.048,1.292-3.183,2.933h-3.08v-3.37h0.061c1.445-0.305,2.522-1.587,2.522-3.121c0-1.563-1.109-2.863-2.582-3.139
	l-0.107-0.072c-0.294-1.451-1.563-2.539-3.098-2.557h-0.063c-1.529,0.018-2.806,1.106-3.093,2.557l-0.113,0.072
	c-1.479,0.276-2.593,1.576-2.593,3.139c0,1.534,1.082,2.816,2.533,3.121h0.063v3.37h-3.089c-0.139-1.641-1.513-2.933-3.182-2.933
	c-1.541,0-2.832,1.096-3.133,2.544l0.046-0.01c-1.518,0.245-2.68,1.562-2.68,3.151c0,1.542,1.093,2.832,2.555,3.13l0.053,0.009
	c0.24,1.522,1.565,2.692,3.159,2.692c1.761,0,3.191-1.429,3.191-3.193l3.079,0.038c0,0-0.027,1.951-0.021,2.637
	c-1.341,0.4-2.149,1.245-2.502,2.676l0.012-0.073c-3.501,2.136-5.979,5.766-6.564,10.002l-0.008-0.02
	c-0.708,0.585-1.169,1.467-1.169,2.462c0,1.086,0.552,2.055,1.385,2.632l0.007-0.023c0.108,0.485,0.243,0.951,0.401,1.406
	l-0.014,0.176c-0.309-0.065-0.63-0.104-0.958-0.104c-0.93,0-1.79,0.278-2.521,0.752L48.6-68.558
	c-0.82-1.228-2.218-2.045-3.815-2.045c-0.408,0-0.801,0.055-1.181,0.159c-0.806-1.275-2.23-2.118-3.852-2.118
	c-0.317,0-0.619,0.025-0.914,0.09l-0.204,0.01c-0.754-1.487-2.3-2.508-4.082-2.508c-1.027,0-1.974,0.333-2.738,0.911l-0.027-0.026
	C31-75.461,29.513-76.39,27.816-76.39c-1.583,0-2.975,0.807-3.792,2.021l-0.029,0.076c-0.839-0.871-2.017-1.419-3.318-1.419
	c-2.534,0-4.581,2.051-4.581,4.578l-0.045,0.035c-0.426-0.126-0.876-0.201-1.334-0.201c-2.285,0-4.168,1.662-4.522,3.841
	c-0.444-0.141-0.922-0.221-1.411-0.221c-1.139,0-2.175,0.418-2.972,1.099C4.974-67.686,3.65-68.4,2.162-68.4
	c-0.953,0-1.829,0.287-2.563,0.78l-0.083,0.074c-0.729-0.494-1.616-0.781-2.559-0.781c-1.58,0-2.97,0.798-3.79,2.015l-0.046,0.067
	c-0.588-0.291-1.255-0.446-1.965-0.446c-2.029,0-3.754,1.327-4.352,3.159l-0.016,0.081c-0.339-0.074-0.689-0.119-1.052-0.119
	c-2.528,0-4.579,2.052-4.579,4.58c0,0.313,0.033,0.625,0.094,0.918l0.067,0.166c-2.082,0.428-3.651,2.277-3.651,4.489
	c0,0.909,0.268,1.761,0.739,2.481l-0.012,0.009c-1.242,0.817-2.065,2.218-2.065,3.826c0,1.263,0.516,2.406,1.342,3.242l-0.033,0.035
	c-0.567,0.65-0.908,1.495-0.908,2.425c0,1.461,0.847,2.723,2.074,3.325l0.021,0.019c-0.197,0.457-0.31,0.959-0.31,1.483
	c0,1.639,1.059,3.023,2.535,3.521l0.021-0.007c-0.195,0.455-0.312,0.959-0.312,1.49c0,1.576,0.991,2.923,2.383,3.46
	c-0.049,0.251-0.076,0.503-0.076,0.771c0,1.739,1.2,3.197,2.808,3.594l0.124,0.214c-0.247,0.472-0.384,0.986-0.384,1.544
	c0,1.831,1.486,3.317,3.315,3.317c0.746,0,1.43-0.25,1.987-0.66l0.027,0.075c2.23,1.32,3.625,3.669,4.833,5.897v0.225
	c-0.326,0.546-0.518,1.199-0.518,1.884c0,2.043,1.666,3.709,3.709,3.709c0.159,0,0.311-0.013,0.47-0.033
	c0,0,4.145,5.429,6.418,7.815H5.837C5.148,0.851,4.71,1.753,4.71,2.747c0,1.719,1.291,3.128,2.955,3.325l0.466,2.677
	c-0.678,1.102-1.08,2.394-1.104,3.785c-0.042,2.964,1.625,5.651,4.103,6.907l0.063,3.276c0,0-1.478,0.751-1.94,1.515
	c-0.315,0.506-0.502,1.116-0.514,1.756c-0.026,1.356,0.736,2.548,1.863,3.14c0,0,1.462,1.113,5.27,1.623
	c12.44,1.665,24.771,2.326,37.722,2.762c3.374,0.055,6.792,0.092,10.227,0.092h0.108c3.437,0,6.846-0.037,10.218-0.092
	c12.953-0.436,25.284-1.097,37.729-2.762c3.806-0.51,5.261-1.623,5.261-1.623c1.126-0.592,1.887-1.783,1.866-3.14
	c-0.007-0.64-0.194-1.25-0.506-1.756c-0.464-0.764-1.954-1.515-1.954-1.515l0.075-3.276c2.473-1.256,4.146-3.943,4.094-6.907
	c-0.021-1.392-0.422-2.684-1.099-3.785l0.461-2.677c1.662-0.197,2.964-1.606,2.964-3.325c0-0.995-0.438-1.896-1.136-2.501h-0.02
	c2.282-2.387,6.434-7.815,6.434-7.815c0.15,0.021,0.305,0.033,0.459,0.033c2.047,0,3.711-1.667,3.711-3.709
	c0-0.685-0.188-1.338-0.521-1.884v-0.225c1.213-2.228,2.602-4.577,4.833-5.897l0.032-0.075c0.555,0.41,1.238,0.66,1.989,0.66
	c1.823,0,3.312-1.487,3.312-3.317c0-0.558-0.138-1.072-0.388-1.544l0.127-0.214c1.606-0.396,2.81-1.854,2.81-3.594
	c0-0.267-0.021-0.519-0.081-0.771c1.397-0.537,2.386-1.884,2.386-3.46c0-0.531-0.111-1.036-0.314-1.49l0.025,0.007
	c1.471-0.499,2.539-1.883,2.539-3.521c0-0.524-0.115-1.027-0.317-1.483l0.021-0.019c1.226-0.602,2.081-1.864,2.081-3.325
	c0-0.93-0.344-1.775-0.91-2.425L150.072-43.86z M118.467-39.756c0.63-0.871,0.259-2.228,0.054-3.275
	c0.407-0.392,1.04-0.73,1.461-1.264c0.673-0.834,0.809-2.452,0.321-3.421c-0.509-0.593,0.116-1.336,0.605-1.643
	c1.023-0.613,2.388,0.529,3.741,0.082c1.302,1.401,2.791,2.583,4.903,2.182c0.772,0.521,1.623,1.107,2.271,1.591
	c0,0,0.178,0.139,0,0.455c-0.607,1.065,0.375,2.709-0.108,4.024c-0.636,1.798-0.397,3.452,0.108,5.198
	c-0.632,1.636-1.249,3.195-1.343,4.953c-0.156,0.746,0.077,1.03,0.028,1.914c-1.136-0.101-2.641,0.184-3.627,0.697
	c-0.314-0.632-0.852-1.321-1.483-1.682c-2.024-1.246-3.792-2.555-6.212-3.378c-1.534-0.468-2.418-0.432-3.413-0.645
	c-1.332-0.519,1.606-1.772,1.076-3.42C115.895-38.797,118.077-38.818,118.467-39.756 M114.43-12.117
	c-0.496,0.092-0.859,0.009-1.37-0.084c0.666-1.672,1.467-3.337,1.673-5.204c0.423-2.07-0.355-4.169-1.694-5.306
	c0.302-0.497,0.347-1.074,0.532-1.596c0.282-1.921-0.156-3.288-1.348-4.605c-0.724-0.66-2.171-1.526-1.187-2.175
	c1.187-0.443,3.71,0.169,3.71,0.169c4.705,0.806,7.583,2.702,10.115,5.533c0.014,0.098,0.176,0.088,0.176,0.241
	c-0.322,0.401-0.586,0.826-1.059,1.527c-0.89-0.39-1.949-0.817-2.914-0.657C116.959-23.056,114.063-15.443,114.43-12.117
	 M76.352-63.842c0.304-0.593,0.96-0.725,1.512-0.816c4.151-0.762,8.367-1.895,12.27-3.246c4.717-1.958,10.106-3.442,15.22-2.02
	c0.35,0.138,0.833,0.268,1.13,0.398c6.141,1.896,8.947,8.415,9.693,14.305c0.062,0.166,0.137,2.435,0.115,3.226
	c-0.169,5.293-2.15,10.971-5.237,15.447c-0.86,1.326-2.008,2.926-3.383,3.634c-0.634,0.22-0.854-0.05-1.25-0.311
	c-0.462-0.422-0.422-0.964-0.16-1.458c2.819-3.318,4.92-6.643,6.449-10.653c2.022-4.683,1.451-10.615-0.21-15.132
	c-0.486-1.05-1.033-2.136-1.764-2.966c-2.965-4.307-10.418-5.155-13.929-3.975c-5.674,1.952-11.551,3.8-17.487,5.267
	c-1.641,0.4-2.196,0.745-2.898-0.214C76.101-62.698,76.191-63.434,76.352-63.842 M105.769-47.716
	c0.652-1.55,2.795-3.474,2.459-4.455c-0.183-0.311-0.481-0.504-0.928-0.504c-0.724,0.092-1.301,0.688-1.649,1.171
	c-0.392,0.444-1.052,0.348-1.226-0.295c-0.172-0.655-0.048-1.423,0.35-1.98c0.53-0.993-0.983-1.181-0.724-2.055
	c0.818-1.271,1.6-2.968,1.07-4.579c-0.252-1.18-1.675-1.494-1.74-2.758c-0.021-0.348,0.41-0.807,1.044-0.744
	c1.385,0.391,2.575,1.774,2.928,3.196c0.646,1.385-0.61,2.657,0.318,3.837c0.632,0.249,0.834-0.488,1.486-0.408
	c0.421,0.062,0.729,0.196,0.928,0.638c0.885,1.904,0.633,3.789,0.297,5.938c-0.424,2.37-2.782,3.629-2.573,6.216
	c0.082,1.056-1.85,4.91-2.924,4.551c-1.02-1.103,0.285-2.567,0.392-3.877C104.051-45.041,105.209-46.478,105.769-47.716
	 M77.937-28.988c-0.584-0.408-1.367-0.621-1.949-1.14c0.417-2.23-0.566-3.719-1.744-5.429c0.828-0.117,0.67-0.167,1.288-0.204
	c3.146-0.289,4.641-0.528,7.268-0.964c2.521-0.346,4.696-0.976,7.301-1.155c5.387-0.38,7.711,0.793,10.77,2.55
	c0.725,0.515,2.082,0.62,1.677,1.975c-0.318,0.723-3.28,0.206-4.829,0.723c-1.86,0.522-2.938,2.192-3.656,3.866
	c-2.071-0.102-3.871,1.385-4.892,2.777c-2.255,3.276-2.097,12.2-2.164,12.247c-1.164-0.44-1.368-2.129-2.646-2.41
	c-0.853-0.178-1.651,0.612-2.093,1.132c-0.343,0.279-0.885,0.635-1.257,0.482c0.353-0.778,0.42-1.743,0.576-2.488
	C82.171-21.258,81.683-26.732,77.937-28.988 M98.219-64.435c1.169-0.223,2.538,1.607,3.058,2.871c0.129,0.27,0.41,0.844,0.215,1.791
	c-0.516,1.122,0.533,2.437-0.086,3.586c-0.141,0.613-0.717,0.832-1.301,0.779c-2.388-0.686-2.204-3.972-4.527-5.006
	c-0.858-0.044-1.208,0.75-2.399,0.698c-1.018-0.049-2.084-0.314-2.578-1.289c-0.188-0.365,0.077-0.83,0.397-1
	c1.182-0.303,2.372-0.443,3.438-1.002c1.162-0.34,1.979,0.516,3.066,0.56C98.246-62.923,97.379-64.063,98.219-64.435 M74.459-40.248
	c0.383-0.19,0.841-0.426,1.239-0.601c2.544-1.926,1.781-5.685,1.061-8.313c0.873-1.338,1.089-3.036,0.43-4.561
	c0.552-1.537,0.748-3.253,0.519-5.01c0.671-0.147,1.055-0.093,1.521,0c2.433,0.309,5.131-0.036,7.316-0.334
	c1.484-0.537,2.125,1.374,2.787,1.784c0.615,0.506,1.008,0.631,2.223,0.986c1.5,0.372,2.63,0.098,3.783,0.584
	c0.653,1.35,1.745,2.627,3.187,3.196c0.653,0.327,1.605,0.046,2.045,0.718c0.028,1.741,0.696,3.129,1.441,4.528
	c-0.519,0.978-0.936,2.657-0.375,3.892c-0.144,1.139-0.631,3.318-0.631,3.318c-0.065,0.316-0.065,0.316-0.247,0.968
	c-0.91-0.362-1.832-0.793-2.761-1.104c-4.579-2.143-9.734-0.605-14.384,0.136c-3.021,0.363-6.207,0.9-9.4,1.03
	C74.287-39.578,74.287-39.578,74.459-40.248 M73.105-53.288c0,0.69,0.026,1.651-0.523,2.258c-0.443,1.022,0.461,1.664,0.743,2.704
	c0.162,0.441,0.778,2.991-0.031,4.123c-0.809,0.78-1.353-0.266-2.146-0.223c-0.99,0.613-0.669,1.894-0.867,2.898
	c-0.123,0.436-0.061,1.16-0.895,1.135c-0.525-0.203-0.632-0.521-0.854-1.449c-0.258-1.821-0.195-3.8,0.357-5.438
	c0.495-0.833,1.119-0.286,1.644-0.286c0.559-0.221,0.47-0.556,0.493-0.89c0.065-0.337-0.868-3.223-1.762-4.674
	c-1.214-1.187,0.414-2.821-0.211-4.32c-0.187-0.314-0.229-0.492,0.248-0.793c0.512-0.396,1.052,0.062,1.575,0.125
	c0.487,0.055,0.727-0.353,0.553-0.809c-0.773-1.634-2.128-3.166-1.795-4.915c0.197-0.344,0.523-0.593,0.984-0.529
	c0.473,0.186,0.637,0.252,1.189,0.893c0.677,1.162,2.07,4.098,2.035,5.637c0,0.308-0.432,2.445-1.147,2.696
	C72.174-54.329,73.172-54.12,73.105-53.288 M67.112-83.07c0,0,0.458-0.119,1.127,0.178c2.079,0.973,3.336,2.182,4.093,4.365
	c0.189,0.62,0.41,1.308-0.092,1.803c-1.881-0.133-5.128-0.551-5.128-0.551V-83.07z M63.82-71.654h0.108
	c2.438,0,4.91,0.158,7.365,0.346c0.594,0.074,1.068,0.556,0.932,1.234c-0.121,0.437-0.485,0.742-0.909,0.79
	c-2.489-0.188-4.896-0.057-7.388-0.057H63.82c-2.487,0-4.9-0.13-7.391,0.057c-0.425-0.048-0.789-0.354-0.91-0.79
	c-0.137-0.678,0.334-1.16,0.927-1.234C58.906-71.496,61.384-71.654,63.82-71.654 M63.844-66.415c-0.006,0-0.013-0.002-0.014-0.002
	h0.029C63.855-66.418,63.851-66.415,63.844-66.415h0.063c-0.006,0-0.009-0.002-0.014-0.002h0.027c0,0-0.009,0.002-0.014,0.002
	c2.521,0.047,1.896,5.966,1.896,13.256c0,7.295,0.774,13.211-1.896,13.266h-0.063c-2.671-0.054-1.893-5.971-1.893-13.266
	C61.952-60.449,61.319-66.368,63.844-66.415 M55.409-78.527c0.76-2.183,2.014-3.392,4.107-4.365
	c0.659-0.297,1.126-0.178,1.126-0.178v5.795c0,0-3.248,0.418-5.135,0.551C54.998-77.219,55.218-77.907,55.409-78.527 M55.937-63.478
	c0.547-0.641,0.711-0.708,1.191-0.893c0.461-0.064,0.786,0.186,0.983,0.529c0.331,1.749-1.022,3.28-1.798,4.915
	c-0.168,0.456,0.062,0.864,0.55,0.809c0.532-0.064,1.072-0.521,1.579-0.125c0.482,0.301,0.435,0.479,0.256,0.793
	c-0.635,1.499,0.999,3.133-0.218,4.32c-0.892,1.451-1.833,4.337-1.763,4.674c0.027,0.333-0.07,0.668,0.494,0.89
	c0.526,0,1.148-0.547,1.648,0.286c0.547,1.637,0.614,3.617,0.354,5.438c-0.224,0.928-0.329,1.247-0.854,1.449
	c-0.832,0.025-0.771-0.699-0.898-1.135c-0.199-1.004,0.127-2.285-0.867-2.898c-0.796-0.043-1.337,1.003-2.145,0.223
	c-0.812-1.132-0.195-3.682-0.033-4.123c0.284-1.04,1.187-1.682,0.745-2.704c-0.558-0.606-0.532-1.568-0.532-2.258
	c-0.062-0.832,0.938-1.041,0.412-1.856c-0.717-0.251-1.146-2.388-1.146-2.696C53.861-59.38,55.258-62.316,55.937-63.478
	 M53.275-40.248c0.178,0.67,0.178,0.67,0.26,1.218c-3.205-0.13-6.392-0.667-9.406-1.03c-4.646-0.742-9.8-2.279-14.383-0.136
	c-0.928,0.311-1.858,0.742-2.757,1.104c-0.187-0.652-0.187-0.652-0.254-0.968c0,0-0.492-2.179-0.63-3.318
	c0.553-1.235,0.138-2.914-0.369-3.892c0.736-1.399,1.409-2.787,1.441-4.528c0.436-0.672,1.394-0.391,2.042-0.718
	c1.442-0.569,2.533-1.846,3.187-3.196c1.151-0.486,2.284-0.212,3.782-0.584c1.215-0.355,1.606-0.48,2.226-0.986
	c0.663-0.41,1.301-2.32,2.786-1.784c2.183,0.298,4.881,0.643,7.311,0.334c0.469-0.093,0.854-0.147,1.522,0
	c-0.228,1.757-0.035,3.474,0.521,5.01c-0.658,1.525-0.448,3.222,0.43,4.561c-0.725,2.628-1.486,6.387,1.054,8.313
	C52.442-40.675,52.893-40.438,53.275-40.248 M51.756-30.127c-0.585,0.519-1.367,0.732-1.951,1.14
	c-3.75,2.255-4.237,7.729-3.654,11.964c0.157,0.745,0.228,1.71,0.577,2.488c-0.373,0.153-0.907-0.204-1.256-0.482
	c-0.436-0.52-1.232-1.311-2.09-1.132c-1.278,0.281-1.487,1.969-2.646,2.41c-0.065-0.046,0.09-8.97-2.166-12.247
	c-1.025-1.392-2.819-2.879-4.898-2.777c-0.71-1.674-1.788-3.344-3.645-3.866c-1.555-0.517-4.51,0-4.832-0.723
	c-0.407-1.355,0.956-1.46,1.672-1.975c3.063-1.757,5.387-2.931,10.774-2.55c2.603,0.179,4.795,0.809,7.306,1.155
	c2.617,0.436,4.117,0.675,7.263,0.964c0.624,0.037,0.449,0.087,1.287,0.204C52.32-33.846,51.334-32.357,51.756-30.127
	 M26.243-59.774c-0.188-0.946,0.106-1.521,0.215-1.791c0.535-1.263,1.9-3.094,3.065-2.871c0.838,0.372-0.028,1.512,0.717,1.987
	c1.09-0.043,1.905-0.899,3.067-0.56c1.067,0.56,2.256,0.7,3.436,1.002c0.325,0.17,0.591,0.634,0.397,1
	c-0.492,0.975-1.559,1.24-2.578,1.289c-1.191,0.052-1.538-0.743-2.4-0.698c-2.322,1.035-2.134,4.321-4.521,5.006
	c-0.584,0.053-1.168-0.167-1.303-0.779C25.719-57.337,26.773-58.652,26.243-59.774 M11.567-55.221
	c0.746-5.89,3.547-12.409,9.693-14.305c0.294-0.13,0.773-0.26,1.13-0.398c5.109-1.422,10.498,0.062,15.214,2.02
	c3.907,1.351,8.118,2.483,12.273,3.246c0.553,0.091,1.207,0.223,1.516,0.816c0.157,0.408,0.248,1.144-0.075,1.486
	c-0.705,0.958-1.255,0.614-2.895,0.214c-5.938-1.466-11.818-3.315-17.487-5.267c-3.505-1.18-10.965-0.333-13.932,3.975
	c-0.724,0.83-1.282,1.916-1.766,2.966c-1.658,4.517-2.232,10.449-0.207,15.132c1.522,4.01,3.628,7.335,6.452,10.653
	c0.258,0.493,0.302,1.036-0.161,1.458c-0.396,0.261-0.616,0.531-1.254,0.311c-1.375-0.708-2.515-2.308-3.378-3.634
	c-3.087-4.476-5.077-10.153-5.242-15.447C11.428-52.786,11.501-55.055,11.567-55.221 M23.693-55.835
	c0.257,0.875-1.257,1.062-0.728,2.055c0.4,0.557,0.525,1.326,0.354,1.98c-0.175,0.643-0.831,0.739-1.225,0.295
	c-0.353-0.483-0.934-1.079-1.654-1.171c-0.449,0-0.743,0.193-0.927,0.504c-0.337,0.981,1.81,2.905,2.458,4.455
	c0.56,1.238,1.722,2.675,0.492,3.892c0.111,1.31,1.409,2.774,0.391,3.877c-1.071,0.358-3.005-3.495-2.926-4.551
	c0.215-2.586-2.145-3.846-2.573-6.216c-0.332-2.149-0.589-4.034,0.301-5.938c0.203-0.442,0.505-0.577,0.925-0.638
	c0.65-0.081,0.857,0.656,1.488,0.408c0.926-1.18-0.327-2.452,0.322-3.837c0.346-1.422,1.536-2.805,2.928-3.196
	c0.631-0.062,1.064,0.396,1.04,0.744c-0.062,1.264-1.487,1.578-1.739,2.758C22.094-58.803,22.872-57.106,23.693-55.835
	 M14.166-24.307c0.188,0.522,0.236,1.099,0.531,1.596c-1.339,1.137-2.106,3.236-1.69,5.306c0.202,1.867,1.003,3.532,1.674,5.204
	c-0.515,0.093-0.871,0.176-1.37,0.084c0.371-3.326-2.533-10.939-6.639-12.157c-0.957-0.16-2.024,0.268-2.908,0.657
	c-0.469-0.701-0.738-1.125-1.054-1.527c0-0.153,0.156-0.144,0.172-0.241c2.524-2.832,5.408-4.727,10.122-5.533
	c0,0,2.514-0.612,3.7-0.169c0.989,0.649-0.459,1.515-1.188,2.175C14.327-27.594,13.894-26.228,14.166-24.307 M9.216-43.031
	c-0.204,1.048-0.577,2.405,0.056,3.275c0.393,0.938,2.574,0.959,1.618,2.368c-0.53,1.648,2.412,2.902,1.081,3.42
	c-1.006,0.212-1.875,0.176-3.423,0.645c-2.409,0.823-4.183,2.132-6.206,3.378c-0.626,0.361-1.165,1.05-1.481,1.682
	c-0.984-0.514-2.489-0.798-3.626-0.697c-0.049-0.884,0.185-1.167,0.028-1.914c-0.093-1.757-0.714-3.316-1.347-4.953
	c0.513-1.747,0.745-3.4,0.115-5.198c-0.483-1.315,0.488-2.959-0.115-4.024c-0.173-0.316,0-0.455,0-0.455
	c0.65-0.483,1.504-1.069,2.276-1.591c2.11,0.4,3.596-0.781,4.897-2.182c1.35,0.447,2.72-0.695,3.742-0.082
	c0.495,0.306,1.115,1.05,0.604,1.643c-0.481,0.97-0.353,2.587,0.328,3.421C8.18-43.761,8.809-43.423,9.216-43.031 M-9.395-25.891
	c-0.96,0.359-1.751-0.477-2.121-1.09c-1.781-2.618-3.365-5.296-4.366-8.211c-2.184-5.779-3.162-12.865-0.42-18.634
	c0.865-2.221,2.633-3.919,4.433-5.24c4.979-3.335,11.426-4.912,17.801-3.424c0.617,0.249,1.854,0.284,1.946,1.38
	c-0.026,0.468-0.067,0.522-0.274,0.948c-0.315,0.652-1.353,0.581-2.842,0.168c-4.015-0.782-8.12-0.267-11.889,1.217
	c-3.072,1.374-6.542,3.566-7.472,6.954c-2.602,8.551,0.857,17.663,5.823,24.35C-8.602-26.991-8.456-26.352-9.395-25.891
	 M-6.517-32.071c-0.087,0.466-0.562,0.316-0.833,0.186c-1.734-1.34-2.448-3.159-3.257-5.074c-0.492-1.392-1.449-2.451-0.705-3.938
	c0.482-1.079,0.487-0.934,0.89-1.831c0.096-0.35,0.322-0.729,0.021-1.177c-1.56-2.194-1.801-6.915,0.075-8.231
	c0.496-0.362,1.242-0.399,0.995,0.277c-0.718,1.607-0.809,3.577,0.247,5.112c1.174,0.797,1.842,2.248,1.673,3.638
	c-0.04,0.486-0.154,0.911-0.369,1.313c0.352,1.214,1.142,2.749,0.329,3.963c-0.269,0.392-0.77,0.336-1.017,0.559
	C-7.566-35.74-6.296-33.939-6.517-32.071 M-6.985-52.08c-0.021-0.392,0.015-0.641,0.229-1.086c0.487-1.349,2.342-3.301,3.087-2.937
	c0.999,0.449-1.207,2.479,0.603,3.074c2.213,0.095,2.064-2.319,3.67-3.269c1.117-0.744,2.533-0.711,3.812-0.454
	c1.102,0.275,1.362,1.176,1.484,1.957c0.137,0.484,0,1.133-0.345,1.506c-1.462,0.853-2.937-1.71-4.299,0.123
	c-0.806,0.975-0.992,2.609-2.369,2.85c-0.766,0.076-1.189-0.629-2.065-0.398c-0.631,0.559-1.575,1.208-2.561,0.918
	C-6.572-50.104-6.908-50.656-6.985-52.08 M10.758,12.974c-0.029,0.397,0.099,1.011-0.147,1.029
	c-0.573,0.019-0.808-0.901-0.994-1.683c-0.047-0.971,0.586-1.792,1.273-2.135c0.28-0.175,0.705-0.14,0.956,0.066
	c0.442,0.317,0.496,1.447,0.125,1.659C11.896,12.071,10.929,12.354,10.758,12.974 M12.835,8.823
	c-0.506-0.514-1.069-1.822-0.124-1.84c1.414-0.075,2.527,1.867,3.011,3.007c0.861,2.527,0.522,5.519-1.434,7.393
	c-0.279,0.271-0.584,0.317-0.838,0.271c-0.633-0.383,0.045-0.872,0.23-1.182c0.16-0.194,0.258-0.305,0.346-0.48
	C15.312,13.67,14.385,10.648,12.835,8.823 M63.928,29.62H63.82c-2.444-0.026-32.403-0.466-35.951-1.439
	c5.184-1.138,27.771-1.406,35.951-1.431h0.108c8.176,0.024,30.758,0.293,35.94,1.431C96.329,29.155,66.375,29.594,63.928,29.62
	 M113.5,26.731c-16.567-1.672-32.536-2.572-49.572-2.624H63.82c-17.046,0.052-33.006,0.952-49.576,2.624
	c-1.235,0.093-2.068-0.204-2.127-0.781c-0.071-0.722,0.172-1.113,0.701-1.245c4.555-0.838,9.591-1.335,14.199-1.672
	c12.077-1.197,24.438-1.929,36.803-1.929h0.108c12.356,0,24.721,0.731,36.799,1.929c4.607,0.337,9.64,0.834,14.188,1.672
	c0.541,0.132,0.779,0.523,0.706,1.245C115.571,26.527,114.733,26.823,113.5,26.731 M24.173,8.988l-1.896,0.241
	c-1.163,0.14-2.229-0.675-2.368-1.848c-0.15-1.162,0.68-2.22,1.841-2.368l1.897-0.232c1.162-0.152,2.224,0.674,2.369,1.839
	C26.164,7.79,25.336,8.849,24.173,8.988 M27.059,16.947c0.146,1.17-0.681,2.229-1.846,2.37l-1.896,0.24
	c-1.162,0.141-2.225-0.674-2.37-1.849c-0.146-1.162,0.679-2.218,1.841-2.371l1.902-0.229C25.85,14.959,26.914,15.79,27.059,16.947
	 M31.576,10.109l2.746-3.249c0.475-0.572,1.332-0.641,1.897-0.163l3.25,2.745c0.569,0.478,0.643,1.333,0.158,1.908l-2.738,3.237
	c-0.477,0.569-1.328,0.644-1.897,0.165l-3.252-2.744C31.168,11.533,31.101,10.68,31.576,10.109 M48.597,7.194H46.68
	c-1.17,0-2.118-0.956-2.118-2.125c0-1.173,0.948-2.117,2.118-2.117h1.917c1.17,0,2.12,0.943,2.12,2.117
	C50.717,6.239,49.767,7.194,48.597,7.194 M50.946,15.247c0,1.173-0.952,2.125-2.119,2.125h-1.92c-1.167,0-2.122-0.952-2.122-2.125
	c0-1.168,0.955-2.119,2.122-2.119h1.92C49.994,13.129,50.946,14.079,50.946,15.247 M55.778,13.51V2.91
	c0-0.927,0.754-1.691,1.685-1.691h13.844c0.934,0,1.683,0.764,1.683,1.691V13.51c0,0.932-0.749,1.686-1.683,1.686H57.462
	C56.532,15.196,55.778,14.442,55.778,13.51 M78.923,13.129h1.913c1.17,0,2.117,0.95,2.117,2.119c0,1.173-0.947,2.125-2.117,2.125
	h-1.913c-1.173,0-2.13-0.952-2.13-2.125C76.793,14.079,77.75,13.129,78.923,13.129 M77.031,5.069c0-1.173,0.944-2.117,2.115-2.117
	h1.914c1.168,0,2.126,0.943,2.126,2.117c0,1.17-0.958,2.125-2.126,2.125h-1.914C77.975,7.194,77.031,6.239,77.031,5.069
	 M88.279,9.442l3.245-2.745c0.562-0.478,1.421-0.41,1.902,0.163l2.74,3.249c0.487,0.571,0.408,1.424-0.161,1.899l-3.251,2.744
	c-0.563,0.479-1.417,0.404-1.901-0.165l-2.742-3.237C87.634,10.774,87.709,9.919,88.279,9.442 M103.052,15.109l1.901,0.229
	c1.157,0.152,1.99,1.209,1.848,2.371c-0.154,1.174-1.208,1.99-2.367,1.849l-1.905-0.24c-1.161-0.141-1.989-1.2-1.84-2.37
	C100.829,15.79,101.89,14.959,103.052,15.109 M101.731,6.62c0.13-1.166,1.206-1.991,2.366-1.839l1.896,0.232
	c1.158,0.148,1.992,1.206,1.846,2.368c-0.147,1.172-1.208,1.987-2.369,1.848l-1.9-0.241C102.411,8.849,101.582,7.79,101.731,6.62
	 M113.713,15.993c0.089,0.175,0.187,0.286,0.35,0.48c0.187,0.31,0.852,0.799,0.221,1.182c-0.24,0.046-0.558,0-0.833-0.271
	c-1.951-1.874-2.294-4.866-1.437-7.393c0.486-1.141,1.598-3.082,3.012-3.007c0.955,0.019,0.396,1.327-0.127,1.84
	C113.357,10.648,112.425,13.67,113.713,15.993 M117.129,14.004c-0.246-0.018-0.116-0.632-0.149-1.029
	c-0.17-0.621-1.135-0.903-1.205-1.063c-0.373-0.212-0.319-1.342,0.12-1.659c0.25-0.207,0.677-0.242,0.956-0.066
	c0.686,0.342,1.32,1.164,1.27,2.135C117.938,13.103,117.702,14.022,117.129,14.004 M118.868,3.916c-0.4,0.082-1.331,0-1.908-0.129
	c-2.83-0.647-23.22-4.703-53.031-4.711H63.82C34.004-0.916,13.61,3.139,10.777,3.787c-0.574,0.129-1.502,0.211-1.9,0.129
	C8.515,3.749,8.081,3.139,8.344,2.604C8.502,2.168,8.942,1.909,9.338,1.77C20.025-0.561,42.363-3.87,63.82-3.891h0.108
	c21.447,0.021,43.792,3.33,54.47,5.661c0.404,0.139,0.845,0.398,0.998,0.833C119.657,3.139,119.225,3.749,118.868,3.916
	 M132.642-20.087c-1.743,1.931-2.997,3.865-4.051,6.039l-0.108,0.108c-1.554-0.825-1.981-0.596-2.879,0.884
	c-0.839,1.369-0.901,1.892,0.368,2.832l-0.093,0.298c-1.873,3.018-3.55,5.353-6.428,7.857c-2.256,1.916-6.466-0.073-6.841-3.191
	c-5.868,4.253-12.851,0.832-14.226-3.935C95.151-5.516,90.6-2.729,83.168-8.541c-4.964,2.629-13.378,4.86-19.247-2.965h-0.091
	c-5.878,7.825-14.3,5.594-19.257,2.965C37.14-2.729,32.592-5.516,29.357-9.194c-1.372,4.767-8.362,8.188-14.229,3.935
	c-0.373,3.118-4.58,5.107-6.839,3.191c-2.884-2.505-4.556-4.84-6.427-7.857l-0.089-0.298c1.268-0.94,1.207-1.463,0.363-2.832
	c-0.892-1.48-1.319-1.709-2.871-0.884l-0.118-0.108c-1.051-2.174-2.301-4.108-4.049-6.039c-0.662-0.734-1.94-1.282-1.041-2.028
	c0.535-0.49,1.205-0.801,1.949-1.102c1.282-0.542,2.785-1.012,3.946-0.044c1.535,2.021,0.188,5.066,0.932,5.67
	c0.231,0.231,0.567,0.319,0.901,0.098c1.283-1.153,2.566-4.195,4.535-3.337c1.77,1.213,3.174,4.501,3.545,7.283
	c0.149,1.476,0.52,3.264-0.683,4.274C8.384-8.589,6.989-9.442,6.274-8.635c-0.42,1.136,0.372,1.664,0.973,2.621
	c0.885,1.013,1.97,2.416,3.607,2.514c2.268-0.31,2.545-2.691,3.5-4.245c0.254-0.397,0.256-0.16,0.624,0.035
	c2.098,1.549,4.883,2.592,7.485,2.244c1.321-0.297,2.806-0.978,3.225-2.414c0.341-0.924,0.184-1.786-0.029-2.623
	c-1.428-2.628-2.712,1.561-4.646,0.278c-2.016-1.549-3.686-3.862-4.474-6.482c-0.295-0.948-0.668-2.334,0.227-3.197
	c1.076-0.927,2.304-0.074,3.536-0.141c0.958,0.067,0.624-0.786,0.584-1.041c-0.861-1.391-3.213-1.838-3.346-3.794
	c0.133-1.748,1.611-2.408,3.162-3.233c2.465-1.127,5.326-1.936,8.102-1.414c0.654,0.157,1.33,0.447,1.585,1.293
	c0.122,0.75-0.215,1.063-0.361,1.5c-0.362,0.953-1.323,1.979-0.372,3.08c0.372,0.546,0.852,0.509,1.466,0.152
	c0.883-0.905,1.944-2.051,3.152-1.84c1.614,0.181,2.507,2.535,2.885,4.319c0.572,2.641,0.818,5.631-0.723,7.806
	c-1.645,1.412-2.805-1.403-4.339-0.223c-0.453,0.465-0.027,1.831,0.309,2.576c0.901,1.59,1.868,2.814,3.688,3.153
	c2.689,0.402,4.301-0.217,6.531-2.515c0.875-0.992,0.646-0.579,1.71-1.837c0.945,0.931,2.345,2.174,3.649,2.739
	c3.025,1.477,7.424,1.664,9.709-0.359c1.504-1.286,2.341-3.661,1.822-4.259c-2.276-2.32-2.528,1.34-4.107,1.932
	c-2.043,0.71-2.974,0.205-3.954-0.806c-2.395-3.252-2.606-7.96-1.205-11.889c0.209-0.417,0.209-0.417,0.475-0.816
	c0.763-1.074,1.68-1.376,2.748-1.213c1.467,0.273,2.455,1.445,3.089,2.68c0.275,0.504,0.954,0.49,1.503,0.3
	c0.556-0.184,1.058-0.835,0.751-1.392c-0.9-1.224-2.331-2.134-3.112-3.408c-0.527-0.883-0.764-2.231-0.279-3.243
	c0.328-0.88,1.144-1.614,1.973-2.229c1.784-1.124,4.105-1.716,6.424-1.716h0.108c2.325,0,4.643,0.592,6.425,1.716
	c0.825,0.615,1.642,1.349,1.964,2.229c0.479,1.012,0.252,2.36-0.279,3.243c-0.782,1.274-2.206,2.184-3.109,3.408
	c-0.3,0.556,0.202,1.208,0.75,1.392c0.553,0.189,1.229,0.204,1.505-0.3c0.635-1.235,1.613-2.407,3.087-2.68
	c1.069-0.163,1.987,0.139,2.761,1.213c0.26,0.398,0.26,0.398,0.457,0.816c1.406,3.929,1.189,8.637-1.203,11.889
	c-0.975,1.01-1.905,1.516-3.953,0.806c-1.568-0.592-1.824-4.252-4.093-1.932c-0.522,0.598,0.311,2.973,1.811,4.259
	c2.282,2.023,6.682,1.836,9.706,0.359c1.305-0.565,2.709-1.809,3.649-2.739c1.062,1.258,0.83,0.845,1.717,1.837
	c2.227,2.298,3.835,2.917,6.529,2.515c1.812-0.339,2.785-1.563,3.687-3.153c0.33-0.745,0.76-2.111,0.309-2.576
	c-1.53-1.18-2.692,1.635-4.337,0.223c-1.547-2.174-1.291-5.165-0.731-7.806c0.384-1.784,1.283-4.138,2.885-4.319
	c1.216-0.211,2.276,0.935,3.159,1.84c0.611,0.357,1.096,0.395,1.464-0.152c0.949-1.101-0.007-2.127-0.368-3.08
	c-0.154-0.437-0.484-0.75-0.366-1.5c0.267-0.847,0.935-1.136,1.589-1.293c2.765-0.522,5.63,0.287,8.098,1.414
	c1.556,0.825,3.029,1.485,3.164,3.233c-0.135,1.956-2.481,2.403-3.349,3.794c-0.036,0.254-0.37,1.108,0.587,1.041
	c1.23,0.067,2.461-0.786,3.53,0.141c0.905,0.862,0.529,2.249,0.228,3.197c-0.783,2.62-2.458,4.933-4.472,6.482
	c-1.932,1.283-3.22-2.906-4.646-0.278c-0.22,0.836-0.376,1.699-0.029,2.623c0.417,1.436,1.906,2.117,3.226,2.414
	c2.6,0.349,5.391-0.695,7.483-2.244c0.375-0.195,0.375-0.433,0.625-0.035c0.958,1.554,1.232,3.935,3.498,4.245
	c1.638-0.098,2.729-1.501,3.607-2.514c0.608-0.958,1.392-1.485,0.975-2.621c-0.713-0.807-2.104,0.046-2.908-0.638
	c-1.204-1.01-0.835-2.798-0.688-4.274c0.376-2.782,1.779-6.07,3.55-7.283c1.969-0.858,3.252,2.184,4.532,3.337
	c0.338,0.222,0.672,0.134,0.905-0.098c0.742-0.604-0.608-3.649,0.931-5.67c1.155-0.968,2.66-0.498,3.948,0.044
	c0.738,0.301,1.411,0.612,1.946,1.102C134.592-21.369,133.303-20.821,132.642-20.087 M133.482-49.797
	c-0.988,0.291-1.934-0.359-2.564-0.918c-0.878-0.23-1.305,0.475-2.063,0.398c-1.375-0.24-1.561-1.875-2.364-2.85
	c-1.373-1.833-2.841,0.73-4.306-0.123c-0.348-0.373-0.483-1.021-0.348-1.506c0.126-0.78,0.389-1.681,1.489-1.957
	c1.275-0.257,2.698-0.291,3.811,0.454c1.606,0.949,1.455,3.364,3.664,3.269c1.819-0.595-0.389-2.625,0.607-3.074
	c0.755-0.364,2.603,1.588,3.092,2.937c0.216,0.445,0.242,0.694,0.223,1.086C134.649-50.656,134.313-50.104,133.482-49.797
	 M135.098-31.885c-0.281,0.13-0.753,0.28-0.837-0.186c-0.225-1.868,1.044-3.668,1.949-5.203c-0.251-0.223-0.743-0.167-1.018-0.559
	c-0.813-1.214-0.024-2.749,0.334-3.963c-0.222-0.402-0.334-0.827-0.376-1.313c-0.163-1.391,0.497-2.841,1.677-3.638
	c1.054-1.535,0.967-3.505,0.249-5.112c-0.246-0.677,0.496-0.64,0.992-0.277c1.882,1.317,1.636,6.037,0.073,8.231
	c-0.292,0.448-0.073,0.827,0.02,1.177c0.409,0.896,0.409,0.752,0.893,1.831c0.745,1.488-0.213,2.546-0.704,3.938
	C137.542-35.044,136.828-33.225,135.098-31.885 M143.629-35.193c-1.005,2.916-2.586,5.593-4.371,8.211
	c-0.366,0.614-1.159,1.449-2.119,1.09c-0.934-0.46-0.788-1.1-0.62-1.583c4.966-6.688,8.423-15.799,5.815-24.35
	c-0.92-3.388-4.393-5.58-7.463-6.954c-3.766-1.484-7.876-1.999-11.891-1.217c-1.494,0.413-2.528,0.483-2.83-0.168
	c-0.214-0.426-0.265-0.48-0.289-0.948c0.092-1.096,1.339-1.131,1.946-1.38c6.373-1.488,12.825,0.088,17.803,3.424
	c1.804,1.321,3.561,3.019,4.436,5.24C146.785-48.058,145.812-40.972,143.629-35.193"/>
<path fill="#B39859" d="M66.976,2.884c1.624,0,2.225,0.669,1.71,1.199C67.481,4.844,65.3,6.449,65.3,6.449h-1.072
	c-2.377,0-3.2,0-3.2,0.919c-0.04,0.699,0,0.146,0,1.182c-0.953,0.669-3.486,2.659-3.486,2.659V4.442c0,0,0.443-1.558,1.856-1.558
	H66.976z"/>
<polygon fill="#B39859" points="69.053,11.207 63.041,11.207 69.053,7.039 "/>
<path fill="#B39859" d="M63.979-17.385c-2.772-0.082-3.142-0.625-3.142-2.99c0-2.433,0.369-2.92,3.142-2.994h0.135
	c2.774,0.096,3.133,0.622,3.133,2.994c0,2.443-0.358,2.918-3.143,2.996L63.979-17.385z"/>
<path fill="#B39859" d="M100.622-16.066c-1.985-0.66-2.142-1.118-1.631-2.83c0.509-1.769,0.878-2.04,2.901-1.505l0.1,0.022
	c1.994,0.662,2.143,1.126,1.632,2.847c-0.525,1.761-0.878,2.034-2.905,1.494L100.622-16.066z"/>
<path fill="#B39859" d="M27.829-16.066c1.994-0.66,2.15-1.118,1.637-2.83c-0.509-1.769-0.879-2.04-2.901-1.505l-0.104,0.022
	c-1.993,0.662-2.138,1.126-1.631,2.847c0.521,1.761,0.888,2.034,2.911,1.494L27.829-16.066z"/>
</svg>
