<?xml version="1.0" encoding="utf-8"?>
<!-- Generator: Adobe Illustrator 15.0.2, SVG Export Plug-In . SVG Version: 6.00 Build 0)  -->
<!DOCTYPE svg PUBLIC "-//W3C//DTD SVG 1.1//EN" "http://www.w3.org/Graphics/SVG/1.1/DTD/svg11.dtd">
<svg version="1.1" xmlns="http://www.w3.org/2000/svg" xmlns:xlink="http://www.w3.org/1999/xlink" x="0px" y="0px"
	 width="336.895px" height="256px" viewBox="0 0 336.895 256" enable-background="new 0 0 336.895 256" xml:space="preserve">
<g id="Layer_2" display="none">
	<g id="_x38_oFRPS_1_" display="inline">
		
			<image overflow="visible" width="756" height="311" id="_x38_oFRPS" xlink:href="417433DC.jpg"  transform="matrix(1 0 0 1 -235.7441 83.5332)">
		</image>
	</g>
</g>
<g id="Layer_1">
	<g>
		<rect x="63.385" y="156.264" fill="#1A171B" width="7.759" height="53.367"/>
		<path fill="#1A171B" d="M155.696,209.631c-7.28,0-12.481-3.599-12.481-11.357v-30.168c0-7.282,4.4-11.842,11.764-11.842h24.146
			v7.763h-21.429c-4.159,0-6.72,1.6-6.72,5.999v9.121h28.149v7.684h-28.149v8.96c0,4.48,2.561,6.081,6.802,6.081h21.347v7.76
			H155.696z"/>
		<path fill="#1A171B" d="M256.031,164.026c-1.842,0-3.361,0-4.801,1.28c-1.442,1.278-1.761,2.717-1.761,4.562v25.201
			c0,5.118,1.922,6.805,6.962,6.805h25.059v7.756h-27.939c-7.603,0-11.842-4.481-11.842-12.004v-29.521
			c0-3.602,0.402-6.8,3.281-9.358c2.64-2.323,5.84-2.483,9.199-2.483h27.383v7.763H256.031z"/>
		<path fill="#1A171B" d="M324.093,209.631H302.22c-3.282,0-6.642-0.4-9.202-2.642c-2.641-2.235-3.682-5.998-3.682-9.357v-29.205
			c0-3.521,1.121-7.04,3.764-9.441c2.557-2.321,5.758-2.722,9.12-2.722h21.953c8.243,0,12.722,3.68,12.722,12.163v29.123
			C336.895,205.954,332.255,209.631,324.093,209.631 M329.215,170.667c0-4.881-2.082-6.641-6.88-6.641h-18.277
			c-4.801,0-6.962,1.682-6.962,6.641v24.724c0,1.839,0.402,3.68,1.762,5.042c1.441,1.442,3.28,1.442,5.2,1.442h18.277
			c4.558,0,6.88-1.442,6.88-6.245V170.667z"/>
		<path fill="#1A171B" d="M81.016,168.747c0-7.281,3.601-12.483,11.361-12.483h30.166c7.281,0,11.843,4.4,11.843,11.76v41.599
			h-7.763v-38.875c0-4.162-1.6-6.721-6.001-6.721H111.5v45.596h-7.681v-45.596h-8.961c-4.482,0-6.082,2.559-6.082,6.798v38.798
			h-7.761V168.747z"/>
		<path fill="#1A171B" d="M215.643,186.516h5.373c3.311,0,6.463-0.155,9.066-2.439c2.838-2.525,3.227-5.675,3.227-9.223v-6.912
			c0-3.547-0.865-6.618-3.701-9.141c-1.855-1.632-4.607-2.611-7.913-2.537h-21.673c-7.249,0-11.582,4.492-11.582,11.667
			l-0.017,41.691h7.649l0.012-38.659c0-5.396,2.377-6.983,7.221-6.983l15.825,0.015c1.193,0,3.349,0.111,4.765,1.371
			c1.42,1.267,1.771,2.923,1.771,4.309l0.002,3.445c0,1.812-0.316,3.229-1.734,4.492c-1.42,1.261-2.918,1.261-4.729,1.261
			c0,0-8.645,0.004-11.289,0.004c-0.923,0-1.379,0.658-1.379,1.356c0,0.217-0.005,7.228-0.005,7.734
			c0,0.717,0.033,1.054,0.738,1.889c0.395,0.462,16.21,19.767,16.21,19.767h11.152L215.643,186.516z"/>
		<path fill="#1A171B" d="M42.265,156.261H31.879c-1.589,0-3.101,0.188-4.315,1.29c-1.246,1.132-1.777,2.799-1.777,4.463v13.812
			c0,1.594,0.493,3.371,1.742,4.429c1.209,1.062,2.8,1.247,4.35,1.247h10.349c3.86,0,6.055-1.739,6.055-5.714v-13.773
			C48.282,158.003,46.164,156.261,42.265,156.261 M29.458,163.071c0-2.344,1.024-3.138,3.292-3.138h2.472v7.1h-5.764V163.071z
			 M30.29,177.151c-0.643-0.646-0.832-1.514-0.832-2.384v-4.062h5.764v7.125H32.75C31.845,177.831,30.972,177.831,30.29,177.151
			 M44.648,174.882c0,2.27-1.095,2.949-3.254,2.949h-2.498v-7.125h5.752V174.882z M44.648,167.033h-5.752v-7.1h2.498
			c2.271,0,3.254,0.831,3.254,3.138V167.033z"/>
		<path fill="#1A171B" d="M16.478,184.39H6.093c-1.588,0-3.104,0.189-4.314,1.287C0.531,186.812,0,188.476,0,190.143v13.812
			c0,1.589,0.493,3.37,1.742,4.429c1.208,1.057,2.8,1.247,4.351,1.247h10.348c3.858,0,6.054-1.74,6.054-5.716v-13.949
			C22.495,185.954,20.377,184.39,16.478,184.39 M3.672,191.201c0-2.343,1.021-3.142,3.292-3.142h8.643
			c2.271,0,3.254,0.833,3.254,3.142v0.383H3.672V191.201z M18.861,198.765H3.672v-3.516h15.189V198.765z M15.607,205.961H6.964
			c-0.91,0-1.779,0-2.46-0.681c-0.643-0.645-0.832-1.515-0.832-2.387v-0.464h15.189v0.579
			C18.861,205.28,17.766,205.961,15.607,205.961"/>
		<path fill="#1A171B" d="M16.478,156.261H6.093c-1.588,0-3.104,0.188-4.314,1.286C0.531,158.683,0,160.348,0,162.01v13.815
			c0,1.59,0.493,3.366,1.742,4.429c1.208,1.058,2.8,1.247,4.351,1.247h10.348c3.858,0,6.054-1.742,6.054-5.714v-13.952
			C22.495,157.824,20.377,156.261,16.478,156.261 M3.672,163.071c0-2.347,1.021-3.142,3.292-3.142h8.643
			c2.271,0,3.254,0.835,3.254,3.142v0.378H3.672V163.071z M15.607,177.831H6.964c-0.91,0-1.779,0-2.46-0.68
			c-0.643-0.646-0.832-1.514-0.832-2.387v-7.649h15.189v7.763C18.861,177.151,17.766,177.831,15.607,177.831"/>
		<path fill="#1A171B" d="M46.43,184.39c-1.603,0-1.781,0.776-1.781,1.792v12.814c0,2.013-0.935,2.857-2.629,3.007
			c0,0,0-15.735,0-15.774c0-1.016-0.151-1.839-1.824-1.839c-1.633,0-1.804,0.795-1.836,1.785v15.828h-2.615
			c0,0,0.001-15.614,0.001-15.768c0-1.016-0.213-1.846-1.828-1.846c-1.604,0-1.832,0.83-1.832,1.846v15.76
			c-0.682-0.025-1.259-0.146-1.784-0.673c-0.644-0.646-0.833-1.514-0.833-2.388c0,0-0.003-12.65-0.003-12.706
			c0-1.016-0.214-1.839-1.832-1.839c-1.603,0-1.847,0.823-1.847,1.839v13.765c0,1.593,0.513,3.377,1.758,4.432
			c1.206,1.062,2.792,1.254,4.337,1.254h2.868v3.952h4.568v-3.952h2.879c3.845,0,6.079-1.749,6.083-5.718
			c0,0,0.002-13.633,0.002-13.729C48.282,185.217,48.046,184.39,46.43,184.39"/>
	</g>
</g>
</svg>
