<?xml version="1.0" encoding="utf-8"?>
<!-- Generator: Adobe Illustrator 15.0.2, SVG Export Plug-In . SVG Version: 6.00 Build 0)  -->
<!DOCTYPE svg PUBLIC "-//W3C//DTD SVG 1.1//EN" "http://www.w3.org/Graphics/SVG/1.1/DTD/svg11.dtd">
<svg version="1.1" xmlns="http://www.w3.org/2000/svg" xmlns:xlink="http://www.w3.org/1999/xlink" x="0px" y="0px"
	 width="383.729px" height="256px" viewBox="0 0 383.729 256" enable-background="new 0 0 383.729 256" xml:space="preserve">
<g id="Layer_2" display="none">
	<g id="_x38_oFRPS_1_" display="inline">
		
			<image overflow="visible" width="756" height="311" id="_x38_oFRPS" xlink:href="FE5A1EC3.jpg"  transform="matrix(1 0 0 1 -212.3271 83.5332)">
		</image>
	</g>
</g>
<g id="Layer_1">
	<g>
		<path d="M134.254,196H93.758v-3.316h40.496V196z M148.919,171.851h-0.017c0-0.047,0-0.094,0-0.149
			c0-4.715-3.825-8.535-8.533-8.535c-0.059,0-0.115,0.006-0.18,0.012v-0.084H78.944v13.373h55.53v3.377H87.466v0.044h-0.014
			c-4.638,0-8.401,3.697-8.521,8.304h-0.093v12.529h0.086c0.085,4.642,3.866,8.378,8.528,8.378h52.917
			c4.708,0,8.533-3.825,8.533-8.538c0-0.059,0-0.111-0.004-0.164h0.021V171.851z"/>
		<path d="M328.31,176.175h40.507v3.312H328.31V176.175z M313.646,200.324h0.022c0,0.047-0.007,0.101-0.007,0.146
			c0,4.713,3.826,8.536,8.534,8.536c0.066,0,0.123-0.008,0.178-0.012v0.091h61.247v-13.381h-55.53v-3.37h47.01v-0.047h0.014
			c4.637,0,8.4-3.694,8.527-8.3h0.087v-12.533h-0.087c-0.085-4.643-3.866-8.38-8.527-8.38h-52.918c-4.708,0-8.534,3.827-8.534,8.544
			c0,0.049,0.007,0.105,0.007,0.155h-0.022V200.324z"/>
		<path d="M227.964,171.851c0-0.047,0.005-0.094,0.005-0.149c0-4.715-3.826-8.535-8.534-8.535c-0.065,0-0.122,0.006-0.18,0.012
			v-0.084h-46.674v-16.887h-14.899v62.864h14.899v-32.5l35.674-0.015c3.283,0.093,3.464,0.729,3.471,4.87v27.672h16.259v-37.248
			H227.964z"/>
		<path d="M306.095,171.851c0-0.047,0.008-0.094,0.008-0.149c0-4.715-3.82-8.535-8.537-8.535c-0.062,0-0.128,0.006-0.185,0.012
			v-0.084h-61.568v45.978h14.908v-32.5l35.651-0.015c3.293,0.093,3.464,0.729,3.473,4.87l0.005,27.672h16.266v-37.248H306.095z"/>
		<path d="M55.495,189.993c0,3.193-2.586,5.775-5.778,5.775H20.684c-3.185,0-5.771-2.582-5.771-5.775v-7.015
			c0-3.188,2.586-5.778,5.771-5.778h0.009h29.024c3.192,0,5.778,2.591,5.778,5.778V189.993z M70.082,171.851h-0.024
			c0-0.047,0.009-0.094,0.009-0.149c0-4.715-3.826-8.535-8.534-8.535c-0.065,0-0.123,0.006-0.18,0.012v-0.084H14.897v-16.887H0
			v54.514h0.078c0.092,4.642,3.868,8.378,8.534,8.378c0.365,0,0.714-0.027,1.062-0.074h50.786c0.342,0.047,0.698,0.074,1.071,0.074
			c4.708,0,8.534-3.825,8.534-8.538c0-0.059-0.009-0.111-0.014-0.164h0.029V171.851z"/>
	</g>
</g>
</svg>
