<?xml version="1.0" encoding="utf-8"?>
<!-- Generator: Adobe Illustrator 15.0.2, SVG Export Plug-In . SVG Version: 6.00 Build 0)  -->
<!DOCTYPE svg PUBLIC "-//W3C//DTD SVG 1.1//EN" "http://www.w3.org/Graphics/SVG/1.1/DTD/svg11.dtd">
<svg version="1.1" xmlns="http://www.w3.org/2000/svg" xmlns:xlink="http://www.w3.org/1999/xlink" x="0px" y="0px"
	 width="312.248px" height="256px" viewBox="0 0 312.248 256" enable-background="new 0 0 312.248 256" xml:space="preserve">
<g id="Layer_2" display="none">
	<g id="_x38_oFRPS_1_" display="inline">
		
			<image overflow="visible" width="756" height="311" id="_x38_oFRPS" xlink:href="A1C7ADC.jpg"  transform="matrix(1 0 0 1 -248.0674 83.5332)">
		</image>
	</g>
</g>
<g id="Layer_1">
	<g>
		<path d="M109.526,140.392c6.538,0,9.17,2.806,9.17,2.806l10.026-14.314c0,0-6.562-5.593-18.759-5.593
			c-12.195,0-25.097,8.942-30.523,24.726c-5.43,15.785-15.344,47.264-15.344,47.264s-7.6,22.941-27.299,22.941
			c-17.118,0-26.504-9.591-26.504-9.591L0,221.23c0,0,12.413,13.885,34.454,13.885s36.717-6.799,46.877-39.637
			c10.157-32.839,14.767-43.031,14.767-43.031S100.407,140.392,109.526,140.392z"/>
		<path d="M298.931,169.307l-0.675,2.287c0,0-5.438-4.896-12.3-4.896c-12.959,0-15.04,9.448-15.04,9.448l-4.967,18.161
			c0,0-3.274,3.604-6.552,3.604s-2.332-3.604-2.332-3.604s4.082-14.299,4.573-16.84c1.065-5.531-4.377-8.741-8.701-8.741
			c-7.664,0-14.612,3.56-14.612,3.56l-1.397-2.307h-14.227l-6.672,24.328c0,0-2.194,3.604-5.84,3.604
			c-3.645,0-2.56-3.604-2.56-3.604l6.442-24.561h-15.169l-6.973,24.561c0,0-1.783,3.604-5.426,3.604
			c-3.645,0-2.648-3.604-2.648-3.604l13.194-49.091h-15.362l-13.758,49.091c0,0-2.361,3.375-6.094,3.375
			c-3.731,0-3.047-3.375-3.047-3.375l12.842-49.091h-15.124l-13.729,49.237c0,0-1.965,3.553-5.412,3.553s-2.578-2.864-2.578-2.864
			l7.154-25.625h-16.956l-0.347,1.159c0,0-0.838-3.842-10.677-3.842c-9.838,0-12.011,6.701-12.011,6.701s-3.715,11.455-5.857,18.249
			c-1.41,4.466-8.881,5.09-8.881,5.09v8.657c7.189,0,7.931-4.155,7.931-4.155c7.996,13.099,21.92,2.31,21.92,2.31
			c13.199,9.375,24.255-0.926,24.255-0.926c11.988,11.873,26.115,0.926,26.115,0.926c11.367,11.253,24.02-0.926,24.02-0.926
			c7.502,9.91,19.588,2.081,19.588,2.081c6.063,3.91,17.023,0.69,17.023,0.69l6.217-23.188c0,0,0.576-5.524,6.287-5.524
			c5.714,0,4.072,5.524,4.072,5.524s-2.309,8.496-4.41,15.567c-2.098,7.068,3.478,11.189,11.525,11.189
			c8.052,0,13.619-6.34,13.619-6.34c8.509,11.662,21.689,3.695,21.689,3.695c-3.81,13.7-16.497,7.698-16.497,7.698l-3.794,12.386
			c0,0,2.955,3.961,14.861,3.961c13.168,0,16.314-9.06,16.314-9.06l14.298-52.135H298.931z M121.856,180.552l-3.922,13.756
			c0,0-1.193,3.604-4.283,3.604c-3.087,0-2.095-3.604-2.095-3.604l4.003-13.756c0,0,0.981-3.821,2.951-3.821
			C122.84,176.73,121.856,180.552,121.856,180.552z M292.339,180.326l-3.785,13.981c0,0-1.061,3.604-5.517,3.604
			c-3.351,0-2.14-3.604-2.14-3.604l3.729-13.966c0,0,1.143-3.729,4.023-3.715C293.505,176.654,292.339,180.326,292.339,180.326z"/>
	</g>
</g>
</svg>
