<?xml version="1.0" encoding="utf-8"?>
<!-- Generator: Adobe Illustrator 15.0.2, SVG Export Plug-In . SVG Version: 6.00 Build 0)  -->
<!DOCTYPE svg PUBLIC "-//W3C//DTD SVG 1.1//EN" "http://www.w3.org/Graphics/SVG/1.1/DTD/svg11.dtd">
<svg version="1.1" xmlns="http://www.w3.org/2000/svg" xmlns:xlink="http://www.w3.org/1999/xlink" x="0px" y="0px"
	 width="241.145px" height="256px" viewBox="0 0 241.145 256" enable-background="new 0 0 241.145 256" xml:space="preserve">
<g id="Layer_2" display="none">
	<g id="_x38_oFRPS_1_" display="inline">
		
			<image overflow="visible" width="756" height="311" id="_x38_oFRPS" xlink:href="3F2C8FFE.jpg"  transform="matrix(1 0 0 1 -283.6191 83.5332)">
		</image>
	</g>
</g>
<g id="Layer_1">
	<g>
		<path d="M50.717,207.404c0,0.424-0.423,0.635-1.269,0.635h-0.445c-0.931,0-2.571,0-4.919,0c-2.348,0-4.094,0-5.236,0
			c-0.466,0-1.439,0-2.92,0c-1.439,0-3.386,0-5.84,0h-1.587c-0.593,0-0.889-0.181-0.889-0.54s0.296-0.539,0.889-0.539h2.158
			c1.946,0.042,3.131-0.296,3.555-1.019c0.127-0.211,0.19-1.481,0.19-3.814v-34.459c-1.371,3.513-3.169,9.099-5.396,16.758
			l-5.522,19.423c-0.677,2.371-1.228,3.556-1.65,3.556c-0.466,0-0.888-0.593-1.27-1.777c-0.127-0.381-1.482-4.443-4.062-12.188
			c-0.974-2.92-3.618-11.108-7.935-24.565v32.925c0,1.91,0.021,3.045,0.063,3.406c0.042,0.361,0.232,0.67,0.571,0.924
			c0.635,0.551,1.714,0.806,3.237,0.764s2.286,0.191,2.286,0.701c0,0.296-0.317,0.445-0.953,0.445l-5.649-0.254
			c-0.974-0.042-2.095-0.014-3.364,0.084c-1.693,0.113-2.836,0.17-3.428,0.17c-0.889,0-1.333-0.19-1.333-0.573
			c0-0.339,0.36-0.509,1.079-0.509c1.692,0,2.708-0.021,3.047-0.062c1.311-0.169,2.072-0.656,2.285-1.463
			c0.127-0.507,0.19-1.566,0.19-3.177v-30.322c0-3.39-0.201-5.372-0.603-5.943c-0.403-0.572-1.916-0.859-4.539-0.859
			c-0.678,0-1.016-0.189-1.016-0.571c0-0.424,0.358-0.614,1.075-0.573h1.708h11.956c0.127,0,0.359,0.028,0.696,0.081
			c3.613,11.699,6.672,21.414,9.18,29.143l8.573-29.226l1.334,0.002h8.384c0.127,0,0.486,0,1.079,0c0.635,0,1.207,0,1.715,0h2.922
			c0.847,0,1.271,0.182,1.271,0.54c0,0.402-0.254,0.583-0.762,0.539h-1.46c-1.777-0.083-2.973,0.086-3.586,0.509
			c-0.614,0.424-0.92,1.249-0.92,2.475c0,0.34,0,1.079,0,2.223c0,1.143,0,6.454,0,15.933v17.71c0,1.523,0.398,2.401,1.195,2.634
			c0.798,0.232,1.982,0.328,3.555,0.285C49.931,206.791,50.717,206.981,50.717,207.404z"/>
		<path d="M71.284,207.372c0,0.36-0.276,0.539-0.826,0.539c-0.297,0-0.571-0.021-0.825-0.062c-2.539-0.128-4.719-0.19-6.538-0.19
			c-1.904,0-4.697,0.062-8.379,0.19c-1.228,0.041-2.137,0.062-2.729,0.062c-0.635,0-0.952-0.19-0.952-0.57
			c0-0.211,0.116-0.339,0.349-0.381c0.232-0.041,1.047-0.085,2.444-0.128c1.311-0.253,2.073-0.644,2.285-1.174
			c0.211-0.528,0.317-2.231,0.317-5.109v-30.533c0-0.802,0-1.586,0-2.348c-0.042-0.762-0.063-1.121-0.063-1.08
			c0-1.057-1.058-1.586-3.174-1.586c-1.185,0-1.777-0.148-1.777-0.444c0-0.295,0.084-0.465,0.254-0.508
			c0.168-0.042,0.718-0.064,1.65-0.064c-0.423,0,0.338,0,2.285,0c1.946,0,3.618,0,5.015,0h3.237c0.677,0,1.64,0,2.888,0
			c1.248,0,2.126,0,2.634,0h0.635c0.549,0,0.826,0.161,0.826,0.481c0,0.24-0.095,0.389-0.286,0.449
			c-0.19,0.061-0.836,0.109-1.936,0.148c-1.312,0.086-2.117,0.36-2.412,0.824l-0.19,1.204v35.811c0,1.817,0.2,2.895,0.603,3.232
			c0.402,0.337,1.767,0.57,4.094,0.696C71.093,206.878,71.284,207.058,71.284,207.372z"/>
		<path d="M101.816,195.344c0,3.852-1.365,7.036-4.094,9.553c-2.729,2.518-6.21,3.777-10.442,3.777
			c-2.582,0-6.136-0.867-10.664-2.603c-0.339-0.127-0.634-0.19-0.889-0.19c-0.72,0-1.27,0.761-1.65,2.284
			c-0.126,0.466-0.296,0.699-0.508,0.699c-0.339,0-0.508-0.297-0.508-0.889c0-0.55,0.105-1.524,0.317-2.92
			c0.168-1.143,0.254-2.477,0.254-4c0-1.226-0.022-2.199-0.064-2.919c-0.085-1.438-0.127-2.285-0.127-2.539
			c0-0.676,0.211-1.016,0.635-1.016c0.423,0,0.803,0.91,1.143,2.729c0.592,3.132,1.925,5.565,3.999,7.3
			c2.243,1.861,4.654,2.793,7.236,2.793c2.286,0,4.21-0.719,5.776-2.158c1.565-1.438,2.349-3.195,2.349-5.27
			c0-1.776-0.508-3.194-1.523-4.253c-0.762-0.761-3.216-2.263-7.363-4.507c-4.613-2.453-7.744-4.908-9.395-7.362
			c-1.523-2.242-2.285-4.909-2.285-7.998c0-3.639,1.29-6.654,3.872-9.046c2.581-2.39,5.84-3.586,9.776-3.586
			c2.115,0,4.379,0.508,6.792,1.523c0.804,0.339,1.375,0.507,1.714,0.507c0.635,0,1.057-0.548,1.27-1.649
			c0.084-0.381,0.274-0.571,0.571-0.571c0.422,0,0.635,0.275,0.635,0.825c0,0.213-0.042,0.804-0.127,1.777
			c-0.085,0.974-0.127,1.776-0.127,2.411c0,2.202,0.084,4.062,0.254,5.586c0.042,0.128,0.064,0.298,0.064,0.509
			c0,0.381-0.17,0.57-0.508,0.57c-0.381,0-0.762-0.676-1.143-2.03c-0.381-1.354-1.047-2.698-1.999-4.03
			c-0.953-1.334-1.916-2.296-2.888-2.889c-1.27-0.762-2.752-1.144-4.444-1.144c-2.371,0-4.253,0.572-5.649,1.714
			c-1.396,1.144-2.095,2.71-2.095,4.697c0,1.736,0.656,3.27,1.968,4.603c1.312,1.333,3.83,3.037,7.554,5.11
			c4.57,2.538,7.596,4.57,9.077,6.094C100.737,189.081,101.816,191.916,101.816,195.344z"/>
		<path d="M133.3,195.344c0,3.852-1.365,7.036-4.095,9.553c-2.729,2.518-6.211,3.777-10.442,3.777
			c-2.581,0-6.136-0.867-10.664-2.603c-0.339-0.127-0.634-0.19-0.888-0.19c-0.72,0-1.27,0.761-1.65,2.284
			c-0.127,0.466-0.297,0.699-0.508,0.699c-0.339,0-0.508-0.297-0.508-0.889c0-0.55,0.105-1.524,0.317-2.92
			c0.168-1.143,0.254-2.477,0.254-4c0-1.226-0.021-2.199-0.063-2.919c-0.085-1.438-0.127-2.285-0.127-2.539
			c0-0.676,0.211-1.016,0.635-1.016c0.422,0,0.803,0.91,1.142,2.729c0.593,3.132,1.925,5.565,4,7.3
			c2.243,1.861,4.654,2.793,7.236,2.793c2.286,0,4.211-0.719,5.776-2.158c1.565-1.438,2.349-3.195,2.349-5.27
			c0-1.776-0.508-3.194-1.522-4.253c-0.762-0.761-3.217-2.263-7.364-4.507c-4.613-2.453-7.744-4.908-9.395-7.362
			c-1.523-2.242-2.285-4.909-2.285-7.998c0-3.639,1.29-6.654,3.872-9.046c2.581-2.39,5.84-3.586,9.776-3.586
			c2.114,0,4.379,0.508,6.792,1.523c0.803,0.339,1.374,0.507,1.713,0.507c0.635,0,1.058-0.548,1.27-1.649
			c0.085-0.381,0.275-0.571,0.571-0.571c0.423,0,0.635,0.275,0.635,0.825c0,0.213-0.042,0.804-0.126,1.777
			c-0.086,0.974-0.127,1.776-0.127,2.411c0,2.202,0.083,4.062,0.253,5.586c0.042,0.128,0.064,0.298,0.064,0.509
			c0,0.381-0.17,0.57-0.509,0.57c-0.381,0-0.762-0.676-1.143-2.03c-0.38-1.354-1.047-2.698-1.999-4.03
			c-0.952-1.334-1.915-2.296-2.888-2.889c-1.27-0.762-2.752-1.144-4.444-1.144c-2.37,0-4.253,0.572-5.649,1.714
			c-1.396,1.144-2.094,2.71-2.094,4.697c0,1.736,0.655,3.27,1.968,4.603c1.312,1.333,3.83,3.037,7.554,5.11
			c4.569,2.538,7.595,4.57,9.076,6.094C132.221,189.081,133.3,191.916,133.3,195.344z"/>
		<path d="M155.579,207.372c0,0.36-0.276,0.539-0.824,0.539c-0.297,0-0.572-0.021-0.827-0.062c-2.538-0.128-4.718-0.19-6.537-0.19
			c-1.904,0-4.697,0.062-8.379,0.19c-1.229,0.041-2.138,0.062-2.729,0.062c-0.635,0-0.952-0.19-0.952-0.57
			c0-0.211,0.116-0.339,0.349-0.381c0.232-0.041,1.048-0.085,2.444-0.128c1.311-0.253,2.073-0.644,2.284-1.174
			c0.211-0.528,0.318-2.231,0.318-5.109v-30.533c0-0.802,0-1.586,0-2.348c-0.043-0.762-0.063-1.121-0.063-1.08
			c0-1.057-1.059-1.586-3.174-1.586c-1.186,0-1.777-0.148-1.777-0.444c0-0.295,0.084-0.465,0.254-0.508
			c0.168-0.042,0.719-0.064,1.65-0.064c-0.424,0,0.338,0,2.285,0c1.946,0,3.618,0,5.014,0h3.237c0.678,0,1.641,0,2.889,0
			s2.128,0,2.635,0h0.634c0.552,0,0.827,0.161,0.827,0.481c0,0.24-0.097,0.389-0.287,0.449s-0.836,0.109-1.936,0.148
			c-1.312,0.086-2.117,0.36-2.413,0.824l-0.189,1.204v35.811c0,1.817,0.201,2.895,0.603,3.232c0.402,0.337,1.766,0.57,4.094,0.696
			C155.388,206.878,155.579,207.058,155.579,207.372z"/>
		<path d="M198.553,164.62c0,0.213-0.156,0.34-0.466,0.382c-0.312,0.042-1.42,0.106-3.324,0.19c-1.12,0.042-1.762,0.275-1.927,0.698
			c-0.166,0.253-0.229,1.609-0.188,4.062v7.363c0,4.909,0,11.32,0,19.232v10.792c0,0.719-0.147,1.079-0.444,1.079
			c-0.466,0-3.544-3.501-9.234-10.506c-5.693-7.004-11.945-15.012-18.758-24.025v4.696c0,1.609,0,3.006,0,4.19s0,1.904,0,2.158
			v19.74c0,0.889,0.278,1.44,0.832,1.651c0.898,0.339,1.946,0.507,3.144,0.507c1.409,0,2.2,0.107,2.37,0.318
			c0.044,0.043,0.065,0.126,0.065,0.254c0,0.339-0.317,0.507-0.952,0.507c-0.381,0-0.698-0.021-0.952-0.062
			c-2.539-0.084-4.127-0.128-4.762-0.128c-1.48,0-3.428,0.044-5.839,0.128c-1.186,0.041-1.693,0.062-1.523,0.062
			c-0.635,0-0.952-0.168-0.952-0.507c0-0.297,0.93-0.508,2.793-0.635c2.158-0.169,3.406-0.508,3.745-1.014
			c0.211-0.339,0.317-1.859,0.317-4.563v-26.049c0-2.662-0.043-4.268-0.127-4.817c-0.254-1.859-0.995-3.212-2.222-4.058
			c-0.932-0.632-2.666-0.991-5.206-1.076c-0.676-0.045-1.015-0.246-1.015-0.603c0-0.402,0.297-0.604,0.889-0.604
			c0.254,0,1.164,0.043,2.729,0.128c0.762,0.042,1.903,0.062,3.428,0.062c3.131,0,5.67-0.062,7.617-0.19l22.28,28.692v-25.192
			c0-1.018-0.17-1.664-0.508-1.939c-0.34-0.276-1.059-0.436-2.158-0.479l-2.729-0.127c-0.509-0.042-0.763-0.19-0.763-0.445
			c0-0.34,0.382-0.51,1.144-0.51h1.396c0.253,0,0.676,0,1.27,0c0.55,0,1.036,0,1.46,0c4.273,0,6.771,0.022,7.49,0.064
			C198.192,164.093,198.553,164.283,198.553,164.62z"/>
		<path d="M241.145,194.232c0,0.403-0.796,0.582-2.384,0.54c-1.885-0.042-2.888,0.379-3.013,1.264
			c-0.084,0.505-0.126,2.17-0.126,4.991c0,0.97,0,1.833,0,2.591c-5.036,3.413-9.839,5.118-14.409,5.118
			c-6.01,0-11.035-2.115-15.076-6.347c-4.042-4.231-6.062-9.5-6.062-15.806c0-6.686,2.073-12.251,6.222-16.694
			c4.146-4.443,9.351-6.665,15.614-6.665c2.581,0,5.247,0.635,7.998,1.904c1.016,0.466,1.715,0.698,2.095,0.698
			c0.677,0,1.247-0.508,1.714-1.523c0.211-0.509,0.445-0.763,0.699-0.763c0.295,0,0.443,0.213,0.443,0.635
			c0,0.087-0.063,0.933-0.19,2.54c-0.042,0.507-0.062,1.714-0.062,3.618c0,1.439,0.083,3.64,0.253,6.602
			c0,0.804-0.212,1.205-0.635,1.205c-0.593,0-0.995-0.846-1.206-2.538c-0.508-3.724-1.735-6.666-3.682-8.824
			c-1.439-1.564-3.449-2.349-6.03-2.349c-7.997,0-11.997,7.11-11.997,21.329c0,8.845,1.317,15.002,3.951,18.472
			c1.657,2.2,3.866,3.301,6.629,3.301c3.483,0,5.227-2.2,5.227-6.602c0-3.302-0.141-5.152-0.418-5.555
			c-0.279-0.402-0.997-0.603-2.151-0.603h-1.605c-0.899,0-1.349-0.19-1.349-0.572c0-0.38,0.359-0.57,1.079-0.57
			c1.481,0,3.343,0.021,5.586,0.063h4.062c0.804,0,2.084,0,3.84,0c1.757,0,2.889,0,3.396,0h0.826
			C240.891,193.693,241.145,193.873,241.145,194.232z"/>
	</g>
	<g>
		<path d="M108.693,228.54c0,0.199-0.005,0.368-0.016,0.505c-0.042,0.463-0.058,0.836-0.047,1.12l0.016,1.12
			c-1.346-0.053-3.781-0.079-7.304-0.079h-0.663c-0.463,0-0.694-0.045-0.694-0.134c0-0.09,0.073-0.135,0.221-0.135
			c0.526-0.01,0.862-0.084,1.01-0.221c0.095-0.083,0.142-0.336,0.142-0.756v-8.537c0-0.357-0.032-0.578-0.096-0.662
			c-0.128-0.157-0.325-0.23-0.591-0.221h-0.399c-0.117,0-0.176-0.039-0.176-0.118s0.073-0.118,0.221-0.118c0.084,0,0.168,0,0.252,0
			h4.007c0.053,0,0.11,0,0.174,0c0.105,0,0.158,0.042,0.158,0.126c0,0.095-0.137,0.142-0.41,0.142c-0.39,0-0.618,0.048-0.687,0.143
			s-0.103,0.51-0.103,1.246v3.755c0,0.768,0.021,2.487,0.063,5.159c0.2,0.011,0.426,0.016,0.679,0.016
			c1.104,0,1.867-0.042,2.288-0.126c0.663-0.137,1.115-0.474,1.356-1.01c0.126-0.273,0.242-0.71,0.347-1.31
			c0.032-0.168,0.079-0.253,0.142-0.253C108.656,228.192,108.693,228.309,108.693,228.54z"/>
		<path d="M119.484,225.763c0,1.578-0.492,2.911-1.475,4s-2.19,1.633-3.621,1.633c-1.399,0-2.598-0.553-3.597-1.656
			c-0.999-1.104-1.499-2.436-1.499-3.992c0-1.599,0.497-2.935,1.491-4.007c0.994-1.073,2.227-1.609,3.7-1.609
			c1.42,0,2.608,0.539,3.565,1.617S119.484,224.165,119.484,225.763z M116.708,226.008c0-2.09-0.248-3.634-0.742-4.632
			c-0.326-0.651-0.841-0.977-1.546-0.977c-0.715,0-1.286,0.457-1.712,1.37c-0.426,0.914-0.639,2.138-0.639,3.671
			c0,2.227,0.378,3.891,1.136,4.993c0.315,0.463,0.773,0.693,1.373,0.693c0.694,0,1.183-0.331,1.467-0.992
			C116.486,229.105,116.708,227.729,116.708,226.008z"/>
		<path d="M130.701,227.822c0,0.1-0.197,0.145-0.593,0.134c-0.468-0.011-0.718,0.094-0.749,0.314
			c-0.021,0.125-0.031,0.539-0.031,1.24c0,0.241,0,0.456,0,0.644c-1.252,0.849-2.445,1.272-3.581,1.272
			c-1.493,0-2.743-0.525-3.747-1.577c-1.004-1.052-1.506-2.361-1.506-3.929c0-1.662,0.515-3.045,1.545-4.149
			c1.031-1.104,2.325-1.656,3.882-1.656c0.642,0,1.304,0.157,1.987,0.474c0.253,0.115,0.426,0.173,0.521,0.173
			c0.168,0,0.31-0.126,0.426-0.378c0.053-0.127,0.11-0.189,0.174-0.189c0.072,0,0.109,0.053,0.109,0.157
			c0,0.021-0.016,0.231-0.047,0.631c-0.011,0.127-0.016,0.427-0.016,0.899c0,0.358,0.021,0.905,0.062,1.641
			c0,0.2-0.053,0.3-0.157,0.3c-0.147,0-0.247-0.21-0.3-0.631c-0.127-0.925-0.432-1.656-0.915-2.192
			c-0.358-0.39-0.857-0.584-1.499-0.584c-1.988,0-2.981,1.767-2.981,5.301c0,2.198,0.327,3.729,0.981,4.591
			c0.412,0.547,0.961,0.82,1.648,0.82c0.865,0,1.299-0.547,1.299-1.641c0-0.82-0.035-1.28-0.104-1.38
			c-0.07-0.101-0.248-0.15-0.535-0.15h-0.398c-0.225,0-0.336-0.047-0.336-0.142s0.09-0.143,0.268-0.143
			c0.369,0,0.832,0.006,1.389,0.016h1.01c0.199,0,0.518,0,0.955,0c0.436,0,0.717,0,0.844,0h0.205
			C130.638,227.688,130.701,227.732,130.701,227.822z"/>
		<path d="M141.16,225.763c0,1.578-0.492,2.911-1.475,4c-0.984,1.089-2.191,1.633-3.621,1.633c-1.398,0-2.598-0.553-3.598-1.656
			c-0.998-1.104-1.498-2.436-1.498-3.992c0-1.599,0.497-2.935,1.49-4.007c0.994-1.073,2.228-1.609,3.7-1.609
			c1.42,0,2.608,0.539,3.565,1.617S141.16,224.165,141.16,225.763z M138.384,226.008c0-2.09-0.247-3.634-0.741-4.632
			c-0.326-0.651-0.842-0.977-1.547-0.977c-0.715,0-1.285,0.457-1.711,1.37c-0.426,0.914-0.639,2.138-0.639,3.671
			c0,2.227,0.378,3.891,1.135,4.993c0.316,0.463,0.773,0.693,1.373,0.693c0.694,0,1.184-0.331,1.467-0.992
			C138.162,229.105,138.384,227.729,138.384,226.008z"/>
	</g>
</g>
</svg>
