<?xml version="1.0" encoding="utf-8"?>
<!-- Generator: Adobe Illustrator 15.0.2, SVG Export Plug-In . SVG Version: 6.00 Build 0)  -->
<!DOCTYPE svg PUBLIC "-//W3C//DTD SVG 1.1//EN" "http://www.w3.org/Graphics/SVG/1.1/DTD/svg11.dtd">
<svg version="1.1" id="Layer_1" xmlns="http://www.w3.org/2000/svg" xmlns:xlink="http://www.w3.org/1999/xlink" x="0px" y="0px"
	 width="798.029px" height="256px" viewBox="0 0 798.029 256" enable-background="new 0 0 798.029 256" xml:space="preserve">
<path fill="#1D1D1B" d="M118.113,242.949v5.494h-2.641l0.003-13.005h4.495c3.51,0,5.062,1.344,5.062,3.628
	c0,2.188-1.437,3.332-4.046,3.562c0.376,0.345,0.811,0.842,1.305,1.364l4.09,4.449h-3.307L118.113,242.949z M118.118,241.296h1.597
	c1.826,0,2.875-0.81,2.875-2.154c0-1.312-1.054-1.961-2.969-1.961h-1.503V241.296z"/>
<path fill="#1D1D1B" d="M195.088,242.949v5.494h-2.641l0.002-13.005h4.496c3.51,0,5.062,1.344,5.062,3.628
	c0,2.188-1.438,3.332-4.047,3.562c0.378,0.345,0.812,0.842,1.307,1.364l4.088,4.449h-3.305L195.088,242.949z M195.094,241.296h1.595
	c1.829,0,2.876-0.81,2.876-2.154c0-1.312-1.054-1.961-2.967-1.961h-1.504V241.296L195.094,241.296z"/>
<path fill="#1D1D1B" d="M289.841,242.943v5.495H287.2l0.003-13.007h4.494c3.511,0,5.062,1.344,5.062,3.626
	c0,2.19-1.437,3.337-4.046,3.562c0.376,0.351,0.811,0.847,1.305,1.363l4.089,4.456h-3.306L289.841,242.943z M289.845,241.287h1.598
	c1.827,0,2.875-0.809,2.875-2.146c0-1.318-1.054-1.967-2.969-1.967h-1.504V241.287z"/>
<path fill="#1D1D1B" d="M692.063,242.943v5.495h-2.641l0.002-13.007h4.494c3.514,0,5.062,1.344,5.062,3.626
	c0,2.19-1.436,3.337-4.045,3.562c0.377,0.351,0.812,0.847,1.307,1.363l4.088,4.456h-3.307L692.063,242.943z M692.069,241.287h1.598
	c1.824,0,2.875-0.809,2.875-2.146c0-1.318-1.055-1.967-2.971-1.967h-1.502V241.287L692.069,241.287z"/>
<path fill="#1D1D1B" d="M180.109,248.621c-4.901,0-7.193-2.709-7.193-6.537c0-4.275,3.539-6.789,7.657-6.789
	c4.439,0,7.283,2.262,7.283,6.537C187.855,246.16,184.374,248.621,180.109,248.621 M180.369,237.234
	c-2.464,0-4.642,1.615-4.642,4.65c0,2.636,1.248,4.773,4.555,4.773c2.641,0,4.729-1.543,4.729-4.627
	C185.012,238.898,183.213,237.234,180.369,237.234"/>
<path fill="#1D1D1B" d="M234.487,248.621c-4.903,0-7.194-2.709-7.194-6.537c0-4.275,3.54-6.789,7.658-6.789
	c4.439,0,7.283,2.262,7.283,6.537C242.234,246.16,238.751,248.621,234.487,248.621 M234.747,237.234
	c-2.465,0-4.642,1.615-4.642,4.65c0,2.636,1.248,4.773,4.554,4.773c2.643,0,4.73-1.543,4.73-4.627
	C239.39,238.898,237.591,237.234,234.747,237.234"/>
<path fill="#1D1D1B" d="M570.618,248.607c-4.901,0-7.192-2.712-7.192-6.541c0-4.274,3.541-6.79,7.659-6.79
	c4.439,0,7.281,2.261,7.281,6.54C578.368,246.147,574.884,248.607,570.618,248.607 M570.882,237.217
	c-2.465,0-4.643,1.615-4.643,4.65c0,2.637,1.246,4.772,4.555,4.772c2.643,0,4.73-1.541,4.73-4.625
	C575.526,238.882,573.727,237.217,570.882,237.217"/>
<path fill="#1D1D1B" d="M603.48,248.436v-12.992h6.14c4.439,0,7.285,2.229,7.285,6.377c0,4.201-3.483,6.615-7.748,6.615H603.48z
	 M606.149,237.193v9.405h3.182c2.641,0,4.729-1.591,4.729-4.583c0-3.041-1.797-4.822-4.643-4.822H606.149z"/>
<path fill="#1D1D1B" d="M483.165,248.602c-4.903,0-7.194-2.711-7.194-6.539c0-4.275,3.541-6.792,7.662-6.792
	c4.438,0,7.278,2.265,7.278,6.541c0,2.384-1.054,4.198-2.711,5.349c0,0,0.836,0.201,2.049,0.332
	c2.082,0.229,3.336,0.013,3.336,0.013v1.993c0,0-1.441,0.212-2.418,0.125c-2.342-0.201-5.377-0.926-6.09-0.951
	C484.36,248.647,483.165,248.602,483.165,248.602 M483.427,237.212c-2.465,0-4.645,1.614-4.645,4.649c0,2.64,1.25,4.771,4.561,4.771
	c2.638,0,4.729-1.537,4.729-4.623C488.071,238.877,486.27,237.212,483.427,237.212"/>
<polygon fill="#1D1D1B" points="168.548,235.428 171.303,235.428 165.965,243.91 165.965,248.449 163.326,248.449 163.326,243.933 
	158.075,235.428 161.003,235.428 164.754,241.293 "/>
<polygon fill="#1D1D1B" points="407.497,235.423 410.253,235.423 404.915,243.904 404.915,248.443 402.276,248.443 402.276,243.928 
	397.024,235.423 399.954,235.423 403.706,241.287 "/>
<path fill="#1D1D1B" d="M87.766,244.031v4.412h-2.64l-0.001-13.005h4.613c3.656,0,5.537,1.544,5.537,4.056
	c0,2.783-2.288,4.549-6.118,4.549L87.766,244.031z M87.747,242.121h1.468c2.233,0,3.512-0.879,3.512-2.57
	c0-1.389-1.103-2.385-3.278-2.385h-1.701L87.747,242.121L87.747,242.121z"/>
<polygon fill="#1D1D1B" points="146.13,248.441 146.13,235.43 154.661,235.43 154.661,237.205 148.772,237.205 148.772,240.887 
	154.313,240.887 154.313,242.609 148.772,242.609 148.772,246.613 154.661,246.613 154.661,248.441 "/>
<polygon fill="#1D1D1B" points="274.139,248.428 274.139,235.421 282.668,235.421 282.668,237.195 276.78,237.195 276.78,240.875 
	282.323,240.875 282.323,242.6 276.78,242.6 276.78,246.604 282.668,246.604 282.668,248.428 "/>
<polygon fill="#1D1D1B" points="360.143,248.431 360.143,235.423 368.673,235.423 368.673,237.197 362.785,237.197 362.785,240.877 
	368.327,240.877 368.327,242.604 362.785,242.604 362.785,246.607 368.673,246.607 368.673,248.431 "/>
<polygon fill="#1D1D1B" points="620.915,248.431 620.915,235.423 629.444,235.423 629.444,237.197 623.554,237.197 623.554,240.877 
	629.097,240.877 629.097,242.604 623.554,242.604 623.554,246.607 629.444,246.607 629.444,248.431 "/>
<polygon fill="#1D1D1B" points="511.721,248.428 511.721,235.421 520.251,235.421 520.251,237.195 514.362,237.195 514.362,240.875 
	519.903,240.875 519.903,242.6 514.362,242.6 514.362,246.604 520.251,246.604 520.251,248.428 "/>
<polygon fill="#1D1D1B" points="524.812,248.428 524.812,235.421 533.344,235.421 533.344,237.195 527.452,237.195 527.452,240.875 
	532.995,240.875 532.995,242.6 527.452,242.6 527.452,246.604 533.344,246.604 533.344,248.428 "/>
<polygon fill="#1D1D1B" points="453.036,248.431 453.036,235.423 461.565,235.423 461.565,237.197 455.678,237.197 455.678,240.877 
	461.22,240.877 461.22,242.604 455.678,242.604 455.678,246.607 461.565,246.607 461.565,248.431 "/>
<polygon fill="#1D1D1B" points="582.495,248.431 582.495,235.423 591.026,235.423 591.026,237.197 585.136,237.197 585.136,240.877 
	590.678,240.877 590.678,242.604 585.136,242.604 585.136,248.428 "/>
<polygon fill="#1D1D1B" points="540.296,248.436 537.743,248.436 537.743,235.443 541.225,235.443 548.476,245.363 548.478,235.443 
	551.059,235.443 551.059,248.436 547.583,248.436 540.303,238.393 "/>
<polygon fill="#1D1D1B" points="636.47,248.436 633.913,248.436 633.913,235.443 637.396,235.443 644.647,245.363 644.649,235.443 
	647.229,235.443 647.229,248.436 643.753,248.436 636.474,238.393 "/>
<path fill="#1D1D1B" d="M344.55,248.436l-1.191-2.712h-6.702l-1.188,2.712h-2.67l5.903-13.017h2.935l5.844,13.017H344.55z
	 M340.042,237.912l-2.652,6.146h5.282L340.042,237.912z"/>
<path fill="#1D1D1B" d="M99.151,235.432h2.565v8.297c0,0,0.087,2.92,3.289,2.92c3.202,0,3.184-2.869,3.184-2.869v-8.336h2.564v8.553
	c0,0,0.267,4.634-5.818,4.634c-6.084,0-5.784-4.599-5.784-4.599V235.432z"/>
<path fill="#1D1D1B" d="M495.032,235.432h2.564v8.297c0,0,0.089,2.92,3.29,2.92c3.202,0,3.187-2.869,3.187-2.869v-8.341h2.562v8.558
	c0,0,0.269,4.634-5.817,4.634s-5.785-4.599-5.785-4.599V235.432L495.032,235.432z"/>
<polygon fill="#1D1D1B" points="127.707,235.44 130.613,235.44 135.208,245.451 139.844,235.43 142.598,235.43 136.597,248.457 
	133.643,248.457 "/>
<polygon fill="#1D1D1B" points="218.55,248.428 221.2,248.428 221.2,237.195 225.607,237.195 225.607,235.43 214.156,235.43 
	214.156,237.193 218.546,237.193 "/>
<polygon fill="#1D1D1B" points="388.957,248.428 391.607,248.428 391.607,237.195 396.015,237.195 396.015,235.43 384.562,235.43 
	384.562,237.193 388.954,237.193 "/>
<polygon fill="#1D1D1B" points="425.712,248.428 428.36,248.428 428.36,237.195 432.767,237.195 432.767,235.43 421.317,235.43 
	421.317,237.193 425.708,237.193 "/>
<polygon fill="#1D1D1B" points="266.162,248.431 266.162,242.604 259.001,242.604 259.001,248.431 256.362,248.431 256.362,235.423 
	259.001,235.423 259.001,240.798 266.162,240.798 266.162,235.423 268.801,235.423 268.801,248.431 "/>
<polygon fill="#1D1D1B" points="445.294,248.431 445.294,242.604 438.133,242.604 438.133,248.431 435.493,248.431 435.493,235.423 
	438.133,235.423 438.133,240.798 445.294,240.798 445.294,235.423 447.936,235.423 447.936,248.431 "/>
<polygon fill="#1D1D1B" points="310.894,248.443 313.327,248.443 315.268,238.072 319.29,248.441 321.785,248.441 325.795,238.086 
	327.725,248.443 330.195,248.443 327.938,235.428 324.467,235.428 320.533,245.592 316.597,235.419 313.124,235.419 "/>
<polygon fill="#1D1D1B" points="651.228,248.443 653.657,248.443 655.601,238.072 659.622,248.441 662.118,248.441 666.126,238.086 
	668.056,248.443 670.528,248.443 668.271,235.428 664.8,235.428 660.862,245.592 656.927,235.419 653.456,235.419 "/>
<path fill="#1D1D1B" d="M376.487,248.593c-1.114,0-2.429-0.149-3.274-0.321l0.004-2.154c0.907,0.34,2.276,0.582,3.593,0.582
	c1.607,0,3.214-0.562,3.214-2.043c0-2.531-7.162-1.303-7.162-5.408c0-2.34,2.223-3.862,6.083-3.862c0.904,0,2.126,0.073,3.004,0.221
	l-0.009,2.062c-0.818-0.223-2.207-0.485-3.144-0.485c-2.161,0-3.354,0.714-3.354,1.819c0,2.486,7.416,1.354,7.416,5.412
	C382.856,247.35,380.139,248.593,376.487,248.593"/>
<path fill="#1D1D1B" d="M683.663,248.436l-1.188-2.712h-6.703l-1.188,2.712h-2.672l5.9-13.017h2.938l5.842,13.017H683.663z
	 M679.157,237.912l-2.65,6.146h5.281L679.157,237.912z"/>
<polygon fill="#1D1D1B" points="710.405,235.437 705.907,241.268 705.907,235.423 703.263,235.423 703.263,248.416 705.903,248.416 
	705.903,242.973 710.858,248.447 714.155,248.447 708.337,242.156 713.708,235.43 "/>
<path fill="#1D1D1B" d="M352.438,235.43h2.668v9.074c0,0.301,0.124,2.564-1.229,3.492c-0.916,0.623-2.063,0.604-2.063,0.604h-2.107
	v-2.034h0.405c0,0,1.262,0.096,1.788-0.435c0.593-0.603,0.539-1.69,0.539-1.69L352.438,235.43z"/>
<path fill="#1D1D1B" d="M8.887,198.659v18.494H0l0.008-43.785h15.133c11.82,0,17.043,4.512,17.043,12.214
	c0,7.366-4.835,11.225-13.624,11.981c1.27,1.172,2.733,2.845,4.396,4.598l13.772,14.992H25.593L8.887,198.659z M8.903,193.082h5.377
	c6.155,0,9.686-2.724,9.686-7.24c0-4.438-3.551-6.615-9.998-6.615H8.904L8.903,193.082L8.903,193.082z"/>
<path fill="#1D1D1B" d="M66.916,217.822c-16.509,0-24.223-9.125-24.223-22.021c0-14.398,11.916-22.859,25.785-22.859
	c14.946,0,24.52,7.624,24.52,22.02C92.998,209.536,81.276,217.822,66.916,217.822 M67.793,179.479
	c-8.302,0-15.629,5.438-15.629,15.651c0,8.877,4.199,16.07,15.338,16.07c8.888,0,15.922-5.188,15.922-15.562
	C83.425,185.085,77.371,179.479,67.793,179.479"/>
<polygon fill="#1D1D1B" points="133.322,173.308 142.601,173.308 124.626,201.861 124.626,217.153 115.736,217.153 115.736,201.942 
	98.058,173.308 107.924,173.308 120.549,193.054 "/>
<path fill="#1D1D1B" d="M180.21,217.153l-4.008-9.129h-22.562l-4.005,9.129h-8.989l19.871-43.825h9.887l19.67,43.825H180.21z
	 M165.035,181.718l-8.928,20.699h17.785L165.035,181.718z"/>
<polygon fill="#1D1D1B" points="201.48,217.153 201.48,173.328 210.372,173.328 210.372,210.624 228.539,210.624 228.539,217.153 
	"/>
<path fill="#1D1D1B" d="M332.866,217.822c-16.512,0-24.226-9.125-24.226-22.021c0-14.398,11.912-22.859,25.786-22.859
	c14.946,0,24.521,7.624,24.521,22.02C358.947,209.536,347.224,217.822,332.866,217.822 M333.743,179.479
	c-8.302,0-15.628,5.438-15.628,15.651c0,8.877,4.2,16.07,15.335,16.07c8.888,0,15.922-5.188,15.922-15.562
	C349.372,185.085,343.318,179.479,333.743,179.479"/>
<path fill="#1D1D1B" d="M382.918,202.306v14.848h-8.889l-0.005-43.785h15.536c12.308,0,18.646,5.188,18.646,13.645
	c0,9.377-7.707,15.321-20.601,15.321L382.918,202.306z M382.856,195.87h4.942c7.515,0,11.821-2.964,11.821-8.651
	c0-4.692-3.711-8.042-11.035-8.042h-5.729V195.87z"/>
<polygon fill="#1D1D1B" points="421.974,217.153 421.974,173.349 450.694,173.349 450.694,179.328 430.864,179.328 430.864,191.716 
	449.524,191.716 449.524,197.526 430.864,197.526 430.864,211.003 450.694,211.003 450.694,217.153 "/>
<polygon fill="#1D1D1B" points="707.226,217.013 707.226,173.215 735.946,173.215 735.946,179.194 716.112,179.194 716.112,191.581 
	734.78,191.581 734.78,197.388 716.112,197.388 716.112,210.868 735.946,210.868 735.946,217.013 "/>
<polygon fill="#1D1D1B" points="504.44,173.425 513.136,173.425 513.136,217.153 501.438,217.153 476.917,183.344 476.901,183.598 
	476.901,217.153 468.296,217.153 468.296,173.425 480.021,173.425 504.435,206.823 "/>
<polygon fill="#1D1D1B" points="789.335,173.425 798.03,173.425 798.03,217.153 786.333,217.153 761.815,183.344 761.794,183.598 
	761.794,217.153 753.194,217.153 753.194,173.425 764.917,173.425 789.329,206.823 "/>
<polygon fill="#1D1D1B" points="566.2,217.153 566.2,197.535 542.097,197.535 542.097,217.153 533.206,217.153 533.206,173.383 
	542.097,173.383 542.097,191.449 566.2,191.449 566.2,173.383 575.083,173.383 575.083,217.153 "/>
<path fill="#1D1D1B" d="M671.089,217.822c-15.24,0-26.082-7.53-26.082-21.599c0-13.062,10.449-23.195,28.033-23.195
	c5.178,0,10.146,0.564,15.32,1.899v7.296c-4.682-1.806-10.633-2.916-15.42-2.916c-10.057,0-18.555,5.442-18.555,16.162
	c0,10.129,7.227,15.655,17.775,15.655c3.031,0,6.057-0.334,8.402-1.006v-14.25h8.887v19.104
	C683.79,216.82,677.827,217.822,671.089,217.822"/>
<path fill="#1D1D1B" d="M626.741,217.153l-4.004-9.129h-22.563l-4.005,9.129h-8.986l19.872-43.825h9.885l19.671,43.825H626.741z
	 M611.569,181.718l-8.927,20.699h17.784L611.569,181.718z"/>
<path fill="#1D1D1B" d="M284.604,217.693c-16.472-0.157-24.918-7.626-24.918-21.82c0-14.375,11.915-22.301,26.508-22.634
	c4.574-0.106,10.939,1.236,10.939,1.236v6.579c0,0-7.286-1.77-11.537-1.533c-9.462,0.525-16.182,5.451-16.182,15.685
	c0,10.404,6.003,15.84,15.905,15.84c5.094,0,12.38-2.028,12.38-2.028v6.838C297.7,215.854,292.04,217.763,284.604,217.693"/>
<path fill="#002F65" d="M306.428,101.769v7.253c0,0,12.896,7.249,30.144,7.249c17.246,0,31.774-7.757,31.774-7.757
	s11.611,7.585,33.222,7.585c17.07,0,28.867-7.753,28.867-7.753s13.26,7.924,33.232,7.924c16.338,0,28.502-7.249,28.502-7.249v-7.083
	c0,0-13.076,7.584-29.053,7.584c-19.609,0-32.316-8.597-32.316-8.597s-16.526,8.937-29.956,8.937
	c-17.066,0-32.498-8.936-32.498-8.936s-13.257,8.597-31.409,8.597C318.777,109.523,306.428,101.769,306.428,101.769"/>
<path fill="#002F65" d="M306.428,119.696v7.254c0,0,12.896,7.252,30.144,7.252c17.246,0,31.774-7.759,31.774-7.759
	s11.611,7.589,33.222,7.589c17.07,0,28.867-7.755,28.867-7.755s13.26,7.925,33.232,7.925c16.338,0,28.502-7.252,28.502-7.252v-7.083
	c0,0-13.076,7.586-29.053,7.586c-19.609,0-32.316-8.602-32.316-8.602s-16.526,8.944-29.956,8.944
	c-17.066,0-32.498-8.944-32.498-8.944s-13.257,8.602-31.409,8.602C318.777,127.454,306.428,119.696,306.428,119.696"/>
<path fill="#002F65" d="M306.428,137.624v7.257c0,0,12.896,7.248,30.144,7.248c17.246,0,31.774-7.755,31.774-7.755
	s11.611,7.585,33.222,7.585c17.07,0,28.867-7.757,28.867-7.757s13.26,7.927,33.232,7.927c16.338,0,28.502-7.248,28.502-7.248v-7.087
	c0,0-13.076,7.588-29.053,7.588c-19.609,0-32.316-8.599-32.316-8.599s-16.526,8.938-29.956,8.938
	c-17.066,0-32.498-8.938-32.498-8.938s-13.257,8.599-31.409,8.599C318.777,145.381,306.428,137.624,306.428,137.624"/>
<path fill="#B5975C" d="M448.489,43.342c0.471-0.476,0.767-1.127,0.767-1.847c0-0.916-0.472-1.714-1.175-2.18l-0.006-0.005
	c0.264-0.411,0.422-0.896,0.422-1.414c0-1.26-0.897-2.313-2.088-2.558l0.043-0.094c0.031-0.167,0.054-0.345,0.054-0.523
	c0-1.44-1.173-2.609-2.61-2.609c-0.203,0-0.408,0.025-0.597,0.067l-0.011-0.046c-0.342-1.044-1.323-1.8-2.484-1.8
	c-0.396,0-0.775,0.088-1.116,0.254l-0.022-0.038c-0.467-0.693-1.262-1.148-2.164-1.148c-0.537,0-1.045,0.164-1.45,0.445
	l-0.054-0.042c-0.414-0.281-0.918-0.444-1.457-0.444c-0.854,0-1.602,0.407-2.082,1.037c-0.452-0.388-1.041-0.626-1.693-0.626
	c-0.279,0-0.551,0.045-0.805,0.126c-0.199-1.242-1.274-2.188-2.572-2.188c-0.264,0-0.523,0.042-0.762,0.114l-0.024-0.02
	c0-1.439-1.17-2.608-2.612-2.608c-0.738,0-1.41,0.312-1.886,0.809l-0.019-0.043c-0.471-0.692-1.266-1.151-2.164-1.151
	c-0.967,0-1.811,0.529-2.258,1.313l-0.021,0.015c-0.433-0.329-0.97-0.519-1.56-0.519c-1.018,0-1.894,0.582-2.327,1.429l-0.117-0.006
	c-0.164-0.037-0.34-0.051-0.511-0.051c-0.928,0-1.738,0.48-2.202,1.206c-0.214-0.059-0.442-0.09-0.675-0.09
	c-0.906,0-1.702,0.466-2.17,1.165l-0.053-0.006c-0.414-0.27-0.906-0.429-1.434-0.429c-0.191,0-0.373,0.022-0.545,0.059l-0.012-0.1
	c0.088-0.26,0.168-0.525,0.229-0.801l0.005,0.013c0.476-0.329,0.788-0.881,0.788-1.5c0-0.567-0.261-1.069-0.667-1.403v0.011
	c-0.333-2.414-1.753-4.482-3.743-5.699l0.006,0.042c-0.197-0.815-0.654-1.296-1.42-1.524c0.004-0.391-0.011-1.502-0.011-1.502
	l1.747-0.021c0,1.005,0.816,1.819,1.82,1.819c0.906,0,1.662-0.667,1.798-1.534l0.03-0.005c0.83-0.17,1.455-0.904,1.455-1.783
	c0-0.905-0.662-1.656-1.526-1.795l0.03,0.005c-0.178-0.825-0.91-1.449-1.787-1.449c-0.952,0-1.735,0.736-1.812,1.671h-1.755v-1.92
	h0.035c0.823-0.174,1.437-0.904,1.437-1.778c0-0.891-0.632-1.631-1.471-1.789l-0.062-0.041c-0.166-0.827-0.891-1.446-1.765-1.457
	h-0.036c-0.871,0.01-1.599,0.63-1.762,1.457l-0.064,0.041c-0.843,0.158-1.478,0.898-1.478,1.789c0,0.874,0.616,1.604,1.443,1.778
	h0.036v1.92h-1.76c-0.079-0.935-0.862-1.671-1.812-1.671c-0.878,0-1.613,0.625-1.785,1.449l0.026-0.005
	c-0.864,0.14-1.526,0.89-1.526,1.795c0,0.879,0.622,1.613,1.455,1.783l0.03,0.005c0.137,0.867,0.892,1.534,1.8,1.534
	c1.003,0,1.818-0.814,1.818-1.819l1.754,0.021c0,0-0.016,1.111-0.012,1.502c-0.764,0.228-1.225,0.709-1.426,1.524l0.007-0.042
	c-1.994,1.217-3.406,3.285-3.739,5.699l-0.005-0.011c-0.403,0.333-0.666,0.836-0.666,1.403c0,0.619,0.314,1.17,0.789,1.5
	l0.004-0.013c0.062,0.276,0.139,0.542,0.229,0.801l-0.008,0.1c-0.176-0.037-0.358-0.059-0.546-0.059
	c-0.529,0-1.02,0.159-1.436,0.429l-0.052,0.006c-0.468-0.699-1.264-1.165-2.174-1.165c-0.232,0-0.456,0.031-0.673,0.09
	c-0.459-0.726-1.271-1.206-2.194-1.206c-0.181,0-0.353,0.014-0.521,0.051l-0.116,0.006c-0.43-0.847-1.311-1.429-2.326-1.429
	c-0.585,0-1.124,0.19-1.56,0.519l-0.016-0.015c-0.448-0.785-1.295-1.313-2.262-1.313c-0.902,0-1.695,0.459-2.161,1.151l-0.017,0.043
	c-0.478-0.496-1.148-0.809-1.891-0.809c-1.443,0-2.609,1.168-2.609,2.608l-0.025,0.02c-0.243-0.072-0.499-0.114-0.761-0.114
	c-1.302,0-2.374,0.947-2.576,2.188c-0.253-0.081-0.525-0.126-0.804-0.126c-0.649,0-1.239,0.238-1.693,0.626
	c-0.477-0.63-1.231-1.037-2.079-1.037c-0.543,0-1.042,0.163-1.46,0.444l-0.047,0.042c-0.416-0.282-0.921-0.445-1.458-0.445
	c-0.9,0-1.692,0.455-2.159,1.148l-0.026,0.038c-0.335-0.166-0.715-0.254-1.119-0.254c-1.156,0-2.139,0.756-2.479,1.8l-0.009,0.046
	c-0.193-0.042-0.393-0.067-0.6-0.067c-1.44,0-2.608,1.169-2.608,2.609c0,0.179,0.019,0.356,0.054,0.523l0.038,0.094
	c-1.186,0.244-2.08,1.297-2.08,2.558c0,0.518,0.152,1.003,0.421,1.414l-0.007,0.005c-0.708,0.465-1.177,1.264-1.177,2.18
	c0,0.719,0.294,1.371,0.765,1.847l-0.019,0.02c-0.323,0.371-0.518,0.852-0.518,1.382c0,0.833,0.482,1.552,1.182,1.895l0.012,0.011
	c-0.112,0.26-0.177,0.546-0.177,0.845c0,0.934,0.604,1.722,1.444,2.006l0.012-0.004c-0.111,0.259-0.178,0.546-0.178,0.849
	c0,0.898,0.564,1.666,1.357,1.972c-0.028,0.143-0.043,0.287-0.043,0.439c0,0.991,0.684,1.821,1.6,2.047l0.07,0.122
	c-0.141,0.269-0.219,0.562-0.219,0.879c0,1.043,0.847,1.89,1.889,1.89c0.425,0,0.814-0.143,1.132-0.376l0.016,0.042
	c1.271,0.752,2.065,2.09,2.753,3.359v0.128c-0.186,0.311-0.295,0.683-0.295,1.074c0,1.164,0.949,2.113,2.113,2.113
	c0.091,0,0.177-0.007,0.268-0.019c0,0,2.361,3.093,3.656,4.453h-0.01c-0.393,0.345-0.642,0.858-0.642,1.425
	c0,0.979,0.735,1.782,1.684,1.894l0.266,1.525c-0.387,0.627-0.615,1.364-0.63,2.156c-0.023,1.689,0.926,3.219,2.338,3.936
	l0.036,1.866c0,0-0.842,0.428-1.105,0.863c-0.18,0.289-0.286,0.636-0.293,1c-0.015,0.773,0.42,1.452,1.062,1.789
	c0,0,0.833,0.634,3.002,0.924c7.088,0.949,14.113,1.326,21.491,1.573c1.922,0.032,3.869,0.053,5.826,0.053h0.062
	c1.958,0,3.9-0.021,5.821-0.053c7.38-0.248,14.405-0.625,21.495-1.573c2.168-0.29,2.997-0.924,2.997-0.924
	c0.642-0.337,1.075-1.016,1.063-1.789c-0.004-0.364-0.11-0.712-0.289-1c-0.265-0.435-1.112-0.863-1.112-0.863l0.043-1.866
	c1.407-0.716,2.36-2.247,2.332-3.936c-0.013-0.792-0.24-1.529-0.626-2.156l0.263-1.525c0.947-0.112,1.688-0.915,1.688-1.894
	c0-0.567-0.25-1.081-0.647-1.425h-0.011c1.3-1.36,3.665-4.453,3.665-4.453c0.086,0.012,0.174,0.019,0.262,0.019
	c1.166,0,2.114-0.95,2.114-2.113c0-0.391-0.105-0.763-0.297-1.074V60.72c0.691-1.269,1.482-2.607,2.754-3.359l0.02-0.042
	c0.314,0.233,0.704,0.376,1.133,0.376c1.039,0,1.887-0.847,1.887-1.89c0-0.318-0.078-0.61-0.221-0.879l0.071-0.122
	c0.915-0.226,1.601-1.057,1.601-2.047c0-0.152-0.012-0.296-0.045-0.439c0.795-0.306,1.358-1.074,1.358-1.972
	c0-0.303-0.063-0.59-0.18-0.849l0.015,0.004c0.838-0.284,1.446-1.073,1.446-2.006c0-0.299-0.065-0.585-0.181-0.845l0.012-0.011
	c0.697-0.343,1.186-1.062,1.186-1.895c0-0.53-0.195-1.011-0.519-1.382L448.489,43.342z M430.483,45.68
	c0.358-0.496,0.147-1.269,0.03-1.866c0.231-0.223,0.593-0.416,0.832-0.72c0.384-0.476,0.461-1.397,0.185-1.949
	c-0.291-0.338,0.065-0.762,0.344-0.936c0.584-0.349,1.361,0.302,2.133,0.047c0.74,0.798,1.59,1.471,2.793,1.243
	c0.439,0.297,0.925,0.631,1.294,0.906c0,0,0.103,0.079,0,0.259c-0.347,0.607,0.214,1.543-0.062,2.293
	c-0.363,1.024-0.228,1.966,0.062,2.961c-0.358,0.932-0.711,1.82-0.765,2.822c-0.09,0.425,0.043,0.586,0.016,1.09
	c-0.646-0.058-1.504,0.105-2.064,0.397c-0.181-0.36-0.486-0.752-0.847-0.958c-1.153-0.709-2.16-1.456-3.539-1.924
	c-0.874-0.267-1.377-0.246-1.944-0.367c-0.759-0.295,0.916-1.01,0.613-1.949C429.018,46.227,430.261,46.214,430.483,45.68
	 M428.184,61.426c-0.282,0.053-0.489,0.005-0.78-0.048c0.379-0.953,0.836-1.901,0.952-2.965c0.241-1.179-0.202-2.375-0.965-3.023
	c0.172-0.283,0.196-0.612,0.304-0.909c0.16-1.094-0.09-1.873-0.769-2.624c-0.412-0.376-1.237-0.87-0.677-1.239
	c0.677-0.252,2.113,0.096,2.113,0.096c2.682,0.459,4.32,1.539,5.764,3.152c0.008,0.056,0.101,0.05,0.101,0.138
	c-0.185,0.229-0.334,0.47-0.604,0.87c-0.506-0.222-1.109-0.465-1.66-0.375C429.624,55.194,427.974,59.532,428.184,61.426
	 M406.489,31.958c0.174-0.338,0.547-0.413,0.861-0.465c2.365-0.434,4.768-1.08,6.99-1.849c2.688-1.115,5.758-1.961,8.671-1.151
	c0.198,0.079,0.476,0.153,0.644,0.227c3.5,1.08,5.098,4.794,5.522,8.149c0.036,0.095,0.078,1.387,0.065,1.838
	c-0.097,3.016-1.226,6.25-2.983,8.8c-0.49,0.755-1.144,1.667-1.929,2.07c-0.359,0.125-0.485-0.028-0.711-0.177
	c-0.264-0.24-0.24-0.549-0.092-0.83c1.606-1.891,2.803-3.785,3.674-6.069c1.152-2.668,0.828-6.048-0.119-8.621
	c-0.276-0.598-0.588-1.217-1.004-1.689c-1.689-2.454-5.937-2.937-7.937-2.265c-3.231,1.112-6.581,2.165-9.963,3
	c-0.935,0.228-1.251,0.424-1.651-0.122C406.347,32.609,406.397,32.19,406.489,31.958 M423.249,41.145
	c0.371-0.883,1.592-1.979,1.399-2.538c-0.104-0.177-0.274-0.288-0.528-0.288c-0.412,0.052-0.74,0.392-0.938,0.667
	c-0.224,0.253-0.601,0.198-0.698-0.168c-0.099-0.373-0.027-0.811,0.199-1.128c0.303-0.565-0.561-0.672-0.412-1.171
	c0.467-0.724,0.911-1.69,0.609-2.608c-0.145-0.672-0.954-0.852-0.991-1.571c-0.013-0.198,0.233-0.459,0.595-0.424
	c0.789,0.223,1.467,1.011,1.668,1.821c0.368,0.789-0.348,1.514,0.182,2.186c0.359,0.142,0.476-0.278,0.848-0.232
	c0.238,0.035,0.415,0.112,0.527,0.364c0.504,1.085,0.361,2.159,0.17,3.383c-0.241,1.35-1.586,2.068-1.467,3.542
	c0.047,0.602-1.054,2.797-1.666,2.593c-0.58-0.628,0.162-1.462,0.225-2.209C422.271,42.669,422.93,41.85,423.249,41.145
	 M407.393,51.815c-0.333-0.232-0.778-0.354-1.11-0.649c0.237-1.271-0.322-2.119-0.994-3.093c0.473-0.067,0.383-0.095,0.733-0.116
	c1.793-0.165,2.646-0.301,4.142-0.549c1.437-0.197,2.676-0.556,4.158-0.658c3.069-0.217,4.395,0.452,6.137,1.453
	c0.412,0.294,1.187,0.354,0.955,1.125c-0.182,0.412-1.869,0.117-2.752,0.412c-1.06,0.298-1.674,1.249-2.082,2.203
	c-1.181-0.058-2.205,0.789-2.787,1.582c-1.284,1.867-1.194,6.951-1.232,6.977c-0.663-0.251-0.779-1.213-1.508-1.373
	c-0.485-0.102-0.939,0.349-1.191,0.645c-0.195,0.159-0.505,0.362-0.717,0.275c0.201-0.443,0.239-0.993,0.328-1.417
	C409.805,56.218,409.526,53.1,407.393,51.815 M418.948,31.62c0.666-0.127,1.445,0.916,1.741,1.635
	c0.073,0.153,0.233,0.481,0.122,1.02c-0.293,0.639,0.305,1.388-0.049,2.043c-0.08,0.349-0.408,0.474-0.741,0.444
	c-1.36-0.391-1.255-2.263-2.579-2.852c-0.488-0.025-0.688,0.427-1.367,0.397c-0.578-0.028-1.187-0.179-1.469-0.734
	c-0.107-0.208,0.045-0.473,0.227-0.569c0.674-0.172,1.353-0.252,1.959-0.571c0.662-0.193,1.127,0.294,1.748,0.319
	C418.962,32.481,418.469,31.832,418.948,31.62 M405.411,45.399c0.217-0.108,0.479-0.243,0.705-0.342
	c1.449-1.098,1.016-3.239,0.604-4.736c0.497-0.762,0.62-1.729,0.244-2.598c0.313-0.875,0.427-1.853,0.296-2.854
	c0.382-0.083,0.602-0.053,0.865,0c1.387,0.176,2.924-0.021,4.168-0.19c0.847-0.306,1.212,0.783,1.589,1.017
	c0.351,0.288,0.573,0.359,1.267,0.562c0.854,0.212,1.498,0.056,2.155,0.333c0.372,0.769,0.994,1.497,1.815,1.821
	c0.371,0.186,0.914,0.026,1.164,0.409c0.017,0.992,0.396,1.783,0.821,2.58c-0.296,0.557-0.532,1.514-0.214,2.217
	c-0.082,0.649-0.359,1.891-0.359,1.891c-0.037,0.18-0.037,0.18-0.141,0.551c-0.52-0.207-1.044-0.452-1.572-0.629
	c-2.609-1.221-5.547-0.345-8.195,0.078c-1.721,0.207-3.535,0.513-5.354,0.587C405.312,45.781,405.312,45.781,405.411,45.399
	 M404.64,37.97c0,0.393,0.016,0.941-0.299,1.286c-0.252,0.583,0.263,0.948,0.424,1.541c0.093,0.251,0.443,1.704-0.018,2.349
	c-0.461,0.445-0.771-0.151-1.224-0.127c-0.563,0.349-0.381,1.079-0.493,1.651c-0.07,0.249-0.035,0.661-0.511,0.646
	c-0.299-0.115-0.358-0.297-0.485-0.826c-0.147-1.037-0.111-2.165,0.203-3.098c0.281-0.475,0.637-0.163,0.937-0.163
	c0.317-0.126,0.268-0.317,0.28-0.507c0.037-0.192-0.494-1.836-1.004-2.663c-0.69-0.676,0.236-1.607-0.119-2.461
	c-0.106-0.179-0.131-0.28,0.142-0.452c0.291-0.226,0.599,0.035,0.897,0.071c0.276,0.031,0.414-0.201,0.313-0.461
	c-0.44-0.931-1.212-1.804-1.022-2.8c0.112-0.196,0.299-0.338,0.562-0.302c0.271,0.106,0.362,0.144,0.679,0.509
	c0.385,0.662,1.18,2.335,1.158,3.211c0,0.176-0.245,1.393-0.652,1.536C404.11,37.377,404.678,37.497,404.64,37.97 M401.225,21.003
	c0,0,0.263-0.068,0.644,0.102c1.185,0.554,1.899,1.243,2.332,2.487c0.106,0.354,0.232,0.745-0.054,1.027
	c-1.071-0.076-2.922-0.314-2.922-0.314V21.003z M399.35,27.507h0.062c1.39,0,2.798,0.09,4.196,0.197
	c0.339,0.042,0.608,0.317,0.53,0.703c-0.068,0.249-0.275,0.423-0.518,0.45c-1.418-0.107-2.791-0.033-4.209-0.033h-0.062
	c-1.417,0-2.792-0.074-4.211,0.033c-0.242-0.027-0.449-0.202-0.519-0.45c-0.077-0.386,0.19-0.661,0.528-0.703
	C396.55,27.597,397.961,27.507,399.35,27.507 M399.364,30.492c-0.003,0-0.007-0.001-0.008-0.001h0.017
	C399.369,30.49,399.368,30.492,399.364,30.492h0.036c-0.003,0-0.005-0.001-0.008-0.001h0.016c0,0-0.005,0.001-0.008,0.001
	c1.438,0.027,1.08,3.399,1.08,7.552c0,4.156,0.441,7.527-1.08,7.558h-0.036c-1.522-0.031-1.079-3.402-1.079-7.558
	C398.285,33.891,397.925,30.519,399.364,30.492 M394.558,23.591c0.433-1.244,1.147-1.933,2.34-2.487
	c0.376-0.169,0.642-0.102,0.642-0.102v3.302c0,0-1.851,0.238-2.926,0.314C394.324,24.336,394.45,23.945,394.558,23.591
	 M394.859,32.165c0.312-0.365,0.405-0.403,0.679-0.509c0.263-0.036,0.448,0.106,0.561,0.302c0.188,0.996-0.583,1.869-1.024,2.8
	c-0.096,0.26,0.035,0.492,0.313,0.461c0.303-0.037,0.61-0.297,0.899-0.071c0.274,0.171,0.248,0.273,0.146,0.452
	c-0.361,0.854,0.569,1.785-0.124,2.461c-0.508,0.827-1.044,2.471-1.004,2.663c0.016,0.19-0.04,0.381,0.281,0.507
	c0.3,0,0.654-0.312,0.939,0.163c0.312,0.933,0.35,2.061,0.201,3.098c-0.127,0.529-0.188,0.71-0.486,0.826
	c-0.474,0.015-0.439-0.398-0.512-0.646c-0.113-0.572,0.072-1.302-0.494-1.651c-0.453-0.024-0.762,0.572-1.222,0.127
	c-0.463-0.645-0.111-2.097-0.019-2.349c0.161-0.593,0.676-0.958,0.424-1.541c-0.317-0.345-0.303-0.893-0.303-1.286
	c-0.035-0.474,0.534-0.593,0.234-1.058c-0.408-0.143-0.653-1.36-0.653-1.536C393.676,34.5,394.472,32.827,394.859,32.165
	 M393.342,45.399c0.102,0.382,0.102,0.382,0.148,0.694c-1.826-0.074-3.642-0.38-5.359-0.587c-2.647-0.423-5.583-1.298-8.194-0.078
	c-0.528,0.177-1.059,0.422-1.57,0.629c-0.106-0.372-0.106-0.372-0.145-0.551c0,0-0.28-1.242-0.359-1.891
	c0.315-0.704,0.079-1.66-0.21-2.217c0.42-0.797,0.803-1.588,0.821-2.58c0.248-0.383,0.794-0.223,1.163-0.409
	c0.822-0.324,1.443-1.052,1.815-1.821c0.656-0.277,1.302-0.121,2.155-0.333c0.691-0.202,0.915-0.273,1.268-0.562
	c0.378-0.234,0.741-1.322,1.588-1.017c1.243,0.17,2.78,0.366,4.164,0.19c0.268-0.053,0.486-0.083,0.868,0
	c-0.13,1.001-0.021,1.979,0.296,2.854c-0.375,0.869-0.255,1.836,0.245,2.598c-0.413,1.497-0.847,3.639,0.601,4.736
	C392.868,45.157,393.124,45.291,393.342,45.399 M392.477,51.166c-0.333,0.295-0.779,0.417-1.111,0.649
	c-2.137,1.285-2.414,4.403-2.082,6.816c0.09,0.424,0.13,0.974,0.329,1.417c-0.213,0.087-0.518-0.116-0.716-0.275
	c-0.248-0.296-0.702-0.747-1.19-0.645c-0.729,0.16-0.848,1.122-1.507,1.373c-0.038-0.026,0.051-5.11-1.234-6.977
	c-0.584-0.793-1.606-1.64-2.791-1.582c-0.404-0.954-1.019-1.905-2.076-2.203c-0.886-0.294-2.569,0-2.753-0.412
	c-0.232-0.772,0.545-0.832,0.952-1.125c1.746-1.001,3.069-1.669,6.139-1.453c1.482,0.102,2.731,0.46,4.162,0.658
	c1.491,0.248,2.346,0.385,4.138,0.549c0.355,0.021,0.256,0.049,0.733,0.116C392.798,49.047,392.237,49.895,392.477,51.166
	 M377.941,34.275c-0.107-0.539,0.061-0.867,0.122-1.02c0.305-0.72,1.083-1.763,1.746-1.635c0.478,0.211-0.016,0.861,0.409,1.132
	c0.62-0.024,1.085-0.512,1.747-0.319c0.608,0.319,1.285,0.399,1.957,0.571c0.186,0.097,0.337,0.361,0.227,0.569
	c-0.28,0.556-0.888,0.707-1.469,0.734c-0.679,0.03-0.876-0.423-1.367-0.397c-1.323,0.589-1.216,2.461-2.576,2.852
	c-0.333,0.03-0.665-0.095-0.742-0.444C377.643,35.664,378.243,34.915,377.941,34.275 M369.58,36.869
	c0.425-3.355,2.021-7.069,5.522-8.149c0.168-0.074,0.44-0.148,0.644-0.227c2.911-0.81,5.981,0.036,8.668,1.151
	c2.226,0.77,4.625,1.415,6.992,1.849c0.314,0.052,0.688,0.127,0.863,0.465c0.09,0.232,0.142,0.651-0.043,0.847
	c-0.401,0.546-0.715,0.35-1.648,0.122c-3.384-0.835-6.733-1.889-9.963-3c-1.997-0.672-6.247-0.189-7.938,2.265
	c-0.412,0.473-0.73,1.091-1.006,1.689c-0.944,2.573-1.271,5.953-0.118,8.621c0.868,2.285,2.067,4.179,3.676,6.069
	c0.147,0.281,0.173,0.59-0.091,0.83c-0.227,0.149-0.352,0.303-0.715,0.177c-0.783-0.403-1.433-1.315-1.925-2.07
	c-1.759-2.55-2.893-5.785-2.986-8.8C369.5,38.256,369.542,36.964,369.58,36.869 M376.489,36.519
	c0.146,0.499-0.716,0.605-0.414,1.171c0.228,0.317,0.299,0.755,0.201,1.128c-0.1,0.366-0.474,0.421-0.697,0.168
	c-0.201-0.275-0.532-0.615-0.942-0.667c-0.257,0-0.424,0.11-0.528,0.288c-0.192,0.559,1.031,1.655,1.4,2.538
	c0.318,0.705,0.98,1.524,0.28,2.217c0.063,0.747,0.803,1.581,0.223,2.209c-0.61,0.204-1.712-1.991-1.667-2.593
	c0.122-1.474-1.222-2.191-1.466-3.542c-0.189-1.224-0.336-2.298,0.171-3.383c0.116-0.252,0.288-0.329,0.527-0.364
	c0.37-0.046,0.488,0.374,0.848,0.232c0.527-0.672-0.187-1.397,0.184-2.186c0.197-0.81,0.875-1.598,1.668-1.821
	c0.359-0.036,0.606,0.226,0.593,0.424c-0.035,0.72-0.848,0.899-0.991,1.571C375.578,34.829,376.021,35.795,376.489,36.519
	 M371.061,54.481c0.107,0.297,0.135,0.626,0.303,0.909c-0.763,0.648-1.2,1.844-0.963,3.023c0.115,1.063,0.571,2.012,0.953,2.965
	c-0.293,0.053-0.496,0.101-0.78,0.048c0.211-1.895-1.443-6.232-3.782-6.926c-0.545-0.091-1.153,0.152-1.657,0.375
	c-0.267-0.399-0.42-0.641-0.6-0.87c0-0.087,0.089-0.082,0.098-0.138c1.438-1.613,3.081-2.693,5.767-3.152
	c0,0,1.433-0.349,2.108-0.096c0.563,0.37-0.262,0.863-0.677,1.239C371.153,52.608,370.907,53.387,371.061,54.481 M368.242,43.814
	c-0.116,0.597-0.329,1.37,0.031,1.866c0.224,0.534,1.467,0.546,0.922,1.349c-0.302,0.939,1.374,1.653,0.616,1.949
	c-0.573,0.121-1.068,0.1-1.95,0.367c-1.372,0.469-2.383,1.215-3.536,1.924c-0.356,0.206-0.663,0.598-0.844,0.958
	c-0.561-0.292-1.418-0.455-2.065-0.397c-0.028-0.503,0.105-0.665,0.016-1.09c-0.053-1.001-0.407-1.89-0.768-2.822
	c0.292-0.995,0.425-1.938,0.065-2.961c-0.275-0.75,0.278-1.686-0.065-2.293c-0.099-0.18,0-0.259,0-0.259
	c0.37-0.275,0.857-0.609,1.297-0.906c1.202,0.228,2.049-0.445,2.79-1.243c0.769,0.255,1.549-0.396,2.132-0.047
	c0.282,0.174,0.636,0.598,0.344,0.936c-0.274,0.552-0.201,1.474,0.187,1.949C367.651,43.398,368.009,43.591,368.242,43.814
	 M357.638,53.579c-0.547,0.205-0.998-0.271-1.208-0.621c-1.015-1.492-1.917-3.017-2.487-4.678
	c-1.244-3.292-1.802-7.329-0.239-10.616c0.493-1.266,1.5-2.232,2.525-2.985c2.837-1.9,6.51-2.798,10.142-1.95
	c0.352,0.142,1.056,0.162,1.108,0.786c-0.015,0.267-0.038,0.297-0.156,0.54c-0.18,0.372-0.771,0.331-1.619,0.096
	c-2.287-0.446-4.626-0.152-6.773,0.693c-1.75,0.783-3.727,2.032-4.257,3.962c-1.482,4.872,0.488,10.062,3.317,13.873
	C358.09,52.952,358.173,53.316,357.638,53.579 M359.278,50.058c-0.05,0.266-0.32,0.18-0.475,0.106
	c-0.988-0.764-1.395-1.8-1.855-2.891c-0.28-0.793-0.825-1.396-0.401-2.244c0.274-0.615,0.277-0.532,0.507-1.043
	c0.055-0.199,0.184-0.416,0.012-0.67c-0.889-1.25-1.026-3.939,0.043-4.689c0.282-0.207,0.707-0.228,0.566,0.158
	c-0.409,0.916-0.461,2.038,0.141,2.913c0.669,0.454,1.05,1.281,0.953,2.073c-0.022,0.277-0.088,0.519-0.21,0.748
	c0.2,0.692,0.65,1.566,0.188,2.258c-0.153,0.223-0.438,0.191-0.579,0.318C358.68,47.968,359.404,48.994,359.278,50.058
	 M359.011,38.659c-0.012-0.223,0.009-0.365,0.131-0.619c0.277-0.768,1.334-1.88,1.759-1.673c0.569,0.256-0.688,1.413,0.344,1.751
	c1.261,0.054,1.176-1.321,2.091-1.862c0.637-0.424,1.443-0.405,2.172-0.258c0.628,0.157,0.776,0.67,0.846,1.115
	c0.078,0.276,0,0.646-0.196,0.858c-0.833,0.486-1.673-0.974-2.449,0.07c-0.459,0.556-0.565,1.487-1.35,1.624
	c-0.438,0.043-0.678-0.358-1.177-0.227c-0.359,0.318-0.897,0.688-1.459,0.523C359.246,39.785,359.055,39.47,359.011,38.659
	 M369.119,75.721c-0.017,0.227,0.057,0.576-0.084,0.586c-0.326,0.011-0.46-0.513-0.566-0.959c-0.026-0.553,0.334-1.021,0.726-1.216
	c0.16-0.1,0.402-0.08,0.545,0.038c0.252,0.181,0.282,0.825,0.071,0.945C369.768,75.207,369.217,75.368,369.119,75.721
	 M370.303,73.356c-0.288-0.292-0.609-1.038-0.07-1.048c0.806-0.042,1.439,1.063,1.715,1.713c0.491,1.44,0.298,3.145-0.816,4.212
	c-0.159,0.155-0.333,0.181-0.478,0.155c-0.36-0.218,0.025-0.497,0.131-0.673c0.092-0.11,0.147-0.174,0.197-0.273
	C371.714,76.118,371.186,74.396,370.303,73.356 M399.411,85.205h-0.062c-1.393-0.016-18.461-0.266-20.482-0.82
	c2.953-0.648,15.822-0.801,20.482-0.815h0.062c4.659,0.015,17.523,0.167,20.476,0.815C417.87,84.939,400.806,85.189,399.411,85.205
	 M427.653,83.559c-9.438-0.953-18.535-1.465-28.242-1.495h-0.062c-9.711,0.03-18.804,0.542-28.244,1.495
	c-0.704,0.053-1.179-0.116-1.212-0.445c-0.041-0.411,0.098-0.634,0.399-0.709c2.595-0.478,5.464-0.761,8.089-0.953
	c6.881-0.682,13.923-1.099,20.968-1.099h0.062c7.041,0,14.083,0.417,20.964,1.099c2.625,0.192,5.492,0.475,8.084,0.953
	c0.309,0.075,0.443,0.298,0.402,0.709C428.833,83.442,428.355,83.611,427.653,83.559 M376.762,73.45l-1.079,0.137
	c-0.663,0.08-1.271-0.385-1.35-1.053c-0.086-0.662,0.388-1.265,1.049-1.349l1.081-0.132c0.662-0.086,1.267,0.384,1.35,1.048
	C377.896,72.768,377.425,73.371,376.762,73.45 M378.407,77.985c0.083,0.667-0.388,1.27-1.052,1.35l-1.08,0.137
	c-0.662,0.081-1.268-0.384-1.351-1.053c-0.083-0.662,0.387-1.264,1.049-1.351l1.084-0.131
	C377.718,76.852,378.324,77.326,378.407,77.985 M380.979,74.089l1.564-1.851c0.271-0.326,0.759-0.365,1.081-0.093l1.852,1.563
	c0.324,0.272,0.366,0.759,0.09,1.087l-1.56,1.844c-0.271,0.324-0.757,0.367-1.081,0.094l-1.853-1.563
	C380.747,74.9,380.708,74.414,380.979,74.089 M390.677,72.428h-1.092c-0.667,0-1.207-0.544-1.207-1.211
	c0-0.668,0.54-1.206,1.207-1.206h1.092c0.667,0,1.208,0.538,1.208,1.206C391.885,71.884,391.344,72.428,390.677,72.428
	 M392.015,77.016c0,0.668-0.542,1.211-1.207,1.211h-1.094c-0.665,0-1.209-0.543-1.209-1.211c0-0.666,0.544-1.207,1.209-1.207h1.094
	C391.473,75.809,392.015,76.351,392.015,77.016 M394.768,76.026v-6.039c0-0.528,0.43-0.963,0.96-0.963h7.887
	c0.532,0,0.959,0.435,0.959,0.963v6.039c0,0.531-0.427,0.96-0.959,0.96h-7.887C395.198,76.987,394.768,76.557,394.768,76.026
	 M407.954,75.809h1.09c0.666,0,1.205,0.542,1.205,1.207c0,0.668-0.539,1.211-1.205,1.211h-1.09c-0.668,0-1.213-0.543-1.213-1.211
	C406.741,76.351,407.286,75.809,407.954,75.809 M406.876,71.217c0-0.668,0.537-1.206,1.205-1.206h1.091
	c0.665,0,1.211,0.538,1.211,1.206c0,0.667-0.546,1.211-1.211,1.211h-1.091C407.413,72.428,406.876,71.884,406.876,71.217
	 M413.284,73.709l1.85-1.563c0.32-0.272,0.811-0.233,1.084,0.093l1.562,1.851c0.276,0.325,0.231,0.811-0.093,1.082l-1.853,1.563
	c-0.321,0.273-0.809,0.23-1.084-0.094l-1.562-1.844C412.917,74.468,412.96,73.981,413.284,73.709 M421.702,76.937l1.082,0.131
	c0.66,0.087,1.135,0.689,1.053,1.351c-0.088,0.669-0.688,1.134-1.348,1.053l-1.086-0.137c-0.662-0.08-1.134-0.683-1.049-1.35
	C420.434,77.326,421.038,76.852,421.702,76.937 M420.948,72.101c0.074-0.664,0.688-1.134,1.348-1.048l1.08,0.132
	c0.66,0.084,1.136,0.687,1.053,1.349c-0.084,0.668-0.688,1.132-1.35,1.053l-1.084-0.137
	C421.335,73.371,420.864,72.768,420.948,72.101 M427.774,77.441c0.051,0.1,0.106,0.163,0.199,0.273
	c0.105,0.177,0.484,0.455,0.126,0.673c-0.138,0.026-0.317,0-0.476-0.155c-1.11-1.067-1.307-2.772-0.817-4.212
	c0.276-0.65,0.91-1.756,1.716-1.713c0.544,0.011,0.227,0.756-0.072,1.048C427.571,74.396,427.04,76.118,427.774,77.441
	 M429.721,76.308c-0.14-0.01-0.065-0.36-0.085-0.586c-0.098-0.354-0.646-0.515-0.688-0.605c-0.213-0.121-0.182-0.765,0.068-0.945
	c0.143-0.118,0.387-0.138,0.545-0.038c0.391,0.195,0.752,0.663,0.725,1.216C430.182,75.794,430.046,76.318,429.721,76.308
	 M430.71,70.561c-0.228,0.046-0.758,0-1.086-0.074c-1.612-0.369-13.229-2.679-30.213-2.684h-0.062
	c-16.986,0.004-28.605,2.315-30.22,2.684c-0.327,0.074-0.855,0.12-1.083,0.074c-0.205-0.095-0.453-0.442-0.303-0.748
	c0.09-0.248,0.341-0.396,0.566-0.475c6.088-1.328,18.814-3.213,31.039-3.225h0.062c12.218,0.012,24.949,1.897,31.033,3.225
	c0.229,0.08,0.48,0.227,0.567,0.475C431.161,70.118,430.915,70.465,430.71,70.561 M438.559,56.886
	c-0.993,1.1-1.707,2.202-2.308,3.44l-0.062,0.062c-0.886-0.47-1.129-0.339-1.641,0.504c-0.479,0.779-0.514,1.078,0.21,1.613
	l-0.054,0.17c-1.066,1.719-2.021,3.049-3.662,4.477c-1.284,1.091-3.684-0.042-3.896-1.818c-3.343,2.423-7.32,0.474-8.104-2.242
	c-1.844,2.095-4.437,3.683-8.67,0.372c-2.828,1.498-7.621,2.769-10.965-1.689h-0.052c-3.349,4.458-8.146,3.187-10.971,1.689
	c-4.235,3.311-6.826,1.724-8.669-0.372c-0.782,2.716-4.765,4.665-8.106,2.242c-0.213,1.776-2.609,2.909-3.896,1.818
	c-1.643-1.427-2.596-2.757-3.661-4.477L364,62.505c0.722-0.536,0.688-0.834,0.207-1.613c-0.508-0.843-0.752-0.974-1.636-0.504
	l-0.067-0.062c-0.599-1.239-1.311-2.34-2.307-3.44c-0.377-0.418-1.105-0.73-0.593-1.155c0.305-0.279,0.687-0.456,1.11-0.628
	c0.73-0.309,1.587-0.577,2.248-0.025c0.875,1.151,0.107,2.886,0.531,3.23c0.132,0.132,0.323,0.182,0.514,0.056
	c0.73-0.657,1.462-2.39,2.584-1.901c1.008,0.691,1.808,2.564,2.02,4.149c0.085,0.841,0.296,1.859-0.39,2.435
	c-0.456,0.39-1.251-0.096-1.658,0.363c-0.239,0.647,0.212,0.948,0.555,1.493c0.504,0.577,1.122,1.376,2.055,1.433
	c1.292-0.177,1.45-1.533,1.994-2.418c0.145-0.227,0.146-0.091,0.355,0.02c1.195,0.882,2.782,1.477,4.265,1.278
	c0.753-0.169,1.599-0.557,1.837-1.375c0.194-0.526,0.104-1.018-0.017-1.494c-0.813-1.497-1.545,0.89-2.646,0.159
	c-1.148-0.883-2.1-2.2-2.549-3.693c-0.168-0.54-0.381-1.33,0.129-1.821c0.613-0.528,1.312-0.042,2.015-0.081
	c0.546,0.039,0.355-0.448,0.333-0.593c-0.491-0.792-1.83-1.047-1.906-2.162c0.076-0.996,0.918-1.372,1.802-1.842
	c1.404-0.642,3.034-1.103,4.615-0.806c0.373,0.089,0.758,0.254,0.903,0.737c0.069,0.427-0.123,0.606-0.206,0.854
	c-0.206,0.543-0.754,1.128-0.212,1.755c0.212,0.312,0.485,0.29,0.835,0.086c0.503-0.516,1.107-1.168,1.796-1.048
	c0.92,0.103,1.428,1.444,1.644,2.46c0.326,1.504,0.466,3.208-0.412,4.447c-0.937,0.805-1.598-0.799-2.472-0.127
	c-0.258,0.265-0.016,1.043,0.176,1.468c0.514,0.906,1.064,1.603,2.102,1.796c1.532,0.229,2.45-0.124,3.721-1.433
	c0.499-0.565,0.368-0.33,0.975-1.047c0.538,0.53,1.336,1.239,2.079,1.561c1.724,0.842,4.229,0.948,5.531-0.205
	c0.856-0.732,1.334-2.085,1.038-2.426c-1.297-1.322-1.44,0.763-2.34,1.101c-1.164,0.405-1.694,0.117-2.253-0.459
	c-1.364-1.853-1.484-4.535-0.687-6.773c0.119-0.238,0.119-0.238,0.271-0.465c0.435-0.612,0.957-0.784,1.565-0.691
	c0.836,0.156,1.398,0.823,1.76,1.527c0.157,0.288,0.544,0.279,0.856,0.171c0.316-0.104,0.603-0.476,0.428-0.792
	c-0.513-0.698-1.328-1.216-1.773-1.942c-0.3-0.503-0.435-1.271-0.158-1.847c0.187-0.502,0.651-0.92,1.123-1.27
	c1.017-0.641,2.339-0.978,3.66-0.978h0.062c1.325,0,2.646,0.337,3.661,0.978c0.471,0.35,0.936,0.768,1.119,1.27
	c0.272,0.576,0.143,1.344-0.16,1.847c-0.445,0.726-1.256,1.244-1.771,1.942c-0.171,0.317,0.114,0.688,0.428,0.792
	c0.313,0.108,0.7,0.117,0.857-0.171c0.36-0.704,0.919-1.371,1.758-1.527c0.608-0.093,1.133,0.08,1.573,0.691
	c0.148,0.227,0.148,0.227,0.261,0.465c0.801,2.238,0.679,4.92-0.687,6.773c-0.556,0.576-1.086,0.864-2.252,0.459
	c-0.895-0.337-1.039-2.422-2.332-1.101c-0.297,0.341,0.178,1.694,1.031,2.426c1.301,1.152,3.807,1.046,5.53,0.205
	c0.743-0.322,1.543-1.03,2.079-1.561c0.604,0.717,0.473,0.481,0.979,1.047c1.269,1.309,2.185,1.662,3.719,1.433
	c1.033-0.193,1.588-0.891,2.102-1.796c0.188-0.425,0.434-1.203,0.176-1.468c-0.871-0.672-1.533,0.932-2.471,0.127
	c-0.882-1.239-0.734-2.942-0.417-4.447c0.219-1.017,0.731-2.358,1.644-2.46c0.692-0.121,1.297,0.532,1.801,1.048
	c0.349,0.204,0.623,0.225,0.834-0.086c0.541-0.627-0.004-1.212-0.211-1.755c-0.088-0.249-0.274-0.427-0.207-0.854
	c0.15-0.482,0.531-0.647,0.904-0.737c1.575-0.297,3.207,0.164,4.613,0.806c0.887,0.47,1.727,0.846,1.803,1.842
	c-0.076,1.114-1.414,1.369-1.908,2.162c-0.021,0.145-0.211,0.631,0.334,0.593c0.701,0.039,1.402-0.448,2.013,0.081
	c0.516,0.491,0.302,1.281,0.13,1.821c-0.446,1.493-1.4,2.81-2.548,3.693c-1.101,0.731-1.834-1.656-2.646-0.159
	c-0.125,0.477-0.215,0.968-0.018,1.494c0.236,0.818,1.086,1.206,1.838,1.375c1.48,0.199,3.07-0.396,4.264-1.278
	c0.213-0.111,0.213-0.247,0.355-0.02c0.546,0.885,0.701,2.242,1.992,2.418c0.934-0.056,1.556-0.855,2.056-1.433
	c0.347-0.545,0.793-0.846,0.556-1.493c-0.41-0.459-1.201,0.027-1.66-0.363c-0.686-0.576-0.476-1.594-0.392-2.435
	c0.214-1.585,1.015-3.458,2.022-4.149c1.121-0.489,1.853,1.244,2.582,1.901c0.191,0.126,0.383,0.076,0.516-0.056
	c0.423-0.344-0.348-2.08,0.529-3.23c0.658-0.552,1.517-0.284,2.25,0.025c0.42,0.172,0.805,0.349,1.109,0.628
	C439.669,56.155,438.936,56.468,438.559,56.886 M439.036,39.96c-0.562,0.166-1.102-0.205-1.461-0.523
	c-0.5-0.131-0.742,0.271-1.176,0.227c-0.783-0.137-0.889-1.068-1.347-1.624c-0.782-1.044-1.618,0.416-2.453-0.07
	c-0.198-0.212-0.274-0.582-0.198-0.858c0.072-0.444,0.223-0.958,0.85-1.115c0.727-0.146,1.537-0.166,2.17,0.258
	c0.916,0.541,0.83,1.917,2.089,1.862c1.036-0.339-0.222-1.496,0.346-1.751c0.431-0.207,1.481,0.905,1.763,1.673
	c0.123,0.253,0.138,0.396,0.127,0.619C439.702,39.47,439.511,39.785,439.036,39.96 M439.958,50.164
	c-0.16,0.074-0.43,0.16-0.478-0.106c-0.128-1.064,0.595-2.09,1.11-2.964c-0.143-0.127-0.424-0.095-0.58-0.318
	c-0.463-0.692-0.014-1.566,0.189-2.258c-0.125-0.229-0.189-0.471-0.213-0.748c-0.094-0.792,0.282-1.619,0.955-2.073
	c0.6-0.875,0.551-1.997,0.141-2.913c-0.139-0.385,0.283-0.364,0.565-0.158c1.072,0.75,0.933,3.439,0.042,4.689
	c-0.167,0.255-0.042,0.471,0.012,0.67c0.232,0.511,0.232,0.428,0.508,1.043c0.426,0.848-0.12,1.451-0.4,2.244
	C441.35,48.364,440.944,49.4,439.958,50.164 M444.819,48.279c-0.572,1.661-1.475,3.187-2.49,4.678
	c-0.209,0.35-0.66,0.826-1.207,0.621c-0.532-0.262-0.449-0.626-0.354-0.901c2.829-3.81,4.799-9.001,3.313-13.873
	c-0.524-1.93-2.504-3.179-4.252-3.962c-2.146-0.845-4.487-1.139-6.774-0.693c-0.853,0.235-1.44,0.275-1.612-0.096
	c-0.121-0.243-0.15-0.273-0.164-0.54c0.053-0.625,0.762-0.645,1.108-0.786c3.631-0.848,7.308,0.05,10.144,1.95
	c1.026,0.753,2.027,1.72,2.525,2.985C446.616,40.95,446.062,44.987,444.819,48.279"/>
<path fill="#B39859" d="M401.147,69.972c0.926,0,1.268,0.382,0.975,0.683c-0.687,0.434-1.928,1.349-1.928,1.349h-0.611
	c-1.354,0-1.823,0-1.823,0.524c-0.022,0.398,0,0.083,0,0.673c-0.543,0.381-1.986,1.515-1.986,1.515V70.86
	c0,0,0.253-0.888,1.058-0.888H401.147z"/>
<polygon fill="#B39859" points="402.331,74.714 398.906,74.714 402.331,72.34 "/>
<path fill="#B39859" d="M399.44,58.425c-1.58-0.046-1.79-0.356-1.79-1.704c0-1.386,0.21-1.664,1.79-1.706h0.076
	c1.581,0.055,1.785,0.354,1.785,1.706c0,1.392-0.204,1.663-1.79,1.707L399.44,58.425z"/>
<path fill="#B39859" d="M420.316,59.176c-1.132-0.376-1.221-0.637-0.93-1.612c0.29-1.008,0.5-1.162,1.653-0.857l0.057,0.013
	c1.136,0.377,1.221,0.642,0.93,1.622c-0.3,1.003-0.5,1.159-1.654,0.851L420.316,59.176z"/>
<path fill="#B39859" d="M378.845,59.176c1.136-0.376,1.225-0.637,0.933-1.612c-0.29-1.008-0.501-1.162-1.653-0.857l-0.059,0.013
	c-1.136,0.377-1.218,0.642-0.93,1.622c0.297,1.003,0.506,1.159,1.659,0.851L378.845,59.176z"/>
</svg>
