<?xml version="1.0" encoding="utf-8"?>
<!-- Generator: Adobe Illustrator 15.0.2, SVG Export Plug-In . SVG Version: 6.00 Build 0)  -->
<!DOCTYPE svg PUBLIC "-//W3C//DTD SVG 1.1//EN" "http://www.w3.org/Graphics/SVG/1.1/DTD/svg11.dtd">
<svg version="1.1" id="Layer_1" xmlns="http://www.w3.org/2000/svg" xmlns:xlink="http://www.w3.org/1999/xlink" x="0px" y="0px"
	 width="457.706px" height="256px" viewBox="0 0 457.706 256" enable-background="new 0 0 457.706 256" xml:space="preserve">
<g>
	<path d="M245.014,191.218c-1.489-6.072-7.853-9.2-13.524-9.994c3.854-1.166,7.998-2.658,10.214-6.728
		c2.002-3.415,1.894-8.511,0.109-11.994c-3.25-7.104-15.815-6.727-15.815-6.727l-22.026,0.054v1.765
		c1.201,0,2.256,0.287,3.309,0.688c1.159,0.729,2.145,1.767,2.288,3.198c0,0,0.261,42.543-0.021,43.388
		c-1.194,2.525-3.467,2.964-5.543,3.182c-0.033,0.904-0.003,0.552,0,1.595h20.689c5.814,0.115,11.81,0.043,16.138-3.778
		C245.486,202.522,246.501,196.56,245.014,191.218 M219.052,158.23c5.018-0.474,10.256,0.56,12.945,4.849
		c2.109,3.456,2.616,8.435,0.909,12.216c-2.182,4.798-7.496,6.027-13.854,5.418C219.047,176.67,219.067,163.959,219.052,158.23
		 M234.508,201.938c-1.602,3.713-5.2,5.13-9.308,5.308c-2.31-0.053-5.167-0.038-6.148-2.503c0,0-0.011-14.322,0-21.088
		c7.524-1.062,12,1.312,14.254,5.565C235.453,192.886,236.065,198.016,234.508,201.938"/>
	<path d="M50.129,203.898c-0.08,1.6-0.012,2.679-1.284,3.334c-1.124,0.503-0.543,0.356-3.091,0.478v2.034h16.634v-2.027
		c-2.553-0.122-1.967,0.025-3.093-0.474c-1.269-0.655-1.209-1.742-1.291-3.338c0,0-0.015-49.241,0-50.613
		c-5.69,2.27-12.352,3.281-12.352,3.281s0.013,0.909,0,1.712c1.627,0.213,4.006,0.067,4.477,2.104V203.898z"/>
	<path d="M5.189,204.318c-0.024,2.302-2.567,3.922-5.017,3.911c0.017,1.088,0,1.519,0,1.519h19.959c0,0,0.042-0.978,0-1.519
		c-2.377-0.099-5.655-1.928-5.662-4.028l-0.003-42.614c0-2.102,3.278-4.065,5.657-4.162c0.042-0.538,0-1.432,0-1.432H0
		c0,0,0.017,0.347,0,1.432c2.455-0.015,5.165,1.868,5.189,4.162C5.189,161.587,5.265,199.809,5.189,204.318"/>
	<path d="M64.597,180.507c-0.01,1.361,0.012,1.87,0,1.792c1.922-0.039,3.953,0.127,3.983,3.897c0.013,2.357,0.032,11.275,0,14.499
		c-0.03,3.229,0.914,6.976,4.271,9.063c6.182,3.013,12.396-0.546,17.343-3.823c0.578,1.457,0.671,2.013,1.308,4.515l11.126-3.075
		c0,0,0.025-0.57,0.025-1.567c-2.446,0.79-3.931,0.222-3.999-1.761v-27.365c-4.409,1.521-8.568,2.964-12.379,3.629
		c-0.013,1.36,0.007,1.873,0,1.792c3.282-0.07,4.071,1.368,4.091,3.954v17.087c-2.728,2.219-6.68,3.486-9.993,2.321
		c-1.926-0.829-3.093-3.156-3.081-4.723v-23.897C72.885,178.363,68.405,179.837,64.597,180.507"/>
	<path d="M150.735,185.256v19.314c-0.217,1.595,0.01,2.705-1.844,3.253c-0.76,0.289-0.735,0.236-2.325,0.62
		c0.035,0.977,0,1.436,0,1.436h16.956c0,0-0.039-0.459,0-1.436c-1.595-0.381-1.467-0.327-2.23-0.62
		c-1.853-0.548-1.65-1.652-1.871-3.253v-18.025c0.035-3.814-1.07-8.016-4.925-9.649c-5.815-2.474-12.112,0.986-16.731,4.702
		c-0.886-2.127-2.898-4.12-4.606-4.778c-6.071-2.544-11.399,1.8-16.088,4.671c0,0,0.047-3.562,0-5.789c0,0-7.761,3.175-12.047,4.609
		v1.707h1.382c1.303,0.039,2.272,0.367,2.563,1.493v20.992c-0.218,1.594,0.016,2.709-1.835,3.253
		c-0.768,0.296-0.735,0.236-2.333,0.617c0.042,0.982,0,1.438,0,1.438h16.473c0,0-0.037-0.456,0-1.438
		c-1.596-0.381-1.469-0.321-2.232-0.617c-1.853-0.542-1.632-1.652-1.846-3.253l-0.012-19.995c1.121-1.678,5.947-4.596,9.467-3.289
		c1.604,0.652,2.95,2.705,2.986,4.485l0.075,18.878c-0.216,1.604-0.037,2.712-1.888,3.253c-0.763,0.292-0.734,0.238-2.327,0.62
		c0.03,0.979,0,1.438,0,1.438h16.465c0,0-0.033-0.456,0-1.437c-1.588-0.38-1.462-0.326-2.225-0.619
		c-1.856-0.544-1.633-1.652-1.851-3.252l-0.053-20.109c1.455-2.146,4.414-3.307,6.23-3.764c1.198-0.238,3.598,0,4.908,1.091
		C149.88,182.669,150.7,183.603,150.735,185.256"/>
	<path d="M289.018,203.963c-0.08,1.595-0.012,2.682-1.292,3.337c-1.119,0.492-0.535,0.35-3.082,0.47v1.964h16.625v-1.951
		c-2.547-0.126-1.959,0.021-3.086-0.475c-1.276-0.656-1.21-1.742-1.29-3.343c0,0-0.007-50.138,0-50.611
		c-5.694,2.27-12.354,3.281-12.354,3.281s0.013,0.912,0,1.71c1.631,0.218,4.012,0.071,4.479,2.106V203.963z"/>
	<path d="M308.707,203.963c-0.082,1.595-0.017,2.682-1.284,3.337c-1.126,0.492-0.539,0.35-3.095,0.47v1.964h16.632v-1.951
		c-2.548-0.126-1.964,0.021-3.089-0.475c-1.272-0.656-1.211-1.742-1.289-3.343c0,0-0.005-27.958,0-28.433
		c-5.693,2.278-12.355,4.366-12.355,4.366s0.014,0.91,0,1.709c1.635,0.213,4.012,0.067,4.48,2.105V203.963z"/>
	<path d="M311.86,168.341c2.719,0,4.925-2.201,4.925-4.923c0-2.726-2.206-4.927-4.925-4.927c-2.724,0-4.927,2.201-4.927,4.927
		C306.934,166.14,309.137,168.341,311.86,168.341"/>
	<path d="M334.875,203.144c-1.201-0.399-1.386-1.714-1.125-2.801c0.31-1.094,1.484-1.817,2.395-2.295
		c5.024-0.179,10.504-0.939,13.235-5.814c1.521-2.436,1.415-6.326,0.107-8.795c-0.216-0.876-1.236-1.581-1.094-2.419h4.111
		l1.631-3.615h-10.644c-4.732-2.618-11.749-2.109-16.032,1.125c-3.419,2.801-5.347,6.688-4.328,11.197
		c1.177,4.375,4.221,6.7,9.124,8.104c-1.563,1.019-2.493,1.15-3.59,2.113c-1.644,1.338-3.389,3.085-2.734,5.418
		c0.507,1.453,2.185,2.433,3.235,3.413c-1.419,0.691-2.981,1.086-4.218,2.18c-1.785,1.567-2.401,3.566-2.216,5.929
		c0.313,2.433,2.583,4.794,4.898,6.1c7.039,2.931,16.837,2.771,22.767-2.396c2.872-2.504,3.995-5.959,3.193-9.74
		C351.197,202.455,341.4,204.889,334.875,203.144 M331.298,187.577c-0.652-5.282,1.243-9.372,4.221-9.735
		c2.976-0.37,5.918,3.128,6.562,8.411c0.642,5.291-1.289,9.052-4.261,9.427C334.835,196.039,331.945,192.864,331.298,187.577
		 M344.577,221.173c-3.601,1.853-9.052,2.181-12.615,0.107c-4.378-2.939-3.379-7.321-1.059-9.038
		c2.382-1.586,2.372-1.333,2.955-1.462c1.476,0.266,1.476,0.251,3.916,0.538c1.382,0.164,3.018,0.449,5.095,0.833
		C349.58,213.399,347.912,219.089,344.577,221.173"/>
	<path d="M389.694,205.313c0.327,1.922,0.992,2.465,3.537,2.588v1.954h-16.626v-1.96c2.547-0.126,3.074-0.824,3.614-2.582
		c0.742-1.964,0.315-18.31,0.315-20.094c0-1.788-0.839-2.688-2.109-3.416c-3.891-1.927-8.029,0.549-10.862,3.167v20.398
		c0.086,1.597-0.058,1.511,1.208,2.167c1.133,0.498,0.544,0.352,3.092,0.479v1.949h-16.629v-1.963
		c2.547-0.121,1.967,0.024,3.092-0.479c1.268-0.654,1.204-0.558,1.289-2.154v-44.691c-0.478-2.033-2.854-1.888-4.482-2.102
		c0.012-0.802,0-1.713,0-1.713s6.738-1.006,12.431-3.273c-0.003,0.244,0,14.432,0,27.669c0.691,0.773,1.429-0.204,2.141-0.73
		c3.973-2.945,8.646-5.309,13.847-4.033c2.001,0.688,4.326,2.142,5.089,4.324c1.343,4.059,0.942,8.323,0.903,12.722
		C389.509,197.924,389.358,203.56,389.694,205.313"/>
	<path d="M187.24,177.06v8.417c-1.152,0.018-1.11,0.067-1.832,0c-0.655-2.982-3.013-6.146-6.103-7.059
		c-1.934-0.438-4.109-0.252-5.599,0.984c-2.752,2.323-2.308,5.328,0.579,7.124c5.199,3.78,14.979,5.673,14.434,14.216
		c-0.292,3.854-3.2,7.815-6.911,9.119c-4.905,1.893-11.533,0.749-16.3-0.67c0,0-0.035-5.688,0-8.361
		c1.124,0.055,1.054,0.107,1.981,0.055c0.337,0.865,1.902,8.621,10.105,7.673c1.907-0.292,3.584-1.161,4.328-2.618
		c0.652-1.275,0.966-4.106-2.673-6.184c-6.07-3.467-12.377-5.11-13.756-11.846c-0.476-3.491,0.396-6.687,2.905-9.088
		C173.402,174.485,181.223,175.537,187.24,177.06"/>
	<path d="M30.01,203.812c-0.082,1.6-0.016,2.687-1.288,3.338c-1.124,0.499-0.541,0.353-3.088,0.478v2.038h16.631v-2.031
		c-2.552-0.124-1.966,0.021-3.09-0.473c-1.275-0.656-1.21-1.743-1.295-3.343c0,0-0.012-49.237,0-50.608
		c-5.69,2.269-12.35,3.28-12.35,3.28s0.013,0.913,0,1.708c1.631,0.217,4.007,0.07,4.48,2.105V203.812z"/>
	<path d="M282.386,184.64c-3.347-6.8-10.221-10.072-17.64-9.523c-5.23,0.545-10.354,3.741-12.829,8.725
		c-2.578,5.342-3.38,12.903-0.397,18.322c2.547,4.792,7.562,7.484,12.648,8.101c6.872,1.023,13.343-1.311,17.196-7.12
		C284.747,198.088,285.324,190.055,282.386,184.64 M266.884,208.056c-5.949,0-8.417-7.001-8.417-15.366
		c0-8.371,2.468-15.15,8.417-15.15c5.946,0,8.419,6.779,8.419,15.15C275.303,201.055,272.83,208.056,266.884,208.056"/>
	<path d="M393.759,179.983c-0.015,1.361,0.012,1.874,0,1.792c1.923-0.043,3.95,0.127,3.979,3.901c0.015,2.357,0.029,11.271,0,14.495
		c-0.028,3.23,0.915,6.975,4.273,9.063c6.182,3.013,12.397-0.55,17.341-3.816c0.573,1.45,0.672,2.01,1.311,4.504l11.13-3.07
		c0,0,0.024-0.574,0.024-1.572c-2.453,0.79-3.931,0.229-4-1.753v-27.37c-4.407,1.521-8.576,2.965-12.376,3.634
		c-0.021,1.36,0.003,1.867,0,1.787c3.276-0.067,4.064,1.369,4.086,3.955v17.086c-2.722,2.217-6.68,3.49-9.993,2.322
		c-1.925-0.829-3.093-3.156-3.077-4.72v-23.9C402.049,177.84,397.563,179.313,393.759,179.983"/>
	<path d="M456.207,175.977v8.418c-1.156,0.017-1.105,0.07-1.833,0c-0.651-2.982-3.021-6.146-6.107-7.052
		c-1.935-0.438-4.106-0.257-5.599,0.977c-2.758,2.323-2.311,5.333,0.58,7.126c5.198,3.778,14.98,5.67,14.437,14.217
		c-0.292,3.852-3.203,7.81-6.912,9.119c-4.907,1.893-11.534,0.749-16.303-0.669c0,0-0.031-5.688,0-8.365
		c1.128,0.054,1.052,0.115,1.981,0.058c0.334,0.861,1.902,8.621,10.11,7.667c1.906-0.293,3.576-1.158,4.317-2.612
		c0.66-1.278,0.969-4.104-2.664-6.191c-6.076-3.47-12.375-5.104-13.759-11.842c-0.48-3.487,0.399-6.687,2.904-9.088
		C442.36,173.406,450.182,174.458,456.207,175.977"/>
	<path d="M291.867,125.701c0,0,1.46-0.131,1.658-1.439c0.206-1.307,0.095-6.701,0.189-10.501c-0.062-0.759-1.729-1.237-1.729-1.237
		s-0.132-0.209-0.074-0.206c2.829,0.417,8.141-1.393,9.994,1.927c0.967,1.457,0.204,4.008-2.702,5.137
		c1.194,1.467,3.749,5.959,5.549,6.255c0.061,0.243,0.021,0.218,0.021,0.218l-3.11-0.004c-1.637-2.169-3.101-4.431-4.956-6.38
		c-0.432-0.107-0.854,0.065-0.854,0.065s-0.099,3.565-0.052,4.68c0.061,1.354,1.684,1.5,1.684,1.5v0.157l-5.534,0.015
		C292.112,125.769,291.867,125.701,291.867,125.701 M295.839,118.819c0,0,0.221,0.113,0.655,0c1.407-0.221,2.818-0.549,3.354-2.066
		c0.323-1.414-0.223-2.721-1.201-3.474c-0.868-0.106-1.921-0.466-2.784-0.031C295.745,114.949,295.839,118.819,295.839,118.819"/>
	<path d="M140.242,125.687c0,0,1.717-0.176,1.896-1.067c0.098-3.802,0.09-7.453-0.031-11.037c0.034-1.069-1.628-1.226-1.628-1.226
		v-0.107l9.874,0.078c0.221,0.869,0.227,1.845,0.229,2.929c-0.543-0.104-0.438-0.973-0.762-1.404
		c-1.199-1.627-3.897-0.934-5.502-0.966c-0.118,1.703-0.027,3.587-0.131,5.102c1.629,0.435,2.396,0.359,3.547,0.183
		c1.352-0.211,1.396-1.646,1.396-1.646l0.261-0.067l0.013,4.342l-0.299-0.061c0,0,0.287-1.445-1.158-1.564
		c-1.227-0.103-2.153-0.213-3.673-0.1l-0.083,0.549c0.005,1.838-0.315,3.797,0.233,5.422c2.389,0.103,5.429,0.745,6.726-1.65
		c0.215-0.213,0.105-0.759,0.537-0.762l-0.858,3.153l-10.528,0.032L140.242,125.687z"/>
	<path d="M98.595,112.926c1.95-0.983,4.768-1.208,6.509,0.31c2.01,1.752,2.838,4.119,2.736,6.833
		c-0.078,3.049-2.048,5.428-4.87,6.088c-2.604,0.441-4.883-0.638-6.41-2.48c-1.742-2.273-1.536-6.289-0.13-8.682
		C96.978,113.945,97.836,113.369,98.595,112.926 M97.842,116.73c-0.425,2.822-0.092,5.644,1.538,7.81
		c0.804,0.827,2.179,1.079,3.479,0.749c1.841-0.656,2.489-2.935,2.593-4.782c0.1-2.82-0.019-6.188-2.625-7.374
		c-0.81-0.248-2.065-0.392-2.931,0.117C98.814,114.12,97.984,115.306,97.842,116.73"/>
	<path d="M199.677,124.458c0,0,0.021-9.979-0.029-10.954c-0.048-0.977-1.699-1.116-1.699-1.116v-0.106h5.645v0.143
		c0,0-1.587,0.05-1.665,1.08c-0.13,1.724-0.4,3.559,0.227,5.09l5.867-0.021c0.267-1.009,0.216-3.919-0.02-5.069
		c-0.229-1.151-1.646-1.091-1.646-1.091s0.06-0.027,0-0.131c1.845,0.104,3.867-0.104,5.601,0v0.131c0,0-1.706,0.211-1.566,1.091
		c0.012,3.797-0.284,7.042,0.02,10.919c0.099,1.204,1.561,1.272,1.561,1.272l0.08,0.142l-5.696,0.014v-0.206
		c0,0,1.646-0.133,1.811-1.038c0.168-0.905,0.186-3.477-0.145-5.317h-5.974c-0.296,1.869-0.42,3.819-0.199,5.032
		c0.219,1.215,1.743,1.262,1.743,1.262v0.228l-5.645-0.06v-0.164C197.948,125.588,199.643,125.57,199.677,124.458"/>
	<path d="M304.095,125.634c0,0,1.073-0.171,1.906-1.905c1.794-3.72,3.234-7.82,4.961-11.628c2.07,4.638,4.779,10.762,5.477,12.215
		c0.719,1.504,1.468,1.329,1.468,1.329l0.039,0.113c-1.629,0.222-5.205,0.019-5.205,0.019l-0.057-0.092c0,0,1.361-0.222,1.354-0.784
		c-0.367-1.18-0.755-2.372-1.288-3.531l-4.801,0.075c-0.541,1.304-0.712,1.464-1.157,2.504c-0.673,1.574,1.325,1.696,1.325,1.696
		l-0.051,0.138l-4.013,0.029L304.095,125.634z M308.308,120.575l4.183-0.006l-2.107-4.798L308.308,120.575z"/>
	<path d="M112.586,112.252l8.129,9.506l0.036-0.521l-0.023-7.296c-0.192-1.293-1.834-1.56-1.834-1.56l-0.01-0.036l4.344-0.014
		c-0.139,0.056,0.013,0.109,0.013,0.109s-1.5,0.211-1.637,1.522c0.007,4.018,0.112,12.244,0.112,12.244s-6.179-7.236-8.901-10.699
		l-0.326-0.538c0.114,3.364-0.116,7.963,0.062,9.188c0.209,1.468,1.671,1.493,1.671,1.493l0.03,0.164l-4.559,0.014l-0.014-0.146
		c0,0,1.87-0.193,1.805-1.633l0.02-10.06c-0.058-1.382-2.22-1.523-2.22-1.523l0.046-0.215H112.586z"/>
	<path d="M227.744,125.701c0,0,1.636-0.149,1.771-1.449c0.186-3.688,0.021-6.889,0.009-10.691c-0.107-0.909-1.7-1.087-1.7-1.087
		s0.18,0.117-0.041-0.096c3.147-0.121,7.166-0.021,10.744-0.139c0.224,0.973,0.336,3.035,0.336,3.035l-0.192,0.057
		c0,0-0.211-1.178-0.896-1.677c-1.222-0.891-3.787-0.667-5.863-0.634c-0.278,0.791-0.386,1.731-0.372,2.668
		c0.008,0.854,0.115,1.706,0.275,2.43c1.521,0.213,2.731,0.334,3.931-0.108c1.201-0.448,1.106-1.631,1.106-1.631l0.17,0.021
		c0.005,1.521,0.025,4.62,0.025,4.62l-0.112-0.064c0,0-0.18-1.588-1.208-1.874c-1.305-0.057-3.028-0.246-4.125,0.445
		c-0.036,2.305-0.023,4.033,0.058,4.742c0.151,1.321,1.852,1.4,1.852,1.4s-0.003,0.085,0.062,0.152c-1.786,0.107-5.802,0-5.802,0
		L227.744,125.701z"/>
	<path d="M333.575,125.752c0,0,1.65-0.289,1.669-1.28v-10.53c-0.003-1.382-1.636-1.531-1.636-1.531s-0.031,0.053-0.013-0.201
		c4.56,0.642,11.719-1.766,13.365,3.979c0.878,2.715,0.336,5.972-1.393,7.714c-3.032,2.833-7.915,1.866-12.044,1.985
		C333.676,125.801,333.575,125.752,333.575,125.752 M337.468,124.793c0.759,0.431,1.806,0.32,2.782,0.32
		c2.283-0.121,3.802-1.97,4.557-3.922c0.53-2.822,0.086-5.971-2.303-7.595c-1.413-0.642-3.736-1.291-5.036-0.199V124.793z"/>
	<path d="M83.266,124.654c0.316-3.477,0.254-7.363,0.137-11.051c-0.072-1.051-1.555-1.183-1.555-1.183l-0.027-0.144l5.321-0.013
		c-0.18,0.113-0.09,0.135-0.09,0.135s-1.342,0.366-1.538,1.172c-0.102,1.521,0.032,3.494,0.125,5.075
		c1.661-1.222,3.574-3.669,4.653-5.518c-0.004-0.544-0.655-0.606-0.977-0.819l4.339-0.01l-0.023,0.168c0,0-0.998,0.216-1.753,0.864
		c-1.619,1.354-3.032,3.37-4.397,4.8c1.854,2.49,3.922,4.762,5.99,6.925c0.545,0.111,0.764,0.652,1.412,0.538l0.003,0.222
		c-1.845,0.004-3.69,0.113-5.43-0.097c0.215-0.11,0.976-0.003,1.084-0.542c-1.089-2.062-3.049-3.686-4.466-5.525l-0.37-0.349
		c0.002,1.845-0.344,3.399-0.178,5.187c0.158,1.19,1.324,1.02,1.542,1.126v0.171l-5.584-0.004l0.048-0.209
		C81.533,125.574,83.241,125.549,83.266,124.654"/>
	<path d="M279.034,125.687c0,0,1.712-0.176,1.897-1.067c0.097-3.802,0.085-7.453-0.031-11.037c0.031-1.069-1.635-1.226-1.635-1.226
		v-0.107l9.88,0.078c0.22,0.869,0.224,1.845,0.224,2.929c-0.544-0.104-0.432-0.973-0.76-1.404c-1.198-1.627-3.896-0.934-5.503-0.966
		c-0.117,1.703-0.026,3.587-0.13,5.102c1.627,0.435,2.398,0.359,3.547,0.183c1.353-0.211,1.393-1.646,1.393-1.646l0.266-0.067
		l0.01,4.342l-0.298-0.061c0,0,0.286-1.445-1.159-1.564c-1.227-0.103-2.154-0.213-3.671-0.1l-0.085,0.549
		c0.008,1.838-0.318,3.797,0.23,5.422c2.391,0.103,5.429,0.745,6.727-1.65c0.218-0.213,0.105-0.759,0.54-0.762l-0.861,3.153
		l-10.526,0.032L279.034,125.687z"/>
	<path d="M216.555,112.926c1.953-0.983,4.776-1.208,6.516,0.31c2.008,1.752,2.836,4.119,2.733,6.833
		c-0.079,3.049-2.046,5.428-4.868,6.088c-2.604,0.441-4.887-0.638-6.412-2.48c-1.745-2.273-1.536-6.289-0.131-8.682
		C214.939,113.945,215.798,113.369,216.555,112.926 M215.808,116.73c-0.428,2.822-0.092,5.644,1.54,7.81
		c0.799,0.827,2.176,1.079,3.478,0.749c1.843-0.656,2.487-2.935,2.59-4.782c0.103-2.82-0.017-6.188-2.621-7.374
		c-0.812-0.248-2.065-0.392-2.934,0.117C216.778,114.12,215.949,115.306,215.808,116.73"/>
	<path d="M253.292,125.687c0,0,1.714-0.176,1.896-1.067c0.099-3.802,0.086-7.453-0.03-11.037c0.034-1.069-1.631-1.226-1.631-1.226
		v-0.107l9.878,0.078c0.219,0.869,0.224,1.845,0.224,2.929c-0.541-0.104-0.438-0.973-0.761-1.404
		c-1.2-1.627-3.896-0.934-5.502-0.966c-0.116,1.703-0.029,3.587-0.137,5.102c1.636,0.435,2.404,0.359,3.554,0.183
		c1.351-0.211,1.392-1.646,1.392-1.646l0.266-0.067l0.012,4.342l-0.303-0.061c0,0,0.291-1.445-1.155-1.564
		c-1.23-0.103-2.151-0.213-3.673-0.1l-0.083,0.549c0.005,1.838-0.317,3.797,0.231,5.422c2.39,0.103,5.43,0.745,6.728-1.65
		c0.211-0.213,0.104-0.759,0.539-0.762l-0.86,3.153l-10.528,0.032L253.292,125.687z"/>
	<path d="M363.295,125.701c0,0,1.461-0.131,1.661-1.439c0.206-1.307,0.092-6.701,0.186-10.501c-0.065-0.759-1.725-1.237-1.725-1.237
		s-0.135-0.209-0.075-0.206c2.826,0.417,8.142-1.393,9.992,1.927c0.969,1.457,0.203,4.008-2.702,5.137
		c1.2,1.467,3.747,5.959,5.554,6.255c0.056,0.243,0.013,0.218,0.013,0.218l-3.113-0.004c-1.629-2.169-3.095-4.431-4.949-6.38
		c-0.429-0.107-0.851,0.065-0.851,0.065s-0.1,3.565-0.057,4.68c0.062,1.354,1.691,1.5,1.691,1.5v0.157l-5.539,0.015
		C363.537,125.769,363.295,125.701,363.295,125.701 M367.268,118.819c0,0,0.215,0.113,0.652,0c1.41-0.221,2.826-0.549,3.359-2.066
		c0.32-1.414-0.224-2.721-1.2-3.474c-0.873-0.106-1.921-0.466-2.789-0.031C367.173,114.949,367.268,118.819,367.268,118.819"/>
	<path d="M270.507,112.26l0.004,0.156c0,0-1.998,0.204-1.735,0.944c0.769,3.04,3.507,9.035,3.507,9.035s3.23-6.665,3.33-9.269
		c-0.328-0.648-0.98-0.542-1.415-0.755l-0.017-0.107l4.251-0.029l0.025,0.271c0,0-1.202-0.186-1.866,1.378
		c-0.661,1.562-4.959,12.063-4.959,12.063h-0.219l-4.846-12.219c-0.37-0.965-1.709-1.312-1.709-1.312l0.005-0.131L270.507,112.26z"
		/>
	<path d="M244.68,113.884c0.154-1.328,1.918-1.399,1.918-1.399s-0.004-0.089,0.059-0.15c-1.783-0.109-5.8-0.002-5.8-0.002
		l-0.03,0.122c0,0,1.64,0.152,1.775,1.449c0.186,3.69,0.016,6.886,0.009,10.688c-0.112,0.916-1.707,1.094-1.707,1.094
		s0.182-0.122-0.036,0.092c3.149,0.117,6.609,0.017,10.193,0.142c0.219-0.979,0.333-3.042,0.333-3.042l-0.192-0.054
		c0,0-0.208,1.178-0.896,1.681c-1.223,0.886-3.235,0.663-5.31,0.63c-0.282-0.791-0.326-1.734-0.316-2.668V113.884z"/>
	<path d="M158,113.884c0.149-1.328,1.913-1.399,1.913-1.399s-0.004-0.089,0.061-0.15c-1.787-0.109-5.802-0.002-5.802-0.002
		l-0.026,0.122c0,0,1.635,0.152,1.774,1.449c0.186,3.69,0.02,6.886,0.005,10.688c-0.11,0.916-1.7,1.094-1.7,1.094
		s0.178-0.122-0.04,0.092c3.148,0.117,6.61,0.017,10.192,0.142c0.221-0.979,0.335-3.042,0.335-3.042l-0.192-0.054
		c0,0-0.211,1.178-0.897,1.681c-1.226,0.886-3.233,0.663-5.312,0.63c-0.278-0.791-0.323-1.734-0.311-2.668V113.884z"/>
	<path d="M170.317,124.185c0.021,1.11,1.913,1.399,1.913,1.399s-0.005,0.086,0.062,0.15c-1.787,0.111-5.799,0.006-5.799,0.006
		l-0.031-0.124c0,0,1.722-0.106,1.773-1.447c0.052-1.315,0.081-8.7,0-10.268c-0.063-1.297-1.773-1.449-1.773-1.449l0.031-0.122
		c0,0,4.013-0.106,5.799,0.002c-0.066,0.062-0.062,0.15-0.062,0.15s-1.891,0.071-1.913,1.399
		C170.287,115.339,170.292,122.984,170.317,124.185"/>
	<path d="M128.923,113.03c1.969-1.171,5.012-1.079,7.05-0.018c0.334,0.064,0.602-0.203,0.77-0.47
		c0.068-0.236,0.166-0.506,0.501-0.371c0.066,0.702,0.005,1.508,0.07,2.206l0.207,2.206c-0.098,0.134-0.299,0.035-0.433,0.103
		c-0.302-1.404-1.246-2.736-2.584-3.335c-1.271-0.602-3.143-0.495-4.272,0.377c-2.14,1.443-2.733,4.285-2.292,6.922
		c0.274,1.945,1.482,3.744,3.321,4.474c1.309,0.495,3.042,0.359,4.044-0.616c-0.069-1.368,0.126-2.871-0.213-4.176
		c-0.331-0.598-1.039-0.969-1.704-0.969l-0.004-0.231l5.853-0.01c0.068,0.097,0.032,0.143,0.032,0.242
		c-0.402,0.136-0.868,0.261-1.231,0.493c-0.307,0.302-0.505,0.705-0.505,1.175c0.008,1.268,0.079,2.573-0.051,3.809
		c-2.37,1.678-6.382,2.056-8.998,0.392c-2.474-1.394-3.617-4.168-3.259-7.079C125.522,115.947,126.987,114.002,128.923,113.03"/>
	<path d="M178.019,113.03c1.968-1.171,5.008-1.079,7.051-0.018c0.333,0.064,0.6-0.203,0.77-0.47
		c0.064-0.236,0.164-0.506,0.497-0.371c0.067,0.702,0.003,1.508,0.073,2.206l0.21,2.206c-0.099,0.134-0.303,0.035-0.437,0.103
		c-0.306-1.404-1.244-2.736-2.582-3.335c-1.272-0.602-3.146-0.495-4.277,0.377c-2.134,1.443-2.729,4.285-2.289,6.922
		c0.271,1.945,1.479,3.744,3.32,4.474c1.308,0.495,3.046,0.359,4.044-0.616c-0.069-1.368,0.128-2.871-0.211-4.176
		c-0.336-0.598-1.043-1.012-1.709-1.008l-0.003-0.193l5.851-0.01c0.069,0.097,0.034,0.1,0.034,0.203
		c-0.399,0.135-0.867,0.299-1.232,0.531c-0.303,0.302-0.501,0.705-0.497,1.175c0.002,1.268,0.073,2.573-0.057,3.809
		c-2.371,1.678-6.379,2.056-8.994,0.392c-2.478-1.394-3.621-4.168-3.26-7.079C174.616,115.947,176.083,114.002,178.019,113.03"/>
	<path d="M321.412,112.252l8.129,9.506l0.036-0.521l-0.021-7.296c-0.188-1.293-1.835-1.56-1.835-1.56l-0.014-0.036l4.346-0.014
		c-0.135,0.056,0.012,0.109,0.012,0.109s-1.5,0.211-1.637,1.522c0.008,4.018,0.115,12.244,0.115,12.244s-6.183-7.236-8.903-10.699
		l-0.323-0.538c0.112,3.364-0.118,7.963,0.061,9.188c0.209,1.468,1.674,1.493,1.674,1.493l0.029,0.164l-4.561,0.014l-0.011-0.146
		c0,0,1.862-0.193,1.802-1.633l0.025-10.06c-0.063-1.382-2.227-1.523-2.227-1.523l0.045-0.215H321.412z"/>
	<path d="M352.594,112.926c1.953-0.983,4.771-1.204,6.517,0.31c0.12,0.11,0.238,0.217,0.352,0.328
		c0.132,0.129,1.025-1.361,1.144-1.222c0.035,0.04,0.721,0.46,0.721,0.46s-1.256,1.428-1.198,1.502
		c1.262,1.604,1.792,3.567,1.711,5.765c-0.078,3.049-2.044,5.428-4.867,6.088c-2.301,0.391-4.353-0.406-5.85-1.867
		c-0.067-0.064-1.151,1.274-1.151,1.274s-0.632-0.395-0.726-0.499c-0.031-0.036,1.352-1.351,1.314-1.389
		c-1.742-2.276-1.539-6.289-0.133-8.678C350.979,113.945,351.837,113.361,352.594,112.926 M358.486,114.586
		c-0.388-0.612-0.924-1.119-1.66-1.454c-0.809-0.248-2.062-0.392-2.928,0.115c-1.084,0.876-1.914,2.055-2.056,3.483
		c-0.261,1.74-0.235,3.475,0.207,5.059L358.486,114.586z M352.391,122.795c0.253,0.616,0.584,1.205,0.998,1.742
		c0.797,0.83,2.169,1.08,3.47,0.758c1.846-0.663,2.493-2.941,2.592-4.788c0.058-1.663,0.052-3.511-0.513-4.994L352.391,122.795z"/>
	<path d="M205.949,33.562c0.126,0.784-0.612,0.438-0.934,0.328c-0.264-0.025-0.493,0.167-0.493,0.167
		c-0.518,0.32-0.16,1.012-0.018,1.383c0.912,1.371,2.374,1.777,2.192,2.28c-0.748,0.224-1.39-0.521-1.682,0.224
		c-0.134,1.193,1.863,1.853,1.863,2.194c0.127,0.402-0.67,0.267-0.535,0.66c0.135,0.405,1.796,1.264,1.333,1.463
		c-0.946,0.125-1.745-0.837-2.504-1.411c-1.865-2.562-3.07-6.131-1.697-9.312c0.588-1.831,2.141-3.499,4.232-3.887
		c1.961-0.207,3.551,0.321,4.483,0.852c3.455,1.738,6.22,6.815,10.497,7.948l0.161,0.164c-0.192,0.284-0.663,0.185-0.934,0.088
		c-3.769-0.901-7.802-7.263-11.716-7.866C210.199,28.838,205.084,27.972,205.949,33.562"/>
	<path d="M205.949,33.562c0.126,0.784-0.612,0.438-0.934,0.328c-0.264-0.025-0.493,0.167-0.493,0.167
		c-0.518,0.32-0.16,1.012-0.018,1.383c0.912,1.371,2.374,1.777,2.192,2.28c-0.748,0.224-1.39-0.521-1.682,0.224
		c-0.134,1.193,1.863,1.853,1.863,2.194c0.127,0.402-0.67,0.267-0.535,0.66c0.135,0.405,1.796,1.264,1.333,1.463
		c-0.946,0.125-1.745-0.837-2.504-1.411c-1.865-2.562-3.07-6.131-1.697-9.312c0.588-1.831,2.141-3.499,4.232-3.887
		c1.961-0.207,3.551,0.321,4.483,0.852c3.455,1.738,6.22,6.815,10.497,7.948l0.161,0.164c-0.192,0.284-0.663,0.185-0.934,0.088
		c-3.769-0.901-7.802-7.263-11.716-7.866C210.199,28.838,205.084,27.972,205.949,33.562z"/>
	<path d="M230.055,31.21c0.237,0.278,0.471,0.699,0.248,1.065c-0.862-0.22-1.592-0.22-2.454,0c-0.183,0.093-0.348,0.057-0.596,0
		c-0.214-0.441,0-0.837,0.345-1.149C228.266,30.544,229.4,30.601,230.055,31.21"/>
	<path d="M230.055,31.21c0.237,0.278,0.471,0.699,0.248,1.065c-0.862-0.22-1.592-0.22-2.454,0c-0.183,0.093-0.348,0.057-0.596,0
		c-0.214-0.441,0-0.837,0.345-1.149C228.266,30.544,229.4,30.601,230.055,31.21z"/>
	<path d="M195.271,36.704c-0.49,0.307-0.49-1.086-1.291-0.556c-1.293,0.845,1.041,4.784,1.041,4.784
		c0.098,0.599-1.099-0.598-1.275,0.336c-0.156,1.521,2.207,3.155,2.207,3.155c0.161,0.428-0.767-0.103-0.583,0.617
		c-0.05,0.809,1.537,1.667,1.086,2.159c-0.089-0.024-1.105-0.535-1.427-0.855c-2.568-2.619-3.577-7.406-2.449-10.729
		c0.944-2.793,4.436-4.46,5.394-4.65c0.959-0.185,0.926,0.72,0.221,0.952C194.497,33.138,195.763,36.394,195.271,36.704"/>
	<path d="M195.271,36.704c-0.49,0.307-0.49-1.086-1.291-0.556c-1.293,0.845,1.041,4.784,1.041,4.784
		c0.098,0.599-1.099-0.598-1.275,0.336c-0.156,1.521,2.207,3.155,2.207,3.155c0.161,0.428-0.767-0.103-0.583,0.617
		c-0.05,0.809,1.537,1.667,1.086,2.159c-0.089-0.024-1.105-0.535-1.427-0.855c-2.568-2.619-3.577-7.406-2.449-10.729
		c0.944-2.793,4.436-4.46,5.394-4.65c0.959-0.185,0.926,0.72,0.221,0.952C194.497,33.138,195.763,36.394,195.271,36.704z"/>
	<path d="M223.127,39.339c0.942-0.085,0.31,0.275,0.154,0.336c-8.434,1.322-15.656-4.828-15.656-4.828
		c-0.28-0.32-0.585-0.755-0.334-1.185c0.164-0.289,0.613-0.182,0.853-0.09C208.144,33.572,214.848,40.138,223.127,39.339"/>
	<path d="M223.127,39.339c0.942-0.085,0.31,0.275,0.154,0.336c-8.434,1.322-15.656-4.828-15.656-4.828
		c-0.28-0.32-0.585-0.755-0.334-1.185c0.164-0.289,0.613-0.182,0.853-0.09C208.144,33.572,214.848,40.138,223.127,39.339z"/>
	<path d="M227.169,36.964c0.167,1.101,0.68,2.155,0.512,3.292c-0.264,0.458-0.833,0.526-1.363,0.52
		c-0.439-0.257,0.115-0.52,0.169-0.766c0.292-0.364,0.931-0.688,0.603-1.186c-0.686-0.493-1.172,0.544-1.949,0.334
		c-0.208-0.845,1.237-1.357,1.178-2.194c-0.146-0.445-0.662-0.246-0.925-0.179c-0.281,0.246-0.656,0.466-1.016,0.263
		c-0.096-0.934,1.067-1.613,1.612-2.283C227.013,34.858,226.778,36.234,227.169,36.964"/>
	<path d="M227.169,36.964c0.167,1.101,0.68,2.155,0.512,3.292c-0.264,0.458-0.833,0.526-1.363,0.52
		c-0.439-0.257,0.115-0.52,0.169-0.766c0.292-0.364,0.931-0.688,0.603-1.186c-0.686-0.493-1.172,0.544-1.949,0.334
		c-0.208-0.845,1.237-1.357,1.178-2.194c-0.146-0.445-0.662-0.246-0.925-0.179c-0.281,0.246-0.656,0.466-1.016,0.263
		c-0.096-0.934,1.067-1.613,1.612-2.283C227.013,34.858,226.778,36.234,227.169,36.964z"/>
	<path d="M230.274,36.964c-0.165,1.101-0.679,2.155-0.514,3.292c0.266,0.458,0.835,0.526,1.359,0.52
		c0.445-0.257-0.109-0.52-0.167-0.766c-0.291-0.364-0.927-0.688-0.597-1.186c0.686-0.493,1.169,0.544,1.943,0.334
		c0.216-0.845-1.236-1.357-1.18-2.194c0.153-0.445,0.666-0.246,0.933-0.179c0.278,0.246,0.653,0.466,1.017,0.263
		c0.093-0.934-1.072-1.613-1.616-2.283C230.43,34.858,230.662,36.234,230.274,36.964"/>
	<path d="M230.274,36.964c-0.165,1.101-0.679,2.155-0.514,3.292c0.266,0.458,0.835,0.526,1.359,0.52
		c0.445-0.257-0.109-0.52-0.167-0.766c-0.291-0.364-0.927-0.688-0.597-1.186c0.686-0.493,1.169,0.544,1.943,0.334
		c0.216-0.845-1.236-1.357-1.18-2.194c0.153-0.445,0.666-0.246,0.933-0.179c0.278,0.246,0.653,0.466,1.017,0.263
		c0.093-0.934-1.072-1.613-1.616-2.283C230.43,34.858,230.662,36.234,230.274,36.964z"/>
	<path d="M216.512,47.844l-0.438-0.413c0,0,3.222-2.58,7.287-2.807l0.521,0.693C220.095,45.385,216.512,47.844,216.512,47.844"/>
	<path d="M216.512,47.844l-0.438-0.413c0,0,3.222-2.58,7.287-2.807l0.521,0.693C220.095,45.385,216.512,47.844,216.512,47.844z"/>
	<path d="M213.428,64.231c0.609,0.125,1.816,2.401,1.816,3.042c0.004,0.763-1.245,3.645-1.816,3.638
		c-0.573-0.011-1.736-3.014-1.82-3.638C211.528,66.647,212.854,64.121,213.428,64.231"/>
	<path d="M213.428,64.231c0.609,0.125,1.816,2.401,1.816,3.042c0.004,0.763-1.245,3.645-1.816,3.638
		c-0.573-0.011-1.736-3.014-1.82-3.638C211.528,66.647,212.854,64.121,213.428,64.231z"/>
	<path d="M203.597,72.845c-0.908,0.367-2.099-2.155-1.86-3.737c0.282-1.083,0.914-3.028,2-2.804
		C205.583,66.696,205.318,72.157,203.597,72.845"/>
	<path d="M203.597,72.845c-0.908,0.367-2.099-2.155-1.86-3.737c0.282-1.083,0.914-3.028,2-2.804
		C205.583,66.696,205.318,72.157,203.597,72.845z"/>
	<path d="M253.451,72.845c0.896,0.367,2.094-2.155,1.858-3.737c-0.285-1.083-0.913-3.028-2.009-2.804
		C251.461,66.696,251.728,72.157,253.451,72.845"/>
	<path d="M253.451,72.845c0.896,0.367,2.094-2.155,1.858-3.737c-0.285-1.083-0.913-3.028-2.009-2.804
		C251.461,66.696,251.728,72.157,253.451,72.845z"/>
	<path d="M205.481,27.025c-0.827,0-1.506-0.677-1.506-1.511c0-0.827,0.679-1.508,1.506-1.508c0.833,0,1.505,0.681,1.505,1.508
		C206.986,26.348,206.314,27.025,205.481,27.025"/>
	<path d="M205.481,27.025c-0.827,0-1.506-0.677-1.506-1.511c0-0.827,0.679-1.508,1.506-1.508c0.833,0,1.505,0.681,1.505,1.508
		C206.986,26.348,206.314,27.025,205.481,27.025z"/>
	<path d="M202.026,30.344c-0.832,0-1.5-0.673-1.5-1.502c0-0.833,0.668-1.496,1.5-1.496c0.829,0,1.505,0.663,1.505,1.496
		C203.531,29.671,202.855,30.344,202.026,30.344"/>
	<path d="M202.026,30.344c-0.832,0-1.5-0.673-1.5-1.502c0-0.833,0.668-1.496,1.5-1.496c0.829,0,1.505,0.663,1.505,1.496
		C203.531,29.671,202.855,30.344,202.026,30.344z"/>
	<path d="M197.778,29.942c-0.834,0-1.509-0.666-1.509-1.502c0-0.823,0.675-1.494,1.509-1.494c0.832,0,1.504,0.67,1.504,1.494
		C199.282,29.276,198.61,29.942,197.778,29.942"/>
	<path d="M197.778,29.942c-0.834,0-1.509-0.666-1.509-1.502c0-0.823,0.675-1.494,1.509-1.494c0.832,0,1.504,0.67,1.504,1.494
		C199.282,29.276,198.61,29.942,197.778,29.942z"/>
	<path d="M200.432,35.122c-0.827,0-1.505-0.663-1.505-1.5c0-0.83,0.678-1.499,1.505-1.499c0.83,0,1.506,0.669,1.506,1.499
		C201.938,34.459,201.262,35.122,200.432,35.122"/>
	<path d="M200.432,35.122c-0.827,0-1.505-0.663-1.505-1.5c0-0.83,0.678-1.499,1.505-1.499c0.83,0,1.506,0.669,1.506,1.499
		C201.938,34.459,201.262,35.122,200.432,35.122z"/>
	<path d="M193.121,32.472c-0.827,0-1.5-0.677-1.5-1.507c0-0.823,0.673-1.499,1.5-1.499c0.829,0,1.506,0.676,1.506,1.499
		C194.627,31.794,193.95,32.472,193.121,32.472"/>
	<path d="M193.121,32.472c-0.827,0-1.5-0.677-1.5-1.507c0-0.823,0.673-1.499,1.5-1.499c0.829,0,1.506,0.676,1.506,1.499
		C194.627,31.794,193.95,32.472,193.121,32.472z"/>
	<path d="M190.202,36.205c-0.768,0-1.389-0.616-1.389-1.393c0-0.755,0.621-1.381,1.389-1.381c0.762,0,1.388,0.626,1.388,1.381
		C191.589,35.589,190.963,36.205,190.202,36.205"/>
	<path d="M190.202,36.205c-0.768,0-1.389-0.616-1.389-1.393c0-0.755,0.621-1.381,1.389-1.381c0.762,0,1.388,0.626,1.388,1.381
		C191.589,35.589,190.963,36.205,190.202,36.205z"/>
	<path d="M201.099,39.194c-0.752,0-1.356-0.612-1.356-1.357c0-0.751,0.604-1.365,1.356-1.365c0.748,0,1.361,0.613,1.361,1.365
		C202.459,38.582,201.846,39.194,201.099,39.194"/>
	<path d="M201.099,39.194c-0.752,0-1.356-0.612-1.356-1.357c0-0.751,0.604-1.365,1.356-1.365c0.748,0,1.361,0.613,1.361,1.365
		C202.459,38.582,201.846,39.194,201.099,39.194z"/>
	<path d="M190.729,43.819c-0.608,0-1.109-0.496-1.109-1.112c0-0.613,0.501-1.112,1.109-1.112c0.612,0,1.11,0.499,1.11,1.112
		C191.839,43.323,191.341,43.819,190.729,43.819"/>
	<path d="M190.729,43.819c-0.608,0-1.109-0.496-1.109-1.112c0-0.613,0.501-1.112,1.109-1.112c0.612,0,1.11,0.499,1.11,1.112
		C191.839,43.323,191.341,43.819,190.729,43.819z"/>
	<path d="M222.975,35.524c-0.34,0-0.618-0.274-0.618-0.616c0-0.343,0.278-0.62,0.618-0.62c0.343,0,0.619,0.277,0.619,0.62
		C223.594,35.25,223.317,35.524,222.975,35.524"/>
	<circle cx="222.975" cy="34.906" r="0.618"/>
	<path d="M205.439,44.149c-0.411,0-0.742-0.331-0.742-0.737c0-0.41,0.331-0.738,0.742-0.738c0.41,0,0.739,0.328,0.739,0.738
		C206.178,43.819,205.849,44.149,205.439,44.149"/>
	<path d="M205.439,44.149c-0.411,0-0.742-0.331-0.742-0.737c0-0.41,0.331-0.738,0.742-0.738c0.41,0,0.739,0.328,0.739,0.738
		C206.178,43.819,205.849,44.149,205.439,44.149z"/>
	<path d="M203.042,42.485c-0.609,0-1.11-0.499-1.11-1.108c0-0.612,0.501-1.108,1.11-1.108c0.612,0,1.119,0.496,1.119,1.108
		C204.161,41.987,203.654,42.485,203.042,42.485"/>
	<path d="M203.042,42.485c-0.609,0-1.11-0.499-1.11-1.108c0-0.612,0.501-1.108,1.11-1.108c0.612,0,1.119,0.496,1.119,1.108
		C204.161,41.987,203.654,42.485,203.042,42.485z"/>
	<path d="M251.72,33.562c-0.122,0.784,0.614,0.438,0.932,0.328c0.27-0.025,0.501,0.167,0.501,0.167
		c0.508,0.32,0.155,1.012,0.013,1.383c-0.904,1.371-2.369,1.777-2.189,2.28c0.752,0.224,1.388-0.521,1.676,0.224
		c0.139,1.193-1.855,1.853-1.855,2.194c-0.124,0.402,0.665,0.267,0.529,0.66c-0.129,0.405-1.794,1.264-1.329,1.463
		c0.941,0.125,1.744-0.837,2.508-1.411c1.859-2.562,3.067-6.131,1.691-9.312c-0.581-1.831-2.142-3.499-4.239-3.887
		c-1.95-0.207-3.549,0.321-4.475,0.852c-3.461,1.738-6.216,6.815-10.499,7.948l-0.166,0.164c0.202,0.284,0.673,0.185,0.934,0.088
		c3.773-0.901,7.802-7.263,11.72-7.866C247.47,28.838,252.587,27.972,251.72,33.562"/>
	<path d="M251.72,33.562c-0.122,0.784,0.614,0.438,0.932,0.328c0.27-0.025,0.501,0.167,0.501,0.167
		c0.508,0.32,0.155,1.012,0.013,1.383c-0.904,1.371-2.369,1.777-2.189,2.28c0.752,0.224,1.388-0.521,1.676,0.224
		c0.139,1.193-1.855,1.853-1.855,2.194c-0.124,0.402,0.665,0.267,0.529,0.66c-0.129,0.405-1.794,1.264-1.329,1.463
		c0.941,0.125,1.744-0.837,2.508-1.411c1.859-2.562,3.067-6.131,1.691-9.312c-0.581-1.831-2.142-3.499-4.239-3.887
		c-1.95-0.207-3.549,0.321-4.475,0.852c-3.461,1.738-6.216,6.815-10.499,7.948l-0.166,0.164c0.202,0.284,0.673,0.185,0.934,0.088
		c3.773-0.901,7.802-7.263,11.72-7.866C247.47,28.838,252.587,27.972,251.72,33.562z"/>
	<path d="M256.574,39.194c0.748,0,1.358-0.612,1.358-1.357c0-0.751-0.61-1.365-1.358-1.365c-0.752,0-1.353,0.613-1.353,1.365
		C255.222,38.582,255.822,39.194,256.574,39.194"/>
	<path d="M256.574,39.194c0.748,0,1.358-0.612,1.358-1.357c0-0.751-0.61-1.365-1.358-1.365c-0.752,0-1.353,0.613-1.353,1.365
		C255.222,38.582,255.822,39.194,256.574,39.194z"/>
	<path d="M252.428,44.62c0.406,0,0.737-0.331,0.737-0.741c0-0.406-0.331-0.745-0.737-0.745c-0.414,0-0.747,0.339-0.747,0.745
		C251.681,44.289,252.014,44.62,252.428,44.62"/>
	<path d="M252.428,44.62c0.406,0,0.737-0.331,0.737-0.741c0-0.406-0.331-0.745-0.737-0.745c-0.414,0-0.747,0.339-0.747,0.745
		C251.681,44.289,252.014,44.62,252.428,44.62z"/>
	<path d="M254.619,42.485c0.623,0,1.12-0.499,1.12-1.108c0-0.612-0.497-1.108-1.12-1.108c-0.604,0-1.106,0.496-1.106,1.108
		C253.513,41.987,254.015,42.485,254.619,42.485"/>
	<path d="M254.619,42.485c0.623,0,1.12-0.499,1.12-1.108c0-0.612-0.497-1.108-1.12-1.108c-0.604,0-1.106,0.496-1.106,1.108
		C253.513,41.987,254.015,42.485,254.619,42.485z"/>
	<path d="M192.149,46.362c-0.5,0-0.911-0.417-0.911-0.913c0-0.501,0.411-0.904,0.911-0.904c0.5,0,0.905,0.402,0.905,0.904
		C193.055,45.945,192.649,46.362,192.149,46.362"/>
	<path d="M192.149,46.362c-0.5,0-0.911-0.417-0.911-0.913c0-0.501,0.411-0.904,0.911-0.904c0.5,0,0.905,0.402,0.905,0.904
		C193.055,45.945,192.649,46.362,192.149,46.362z"/>
	<path d="M216.773,29.882c-0.499,0-0.904-0.414-0.904-0.909c0-0.499,0.405-0.905,0.904-0.905c0.501,0,0.907,0.406,0.907,0.905
		C217.681,29.468,217.274,29.882,216.773,29.882"/>
	<path d="M216.773,29.882c-0.499,0-0.904-0.414-0.904-0.909c0-0.499,0.405-0.905,0.904-0.905c0.501,0,0.907,0.406,0.907,0.905
		C217.681,29.468,217.274,29.882,216.773,29.882z"/>
	<path d="M218.903,32.45c-0.503,0-0.909-0.407-0.909-0.905c0-0.495,0.406-0.908,0.909-0.908c0.497,0,0.903,0.413,0.903,0.908
		C219.807,32.043,219.4,32.45,218.903,32.45"/>
	<path d="M218.903,32.45c-0.503,0-0.909-0.407-0.909-0.905c0-0.495,0.406-0.908,0.909-0.908c0.497,0,0.903,0.413,0.903,0.908
		C219.807,32.043,219.4,32.45,218.903,32.45z"/>
	<path d="M189.668,40.377c-0.721,0-1.302-0.588-1.302-1.309c0-0.719,0.581-1.3,1.302-1.3c0.724,0,1.309,0.581,1.309,1.3
		C190.977,39.789,190.392,40.377,189.668,40.377"/>
	<path d="M189.668,40.377c-0.721,0-1.302-0.588-1.302-1.309c0-0.719,0.581-1.3,1.302-1.3c0.724,0,1.309,0.581,1.309,1.3
		C190.977,39.789,190.392,40.377,189.668,40.377z"/>
	<path d="M260.032,29.942c0.829,0,1.503-0.666,1.503-1.502c0-0.823-0.674-1.494-1.503-1.494c-0.835,0-1.507,0.67-1.507,1.494
		C258.525,29.276,259.197,29.942,260.032,29.942"/>
	<path d="M260.032,29.942c0.829,0,1.503-0.666,1.503-1.502c0-0.823-0.674-1.494-1.503-1.494c-0.835,0-1.507,0.67-1.507,1.494
		C258.525,29.276,259.197,29.942,260.032,29.942z"/>
	<path d="M257.368,35.122c0.834,0,1.511-0.663,1.511-1.5c0-0.83-0.677-1.499-1.511-1.499c-0.833,0-1.505,0.669-1.505,1.499
		C255.863,34.459,256.535,35.122,257.368,35.122"/>
	<path d="M257.368,35.122c0.834,0,1.511-0.663,1.511-1.5c0-0.83-0.677-1.499-1.511-1.499c-0.833,0-1.505,0.669-1.505,1.499
		C255.863,34.459,256.535,35.122,257.368,35.122z"/>
	<path d="M264.676,32.472c0.836,0,1.507-0.677,1.507-1.507c0-0.823-0.671-1.499-1.507-1.499c-0.821,0-1.5,0.676-1.5,1.499
		C263.176,31.794,263.854,32.472,264.676,32.472"/>
	<path d="M264.676,32.472c0.836,0,1.507-0.677,1.507-1.507c0-0.823-0.671-1.499-1.507-1.499c-0.821,0-1.5,0.676-1.5,1.499
		C263.176,31.794,263.854,32.472,264.676,32.472z"/>
	<path d="M267.604,36.205c0.766,0,1.39-0.616,1.39-1.393c0-0.755-0.624-1.381-1.39-1.381c-0.767,0-1.389,0.626-1.389,1.381
		C266.215,35.589,266.837,36.205,267.604,36.205"/>
	<path d="M267.604,36.205c0.766,0,1.39-0.616,1.39-1.393c0-0.755-0.624-1.381-1.39-1.381c-0.767,0-1.389,0.626-1.389,1.381
		C266.215,35.589,266.837,36.205,267.604,36.205z"/>
	<path d="M267.072,43.819c0.609,0,1.112-0.496,1.112-1.112c0-0.613-0.503-1.112-1.112-1.112c-0.61,0-1.113,0.499-1.113,1.112
		C265.959,43.323,266.462,43.819,267.072,43.819"/>
	<path d="M267.072,43.819c0.609,0,1.112-0.496,1.112-1.112c0-0.613-0.503-1.112-1.112-1.112c-0.61,0-1.113,0.499-1.113,1.112
		C265.959,43.323,266.462,43.819,267.072,43.819z"/>
	<path d="M265.652,46.362c0.501,0,0.907-0.417,0.907-0.913c0-0.501-0.406-0.904-0.907-0.904c-0.5,0-0.9,0.402-0.9,0.904
		C264.752,45.945,265.152,46.362,265.652,46.362"/>
	<path d="M265.652,46.362c0.501,0,0.907-0.417,0.907-0.913c0-0.501-0.406-0.904-0.907-0.904c-0.5,0-0.9,0.402-0.9,0.904
		C264.752,45.945,265.152,46.362,265.652,46.362z"/>
	<path d="M268.133,40.377c0.724,0,1.302-0.588,1.302-1.309c0-0.719-0.578-1.3-1.302-1.3c-0.723,0-1.302,0.581-1.302,1.3
		C266.831,39.789,267.41,40.377,268.133,40.377"/>
	<path d="M268.133,40.377c0.724,0,1.302-0.588,1.302-1.309c0-0.719-0.578-1.3-1.302-1.3c-0.723,0-1.302,0.581-1.302,1.3
		C266.831,39.789,267.41,40.377,268.133,40.377z"/>
	<path d="M220.85,34.167c-0.412,0-0.738-0.334-0.738-0.741c0-0.406,0.326-0.741,0.738-0.741c0.407,0,0.74,0.334,0.74,0.741
		C221.59,33.833,221.257,34.167,220.85,34.167"/>
	<path d="M220.85,34.167c-0.412,0-0.738-0.334-0.738-0.741c0-0.406,0.326-0.741,0.738-0.741c0.407,0,0.74,0.334,0.74,0.741
		C221.59,33.833,221.257,34.167,220.85,34.167z"/>
	<path d="M220.268,38.894c-0.341,0-0.619-0.277-0.619-0.612c0-0.342,0.278-0.62,0.619-0.62c0.34,0,0.617,0.277,0.617,0.62
		C220.885,38.617,220.607,38.894,220.268,38.894"/>
	<path d="M220.268,38.894c-0.341,0-0.619-0.277-0.619-0.612c0-0.342,0.278-0.62,0.619-0.62c0.34,0,0.617,0.277,0.617,0.62
		C220.885,38.617,220.607,38.894,220.268,38.894z"/>
	<path d="M210.045,26.519c-0.752,0-1.365-0.605-1.365-1.356c0-0.756,0.613-1.361,1.365-1.361c0.749,0,1.357,0.605,1.357,1.361
		C211.403,25.913,210.794,26.519,210.045,26.519"/>
	<path d="M210.045,26.519c-0.752,0-1.365-0.605-1.365-1.356c0-0.756,0.613-1.361,1.365-1.361c0.749,0,1.357,0.605,1.357,1.361
		C211.403,25.913,210.794,26.519,210.045,26.519z"/>
	<path d="M213.852,27.605c-0.613,0-1.109-0.498-1.109-1.115c0-0.616,0.496-1.111,1.109-1.111c0.617,0,1.113,0.495,1.113,1.111
		C214.965,27.107,214.469,27.605,213.852,27.605"/>
	<path d="M213.852,27.605c-0.613,0-1.109-0.498-1.109-1.115c0-0.616,0.496-1.111,1.109-1.111c0.617,0,1.113,0.495,1.113,1.111
		C214.965,27.107,214.469,27.605,213.852,27.605z"/>
	<path d="M211.726,34.311c-0.501,0-0.908-0.404-0.908-0.902c0-0.505,0.407-0.908,0.908-0.908c0.499,0,0.909,0.402,0.909,0.908
		C212.635,33.907,212.225,34.311,211.726,34.311"/>
	<path d="M211.726,34.311c-0.501,0-0.908-0.404-0.908-0.902c0-0.505,0.407-0.908,0.908-0.908c0.499,0,0.909,0.402,0.909,0.908
		C212.635,33.907,212.225,34.311,211.726,34.311z"/>
	<path d="M208.715,32.472c-0.615,0-1.109-0.495-1.109-1.108c0-0.616,0.494-1.104,1.109-1.104c0.61,0,1.105,0.488,1.105,1.104
		C209.821,31.977,209.326,32.472,208.715,32.472"/>
	<path d="M208.715,32.472c-0.615,0-1.109-0.495-1.109-1.108c0-0.616,0.494-1.104,1.109-1.104c0.61,0,1.105,0.488,1.105,1.104
		C209.821,31.977,209.326,32.472,208.715,32.472z"/>
	<path d="M214.562,36.433c-0.502,0-0.909-0.402-0.909-0.909c0-0.491,0.407-0.901,0.909-0.901c0.504,0,0.905,0.41,0.905,0.901
		C215.468,36.031,215.066,36.433,214.562,36.433"/>
	<path d="M214.562,36.433c-0.502,0-0.909-0.402-0.909-0.909c0-0.491,0.407-0.901,0.909-0.901c0.504,0,0.905,0.41,0.905,0.901
		C215.468,36.031,215.066,36.433,214.562,36.433z"/>
	<path d="M217.57,38.132c-0.405,0-0.739-0.331-0.739-0.741c0-0.413,0.334-0.745,0.739-0.745c0.414,0,0.745,0.332,0.745,0.745
		C218.315,37.802,217.984,38.132,217.57,38.132"/>
	<path d="M217.57,38.132c-0.405,0-0.739-0.331-0.739-0.741c0-0.413,0.334-0.745,0.739-0.745c0.414,0,0.745,0.332,0.745,0.745
		C218.315,37.802,217.984,38.132,217.57,38.132z"/>
	<path d="M222.547,38.723c-0.339,0-0.618-0.277-0.618-0.616c0-0.346,0.279-0.624,0.618-0.624c0.341,0,0.617,0.277,0.617,0.624
		C223.164,38.446,222.888,38.723,222.547,38.723"/>
	<path d="M222.547,38.723c-0.339,0-0.618-0.277-0.618-0.616c0-0.346,0.279-0.624,0.618-0.624c0.341,0,0.617,0.277,0.617,0.624
		C223.164,38.446,222.888,38.723,222.547,38.723z"/>
	<path d="M234.492,39.339c-0.949-0.085-0.312,0.275-0.16,0.336c8.438,1.322,15.658-4.828,15.658-4.828
		c0.278-0.32,0.592-0.755,0.333-1.185c-0.167-0.289-0.606-0.182-0.841-0.09C249.482,33.572,242.77,40.138,234.492,39.339"/>
	<path d="M234.492,39.339c-0.949-0.085-0.312,0.275-0.16,0.336c8.438,1.322,15.658-4.828,15.658-4.828
		c0.278-0.32,0.592-0.755,0.333-1.185c-0.167-0.289-0.606-0.182-0.841-0.09C249.482,33.572,242.77,40.138,234.492,39.339z"/>
	<path d="M252.137,27.025c0.833,0,1.51-0.677,1.51-1.511c0-0.827-0.677-1.508-1.51-1.508s-1.51,0.681-1.51,1.508
		C250.627,26.348,251.304,27.025,252.137,27.025"/>
	<path d="M252.137,27.025c0.833,0,1.51-0.677,1.51-1.511c0-0.827-0.677-1.508-1.51-1.508s-1.51,0.681-1.51,1.508
		C250.627,26.348,251.304,27.025,252.137,27.025z"/>
	<path d="M255.592,30.344c0.835,0,1.503-0.673,1.503-1.502c0-0.833-0.668-1.496-1.503-1.496c-0.834,0-1.505,0.663-1.505,1.496
		C254.087,29.671,254.758,30.344,255.592,30.344"/>
	<path d="M255.592,30.344c0.835,0,1.503-0.673,1.503-1.502c0-0.833-0.668-1.496-1.503-1.496c-0.834,0-1.505,0.663-1.505,1.496
		C254.087,29.671,254.758,30.344,255.592,30.344z"/>
	<path d="M234.642,35.524c0.339,0,0.616-0.274,0.616-0.616c0-0.343-0.277-0.62-0.616-0.62c-0.342,0-0.616,0.277-0.616,0.62
		C234.025,35.25,234.3,35.524,234.642,35.524"/>
	<circle cx="234.642" cy="34.906" r="0.618"/>
	<path d="M240.842,29.882c0.502,0,0.907-0.414,0.907-0.909c0-0.499-0.405-0.905-0.907-0.905c-0.5,0-0.911,0.406-0.911,0.905
		C239.931,29.468,240.342,29.882,240.842,29.882"/>
	<path d="M240.842,29.882c0.502,0,0.907-0.414,0.907-0.909c0-0.499-0.405-0.905-0.907-0.905c-0.5,0-0.911,0.406-0.911,0.905
		C239.931,29.468,240.342,29.882,240.842,29.882z"/>
	<path d="M238.714,32.45c0.505,0,0.909-0.407,0.909-0.905c0-0.495-0.404-0.908-0.909-0.908c-0.5,0-0.901,0.413-0.901,0.908
		C237.812,32.043,238.214,32.45,238.714,32.45"/>
	<path d="M238.714,32.45c0.505,0,0.909-0.407,0.909-0.905c0-0.495-0.404-0.908-0.909-0.908c-0.5,0-0.901,0.413-0.901,0.908
		C237.812,32.043,238.214,32.45,238.714,32.45z"/>
	<path d="M236.769,34.167c0.414,0,0.739-0.334,0.739-0.741c0-0.406-0.325-0.741-0.739-0.741c-0.413,0-0.739,0.334-0.739,0.741
		C236.029,33.833,236.355,34.167,236.769,34.167"/>
	<path d="M236.769,34.167c0.414,0,0.739-0.334,0.739-0.741c0-0.406-0.325-0.741-0.739-0.741c-0.413,0-0.739,0.334-0.739,0.741
		C236.029,33.833,236.355,34.167,236.769,34.167z"/>
	<path d="M237.349,38.894c0.342,0,0.623-0.277,0.623-0.612c0-0.342-0.281-0.62-0.623-0.62c-0.334,0-0.617,0.277-0.617,0.62
		C236.731,38.617,237.015,38.894,237.349,38.894"/>
	<path d="M237.349,38.894c0.342,0,0.623-0.277,0.623-0.612c0-0.342-0.281-0.62-0.623-0.62c-0.334,0-0.617,0.277-0.617,0.62
		C236.731,38.617,237.015,38.894,237.349,38.894z"/>
	<path d="M247.573,26.519c0.745,0,1.356-0.605,1.356-1.356c0-0.756-0.611-1.361-1.356-1.361c-0.747,0-1.359,0.605-1.359,1.361
		C246.214,25.913,246.826,26.519,247.573,26.519"/>
	<path d="M247.573,26.519c0.745,0,1.356-0.605,1.356-1.356c0-0.756-0.611-1.361-1.356-1.361c-0.747,0-1.359,0.605-1.359,1.361
		C246.214,25.913,246.826,26.519,247.573,26.519z"/>
	<path d="M243.766,27.605c0.607,0,1.11-0.498,1.11-1.115c0-0.616-0.503-1.111-1.11-1.111c-0.612,0-1.114,0.495-1.114,1.111
		C242.651,27.107,243.153,27.605,243.766,27.605"/>
	<path d="M243.766,27.605c0.607,0,1.11-0.498,1.11-1.115c0-0.616-0.503-1.111-1.11-1.111c-0.612,0-1.114,0.495-1.114,1.111
		C242.651,27.107,243.153,27.605,243.766,27.605z"/>
	<path d="M245.886,34.311c0.508,0,0.913-0.404,0.913-0.902c0-0.505-0.405-0.908-0.913-0.908c-0.497,0-0.903,0.402-0.903,0.908
		C244.982,33.907,245.389,34.311,245.886,34.311"/>
	<path d="M245.886,34.311c0.508,0,0.913-0.404,0.913-0.902c0-0.505-0.405-0.908-0.913-0.908c-0.497,0-0.903,0.402-0.903,0.908
		C244.982,33.907,245.389,34.311,245.886,34.311z"/>
	<path d="M248.902,32.472c0.613,0,1.115-0.495,1.115-1.108c0-0.616-0.502-1.104-1.115-1.104c-0.606,0-1.109,0.488-1.109,1.104
		C247.793,31.977,248.296,32.472,248.902,32.472"/>
	<path d="M248.902,32.472c0.613,0,1.115-0.495,1.115-1.108c0-0.616-0.502-1.104-1.115-1.104c-0.606,0-1.109,0.488-1.109,1.104
		C247.793,31.977,248.296,32.472,248.902,32.472z"/>
	<path d="M243.058,36.433c0.494,0,0.901-0.402,0.901-0.909c0-0.491-0.407-0.901-0.901-0.901c-0.499,0-0.907,0.41-0.907,0.901
		C242.15,36.031,242.559,36.433,243.058,36.433"/>
	<path d="M243.058,36.433c0.494,0,0.901-0.402,0.901-0.909c0-0.491-0.407-0.901-0.901-0.901c-0.499,0-0.907,0.41-0.907,0.901
		C242.15,36.031,242.559,36.433,243.058,36.433z"/>
	<path d="M240.041,38.132c0.42,0,0.739-0.331,0.739-0.741c0-0.413-0.319-0.745-0.739-0.745c-0.411,0-0.736,0.332-0.736,0.745
		C239.305,37.802,239.63,38.132,240.041,38.132"/>
	<path d="M240.041,38.132c0.42,0,0.739-0.331,0.739-0.741c0-0.413-0.319-0.745-0.739-0.745c-0.411,0-0.736,0.332-0.736,0.745
		C239.305,37.802,239.63,38.132,240.041,38.132z"/>
	<path d="M235.07,38.723c0.339,0,0.615-0.277,0.615-0.616c0-0.346-0.276-0.624-0.615-0.624c-0.342,0-0.616,0.277-0.616,0.624
		C234.454,38.446,234.729,38.723,235.07,38.723"/>
	<path d="M235.07,38.723c0.339,0,0.615-0.277,0.615-0.616c0-0.346-0.276-0.624-0.615-0.624c-0.342,0-0.616,0.277-0.616,0.624
		C234.454,38.446,234.729,38.723,235.07,38.723z"/>
	<path d="M231.131,69.425c0.665,0,1.205-0.548,1.205-1.208v-3.278c0-0.661-0.54-1.203-1.205-1.203h-4.795
		c-0.667,0-1.209,0.542-1.209,1.203v3.278c0,0.66,0.542,1.208,1.209,1.208H231.131"/>
	<path d="M231.131,69.425c0.665,0,1.205-0.548,1.205-1.208v-3.278c0-0.661-0.54-1.203-1.205-1.203h-4.795
		c-0.667,0-1.209,0.542-1.209,1.203v3.278c0,0.66,0.542,1.208,1.209,1.208H231.131z"/>
	<path d="M220.095,66.409c0.803,0,1.459-0.756,1.459-1.689c0-0.941-0.656-1.7-1.459-1.7c-0.801,0-1.45,0.758-1.45,1.7
		C218.645,65.653,219.294,66.409,220.095,66.409"/>
	<path d="M220.095,66.409c0.803,0,1.459-0.756,1.459-1.689c0-0.941-0.656-1.7-1.459-1.7c-0.801,0-1.45,0.758-1.45,1.7
		C218.645,65.653,219.294,66.409,220.095,66.409z"/>
	<path d="M220.095,70.661c0.803,0,1.459-0.751,1.459-1.689c0-0.94-0.656-1.699-1.459-1.699c-0.801,0-1.45,0.759-1.45,1.699
		C218.645,69.91,219.294,70.661,220.095,70.661"/>
	<path d="M220.095,70.661c0.803,0,1.459-0.751,1.459-1.689c0-0.94-0.656-1.699-1.459-1.699c-0.801,0-1.45,0.759-1.45,1.699
		C218.645,69.91,219.294,70.661,220.095,70.661z"/>
	<path d="M208.052,71.991c0.493,0,0.895-0.542,0.895-1.219c0-0.669-0.401-1.215-0.895-1.215s-0.896,0.545-0.896,1.215
		C207.156,71.449,207.559,71.991,208.052,71.991"/>
	<path d="M208.052,71.991c0.493,0,0.895-0.542,0.895-1.219c0-0.669-0.401-1.215-0.895-1.215s-0.896,0.545-0.896,1.215
		C207.156,71.449,207.559,71.991,208.052,71.991z"/>
	<path d="M207.873,67.925c0.494,0,0.896-0.548,0.896-1.211c0-0.667-0.401-1.219-0.896-1.219c-0.491,0-0.889,0.552-0.889,1.219
		C206.984,67.377,207.381,67.925,207.873,67.925"/>
	<path d="M207.873,67.925c0.494,0,0.896-0.548,0.896-1.211c0-0.667-0.401-1.219-0.896-1.219c-0.491,0-0.889,0.552-0.889,1.219
		C206.984,67.377,207.381,67.925,207.873,67.925z"/>
	<path d="M249.073,72.126c-0.493,0-0.89-0.542-0.89-1.215c0-0.667,0.396-1.211,0.89-1.211c0.492,0,0.896,0.545,0.896,1.211
		C249.97,71.584,249.565,72.126,249.073,72.126"/>
	<path d="M249.073,72.126c-0.493,0-0.89-0.542-0.89-1.215c0-0.667,0.396-1.211,0.89-1.211c0.492,0,0.896,0.545,0.896,1.211
		C249.97,71.584,249.565,72.126,249.073,72.126z"/>
	<path d="M249.257,68.064c-0.487,0-0.894-0.549-0.894-1.214c0-0.682,0.406-1.219,0.894-1.219c0.497,0,0.892,0.538,0.892,1.219
		C250.148,67.515,249.754,68.064,249.257,68.064"/>
	<path d="M249.257,68.064c-0.487,0-0.894-0.549-0.894-1.214c0-0.682,0.406-1.219,0.894-1.219c0.497,0,0.892,0.538,0.892,1.219
		C250.148,67.515,249.754,68.064,249.257,68.064z"/>
	<path d="M262.196,36.704c0.484,0.307,0.484-1.086,1.292-0.556c1.291,0.845-1.036,4.784-1.036,4.784
		c-0.102,0.599,1.094-0.598,1.273,0.336c0.159,1.521-2.21,3.155-2.21,3.155c-0.157,0.428,0.772-0.103,0.588,0.617
		c0.046,0.809-1.55,1.667-1.089,2.159c0.084-0.024,1.101-0.535,1.426-0.855c2.574-2.619,3.567-7.406,2.449-10.729
		c-0.94-2.793-4.435-4.46-5.403-4.65c-0.951-0.185-0.918,0.72-0.212,0.952C262.965,33.138,261.707,36.394,262.196,36.704"/>
	<path d="M262.196,36.704c0.484,0.307,0.484-1.086,1.292-0.556c1.291,0.845-1.036,4.784-1.036,4.784
		c-0.102,0.599,1.094-0.598,1.273,0.336c0.159,1.521-2.21,3.155-2.21,3.155c-0.157,0.428,0.772-0.103,0.588,0.617
		c0.046,0.809-1.55,1.667-1.089,2.159c0.084-0.024,1.101-0.535,1.426-0.855c2.574-2.619,3.567-7.406,2.449-10.729
		c-0.94-2.793-4.435-4.46-5.403-4.65c-0.951-0.185-0.918,0.72-0.212,0.952C262.965,33.138,261.707,36.394,262.196,36.704z"/>
	<path d="M240.959,47.844l0.432-0.413c0,0-3.221-2.58-7.289-2.807l-0.523,0.693C237.367,45.385,240.959,47.844,240.959,47.844"/>
	<path d="M240.959,47.844l0.432-0.413c0,0-3.221-2.58-7.289-2.807l-0.523,0.693C237.367,45.385,240.959,47.844,240.959,47.844z"/>
	<path d="M229.349,61.926c0,0,13.563-0.178,24.147,3.491c0,0,1.014-0.04,1.164-0.784c0.029-0.677-1.198-0.948-1.863-1.283
		c-7.341-2.653-15.308-3.259-23.611-3.37h-0.909c-8.298,0.111-16.264,0.716-23.608,3.37c-0.665,0.335-1.889,0.436-1.86,1.283
		c0.496,0.93,1.475,0.745,1.475,0.745c11.339-3.985,23.836-3.452,23.836-3.452H229.349"/>
	<path d="M229.349,61.926c0,0,13.563-0.178,24.147,3.491c0,0,1.014-0.04,1.164-0.784c0.029-0.677-1.198-0.948-1.863-1.283
		c-7.341-2.653-15.308-3.259-23.611-3.37h-0.909c-8.298,0.111-16.264,0.716-23.608,3.37c-0.665,0.335-1.889,0.436-1.86,1.283
		c0.496,0.93,1.475,0.745,1.475,0.745c11.339-3.985,23.836-3.452,23.836-3.452H229.349z"/>
	<path d="M244.042,64.367c-0.63,0-1.815,2.394-1.82,3.042c0,0.759,1.309,3.653,1.82,3.635c0.815-0.033,1.731-3.011,1.811-3.635
		C245.937,66.778,244.675,64.367,244.042,64.367"/>
	<path d="M244.042,64.367c-0.63,0-1.815,2.394-1.82,3.042c0,0.759,1.309,3.653,1.82,3.635c0.815-0.033,1.731-3.011,1.811-3.635
		C245.937,66.778,244.675,64.367,244.042,64.367z"/>
	<path d="M253.429,74.355c-4.183-1.603-14.863-2.629-23.002-2.871h-3.274c-8.137,0.242-18.815,1.268-22.996,2.871
		c-1.067,0.399-0.506,1.104-0.506,1.104c2.761,1.543,23.623,1.518,25.085,1.543h0.107c1.465-0.025,22.334,0,25.081-1.543
		C253.925,75.459,254.496,74.755,253.429,74.355 M229.643,75.663h-1.711c-2.382-0.228-20.986-0.716-20.986-0.716
		c12.31-1.86,23.495-1.755,19.974-1.661h3.481c-3.525-0.095,7.922-0.199,20.236,1.661C250.638,74.947,232.037,75.435,229.643,75.663
		"/>
	<path d="M253.429,74.355c-4.183-1.603-14.863-2.629-23.002-2.871h-3.274c-8.137,0.242-18.815,1.268-22.996,2.871
		c-1.067,0.399-0.506,1.104-0.506,1.104c2.761,1.543,23.623,1.518,25.085,1.543h0.107c1.465-0.025,22.334,0,25.081-1.543
		C253.925,75.459,254.496,74.755,253.429,74.355z M229.643,75.663h-1.711c-2.382-0.228-20.986-0.716-20.986-0.716
		c12.31-1.86,23.495-1.755,19.974-1.661h3.481c-3.525-0.095,7.922-0.199,20.236,1.661C250.638,74.947,232.037,75.435,229.643,75.663
		z"/>
	<path d="M237.242,66.409c-0.797,0-1.456-0.756-1.456-1.689c0-0.941,0.659-1.7,1.456-1.7c0.798,0,1.451,0.758,1.451,1.7
		C238.693,65.653,238.04,66.409,237.242,66.409"/>
	<path d="M237.242,66.409c-0.797,0-1.456-0.756-1.456-1.689c0-0.941,0.659-1.7,1.456-1.7c0.798,0,1.451,0.758,1.451,1.7
		C238.693,65.653,238.04,66.409,237.242,66.409z"/>
	<path d="M237.242,70.661c-0.797,0-1.456-0.751-1.456-1.689c0-0.94,0.659-1.699,1.456-1.699c0.798,0,1.451,0.759,1.451,1.699
		C238.693,69.91,238.04,70.661,237.242,70.661"/>
	<path d="M237.242,70.661c-0.797,0-1.456-0.751-1.456-1.689c0-0.94,0.659-1.699,1.456-1.699c0.798,0,1.451,0.759,1.451,1.699
		C238.693,69.91,238.04,70.661,237.242,70.661z"/>
	<path d="M228.736,34.933c-0.617,0-1.111-0.499-1.111-1.114c0-0.605,0.494-1.104,1.111-1.104c0.612,0,1.11,0.499,1.11,1.104
		C229.847,34.434,229.349,34.933,228.736,34.933"/>
	<path d="M228.736,34.933c-0.617,0-1.111-0.499-1.111-1.114c0-0.605,0.494-1.104,1.111-1.104c0.612,0,1.11,0.499,1.11,1.104
		C229.847,34.434,229.349,34.933,228.736,34.933z"/>
	<path d="M228.736,37.291c-0.413,0-0.738-0.334-0.738-0.747c0-0.406,0.325-0.739,0.738-0.739c0.401,0,0.737,0.333,0.737,0.739
		C229.474,36.957,229.138,37.291,228.736,37.291"/>
	<path d="M228.736,37.291c-0.413,0-0.738-0.334-0.738-0.747c0-0.406,0.325-0.739,0.738-0.739c0.401,0,0.737,0.333,0.737,0.739
		C229.474,36.957,229.138,37.291,228.736,37.291z"/>
	<path d="M228.736,39.489c-0.341,0-0.617-0.27-0.617-0.616c0-0.349,0.276-0.616,0.617-0.616c0.342,0,0.614,0.267,0.614,0.616
		C229.351,39.22,229.078,39.489,228.736,39.489"/>
	<path d="M228.736,39.489c-0.341,0-0.617-0.27-0.617-0.616c0-0.349,0.276-0.616,0.617-0.616c0.342,0,0.614,0.267,0.614,0.616
		C229.351,39.22,229.078,39.489,228.736,39.489z"/>
	<path d="M234.487,16.964c0,0-0.031-1.599-1.149-1.599c-1.013,0-0.877,1.599-0.877,1.599h-2.906V14.78c0,0,1.508,0.05,1.641-0.926
		c-0.133-1.418-1.722-1.15-1.722-1.15c0.571-0.503,0.065-1.457-0.755-1.429c-0.951,0.039-1.131,1.097-0.662,1.429
		c0,0-1.599,0.032-1.599,1.15c0,1.008,1.514,0.876,1.514,0.876v2.233h-2.884c0,0,0.13-1.599-0.884-1.599
		c-1.111,0-1.142,1.599-1.142,1.599c-0.441-0.353-1.378,0.064-1.429,0.667c-0.064,0.794,0.93,1.325,1.429,0.755
		c0,0-0.166,1.771,1.142,1.732c0.95,0.11,0.931-1.732,0.931-1.732h2.837v4.304c0.2,0-4.457,0.595-4.94,4.657
		c-0.498,4.078,1.896,5.625,1.896,5.625s0.625-3.402,3.55-3.466h0.594c2.925,0.064,3.547,3.466,3.547,3.466s2.394-1.547,1.911-5.625
		c-0.499-4.062-5.153-4.657-4.955-4.657h0.028l-0.047-4.304h2.857c0,0-0.024,1.842,0.926,1.732c1.316,0.039,1.149-1.732,1.149-1.732
		c0.493,0.57,1.497,0.039,1.427-0.755C235.862,17.028,234.93,16.611,234.487,16.964 M229.815,23.961c0,0,0.4,0.997,0.418,2.094
		c0,0,1.821,0.371,3.379,1.291l-0.095,1.524c-3.361-1.062-6.281-0.977-9.492,0c-0.331,0.103-0.103-1.524-0.103-1.524
		c1.566-0.92,3.39-1.291,3.39-1.291c0.01-1.097,0.416-2.094,0.416-2.094c0.311-0.161,0.69-0.183,1.042-0.154
		C229.124,23.779,229.508,23.801,229.815,23.961"/>
	<path d="M234.487,16.964c0,0-0.031-1.599-1.149-1.599c-1.013,0-0.877,1.599-0.877,1.599h-2.906V14.78c0,0,1.508,0.05,1.641-0.926
		c-0.133-1.418-1.722-1.15-1.722-1.15c0.571-0.503,0.065-1.457-0.755-1.429c-0.951,0.039-1.131,1.097-0.662,1.429
		c0,0-1.599,0.032-1.599,1.15c0,1.008,1.514,0.876,1.514,0.876v2.233h-2.884c0,0,0.13-1.599-0.884-1.599
		c-1.111,0-1.142,1.599-1.142,1.599c-0.441-0.353-1.378,0.064-1.429,0.667c-0.064,0.794,0.93,1.325,1.429,0.755
		c0,0-0.166,1.771,1.142,1.732c0.95,0.11,0.931-1.732,0.931-1.732h2.837v4.304c0.2,0-4.457,0.595-4.94,4.657
		c-0.498,4.078,1.896,5.625,1.896,5.625s0.625-3.402,3.55-3.466h0.594c2.925,0.064,3.547,3.466,3.547,3.466s2.394-1.547,1.911-5.625
		c-0.499-4.062-5.153-4.657-4.955-4.657h0.028l-0.047-4.304h2.857c0,0-0.024,1.842,0.926,1.732c1.316,0.039,1.149-1.732,1.149-1.732
		c0.493,0.57,1.497,0.039,1.427-0.755C235.862,17.028,234.93,16.611,234.487,16.964z M229.815,23.961c0,0,0.4,0.997,0.418,2.094
		c0,0,1.821,0.371,3.379,1.291l-0.095,1.524c-3.361-1.062-6.281-0.977-9.492,0c-0.331,0.103-0.103-1.524-0.103-1.524
		c1.566-0.92,3.39-1.291,3.39-1.291c0.01-1.097,0.416-2.094,0.416-2.094c0.311-0.161,0.69-0.183,1.042-0.154
		C229.124,23.779,229.508,23.801,229.815,23.961z"/>
	<path d="M247.133,56.843c0,0.002-0.005,0-0.005,0C247.076,56.874,247.061,56.886,247.133,56.843"/>
	<path d="M247.133,56.843c0,0.002-0.005,0-0.005,0C247.076,56.874,247.061,56.886,247.133,56.843z"/>
	<polygon points="228.729,40.896 228.731,40.896 228.736,40.896 	"/>
	<polygon points="228.729,40.896 228.731,40.896 228.736,40.896 	"/>
	<path d="M264.568,48.556c-0.666-0.955-1.57-1.336-2.889-0.759c-1.026,0.328-1.791,0.973-2.79,1.693
		c-0.288-0.63-0.074-1.461-0.498-2.038c-0.692,0.024-0.994,0.814-1.362,1.268c-0.208,1.132-0.288,2.422-0.244,3.559l-0.164,0.16
		c-0.364-0.538-0.472-1.197-1.198-1.342l-0.588,0.082c-0.148,0.456,0.575,0.77,0.588,1.26c-0.524,0.47-0.968-0.552-1.609-0.074
		c-1.029,1.147-0.917,3.206-0.416,4.56l0.783,0.883c-0.357,0.459-1.396,0.008-1.469,0.642c-0.062,1.154,1.899,0.092,1.469,0.883
		c0,0-0.934,1.734-1.734,1.531c-1.037-0.267-1.561-2.258-1.401-3.192c-0.125-0.862,1.21-0.727,1.42-1.677
		c0.257-0.581-0.147-1.842-1.006-2.113c-0.922-0.273-1.688,0.353-1.949,1.104c-0.475,1.025,0.861,1.414,0.503,2.288
		c-0.407,0.854-1.815,2.401-3.016,1.795c-1.187-0.599-0.992-2.989-0.992-2.989c0.348,0.21,0.711,0.947,1.122,0.759
		c0.149-0.078,0.637-0.345,0.54-0.499c0.133-0.192-0.913-0.427-1.258-0.858c0.8,0.167,1.391,0.195,1.985-0.396
		c0.935-0.735,1.669-3.46,1.021-3.823c-0.614-0.501-1.737-0.039-1.615-0.499c0.267-0.477,1.547-0.002,1.181-0.812
		c-0.837-1.184-1.442,0.812-1.979-0.114c-0.262-0.798,0.784-0.94,1.291-1.437c0.508-0.498,2.159-2.279,1.432-2.731
		c-0.733-0.45-1.192,0.512-1.593-0.021c0.167-0.417,2.265-2.06,1.332-2.797c-1.689-1.318-2.552,2.298-2.552,2.298
		c-0.575-0.457-0.276-0.927-1.049-1.166c-1.031,0.31-0.988,2.394-0.759,3.296c0.24,0.897,0.968,1.759,0.356,2.151
		c-0.566,0.256-1.26-2.19-2.07-0.997c-0.288,0.456,0.693,0.605,0.619,1.264c-0.08,0.802-1.02-0.462-1.21-0.48
		c-0.566-0.17-0.594-0.117-1.041,0.221c-0.868,1.39-0.868,3.052-0.397,3.915c0.463,0.798,1.79,1.325,1.79,1.325
		c-0.278,0.035-1.248-0.024-1.43,0.222c-0.028,0.388,0.112,0.819,0.438,0.915c0.6,0,1.057-0.199,1.591-0.235
		c-0.271,1.069-1.007,2.483-3.13,2.391c-2.122-0.096-2.281-3.238-2.281-3.238c0.548-0.485,1.294-0.78,1.376-1.831
		c0.09-1.154-0.881-2.138-1.81-2.274c-0.796-0.103-2.079,0.938-1.995,1.925c-0.135,1.129,0.446,1.506,0.858,1.999
		c-0.543,1.053-1.681,2.82-3.003,2.885c-1.378,0.181-2.513-0.552-3.222-1.607c-0.288-0.517-0.841-1.122-0.511-1.693
		c0.651,0.064,0.764,0.874,1.447,0.848c0.399-0.085,0.895-0.128,1.094-0.516c-0.101-0.392-1.433-0.222-0.668-0.849
		c1.156,0.061,2.026-0.594,2.533-1.591c0.537-0.995,0.605-2.662,0.348-3.31c-0.46-0.556-1.003-0.983-1.784-0.68
		c-0.429,0.031-0.975,0.698-1.275,0.084c-0.061-0.862,2.372-0.688,0.759-1.429c-0.627-0.024-1.202,0.263-1.507,0.848
		c0,0.26-0.308,0.484-0.519,0.581c-0.253,0.062-0.443-0.054-0.594-0.249c-0.144-0.845,0.969-1.17,1.19-1.86
		c0.395-0.699,1.182-2.536,0.253-3.645c-0.253-0.188-0.668-0.377-0.767,0.089c-0.119,0.306-0.025,0.722-0.414,0.934
		c-0.273,0.086-0.528-0.111-0.599-0.346c-0.125-0.756,0.526-2.049-0.795-2.155c-1.325,0.106-0.68,1.399-0.808,2.155
		c-0.067,0.235-0.316,0.432-0.593,0.346c-0.393-0.211-0.297-0.628-0.421-0.934c-0.096-0.466-0.512-0.277-0.76-0.089
		c-0.932,1.108-0.147,2.945,0.248,3.645c0.222,0.69,1.33,1.015,1.195,1.86c-0.153,0.195-0.349,0.31-0.6,0.249
		c-0.205-0.097-0.513-0.32-0.513-0.581c-0.301-0.585-0.888-0.873-1.51-0.848c-1.612,0.741,0.816,0.566,0.76,1.429
		c-0.303,0.613-0.847-0.054-1.273-0.084c-0.784-0.303-1.318,0.124-1.781,0.68c-0.261,0.648-0.19,2.315,0.353,3.31
		c0.496,0.997,1.366,1.652,2.527,1.591c0.759,0.627-0.572,0.457-0.672,0.849c0.195,0.388,0.701,0.431,1.1,0.516
		c0.677,0.026,0.789-0.784,1.445-0.848c0.331,0.571-0.227,1.176-0.52,1.693c-0.704,1.055-1.842,1.788-3.218,1.607
		c-1.317-0.065-2.463-1.833-3.002-2.885c0.415-0.493,0.997-0.87,0.863-1.999c-0.088-0.816-1.198-2.027-1.994-1.925
		c-0.928,0.136-1.908,1.12-1.814,2.274c0.088,1.05,0.825,1.346,1.381,1.831c0,0-0.165,3.142-2.287,3.238
		c-2.119,0.092-2.865-1.322-3.124-2.391c0.53,0.037,0.999,0.235,1.591,0.235c0.32-0.096,0.459-0.527,0.435-0.915
		c-0.18-0.246-1.151-0.187-1.433-0.222c0,0,1.335-0.527,1.796-1.325c0.469-0.862,0.469-2.525-0.397-3.915
		c-0.454-0.338-0.475-0.392-1.042-0.221c-0.195,0.018-1.134,1.283-1.217,0.48c-0.066-0.659,0.918-0.809,0.616-1.264
		c-0.801-1.193-1.5,1.253-2.063,0.997c-0.612-0.392,0.12-1.253,0.352-2.151c0.232-0.902,0.27-2.986-0.754-3.296
		c-0.768,0.239-0.474,0.708-1.042,1.166c0,0-0.867-3.616-2.556-2.298c-0.931,0.737,1.166,2.38,1.33,2.797
		c-0.397,0.534-0.858-0.428-1.587,0.021c-0.73,0.453,0.923,2.234,1.423,2.731c0.511,0.496,1.558,0.638,1.29,1.437
		c-0.525,0.926-1.13-1.069-1.98,0.114c-0.358,0.809,0.92,0.335,1.189,0.812c0.112,0.459-1.002-0.002-1.62,0.499
		c-0.643,0.363,0.092,3.088,1.019,3.823c0.602,0.591,1.185,0.562,1.993,0.396c-0.347,0.431-1.392,0.666-1.262,0.858
		c-0.099,0.154,0.389,0.421,0.54,0.499c0.416,0.188,0.774-0.548,1.12-0.759c0,0,0.204,2.39-0.993,2.989
		c-1.201,0.606-2.606-0.941-3.011-1.795c-0.356-0.874,0.974-1.262,0.499-2.288c-0.261-0.751-1.025-1.378-1.94-1.104
		c-0.863,0.271-1.266,1.533-1.013,2.113c0.215,0.95,1.542,0.815,1.421,1.677c0.153,0.934-0.367,2.925-1.405,3.192
		c-0.799,0.203-1.728-1.531-1.728-1.531c-0.433-0.791,1.526,0.271,1.459-0.883c-0.066-0.634-1.102-0.183-1.459-0.642l0.786-0.883
		c0.494-1.354,0.606-3.413-0.425-4.56c-0.638-0.478-1.078,0.544-1.603,0.074c0.012-0.491,0.735-0.804,0.58-1.26l-0.58-0.082
		c-0.738,0.146-0.839,0.805-1.198,1.342l-0.164-0.16c0.041-1.137-0.043-2.426-0.252-3.559c-0.36-0.454-0.663-1.244-1.357-1.268
		c-0.421,0.576-0.212,1.407-0.503,2.038c-0.997-0.72-1.758-1.365-2.787-1.693c-1.359-0.577-2.223-0.195-2.887,0.759
		c-0.505,0.681,1.292,0.958,1.691,1.026c3.58,0.652,4.879,4.026,4.879,4.026c-0.433,1.008,1.601,4.815,2.598,4.948
		c0,0,0.291,2.571,1.919,3.198c0.724,0.215,1.513,0.041,2.026-0.516c0.797-0.706,0.752-1.863,1.129-2.701
		c0.548,0.435,1.596,2.126,3.795,1.56c1.602-0.413,1.586-4.154,1.586-4.154c0.996,1.995,2.326,3.659,4.449,3.324
		c1.925-0.264,2.455-1.528,3.005-4.118c0,0,1.173,3.868,4.037,3.708c3.385-0.189,4.638-4.15,4.638-4.15h0.083
		c0,0,1.321,3.961,4.714,4.15c2.864,0.16,4.044-3.708,4.044-3.708c0.543,2.59,1.071,3.854,2.998,4.118
		c2.125,0.335,3.455-1.33,4.456-3.324c0,0-0.021,3.741,1.586,4.154c2.198,0.566,3.242-1.125,3.784-1.56
		c0.382,0.837,0.341,1.995,1.141,2.701c0.509,0.556,1.303,0.73,2.023,0.516c1.625-0.626,1.923-3.198,1.923-3.198
		c0.991-0.133,3.022-3.94,2.588-4.948c0,0,1.308-3.374,4.886-4.026C263.273,49.514,265.074,49.237,264.568,48.556 M201.327,56.775
		c-0.284,0.117-0.735-0.318-0.998-0.967c-0.258-0.645-0.242-1.264,0.048-1.389c0.29-0.109,0.737,0.322,1.002,0.97
		C201.643,56.038,201.62,56.654,201.327,56.775 M212.452,54.302c-0.26,0.353-1.38-0.819-1.589-1.486
		c-0.29-0.901,0.181-1.931,0.666-2.315c0.764,0.209,1.202,0.973,1.43,1.777C213.017,52.882,212.918,53.683,212.452,54.302
		 M227.718,52.624c-0.411,0-0.746-0.331-0.746-0.737V49.9c0-0.407,0.335-0.735,0.746-0.735h2.032c0.416,0,0.744,0.328,0.744,0.735
		v1.987c0,0.406-0.328,0.737-0.744,0.737H227.718z M245.014,54.302c-0.467-0.62-0.565-1.42-0.503-2.023
		c0.222-0.805,0.667-1.568,1.426-1.777c0.491,0.384,1.01,1.439,0.666,2.315C246.357,53.461,245.274,54.655,245.014,54.302
		 M257.131,55.809c-0.258,0.649-0.705,1.083-0.995,0.967c-0.283-0.121-0.302-0.737-0.046-1.386c0.263-0.648,0.708-1.08,0.997-0.97
		C257.378,54.545,257.397,55.164,257.131,55.809"/>
	<path d="M264.568,48.556c-0.666-0.955-1.57-1.336-2.889-0.759c-1.026,0.328-1.791,0.973-2.79,1.693
		c-0.288-0.63-0.074-1.461-0.498-2.038c-0.692,0.024-0.994,0.814-1.362,1.268c-0.208,1.132-0.288,2.422-0.244,3.559l-0.164,0.16
		c-0.364-0.538-0.472-1.197-1.198-1.342l-0.588,0.082c-0.148,0.456,0.575,0.77,0.588,1.26c-0.524,0.47-0.968-0.552-1.609-0.074
		c-1.029,1.147-0.917,3.206-0.416,4.56l0.783,0.883c-0.357,0.459-1.396,0.008-1.469,0.642c-0.062,1.154,1.899,0.092,1.469,0.883
		c0,0-0.934,1.734-1.734,1.531c-1.037-0.267-1.561-2.258-1.401-3.192c-0.125-0.862,1.21-0.727,1.42-1.677
		c0.257-0.581-0.147-1.842-1.006-2.113c-0.922-0.273-1.688,0.353-1.949,1.104c-0.475,1.025,0.861,1.414,0.503,2.288
		c-0.407,0.854-1.815,2.401-3.016,1.795c-1.187-0.599-0.992-2.989-0.992-2.989c0.348,0.21,0.711,0.947,1.122,0.759
		c0.149-0.078,0.637-0.345,0.54-0.499c0.133-0.192-0.913-0.427-1.258-0.858c0.8,0.167,1.391,0.195,1.985-0.396
		c0.935-0.735,1.669-3.46,1.021-3.823c-0.614-0.501-1.737-0.039-1.615-0.499c0.267-0.477,1.547-0.002,1.181-0.812
		c-0.837-1.184-1.442,0.812-1.979-0.114c-0.262-0.798,0.784-0.94,1.291-1.437c0.508-0.498,2.159-2.279,1.432-2.731
		c-0.733-0.45-1.192,0.512-1.593-0.021c0.167-0.417,2.265-2.06,1.332-2.797c-1.689-1.318-2.552,2.298-2.552,2.298
		c-0.575-0.457-0.276-0.927-1.049-1.166c-1.031,0.31-0.988,2.394-0.759,3.296c0.24,0.897,0.968,1.759,0.356,2.151
		c-0.566,0.256-1.26-2.19-2.07-0.997c-0.288,0.456,0.693,0.605,0.619,1.264c-0.08,0.802-1.02-0.462-1.21-0.48
		c-0.566-0.17-0.594-0.117-1.041,0.221c-0.868,1.39-0.868,3.052-0.397,3.915c0.463,0.798,1.79,1.325,1.79,1.325
		c-0.278,0.035-1.248-0.024-1.43,0.222c-0.028,0.388,0.112,0.819,0.438,0.915c0.6,0,1.057-0.199,1.591-0.235
		c-0.271,1.069-1.007,2.483-3.13,2.391c-2.122-0.096-2.281-3.238-2.281-3.238c0.548-0.485,1.294-0.78,1.376-1.831
		c0.09-1.154-0.881-2.138-1.81-2.274c-0.796-0.103-2.079,0.938-1.995,1.925c-0.135,1.129,0.446,1.506,0.858,1.999
		c-0.543,1.053-1.681,2.82-3.003,2.885c-1.378,0.181-2.513-0.552-3.222-1.607c-0.288-0.517-0.841-1.122-0.511-1.693
		c0.651,0.064,0.764,0.874,1.447,0.848c0.399-0.085,0.895-0.128,1.094-0.516c-0.101-0.392-1.433-0.222-0.668-0.849
		c1.156,0.061,2.026-0.594,2.533-1.591c0.537-0.995,0.605-2.662,0.348-3.31c-0.46-0.556-1.003-0.983-1.784-0.68
		c-0.429,0.031-0.975,0.698-1.275,0.084c-0.061-0.862,2.372-0.688,0.759-1.429c-0.627-0.024-1.202,0.263-1.507,0.848
		c0,0.26-0.308,0.484-0.519,0.581c-0.253,0.062-0.443-0.054-0.594-0.249c-0.144-0.845,0.969-1.17,1.19-1.86
		c0.395-0.699,1.182-2.536,0.253-3.645c-0.253-0.188-0.668-0.377-0.767,0.089c-0.119,0.306-0.025,0.722-0.414,0.934
		c-0.273,0.086-0.528-0.111-0.599-0.346c-0.125-0.756,0.526-2.049-0.795-2.155c-1.325,0.106-0.68,1.399-0.808,2.155
		c-0.067,0.235-0.316,0.432-0.593,0.346c-0.393-0.211-0.297-0.628-0.421-0.934c-0.096-0.466-0.512-0.277-0.76-0.089
		c-0.932,1.108-0.147,2.945,0.248,3.645c0.222,0.69,1.33,1.015,1.195,1.86c-0.153,0.195-0.349,0.31-0.6,0.249
		c-0.205-0.097-0.513-0.32-0.513-0.581c-0.301-0.585-0.888-0.873-1.51-0.848c-1.612,0.741,0.816,0.566,0.76,1.429
		c-0.303,0.613-0.847-0.054-1.273-0.084c-0.784-0.303-1.318,0.124-1.781,0.68c-0.261,0.648-0.19,2.315,0.353,3.31
		c0.496,0.997,1.366,1.652,2.527,1.591c0.759,0.627-0.572,0.457-0.672,0.849c0.195,0.388,0.701,0.431,1.1,0.516
		c0.677,0.026,0.789-0.784,1.445-0.848c0.331,0.571-0.227,1.176-0.52,1.693c-0.704,1.055-1.842,1.788-3.218,1.607
		c-1.317-0.065-2.463-1.833-3.002-2.885c0.415-0.493,0.997-0.87,0.863-1.999c-0.088-0.816-1.198-2.027-1.994-1.925
		c-0.928,0.136-1.908,1.12-1.814,2.274c0.088,1.05,0.825,1.346,1.381,1.831c0,0-0.165,3.142-2.287,3.238
		c-2.119,0.092-2.865-1.322-3.124-2.391c0.53,0.037,0.999,0.235,1.591,0.235c0.32-0.096,0.459-0.527,0.435-0.915
		c-0.18-0.246-1.151-0.187-1.433-0.222c0,0,1.335-0.527,1.796-1.325c0.469-0.862,0.469-2.525-0.397-3.915
		c-0.454-0.338-0.475-0.392-1.042-0.221c-0.195,0.018-1.134,1.283-1.217,0.48c-0.066-0.659,0.918-0.809,0.616-1.264
		c-0.801-1.193-1.5,1.253-2.063,0.997c-0.612-0.392,0.12-1.253,0.352-2.151c0.232-0.902,0.27-2.986-0.754-3.296
		c-0.768,0.239-0.474,0.708-1.042,1.166c0,0-0.867-3.616-2.556-2.298c-0.931,0.737,1.166,2.38,1.33,2.797
		c-0.397,0.534-0.858-0.428-1.587,0.021c-0.73,0.453,0.923,2.234,1.423,2.731c0.511,0.496,1.558,0.638,1.29,1.437
		c-0.525,0.926-1.13-1.069-1.98,0.114c-0.358,0.809,0.92,0.335,1.189,0.812c0.112,0.459-1.002-0.002-1.62,0.499
		c-0.643,0.363,0.092,3.088,1.019,3.823c0.602,0.591,1.185,0.562,1.993,0.396c-0.347,0.431-1.392,0.666-1.262,0.858
		c-0.099,0.154,0.389,0.421,0.54,0.499c0.416,0.188,0.774-0.548,1.12-0.759c0,0,0.204,2.39-0.993,2.989
		c-1.201,0.606-2.606-0.941-3.011-1.795c-0.356-0.874,0.974-1.262,0.499-2.288c-0.261-0.751-1.025-1.378-1.94-1.104
		c-0.863,0.271-1.266,1.533-1.013,2.113c0.215,0.95,1.542,0.815,1.421,1.677c0.153,0.934-0.367,2.925-1.405,3.192
		c-0.799,0.203-1.728-1.531-1.728-1.531c-0.433-0.791,1.526,0.271,1.459-0.883c-0.066-0.634-1.102-0.183-1.459-0.642l0.786-0.883
		c0.494-1.354,0.606-3.413-0.425-4.56c-0.638-0.478-1.078,0.544-1.603,0.074c0.012-0.491,0.735-0.804,0.58-1.26l-0.58-0.082
		c-0.738,0.146-0.839,0.805-1.198,1.342l-0.164-0.16c0.041-1.137-0.043-2.426-0.252-3.559c-0.36-0.454-0.663-1.244-1.357-1.268
		c-0.421,0.576-0.212,1.407-0.503,2.038c-0.997-0.72-1.758-1.365-2.787-1.693c-1.359-0.577-2.223-0.195-2.887,0.759
		c-0.505,0.681,1.292,0.958,1.691,1.026c3.58,0.652,4.879,4.026,4.879,4.026c-0.433,1.008,1.601,4.815,2.598,4.948
		c0,0,0.291,2.571,1.919,3.198c0.724,0.215,1.513,0.041,2.026-0.516c0.797-0.706,0.752-1.863,1.129-2.701
		c0.548,0.435,1.596,2.126,3.795,1.56c1.602-0.413,1.586-4.154,1.586-4.154c0.996,1.995,2.326,3.659,4.449,3.324
		c1.925-0.264,2.455-1.528,3.005-4.118c0,0,1.173,3.868,4.037,3.708c3.385-0.189,4.638-4.15,4.638-4.15h0.083
		c0,0,1.321,3.961,4.714,4.15c2.864,0.16,4.044-3.708,4.044-3.708c0.543,2.59,1.071,3.854,2.998,4.118
		c2.125,0.335,3.455-1.33,4.456-3.324c0,0-0.021,3.741,1.586,4.154c2.198,0.566,3.242-1.125,3.784-1.56
		c0.382,0.837,0.341,1.995,1.141,2.701c0.509,0.556,1.303,0.73,2.023,0.516c1.625-0.626,1.923-3.198,1.923-3.198
		c0.991-0.133,3.022-3.94,2.588-4.948c0,0,1.308-3.374,4.886-4.026C263.273,49.514,265.074,49.237,264.568,48.556z M201.327,56.775
		c-0.284,0.117-0.735-0.318-0.998-0.967c-0.258-0.645-0.242-1.264,0.048-1.389c0.29-0.109,0.737,0.322,1.002,0.97
		C201.643,56.038,201.62,56.654,201.327,56.775z M212.452,54.302c-0.26,0.353-1.38-0.819-1.589-1.486
		c-0.29-0.901,0.181-1.931,0.666-2.315c0.764,0.209,1.202,0.973,1.43,1.777C213.017,52.882,212.918,53.683,212.452,54.302z
		 M227.718,52.624c-0.411,0-0.746-0.331-0.746-0.737V49.9c0-0.407,0.335-0.735,0.746-0.735h2.032c0.416,0,0.744,0.328,0.744,0.735
		v1.987c0,0.406-0.328,0.737-0.744,0.737H227.718z M245.014,54.302c-0.467-0.62-0.565-1.42-0.503-2.023
		c0.222-0.805,0.667-1.568,1.426-1.777c0.491,0.384,1.01,1.439,0.666,2.315C246.357,53.461,245.274,54.655,245.014,54.302z
		 M257.131,55.809c-0.258,0.649-0.705,1.083-0.995,0.967c-0.283-0.121-0.302-0.737-0.046-1.386c0.263-0.648,0.708-1.08,0.997-0.97
		C257.378,54.545,257.397,55.164,257.131,55.809z"/>
	<path d="M210.337,56.843c0,0-0.003,0.002-0.003,0C210.407,56.886,210.394,56.874,210.337,56.843"/>
	<path d="M210.337,56.843c0,0-0.003,0.002-0.003,0C210.407,56.886,210.394,56.874,210.337,56.843z"/>
</g>
</svg>
