<?xml version="1.0" encoding="utf-8"?>
<!-- Generator: Adobe Illustrator 15.0.2, SVG Export Plug-In . SVG Version: 6.00 Build 0)  -->
<!DOCTYPE svg PUBLIC "-//W3C//DTD SVG 1.1//EN" "http://www.w3.org/Graphics/SVG/1.1/DTD/svg11.dtd">
<svg version="1.1" id="Layer_1" xmlns="http://www.w3.org/2000/svg" xmlns:xlink="http://www.w3.org/1999/xlink" x="0px" y="0px"
	 width="209.963px" height="256px" viewBox="0 0 209.963 256" enable-background="new 0 0 209.963 256" xml:space="preserve">
<g>
	<g>
		<rect y="159.313" fill="#231F20" width="10.352" height="50.037"/>
		<polygon fill="#231F20" points="38.199,200.855 52.835,200.855 52.835,209.351 27.859,209.351 27.859,159.313 38.199,159.313 		
			"/>
		<path fill="#231F20" d="M99.871,159.313h10.342v28.007c0,6.161,0.57,14.864,9.37,14.864c8.784,0,9.368-8.703,9.368-14.864v-28.007
			h10.34v29.935c0,12.207-5.492,21.437-19.708,21.437c-14.229,0-19.712-9.229-19.712-21.437V159.313z"/>
		<polygon fill="#231F20" points="75.687,200.855 90.326,200.854 90.326,209.351 65.346,209.351 65.346,159.313 75.687,159.313 		
			"/>
		<polygon fill="#231F20" points="183.114,209.351 194.573,178.988 194.705,178.988 199.451,209.351 209.963,209.351 
			200.95,159.142 193.596,159.142 179.719,192.978 165.842,159.142 158.486,159.142 149.473,209.351 159.986,209.351 
			164.732,178.988 164.863,178.988 176.322,209.351 		"/>
	</g>
	<g>
		<path fill="#231F20" d="M71.918,230.699c-0.541,0-0.99-0.103-1.484-0.335c-0.162-0.067-0.266-0.126-0.301-0.138
			c-0.046-0.022-0.103-0.033-0.137-0.033c-0.139,0-0.243,0.139-0.276,0.345h-0.393v-2.971h0.438
			c0.241,1.623,0.956,2.498,2.062,2.498c0.863,0,1.451-0.621,1.451-1.508c0-0.426-0.139-0.772-0.402-1.014
			c-0.255-0.219-0.52-0.358-1.221-0.61c-0.888-0.312-1.164-0.438-1.509-0.703c-0.438-0.345-0.679-0.887-0.679-1.519
			c0-1.302,0.943-2.212,2.278-2.212c0.507,0,0.91,0.127,1.337,0.414c0.218,0.151,0.252,0.173,0.322,0.173
			c0.115,0,0.185-0.103,0.218-0.333h0.381L74.015,225h-0.414c-0.267-1.232-0.888-1.901-1.786-1.901
			c-0.736,0-1.232,0.495-1.232,1.243c0,0.381,0.139,0.714,0.393,0.923c0.173,0.149,0.391,0.264,0.656,0.367
			c0.16,0.059,0.426,0.161,0.771,0.288c0.609,0.22,0.932,0.369,1.243,0.61c0.53,0.403,0.817,1.014,0.817,1.739
			C74.463,229.697,73.416,230.699,71.918,230.699z"/>
		<path fill="#231F20" d="M75.938,230.435v-0.369c0.656-0.012,0.967-0.08,1.163-0.276c0.126-0.115,0.185-0.3,0.206-0.576
			c0.012-0.206,0.023-0.299,0.023-0.874v-3.489v-0.508c0-0.126,0-0.253-0.012-0.367c-0.012-0.266-0.092-0.449-0.218-0.576
			c-0.184-0.195-0.507-0.266-1.163-0.276v-0.368h3.939v0.368c-0.67,0.011-0.979,0.081-1.188,0.276
			c-0.127,0.115-0.195,0.311-0.207,0.576c-0.012,0.194-0.012,0.367-0.012,0.875v3.489c0,0.507,0,0.68,0.012,0.874
			c0.012,0.276,0.08,0.449,0.207,0.576c0.195,0.196,0.518,0.276,1.188,0.276v0.369H75.938z"/>
		<path fill="#231F20" d="M89.422,223.49c-0.24,0.311-0.311,0.784-0.311,2.153v4.895h-0.414l-5.297-6.322v3.432
			c0,0.254,0,0.473,0.011,0.714c0.012,0.622,0.034,0.887,0.138,1.163c0.139,0.381,0.473,0.529,1.268,0.541v0.369h-3.409v-0.369
			c0.622-0.012,0.911-0.104,1.105-0.322c0.231-0.264,0.288-0.656,0.288-2.096v-4.008c-0.346-0.346-0.703-0.483-1.394-0.507v-0.379
			h2.315l4.801,5.769v-2.971c0-0.254,0-0.484-0.012-0.726c-0.012-0.622-0.045-0.887-0.138-1.151
			c-0.149-0.392-0.473-0.53-1.255-0.553v-0.368h3.408v0.379C89.906,223.145,89.607,223.249,89.422,223.49z"/>
		<path fill="#231F20" d="M97.587,230.526c-0.034-0.346-0.092-0.448-0.231-0.448c-0.057,0-0.149,0.033-0.506,0.195
			c-0.599,0.265-1.336,0.426-1.945,0.426c-2.223,0-3.836-1.704-3.836-4.054c0-2.314,1.774-4.134,4.031-4.134
			c0.646,0,1.289,0.184,1.877,0.495l0.218,0.115c0.047,0.022,0.093,0.046,0.14,0.046c0.104,0,0.148-0.103,0.172-0.403h0.414v2.326
			h-0.425c-0.311-1.267-1.106-1.946-2.292-1.946c-1.625,0-2.799,1.428-2.799,3.386c0,2.027,1.152,3.502,2.73,3.502
			c0.701,0,1.357-0.276,1.783-0.761c0.312-0.357,0.531-0.829,0.669-1.497h0.427v2.752H97.587z"/>
		<path fill="#231F20" d="M99.579,230.435v-0.369c0.655-0.012,0.968-0.08,1.174-0.276c0.128-0.115,0.196-0.3,0.208-0.576
			c0.012-0.194,0.012-0.367,0.012-0.874v-3.489c0-0.508,0-0.681-0.012-0.875c-0.012-0.266-0.08-0.449-0.208-0.576
			c-0.194-0.195-0.519-0.266-1.174-0.276v-0.368h6.08v1.796h-0.356c-0.231-0.554-0.414-0.829-0.646-1.001
			c-0.173-0.128-0.449-0.208-0.829-0.23c-0.265-0.012-0.438-0.024-0.921-0.024h-0.807v2.891h0.714c0.68,0,0.898-0.045,1.082-0.218
			c0.14-0.139,0.242-0.438,0.288-0.876h0.381v2.879h-0.368c-0.082-0.669-0.161-0.944-0.322-1.104
			c-0.15-0.139-0.414-0.185-1.072-0.185h-0.702v1.968c0,0.474,0.035,0.715,0.093,0.888c0.104,0.265,0.482,0.369,1.268,0.369
			c0.816,0,1.393-0.104,1.727-0.3c0.253-0.161,0.506-0.599,0.645-1.095h0.379v1.924H99.579z"/>
		<path fill="#231F20" d="M111.497,230.435v-0.347c0.507-0.022,0.772-0.079,0.956-0.218c0.127-0.093,0.219-0.265,0.242-0.484
			c0.023-0.161,0.012-0.229,0.012-0.609v-4.272c0-0.736-0.023-0.933-0.173-1.094c-0.161-0.185-0.415-0.242-1.025-0.254v-0.38h0.069
			c0.76,0,1.646-0.092,2.27-0.253c-0.012,0.126-0.023,0.161-0.023,0.333l-0.012,0.357v0.415l-0.012,0.392v0.38v4.41
			c0,0.288,0,0.449,0.012,0.563c0.012,0.186,0.057,0.335,0.149,0.438c0.149,0.185,0.495,0.275,1.025,0.275h0.011v0.347H111.497z"/>
		<path fill="#231F20" d="M118.742,230.597c-1.451,0-2.523-0.864-2.523-2.027c0-0.922,0.541-1.532,1.842-2.107
			c-1.082-0.507-1.554-1.095-1.554-1.924c0-1.175,1.014-2.003,2.441-2.003c1.37,0,2.36,0.748,2.36,1.796
			c0,0.783-0.588,1.438-1.565,1.762c0.609,0.276,0.747,0.358,1.059,0.634c0.415,0.356,0.646,0.886,0.646,1.508
			C121.447,229.639,120.353,230.597,118.742,230.597z M119.927,227.406c-0.218-0.229-0.529-0.381-1.14-0.646l-0.185-0.08
			c-0.817,0.473-1.187,1.06-1.187,1.865c0,0.92,0.564,1.532,1.429,1.532c0.887,0,1.486-0.634,1.486-1.579
			C120.331,228.05,120.18,227.659,119.927,227.406z M118.901,223.03c-0.794,0-1.302,0.495-1.302,1.244
			c0,0.367,0.105,0.679,0.312,0.896c0.231,0.243,0.438,0.357,1.175,0.646l0.15,0.057c0.645-0.391,0.943-0.861,0.943-1.52
			C120.18,223.582,119.65,223.03,118.901,223.03z"/>
		<path fill="#231F20" d="M123.578,230.699l-0.174-0.426c0.104-0.047,0.174-0.08,0.23-0.104c0.553-0.265,1.244-0.761,1.751-1.233
			c0.276-0.253,0.517-0.528,0.737-0.828c0.252-0.334,0.344-0.506,0.553-0.943c-0.243,0.171-0.346,0.229-0.6,0.309
			c-0.265,0.082-0.518,0.117-0.771,0.117c-1.324,0-2.338-1.037-2.338-2.407c0-1.485,1.197-2.648,2.729-2.648
			c1.509,0,2.591,1.255,2.591,3.005C128.287,227.763,126.607,229.605,123.578,230.699z M127.102,224.977
			c-0.08-1.164-0.669-1.924-1.486-1.924c-0.863,0-1.439,0.726-1.439,1.819c0,1.221,0.645,2.119,1.532,2.119
			c0.853,0,1.404-0.702,1.404-1.773C127.112,225.138,127.112,225.056,127.102,224.977z"/>
		<path fill="#231F20" d="M129.669,230.435v-0.347c0.507-0.022,0.771-0.079,0.956-0.218c0.126-0.093,0.219-0.265,0.242-0.484
			c0.021-0.161,0.01-0.229,0.01-0.609v-4.272c0-0.736-0.023-0.933-0.171-1.094c-0.161-0.185-0.416-0.242-1.025-0.254v-0.38h0.068
			c0.761,0,1.647-0.092,2.271-0.253c-0.012,0.126-0.023,0.161-0.023,0.333l-0.012,0.357v0.415l-0.012,0.392v0.38v4.41
			c0,0.288,0,0.449,0.012,0.563c0.012,0.186,0.057,0.335,0.149,0.438c0.149,0.185,0.495,0.275,1.024,0.275h0.012v0.347H129.669z"/>
	</g>
	<path fill-rule="evenodd" clip-rule="evenodd" fill="#231F20" d="M122.468,122.48c-0.495,0.532-1.196,1.314-1.026,1.893
		c0.472,1.433,0.777,3.061,0.773,4.868c-0.021,10.777-12.752,18.37-20.352,21.992c3.322-2.196,10.928-8.474,10.939-14.312
		c0.002-1.01-0.34-3.347-3.153-3.352c-3.796-0.008-14.912,10.271-23.157,17.819c0.135-3.258,9.494-8.772,9.501-11.741
		c0.001-0.743-0.649-2.199-2.241-2.202c-2.998-0.007-10.792,5.375-12.487,4.101c7.264-3.666,26.304-12.335,26.317-18.472
		c0.002-1.434-0.627-3.198-2.857-3.202c-4.274-0.009-15.483,10.709-21.493,16.139c0.134-3.258,9.493-8.773,9.499-11.741
		c0.002-0.743-0.646-2.2-2.24-2.203c-2.997-0.006-10.792,5.375-12.486,4.102c7.262-3.666,24.907-11.772,24.915-16.551
		c0-0.459,0.042-3.256-4.099-3.264c-4.142-0.009-9.668,2.6-14.488,5.811c3.086-3.534,14.322-11.474,21.65-11.46
		c3.463,0.007,6.251,1.016,8.319,2.76c0.163,0.139,0.38,0.194,0.587,0.153c0.416-0.08,0.87-0.266,1.232-0.418
		c1.476-0.625,3.084-0.011,4.057-0.381c0.404-0.156,0.633-0.103,0.74,0.053c0.109,0.156,0.098,0.401-0.202,0.715
		c-0.719,0.752-0.655,2.509-1.746,3.68c-0.493,0.532-1.194,1.316-1.024,1.896c0.479,1.561,0.719,3.286,0.716,5.124
		c-0.003,1.7-0.086,3-0.354,4.566c0.439-0.07,0.925-0.278,1.312-0.442c1.473-0.623,3.084-0.009,4.055-0.38
		c0.406-0.155,0.633-0.102,0.742,0.053c0.107,0.155,0.096,0.4-0.205,0.715C123.495,119.552,123.558,121.307,122.468,122.48z"/>
</g>
</svg>
