<?xml version="1.0" encoding="utf-8"?>
<!-- Generator: Adobe Illustrator 15.0.2, SVG Export Plug-In . SVG Version: 6.00 Build 0)  -->
<!DOCTYPE svg PUBLIC "-//W3C//DTD SVG 1.1//EN" "http://www.w3.org/Graphics/SVG/1.1/DTD/svg11.dtd">
<svg version="1.1" xmlns="http://www.w3.org/2000/svg" xmlns:xlink="http://www.w3.org/1999/xlink" x="0px" y="0px"
	 width="376.19px" height="256px" viewBox="0 0 376.19 256" enable-background="new 0 0 376.19 256" xml:space="preserve">
<g id="Layer_2" display="none">
	<g id="_x38_oFRPS_1_" display="inline">
		
			<image overflow="visible" width="756" height="311" id="_x38_oFRPS" xlink:href="4C56368B.jpg"  transform="matrix(1 0 0 1 -215.501 83.5332)">
		</image>
	</g>
</g>
<g id="Layer_1">
	<g>
		<path fill="#1D1D1B" d="M15.639,176.609l21.623,29.446c0.242,0.318,0.479,0.639,0.479,1.116c0,0.719-0.479,0.877-1.033,0.877
			h-6.306c-1.432,0-1.596,0-2.474-1.116L7.667,178.447v28.407c0,1.112-0.562,1.194-1.519,1.194H1.597
			c-1.199,0-1.597-0.158-1.597-1.593v-53.146c0-1.353,0.32-1.597,1.519-1.597h4.63c1.354-0.078,1.519,0.244,1.519,1.519v23.701
			l18.909-23.623c0.876-1.197,1.195-1.433,1.987-1.597h4.388c0.645,0,1.199,0.244,1.199,0.881c0,0.478-0.235,0.716-0.793,1.519
			L15.639,176.609z"/>
		<path fill="#1D1D1B" d="M56.494,209.007c-12.05,0-18.354-10.852-18.354-21.538c0-11.177,6.703-21.711,18.274-21.711
			c12.526,0,17.956,12.131,18.198,21.387C74.769,197.838,68.308,209.007,56.494,209.007 M55.938,170.229
			c-6.306,0-10.373,6.619-10.373,16.12c0,11.169,5.5,17.791,11.251,17.791c5.976,0,10.685-6.541,10.208-17.553
			C66.547,175.573,61.281,170.229,55.938,170.229"/>
		<path fill="#1D1D1B" d="M81.866,177.091c0.085-3.592,0.085-4.866,0.96-6.225c1.675-2.55,7.896-5.108,14.764-5.108
			c14.756,0,18.589,11.173,18.589,19.716c0,10.049-5.585,23.454-18.589,23.454c-4.631,0-7.109-1.756-8.62-2.792v16.049
			c0,0.879-0.241,1.438-1.362,1.438h-3.989c-1.198,0-1.752-0.242-1.752-1.519V177.091z M88.97,201.508
			c2.394,1.436,5.107,2.633,7.98,2.633c6.461,0,11.891-6.142,11.891-17.318c0-9.571-4.631-16.671-12.933-16.671
			c-6.938,0-6.938,4.229-6.938,7.177V201.508z"/>
		<path fill="#1D1D1B" d="M201.132,176.609l21.623,29.446c0.242,0.318,0.476,0.639,0.476,1.116c0,0.719-0.476,0.877-1.033,0.877
			h-6.305c-1.438,0-1.598,0-2.48-1.116l-20.264-28.485v28.407c0,1.112-0.555,1.194-1.51,1.194h-4.553
			c-1.195,0-1.596-0.158-1.596-1.593v-53.146c0-1.353,0.319-1.597,1.51-1.597h4.639c1.354-0.078,1.51,0.244,1.51,1.519v23.701
			l18.91-23.623c0.878-1.197,1.198-1.433,1.989-1.597h4.396c0.641,0,1.19,0.244,1.19,0.881c0,0.478-0.238,0.716-0.793,1.519
			L201.132,176.609z"/>
		<path fill="#1D1D1B" d="M254.269,199.669c-0.077,3.594-0.479,5.587-3.435,7.186c-3.028,1.593-7.815,2.159-11.243,2.159
			c-2.159,0-13.966,0-13.966-10.854c0-9.181,8.935-11.813,21.704-15.561v-4.071c0-3.112,0-8.537-5.986-8.537
			c-4.632,0-6.069,3.591-6.705,5.183c-0.555,1.519-1.19,3.437-3.583,3.437c-1.126,0-3.198-0.803-3.198-3.354
			c0-4.783,5.992-9.497,14.526-9.497c11.722,0,11.809,8.54,11.886,12.77V199.669z M247.329,186.346
			c-8.702,2.793-14.45,4.628-14.45,10.772c0,0.638,0,7.585,8.145,7.585c6.227,0,6.306-3.673,6.306-5.828V186.346z"/>
		<path fill="#1D1D1B" d="M295.2,206.456c0,0.719-0.078,1.435-0.961,1.593h-4.388c-1.276,0-1.748-0.158-1.748-1.593v-26.811
			c0-3.751,0-9.734-9.339-9.734c-8.537,0-8.622,5.106-8.622,7.098v29.447c0,1.435-0.555,1.593-1.676,1.593h-3.911
			c-1.112,0.082-1.511-0.158-1.511-1.514V174.38c0-3.032,0.472-4.469,3.193-5.825c5.344-2.797,12.847-2.797,13.714-2.797
			c15.17,0,15.248,8.465,15.248,13.167V206.456z"/>
		<path fill="#1D1D1B" d="M337.096,199.587c0,1.521,0,2.957-1.12,4.471c-2.714,3.833-10.529,4.949-14.761,4.949
			c-11.337,0-18.762-7.183-18.762-20.346c0-10.933,6.391-22.903,18.762-22.903c4.146,0,6.617,1.361,8.692,2.641v-15.753
			c0-1.272,0.162-1.757,1.517-1.757h4.075c1.19,0,1.667,0.164,1.597,1.597V199.587z M329.907,172.862
			c-1.511-1.276-3.664-2.951-7.661-2.951c-7.337,0-12.603,7.18-12.603,16.837c0,11.09,5.508,17.31,13.159,17.31
			c6.946,0,7.024-3.982,7.104-6.302V172.862z"/>
		<path fill="#1D1D1B" d="M350.091,186.11c0.641,11.168,6.306,16.356,12.37,16.356c4.787,0,8.379-2.716,11.014-7.022
			c1.119-1.913,1.354-2.315,2.314-2.315c0.48,0,1.592,0.238,1.592,1.912c0,2.082-3.513,13.966-15.953,13.966
			c-4.791,0-11.251-1.912-14.842-9.256c-2.082-3.989-2.551-8.535-2.551-12.286c0-5.747,1.113-9.896,2.706-12.848
			c0.879-1.673,4.946-8.859,14.765-8.859c12.604,0,15.318,10.934,15.318,14.203c0,2.237-1.354,2.397-2.316,2.556L350.091,186.11z
			 M369.164,179.249c-0.477-5.108-3.989-8.941-8.534-8.941c-6.464,0-9.734,4.947-10.539,11.891L369.164,179.249z"/>
		<path fill="#1D1D1B" d="M192.495,223.313c-9.925-4.429-35.717-23.716-48.885-40.053c-23.399-29.03-8.644-34.5-3.562-33.306
			c6.099,1.436,9.284,10.201,9.284,10.201s3.378-10.266,8.998-9.896c6.989,0.468,3.997,10.225,2.451,13.299
			c-3.186,6.321-6.577,8.71-6.577,8.71s9.54-15.115,3.35-17.256c-5.279-1.83-8.237,9.319-8.237,9.319s-5.423-12.302-11.449-9.073
			c0,0-8.344,5.397,16.28,32.993C176.57,213.381,192.495,223.313,192.495,223.313"/>
		<path fill="#1D1D1B" d="M180.901,193.254c0,0-37.739,41.976-55.951,29.828c-15.703-10.467,15.504-35.768,15.504-35.768
			s-21.105,22.308-9.335,29.719c12.61,7.938,48.053-23.039,50.011-24.15"/>
		<path fill="#1D1D1B" d="M230.713,234.229c-0.308,0-0.386-0.022-0.492-0.324l-3.468-9.609c-0.045-0.12-0.087-0.245-0.087-0.327
			c0-0.22,0.164-0.264,0.37-0.264h1.909c0.319,0,0.364,0.061,0.463,0.368l2.237,6.985l2.217-7.047
			c0.077-0.286,0.176-0.307,0.463-0.307h1.318c0.249,0,0.328,0.104,0.328,0.225c0,0.144-0.065,0.285-0.079,0.346l-3.336,9.607
			c-0.099,0.265-0.141,0.347-0.427,0.347H230.713z"/>
		<path fill="#1D1D1B" d="M238.328,222.245c-0.755,0-1.381-0.445-1.381-1.24c0-0.812,0.604-1.258,1.381-1.258
			c0.705,0,1.32,0.468,1.32,1.215C239.648,221.756,239.141,222.245,238.328,222.245 M239.604,233.801c0,0.325-0.1,0.429-0.464,0.429
			h-1.766c-0.308,0-0.328-0.082-0.328-0.406v-9.691c0-0.406,0.164-0.427,0.385-0.427h1.725c0.391,0,0.448,0.104,0.448,0.427V233.801
			z"/>
		<path fill="#1D1D1B" d="M256.384,233.62c0.122,0.143,0.18,0.22,0.18,0.324c0,0.164-0.103,0.285-0.344,0.285h-2.237
			c-0.242,0-0.406,0-0.627-0.308l-3.634-4.872v4.79c0,0.226-0.021,0.39-0.406,0.39h-1.688c-0.386,0-0.406-0.121-0.406-0.39v-14.762
			c0-0.346,0.144-0.389,0.328-0.389h1.766c0.2,0,0.406,0,0.406,0.327v9.159l3.634-4.044c0.364-0.406,0.483-0.427,0.836-0.427h1.358
			c0.164,0,0.428,0,0.428,0.264c0,0.146-0.086,0.246-0.185,0.367l-3.592,3.84L256.384,233.62z"/>
		<path fill="#1D1D1B" d="M262.64,226.691c0-1.094-0.186-1.847-1.282-1.847c-1.724,0-0.989,2.13-2.536,2.13
			c-0.612,0-1.076-0.465-1.076-1.074c0-0.446,0.264-0.873,0.362-1.017c0.878-1.196,2.664-1.442,3.6-1.442
			c2.864,0,3.305,1.547,3.305,3.008v5.624c0,0.632-0.078,1.038-0.263,1.301c-0.691,0.977-2.801,1.118-3.711,1.118
			c-2.623,0-3.821-1.179-3.821-2.906c0-2.579,3.186-3.31,4.773-3.694l0.649-0.164V226.691z M261.948,229.109
			c-1.119,0.363-2.258,0.896-2.258,2.233c0,1.016,0.613,1.746,1.688,1.746c1.262,0,1.262-0.934,1.262-1.34v-2.863L261.948,229.109z"
			/>
		<path fill="#1D1D1B" d="M273.42,234.229c-0.364,0-0.442-0.144-0.442-0.467v-7.194c0-0.607-0.144-1.744-1.731-1.744
			c-0.825,0-1.317,0.384-1.539,0.895c-0.062,0.142-0.099,0.423-0.099,0.812v7.211c0,0.324-0.042,0.488-0.448,0.488h-1.646
			c-0.349,0-0.43-0.121-0.43-0.429v-8.269c0-0.363,0.022-0.729,0.385-1.094c0.55-0.548,2.258-0.997,4.005-0.997
			c1.254,0,3.371,0.125,3.917,2.074c0.102,0.405,0.102,0.73,0.102,1.114v7.171c0,0.285-0.057,0.429-0.406,0.429H273.42z"/>
		<path fill="#1D1D1B" d="M286.137,234.229c-0.307,0-0.385-0.022-0.492-0.324l-3.469-9.609c-0.041-0.12-0.078-0.245-0.078-0.327
			c0-0.22,0.157-0.264,0.363-0.264h1.91c0.32,0,0.363,0.061,0.462,0.368l2.239,6.985l2.214-7.047
			c0.078-0.286,0.18-0.307,0.464-0.307h1.317c0.251,0,0.328,0.104,0.328,0.225c0,0.144-0.063,0.285-0.077,0.346l-3.334,9.607
			c-0.103,0.265-0.144,0.347-0.422,0.347H286.137z"/>
		<path fill="#1D1D1B" d="M296.883,234.492c-3.391,0-4.839-2.906-4.839-5.688c0-2.662,1.731-5.362,4.896-5.362
			c3.148,0,4.795,2.822,4.795,5.405C301.734,232.358,299.646,234.492,296.883,234.492 M296.981,232.804
			c1.44,0,2.109-1.827,2.109-3.858c0-1.499-0.528-4-2.294-4c-1.383,0-2.131,1.664-2.131,3.719
			C294.666,230.855,295.6,232.804,296.981,232.804"/>
		<path fill="#1D1D1B" d="M306.023,233.801c0,0.347-0.086,0.429-0.427,0.429h-1.667c-0.349,0-0.43-0.082-0.43-0.429v-8.488
			c0-0.527,0.057-0.773,0.266-0.955c0.505-0.488,2.258-0.916,4.081-0.916c0.328,0,1.156,0.021,1.724,0.367
			c0.242,0.143,0.648,0.487,0.648,1.157c0,0.632-0.461,1.094-1.075,1.094c-0.263,0-0.427-0.077-0.604-0.22
			c-0.242-0.203-0.385-0.527-0.614-0.774c-0.141-0.159-0.361-0.341-0.847-0.341c-0.406,0-0.833,0.159-0.977,0.588
			c-0.065,0.182-0.078,0.445-0.078,0.648V233.801z"/>
		<path fill="#1D1D1B" d="M312.805,228.906c0.081,1.361,0.936,3.349,2.779,3.349c0.529,0,1.461-0.082,2.544-1.521
			c0.2-0.265,0.321-0.406,0.584-0.406c0.508,0,0.528,0.566,0.528,0.63c0,0.469-0.319,1.115-0.364,1.215
			c-1.097,2.319-3.17,2.319-3.695,2.319c-2.089,0-4.511-1.403-4.511-5.524c0-4.022,2.356-5.526,4.511-5.526
			c1.58,0,3.07,0.714,3.719,2.618c0.197,0.55,0.242,1.016,0.242,1.223c0,0.649-0.43,0.752-0.714,0.79L312.805,228.906z
			 M316.597,227.019c-0.057-0.896-0.562-2.053-1.744-2.053c-0.136,0-0.57,0.022-0.992,0.285c-1.139,0.71-1.139,2.315-1.162,2.399
			L316.597,227.019z"/>
		<path fill="#1D1D1B" d="M325.476,228.176c0.91,0.425,2.413,1.116,2.413,3.167c0,1.297-0.846,3.149-3.653,3.149
			c-0.997,0-2.331-0.203-3.229-1.218c-0.505-0.569-0.546-0.976-0.546-1.222c0-0.567,0.385-1.115,1.038-1.115
			c1.318,0,1.211,2.01,2.778,2.01c0.793,0,1.285-0.507,1.285-1.319c0-1.058-1.183-1.564-1.912-1.892l-0.755-0.342
			c-1.787-0.834-2.229-1.99-2.229-2.967c0-1.38,0.891-2.986,3.57-2.986c1.93,0,3.313,0.997,3.313,2.173
			c0,0.527-0.386,0.978-0.957,0.978c-0.484,0-0.896-0.328-1.116-0.813c-0.144-0.306-0.55-1.016-1.341-1.016
			c-1.04,0-1.24,0.913-1.24,1.237c0,0.975,0.778,1.343,1.567,1.709L325.476,228.176z"/>
		<path fill="#1D1D1B" d="M344.385,233.62c0.119,0.143,0.185,0.22,0.185,0.324c0,0.164-0.106,0.285-0.349,0.285h-2.229
			c-0.241,0-0.405,0-0.636-0.308l-3.633-4.872v4.79c0,0.226-0.021,0.39-0.406,0.39h-1.683c-0.391,0-0.413-0.121-0.413-0.39v-14.762
			c0-0.346,0.144-0.389,0.328-0.389h1.768c0.206,0,0.406,0,0.406,0.327v9.159l3.633-4.044c0.37-0.406,0.493-0.427,0.834-0.427h1.362
			c0.164,0,0.427,0,0.427,0.264c0,0.146-0.086,0.246-0.185,0.367l-3.592,3.84L344.385,233.62z"/>
		<path fill="#1D1D1B" d="M347.898,233.801c0,0.347-0.081,0.429-0.43,0.429h-1.659c-0.349,0-0.427-0.082-0.427-0.429v-8.488
			c0-0.527,0.056-0.773,0.263-0.955c0.505-0.488,2.253-0.916,4.083-0.916c0.32,0,1.153,0.021,1.724,0.367
			c0.243,0.143,0.648,0.487,0.648,1.157c0,0.632-0.463,1.094-1.075,1.094c-0.265,0-0.429-0.077-0.606-0.22
			c-0.25-0.203-0.391-0.527-0.611-0.774c-0.144-0.159-0.366-0.341-0.858-0.341c-0.397,0-0.824,0.159-0.968,0.588
			c-0.062,0.182-0.083,0.445-0.083,0.648V233.801z"/>
		<path fill="#1D1D1B" d="M357.827,226.691c0-1.094-0.185-1.847-1.272-1.847c-1.732,0-0.998,2.13-2.545,2.13
			c-0.611,0-1.075-0.465-1.075-1.074c0-0.446,0.263-0.873,0.362-1.017c0.877-1.196,2.666-1.442,3.599-1.442
			c2.865,0,3.312,1.547,3.312,3.008v5.624c0,0.632-0.085,1.038-0.263,1.301c-0.698,0.977-2.808,1.118-3.72,1.118
			c-2.621,0-3.819-1.179-3.819-2.906c0-2.579,3.192-3.31,4.773-3.694l0.647-0.164V226.691z M357.138,229.109
			c-1.119,0.363-2.253,0.896-2.253,2.233c0,1.016,0.607,1.746,1.683,1.746c1.26,0,1.26-0.934,1.26-1.34v-2.863L357.138,229.109z"/>
		<path fill="#1D1D1B" d="M362.276,225.23c0-0.307,0.119-0.712,0.731-1.055c0.833-0.488,2.295-0.734,3.229-0.734
			c0.206,0,1.724,0.021,2.62,0.652c0.221,0.16,0.364,0.304,0.549,0.507c0.243-0.243,0.32-0.305,0.485-0.425
			c0.528-0.367,1.403-0.734,2.864-0.734c2.217,0,2.963,0.956,3.25,1.889c0.162,0.487,0.185,0.976,0.185,1.48v7.013
			c0,0.345-0.144,0.406-0.427,0.406h-1.689c-0.342,0-0.407-0.144-0.407-0.467v-6.624c0-0.975-0.12-1.502-0.583-1.888
			c-0.287-0.224-0.649-0.285-0.998-0.285c-0.611,0-1.26,0.324-1.481,0.935c-0.102,0.264-0.102,0.647-0.102,0.91v6.952
			c0,0.303-0.042,0.467-0.37,0.467h-1.658c-0.373,0-0.492-0.062-0.492-0.429v-6.782c0-0.652-0.037-1.421-0.649-1.85
			c-0.164-0.104-0.405-0.263-0.955-0.263c-1.01,0-1.38,0.648-1.481,0.954c-0.1,0.324-0.12,0.649-0.12,0.95v6.97
			c0,0.367-0.099,0.449-0.451,0.449h-1.622c-0.365,0-0.427-0.144-0.427-0.449V225.23z"/>
	</g>
</g>
</svg>
