<?xml version="1.0" encoding="utf-8"?>
<!-- Generator: Adobe Illustrator 15.0.2, SVG Export Plug-In . SVG Version: 6.00 Build 0)  -->
<!DOCTYPE svg PUBLIC "-//W3C//DTD SVG 1.1//EN" "http://www.w3.org/Graphics/SVG/1.1/DTD/svg11.dtd">
<svg version="1.1" xmlns="http://www.w3.org/2000/svg" xmlns:xlink="http://www.w3.org/1999/xlink" x="0px" y="0px"
	 width="391.949px" height="256px" viewBox="0 0 391.949 256" enable-background="new 0 0 391.949 256" xml:space="preserve">
<g id="Layer_2" display="none">
	<g id="_x38_oFRPS_1_" display="inline">
		
			<image overflow="visible" width="756" height="311" id="_x38_oFRPS" xlink:href="A355587E.jpg"  transform="matrix(1 0 0 1 -208.2168 83.5332)">
		</image>
	</g>
</g>
<g id="Layer_1">
	<g>
		<path fill="#181716" d="M42.015,188.109c4.011-6.599,12.313-20.562,20.798-20.562c3.734,0,5.836,2.967,5.836,6.692
			c0,2.295-0.82,5.163-1.461,7.271l-5.18,18.383c-0.271,0.854-0.997,3.533-0.997,4.49c0,0.576,0.356,1.146,0.903,1.146
			c1.917,0,4.289-4.588,5.472-6.121l1.74,1.052c-2.923,5.166-7.574,11.578-13.866,11.578c-3.013,0-5.836-1.816-5.836-5.262
			c0-2.105,0.82-4.977,1.37-6.982l5.086-18.382c0.271-0.855,0.912-2.965,0.912-3.924c0-0.762-0.548-1.239-1.368-1.239
			c-4.83,0-14.87,16.929-16.237,21.803l-3.649,12.719H24.501l8.664-30.126c0.37-1.336,1.276-4.396,1.276-5.734
			c0-2.197-2.097-2.868-3.826-2.868h-0.914l0.459-1.72c0,0,15.375-2.708,15.959-2.775c0.583-0.063,1.519-0.063,1.202,1.282
			c-0.312,1.354-5.492,19.087-5.492,19.087c-0.027,0.122-0.049,0.196,0,0.24L42.015,188.109"/>
		<path fill="#181716" d="M364.839,188.109c4.019-6.599,12.32-20.562,20.806-20.562c3.734,0,5.836,2.967,5.836,6.692
			c0,2.295-0.82,5.163-1.461,7.271l-5.18,18.383c-0.271,0.854-1.005,3.533-1.005,4.49c0,0.576,0.364,1.146,0.91,1.146
			c1.918,0,4.282-4.588,5.472-6.121l1.732,1.052c-2.922,5.166-7.565,11.578-13.857,11.578c-3.013,0-5.841-1.816-5.841-5.262
			c0-2.105,0.817-4.977,1.366-6.982l5.095-18.382c0.271-0.855,0.911-2.965,0.911-3.924c0-0.762-0.55-1.239-1.367-1.239
			c-4.839,0-14.87,16.929-16.237,21.803l-3.649,12.719h-11.036l8.664-30.126c0.364-1.336,1.276-4.396,1.276-5.734
			c0-2.197-2.097-2.868-3.833-2.868h-0.912l0.461-1.72c0,0,15.376-2.708,15.962-2.775c0.575-0.063,1.51-0.063,1.202,1.282
			c-0.312,1.354-5.492,19.087-5.492,19.087c-0.036,0.122-0.049,0.196-0.007,0.24L364.839,188.109"/>
		<path fill="#181716" d="M103.641,181.893h-1.728c0.102-5.258-2.372-12.052-8.115-12.052c-2.577,0-4.972,1.624-4.972,4.499
			c0,6.502,13.866,12.714,13.866,23.427c0,8.127-6.884,14.347-14.915,14.347c-2.201,0-4.209-0.292-6.026-0.862
			c-1.625-0.48-3.251-0.959-4.873-0.959c-1.625,0-3.279,0.479-4.133,1.821h-2.15l3.604-15.59h1.725
			c1.047,5.069,4.302,13.292,11.185,13.292c3.156,0,6.029-2.197,6.029-5.547c0-8.414-14.637-14.538-14.637-24.96
			c0-7.844,6.6-11.762,13.774-11.762c2.771,0,3.769,0.384,6.348,0.954c1.054,0.286,2.395,0.577,3.348,0.577
			c1.149,0,3.186-0.478,3.765-1.531h2.286L103.641,181.893z"/>
		<path fill="#181716" d="M119.122,205.992c1.168,1.913,2.242,3.825,4.667,3.825c5.834,0,14.099-14.156,14.099-28.506
			c0-2.864-0.896-7.072-4.226-7.072c-3.228,0-5.649,3.062-7.537,5.358L119.122,205.992z M127.558,175.104
			c3.506-3.639,7.814-7.557,13.201-7.557c6.114,0,8.536,5.932,8.536,11.094c0,16.828-11.407,33.473-25.506,33.473
			c-2.516,0-3.686-0.573-5.93-1.821l-1.195,3.784c-0.628,2.294-1.526,5.732-1.526,8.028c0,3.446,2.266,4.019,3.969,4.113
			l-0.442,1.724h-22.03l0.451-1.724c5.115,0,6.732-4.782,8.442-11.091l9.462-34.482c0.356-1.336,1.253-4.396,1.253-5.734
			c0-2.197-2.066-2.868-3.769-2.868h-0.898l0.45-1.72c0,0,15.196-2.711,15.718-2.775c0.52-0.063,1.551-0.271,1.247,1.183
			c-0.315,1.457-1.612,6.181-1.612,6.181v0.195L127.558,175.104z"/>
		<path fill="#181716" d="M223.658,203.41c5.167,0,13.422-17.121,13.422-26.395c0-2.391-0.361-6.598-3.362-6.598
			c-6.16,0-12.596,20.654-12.596,28.593C221.122,200.632,221.663,203.41,223.658,203.41 M233.013,196.533
			c-0.057-0.056-0.141-0.041-0.198,0.087c-3.177,5.739-8.521,15.49-15.589,15.49c-5.808,0-7.618-6.41-7.618-11.479
			c0-14.343,12.326-33.085,23.392-33.085c4.168,0,5.48,3.163,5.985,6.982c0.013,0.14,0.028,0.125,0.086,0.125l0.092-0.125l1.46-5.82
			h10.795l-9.083,31.734c-0.095,0.572-0.722,2.967-0.722,3.544c0,0.666,0.542,1.429,1.178,1.429c2.087,0,4.621-4.111,5.713-5.833
			l1.539,0.86c-2.992,5.931-7.523,11.667-14.415,11.667c-2.898,0-5.172-1.722-5.172-4.97c0-1.725,0.67-3.913,2.544-10.328
			C233.041,196.652,233.077,196.595,233.013,196.533"/>
		<path fill="#181716" d="M276.783,168.791h6.119l-1.617,5.448h-6.036l-7.459,25.918c-0.378,1.147-1.047,3.541-1.047,4.685
			c0,0.858,0.386,1.817,1.248,1.817c2.094,0,5.349-4.589,6.689-6.405l1.623,0.959c-2.964,5.545-8.222,10.9-14.917,10.9
			c-3.25,0-6.399-2.01-6.399-5.551c0-2.774,0.76-5.64,1.523-8.222l6.982-24.102h-6.312l0.956-3.533
			c8.13-2.586,14.534-8.226,19.985-14.631h2.393L276.783,168.791z"/>
		<path fill="#181716" d="M333.353,170.127c-8.792,0-15.154,27.447-15.154,33.187c0,3.827,1.776,6.217,4.396,6.217
			c8.144,0,14.785-25.725,14.785-34.235C337.38,173,336.349,170.127,333.353,170.127 M320.074,212.113
			c-7.767,0-13.103-5.168-13.103-13.199c0-15.108,13.103-31.367,28.44-31.367c7.676,0,13.197,5.263,13.197,13.198
			C348.609,195.754,335.327,212.113,320.074,212.113"/>
		<path fill="#181716" d="M13.193,199.583c-0.383,1.051-1.052,3.73-1.052,4.786c0,0.665,0.483,1.432,1.146,1.432
			c2.303,0,5.45-4.974,6.698-6.883l1.625,0.858c-3.058,5.45-8.225,12.337-15.015,12.337c-3.439,0-6.596-2.201-6.596-5.932
			c0-1.913,0.477-3.822,1.047-5.64l6.025-19.897c0.386-1.336,1.343-4.396,1.343-5.734c0-2.197-2.204-2.868-4.019-2.868H3.439
			l0.477-1.72c0,0,15.868-2.565,16.737-2.775c0.871-0.207,1.64,0.05,1.298,1.332C21.61,170.162,13.193,199.583,13.193,199.583"/>
		<path fill="#181716" d="M165.021,199.583c-0.378,1.051-1.047,3.73-1.047,4.786c0,0.665,0.477,1.432,1.146,1.432
			c2.294,0,5.45-4.974,6.69-6.883l1.625,0.858c-3.057,5.45-8.223,12.337-15.011,12.337c-3.443,0-6.6-2.201-6.6-5.932
			c0-1.913,0.477-3.822,1.055-5.64l6.021-19.897c0.387-1.336,1.339-4.396,1.339-5.734c0-2.197-2.201-2.868-4.019-2.868h-0.952
			l0.477-1.72c0,0,15.867-2.565,16.734-2.775c0.87-0.207,1.642,0.05,1.297,1.332C173.435,170.162,165.021,199.583,165.021,199.583"
			/>
		<path fill="#181716" d="M296.148,199.583c-0.386,1.051-1.056,3.73-1.056,4.786c0,0.665,0.485,1.432,1.146,1.432
			c2.302,0,5.451-4.974,6.698-6.883l1.617,0.858c-3.058,5.45-8.214,12.337-15.011,12.337c-3.443,0-6.592-2.201-6.592-5.932
			c0-1.913,0.477-3.822,1.047-5.64l6.029-19.897c0.377-1.336,1.338-4.396,1.338-5.734c0-2.197-2.199-2.868-4.018-2.868h-0.956
			l0.479-1.72c0,0,15.865-2.565,16.734-2.775c0.87-0.207,1.638,0.05,1.297,1.332C304.555,170.162,296.148,199.583,296.148,199.583"
			/>
		<path fill="#181716" d="M38.23,144.798c0,8.943-7.253,16.2-16.201,16.2s-16.201-7.257-16.201-16.2
			c0-8.95,7.253-16.207,16.201-16.207S38.23,135.848,38.23,144.798"/>
		<path fill="#181716" d="M190.058,144.798c0,8.943-7.253,16.2-16.204,16.2c-8.948,0-16.201-7.257-16.201-16.2
			c0-8.95,7.253-16.207,16.201-16.207C182.805,128.591,190.058,135.848,190.058,144.798"/>
		<path fill="#181716" d="M321.186,144.798c0,8.943-7.255,16.2-16.204,16.2c-8.94,0-16.201-7.257-16.201-16.2
			c0-8.95,7.261-16.207,16.201-16.207C313.931,128.591,321.186,135.848,321.186,144.798"/>
		<path fill="#181716" d="M191.617,191.704c9.47-20.56,13.759-24.157,17.912-24.157c3.079,0,4.191,2.58,4.076,5.45
			c-0.114,2.969-1.866,9.466-5.595,9.466c-3.168,0-2.635-4.016-4.594-4.016c-2.979,0-11.016,12.045-16.211,32.323h-11.001
			l9.006-31.942c0.436-1.428,0.656-2.294,0.722-3.918c0.086-2.197-2.031-2.868-3.805-2.868h-0.936l0.543-1.72
			c0,0,14.299-2.634,15.025-2.775c0.727-0.14,1.773-0.063,1.306,1.285c-0.472,1.354-6.896,22.55-6.896,22.55
			c-0.052,0.173-0.094,0.407,0.07,0.469C191.433,191.924,191.552,191.813,191.617,191.704"/>
	</g>
</g>
</svg>
