<svg xmlns="http://www.w3.org/2000/svg" xmlns:xlink="http://www.w3.org/1999/xlink" width="361.128" height="504.538" viewBox="0 0 361.128 504.538"><path fill="#FFF" d="M69.758 276.358h-4.104v-1.62l3.886-6.07h1.853v6.22h1.405v1.47h-1.405v1.965h-1.635v-1.965zm0-5.37h-.028l-2.413 3.898h2.44v-3.9zM88.59 268.67h1.487l4.16 9.652H92.27l-.9-2.208h-4.185l-.873 2.208h-1.922l4.2-9.652zm2.182 5.97l-1.485-3.925-1.513 3.926h2.998z"/><defs><path id="a" d="M0 0h361.128v504.538H0z"/></defs><clipPath id="b"><use xlink:href="#a" overflow="visible"/></clipPath><path clip-path="url(#b)" fill="#FFF" d="M98.862 268.67h3.354c1.853 0 3.598.6 3.598 2.767 0 1.392-.804 2.414-2.235 2.618l2.56 4.268h-2.07l-2.236-4.09h-1.255v4.09H98.86v-9.653zm3.053 4.09c.97 0 2.1-.082 2.1-1.336 0-1.146-1.064-1.282-1.95-1.282h-1.486v2.618h1.335zM112.73 270.224h-2.958v-1.554h7.635v1.554h-2.958v8.097h-1.72M122.087 268.67h1.718v9.65h-1.718zM134.196 270.74c-.368-.517-1.022-.762-1.69-.762-.79 0-1.583.354-1.583 1.24 0 1.937 4.58.832 4.58 4.267 0 2.073-1.634 3.082-3.53 3.082-1.2 0-2.372-.368-3.162-1.31l1.296-1.253c.423.64 1.145 1.01 1.908 1.01.79 0 1.69-.44 1.69-1.324 0-2.113-4.58-.9-4.58-4.35 0-1.99 1.773-2.916 3.558-2.916 1.01 0 2.018.286 2.768.995l-1.254 1.32zM142.815 270.224h-2.958v-1.554h7.636v1.554h-2.958v8.097h-1.72M156.943 270.74c-.368-.517-1.022-.762-1.69-.762-.79 0-1.583.354-1.583 1.24 0 1.937 4.58.832 4.58 4.267 0 2.073-1.634 3.082-3.53 3.082-1.2 0-2.372-.368-3.162-1.31l1.295-1.253c.423.64 1.145 1.01 1.908 1.01.792 0 1.692-.44 1.692-1.324 0-2.113-4.58-.9-4.58-4.35 0-1.99 1.772-2.916 3.557-2.916 1.01 0 2.017.286 2.767.995l-1.254 1.32zM178.875 276.81c-.914 1.252-2.168 1.76-3.586 1.76-2.946 0-4.99-2.128-4.99-5.073 0-2.944 2.044-5.07 4.99-5.07 1.308 0 2.48.435 3.325 1.513l-.735.613c-.6-.9-1.623-1.31-2.59-1.31-2.523 0-4.09 1.854-4.09 4.254 0 2.398 1.567 4.253 4.09 4.253.967 0 2.167-.463 2.85-1.5l.735.56zM184.06 268.67h5.903v.818h-5.004v3.436h4.69v.817h-4.69v3.765h5.22v.816h-6.12M195.69 268.67h.902v8.835h4.5v.816h-5.4M206.043 268.67h5.903v.818h-5.004v3.436h4.69v.817h-4.69v3.765h5.222v.816h-6.12M217.677 268.67h2.78c1.474 0 3.11.367 3.11 2.55 0 .98-.587 1.772-1.73 2.004v.026c1.266.097 2.15 1.022 2.15 2.372 0 2.224-1.92 2.7-3.228 2.7h-3.083v-9.653zm.9 4.17h1.867c1.868 0 2.222-1.02 2.222-1.62 0-1.35-.953-1.73-2.1-1.73h-1.99v3.35zm0 4.664h2.058c2.113 0 2.454-1.173 2.454-1.854 0-1.43-1.174-1.99-2.317-1.99h-2.196v3.844zM229.813 268.67h2.536c.763 0 3.435 0 3.435 2.535 0 1.84-1.404 2.345-2.468 2.482l2.81 4.635h-1.023l-2.712-4.58h-1.678v4.58h-.9v-9.653zm.9 4.253h1.91c1.894 0 2.263-1.05 2.263-1.718 0-.667-.37-1.717-2.263-1.717h-1.91v3.435zM244.405 268.67h.927l4.062 9.65h-1.008l-1.05-2.56h-5.113l-1.09 2.56h-.94l4.212-9.65zm.423.98l-2.25 5.29h4.432l-2.182-5.29zM255.548 269.488h-3.3v-.82h7.5v.82h-3.3v8.834h-.9M264.78 268.67h.9v9.65h-.9zM271.872 268.67h1.16l5.875 8.452h.028v-8.453h.9v9.65h-1.16l-5.875-8.45h-.028v8.45h-.9M293.99 277.695c-1.117.64-2.344.873-3.6.873-2.943 0-4.988-2.127-4.988-5.072s2.045-5.072 4.99-5.072c1.43 0 2.59.437 3.477 1.336l-.657.683c-.585-.71-1.77-1.2-2.82-1.2-2.522 0-4.09 1.854-4.09 4.254s1.567 4.253 4.09 4.253c1.035 0 1.963-.136 2.698-.572v-3.244h-2.316v-.818h3.218v4.58zM0 295.945h2.78c1.365 0 3.11.532 3.11 2.55 0 1.745-1.39 2.52-2.904 2.52H.9v4.582H0v-9.652zm.9 4.254h2.046c1.022 0 2.044-.44 2.044-1.705 0-1.24-1.063-1.73-2.1-1.73H.9v3.434zM13.323 295.945h.927l4.063 9.652h-1.008l-1.05-2.562h-5.113l-1.09 2.562h-.94l4.21-9.652zm.423.983l-2.25 5.29h4.432l-2.182-5.29zM24.466 296.764h-3.3v-.82h7.5v.82h-3.3v8.834h-.9M35.84 296.764h-3.3v-.82h7.5v.82h-3.3v8.834h-.9M45.073 295.945h5.904v.82h-5.004v3.434h4.69v.818h-4.69v3.762h5.22v.818h-6.12M56.706 295.945h2.536c.764 0 3.436 0 3.436 2.536 0 1.84-1.405 2.346-2.468 2.482l2.808 4.635h-1.022l-2.712-4.58h-1.678v4.58h-.9v-9.652zm.9 4.254h1.91c1.893 0 2.262-1.05 2.262-1.72 0-.666-.37-1.717-2.263-1.717h-1.91v3.436zM68.34 295.945h1.158l5.876 8.453h.027v-8.453h.9v9.653h-1.158l-5.876-8.452h-.027v8.452h-.9M89.587 295.945h1.16l5.875 8.453h.027v-8.453h.9v9.653h-1.16l-5.876-8.452h-.027v8.452h-.9M108.092 295.7c2.946 0 4.99 2.128 4.99 5.07 0 2.946-2.044 5.073-4.99 5.073-2.945 0-4.99-2.127-4.99-5.072.002-2.942 2.045-5.07 4.99-5.07m0 9.324c2.523 0 4.09-1.854 4.09-4.253s-1.567-4.253-4.09-4.253c-2.522 0-4.09 1.854-4.09 4.254s1.568 4.254 4.09 4.254M119.1 304.37c.368 0 .654.286.654.654s-.286.655-.654.655c-.368 0-.654-.288-.654-.656s.285-.653.654-.653M127.978 297.09h-.015l-1.744 1.433-.505-.628 2.385-1.95h.695v9.653h-.817M146.428 295.945h.927l4.063 9.652h-1.008l-1.05-2.562h-5.113l-1.09 2.562h-.94l4.21-9.652zm.423.983l-2.248 5.29h4.43l-2.18-5.29zM156.358 295.945h1.16l5.875 8.453h.027v-8.453h.9v9.653h-1.16l-5.875-8.452h-.027v8.452h-.9M170.378 295.945h2.986c5.016 0 5.22 4.118 5.22 4.827s-.204 4.825-5.22 4.825h-2.986v-9.652zm.9 8.835h1.854c2.563 0 4.553-1.24 4.553-4.008s-1.99-4.01-4.553-4.01h-1.854v8.018zM193.37 296.764h-3.3v-.82h7.5v.82h-3.3v8.834h-.9M202.604 295.945h.9v4.254h5.398v-4.255h.9v9.653h-.9v-4.58h-5.4v4.58h-.898M215.996 295.945h5.903v.82h-5.004v3.434h4.69v.818h-4.69v3.762h5.22v.818h-6.12M242.67 304.085c-.915 1.253-2.17 1.76-3.587 1.76-2.944 0-4.99-2.128-4.99-5.073 0-2.943 2.046-5.07 4.99-5.07 1.31 0 2.48.435 3.326 1.513l-.736.614c-.6-.9-1.623-1.312-2.59-1.312-2.522 0-4.09 1.854-4.09 4.254s1.567 4.253 4.09 4.253c.967 0 2.167-.463 2.85-1.5l.735.56zM252.216 295.7c2.946 0 4.99 2.128 4.99 5.07 0 2.946-2.044 5.073-4.99 5.073-2.944 0-4.988-2.127-4.988-5.072 0-2.942 2.043-5.07 4.988-5.07m0 9.324c2.523 0 4.09-1.854 4.09-4.253s-1.566-4.253-4.09-4.253c-2.52 0-4.09 1.854-4.09 4.254s1.568 4.254 4.09 4.254M262.773 295.945h.9v8.835h4.5v.818h-5.4M277.487 295.7c2.946 0 4.99 2.128 4.99 5.07 0 2.946-2.044 5.073-4.99 5.073-2.945 0-4.99-2.127-4.99-5.072 0-2.942 2.045-5.07 4.99-5.07m0 9.324c2.523 0 4.09-1.854 4.09-4.253s-1.566-4.253-4.09-4.253c-2.52 0-4.09 1.854-4.09 4.254s1.57 4.254 4.09 4.254M294.902 301.903c0 2.058-.886 3.94-3.517 3.94-2.632 0-3.518-1.883-3.518-3.94v-5.958h.9v5.727c0 1.377.367 3.354 2.617 3.354S294 303.05 294 301.672v-5.727h.9v5.958zM300.92 295.945h2.535c.764 0 3.436 0 3.436 2.536 0 1.84-1.404 2.346-2.467 2.482l2.808 4.635h-1.02l-2.713-4.58h-1.678v4.58h-.9v-9.652zm.898 4.254h1.91c1.893 0 2.262-1.05 2.262-1.72 0-.666-.37-1.717-2.263-1.717h-1.91v3.436zM319.644 295.945h2.78c1.474 0 3.11.368 3.11 2.55 0 .98-.587 1.772-1.73 2.004v.026c1.266.096 2.15 1.02 2.15 2.372 0 2.223-1.92 2.7-3.228 2.7h-3.082v-9.653zm.9 4.172h1.867c1.87 0 2.223-1.023 2.223-1.622 0-1.35-.953-1.73-2.1-1.73h-1.99v3.352zm0 4.663h2.058c2.113 0 2.454-1.173 2.454-1.855 0-1.43-1.173-1.99-2.316-1.99h-2.196v3.845zM331.78 295.945h.902v8.835h4.5v.818h-5.4M348.99 301.903c0 2.058-.886 3.94-3.517 3.94-2.633 0-3.52-1.883-3.52-3.94v-5.958h.9v5.727c0 1.377.37 3.354 2.62 3.354 2.248 0 2.615-1.977 2.615-3.354v-5.727h.9v5.958zM355.007 295.945h5.904v.82h-5.003v3.434h4.69v.818h-4.69v3.762h5.22v.818h-6.12M61.56 323.22h.9v9.653h-.9zM68.653 323.22h1.16l5.875 8.454h.027v-8.453h.9v9.653h-1.16l-5.875-8.452h-.027v8.453h-.9M97.835 331.36c-.914 1.253-2.168 1.76-3.586 1.76-2.946 0-4.99-2.128-4.99-5.072s2.044-5.07 4.99-5.07c1.308 0 2.48.434 3.325 1.512l-.735.614c-.6-.9-1.623-1.31-2.59-1.31-2.523 0-4.09 1.854-4.09 4.254 0 2.398 1.567 4.253 4.09 4.253.967 0 2.167-.462 2.85-1.498l.735.558zM107.383 322.977c2.946 0 4.99 2.127 4.99 5.07s-2.044 5.072-4.99 5.072c-2.945 0-4.99-2.128-4.99-5.072s2.045-5.07 4.99-5.07m0 9.323c2.523 0 4.09-1.853 4.09-4.252 0-2.4-1.567-4.254-4.09-4.254-2.522 0-4.09 1.854-4.09 4.254 0 2.398 1.568 4.253 4.09 4.253M117.94 323.22h.9v8.836h4.5v.817h-5.4M128.29 323.22h.9v8.836h4.5v.817h-5.4M141.6 323.222h.928l4.063 9.65h-1.007l-1.05-2.56h-5.113l-1.09 2.56h-.94l4.21-9.65zm.424.98l-2.25 5.29h4.432l-2.182-5.29zM151.53 323.22h2.78c1.474 0 3.11.37 3.11 2.55 0 .982-.586 1.774-1.73 2.005v.027c1.266.096 2.152 1.022 2.152 2.372 0 2.223-1.922 2.7-3.23 2.7h-3.082v-9.653zm.9 4.173h1.868c1.868 0 2.222-1.022 2.222-1.622 0-1.35-.954-1.73-2.1-1.73h-1.99v3.353zm0 4.663h2.058c2.114 0 2.454-1.173 2.454-1.854 0-1.43-1.172-1.99-2.316-1.99h-2.196v3.844zM168.03 322.977c2.947 0 4.99 2.127 4.99 5.07s-2.043 5.072-4.99 5.072c-2.944 0-4.988-2.128-4.988-5.072s2.044-5.07 4.99-5.07m0 9.323c2.522 0 4.09-1.853 4.09-4.252 0-2.4-1.568-4.254-4.09-4.254-2.523 0-4.09 1.854-4.09 4.254 0 2.398 1.567 4.253 4.09 4.253M178.574 323.22h2.536c.765 0 3.437 0 3.437 2.537 0 1.84-1.405 2.345-2.468 2.482l2.807 4.634h-1.02l-2.714-4.58h-1.678v4.58h-.9v-9.653zm.9 4.255h1.91c1.893 0 2.262-1.05 2.262-1.718 0-.667-.37-1.717-2.263-1.717h-1.91v3.435zM193.166 323.222h.927l4.063 9.65h-1.008l-1.05-2.56h-5.113l-1.09 2.56h-.94l4.21-9.65zm.423.98l-2.25 5.29h4.432l-2.183-5.29zM204.31 324.04h-3.3v-.82h7.497v.82h-3.3v8.834h-.898M213.542 323.22h.9v9.653h-.9zM224.996 322.977c2.946 0 4.99 2.127 4.99 5.07s-2.044 5.072-4.99 5.072c-2.944 0-4.988-2.128-4.988-5.072s2.044-5.07 4.988-5.07m0 9.323c2.523 0 4.09-1.853 4.09-4.252 0-2.4-1.566-4.254-4.09-4.254-2.52 0-4.09 1.854-4.09 4.254 0 2.398 1.57 4.253 4.09 4.253M235.553 323.22h1.16l5.875 8.454h.027v-8.453h.9v9.653h-1.16l-5.875-8.452h-.027v8.453h-.9M255.534 323.22h.926l2.4 8.55h.028l2.44-8.55h1.146l2.44 8.55h.027l2.4-8.55h.928l-2.81 9.653h-1.104l-2.44-8.59h-.027l-2.44 8.59h-1.105M273.207 323.22h.9v9.653h-.9zM282.44 324.04h-3.3v-.82h7.5v.82h-3.3v8.834h-.9M291.672 323.22h.9v4.255h5.4v-4.254h.898v9.653h-.898v-4.58h-5.4v4.58h-.9M81.515 350.497h3.354c1.852 0 3.597.6 3.597 2.767 0 1.392-.804 2.414-2.235 2.618l2.562 4.268h-2.072l-2.235-4.09h-1.255v4.09h-1.717v-9.653zm3.053 4.09c.97 0 2.1-.082 2.1-1.336 0-1.144-1.064-1.28-1.95-1.28h-1.486v2.617h1.336zM98.234 350.252c3.012-.055 5.14 1.962 5.14 5.058 0 3.013-2.128 5.03-5.14 5.085-2.972 0-5.1-2.018-5.1-5.03 0-3.096 2.128-5.113 5.1-5.113m.013 8.588c2.005 0 3.327-1.527 3.327-3.585 0-1.922-1.322-3.45-3.327-3.45-1.99 0-3.313 1.528-3.313 3.45 0 2.057 1.323 3.585 3.313 3.585M110.917 356.02l-3.626-5.523h2.155l2.372 3.844 2.4-3.843h2.045l-3.627 5.522v4.128h-1.718M122.81 350.497h1.485l4.16 9.652h-1.965l-.9-2.21h-4.185l-.873 2.21h-1.922l4.2-9.653zm2.18 5.97l-1.485-3.925-1.513 3.926h2.998zM133.08 350.497h1.718v8.098h4.103v1.553h-5.82M157.898 352.76c-.71-.75-1.363-.954-2.032-.954-1.99 0-3.313 1.527-3.313 3.45 0 2.058 1.323 3.584 3.313 3.584.778 0 1.528-.354 2.168-1.172l1.418 1.01c-.872 1.2-2.182 1.717-3.6 1.717-2.97 0-5.098-2.018-5.098-5.03 0-3.096 2.127-5.112 5.1-5.112 1.308 0 2.426.422 3.38 1.526l-1.336.98zM168.727 350.252c3.012-.055 5.14 1.962 5.14 5.058 0 3.013-2.128 5.03-5.14 5.085-2.972 0-5.1-2.018-5.1-5.03 0-3.096 2.128-5.113 5.1-5.113m.013 8.588c2.005 0 3.327-1.527 3.327-3.585 0-1.922-1.322-3.45-3.327-3.45-1.99 0-3.313 1.528-3.313 3.45 0 2.057 1.323 3.585 3.313 3.585M179.053 350.497h3.245c1.867 0 3.558.655 3.558 2.794 0 2.428-1.812 2.865-3.858 2.865h-1.227v3.994h-1.717v-9.653zm2.754 4.185c.98 0 2.25-.054 2.25-1.362 0-1.187-1.132-1.35-2.06-1.35h-1.227v2.712h1.037zM190.918 350.497h6.394v1.554h-4.676v2.374h4.43v1.554h-4.43v2.617h4.92v1.553h-6.638M202.782 350.497h2.278l4.675 7.17.028.027h-.028l.028-.026v-7.17h1.717v9.65h-2.18l-4.773-7.402h-.026v7.402h-1.718M217.184 350.497h1.717v3.845h4.514v-3.845h1.718v9.65h-1.718v-4.25H218.9v4.25h-1.716M233.943 350.497h1.486l4.158 9.652h-1.964l-.9-2.21h-4.185l-.874 2.21h-1.922l4.2-9.653zm2.182 5.97l-1.485-3.925-1.513 3.926h2.998zM252.79 359.44c-1.174.627-2.51.955-3.995.955-2.972 0-5.1-2.02-5.1-5.032 0-3.094 2.128-5.11 5.1-5.11 1.47 0 2.794.312 3.803 1.212l-1.268 1.28c-.613-.598-1.554-.938-2.522-.938-1.99 0-3.313 1.525-3.313 3.448 0 2.06 1.324 3.585 3.313 3.585.872 0 1.663-.164 2.264-.505v-2.275h-1.978v-1.555h3.695v4.935zM258.356 350.497h6.393v1.554h-4.676v2.374h4.432v1.554h-4.432v2.617h4.92v1.553h-6.638M270.222 350.497h2.276l4.677 7.17.026.027h-.025l.026-.026v-7.17h1.72v9.65h-2.183l-4.77-7.402h-.028v7.402h-1.718M141.167 483.335v3.053s5.43 3.047 12.694 3.047c7.262 0 13.376-3.26 13.376-3.26s4.887 3.188 13.987 3.188c7.19 0 12.153-3.262 12.153-3.262s5.58 3.334 13.996 3.334c6.88 0 11.996-3.047 11.996-3.047v-2.98s-5.504 3.193-12.23 3.193c-8.255 0-13.604-3.623-13.604-3.623s-6.958 3.762-12.616 3.762c-7.183 0-13.68-3.763-13.68-3.763s-5.58 3.623-13.222 3.623c-7.65 0-12.85-3.265-12.85-3.265M141.167 490.884v3.054s5.43 3.056 12.694 3.056c7.262 0 13.376-3.27 13.376-3.27s4.887 3.197 13.987 3.197c7.19 0 12.153-3.268 12.153-3.268s5.58 3.342 13.996 3.342c6.88 0 11.996-3.056 11.996-3.056v-2.98s-5.504 3.188-12.23 3.188c-8.255 0-13.604-3.62-13.604-3.62s-6.958 3.768-12.616 3.768c-7.183 0-13.68-3.768-13.68-3.768s-5.58 3.62-13.222 3.62c-7.65 0-12.85-3.262-12.85-3.262M141.167 498.43v3.055s5.43 3.054 12.694 3.054c7.262 0 13.376-3.264 13.376-3.264s4.887 3.193 13.987 3.193c7.19 0 12.153-3.27 12.153-3.27s5.58 3.338 13.996 3.338c6.88 0 11.996-3.054 11.996-3.054v-2.98s-5.504 3.193-12.23 3.193c-8.255 0-13.604-3.62-13.604-3.62s-6.958 3.762-12.616 3.762c-7.183 0-13.68-3.763-13.68-3.763s-5.58 3.62-13.222 3.62c-7.65 0-12.85-3.268-12.85-3.268M214.364 446.88c-.433 1.238-1.104 2.38-1.865 3.5-.167.26-.494.622-.907.462-.406-.192-.347-.47-.27-.677 2.117-2.847 3.6-6.737 2.48-10.382-.385-1.45-1.873-2.38-3.186-2.974-1.6-.633-3.36-.853-5.067-.515-.64.178-1.082.208-1.212-.075-.086-.187-.105-.203-.12-.402.04-.463.572-.485.83-.59 2.724-.637 5.48.037 7.6 1.455.77.57 1.517 1.297 1.89 2.24 1.167 2.466.75 5.483-.174 7.956m-3.642 1.407c-.127.046-.32.123-.36-.077-.094-.802.45-1.572.835-2.22-.113-.1-.316-.066-.44-.24-.342-.517 0-1.174.148-1.687-.094-.182-.147-.358-.17-.562-.064-.6.223-1.218.724-1.554.453-.655.413-1.5.1-2.186-.1-.286.22-.27.434-.12.795.565.692 2.585.026 3.518-.127.192-.026.355.01.5.17.382.17.318.375.784.328.634-.082 1.08-.298 1.68-.348.823-.65 1.592-1.385 2.165m-.69-7.647c-.423.13-.826-.152-1.096-.386-.37-.1-.56.193-.88.172-.59-.105-.667-.807-1.01-1.22-.59-.782-1.21.307-1.837-.052-.15-.155-.204-.438-.15-.65.05-.32.166-.715.633-.83.546-.102 1.156-.124 1.628.196.688.403.626 1.436 1.563 1.397.783-.255-.167-1.12.26-1.313.317-.158 1.11.68 1.32 1.253.096.188.102.293.096.465-.032.605-.175.842-.528.968m-.36 12.684c-.743.817-1.284 1.644-1.726 2.575l-.047.043c-.66-.36-.848-.254-1.232.372-.36.583-.39.814.16 1.212l-.044.126c-.79 1.292-1.51 2.285-2.742 3.354-.96.813-2.76-.03-2.916-1.357-2.502 1.813-5.486.355-6.07-1.68-1.38 1.566-3.32 2.75-6.492.275-2.12 1.12-5.707 2.077-8.216-1.266h-.037c-2.506 3.342-6.095 2.384-8.216 1.265-3.173 2.475-5.11 1.29-6.49-.276-.59 2.035-3.57 3.493-6.074 1.68-.16 1.328-1.952 2.17-2.916 1.357-1.233-1.068-1.947-2.062-2.744-3.354l-.035-.126c.536-.397.51-.63.15-1.212-.378-.626-.56-.73-1.225-.372l-.043-.044c-.457-.933-.978-1.76-1.734-2.576-.28-.316-.83-.557-.442-.866.233-.212.52-.347.84-.47.542-.23 1.183-.435 1.68-.022.65.862.075 2.163.396 2.426.096.088.246.132.38.035.545-.49 1.1-1.792 1.94-1.424.755.52 1.35 1.925 1.51 3.113.068.627.225 1.39-.29 1.814-.338.298-.935-.067-1.24.282-.18.48.156.704.415 1.114.377.425.84 1.022 1.535 1.067.97-.134 1.09-1.143 1.492-1.797.115-.18.115-.087.27.015.897.646 2.083 1.098 3.196.95.56-.13 1.194-.42 1.374-1.033.142-.396.083-.762-.007-1.12-.62-1.12-1.166.672-1.986.12-.858-.657-1.578-1.643-1.914-2.765-.123-.403-.283-1 .1-1.366.458-.395.982-.03 1.508-.06.408.03.27-.335.246-.448-.366-.58-1.368-.784-1.422-1.622.054-.734.68-1.02 1.345-1.375 1.055-.473 2.272-.825 3.464-.6.278.073.564.193.67.555.053.318-.083.452-.157.64-.148.4-.558.842-.15 1.313.15.23.36.216.627.065.365-.388.828-.873 1.344-.78.686.073 1.068 1.072 1.23 1.842.242 1.128.344 2.397-.312 3.322-.702.606-1.193-.588-1.854-.087-.186.193-.013.774.134 1.096.39.673.802 1.197 1.57 1.354 1.16.16 1.84-.107 2.796-1.085.372-.42.27-.246.722-.777.4.39 1.003.928 1.56 1.157 1.286.634 3.164.71 4.137-.15.644-.543 1.003-1.558.788-1.813-.975-.994-1.082.574-1.76.82-.87.307-1.265.092-1.686-.342-1.025-1.384-1.114-3.4-.515-5.07.09-.18.09-.18.202-.35.326-.456.716-.592 1.17-.517.634.12 1.05.612 1.32 1.143.115.216.415.21.643.13.242-.078.45-.362.318-.593-.377-.526-.994-.912-1.328-1.458-.22-.372-.32-.945-.116-1.386.143-.38.487-.686.84-.95.757-.48 1.752-.734 2.747-.734h.046c.987 0 1.98.254 2.735.734.352.265.705.57.842.95.206.44.105 1.013-.116 1.385-.34.546-.942.932-1.328 1.458-.13.23.083.515.317.592.237.08.523.087.642-.13.272-.53.69-1.022 1.322-1.142.453-.075.847.06 1.18.517.102.17.102.17.185.35.605 1.67.513 3.687-.505 5.07-.42.434-.82.648-1.69.342-.67-.246-.777-1.814-1.747-.82-.226.256.126 1.27.776 1.812.97.862 2.847.785 4.144.15.556-.228 1.145-.768 1.555-1.156.447.53.35.356.728.777.943.978 1.632 1.246 2.78 1.085.774-.157 1.19-.682 1.575-1.354.146-.32.33-.902.135-1.096-.647-.5-1.15.693-1.85.087-.66-.925-.548-2.194-.31-3.322.163-.77.55-1.77 1.224-1.843.527-.092.973.394 1.354.78.253.15.463.166.622-.064.408-.472 0-.912-.16-1.314-.068-.187-.21-.32-.154-.64.108-.36.398-.48.682-.555 1.176-.226 2.402.127 3.457.6.66.355 1.29.642 1.347 1.376-.058.838-1.054 1.04-1.434 1.622-.013.113-.153.48.256.447.524.03 1.045-.334 1.498.06.396.366.23.964.1 1.367-.325 1.122-1.047 2.107-1.902 2.764-.82.553-1.376-1.24-1.982-.12-.088.36-.163.725-.018 1.12.185.613.81.904 1.377 1.035 1.115.147 2.303-.305 3.193-.95.16-.1.16-.193.273-.014.404.654.52 1.663 1.487 1.797.7-.045 1.167-.643 1.543-1.067.258-.41.592-.636.412-1.114-.31-.35-.893.016-1.238-.282-.505-.426-.356-1.188-.296-1.814.17-1.188.76-2.593 1.517-3.113.84-.368 1.38.933 1.94 1.424.142.097.28.053.382-.035.31-.263-.262-1.563.394-2.426.492-.412 1.136-.21 1.688.02.316.125.603.26.826.472.387.31-.162.55-.44.866m-5.876 10.23c-.168.046-.57 0-.824-.044-1.207-.277-9.898-2.008-22.618-2.017h-.045c-12.726.01-21.428 1.74-22.63 2.017-.25.044-.647.09-.81.044-.16-.06-.35-.32-.233-.545.068-.196.256-.307.42-.37 4.562-.983 14.09-2.4 23.254-2.41h.046c9.15.01 18.69 1.427 23.238 2.41.176.063.362.174.426.37.116.222-.07.485-.222.544m-.744 4.308c-.107-.008-.056-.267-.065-.434-.07-.27-.487-.39-.513-.454-.154-.092-.142-.577.053-.71.102-.082.293-.097.405-.03.292.15.562.492.54.91-.074.332-.173.724-.42.718m-1.458.85c.033.074.076.12.146.204.084.135.363.344.1.51-.108.013-.24 0-.36-.113-.833-.81-.98-2.076-.614-3.158.21-.49.688-1.314 1.287-1.287.41.01.166.566-.058.785-.653.78-1.05 2.07-.503 3.06m-5.118-4.003c.066-.494.522-.845 1.015-.777l.802.092c.496.07.854.516.797 1.016-.07.502-.52.853-1.015.793l-.807-.105c-.498-.063-.854-.51-.794-1.018m.568 3.623l.813.106c.488.057.845.506.787.998-.07.51-.515.86-1.01.8l-.816-.104c-.494-.06-.85-.51-.78-1.01.056-.5.515-.85 1.008-.79m-6.306-2.405l1.385-1.18c.243-.21.608-.173.812.063l1.163 1.39c.214.24.182.613-.065.816l-1.385 1.164c-.242.21-.605.17-.812-.067l-1.167-1.39c-.206-.237-.17-.612.07-.798m-4.793-1.877c0-.5.394-.903.898-.903h.82c.492 0 .903.404.903.903 0 .493-.41.912-.903.912h-.82c-.503 0-.897-.42-.897-.912m.796 3.436h.823c.5 0 .896.407.896.913 0 .5-.396.9-.897.9h-.824c-.495 0-.904-.4-.904-.9 0-.506.41-.914.904-.914m-9.864.162v-4.52c0-.393.31-.722.71-.722h5.907c.4 0 .718.33.718.722v4.52c0 .403-.316.718-.72.718h-5.905c-.4 0-.71-.314-.71-.718m-2.072.75c0 .5-.4.9-.898.9h-.825c-.492 0-.9-.4-.9-.9 0-.505.408-.913.9-.913h.825c.5 0 .9.407.9.913m-1-3.438h-.82c-.5 0-.903-.42-.903-.912 0-.5.402-.903.903-.903h.82c.5 0 .898.404.898.903 0 .493-.398.912-.897.912m-7.268 1.24l1.176-1.392c.21-.236.576-.273.812-.064l1.38 1.18c.247.186.274.56.074.797l-1.17 1.39c-.2.237-.567.277-.813.068l-1.384-1.165c-.244-.204-.274-.576-.075-.816m-1.926 2.92c.064.502-.29.95-.785 1.01l-.81.104c-.492.06-.95-.29-1.008-.8-.07-.49.29-.94.787-.998l.807-.106c.494-.06.942.29 1.01.79m-1.225-3.397l-.817.105c-.493.06-.945-.29-1.01-.792-.06-.5.293-.945.786-1.016l.814-.092c.496-.067.952.283 1.005.777.067.51-.286.955-.778 1.017m38.11 7.572c-7.065-.72-13.883-1.1-21.15-1.12h-.044c-7.282.02-14.082.4-21.156 1.12-.53.036-.884-.098-.904-.334-.03-.307.067-.473.296-.533 1.938-.358 4.095-.567 6.063-.71 5.147-.514 10.42-.83 15.7-.83h.046c5.273 0 10.55.316 15.7.83 1.97.143 4.107.352 6.05.71.23.06.34.227.304.533-.025.236-.38.37-.906.333m-21.15 1.23h-.044c-1.044-.014-13.83-.2-15.34-.617 2.212-.48 11.844-.6 15.34-.607h.045c3.486.01 13.123.13 15.334.607-1.512.417-14.297.604-15.335.617m-21.8-8.878c-.217-.22-.458-.775-.055-.785.608-.027 1.08.798 1.28 1.287.374 1.082.227 2.35-.608 3.158-.117.113-.253.126-.353.113-.274-.166.01-.375.093-.51.075-.083.113-.13.148-.203.548-.99.155-2.278-.504-3.06m-.89 1.777c-.014.166.04.425-.063.433-.24.006-.34-.387-.425-.717-.02-.42.25-.76.546-.91.124-.067.3-.053.41.03.183.132.204.617.048.71-.028.063-.44.183-.517.453M150.1 439.67c-.018-.172.005-.277.09-.465.21-.573 1.002-1.41 1.317-1.253.43.193-.51 1.06.256 1.313.954.038.886-.994 1.573-1.397.475-.32 1.08-.298 1.624-.195.472.114.586.51.635.83.057.212 0 .494-.146.65-.627.357-1.256-.73-1.838.052-.342.412-.426 1.113-1.01 1.22-.328.02-.506-.272-.88-.173-.272.233-.67.516-1.098.386-.35-.126-.49-.363-.523-.968m.196 8.538c-.038.2-.24.123-.358.077-.736-.573-1.038-1.342-1.387-2.163-.21-.6-.614-1.047-.298-1.68.206-.467.206-.403.38-.786.04-.144.138-.307.005-.5-.665-.932-.768-2.95.034-3.516.207-.15.532-.167.42.12-.295.685-.336 1.53.112 2.185.497.336.788.955.71 1.555-.014.203-.066.38-.153.562.147.513.485 1.17.138 1.688-.112.173-.334.14-.435.238.383.648.93 1.418.833 2.22m-1.233 2.632c-.403.16-.75-.203-.898-.463-.758-1.12-1.44-2.262-1.863-3.5-.934-2.474-1.35-5.49-.184-7.956.37-.943 1.125-1.67 1.898-2.24 2.122-1.418 4.867-2.092 7.59-1.454.27.104.793.126.83.59-.01.198-.028.215-.12.4-.136.284-.57.254-1.21.076-1.712-.338-3.467-.118-5.07.514-1.315.593-2.793 1.522-3.192 2.974-1.112 3.645.365 7.535 2.49 10.382.072.207.13.483-.27.676m7.945-7.32c-.088.455-.247 1.033.022 1.404.167.405 1.102.415.692 1.017-.23.694 1.026 1.23.458 1.46-.426.086-.8.07-1.456.273-1.03.343-1.784.902-2.65 1.442-.265.15-.494.438-.632.708-.42-.208-1.065-.336-1.552-.3-.017-.362.083-.493.017-.81-.038-.75-.3-1.413-.574-2.115.218-.744.31-1.446.043-2.218-.21-.552.207-1.26-.044-1.71-.077-.135 0-.194 0-.194.275-.21.64-.455.974-.686.895.17 1.525-.337 2.087-.927.572.195 1.16-.3 1.598-.037.21.134.472.45.252.71-.203.408-.155 1.097.142 1.453.175.237.448.377.62.533m2.107 7.998c.08.218.1.473.232.683-.574.48-.896 1.372-.727 2.264.095.797.432 1.505.716 2.217-.223.043-.374.08-.59.036.163-1.42-1.072-4.667-2.828-5.188-.403-.062-.866.11-1.242.28-.198-.295-.312-.477-.445-.646 0-.067.062-.067.07-.1 1.076-1.22 2.31-2.022 4.318-2.365 0 0 1.075-.26 1.584-.067.413.268-.2.645-.51.92-.51.567-.688 1.15-.58 1.968m4.064-13.448c.118.374-.527.45-.308.874.176.24.223.562.153.846-.073.274-.356.312-.522.126-.154-.21-.4-.462-.706-.502-.192 0-.322.084-.395.22-.147.416.77 1.23 1.045 1.903.237.52.734 1.133.216 1.646.04.57.598 1.19.163 1.66-.456.15-1.276-1.488-1.25-1.944.093-1.104-.907-1.634-1.098-2.648-.14-.912-.247-1.724.128-2.532.094-.186.22-.246.393-.268.282-.044.368.268.642.165.392-.504-.144-1.043.133-1.635.152-.607.657-1.198 1.25-1.363.273-.03.453.17.445.314-.027.542-.635.68-.745 1.182-.222.68.11 1.403.456 1.954m-5.17.255c.314-2.51 1.51-5.294 4.136-6.1.13-.055.33-.112.486-.166 2.173-.612 4.474.025 6.49.86 1.662.573 3.463 1.06 5.233 1.38.24.04.518.097.65.353.07.17.102.484-.036.634-.3.404-.528.262-1.24.09-2.522-.628-5.037-1.41-7.454-2.25-1.5-.507-4.68-.138-5.943 1.696-.317.35-.552.815-.754 1.263-.71 1.935-.957 4.466-.093 6.46.65 1.71 1.555 3.132 2.75 4.538.112.22.14.45-.064.63-.166.107-.26.225-.53.134-.59-.297-1.073-.985-1.44-1.545-1.327-1.92-2.18-4.34-2.245-6.594-.004-.336.022-1.31.053-1.383m6.258-1.94c-.078-.4.05-.643.098-.763.23-.545.812-1.323 1.308-1.227.356.16-.017.642.306.853.46-.02.812-.387 1.31-.24.45.24.96.29 1.46.42.143.08.25.275.17.433-.206.408-.668.53-1.097.545-.506.022-.655-.314-1.023-.29-.992.434-.917 1.845-1.928 2.133-.253.018-.5-.065-.56-.33-.27-.496.187-1.057-.044-1.532m10.89 12.646c-.247.227-.578.307-.83.485-1.6.965-1.806 3.303-1.56 5.102.066.322.1.732.245 1.067-.155.068-.392-.09-.53-.21-.194-.217-.534-.553-.894-.477-.55.117-.64.833-1.128 1.02-.032-.015.036-3.82-.928-5.226-.44-.588-1.202-1.224-2.09-1.18-.307-.72-.762-1.427-1.56-1.65-.66-.217-1.923 0-2.057-.307-.176-.58.413-.62.712-.845 1.31-.746 2.3-1.244 4.603-1.09 1.108.083 2.04.354 3.112.493 1.117.188 1.75.292 3.095.413.268.014.19.037.56.09-.507.725-.932 1.36-.753 2.314m.652-4.315c.073.286.073.286.11.514-1.37-.046-2.728-.275-4.02-.435-1.98-.32-4.173-.97-6.136-.058-.39.13-.786.322-1.17.47-.082-.285-.082-.285-.104-.413 0 0-.222-.93-.274-1.418.237-.52.052-1.238-.16-1.664.317-.593.6-1.188.616-1.926.187-.292.59-.173.874-.307.61-.25 1.078-.785 1.356-1.367.487-.21.974-.087 1.613-.248.526-.148.684-.208.947-.416.288-.178.56-.993 1.193-.77.934.135 2.086.274 3.12.148.202-.036.36-.066.652 0-.1.754-.016 1.48.215 2.137-.28.648-.187 1.373.185 1.95-.305 1.118-.635 2.715.453 3.544.17.068.37.172.53.255m1.133-9.92c.23-.27.306-.296.506-.372.2-.03.34.076.422.226.145.745-.436 1.396-.765 2.097-.07.196.022.367.23.347.226-.02.466-.227.68-.06.203.134.18.208.104.343-.27.642.42 1.338-.094 1.843-.377.613-.777 1.848-.755 1.995.015.145-.02.285.216.38.225 0 .493-.228.702.12.232.695.268 1.545.154 2.324-.094.395-.144.528-.363.61-.358.016-.33-.29-.387-.484-.083-.42.056-.972-.365-1.24-.34-.015-.578.44-.92.106-.344-.486-.083-1.577-.006-1.755.116-.45.498-.728.312-1.16-.24-.262-.225-.67-.225-.965-.037-.352.4-.438.17-.79-.304-.114-.493-1.02-.493-1.148-.013-.666.583-1.916.876-2.417m-.23-6.415c.333-.932.863-1.446 1.762-1.856.277-.127.475-.084.475-.084v2.472s-1.393.18-2.193.24c-.213-.213-.112-.51-.043-.773m3.604 5.17h-.004.01-.006.03-.01.01c1.075.02.802 2.546.802 5.652 0 3.116.332 5.64-.803 5.664h-.03c-1.143-.024-.81-2.547-.81-5.663 0-3.106-.267-5.632.81-5.653m-.006-2.23h.046c1.037 0 2.092.057 3.14.14.25.03.453.238.4.52-.054.197-.214.33-.387.344-1.068-.08-2.095-.023-3.154-.023h-.045c-1.06 0-2.09-.057-3.152.023-.187-.014-.343-.146-.392-.343-.058-.283.142-.492.398-.522 1.04-.082 2.106-.14 3.147-.14m1.4-4.878s.197-.043.48.083c.886.41 1.43.925 1.75 1.856.084.265.17.56-.04.77-.805-.06-2.19-.238-2.19-.238v-2.47zm2.56 12.71c0 .294.015.702-.225.964-.19.432.2.71.315 1.158.066.178.333 1.27-.01 1.755-.346.334-.576-.12-.92-.106-.418.27-.28.82-.37 1.24-.048.195-.02.5-.377.484-.224-.08-.268-.215-.366-.61-.113-.778-.083-1.628.153-2.322.213-.35.478-.12.698-.12.243-.096.202-.236.207-.38.036-.148-.363-1.383-.742-1.996-.523-.505.17-1.2-.092-1.843-.08-.136-.1-.21.106-.344.21-.167.443.038.67.06.213.02.31-.15.234-.346-.33-.7-.904-1.352-.762-2.097.083-.15.223-.256.414-.226.208.076.27.104.508.372.293.5.89 1.75.868 2.415 0 .127-.183 1.034-.485 1.148-.22.354.197.44.177.79m.58 5.566c.156-.084.353-.188.53-.255 1.087-.83.754-2.426.45-3.545.375-.576.457-1.3.18-1.95.24-.656.32-1.383.223-2.137.286-.066.453-.036.647 0 1.038.126 2.193-.014 3.127-.15.632-.222.898.594 1.186.772.263.208.433.268.955.416.637.162 1.113.04 1.604.25.28.58.744 1.116 1.36 1.366.276.134.687.015.875.307.007.737.296 1.333.618 1.926-.223.425-.402 1.143-.162 1.663-.06.49-.27 1.417-.27 1.417-.024.128-.024.128-.108.414-.382-.148-.78-.342-1.177-.47-1.957-.912-4.152-.264-6.142.056-1.284.16-2.64.39-4.007.435.036-.23.036-.23.11-.516m10.135-10.323c.493-.097 1.08.682 1.308 1.227.05.12.166.36.09.764-.223.476.223 1.036-.04 1.53-.06.266-.303.35-.556.332-1.02-.288-.94-1.7-1.93-2.132-.362-.025-.513.312-1.02.29-.44-.016-.89-.138-1.102-.546-.083-.157.03-.354.17-.434.5-.128 1.014-.18 1.463-.418.5-.147.852.22 1.31.24.317-.21-.05-.692.307-.853m-8.656 15.123c-.256-.18-.58-.26-.83-.485.178-.954-.237-1.59-.746-2.313.358-.052.285-.075.545-.088 1.347-.12 1.99-.226 3.105-.413 1.076-.138 2.002-.41 3.112-.492 2.3-.154 3.297.344 4.598 1.09.31.224.89.266.717.845-.136.306-1.4.09-2.063.306-.79.224-1.257.932-1.558 1.65-.882-.044-1.654.592-2.09 1.18-.963 1.405-.894 5.21-.922 5.226-.495-.187-.584-.902-1.127-1.02-.366-.076-.71.26-.893.477-.146.12-.38.278-.546.21.158-.336.19-.746.25-1.068.25-1.802.047-4.14-1.555-5.105m11.873-7.98c.28-.674 1.196-1.488 1.05-1.905-.076-.135-.205-.22-.392-.22-.312.04-.56.294-.7.503-.173.186-.456.148-.532-.126-.074-.283-.014-.606.16-.846.222-.425-.423-.5-.313-.874.347-.55.686-1.275.455-1.954-.108-.503-.712-.64-.743-1.182-.01-.144.18-.345.44-.314.593.165 1.11.756 1.258 1.363.266.592-.26 1.13.137 1.634.267.102.354-.21.636-.166.173.02.303.082.39.268.372.81.272 1.62.126 2.532-.183 1.015-1.188 1.544-1.095 2.648.036.456-.793 2.094-1.255 1.943-.435-.47.123-1.088.17-1.66-.52-.512-.032-1.124.208-1.646m-12.552-6.887c.133-.256.414-.312.647-.353 1.776-.32 3.574-.807 5.237-1.38 2.016-.835 4.31-1.473 6.493-.86.146.055.356.112.483.167 2.614.806 3.818 3.59 4.138 6.1.028.072.053 1.047.046 1.382-.077 2.252-.915 4.673-2.236 6.593-.36.56-.848 1.248-1.438 1.545-.27.09-.37-.026-.538-.134-.197-.18-.182-.41-.07-.63 1.21-1.406 2.1-2.827 2.758-4.537.86-1.995.616-4.526-.092-6.46-.21-.448-.448-.915-.753-1.264-1.272-1.834-4.446-2.203-5.943-1.697-2.42.84-4.93 1.623-7.462 2.252-.694.17-.934.313-1.24-.09-.136-.15-.098-.465-.03-.635m16.253 22.067c-.21.044-.375.007-.586-.036.284-.712.626-1.42.713-2.217.18-.892-.15-1.782-.72-2.264.127-.21.15-.465.218-.682.13-.818-.06-1.4-.57-1.97-.31-.274-.93-.65-.502-.92.502-.192 1.58.07 1.58.07 2.006.342 3.237 1.145 4.316 2.365.007.03.07.03.07.1-.138.17-.248.35-.444.646-.383-.17-.834-.342-1.246-.28-1.758.523-2.99 3.77-2.83 5.19m1.728-11.793c.267-.37.11-.95.018-1.403.174-.156.44-.297.622-.53.292-.357.346-1.046.142-1.454-.218-.26.044-.576.254-.71.436-.264 1.015.232 1.593.037.564.59 1.19 1.096 2.09.927.336.23.7.476.975.686 0 0 .077.06 0 .194-.256.45.157 1.158-.046 1.71-.276.77-.18 1.474.045 2.22-.27.7-.533 1.364-.576 2.113-.063.318.038.45.014.812-.483-.038-1.13.09-1.552.298-.128-.27-.36-.56-.626-.708-.868-.54-1.624-1.1-2.65-1.442-.658-.203-1.028-.188-1.457-.274-.57-.228.685-.765.457-1.46-.408-.602.517-.612.693-1.017m13.476-1.745c.35-.357.575-.85.575-1.39 0-.687-.355-1.278-.88-1.626.192-.318.31-.68.31-1.063 0-.948-.666-1.732-1.56-1.92l.032-.066c.022-.127.034-.26.034-.396 0-1.08-.872-1.955-1.944-1.955-.16 0-.313.023-.453.053l-.005-.03c-.253-.783-.994-1.353-1.864-1.353-.296 0-.576.07-.833.2l-.017-.034c-.35-.52-.945-.854-1.622-.854-.408 0-.78.117-1.093.325l-.034-.02c-.308-.218-.687-.336-1.094-.336-.638 0-1.193.308-1.557.767-.34-.28-.783-.458-1.266-.458-.206 0-.417.034-.607.087-.147-.926-.952-1.635-1.925-1.635-.197 0-.396.03-.568.08l-.023-.014c0-1.077-.87-1.948-1.953-1.948-.555 0-1.06.23-1.417.605l-.007-.03c-.356-.525-.95-.868-1.623-.868-.726 0-1.362.398-1.688.98l-.016.013c-.32-.247-.733-.388-1.17-.388-.766 0-1.413.44-1.746 1.073l-.08-.007c-.124-.027-.26-.037-.38-.037-.7 0-1.307.36-1.657.903-.158-.052-.328-.072-.508-.072-.674 0-1.266.353-1.618.873l-.043-.006c-.305-.194-.678-.314-1.074-.314-.14 0-.275.014-.405.036l-.01-.066c.063-.194.126-.397.172-.605l.008.014c.354-.243.578-.66.578-1.123 0-.426-.187-.8-.492-1.045v.008c-.248-1.81-1.31-3.354-2.804-4.27l.006.035c-.15-.62-.485-.97-1.07-1.15.01-.29-.004-1.12-.004-1.12l1.31-.016c0 .748.614 1.36 1.37 1.36.67 0 1.243-.5 1.34-1.152h.026c.617-.127 1.094-.677 1.094-1.335 0-.68-.505-1.24-1.15-1.344h.026c-.133-.612-.686-1.08-1.336-1.08-.714 0-1.307.55-1.36 1.254h-1.32v-1.434h.033c.613-.145 1.073-.69 1.073-1.338 0-.666-.473-1.226-1.104-1.34l-.044-.04c-.123-.606-.67-1.075-1.318-1.086h-.03c-.658.01-1.197.48-1.32 1.087l-.047.04c-.628.113-1.103.673-1.103 1.34 0 .647.46 1.192 1.074 1.337h.03v1.434h-1.316c-.065-.704-.646-1.255-1.358-1.255-.662 0-1.205.468-1.337 1.08h.02c-.647.105-1.14.664-1.14 1.345 0 .658.464 1.208 1.088 1.335h.025c.097.652.658 1.153 1.343 1.153.752 0 1.36-.613 1.36-1.36l1.315.014s-.015.832-.005 1.122c-.576.178-.918.53-1.072 1.148l.007-.035c-1.49.915-2.554 2.46-2.796 4.27l-.007-.008c-.298.246-.496.62-.496 1.046 0 .463.232.88.593 1.124v-.013c.044.21.103.412.163.606v.066c-.133-.022-.265-.036-.41-.036-.395 0-.763.12-1.075.315l-.03.007c-.352-.52-.95-.873-1.633-.873-.172 0-.338.02-.51.072-.336-.542-.944-.903-1.634-.903-.135 0-.265.01-.398.038l-.08.008c-.33-.632-.985-1.073-1.746-1.073-.437 0-.845.14-1.172.388l-.013-.013c-.33-.582-.96-.98-1.685-.98-.68 0-1.278.342-1.624.867l-.012.03c-.358-.376-.86-.605-1.415-.605-1.082 0-1.955.87-1.955 1.95l-.02.014c-.183-.05-.365-.08-.565-.08-.982 0-1.78.708-1.937 1.633-.187-.054-.39-.088-.6-.088-.485 0-.928.177-1.265.46-.36-.46-.93-.768-1.56-.768-.408 0-.774.118-1.09.336l-.033.02c-.31-.207-.69-.324-1.1-.324-.67 0-1.262.333-1.614.855l-.012.035c-.258-.13-.542-.2-.844-.2-.862 0-1.597.57-1.86 1.354l-.004.028c-.144-.03-.293-.053-.45-.053-1.08 0-1.95.875-1.95 1.956 0 .138.007.27.04.397l.03.067c-.893.187-1.56.97-1.56 1.92 0 .382.114.744.317 1.062h-.004c-.536.348-.885.94-.885 1.627 0 .538.217 1.03.573 1.39l-.01.004c-.247.286-.39.645-.39 1.04 0 .628.36 1.164.886 1.42l.008.005c-.08.193-.138.41-.138.64 0 .692.46 1.287 1.085 1.504l.008-.014c-.08.194-.13.42-.13.644 0 .672.418 1.24 1.016 1.468-.02.114-.03.228-.03.336 0 .742.508 1.368 1.194 1.532l.053.09c-.103.202-.162.422-.162.658 0 .785.64 1.417 1.412 1.417.322 0 .613-.103.85-.282l.014.036c.947.564 1.546 1.563 2.053 2.515v.094c-.133.236-.213.513-.213.806 0 .875.706 1.582 1.58 1.582.075 0 .136-.008.205-.013 0 0 1.763 2.314 2.736 3.33h-.01c-.296.26-.482.643-.482 1.065 0 .73.555 1.343 1.26 1.42l.204 1.143c-.292.477-.463 1.025-.476 1.615-.02 1.267.702 2.42 1.75 2.947l.033 1.396s-.627.322-.83.65c-.132.218-.215.48-.224.75-.006.582.324 1.087.804 1.344 0 0 .62.47 2.244.695 5.304.698 10.57.984 16.1 1.17 1.44.022 2.9.036 4.364.036h.045c1.463 0 2.92-.014 4.358-.037 5.522-.186 10.788-.472 16.1-1.17 1.62-.228 2.243-.696 2.243-.696.48-.257.807-.762.793-1.345 0-.272-.074-.532-.21-.75-.197-.328-.833-.65-.833-.65l.03-1.395c1.055-.528 1.77-1.68 1.74-2.947-.008-.59-.17-1.14-.463-1.615l.198-1.143c.712-.077 1.256-.688 1.256-1.42 0-.423-.182-.806-.478-1.066h-.01c.975-1.015 2.742-3.33 2.742-3.33.068.006.134.014.205.014.87 0 1.575-.707 1.575-1.582 0-.293-.08-.57-.22-.807v-.095c.522-.95 1.106-1.95 2.063-2.514l.013-.035c.233.18.533.282.845.282.782 0 1.415-.632 1.415-1.417 0-.236-.057-.456-.163-.66l.055-.088c.68-.164 1.202-.79 1.202-1.532 0-.108-.014-.222-.045-.336.6-.23 1.024-.796 1.024-1.468 0-.225-.053-.45-.133-.644l.01.014c.633-.217 1.08-.812 1.08-1.505 0-.228-.045-.444-.136-.638l.01-.006c.53-.255.89-.79.89-1.42 0-.395-.144-.753-.392-1.04l-.012-.004z"/><path clip-path="url(#b)" fill="#FFF" d="M181.655 463.12c.686 0 .95.285.73.516-.52.33-1.448 1.01-1.448 1.01h-.46c-1.012 0-1.364 0-1.364.387-.013.308 0 .067 0 .51-.403.28-1.486 1.135-1.486 1.135v-2.888s.188-.67.792-.67h3.235M182.542 466.677h-2.567l2.567-1.787M180.374 454.472c-1.185-.028-1.343-.27-1.343-1.268 0-1.048.16-1.247 1.344-1.287h.056c1.184.05 1.342.27 1.342 1.287 0 1.04-.158 1.24-1.342 1.268h-.056zM196.01 455.038c-.845-.283-.915-.477-.697-1.215.22-.75.376-.86 1.243-.643l.036.024c.852.268.917.475.703 1.207-.23.75-.38.867-1.24.637l-.045-.01zM164.957 455.038c.843-.283.91-.477.69-1.215-.22-.75-.38-.86-1.238-.643l-.044.024c-.85.268-.914.475-.696 1.207.227.75.373.867 1.237.637l.05-.01zM145.498 4.56h-6.673V0h18.5v4.56h-6.674v18.83H145.5M169.185 0h5.153v8.722h10.01V0h5.154v23.39h-5.154V13.28h-10.01v10.11h-5.153M203.707 0h15.89v4.757H208.86V9.12h10.143v4.756H208.86v4.757h11.33v4.757h-16.483M148.967 48.465h4.262l10.174 23.39h-5.815l-2.016-4.955h-9.085l-1.95 4.955h-5.682l10.11-23.39zm1.982 6.806l-2.842 7.27h5.715l-2.874-7.27zM175 48.465h9.05c4.79 0 8.822 1.652 8.822 7.104 0 3.27-1.75 5.813-5.054 6.407l5.946 9.878h-6.178l-4.89-9.35h-2.544v9.35H175v-23.39zm5.153 9.68h3.04c1.883 0 4.327-.066 4.327-2.61 0-2.345-2.114-2.708-3.997-2.708h-3.37v5.318zM209.59 53.025h-6.674v-4.56h18.5v4.56h-6.673v18.83h-5.154M80.58 96.93h8.69c4.856 0 8.886 1.553 8.886 7.102 0 5.485-3.734 7.17-8.656 7.17h-3.766v9.117H80.58V96.93zm5.154 9.91h3.436c1.817 0 3.634-.627 3.634-2.808 0-2.41-2.445-2.742-4.427-2.742h-2.643v5.55zM110.643 96.93h9.052c4.79 0 8.82 1.652 8.82 7.103 0 3.27-1.75 5.814-5.053 6.41l5.946 9.876h-6.177l-4.89-9.35h-2.543v9.35h-5.154V96.93zm5.154 9.68h3.04c1.883 0 4.327-.066 4.327-2.61 0-2.345-2.114-2.71-3.997-2.71h-3.37v5.32zM152.666 96.335c7.3 0 12.62 4.79 12.62 12.29s-5.32 12.29-12.62 12.29c-7.3 0-12.62-4.79-12.62-12.29s5.318-12.29 12.62-12.29m0 19.822c4.394 0 7.268-3.17 7.268-7.532s-2.874-7.533-7.268-7.533-7.268 3.172-7.268 7.533 2.873 7.532 7.268 7.532M190.13 112.49c0 4.328-1.125 8.424-7.468 8.424-3.7 0-6.41-1.717-7.168-5.45l4.724-1.157c.132 1.123 1.188 2.05 2.312 2.05 2.41 0 2.444-2.678 2.444-4.428v-15h5.154v15.56zM203.97 96.93h15.89v4.757h-10.735v4.36h10.142v4.758h-10.142v4.757h11.33v4.757h-16.484M249.13 103.008c-1.02-1.222-2.51-1.916-4.426-1.916-3.897 0-6.77 3.17-6.77 7.533 0 4.36 2.873 7.532 6.605 7.532 2.08 0 3.766-.925 4.822-2.51l4.295 3.203c-1.95 2.776-5.253 4.064-8.457 4.064-7.3 0-12.62-4.79-12.62-12.29s5.32-12.29 12.62-12.29c2.61 0 5.913.893 7.896 3.437l-3.965 3.238zM270.21 101.49h-6.674v-4.56h18.5v4.56h-6.674v18.83h-5.153M157.578 198.845h45.38v2.01h-45.38z"/></svg>