<svg xmlns="http://www.w3.org/2000/svg"><symbol viewBox="0 0 74.802 256" id="icon-arrow-left"><title>icon-arrow-left</title><path d="M0 127.333L63.662 0l11.14 5.57-60.888 121.763 60.888 121.762-11.14 5.57z"/></symbol><symbol viewBox="0 0 74.802 256" id="icon-arrow-right"><title>icon-arrow-right</title><path d="M74.802 127.333L11.142 0 0 5.57l60.888 121.763L0 249.095l11.14 5.57z"/></symbol><symbol viewBox="0 0 64 64" id="icon-close"><title>icon-close</title><path d="M63.745 1.453l-1.38-1.38L31.908 30.53 1.452.073l-1.38 1.38L30.53 31.91.072 62.365l1.38 1.38L31.91 33.292l30.454 30.456 1.38-1.38L33.29 31.91z"/></symbol><symbol viewBox="0 0 20 24.143" id="icon-map-marker"><title>icon-map-marker</title><path d="M10 4.035c-1.593 0-3.09.62-4.218 1.747-2.325 2.326-2.325 6.11 0 8.436C6.91 15.344 8.407 15.965 10 15.965s3.09-.62 4.218-1.747c2.325-2.325 2.325-6.11 0-8.436C13.09 4.656 11.593 4.035 10 4.035"/><path d="M17.07 2.93C13.166-.977 6.834-.977 2.928 2.93c-3.905 3.903-3.905 10.235 0 14.14L10 24.143l7.07-7.07c3.907-3.906 3.907-10.238 0-14.143m-2.145 11.994c-1.315 1.315-3.063 2.04-4.925 2.04-1.86 0-3.61-.725-4.925-2.04-2.715-2.715-2.715-7.133 0-9.85C6.39 3.76 8.14 3.034 10 3.034c1.86 0 3.61.726 4.925 2.04 2.716 2.717 2.716 7.135 0 9.85"/></symbol><symbol viewBox="0 0 256 256" id="icon-play"><title>icon-play</title><path d="M88.276 77.977v100.046L197.15 128z"/><path d="M128 256C57.42 256 0 198.58 0 128S57.42 0 128 0s128 57.42 128 128-57.42 128-128 128zm0-253.057C59.043 2.943 2.943 59.043 2.943 128S59.043 253.057 128 253.057 253.057 196.957 253.057 128 196.957 2.943 128 2.943z"/></symbol><symbol viewBox="0 0 200.756 256" id="icon-scroll-down"><title>icon-scroll-down</title><path d="M100.378 255.668L0 205.483l4.39-8.782 95.988 48 95.986-48 4.392 8.783zM100.378 157.485L0 107.295l4.39-8.78 95.988 48.002 95.986-48.003 4.392 8.782zM100.378 59.303L0 9.113 4.39.334l95.988 47.992L196.364.332l4.392 8.782z"/></symbol><symbol viewBox="0 0 200.756 256" id="icon-scroll-up"><title>icon-scroll-up</title><path d="M100.378.332L0 50.517 4.39 59.3l95.988-48 95.986 48 4.392-8.783zM100.378 98.515L0 148.705l4.39 8.78 95.988-48.002 95.986 48.003 4.392-8.782zM100.378 196.696L0 246.886l4.39 8.783 95.988-47.995 95.986 47.994 4.392-8.784z"/></symbol><symbol viewBox="0 0 64 64" id="logo-royalcph-crown"><title>logo-royalcph-crown</title><path id="logo-royalcph-crown-crown" fill="currentColor" d="M59.232 20.25c.28-.282.393-.618.393-1.01 0-.506-.28-.954-.617-1.18.168-.224.225-.505.225-.784 0-.674-.504-1.29-1.12-1.402v-.057c0-.112.056-.168.056-.28 0-.785-.618-1.402-1.403-1.402-.11 0-.225 0-.336.056-.168-.56-.728-1.01-1.346-1.01-.226 0-.45.058-.617.114-.28-.393-.674-.617-1.178-.617-.282 0-.563.11-.787.225h-.057c-.225-.17-.504-.225-.784-.225-.45 0-.897.225-1.122.56-.225-.224-.56-.335-.953-.335-.17 0-.28 0-.45.056-.11-.673-.672-1.18-1.4-1.18-.17 0-.28 0-.394.058 0-.785-.617-1.402-1.458-1.402-.393 0-.784.168-1.01.45-.28-.394-.673-.618-1.18-.618-.503 0-1.01.28-1.232.73-.226-.17-.505-.28-.84-.28-.563 0-1.01.336-1.29.785h-.06c-.11 0-.167-.056-.278-.056-.506 0-.954.28-1.234.673-.11-.056-.223-.056-.392-.056-.506 0-.953.28-1.178.618h-.057c-.337-.28-.617-.337-.896-.337-.112 0-.226 0-.28.057v-.057c.056-.17.11-.28.11-.448.28-.17.45-.506.45-.842s-.17-.56-.394-.785c-.17-1.29-.954-2.412-2.02-3.085-.112-.448-.338-.73-.785-.842v-.84h.953c0 .56.45 1.01 1.01 1.01.506 0 .897-.394 1.01-.843.448-.112.786-.505.786-.953 0-.506-.338-.898-.842-1.01-.11-.45-.504-.785-.953-.785-.505 0-.952.393-1.01.896h-.952V2.748c.447-.112.785-.505.785-.953 0-.505-.338-.897-.785-.954h-.058c-.112-.503-.503-.84-.95-.84-.506 0-.898.337-.955.785H31.3c-.45.112-.786.505-.786.954 0 .503.337.895.785.952v1.065h-.954c-.057-.505-.45-.897-1.01-.897-.505 0-.897.336-.954.785-.505.112-.84.56-.84 1.066 0 .505.335.897.784.954.056.45.505.842 1.01.842.56 0 1.01-.45 1.01-1.01h.953v.84c-.394.113-.674.395-.786.843-1.065.672-1.852 1.794-2.075 3.14-.226.17-.338.448-.338.786 0 .336.168.616.45.84.055.17.055.28.11.45v.056c-.11 0-.224-.057-.28-.057-.28 0-.56.113-.785.225h-.056c-.28-.393-.673-.617-1.177-.617-.112 0-.225 0-.394.057-.225-.393-.674-.674-1.18-.674-.11 0-.167 0-.28.057h-.055c-.225-.45-.73-.785-1.29-.785-.337 0-.617.11-.842.28-.225-.448-.73-.73-1.234-.73s-.954.226-1.18.618c-.28-.28-.616-.45-1.01-.45-.784 0-1.4.618-1.4 1.403-.112-.057-.28-.057-.394-.057-.73 0-1.29.505-1.402 1.18-.11-.058-.28-.058-.448-.058-.337 0-.673.112-.954.336-.28-.335-.673-.56-1.12-.56-.28 0-.563.112-.786.225-.225-.168-.505-.225-.786-.225-.504 0-.953.225-1.178.617-.168-.112-.393-.112-.617-.112-.616 0-1.178.393-1.346 1.01-.113 0-.226-.056-.338-.056-.785 0-1.402.616-1.402 1.4 0 .112 0 .17.057.28v.057c-.673.112-1.122.73-1.122 1.402 0 .28.057.56.225.784-.393.28-.673.674-.673 1.178 0 .393.168.73.393 1.01-.17.225-.28.45-.28.785 0 .45.28.842.673 1.066-.057.168-.112.28-.112.448 0 .506.337.955.786 1.123-.056.168-.112.28-.112.45 0 .503.337.895.73 1.063v.225c0 .563.392 1.01.896 1.123l.056.056c-.336.224-.393.392-.393.56 0 .563.45 1.01 1.01 1.01.225 0 .45-.055.617-.224.673.393 1.122 1.122 1.515 1.85v.058c-.112.168-.17.393-.17.617 0 .618.506 1.18 1.18 1.18h.168s1.29 1.682 2.02 2.467c-.225.17-.337.448-.337.786 0 .562.393.953.897 1.063l.168.842c-.223.338-.335.73-.335 1.18 0 .953.505 1.738 1.29 2.13v1.01s-.45.226-.617.45c-.112.167-.168.336-.168.56 0 .45.224.786.56.954 0 0 .45.338 1.628.506 3.87.505 7.74.73 11.778.842 1.066 0 2.132.056 3.197.056h.057c1.065 0 2.13 0 3.197-.056 4.038-.112 7.908-.337 11.78-.842 1.177-.168 1.625-.506 1.625-.506.337-.168.562-.56.562-.953 0-.226-.058-.395-.17-.563-.168-.225-.615-.448-.615-.448v-1.01c.784-.394 1.288-1.233 1.288-2.133 0-.448-.11-.84-.336-1.18l.168-.84c.504-.057.896-.505.896-1.064 0-.338-.11-.617-.336-.786.73-.73 2.02-2.468 2.02-2.468h.168c.617 0 1.178-.506 1.178-1.18 0-.224-.057-.392-.168-.616v-.057c.394-.672.785-1.402 1.515-1.85.17.11.394.224.617.224.562 0 1.01-.447 1.01-1.01 0-.168-.056-.336-.112-.504l.057-.057c.506-.112.897-.562.897-1.122v-.225c.448-.168.73-.617.73-1.065 0-.17-.058-.337-.113-.448.448-.17.785-.562.785-1.123 0-.168-.057-.336-.112-.448.394-.17.673-.563.673-1.066-.002-.28-.116-.56-.284-.785zm-9.873 1.288c.167-.28.056-.672 0-1.01.112-.11.337-.224.448-.392.225-.28.28-.786.11-1.065-.167-.168.058-.392.17-.505.336-.168.73.17 1.18 0 .392.45.895.785 1.514.674.224.167.505.335.73.504 0 0 .056.056 0 .168-.17.337.11.84-.058 1.233-.225.562-.112 1.066.057 1.627-.224.506-.393 1.01-.393 1.57-.056.225 0 .337 0 .617-.336-.057-.84.056-1.122.224-.11-.225-.28-.393-.448-.505-.616-.394-1.178-.786-1.963-1.066-.505-.168-.73-.112-1.065-.225-.395-.17.503-.562.335-1.066-.335-.448.336-.448.504-.786zm-1.29 8.64c-.168.056-.28 0-.45 0 .226-.506.45-1.066.506-1.628.112-.673-.112-1.29-.505-1.682.112-.17.112-.338.17-.506.112-.617-.058-1.01-.45-1.458-.224-.225-.672-.505-.392-.673.393-.11 1.178.057 1.178.057 1.46.225 2.356.84 3.142 1.74 0 .055.057 0 .057.055-.112.112-.168.28-.336.448-.282-.11-.618-.28-.898-.224-1.237.45-2.134 2.86-2.022 3.87zM36.18 14.02c.11-.168.28-.225.448-.28 1.29-.225 2.636-.617 3.813-1.01 1.46-.616 3.143-1.065 4.77-.616.11.055.28.055.336.11 1.907.618 2.806 2.638 3.03 4.488 0 .056.055.785.055 1.01-.055 1.626-.672 3.42-1.625 4.823-.28.393-.616.898-1.065 1.123-.226.056-.28 0-.394-.113-.168-.11-.112-.28-.056-.448.896-1.01 1.515-2.076 2.02-3.31.616-1.46.448-3.31-.057-4.712-.168-.337-.337-.674-.56-.954-.956-1.347-3.255-1.626-4.376-1.233-1.795.617-3.59 1.18-5.44 1.627-.507.112-.675.225-.897-.056-.057-.055-.057-.28 0-.448zm9.198 5.05c.226-.507.897-1.067.785-1.403-.056-.114-.168-.17-.28-.17-.225.056-.393.225-.505.394-.112.11-.337.11-.394-.113-.057-.224 0-.447.113-.616.168-.336-.28-.393-.226-.616.28-.393.506-.954.338-1.402-.057-.393-.505-.448-.562-.84 0-.114.112-.226.338-.226.447.11.785.56.896 1.01.225.448-.168.84.112 1.178.224.056.28-.168.448-.112.11 0 .225.056.28.224.28.617.224 1.178.11 1.852-.11.73-.84 1.12-.784 1.963 0 .337-.562 1.515-.897 1.402-.337-.336.112-.785.112-1.234-.446-.45-.052-.9.116-1.292zm-8.694 5.832c-.168-.112-.447-.17-.617-.337.113-.673-.168-1.178-.56-1.683.28-.056.224-.056.392-.056 1.01-.112 1.458-.168 2.243-.28.785-.112 1.46-.28 2.3-.337 1.684-.11 2.41.226 3.366.786.223.168.67.168.503.617-.11.225-1.01.057-1.515.225-.562.168-.897.673-1.122 1.234-.673-.057-1.234.448-1.515.84-.728 1.01-.672 3.814-.672 3.814-.338-.11-.45-.672-.842-.73-.28-.056-.506.17-.674.337-.11.113-.28.225-.393.17.11-.226.11-.563.167-.787.282-1.4.114-3.082-1.063-3.812zm6.337-11.05c.337-.057.786.504.954.897.057.057.112.28.057.562-.167.337.17.786 0 1.122-.056.168-.224.28-.392.225-.73-.226-.674-1.235-1.402-1.57-.28 0-.394.223-.73.223-.336 0-.673-.112-.783-.393-.058-.112 0-.28.11-.337.394-.11.73-.11 1.065-.336.336-.112.617.168.953.168.17-.11-.11-.45.17-.56zm-7.402 7.573c.112-.057.28-.112.394-.168.784-.618.56-1.796.336-2.58.28-.394.336-.955.11-1.403.17-.506.226-1.01.17-1.57.224-.057.336-.057.448 0 .785.11 1.627 0 2.3-.113.45-.168.673.45.842.562.17.168.337.224.673.28.45.112.843.057 1.18.168.225.45.56.842 1.01 1.01.226.112.505 0 .616.225 0 .56.226.952.45 1.4-.17.28-.282.843-.113 1.235-.056.336-.224 1.01-.224 1.01 0 .11 0 .11-.06.28-.28-.112-.56-.226-.84-.337-1.402-.674-3.03-.168-4.487.057-.954.11-1.964.28-2.917.336.056-.225.056-.225.112-.393zm-.45-4.095c0 .224 0 .505-.167.73-.11.335.17.503.227.84.056.112.224.954 0 1.29-.28.225-.45-.056-.675-.056-.336.168-.224.616-.28.897-.056.11 0 .336-.28.336-.167-.057-.167-.17-.28-.45-.057-.56-.057-1.178.113-1.682.168-.28.336-.112.505-.112.168-.056.168-.17.168-.28 0-.112-.28-1.01-.562-1.46-.393-.392.112-.895-.057-1.345-.057-.11-.057-.167.056-.224.168-.112.336 0 .506.057.168 0 .224-.113.168-.28-.226-.505-.674-1.01-.562-1.515.056-.113.168-.17.28-.17.168.057.224.057.393.28.226.338.675 1.292.618 1.74 0 .112-.11.785-.337.84-.11.227.17.284.17.564zm-1.85-9.31s.168-.057.336.056c.674.28 1.066.673 1.29 1.346.057.168.112.393-.056.56-.562-.055-1.627-.167-1.627-.167l.058-1.796zm-1.065 3.588c.785 0 1.57.057 2.354.112.168 0 .338.17.28.394-.056.11-.167.224-.28.224-.784-.056-1.515 0-2.3 0h-.055c-.786 0-1.515-.056-2.3 0-.112 0-.225-.112-.28-.224-.057-.225.11-.338.28-.394.786-.055 1.57-.112 2.3-.112zm0 1.627c.056 0 .056 0 0 0 .056 0 .056 0 0 0 .056 0 .056 0 0 0 .785 0 .616 1.852.616 4.15 0 2.3.224 4.15-.617 4.15-.842 0-.617-1.85-.617-4.15.055-2.298-.17-4.15.617-4.15zm-2.58-3.814c.224-.673.616-1.065 1.29-1.346.224-.112.336-.057.336-.057v1.795s-1.01.112-1.628.168c-.168-.11-.11-.336 0-.56zm.11 4.712c.17-.225.226-.225.394-.28.17 0 .225.056.28.168.112.56-.336 1.01-.56 1.515-.057.168 0 .28.167.28.17 0 .337-.168.505-.057.168.114.11.17.056.226-.225.45.336.954-.057 1.347-.28.448-.562 1.347-.562 1.458 0 .113 0 .226.168.282.17 0 .337-.17.505.11.17.507.17 1.123.113 1.685-.056.28-.112.393-.28.448-.28 0-.225-.225-.28-.337-.057-.336.056-.73-.28-.896-.225 0-.393.336-.674.056-.28-.337-.057-1.122 0-1.29.11-.337.392-.505.224-.842-.168-.168-.168-.505-.168-.73 0-.28.28-.336.112-.56-.225-.057-.337-.73-.337-.842.057-.45.506-1.347.674-1.74zM29 21.427c.056.225.056.225.056.393-1.01-.057-2.02-.225-2.917-.336-1.46-.225-3.086-.73-4.488-.057-.28.11-.56.225-.842.336-.056-.225-.056-.225-.056-.28 0 0-.168-.673-.225-1.01.167-.392.056-.897-.113-1.233.225-.45.45-.897.45-1.402.11-.225.447-.112.616-.225.448-.168.785-.56 1.01-1.01.336-.168.728-.056 1.178-.168.394-.112.506-.168.674-.28.225-.112.393-.73.897-.562.674.113 1.516.225 2.3.113.17-.057.28-.057.506 0-.057.56 0 1.064.168 1.57-.225.448-.112 1.01.112 1.402-.225.84-.45 2.02.337 2.58.056 0 .168.112.336.17zm-.506 3.14c-.168.168-.448.225-.617.337-1.178.73-1.346 2.412-1.12 3.76.055.223.055.56.167.784-.112.056-.28-.057-.393-.17-.11-.167-.392-.392-.672-.336-.393.113-.45.617-.842.73 0 0 0-2.805-.673-3.814-.337-.45-.897-.898-1.515-.842-.225-.505-.56-1.066-1.122-1.234-.505-.168-1.402 0-1.515-.225-.11-.448.282-.448.506-.617.954-.56 1.684-.896 3.366-.785.785.057 1.514.28 2.3.337.84.112 1.29.225 2.243.28.168 0 .112 0 .393.057-.335.56-.616 1.065-.504 1.737zm-7.965-9.255c-.057-.28.056-.448.056-.56.168-.395.616-.955.953-.898.28.11 0 .45.224.617.336 0 .617-.28.953-.167.337.168.73.224 1.066.336.11.056.168.224.11.335-.167.28-.504.393-.784.393-.394 0-.506-.224-.73-.224-.73.337-.674 1.347-1.402 1.57-.17 0-.337-.056-.393-.224-.224-.448.112-.84-.056-1.178zm-4.6 1.403c.225-1.85 1.122-3.87 3.03-4.487.11-.057.224-.057.336-.112 1.57-.448 3.253 0 4.768.617 1.233.448 2.523.785 3.813 1.01.17.056.393.056.45.28.055.112.055.336 0 .45-.226.28-.394.167-.898.055-1.853-.448-3.703-1.01-5.442-1.626-1.12-.393-3.42-.113-4.375 1.233-.224.28-.393.617-.56.954-.506 1.4-.674 3.252-.057 4.71.448 1.234 1.12 2.3 2.02 3.31.056.17.11.337-.057.448-.113.057-.17.17-.394.113-.45-.224-.785-.73-1.066-1.122-.953-1.402-1.57-3.197-1.626-4.823.056-.225.056-.954.056-1.01zm3.814-.168c.056.28-.393.337-.225.616.11.17.168.393.11.617-.055.225-.28.225-.392.113-.112-.17-.28-.338-.505-.394-.112 0-.225.055-.28.168-.112.28.56.896.785 1.402.168.393.56.84.168 1.233.057.393.45.84.112 1.234-.393.056-.953-1.122-.953-1.458.056-.787-.673-1.18-.785-1.965-.112-.673-.17-1.233.112-1.85.056-.113.168-.17.28-.226.225 0 .28.224.448.11.28-.393-.112-.785.112-1.178.112-.448.505-.896.897-1.01.224 0 .336.113.336.225 0 .393-.45.506-.562.842-.165.563.06 1.124.34 1.517zm-2.973 9.815c.057.168.057.337.17.506-.394.336-.674 1.01-.506 1.682.057.562.337 1.122.505 1.627-.17.057-.28.057-.45 0 .113-1.065-.784-3.422-2.075-3.814-.28-.056-.616.057-.897.225-.168-.225-.224-.336-.336-.45 0-.055.056-.055.056-.055.785-.897 1.683-1.458 3.142-1.74 0 0 .785-.167 1.178-.055.337.225-.168.448-.393.673-.338.393-.506.842-.394 1.402zM15.2 20.53c-.056.336-.168.728 0 1.008.112.28.786.28.506.73-.17.504.73.896.336 1.064-.336.057-.56.057-1.065.225-.73.28-1.29.674-1.963 1.066-.17.11-.394.336-.45.504-.28-.168-.784-.224-1.12-.224 0-.28.056-.393 0-.617-.057-.56-.225-1.01-.45-1.57.17-.562.226-1.065.057-1.627-.167-.394.17-.898-.055-1.234-.057-.113 0-.168 0-.168.225-.17.448-.338.73-.506.673.112 1.12-.225 1.514-.673.448.11.84-.225 1.177 0 .17.11.337.336.17.504-.17.28-.113.785.11 1.066.223.225.392.337.504.45zm-5.776 5.384c-.28.112-.562-.17-.674-.337-.56-.842-1.065-1.627-1.346-2.58-.673-1.795-1.01-4.04-.112-5.834.28-.672.84-1.233 1.402-1.626 1.57-1.065 3.59-1.515 5.553-1.065.168.056.562.11.617.448 0 .17 0 .17-.112.28-.112.225-.448.168-.897.057-1.234-.225-2.524-.057-3.702.393-.953.45-2.02 1.12-2.355 2.188-.785 2.692.28 5.496 1.795 7.63.054.053.11.277-.17.446zm.897-1.964c0 .17-.168.113-.28.057-.56-.393-.785-1.01-1.01-1.57-.168-.45-.448-.785-.224-1.234.168-.336.168-.28.28-.56.056-.113.112-.226 0-.394-.505-.675-.56-2.133 0-2.58.168-.114.393-.114.337.11-.225.506-.28 1.122.056 1.57.392.225.56.73.504 1.123 0 .168-.057.28-.112.393.112.393.337.84.112 1.233-.112.11-.225.11-.337.168.337.56.73 1.122.674 1.682zm-.168-6.225c0-.112 0-.225.057-.337.167-.448.728-1.01.952-.896.337.11-.393.785.168.953.674.056.617-.73 1.122-1.01.337-.225.785-.225 1.178-.168.337.11.45.393.45.617.055.168 0 .336-.113.448-.45.28-.897-.562-1.347.056-.224.28-.336.842-.73.898-.224 0-.392-.225-.616-.113-.225.17-.505.393-.785.28-.225-.11-.28-.28-.338-.728zm5.554 20.304c0 .11.056.336-.057.336-.17 0-.226-.28-.338-.505 0-.28.17-.56.394-.673.11-.057.224-.057.28 0 .112.11.168.448.056.504 0 .06-.28.117-.336.34zm.616-1.29c-.168-.17-.336-.563-.056-.563.448 0 .785.562.953.953.28.785.168 1.74-.45 2.3-.11.112-.167.112-.28.112-.224-.11 0-.28.057-.393.057-.06.057-.113.112-.17.447-.726.167-1.68-.338-2.24zm15.987 6.506c-.786 0-10.153-.17-11.275-.448 1.627-.337 8.694-.448 11.22-.448h.055c2.58 0 9.592.11 11.217.448-1.123.28-10.433.39-11.218.448zm15.48-.896c-5.16-.562-10.15-.843-15.48-.843h-.057c-5.33 0-10.32.28-15.48.843-.394.057-.674-.058-.674-.226 0-.226.055-.336.223-.394 1.402-.28 2.973-.393 4.432-.504 3.758-.394 7.628-.617 11.5-.617h.055c3.87 0 7.74.224 11.5.616 1.458.11 3.027.28 4.43.504.17.058.226.168.226.394-.06.112-.282.226-.676.226zm-27.878-5.554l-.616.056c-.337.057-.674-.224-.73-.56-.056-.338.226-.674.562-.73l.617-.058c.337-.056.673.226.73.562.054.336-.226.673-.563.73zm.898 2.468c.057.394-.224.674-.56.73l-.618.055c-.336.056-.673-.225-.73-.563-.055-.336.226-.672.563-.73l.617-.056c.335-.054.672.227.728.564zm1.402-2.132l.842-1.01c.168-.168.393-.226.617-.056l1.01.84c.17.17.225.394.057.617l-.842 1.01c-.168.17-.393.226-.616.058l-1.01-.84c-.17-.17-.226-.45-.058-.618zm5.33-.898h-.618c-.393 0-.673-.28-.673-.674 0-.393.28-.672.674-.672h.617c.394 0 .674.28.674.672-.056.336-.337.674-.673.674zm.728 2.525c0 .393-.28.672-.673.672h-.617c-.393 0-.673-.28-.673-.673 0-.394.28-.675.673-.675h.617c.337 0 .673.28.673.674zm1.514-.562v-3.31c0-.28.225-.506.505-.506h4.317c.28 0 .506.225.506.506v3.31c0 .28-.225.504-.506.504H30.29c-.28 0-.506-.223-.506-.504zm7.18-.112h.617c.395 0 .674.28.674.673s-.28.672-.673.672h-.616c-.394 0-.673-.28-.673-.673.058-.394.338-.674.674-.674zm-.562-2.524c0-.394.28-.674.674-.674h.562c.393 0 .672.28.672.674 0 .393-.28.674-.672.674h-.562c-.392-.002-.674-.34-.674-.674zm3.536 1.345l1.01-.84c.17-.17.45-.113.617.055l.842 1.01c.168.168.11.45-.057.617l-1.01.84c-.17.17-.45.112-.617-.056l-.842-1.01c-.167-.17-.167-.448.058-.617zm4.598 1.795l.616.057c.338.057.617.393.562.728-.056.394-.394.617-.73.562l-.615-.056c-.338-.057-.618-.393-.563-.73.002-.337.338-.618.73-.562zm-.448-2.636c.057-.338.393-.617.73-.562l.616.057c.338.06.617.395.562.73-.057.394-.393.616-.73.562l-.616-.057c-.338-.056-.562-.393-.562-.73zm3.758 2.916c0 .057.057.11.112.168.056.113.28.226.056.394-.056 0-.168 0-.28-.112-.616-.56-.728-1.515-.447-2.3.168-.336.505-.952.952-.952.28 0 .112.393-.056.56-.452.56-.73 1.514-.338 2.242zm1.065-.616c-.055 0-.055-.226-.055-.337-.057-.17-.338-.28-.394-.34-.11-.055-.11-.392.057-.503.058-.057.226-.057.28 0 .226.11.394.336.394.674 0 .226-.11.506-.28.506zm.563-3.197c-.11 0-.393 0-.617-.06-.896-.222-7.234-1.456-16.546-1.456h-.056c-9.312 0-15.706 1.29-16.547 1.457-.17.06-.45.06-.617.06-.112-.06-.225-.227-.17-.395.058-.11.17-.225.338-.28 3.31-.73 10.32-1.738 16.996-1.795h.056c6.675 0 13.687 1.065 16.996 1.795.11.057.28.112.336.28.055.168-.057.394-.17.394zm4.318-7.46c-.56.615-.952 1.232-1.29 1.906l-.055.056c-.506-.28-.617-.168-.897.28-.28.45-.28.617.112.898-.562.953-1.122 1.682-2.02 2.466-.73.617-2.02 0-2.133-1.01-1.85 1.348-4.037.282-4.43-1.232-1.012 1.122-2.413 2.02-4.77.225-1.57.84-4.15 1.515-6-.898h-.057c-1.852 2.468-4.487 1.738-6.002.897-2.3 1.794-3.76.953-4.768-.226-.45 1.515-2.637 2.58-4.432 1.233-.112.954-1.458 1.57-2.132 1.01-.897-.785-1.402-1.514-2.02-2.467v-.113c.394-.28.394-.448.113-.896-.282-.448-.395-.56-.898-.28l-.057-.056c-.337-.673-.73-1.29-1.29-1.907-.225-.225-.617-.393-.337-.617.17-.168.393-.225.617-.336.393-.17.897-.337 1.234 0 .504.617.055 1.57.28 1.795.055.055.167.11.28.055.392-.337.784-1.29 1.4-1.065.563.393 1.01 1.402 1.123 2.3.056.448.168 1.01-.225 1.346-.225.225-.673-.056-.897.225-.11.338.113.506.28.842.282.337.618.73 1.123.785.73-.11.785-.84 1.065-1.346.057-.11.057-.056.17 0 .672.506 1.514.786 2.354.675.393-.113.897-.28 1.01-.73.112-.28.056-.56 0-.84-.45-.842-.842.504-1.458.11-.617-.504-1.18-1.177-1.402-2.02-.112-.28-.225-.728.056-1.01.337-.28.73 0 1.122-.055.28 0 .168-.225.168-.337-.28-.45-1.01-.56-1.065-1.178.056-.56.505-.73 1.01-1.01.785-.336 1.683-.617 2.523-.45.225.058.393.114.505.395.058.224-.055.337-.11.448-.112.28-.394.617-.112.953.11.17.28.17.448.058.28-.28.617-.617 1.01-.56.505.055.785.784.897 1.345.168.842.28 1.74-.225 2.412-.505.45-.897-.45-1.346-.057-.17.17 0 .562.112.785.28.506.56.898 1.178 1.01.84.113 1.346-.056 2.02-.785.28-.336.224-.168.56-.56.28.28.73.673 1.123.84.953.45 2.3.505 3.028-.11.45-.395.73-1.123.562-1.348-.73-.73-.786.393-1.29.617-.617.225-.954.057-1.234-.225-.728-1.01-.84-2.468-.392-3.7.056-.114.056-.114.168-.282.225-.336.505-.448.842-.393.448.112.785.45.953.842.113.167.28.167.45.11.168-.056.336-.28.224-.448-.28-.393-.73-.673-.953-1.065-.167-.28-.224-.674-.11-1.01.11-.28.336-.505.616-.673.56-.337 1.29-.562 2.02-.562h.056c.73 0 1.458.168 2.02.562.28.168.505.393.617.673.167.336.056.73-.113 1.01-.225.393-.674.673-.954 1.065-.11.17.057.393.225.448.17.057.394.057.45-.11.224-.394.503-.73.952-.843.338-.056.617.057.842.393.057.112.057.112.168.28.45 1.234.394 2.692-.393 3.702-.28.337-.617.45-1.234.225-.504-.168-.56-1.346-1.29-.617-.167.168.112.953.562 1.347.73.616 2.076.56 3.03.112.392-.17.84-.562 1.12-.843.337.393.28.28.562.56.673.73 1.18.9 2.02.786.562-.11.843-.504 1.18-1.01.11-.224.224-.672.11-.785-.504-.393-.842.506-1.346.057-.504-.673-.393-1.627-.224-2.412.11-.56.393-1.29.896-1.346.394-.057.73.28 1.01.56.168.113.336.113.45-.056.278-.335 0-.67-.114-.952-.055-.11-.168-.225-.11-.448.056-.28.28-.337.504-.394.843-.168 1.74.113 2.524.45.505.28.953.448 1.01 1.01-.057.616-.785.728-1.064 1.177 0 .057-.113.337.168.337.393 0 .785-.225 1.12.056.28.28.17.73.058 1.01-.225.842-.785 1.515-1.402 2.02-.617.393-1.01-.897-1.458-.112-.058.28-.112.505 0 .84.112.45.617.675 1.01.73.785.112 1.683-.224 2.355-.673.112-.056.112-.11.168 0 .28.506.395 1.234 1.066 1.347.506-.056.842-.448 1.12-.785.17-.28.45-.448.282-.84-.225-.28-.674 0-.896-.226-.395-.337-.28-.897-.226-1.347.112-.842.562-1.907 1.122-2.3.616-.28 1.01.673 1.4 1.065.113.056.226.056.28-.056.226-.17-.167-1.123.28-1.796.337-.28.842-.17 1.234 0 .225.11.45.168.617.336.454.336.06.504-.11.73zm.226-9.313c-.336.112-.617-.11-.785-.28-.278-.056-.392.17-.616.112-.447-.058-.504-.562-.73-.898-.448-.562-.895.224-1.346-.056-.112-.113-.168-.337-.112-.45.057-.224.112-.504.45-.616.392-.056.84-.11 1.177.168.506.28.448 1.066 1.122 1.01.562-.168-.112-.84.168-.953.226-.112.785.505.953.897.058.112.058.224.058.337.054.503-.058.672-.338.727zm.505 5.61c-.11.057-.225.112-.28-.057-.055-.56.338-1.12.617-1.626-.057-.056-.225-.056-.336-.17-.28-.392 0-.84.112-1.232-.056-.112-.11-.28-.11-.393-.058-.45.167-.898.503-1.123.338-.505.28-1.12.058-1.57-.058-.225.168-.225.336-.112.56.393.504 1.907 0 2.58-.113.112 0 .28 0 .393.11.28.11.225.28.562.224.448-.058.785-.226 1.233-.167.56-.392 1.12-.953 1.514zm2.693-1.01c-.336.897-.785 1.738-1.346 2.58-.112.168-.338.45-.674.337-.28-.17-.225-.337-.168-.505 1.57-2.077 2.637-4.937 1.795-7.63-.28-1.065-1.346-1.738-2.355-2.188-1.178-.448-2.47-.617-3.7-.393-.45.11-.786.167-.898-.057-.058-.112-.058-.17-.112-.28.057-.337.393-.337.617-.45 1.963-.448 3.982.058 5.553 1.067.56.393 1.122.953 1.402 1.626.84 1.852.56 4.096-.114 5.89z"/><g id="logo-royalcph-crown-waves"><path d="M3.982 48.8v2.188s3.87 2.188 9.087 2.188c5.216 0 9.59-2.355 9.59-2.355s3.534 2.3 10.04 2.3c5.16 0 8.694-2.353 8.694-2.353s3.982 2.41 10.04 2.41c4.938 0 8.583-2.187 8.583-2.187v-2.134s-3.928 2.302-8.75 2.302c-5.947 0-9.76-2.58-9.76-2.58s-4.992 2.69-9.032 2.69c-5.16 0-9.815-2.69-9.815-2.69s-3.982 2.58-9.48 2.58S3.983 48.8 3.983 48.8zM3.982 54.24v2.187s3.87 2.188 9.087 2.188c5.216 0 9.59-2.356 9.59-2.356s3.534 2.3 10.04 2.3c5.16 0 8.694-2.355 8.694-2.355s3.982 2.412 10.04 2.412c4.938 0 8.583-2.188 8.583-2.188v-2.132s-3.928 2.3-8.75 2.3c-5.947 0-9.76-2.58-9.76-2.58s-4.992 2.692-9.032 2.692c-5.16 0-9.815-2.69-9.815-2.69s-3.982 2.58-9.48 2.58c-5.495-.06-9.198-2.36-9.198-2.36zM3.982 59.624v2.188S7.852 64 13.07 64c5.216 0 9.59-2.355 9.59-2.355s3.534 2.3 10.04 2.3c5.16 0 8.694-2.355 8.694-2.355S45.378 64 51.436 64c4.938 0 8.582-2.188 8.582-2.188v-2.13s-3.927 2.298-8.75 2.298c-5.945 0-9.76-2.58-9.76-2.58s-4.992 2.692-9.03 2.692c-5.16 0-9.816-2.692-9.816-2.692s-3.982 2.58-9.48 2.58-9.2-2.356-9.2-2.356z"/></g></symbol><symbol viewBox="0 0 798.029 256" id="logo-royalcph"><title>logo-royalcph</title><path d="M118.113 242.95v5.493h-2.64l.002-13.005h4.495c3.51 0 5.062 1.344 5.062 3.628 0 2.188-1.437 3.332-4.046 3.562.376.345.81.842 1.305 1.364l4.09 4.45h-3.306l-4.96-5.493zm.005-1.654h1.597c1.826 0 2.875-.81 2.875-2.154 0-1.312-1.054-1.96-2.97-1.96h-1.502v4.114zM195.088 242.95v5.493h-2.64v-13.005h4.497c3.51 0 5.062 1.344 5.062 3.628 0 2.188-1.438 3.332-4.047 3.562.378.345.812.842 1.307 1.364l4.088 4.45h-3.305l-4.962-5.493zm.006-1.654h1.595c1.828 0 2.875-.81 2.875-2.154 0-1.312-1.054-1.96-2.967-1.96h-1.504v4.114zM289.84 242.943v5.495h-2.64l.003-13.007h4.494c3.51 0 5.062 1.345 5.062 3.627 0 2.19-1.438 3.337-4.047 3.562.376.35.81.846 1.305 1.362l4.09 4.456H294.8l-4.96-5.495zm.005-1.656h1.598c1.827 0 2.875-.81 2.875-2.146 0-1.317-1.054-1.966-2.97-1.966h-1.503v4.113zM692.063 242.943v5.495h-2.64V235.43h4.495c3.514 0 5.062 1.345 5.062 3.627 0 2.19-1.436 3.337-4.045 3.562.377.35.812.846 1.307 1.362l4.088 4.456h-3.307l-4.96-5.495zm.006-1.656h1.597c1.824 0 2.875-.81 2.875-2.146 0-1.317-1.055-1.966-2.97-1.966h-1.503v4.113zM180.11 248.62c-4.902 0-7.194-2.708-7.194-6.536 0-4.275 3.54-6.79 7.657-6.79 4.44 0 7.283 2.263 7.283 6.538 0 4.328-3.482 6.79-7.747 6.79m.26-11.388c-2.465 0-4.643 1.615-4.643 4.65 0 2.636 1.248 4.773 4.555 4.773 2.64 0 4.73-1.543 4.73-4.627 0-3.132-1.8-4.796-4.643-4.796M234.487 248.62c-4.903 0-7.194-2.708-7.194-6.536 0-4.275 3.54-6.79 7.658-6.79 4.44 0 7.284 2.263 7.284 6.538 0 4.328-3.483 6.79-7.747 6.79m.26-11.388c-2.465 0-4.642 1.615-4.642 4.65 0 2.636 1.248 4.773 4.554 4.773 2.642 0 4.73-1.543 4.73-4.627 0-3.132-1.8-4.796-4.643-4.796M570.618 248.607c-4.9 0-7.192-2.712-7.192-6.54 0-4.275 3.54-6.79 7.66-6.79 4.438 0 7.28 2.26 7.28 6.54.002 4.33-3.482 6.79-7.748 6.79m.264-11.39c-2.465 0-4.643 1.615-4.643 4.65 0 2.637 1.245 4.772 4.554 4.772 2.643 0 4.73-1.542 4.73-4.626.002-3.132-1.797-4.797-4.642-4.797M603.48 248.436v-12.992h6.14c4.44 0 7.285 2.23 7.285 6.377 0 4.202-3.483 6.616-7.748 6.616h-5.677zm2.67-11.243v9.405h3.18c2.642 0 4.73-1.59 4.73-4.583 0-3.04-1.797-4.822-4.643-4.822h-3.268zM483.165 248.602c-4.903 0-7.194-2.71-7.194-6.54 0-4.274 3.542-6.79 7.663-6.79 4.438 0 7.278 2.264 7.278 6.54 0 2.384-1.053 4.198-2.71 5.35 0 0 .836.2 2.05.33 2.08.23 3.335.014 3.335.014v1.993s-1.44.21-2.418.124c-2.342-.2-5.377-.926-6.09-.95l-1.912-.072m.262-11.39c-2.465 0-4.645 1.614-4.645 4.65 0 2.64 1.25 4.77 4.56 4.77 2.64 0 4.73-1.537 4.73-4.623 0-3.133-1.802-4.798-4.645-4.798M168.548 235.428h2.755l-5.338 8.482v4.54h-2.64v-4.517l-5.25-8.505h2.928l3.75 5.865zM407.497 235.423h2.756l-5.338 8.48v4.54h-2.64v-4.515l-5.25-8.505h2.93l3.75 5.864zM87.766 244.03v4.413h-2.64v-13.005h4.612c3.656 0 5.537 1.544 5.537 4.056 0 2.783-2.288 4.55-6.118 4.55l-1.39-.013zm-.02-1.91h1.47c2.232 0 3.51-.878 3.51-2.57 0-1.388-1.102-2.384-3.277-2.384h-1.702v4.955zM146.13 248.44v-13.01h8.53v1.775h-5.888v3.682h5.54v1.722h-5.54v4.003h5.89v1.828zM274.14 248.428V235.42h8.528v1.775h-5.888v3.68h5.543v1.725h-5.543v4.004h5.888v1.824zM360.143 248.43v-13.007h8.53v1.774h-5.888v3.68h5.542v1.727h-5.542v4.003h5.888v1.824zM620.915 248.43v-13.007h8.53v1.774h-5.89v3.68h5.542v1.727h-5.543v4.003h5.89v1.824zM511.72 248.428V235.42h8.53v1.775h-5.888v3.68h5.54v1.725h-5.54v4.004h5.89v1.824zM524.812 248.428V235.42h8.532v1.775h-5.892v3.68h5.543v1.725h-5.543v4.004h5.892v1.824zM453.036 248.43v-13.007h8.53v1.774h-5.888v3.68h5.542v1.727h-5.542v4.003h5.887v1.824zM582.495 248.43v-13.007h8.53v1.774h-5.89v3.68h5.543v1.727h-5.542v5.824zM540.296 248.436h-2.553v-12.993h3.482l7.25 9.92.003-9.92h2.58v12.993h-3.475l-7.28-10.043zM636.47 248.436h-2.557v-12.993h3.483l7.25 9.92.003-9.92h2.58v12.993h-3.477l-7.28-10.043zM344.55 248.436l-1.19-2.712h-6.703l-1.188 2.712h-2.67l5.902-13.017h2.935l5.844 13.016h-2.93zm-4.508-10.524l-2.652 6.146h5.282l-2.63-6.146zM99.15 235.432h2.566v8.297s.087 2.92 3.29 2.92c3.2 0 3.183-2.87 3.183-2.87v-8.336h2.563v8.553s.267 4.634-5.818 4.634c-6.084 0-5.784-4.598-5.784-4.598v-8.6zM495.032 235.432h2.564v8.297s.09 2.92 3.29 2.92c3.202 0 3.187-2.87 3.187-2.87v-8.34h2.562v8.557s.27 4.634-5.817 4.634-5.785-4.598-5.785-4.598v-8.6zM127.707 235.44h2.906l4.595 10.01 4.636-10.02h2.754l-6 13.027h-2.955zM218.55 248.428h2.65v-11.233h4.407v-1.765h-11.45v1.763h4.39zM388.957 248.428h2.65v-11.233h4.408v-1.765h-11.453v1.763h4.392zM425.712 248.428h2.648v-11.233h4.407v-1.765h-11.45v1.763h4.39zM266.162 248.43v-5.826h-7.16v5.827h-2.64v-13.007h2.64v5.375h7.16v-5.375h2.64v13.008zM445.294 248.43v-5.826h-7.16v5.827h-2.64v-13.007h2.64v5.375h7.16v-5.375h2.642v13.008zM310.894 248.443h2.433l1.94-10.37 4.023 10.368h2.495l4.01-10.354 1.93 10.357h2.47l-2.257-13.015h-3.47l-3.935 10.164-3.936-10.173h-3.473zM651.228 248.443h2.43l1.943-10.37 4.022 10.368h2.496l4.008-10.354 1.93 10.357h2.472l-2.257-13.015h-3.47l-3.938 10.164-3.935-10.173h-3.47zM376.487 248.593c-1.114 0-2.43-.15-3.274-.32l.004-2.155c.907.34 2.276.582 3.593.582 1.607 0 3.214-.562 3.214-2.043 0-2.53-7.162-1.303-7.162-5.408 0-2.34 2.223-3.863 6.083-3.863.904 0 2.126.073 3.004.22l-.01 2.063c-.818-.223-2.207-.485-3.144-.485-2.16 0-3.354.714-3.354 1.82 0 2.485 7.416 1.353 7.416 5.41-.002 2.935-2.72 4.178-6.37 4.178M683.663 248.436l-1.188-2.712h-6.703l-1.188 2.712h-2.672l5.9-13.017h2.938l5.842 13.016h-2.93zm-4.506-10.524l-2.65 6.146h5.28l-2.63-6.146zM710.405 235.437l-4.498 5.83v-5.844h-2.644v12.993h2.64v-5.443l4.955 5.474h3.297l-5.818-6.29 5.37-6.727zM352.438 235.43h2.668v9.074c0 .3.124 2.564-1.23 3.492-.915.623-2.062.604-2.062.604h-2.107v-2.034h.405s1.262.096 1.788-.435c.593-.602.54-1.69.54-1.69l-.002-9.01zM8.887 198.66v18.493H0l.008-43.785H15.14c11.82 0 17.044 4.512 17.044 12.214 0 7.366-4.835 11.225-13.624 11.98 1.27 1.173 2.733 2.846 4.396 4.6l13.772 14.99H25.593L8.887 198.66zm.016-5.578h5.377c6.155 0 9.686-2.724 9.686-7.24 0-4.438-3.55-6.615-9.998-6.615H8.904v13.855zM66.916 217.822c-16.51 0-24.223-9.125-24.223-22.02 0-14.4 11.916-22.86 25.785-22.86 14.946 0 24.52 7.624 24.52 22.02 0 14.574-11.722 22.86-26.082 22.86m.877-38.343c-8.302 0-15.63 5.437-15.63 15.65 0 8.877 4.2 16.07 15.34 16.07 8.887 0 15.92-5.188 15.92-15.562.002-10.553-6.052-16.16-15.63-16.16M133.322 173.308h9.28l-17.976 28.553v15.293h-8.89v-15.21l-17.678-28.635h9.866l12.625 19.746zM180.21 217.153l-4.008-9.13H153.64l-4.005 9.13h-8.99l19.872-43.825h9.887l19.67 43.825h-9.864zm-15.175-35.435l-8.928 20.7h17.785l-8.857-20.7zM201.48 217.153v-43.825h8.892v37.296h18.167v6.53zM332.866 217.822c-16.512 0-24.226-9.125-24.226-22.02 0-14.4 11.912-22.86 25.786-22.86 14.946 0 24.52 7.624 24.52 22.02 0 14.574-11.722 22.86-26.08 22.86m.877-38.343c-8.302 0-15.628 5.437-15.628 15.65 0 8.877 4.2 16.07 15.335 16.07 8.888 0 15.922-5.188 15.922-15.562 0-10.553-6.054-16.16-15.63-16.16M382.918 202.306v14.848h-8.89l-.004-43.785h15.536c12.308 0 18.646 5.187 18.646 13.644 0 9.377-7.707 15.32-20.6 15.32l-4.688-.028zm-.062-6.436h4.942c7.515 0 11.82-2.964 11.82-8.65 0-4.693-3.71-8.043-11.034-8.043h-5.73v16.693zM421.974 217.153V173.35h28.72v5.978h-19.83v12.388h18.66v5.81h-18.66v13.477h19.83v6.15zM707.226 217.013v-43.798h28.72v5.98h-19.834v12.386h18.668v5.808h-18.668v13.48h19.834v6.145zM504.44 173.425h8.696v43.728h-11.698l-24.52-33.81-.017.255v33.555h-8.604v-43.728h11.725l24.415 33.398zM789.335 173.425h8.695v43.728h-11.697l-24.518-33.81-.02.255v33.555h-8.6v-43.728h11.722l24.412 33.398zM566.2 217.153v-19.618h-24.103v19.618h-8.89v-43.77h8.89v18.066H566.2v-18.067h8.883v43.77zM671.09 217.822c-15.24 0-26.083-7.53-26.083-21.6 0-13.06 10.45-23.194 28.033-23.194 5.178 0 10.146.564 15.32 1.9v7.295c-4.682-1.806-10.633-2.916-15.42-2.916-10.057 0-18.555 5.442-18.555 16.162 0 10.128 7.227 15.654 17.775 15.654 3.03 0 6.057-.334 8.402-1.006v-14.25h8.887v19.104c-5.66 1.848-11.623 2.85-18.36 2.85M626.74 217.153l-4.003-9.13h-22.563l-4.005 9.13h-8.987l19.872-43.825h9.885l19.67 43.825h-9.87zm-15.17-35.435l-8.928 20.7h17.784l-8.857-20.7zM284.604 217.693c-16.472-.157-24.918-7.626-24.918-21.82 0-14.375 11.915-22.3 26.508-22.634 4.574-.107 10.94 1.235 10.94 1.235v6.58s-7.287-1.77-11.538-1.534c-9.462.526-16.182 5.452-16.182 15.686 0 10.404 6.003 15.84 15.905 15.84 5.093 0 12.38-2.028 12.38-2.028v6.838c0-.002-5.66 1.907-13.096 1.837M306.428 101.77v7.252s12.896 7.25 30.144 7.25c17.246 0 31.774-7.758 31.774-7.758s11.61 7.585 33.222 7.585c17.07 0 28.867-7.754 28.867-7.754s13.26 7.924 33.232 7.924c16.338 0 28.502-7.25 28.502-7.25v-7.082s-13.077 7.584-29.054 7.584c-19.61 0-32.316-8.597-32.316-8.597s-16.526 8.937-29.956 8.937c-17.066 0-32.498-8.936-32.498-8.936s-13.257 8.597-31.41 8.597c-18.16 0-30.508-7.754-30.508-7.754M306.428 119.696v7.254s12.896 7.252 30.144 7.252c17.246 0 31.774-7.76 31.774-7.76s11.61 7.59 33.222 7.59c17.07 0 28.867-7.755 28.867-7.755s13.26 7.925 33.232 7.925c16.338 0 28.502-7.252 28.502-7.252v-7.083s-13.077 7.586-29.054 7.586c-19.61 0-32.316-8.602-32.316-8.602s-16.526 8.945-29.956 8.945c-17.066 0-32.498-8.944-32.498-8.944s-13.257 8.603-31.41 8.603c-18.16 0-30.508-7.757-30.508-7.757M306.428 137.624v7.257s12.896 7.25 30.144 7.25c17.246 0 31.774-7.756 31.774-7.756s11.61 7.585 33.222 7.585c17.07 0 28.867-7.758 28.867-7.758s13.26 7.927 33.232 7.927c16.338 0 28.502-7.25 28.502-7.25v-7.086s-13.077 7.588-29.054 7.588c-19.61 0-32.316-8.6-32.316-8.6s-16.526 8.94-29.956 8.94c-17.066 0-32.498-8.94-32.498-8.94s-13.257 8.6-31.41 8.6c-18.16 0-30.508-7.758-30.508-7.758M448.49 43.342c.47-.476.766-1.127.766-1.847 0-.916-.472-1.714-1.175-2.18l-.005-.005c.264-.41.422-.896.422-1.414 0-1.26-.897-2.313-2.088-2.558l.042-.094c.03-.167.054-.345.054-.523 0-1.44-1.173-2.608-2.61-2.608-.203 0-.408.025-.597.067l-.012-.047c-.342-1.044-1.323-1.8-2.484-1.8-.396 0-.775.088-1.116.254l-.022-.038c-.467-.694-1.262-1.15-2.164-1.15-.537 0-1.045.165-1.45.446l-.054-.042c-.414-.28-.918-.444-1.457-.444-.853 0-1.6.407-2.08 1.037-.453-.388-1.042-.626-1.694-.626-.28 0-.55.046-.805.127-.198-1.242-1.273-2.188-2.57-2.188-.265 0-.524.04-.763.113l-.024-.02c0-1.44-1.17-2.608-2.612-2.608-.737 0-1.41.312-1.885.81l-.02-.044c-.47-.69-1.265-1.15-2.163-1.15-.967 0-1.81.53-2.258 1.313l-.02.015c-.434-.33-.97-.52-1.56-.52-1.02 0-1.895.583-2.328 1.43l-.117-.006c-.165-.037-.34-.05-.512-.05-.928 0-1.738.48-2.202 1.205-.214-.06-.442-.09-.675-.09-.905 0-1.7.466-2.17 1.165l-.052-.006c-.414-.27-.906-.43-1.434-.43-.19 0-.373.023-.545.06l-.013-.1c.088-.26.168-.525.23-.8l.004.012c.477-.33.79-.88.79-1.5 0-.567-.262-1.07-.668-1.403v.01c-.333-2.413-1.753-4.48-3.743-5.698l.005.042c-.197-.816-.654-1.297-1.42-1.525.004-.39-.01-1.502-.01-1.502l1.746-.02c0 1.004.817 1.818 1.82 1.818.907 0 1.663-.666 1.8-1.533l.03-.005c.83-.17 1.454-.904 1.454-1.783 0-.906-.662-1.657-1.526-1.796l.03.005c-.178-.826-.91-1.45-1.787-1.45-.95 0-1.734.736-1.81 1.67h-1.756v-1.92h.035c.822-.173 1.436-.903 1.436-1.777 0-.89-.632-1.63-1.47-1.79l-.063-.04c-.166-.827-.89-1.446-1.765-1.457h-.036c-.87.01-1.6.63-1.762 1.457l-.064.04c-.843.16-1.478.9-1.478 1.79 0 .874.616 1.604 1.443 1.778h.037v1.92h-1.76c-.08-.934-.862-1.67-1.812-1.67-.878 0-1.613.625-1.785 1.45l.026-.006c-.864.14-1.526.89-1.526 1.795 0 .878.622 1.612 1.455 1.782l.03.005c.137.867.892 1.534 1.8 1.534 1.003 0 1.818-.813 1.818-1.818l1.754.02s-.016 1.112-.012 1.503c-.764.228-1.225.71-1.426 1.524l.006-.043c-1.994 1.217-3.406 3.285-3.74 5.7l-.004-.012c-.403.333-.666.836-.666 1.403 0 .62.314 1.17.79 1.5l.003-.013c.06.276.138.542.228.8l-.008.1c-.176-.036-.358-.058-.546-.058-.53 0-1.02.16-1.436.43l-.052.005c-.468-.7-1.264-1.165-2.174-1.165-.232 0-.456.03-.673.09-.46-.726-1.272-1.206-2.195-1.206-.18 0-.353.015-.52.052l-.117.006c-.43-.847-1.31-1.43-2.326-1.43-.585 0-1.124.19-1.56.52l-.016-.015c-.448-.785-1.295-1.313-2.262-1.313-.902 0-1.695.46-2.16 1.15l-.018.044c-.478-.496-1.148-.81-1.89-.81-1.444 0-2.61 1.17-2.61 2.61l-.025.02c-.242-.073-.498-.115-.76-.115-1.302 0-2.374.946-2.576 2.187-.253-.08-.525-.126-.804-.126-.65 0-1.24.24-1.693.627-.477-.63-1.23-1.037-2.08-1.037-.542 0-1.04.163-1.46.444l-.046.042c-.415-.282-.92-.445-1.457-.445-.9 0-1.692.456-2.16 1.15l-.025.037c-.335-.166-.715-.254-1.12-.254-1.155 0-2.138.756-2.478 1.8l-.01.046c-.192-.043-.392-.068-.6-.068-1.44 0-2.607 1.17-2.607 2.61 0 .178.02.355.054.522l.038.094c-1.186.244-2.08 1.297-2.08 2.558 0 .518.152 1.003.42 1.414l-.006.005c-.71.465-1.178 1.264-1.178 2.18 0 .72.294 1.37.765 1.847l-.02.02c-.322.37-.517.852-.517 1.382 0 .833.482 1.552 1.182 1.895l.012.01c-.112.26-.177.546-.177.845 0 .934.604 1.722 1.444 2.006l.013-.003c-.11.26-.178.546-.178.85 0 .897.564 1.665 1.357 1.97-.028.144-.043.288-.043.44 0 .99.683 1.82 1.6 2.047l.07.122c-.142.27-.22.562-.22.88 0 1.042.847 1.89 1.89 1.89.424 0 .813-.144 1.13-.377l.017.04c1.27.753 2.065 2.09 2.753 3.36v.128c-.186.31-.295.683-.295 1.074 0 1.164.95 2.113 2.113 2.113.09 0 .177-.007.268-.02 0 0 2.36 3.094 3.656 4.454h-.01c-.393.344-.642.857-.642 1.424 0 .98.735 1.782 1.684 1.894l.266 1.525c-.387.627-.615 1.364-.63 2.156-.023 1.688.926 3.218 2.338 3.935l.036 1.866s-.842.43-1.105.864c-.18.29-.287.636-.294 1-.015.773.42 1.452 1.062 1.79 0 0 .833.633 3.002.923 7.088.95 14.113 1.326 21.49 1.573 1.923.032 3.87.053 5.827.053h.062c1.957 0 3.9-.02 5.82-.053 7.38-.248 14.405-.625 21.495-1.573 2.168-.29 2.997-.924 2.997-.924.642-.337 1.075-1.016 1.063-1.79-.004-.363-.11-.71-.29-1-.264-.434-1.11-.862-1.11-.862l.042-1.865c1.407-.716 2.36-2.247 2.332-3.936-.014-.793-.24-1.53-.627-2.157l.263-1.525c.947-.112 1.688-.915 1.688-1.894 0-.567-.25-1.08-.647-1.425h-.01c1.3-1.36 3.664-4.454 3.664-4.454.087.012.175.02.263.02 1.166 0 2.114-.95 2.114-2.114 0-.39-.105-.763-.297-1.074v-.128c.69-1.27 1.482-2.607 2.754-3.36l.02-.04c.314.232.704.375 1.133.375 1.04 0 1.887-.847 1.887-1.89 0-.318-.078-.61-.22-.88l.07-.12c.915-.227 1.6-1.058 1.6-2.048 0-.152-.01-.296-.044-.44.795-.305 1.358-1.073 1.358-1.97 0-.304-.063-.59-.18-.85l.015.004c.838-.283 1.446-1.072 1.446-2.005 0-.3-.066-.585-.182-.845l.012-.01c.697-.344 1.186-1.063 1.186-1.896 0-.53-.195-1.01-.52-1.382l-.017-.02zm-18.007 2.338c.358-.496.147-1.27.03-1.866.23-.223.593-.416.832-.72.384-.476.46-1.397.185-1.95-.29-.337.065-.76.344-.935.584-.35 1.36.3 2.133.046.74.798 1.59 1.47 2.793 1.243.44.296.925.63 1.294.905 0 0 .103.08 0 .26-.347.606.214 1.542-.062 2.292-.363 1.024-.228 1.966.062 2.96-.358.933-.71 1.82-.765 2.823-.09.425.042.586.015 1.09-.646-.058-1.504.105-2.064.397-.18-.36-.485-.752-.846-.958-1.153-.71-2.16-1.457-3.54-1.925-.873-.267-1.376-.246-1.943-.367-.758-.295.917-1.01.614-1.95-.546-.8.697-.814.92-1.348m-2.3 15.746c-.282.053-.49.005-.78-.048.38-.953.836-1.9.952-2.965.24-1.18-.202-2.375-.965-3.023.173-.283.197-.612.305-.91.16-1.093-.09-1.872-.77-2.623-.41-.376-1.236-.87-.676-1.24.676-.25 2.112.097 2.112.097 2.682.46 4.32 1.54 5.764 3.152.008.056.1.05.1.138-.184.23-.333.47-.603.87-.506-.222-1.11-.465-1.66-.375-2.34.694-3.99 5.032-3.78 6.926M406.49 31.958c.173-.338.546-.413.86-.465 2.365-.434 4.768-1.08 6.99-1.85 2.688-1.114 5.758-1.96 8.67-1.15.2.08.477.153.645.227 3.5 1.08 5.098 4.794 5.522 8.15.036.094.078 1.386.065 1.837-.097 3.016-1.226 6.25-2.983 8.8-.49.755-1.145 1.667-1.93 2.07-.36.125-.485-.028-.71-.177-.265-.24-.24-.55-.093-.83 1.606-1.89 2.803-3.785 3.674-6.07 1.153-2.667.83-6.047-.118-8.62-.276-.598-.588-1.217-1.004-1.69-1.69-2.453-5.937-2.936-7.937-2.264-3.23 1.112-6.58 2.165-9.962 3-.935.228-1.25.424-1.65-.122-.18-.195-.13-.614-.04-.846m16.76 9.187c.372-.883 1.593-1.98 1.4-2.538-.104-.177-.274-.288-.528-.288-.412.05-.74.39-.938.666-.224.253-.6.198-.698-.168-.1-.373-.027-.81.2-1.128.302-.565-.562-.672-.413-1.17.468-.725.912-1.69.61-2.61-.145-.67-.954-.85-.99-1.57-.014-.198.232-.46.594-.424.79.223 1.467 1.01 1.668 1.82.368.79-.348 1.515.182 2.187.36.142.476-.278.848-.232.238.036.415.113.527.365.503 1.085.36 2.16.17 3.383-.242 1.35-1.587 2.068-1.468 3.542.047.602-1.054 2.797-1.666 2.593-.58-.628.162-1.462.225-2.21-.7-.694-.04-1.513.28-2.218m-15.857 10.67c-.333-.232-.778-.354-1.11-.65.237-1.27-.322-2.118-.994-3.092.472-.067.382-.095.732-.116 1.793-.165 2.646-.3 4.142-.55 1.437-.196 2.676-.555 4.158-.657 3.07-.217 4.395.452 6.137 1.453.41.294 1.186.354.954 1.125-.182.412-1.87.117-2.752.412-1.06.298-1.674 1.25-2.082 2.203-1.18-.058-2.205.79-2.787 1.582-1.284 1.867-1.194 6.95-1.232 6.977-.662-.25-.778-1.213-1.507-1.373-.485-.103-.94.348-1.19.644-.196.16-.506.362-.718.275.2-.444.24-.994.328-1.418.332-2.414.053-5.532-2.08-6.817m11.555-20.195c.666-.127 1.445.916 1.74 1.635.074.153.234.48.123 1.02-.292.64.306 1.388-.048 2.043-.08.35-.408.474-.74.444-1.36-.39-1.256-2.263-2.58-2.852-.488-.025-.688.427-1.367.397-.578-.028-1.187-.18-1.47-.734-.106-.208.046-.473.228-.57.674-.17 1.353-.25 1.96-.57.66-.193 1.126.294 1.747.32.422-.272-.07-.92.408-1.133M405.41 45.4c.218-.11.48-.244.706-.343 1.45-1.098 1.016-3.24.604-4.736.497-.76.62-1.728.244-2.597.313-.875.427-1.853.296-2.854.382-.084.602-.054.865 0 1.387.175 2.924-.022 4.168-.19.847-.307 1.212.782 1.59 1.016.35.288.572.36 1.266.562.853.212 1.497.056 2.154.333.372.77.994 1.498 1.815 1.822.37.186.913.026 1.163.41.017.99.396 1.782.82 2.58-.295.556-.53 1.513-.213 2.216-.082.65-.36 1.89-.36 1.89-.036.18-.036.18-.14.552-.52-.207-1.044-.452-1.572-.63-2.61-1.22-5.547-.344-8.195.08-1.72.206-3.535.512-5.354.586.042-.315.042-.315.14-.697m-.77-7.43c0 .393.016.94-.3 1.286-.25.583.264.948.425 1.54.093.252.443 1.705-.018 2.35-.46.445-.77-.15-1.224-.127-.563.348-.38 1.078-.493 1.65-.07.25-.035.66-.51.646-.3-.115-.36-.297-.486-.826-.147-1.037-.11-2.165.203-3.098.28-.475.637-.163.937-.163.317-.127.268-.318.28-.508.037-.192-.494-1.836-1.004-2.663-.69-.677.236-1.608-.12-2.462-.105-.18-.13-.28.143-.452.29-.226.6.035.897.07.276.032.414-.2.313-.46-.44-.93-1.212-1.804-1.022-2.8.113-.196.3-.338.563-.302.27.106.362.144.68.51.384.66 1.18 2.334 1.157 3.21 0 .176-.245 1.393-.652 1.536-.298.467.27.587.232 1.06m-3.415-16.967s.263-.068.644.102c1.184.554 1.898 1.243 2.33 2.487.107.354.233.745-.053 1.027-1.07-.077-2.922-.315-2.922-.315v-3.302zm-1.875 6.504h.062c1.39 0 2.798.09 4.196.197.34.042.608.317.53.703-.068.25-.275.423-.518.45-1.418-.107-2.79-.033-4.21-.033h-.06c-1.418 0-2.793-.074-4.212.033-.242-.027-.45-.202-.52-.45-.076-.386.19-.66.53-.703 1.402-.107 2.813-.197 4.202-.197m.014 2.985h-.008.017c-.004-.002-.005 0-.01 0h.037-.008.008c1.438.027 1.08 3.4 1.08 7.552 0 4.156.44 7.527-1.08 7.558h-.036c-1.522-.03-1.08-3.402-1.08-7.558 0-4.153-.36-7.525 1.08-7.552m-4.806-6.9c.433-1.245 1.147-1.934 2.34-2.488.376-.17.642-.102.642-.102v3.302s-1.85.238-2.926.314c-.29-.282-.164-.673-.056-1.027m.3 8.575c.313-.365.406-.403.68-.51.263-.035.448.107.56.303.19.996-.582 1.87-1.023 2.8-.096.26.035.492.313.46.303-.036.61-.296.9-.07.273.17.247.273.145.452-.36.854.57 1.785-.124 2.46-.51.828-1.045 2.472-1.005 2.664.016.19-.04.38.28.507.3 0 .655-.31.94.164.312.933.35 2.06.2 3.098-.126.53-.187.71-.485.826-.474.015-.44-.398-.512-.646-.113-.572.072-1.302-.494-1.65-.453-.025-.762.57-1.222.126-.463-.645-.11-2.097-.02-2.35.162-.592.677-.957.425-1.54-.317-.345-.303-.893-.303-1.286-.035-.474.534-.593.234-1.058-.408-.143-.653-1.36-.653-1.536-.02-.878.777-2.55 1.164-3.213M393.34 45.4c.102.38.102.38.148.693-1.826-.074-3.642-.38-5.36-.587-2.646-.423-5.582-1.298-8.193-.078-.528.177-1.06.422-1.57.63-.106-.373-.106-.373-.145-.552 0 0-.28-1.242-.36-1.89.316-.705.08-1.66-.21-2.218.42-.797.804-1.588.822-2.58.248-.383.794-.223 1.163-.41.822-.323 1.443-1.05 1.815-1.82.656-.277 1.302-.12 2.155-.333.69-.202.915-.273 1.268-.562.378-.234.74-1.322 1.588-1.017 1.243.17 2.78.366 4.164.19.268-.053.486-.083.868 0-.13 1-.02 1.98.296 2.854-.374.87-.254 1.836.246 2.598-.413 1.497-.847 3.64.6 4.736.232.103.488.237.706.345m-.865 5.766c-.333.295-.78.417-1.11.65-2.138 1.284-2.415 4.402-2.083 6.815.09.425.13.975.33 1.418-.214.087-.52-.116-.717-.275-.248-.296-.702-.747-1.19-.645-.73.16-.848 1.122-1.507 1.373-.038-.025.05-5.11-1.234-6.976-.584-.793-1.606-1.64-2.79-1.582-.405-.954-1.02-1.905-2.077-2.203-.887-.295-2.57 0-2.754-.413-.232-.772.545-.832.952-1.125 1.746-1 3.07-1.67 6.14-1.453 1.48.1 2.73.46 4.16.657 1.492.248 2.347.385 4.14.55.354.02.255.048.732.115-.672.975-1.233 1.823-.993 3.094m-14.536-16.89c-.106-.54.062-.868.123-1.02.305-.72 1.083-1.764 1.746-1.636.477.21-.017.86.408 1.132.62-.024 1.085-.512 1.747-.32.608.32 1.285.4 1.957.572.186.097.337.36.227.57-.28.555-.89.706-1.47.733-.68.03-.876-.423-1.367-.397-1.323.59-1.216 2.46-2.576 2.852-.333.03-.665-.095-.742-.444-.352-.654.248-1.403-.054-2.043m-8.36 2.594c.425-3.356 2.02-7.07 5.522-8.15.168-.074.44-.148.644-.227 2.91-.81 5.98.036 8.668 1.15 2.226.77 4.625 1.416 6.992 1.85.314.052.688.127.863.465.09.232.14.65-.044.847-.4.546-.715.35-1.648.122-3.384-.835-6.733-1.89-9.963-3-1.997-.672-6.247-.19-7.938 2.265-.412.473-.73 1.09-1.006 1.69-.943 2.572-1.27 5.952-.117 8.62.868 2.285 2.067 4.18 3.676 6.07.146.28.172.59-.092.83-.227.148-.352.302-.715.176-.783-.403-1.433-1.315-1.925-2.07-1.76-2.55-2.893-5.785-2.986-8.8-.012-.452.03-1.744.068-1.84m6.91-.35c.145.5-.717.606-.415 1.172.228.317.3.755.2 1.128-.1.366-.473.42-.696.168-.202-.275-.533-.615-.943-.667-.257 0-.424.11-.528.287-.193.56 1.03 1.655 1.4 2.538.317.705.98 1.524.28 2.217.062.747.802 1.58.222 2.21-.61.203-1.712-1.992-1.667-2.594.122-1.474-1.222-2.19-1.466-3.542-.19-1.224-.337-2.298.17-3.383.116-.252.288-.33.527-.364.37-.047.488.373.848.23.527-.67-.187-1.396.184-2.185.196-.81.874-1.598 1.667-1.82.36-.037.606.225.593.423-.035.72-.848.9-.99 1.57-.302.92.14 1.887.61 2.61m-5.43 17.963c.108.298.136.627.304.91-.763.648-1.2 1.844-.963 3.023.116 1.063.572 2.012.954 2.965-.293.053-.496.1-.78.048.21-1.895-1.443-6.232-3.782-6.926-.545-.09-1.153.152-1.657.375-.267-.4-.42-.64-.6-.87 0-.087.09-.082.098-.138 1.438-1.613 3.08-2.693 5.767-3.152 0 0 1.433-.35 2.108-.096.563.37-.262.862-.677 1.238-.677.75-.923 1.53-.77 2.623m-2.818-10.666c-.116.597-.33 1.37.03 1.866.225.534 1.468.546.923 1.35-.302.938 1.374 1.652.616 1.948-.572.12-1.067.1-1.95.367-1.37.47-2.382 1.215-3.535 1.924-.356.205-.663.597-.844.957-.56-.292-1.417-.455-2.064-.397-.028-.503.105-.665.016-1.09-.053-1-.407-1.89-.768-2.822.292-.995.425-1.938.065-2.96-.276-.75.277-1.687-.066-2.294-.1-.18 0-.26 0-.26.37-.274.857-.608 1.297-.905 1.203.227 2.05-.446 2.79-1.244.77.255 1.55-.396 2.133-.047.282.173.636.597.344.935-.274.552-.2 1.474.187 1.95.237.303.595.496.828.72m-10.604 9.764c-.547.204-.998-.272-1.208-.622-1.015-1.492-1.917-3.017-2.487-4.678-1.244-3.292-1.802-7.33-.24-10.616.494-1.266 1.5-2.232 2.526-2.985 2.836-1.9 6.51-2.8 10.14-1.95.353.14 1.057.16 1.11.785-.016.267-.04.297-.157.54-.18.372-.77.33-1.62.096-2.286-.445-4.625-.15-6.772.694-1.75.783-3.726 2.032-4.256 3.962-1.482 4.872.488 10.062 3.317 13.873.1.272.183.636-.352.9m1.64-3.522c-.05.266-.32.18-.475.106-.988-.764-1.395-1.8-1.855-2.89-.28-.794-.825-1.397-.4-2.245.273-.616.276-.533.506-1.044.055-.2.184-.416.012-.67-.89-1.25-1.026-3.94.043-4.69.28-.206.706-.227.565.16-.41.915-.46 2.037.14 2.912.67.454 1.05 1.28.954 2.073-.023.278-.09.52-.21.75.2.69.65 1.565.187 2.257-.153.223-.438.19-.58.318.513.873 1.237 1.9 1.11 2.963m-.266-11.4c-.01-.222.01-.364.132-.618.277-.768 1.334-1.88 1.76-1.673.568.256-.69 1.413.343 1.75 1.26.055 1.176-1.32 2.09-1.86.638-.425 1.444-.406 2.173-.26.628.158.776.67.846 1.116.078.276 0 .646-.196.858-.833.487-1.673-.973-2.45.07-.458.557-.564 1.488-1.35 1.625-.437.043-.677-.358-1.176-.227-.36.318-.897.688-1.46.523-.476-.175-.667-.49-.71-1.3m10.107 37.06c-.018.228.056.577-.085.587-.326.01-.46-.513-.566-.96-.027-.552.333-1.02.725-1.215.16-.1.402-.08.545.038.252.18.282.825.07.945-.042.092-.593.253-.69.606m1.183-2.364c-.288-.292-.61-1.038-.07-1.048.806-.042 1.44 1.063 1.715 1.713.49 1.44.298 3.146-.816 4.213-.16.155-.333.18-.478.155-.36-.218.025-.497.13-.673.093-.11.148-.174.198-.273.732-1.324.204-3.046-.68-4.086m29.11 11.85h-.063c-1.394-.017-18.462-.267-20.483-.82 2.953-.65 15.822-.802 20.482-.816h.06c4.66.015 17.524.167 20.477.815-2.017.554-19.08.804-20.476.82m28.243-1.646c-9.438-.954-18.535-1.466-28.242-1.496h-.06c-9.712.03-18.805.542-28.245 1.495-.704.052-1.18-.117-1.212-.446-.04-.41.098-.634.4-.71 2.594-.477 5.463-.76 8.088-.952 6.882-.682 13.924-1.1 20.97-1.1h.06c7.042 0 14.084.418 20.965 1.1 2.625.192 5.492.475 8.084.953.308.075.442.298.4.71-.027.327-.505.496-1.207.444m-50.89-10.11l-1.08.137c-.663.08-1.27-.385-1.35-1.053-.086-.662.388-1.265 1.05-1.35l1.08-.13c.662-.087 1.267.383 1.35 1.047.083.668-.388 1.27-1.05 1.35m1.644 4.535c.083.667-.388 1.27-1.052 1.35l-1.08.137c-.662.08-1.268-.384-1.35-1.053-.084-.663.386-1.265 1.048-1.352l1.084-.13c.66-.086 1.267.388 1.35 1.047m2.572-3.896l1.563-1.852c.27-.326.76-.365 1.08-.093l1.853 1.563c.324.272.366.76.09 1.087l-1.56 1.844c-.27.323-.757.366-1.08.093l-1.854-1.563c-.325-.27-.364-.756-.093-1.08m9.697-1.662h-1.092c-.667 0-1.207-.544-1.207-1.21 0-.67.54-1.207 1.207-1.207h1.092c.667 0 1.208.54 1.208 1.207s-.54 1.21-1.208 1.21m1.338 4.59c0 .667-.542 1.21-1.207 1.21h-1.094c-.665 0-1.21-.543-1.21-1.21 0-.667.545-1.208 1.21-1.208h1.094c.665 0 1.207.54 1.207 1.206m2.753-.99v-6.04c0-.527.43-.962.96-.962h7.887c.532 0 .96.435.96.963v6.04c0 .53-.428.96-.96.96h-7.887c-.53 0-.96-.43-.96-.96m13.186-.218h1.09c.666 0 1.205.54 1.205 1.206 0 .668-.54 1.21-1.206 1.21h-1.09c-.668 0-1.213-.542-1.213-1.21 0-.665.546-1.207 1.214-1.207m-1.078-4.593c0-.668.537-1.206 1.205-1.206h1.092c.665 0 1.21.54 1.21 1.207s-.545 1.21-1.21 1.21h-1.09c-.67 0-1.206-.543-1.206-1.21m6.408 2.492l1.85-1.564c.32-.272.81-.233 1.084.093l1.562 1.85c.276.325.23.81-.093 1.082l-1.853 1.563c-.32.273-.81.23-1.084-.094l-1.562-1.843c-.27-.33-.228-.816.096-1.088m8.418 3.227l1.082.13c.66.088 1.135.69 1.053 1.352-.088.668-.688 1.133-1.348 1.052l-1.087-.137c-.662-.08-1.134-.683-1.05-1.35.08-.66.685-1.133 1.35-1.048m-.755-4.836c.074-.663.688-1.133 1.348-1.047l1.08.132c.66.084 1.136.687 1.053 1.35-.085.667-.69 1.13-1.35 1.052l-1.085-.137c-.66-.08-1.13-.682-1.047-1.35m6.826 5.34c.05.1.106.164.2.274.104.177.483.455.125.673-.14.026-.318 0-.477-.155-1.11-1.067-1.307-2.772-.817-4.212.276-.65.91-1.756 1.716-1.713.544.01.227.756-.072 1.048-.88 1.04-1.41 2.763-.676 4.086m1.947-1.132c-.14-.01-.064-.36-.084-.586-.098-.354-.646-.515-.688-.605-.213-.12-.182-.765.068-.945.143-.118.387-.138.545-.038.392.195.753.663.726 1.216-.104.444-.24.968-.565.958m.99-5.747c-.228.047-.758 0-1.086-.073-1.612-.37-13.23-2.68-30.213-2.684h-.06c-16.987.004-28.606 2.315-30.22 2.684-.328.074-.856.12-1.084.074-.205-.094-.453-.44-.303-.747.09-.248.34-.396.566-.475 6.087-1.328 18.813-3.213 31.038-3.225h.062c12.218.012 24.95 1.897 31.033 3.225.23.08.48.227.567.475.15.305-.095.652-.3.748m7.85-13.674c-.994 1.1-1.708 2.202-2.31 3.44l-.06.062c-.887-.47-1.13-.34-1.642.504-.48.78-.514 1.078.21 1.613l-.054.17c-1.066 1.72-2.02 3.05-3.662 4.477-1.284 1.09-3.684-.042-3.896-1.818-3.343 2.423-7.32.474-8.104-2.242-1.844 2.095-4.437 3.683-8.67.372-2.828 1.498-7.62 2.77-10.965-1.69h-.052c-3.35 4.46-8.146 3.188-10.97 1.69-4.236 3.31-6.827 1.724-8.67-.372-.782 2.716-4.765 4.665-8.106 2.242-.214 1.776-2.61 2.91-3.897 1.818-1.643-1.427-2.596-2.757-3.66-4.477l-.053-.17c.722-.536.688-.834.207-1.613-.508-.843-.752-.974-1.636-.504l-.066-.062c-.6-1.24-1.31-2.34-2.307-3.44-.377-.418-1.105-.73-.593-1.155.305-.278.687-.455 1.11-.627.73-.31 1.587-.577 2.248-.025.875 1.15.107 2.886.53 3.23.133.132.324.182.515.056.73-.657 1.462-2.39 2.584-1.9 1.01.69 1.81 2.563 2.02 4.148.086.84.297 1.86-.39 2.435-.455.39-1.25-.096-1.657.363-.24.647.212.948.555 1.493.504.577 1.122 1.376 2.055 1.433 1.292-.177 1.45-1.533 1.994-2.418.145-.227.146-.09.355.02 1.195.882 2.782 1.477 4.265 1.278.753-.17 1.6-.557 1.837-1.375.194-.525.104-1.017-.017-1.493-.813-1.497-1.545.89-2.646.16-1.147-.884-2.1-2.2-2.548-3.694-.168-.54-.38-1.33.13-1.82.612-.53 1.31-.043 2.014-.082.546.04.355-.447.333-.592-.492-.792-1.83-1.047-1.907-2.162.076-.996.918-1.372 1.802-1.842 1.404-.642 3.034-1.103 4.615-.806.373.09.758.254.903.737.07.427-.123.606-.206.854-.206.542-.754 1.127-.212 1.754.212.312.485.29.835.086.503-.516 1.107-1.168 1.796-1.048.92.103 1.428 1.444 1.644 2.46.326 1.504.466 3.208-.412 4.447-.937.804-1.598-.8-2.472-.128-.258.265-.016 1.043.176 1.468.514.906 1.064 1.603 2.102 1.796 1.532.23 2.45-.124 3.72-1.433.5-.565.37-.33.976-1.047.538.53 1.336 1.24 2.08 1.56 1.723.843 4.228.95 5.53-.204.856-.732 1.334-2.085 1.038-2.426-1.297-1.322-1.44.763-2.34 1.1-1.164.406-1.694.118-2.253-.458-1.364-1.853-1.484-4.535-.687-6.773.12-.238.12-.238.27-.465.436-.612.958-.784 1.566-.69.836.155 1.398.822 1.76 1.526.157.288.544.28.856.17.316-.103.603-.475.428-.79-.513-.7-1.328-1.217-1.773-1.943-.3-.503-.435-1.27-.158-1.847.187-.502.65-.92 1.123-1.27 1.017-.64 2.34-.978 3.66-.978h.062c1.325 0 2.646.337 3.66.978.472.35.937.768 1.12 1.27.272.576.143 1.344-.16 1.847-.445.726-1.256 1.244-1.77 1.942-.172.317.113.688.427.792.312.108.7.117.856-.17.36-.705.92-1.372 1.758-1.528.608-.094 1.133.08 1.573.69.148.227.148.227.26.465.802 2.238.68 4.92-.686 6.773-.555.576-1.085.864-2.25.46-.896-.338-1.04-2.423-2.333-1.102-.297.34.178 1.694 1.03 2.426 1.302 1.152 3.808 1.046 5.53.205.744-.322 1.544-1.03 2.08-1.56.604.716.473.48.98 1.046 1.268 1.31 2.184 1.662 3.718 1.433 1.033-.193 1.588-.89 2.102-1.796.188-.425.434-1.203.176-1.468-.87-.672-1.533.932-2.47.127-.883-1.24-.735-2.943-.418-4.448.22-1.017.73-2.358 1.644-2.46.69-.12 1.296.532 1.8 1.048.35.204.623.225.834-.086.54-.627-.004-1.212-.21-1.755-.09-.25-.275-.428-.208-.855.15-.482.53-.647.904-.737 1.575-.297 3.207.164 4.613.806.887.47 1.727.846 1.803 1.842-.076 1.114-1.414 1.37-1.908 2.162-.02.145-.21.63.334.593.7.04 1.402-.447 2.013.082.516.49.302 1.28.13 1.82-.446 1.494-1.4 2.81-2.548 3.694-1.1.73-1.834-1.656-2.646-.16-.124.478-.214.97-.017 1.495.236.82 1.086 1.207 1.838 1.376 1.48.2 3.07-.396 4.265-1.278.213-.11.213-.247.355-.02.546.885.7 2.242 1.992 2.418.934-.056 1.556-.855 2.056-1.433.347-.545.793-.846.556-1.493-.41-.46-1.2.027-1.66-.363-.686-.576-.476-1.594-.392-2.435.214-1.585 1.015-3.458 2.022-4.15 1.12-.488 1.853 1.245 2.582 1.902.19.126.383.076.516-.056.423-.344-.348-2.08.53-3.23.657-.552 1.516-.284 2.25.025.42.172.804.35 1.108.628.52.425-.214.738-.59 1.156m.476-16.926c-.562.166-1.102-.205-1.46-.523-.5-.13-.743.27-1.177.227-.784-.137-.89-1.068-1.348-1.624-.782-1.044-1.618.416-2.453-.07-.2-.212-.275-.582-.2-.858.073-.444.224-.958.85-1.115.728-.146 1.538-.166 2.17.258.917.54.83 1.917 2.09 1.862 1.036-.34-.222-1.496.346-1.75.43-.208 1.48.904 1.763 1.672.122.252.137.395.126.618-.044.812-.235 1.127-.71 1.302m.922 10.204c-.16.074-.43.16-.478-.106-.128-1.064.595-2.09 1.11-2.964-.143-.127-.424-.095-.58-.318-.463-.692-.014-1.566.19-2.258-.126-.23-.19-.47-.214-.748-.094-.792.282-1.62.955-2.073.6-.875.552-1.997.142-2.913-.14-.385.283-.364.565-.158 1.072.75.933 3.44.042 4.69-.168.254-.043.47.01.67.233.51.233.427.51 1.042.425.848-.12 1.45-.4 2.244-.46 1.092-.866 2.128-1.852 2.892m4.86-1.885c-.57 1.66-1.474 3.186-2.49 4.677-.208.35-.66.826-1.206.62-.532-.26-.45-.625-.354-.9 2.83-3.81 4.8-9 3.313-13.873-.523-1.93-2.503-3.18-4.25-3.962-2.147-.845-4.488-1.14-6.775-.693-.853.234-1.44.274-1.612-.097-.12-.243-.15-.273-.164-.54.052-.625.76-.645 1.107-.786 3.63-.848 7.308.05 10.144 1.95 1.027.753 2.028 1.72 2.526 2.985 1.56 3.288 1.006 7.325-.237 10.617"/><path d="M401.147 69.972c.926 0 1.268.382.975.683-.687.434-1.928 1.35-1.928 1.35h-.61c-1.355 0-1.824 0-1.824.523-.022.398 0 .083 0 .673-.543.382-1.986 1.516-1.986 1.516V70.86s.253-.888 1.058-.888h4.315zM402.33 74.714h-3.424l3.425-2.374zM399.44 58.425c-1.58-.046-1.79-.356-1.79-1.704 0-1.385.21-1.663 1.79-1.705h.076c1.58.055 1.785.354 1.785 1.706 0 1.393-.203 1.664-1.79 1.708l-.07-.003zM420.316 59.176c-1.132-.376-1.22-.637-.93-1.612.29-1.008.5-1.162 1.653-.857l.056.013c1.136.377 1.22.642.93 1.622-.3 1.003-.5 1.16-1.654.85l-.056-.016zM378.845 59.176c1.136-.376 1.225-.637.933-1.612-.29-1.008-.5-1.162-1.653-.857l-.06.013c-1.135.377-1.217.642-.93 1.622.298 1.003.507 1.16 1.66.85l.05-.016z"/></symbol><symbol viewBox="0 0 197 38" id="section-artproject-button"><title>section-artproject-button</title><g id="section-artproject-button-artproject-button"><path d="M20.655 22.9c-1.012.562-2.162.824-3.312.824-2.75 0-4.724-1.874-4.724-4.648 0-2.787 2.11-4.65 4.76-4.65 1.162 0 2.287.313 3.125 1.163l-.788.824c-.6-.65-1.512-1.012-2.412-1.012-2.025 0-3.562 1.525-3.562 3.674 0 2.11 1.487 3.674 3.662 3.674.712 0 1.55-.188 2.2-.512v-2.713h-2.037v-.974h3.087v4.35zM23.095 19.076c0-2.674 1.937-4.65 4.624-4.65 2.686 0 4.623 1.976 4.623 4.65 0 2.674-1.937 4.648-4.624 4.648-2.688 0-4.625-1.974-4.625-4.648zm8.123 0c0-2.037-1.425-3.674-3.5-3.674-2.074 0-3.5 1.637-3.5 3.674s1.426 3.674 3.5 3.674c2.075 0 3.5-1.637 3.5-3.674zM44.943 15.627H42.02V23.5h-1.05v-7.873h-2.925v-.975h6.898v.975zM46.42 19.076c0-2.674 1.936-4.65 4.623-4.65 2.687 0 4.624 1.976 4.624 4.65 0 2.674-1.937 4.648-4.624 4.648-2.687 0-4.624-1.974-4.624-4.648zm8.122 0c0-2.037-1.425-3.674-3.5-3.674-2.074 0-3.5 1.637-3.5 3.674s1.426 3.674 3.5 3.674c2.076 0 3.5-1.637 3.5-3.674zM63.844 16.377H61.32v-1.725h7v1.725h-2.525V23.5h-1.95v-7.123zM70.057 14.652h1.95v3.3h3.786v-3.3h1.95V23.5h-1.95v-3.824h-3.787V23.5h-1.95v-8.848zM80.37 14.652h6.01v1.8h-4.062v1.65h3.836V19.9h-3.836v1.8h4.287v1.8H80.37v-8.848zM96.28 14.652h1.612l3.85 8.848h-2.2l-.763-1.875H95.34l-.737 1.875h-2.15l3.825-8.848zm.75 2.575l-1.075 2.75h2.162l-1.087-2.75zM103.38 14.652h3.426c1.812 0 3.336.625 3.336 2.687 0 1.236-.662 2.2-1.91 2.424l2.248 3.736h-2.337l-1.85-3.537h-.962V23.5h-1.95v-8.848zm1.95 3.662h1.15c.712 0 1.637-.025 1.637-.987 0-.887-.8-1.025-1.512-1.025h-1.274v2.012zM113.72 16.377h-2.525v-1.725h6.998v1.725h-2.524V23.5h-1.95v-7.123zM124.38 14.652h3.288c1.837 0 3.36.587 3.36 2.687 0 2.074-1.41 2.71-3.272 2.71h-1.425v3.45h-1.95v-8.848zm1.95 3.75h1.3c.688 0 1.375-.24 1.375-1.063 0-.913-.925-1.038-1.675-1.038h-1v2.1zM133.006 14.652h3.425c1.813 0 3.337.625 3.337 2.687 0 1.236-.662 2.2-1.91 2.424l2.248 3.736h-2.337l-1.85-3.537h-.962V23.5h-1.95v-8.848zm1.95 3.662h1.15c.71 0 1.636-.025 1.636-.987 0-.887-.8-1.025-1.512-1.025h-1.274v2.012zM146.155 14.427c2.762 0 4.773 1.812 4.773 4.65s-2.012 4.647-4.773 4.647c-2.763 0-4.774-1.812-4.774-4.648s2.013-4.65 4.775-4.65zm0 7.5c1.66 0 2.75-1.2 2.75-2.85 0-1.65-1.09-2.85-2.75-2.85-1.662 0-2.75 1.2-2.75 2.85 0 1.65 1.088 2.85 2.75 2.85zM157.58 20.538c0 1.638-.426 3.187-2.825 3.187-1.4 0-2.425-.65-2.712-2.062l1.787-.438c.05.425.45.774.875.774.912 0 .925-1.013.925-1.675V14.65h1.95v5.888zM160.08 14.652h6.01v1.8h-4.06v1.65h3.836V19.9h-3.837v1.8h4.286v1.8h-6.236v-8.848zM174.416 16.952c-.387-.462-.95-.725-1.674-.725-1.475 0-2.562 1.2-2.562 2.85 0 1.65 1.088 2.85 2.5 2.85.787 0 1.424-.35 1.824-.95l1.624 1.212c-.737 1.05-1.986 1.536-3.2 1.536-2.76 0-4.772-1.812-4.772-4.648s2.012-4.65 4.773-4.65c.986 0 2.236.338 2.986 1.3l-1.5 1.224zM179.655 16.377h-2.524v-1.725h7v1.725h-2.525V23.5h-1.95v-7.123z"/></g></symbol><symbol viewBox="0 0 361.128 504.539" id="section-artproject"><title>section-artproject</title><g id="section-artproject-artproject"><path d="M69.758 276.358h-4.104v-1.62l3.886-6.068h1.853v6.218h1.405v1.472h-1.405v1.964h-1.635v-1.966zm0-5.37h-.028l-2.413 3.898h2.44v-3.9zM88.59 268.67h1.487l4.16 9.65H92.27l-.9-2.206h-4.185l-.873 2.207h-1.922l4.2-9.65zm2.182 5.97l-1.485-3.926-1.513 3.927h2.998zM98.862 268.67h3.354c1.853 0 3.598.6 3.598 2.767 0 1.393-.804 2.414-2.235 2.618l2.56 4.27h-2.07l-2.236-4.093h-1.255v4.092H98.86v-9.655zm3.053 4.09c.97 0 2.1-.082 2.1-1.337 0-1.146-1.064-1.28-1.95-1.28h-1.486v2.616h1.335zM112.73 270.224h-2.958v-1.555h7.635v1.554h-2.958v8.097h-1.72zM122.087 268.67h1.718v9.65h-1.718zM134.196 270.742c-.368-.52-1.022-.764-1.69-.764-.79 0-1.583.354-1.583 1.24 0 1.937 4.58.832 4.58 4.267 0 2.073-1.634 3.082-3.53 3.082-1.2 0-2.372-.368-3.162-1.31l1.296-1.254c.423.642 1.145 1.01 1.908 1.01.79 0 1.69-.438 1.69-1.323 0-2.112-4.58-.9-4.58-4.35 0-1.99 1.773-2.917 3.558-2.917 1.01 0 2.018.287 2.768.996l-1.254 1.322zM142.815 270.224h-2.958v-1.555h7.636v1.554h-2.958v8.097h-1.72zM156.943 270.742c-.368-.52-1.022-.764-1.69-.764-.79 0-1.583.354-1.583 1.24 0 1.937 4.58.832 4.58 4.267 0 2.073-1.634 3.082-3.53 3.082-1.2 0-2.372-.368-3.162-1.31l1.295-1.254c.423.642 1.145 1.01 1.908 1.01.792 0 1.692-.438 1.692-1.323 0-2.112-4.58-.9-4.58-4.35 0-1.99 1.772-2.917 3.557-2.917 1.01 0 2.017.287 2.767.996l-1.254 1.322zM178.875 276.81c-.914 1.252-2.168 1.76-3.586 1.76-2.946 0-4.99-2.128-4.99-5.072s2.044-5.072 4.99-5.072c1.308 0 2.48.437 3.325 1.515l-.735.614c-.6-.9-1.623-1.31-2.59-1.31-2.523 0-4.09 1.854-4.09 4.254 0 2.397 1.567 4.252 4.09 4.252.967 0 2.167-.463 2.85-1.498l.735.557zM184.06 268.67h5.902v.818h-5.004v3.435h4.69v.82h-4.69v3.762h5.222v.816h-6.12zM195.69 268.67h.9v8.835h4.5v.816h-5.4zM206.042 268.67h5.904v.818h-5.004v3.435h4.69v.82h-4.69v3.762h5.222v.816h-6.122zM217.677 268.67h2.78c1.474 0 3.108.366 3.108 2.55 0 .98-.586 1.77-1.73 2.004v.025c1.268.097 2.152 1.02 2.152 2.372 0 2.224-1.922 2.7-3.23 2.7h-3.08v-9.653zm.9 4.17h1.867c1.868 0 2.222-1.02 2.222-1.62 0-1.352-.953-1.73-2.1-1.73h-1.99v3.35zm0 4.663h2.058c2.113 0 2.455-1.172 2.455-1.854 0-1.43-1.174-1.99-2.316-1.99h-2.195v3.843h-.004zM229.813 268.67h2.536c.763 0 3.435 0 3.435 2.534 0 1.84-1.404 2.346-2.468 2.482l2.81 4.635h-1.022l-2.712-4.58h-1.678v4.58h-.9l-.002-9.65zm.9 4.253h1.91c1.894 0 2.263-1.05 2.263-1.72 0-.665-.37-1.716-2.264-1.716h-1.908v3.436zM244.405 268.67h.927l4.062 9.65h-1.008l-1.05-2.562h-5.113l-1.09 2.562h-.94l4.212-9.65zm.423.98l-2.248 5.29h4.43l-2.182-5.29zM255.548 269.488h-3.298v-.82h7.498v.82h-3.3v8.834h-.9zM264.78 268.67h.9v9.65h-.9zM271.873 268.67h1.158l5.878 8.453h.027v-8.454h.898v9.65h-1.158l-5.875-8.45h-.028v8.45h-.9zM293.992 277.695c-1.12.64-2.346.873-3.6.873-2.945 0-4.99-2.127-4.99-5.072s2.045-5.072 4.99-5.072c1.432 0 2.59.438 3.477 1.336l-.657.684c-.584-.71-1.77-1.2-2.82-1.2-2.52 0-4.09 1.855-4.09 4.255 0 2.398 1.568 4.25 4.09 4.25 1.035 0 1.964-.134 2.7-.57v-3.244h-2.318v-.817h3.218v4.575zM0 295.945h2.78c1.365 0 3.11.532 3.11 2.55 0 1.745-1.39 2.522-2.904 2.522H.9v4.58H0v-9.652zm.9 4.254h2.046c1.022 0 2.044-.44 2.044-1.704 0-1.242-1.063-1.73-2.1-1.73H.9v3.433zM13.323 295.945h.927l4.063 9.652h-1.008l-1.05-2.562h-5.113l-1.09 2.562h-.94l4.21-9.652zm.423.983l-2.25 5.288h4.432l-2.182-5.288zM24.466 296.764h-3.3v-.82h7.5v.82h-3.3v8.834h-.9zM35.84 296.764h-3.3v-.82h7.5v.82h-3.3v8.834h-.9zM45.073 295.945h5.904v.82h-5.004v3.434h4.69v.818h-4.69v3.762h5.22v.818h-6.12zM56.706 295.945h2.536c.764 0 3.436 0 3.436 2.536 0 1.84-1.405 2.346-2.468 2.482l2.808 4.635h-1.022l-2.712-4.58h-1.678v4.58h-.9v-9.652zm.9 4.254h1.91c1.893 0 2.262-1.05 2.262-1.72 0-.666-.37-1.717-2.263-1.717h-1.91v3.436zM68.34 295.945h1.158l5.876 8.453h.027v-8.453h.9v9.653h-1.158l-5.876-8.452h-.027v8.452h-.9zM89.587 295.945h1.16l5.875 8.453h.027v-8.453h.9v9.653h-1.16l-5.876-8.452h-.027v8.452h-.9zM108.092 295.7c2.946 0 4.99 2.128 4.99 5.07 0 2.946-2.044 5.073-4.99 5.073-2.945 0-4.99-2.127-4.99-5.072.002-2.942 2.045-5.07 4.99-5.07m0 9.324c2.523 0 4.09-1.854 4.09-4.253s-1.567-4.253-4.09-4.253c-2.522 0-4.09 1.854-4.09 4.254s1.568 4.254 4.09 4.254M119.1 304.37c.368 0 .654.286.654.654s-.286.655-.654.655c-.368 0-.654-.288-.654-.656s.285-.653.654-.653M127.978 297.09h-.015l-1.744 1.433-.505-.628 2.385-1.95h.695v9.653h-.817zM146.428 295.945h.927l4.063 9.652h-1.008l-1.05-2.562h-5.113l-1.09 2.562h-.94l4.21-9.652zm.423.983l-2.248 5.288h4.43l-2.18-5.288zM156.358 295.945h1.16l5.875 8.453h.027v-8.453h.9v9.653h-1.16l-5.875-8.452h-.027v8.452h-.9zM170.378 295.945h2.986c5.016 0 5.22 4.118 5.22 4.827s-.204 4.825-5.22 4.825h-2.986v-9.652zm.9 8.835h1.854c2.563 0 4.553-1.24 4.553-4.008 0-2.77-1.99-4.01-4.553-4.01h-1.854v8.018zM193.37 296.764h-3.3v-.82h7.5v.82h-3.3v8.834h-.9zM202.604 295.945h.9v4.254h5.398v-4.255h.9v9.653h-.9v-4.58h-5.4v4.58h-.898zM215.996 295.945h5.903v.82h-5.004v3.434h4.69v.818h-4.69v3.762h5.22v.818h-6.12zM242.67 304.085c-.915 1.252-2.17 1.758-3.587 1.758-2.944 0-4.99-2.127-4.99-5.07 0-2.943 2.046-5.07 4.99-5.07 1.31 0 2.48.435 3.326 1.512l-.737.615c-.6-.9-1.623-1.312-2.59-1.312-2.52 0-4.09 1.854-4.09 4.254s1.567 4.253 4.09 4.253c.967 0 2.168-.463 2.85-1.5l.736.56zM252.216 295.7c2.945 0 4.99 2.128 4.99 5.07 0 2.946-2.045 5.073-4.99 5.073-2.944 0-4.988-2.127-4.988-5.072 0-2.942 2.043-5.07 4.988-5.07m0 9.324c2.522 0 4.09-1.854 4.09-4.253s-1.566-4.253-4.09-4.253c-2.52 0-4.09 1.854-4.09 4.254s1.568 4.254 4.09 4.254M262.773 295.945h.9v8.835h4.5v.818h-5.4zM277.487 295.7c2.946 0 4.99 2.128 4.99 5.07 0 2.946-2.044 5.073-4.99 5.073-2.944 0-4.99-2.127-4.99-5.072 0-2.942 2.045-5.07 4.99-5.07m0 9.324c2.522 0 4.09-1.854 4.09-4.253s-1.565-4.253-4.09-4.253c-2.52 0-4.09 1.854-4.09 4.254s1.57 4.254 4.09 4.254M294.902 301.903c0 2.058-.886 3.94-3.518 3.94-2.63 0-3.518-1.883-3.518-3.94v-5.958h.9v5.727c0 1.377.367 3.354 2.617 3.354 2.248 0 2.617-1.978 2.617-3.354v-5.727h.898v5.958h.004zM300.92 295.945h2.534c.765 0 3.436 0 3.436 2.536 0 1.84-1.404 2.346-2.467 2.482l2.81 4.635h-1.022l-2.712-4.58h-1.68v4.58h-.898v-9.652zm.898 4.254h1.91c1.893 0 2.262-1.05 2.262-1.72 0-.666-.37-1.717-2.263-1.717h-1.91v3.436zM319.644 295.945h2.78c1.474 0 3.108.368 3.108 2.55 0 .98-.586 1.772-1.73 2.005v.026c1.268.097 2.152 1.02 2.152 2.372 0 2.223-1.922 2.7-3.23 2.7h-3.08v-9.653zm.898 4.172h1.87c1.866 0 2.22-1.023 2.22-1.62 0-1.353-.953-1.732-2.098-1.732h-1.992v3.352zm0 4.663h2.06c2.112 0 2.454-1.173 2.454-1.854 0-1.43-1.174-1.99-2.316-1.99h-2.195v3.845h-.003zM331.78 295.945h.9v8.835h4.5v.818h-5.4zM348.99 301.903c0 2.058-.887 3.94-3.518 3.94-2.633 0-3.518-1.883-3.518-3.94v-5.958h.898v5.727c0 1.377.37 3.354 2.62 3.354 2.247 0 2.614-1.978 2.614-3.354v-5.727h.9v5.958h.004zM355.007 295.945h5.905v.82h-5.004v3.434h4.69v.818h-4.69v3.762h5.22v.818h-6.12zM61.56 323.22h.9v9.652h-.9zM68.653 323.22h1.16l5.875 8.453h.027v-8.452h.9v9.653h-1.16l-5.875-8.452h-.027v8.453h-.9zM97.835 331.36c-.914 1.253-2.168 1.76-3.586 1.76-2.946 0-4.99-2.128-4.99-5.07 0-2.945 2.044-5.072 4.99-5.072 1.308 0 2.48.435 3.325 1.513l-.735.615c-.6-.9-1.623-1.31-2.59-1.31-2.523 0-4.09 1.854-4.09 4.254 0 2.396 1.567 4.25 4.09 4.25.967 0 2.167-.462 2.85-1.497l.735.557zM107.383 322.977c2.946 0 4.99 2.127 4.99 5.07 0 2.944-2.044 5.07-4.99 5.07-2.945 0-4.99-2.126-4.99-5.07 0-2.943 2.045-5.07 4.99-5.07m0 9.323c2.523 0 4.09-1.854 4.09-4.252 0-2.4-1.567-4.254-4.09-4.254-2.522 0-4.09 1.854-4.09 4.254 0 2.398 1.568 4.252 4.09 4.252M117.94 323.22h.9v8.836h4.5v.817h-5.4zM128.29 323.22h.9v8.836h4.5v.817h-5.4zM141.6 323.222h.928l4.063 9.65h-1.007l-1.05-2.562h-5.113l-1.09 2.562h-.94l4.21-9.65zm.424.98l-2.25 5.29h4.432l-2.182-5.29zM151.53 323.22h2.78c1.474 0 3.11.37 3.11 2.55 0 .98-.586 1.774-1.73 2.005v.027c1.266.096 2.152 1.02 2.152 2.37 0 2.225-1.922 2.702-3.23 2.702h-3.082v-9.653zm.9 4.173h1.868c1.868 0 2.222-1.022 2.222-1.622 0-1.35-.954-1.73-2.1-1.73h-1.99v3.353zm0 4.663h2.058c2.114 0 2.454-1.174 2.454-1.854 0-1.432-1.172-1.99-2.316-1.99h-2.196v3.844zM168.03 322.977c2.947 0 4.99 2.127 4.99 5.07 0 2.944-2.043 5.07-4.99 5.07-2.944 0-4.988-2.126-4.988-5.07 0-2.943 2.044-5.07 4.99-5.07m0 9.323c2.522 0 4.09-1.854 4.09-4.252 0-2.4-1.568-4.254-4.09-4.254-2.523 0-4.09 1.854-4.09 4.254 0 2.398 1.567 4.252 4.09 4.252M178.574 323.22h2.536c.765 0 3.437 0 3.437 2.537 0 1.84-1.404 2.345-2.467 2.482l2.808 4.634h-1.02l-2.715-4.582h-1.678v4.582h-.9v-9.653zm.9 4.255h1.908c1.895 0 2.264-1.05 2.264-1.718s-.37-1.717-2.264-1.717h-1.908v3.435zM193.166 323.222h.928l4.062 9.65h-1.008l-1.05-2.562h-5.113l-1.09 2.562h-.94l4.21-9.65zm.423.98l-2.25 5.29h4.432l-2.183-5.29zM204.31 324.04h-3.3v-.82h7.497v.82h-3.3v8.835h-.898zM213.542 323.22h.9v9.652h-.9zM224.996 322.977c2.946 0 4.99 2.127 4.99 5.07 0 2.944-2.044 5.07-4.99 5.07-2.943 0-4.988-2.126-4.988-5.07 0-2.943 2.044-5.07 4.988-5.07m0 9.323c2.523 0 4.09-1.854 4.09-4.252 0-2.4-1.565-4.254-4.09-4.254-2.52 0-4.088 1.854-4.088 4.254 0 2.398 1.567 4.252 4.088 4.252M235.553 323.22h1.16l5.874 8.453h.028v-8.452h.9v9.653h-1.16l-5.875-8.452h-.027v8.453h-.9zM255.535 323.22h.925l2.4 8.55h.028l2.44-8.55h1.146l2.44 8.55h.027l2.4-8.55h.928l-2.81 9.653h-1.104l-2.44-8.588h-.027l-2.44 8.588h-1.106zM273.207 323.22h.9v9.652h-.9zM282.44 324.04h-3.3v-.82h7.5v.82h-3.3v8.835h-.9zM291.67 323.22h.902v4.255h5.4v-4.254h.9v9.653h-.9v-4.58h-5.4v4.58h-.9zM81.515 350.498h3.354c1.852 0 3.597.6 3.597 2.767 0 1.392-.804 2.414-2.235 2.618l2.562 4.268h-2.072l-2.235-4.09h-1.255v4.09h-1.717V350.5zm3.053 4.09c.97 0 2.1-.083 2.1-1.337 0-1.145-1.064-1.282-1.95-1.282h-1.486v2.62h1.336zM98.234 350.25c3.012-.054 5.14 1.964 5.14 5.06 0 3.014-2.128 5.03-5.14 5.085-2.972 0-5.1-2.02-5.1-5.03 0-3.096 2.128-5.114 5.1-5.114m.013 8.59c2.005 0 3.327-1.527 3.327-3.585 0-1.922-1.322-3.45-3.327-3.45-1.99 0-3.313 1.528-3.313 3.45 0 2.057 1.323 3.584 3.313 3.584M110.917 356.02l-3.626-5.522h2.155l2.372 3.843 2.4-3.842h2.045l-3.627 5.52v4.13h-1.718zM122.81 350.498h1.485l4.16 9.65h-1.965l-.9-2.207h-4.185l-.873 2.21h-1.922l4.2-9.652zm2.18 5.97l-1.485-3.926-1.513 3.926h2.998zM133.08 350.498h1.718v8.097h4.103v1.553h-5.82zM157.898 352.76c-.71-.75-1.363-.954-2.032-.954-1.99 0-3.313 1.527-3.313 3.45 0 2.058 1.323 3.583 3.313 3.583.778 0 1.528-.355 2.168-1.173l1.418 1.01c-.872 1.2-2.182 1.718-3.6 1.718-2.97 0-5.098-2.02-5.098-5.03 0-3.096 2.127-5.11 5.1-5.11 1.308 0 2.426.42 3.38 1.524l-1.336.98zM168.727 350.25c3.012-.054 5.14 1.964 5.14 5.06 0 3.014-2.128 5.03-5.14 5.085-2.972 0-5.1-2.02-5.1-5.03 0-3.096 2.128-5.114 5.1-5.114m.013 8.59c2.005 0 3.327-1.527 3.327-3.585 0-1.922-1.322-3.45-3.327-3.45-1.99 0-3.313 1.528-3.313 3.45 0 2.057 1.323 3.584 3.313 3.584M179.053 350.498h3.245c1.867 0 3.558.654 3.558 2.793 0 2.43-1.812 2.866-3.858 2.866h-1.227v3.993h-1.717v-9.652zm2.754 4.184c.98 0 2.25-.054 2.25-1.362 0-1.188-1.132-1.35-2.06-1.35h-1.228v2.712h1.037zM190.917 350.498h6.395v1.552h-4.676v2.373h4.43v1.555h-4.43v2.617h4.92v1.553h-6.64zM202.783 350.498h2.277l4.675 7.17.028.026h-.028l.028-.027v-7.17h1.717v9.65h-2.182l-4.77-7.4h-.027v7.4h-1.717zM217.184 350.498h1.717v3.843h4.514V350.5h1.718v9.65h-1.718v-4.252H218.9v4.252h-1.716zM233.943 350.498h1.486l4.157 9.65h-1.963l-.9-2.207h-4.186l-.873 2.21h-1.922l4.2-9.652zm2.182 5.97l-1.484-3.926-1.513 3.926h2.998zM252.79 359.44c-1.173.627-2.51.955-3.995.955-2.97 0-5.1-2.02-5.1-5.032 0-3.094 2.13-5.11 5.1-5.11 1.472 0 2.795.312 3.804 1.212l-1.27 1.28c-.613-.598-1.554-.937-2.52-.937-1.99 0-3.313 1.524-3.313 3.448 0 2.06 1.323 3.584 3.312 3.584.87 0 1.662-.164 2.263-.504v-2.275h-1.98v-1.554h3.696v4.934zM258.356 350.498h6.394v1.552h-4.676v2.373h4.43v1.555h-4.43v2.617h4.922v1.553h-6.64zM270.222 350.498h2.276l4.677 7.17.026.026h-.025l.026-.027v-7.17h1.72v9.65h-2.183l-4.77-7.4h-.028v7.4h-1.718zM141.167 483.335v3.053s5.43 3.047 12.694 3.047c7.262 0 13.376-3.262 13.376-3.262s4.887 3.19 13.987 3.19c7.19 0 12.153-3.263 12.153-3.263s5.58 3.332 13.996 3.332c6.88 0 11.996-3.047 11.996-3.047v-2.98s-5.504 3.193-12.23 3.193c-8.256 0-13.603-3.623-13.603-3.623s-6.96 3.764-12.617 3.764c-7.183 0-13.68-3.765-13.68-3.765s-5.58 3.623-13.222 3.623c-7.65.003-12.85-3.263-12.85-3.263M141.167 490.884v3.053s5.43 3.057 12.694 3.057c7.262 0 13.376-3.27 13.376-3.27s4.887 3.198 13.987 3.198c7.19 0 12.153-3.27 12.153-3.27s5.58 3.342 13.996 3.342c6.88 0 11.996-3.057 11.996-3.057v-2.98s-5.504 3.19-12.23 3.19c-8.256 0-13.603-3.62-13.603-3.62s-6.96 3.768-12.617 3.768c-7.183 0-13.68-3.768-13.68-3.768s-5.58 3.62-13.222 3.62c-7.65 0-12.85-3.263-12.85-3.263M141.167 498.43v3.056s5.43 3.053 12.694 3.053c7.262 0 13.376-3.263 13.376-3.263s4.887 3.19 13.987 3.19c7.19 0 12.153-3.27 12.153-3.27s5.58 3.34 13.996 3.34c6.88 0 11.996-3.054 11.996-3.054v-2.98s-5.504 3.192-12.23 3.192c-8.256 0-13.603-3.62-13.603-3.62s-6.96 3.763-12.617 3.763c-7.183 0-13.68-3.762-13.68-3.762s-5.58 3.62-13.222 3.62c-7.65 0-12.85-3.267-12.85-3.267M214.364 446.878c-.433 1.24-1.104 2.383-1.864 3.5-.166.26-.494.623-.906.463-.406-.19-.348-.468-.27-.675 2.116-2.848 3.6-6.738 2.478-10.383-.385-1.45-1.872-2.38-3.186-2.975-1.6-.63-3.36-.852-5.066-.514-.64.178-1.082.21-1.213-.074-.086-.19-.104-.204-.12-.403.04-.463.573-.484.83-.59 2.725-.637 5.48.037 7.6 1.455.772.568 1.52 1.297 1.892 2.24 1.165 2.466.75 5.484-.176 7.956m-3.642 1.41c-.127.046-.32.122-.36-.077-.094-.802.45-1.57.835-2.22-.113-.102-.316-.066-.44-.238-.34-.518 0-1.176.148-1.69-.094-.18-.147-.356-.17-.56-.063-.6.224-1.22.724-1.555.454-.656.413-1.5.1-2.188-.1-.286.222-.27.435-.12.795.564.692 2.584.026 3.518-.126.19-.025.355.01.5.172.383.172.318.376.785.328.633-.08 1.08-.298 1.68-.35.822-.65 1.59-1.386 2.164m-.69-7.647c-.423.13-.825-.152-1.096-.387-.37-.1-.56.193-.88.172-.592-.104-.667-.807-1.01-1.22-.59-.782-1.21.308-1.838-.052-.15-.154-.203-.438-.15-.648.052-.322.168-.717.635-.83.547-.104 1.156-.125 1.628.195.688.402.626 1.436 1.563 1.396.783-.256-.166-1.12.262-1.312.316-.158 1.11.68 1.318 1.252.097.19.103.293.097.465-.032.607-.176.843-.527.97m-.36 12.684c-.744.816-1.285 1.645-1.728 2.576l-.047.043c-.66-.36-.847-.254-1.23.373-.36.582-.39.812.16 1.21l-.044.128c-.79 1.29-1.512 2.285-2.742 3.354-.96.812-2.76-.03-2.916-1.357-2.502 1.813-5.486.356-6.07-1.68-1.38 1.567-3.32 2.75-6.492.276-2.12 1.12-5.707 2.076-8.216-1.266h-.037c-2.506 3.342-6.095 2.385-8.216 1.266-3.173 2.475-5.11 1.29-6.49-.277-.59 2.036-3.57 3.493-6.074 1.68-.16 1.33-1.952 2.173-2.916 1.358-1.233-1.068-1.947-2.062-2.744-3.354l-.035-.127c.536-.396.51-.63.15-1.21-.378-.628-.56-.733-1.225-.374l-.043-.043c-.457-.934-.978-1.76-1.734-2.576-.28-.316-.83-.557-.442-.865.233-.214.52-.35.84-.472.542-.23 1.183-.436 1.68-.02.65.86.075 2.16.396 2.425.096.088.246.133.38.035.545-.492 1.1-1.793 1.94-1.424.755.52 1.35 1.924 1.51 3.113.068.627.225 1.39-.29 1.812-.338.298-.935-.067-1.24.282-.18.48.156.703.415 1.113.377.426.84 1.02 1.535 1.066.97-.132 1.09-1.142 1.492-1.796.115-.18.115-.086.27.016.897.645 2.083 1.098 3.196.95.56-.132 1.194-.423 1.374-1.034.142-.396.083-.762-.007-1.12-.62-1.12-1.166.673-1.986.12-.858-.656-1.578-1.643-1.914-2.766-.123-.402-.283-1 .1-1.365.458-.395.982-.03 1.508-.06.408.03.27-.335.246-.448-.366-.582-1.368-.783-1.422-1.623.054-.732.68-1.02 1.345-1.375 1.055-.474 2.272-.825 3.464-.603.278.074.564.195.67.557.053.318-.083.45-.157.64-.148.4-.558.843-.15 1.313.15.23.36.215.627.064.365-.388.828-.872 1.344-.78.686.074 1.068 1.074 1.23 1.844.242 1.127.344 2.396-.312 3.322-.702.605-1.193-.588-1.854-.088-.186.193-.013.773.134 1.096.39.674.802 1.197 1.57 1.355 1.16.16 1.84-.108 2.796-1.087.372-.42.27-.246.722-.777.4.39 1.003.928 1.56 1.158 1.286.633 3.164.71 4.137-.152.644-.54 1.003-1.557.788-1.81-.975-.995-1.082.57-1.76.817-.87.308-1.265.093-1.686-.343-1.025-1.383-1.114-3.398-.515-5.07.09-.18.09-.18.202-.35.326-.455.716-.592 1.17-.516.634.118 1.05.612 1.32 1.144.115.215.415.21.643.13.242-.08.45-.362.318-.593-.377-.526-.994-.91-1.328-1.458-.22-.37-.32-.945-.116-1.385.143-.38.487-.686.84-.95.757-.48 1.752-.733 2.747-.733h.046c.987 0 1.98.254 2.735.734.352.264.704.57.842.95.206.438.104 1.013-.116 1.384-.34.547-.94.932-1.328 1.46-.13.228.083.513.317.59.237.08.522.087.642-.128.27-.53.69-1.023 1.322-1.143.453-.075.847.062 1.18.517.103.17.103.17.185.35.605 1.672.514 3.688-.504 5.07-.42.434-.818.648-1.688.342-.67-.247-.777-1.813-1.748-.82-.227.257.126 1.27.775 1.812.972.863 2.848.785 4.145.152.556-.23 1.146-.77 1.556-1.158.448.53.353.355.73.777.943.98 1.632 1.246 2.78 1.086.774-.16 1.19-.685 1.575-1.356.146-.32.328-.902.135-1.096-.646-.5-1.15.693-1.85.088-.66-.926-.55-2.195-.312-3.322.164-.77.55-1.77 1.226-1.844.526-.092.973.395 1.354.78.253.15.463.167.62-.063.41-.473 0-.912-.157-1.314-.067-.188-.21-.32-.154-.64.108-.36.398-.48.683-.556 1.175-.225 2.4.13 3.456.602.658.354 1.29.642 1.347 1.374-.058.84-1.054 1.04-1.435 1.623-.013.113-.152.48.256.447.524.03 1.045-.334 1.498.06.396.366.23.964.1 1.366-.324 1.123-1.046 2.107-1.9 2.766-.822.553-1.377-1.24-1.982-.12-.088.358-.163.724-.018 1.12.184.61.81.902 1.377 1.033 1.113.145 2.302-.306 3.19-.95.162-.102.162-.193.273-.016.403.654.52 1.664 1.486 1.797.7-.044 1.166-.642 1.542-1.065.258-.41.592-.635.412-1.113-.31-.35-.893.016-1.238-.283-.504-.427-.355-1.19-.295-1.813.17-1.19.76-2.594 1.517-3.113.84-.37 1.382.932 1.94 1.424.142.098.28.053.382-.035.31-.264-.263-1.562.394-2.426.49-.412 1.135-.21 1.688.02.315.124.603.26.825.472.384.307-.164.547-.444.864m-5.875 10.23c-.168.045-.57 0-.824-.045-1.207-.276-9.898-2.01-22.618-2.017h-.045c-12.726.008-21.428 1.738-22.63 2.016-.25.044-.647.09-.81.044-.16-.06-.35-.32-.233-.545.068-.196.256-.308.42-.37 4.562-.982 14.09-2.4 23.254-2.41h.046c9.15.01 18.688 1.428 23.238 2.41.176.062.362.174.426.37.116.222-.07.486-.222.544m-.744 4.31c-.107-.01-.057-.27-.065-.437-.07-.27-.486-.39-.513-.453-.153-.092-.142-.576.053-.71.103-.083.294-.097.405-.028.292.148.562.49.54.908-.074.332-.173.725-.42.72m-1.458.848c.033.074.076.12.146.203.084.135.362.344.1.51-.108.014-.24 0-.36-.11-.833-.812-.98-2.077-.614-3.16.21-.49.688-1.313 1.288-1.286.41.01.166.563-.06.784-.65.78-1.048 2.068-.5 3.058m-5.12-4.002c.068-.494.523-.846 1.018-.777l.8.092c.497.07.855.516.8 1.016-.072.503-.52.853-1.016.794l-.807-.105c-.498-.064-.854-.512-.794-1.02m.568 3.623l.812.105c.487.06.844.508.786.998-.07.512-.515.86-1.01.8l-.816-.103c-.495-.06-.853-.51-.78-1.01.056-.5.515-.85 1.008-.79m-6.306-2.404l1.385-1.18c.244-.21.608-.173.812.06l1.163 1.394c.214.24.182.61-.064.814l-1.387 1.164c-.24.21-.604.17-.812-.066l-1.167-1.39c-.207-.236-.17-.61.07-.797m-4.792-1.878c0-.498.394-.902.898-.902h.82c.49 0 .902.404.902.902 0 .494-.41.912-.903.912h-.82c-.504 0-.896-.418-.896-.912m.796 3.438h.823c.5 0 .896.408.896.914 0 .5-.396.898-.897.898h-.824c-.494 0-.904-.398-.904-.898 0-.506.41-.914.904-.914m-9.864.162v-4.52c0-.393.31-.723.71-.723h5.908c.4 0 .72.33.72.722v4.52c0 .402-.317.72-.72.72h-5.907c-.4 0-.71-.316-.71-.72m-2.072.752c0 .5-.4.898-.898.898h-.825c-.492 0-.9-.398-.9-.898 0-.506.408-.914.9-.914h.825c.5 0 .9.408.9.914m-1-3.44h-.82c-.5 0-.903-.418-.903-.912 0-.498.402-.902.903-.902h.82c.5 0 .898.404.898.902 0 .494-.398.912-.897.912m-7.268 1.24l1.176-1.39c.21-.236.576-.273.812-.064l1.38 1.18c.247.188.274.562.074.797l-1.17 1.393c-.2.234-.567.275-.813.066l-1.384-1.166c-.244-.204-.274-.575-.075-.815m-1.926 2.92c.064.502-.29.95-.785 1.01l-.81.104c-.492.06-.95-.29-1.008-.8-.07-.492.29-.94.787-.998l.807-.107c.494-.062.942.288 1.01.79m-1.225-3.4l-.817.106c-.493.062-.945-.29-1.01-.79-.06-.5.293-.945.786-1.016l.814-.094c.496-.066.952.283 1.005.777.067.51-.286.96-.778 1.02m38.108 7.57c-7.063-.718-13.88-1.097-21.147-1.116h-.045c-7.282.02-14.082.4-21.156 1.118-.53.037-.884-.096-.904-.332-.03-.307.067-.473.296-.533 1.938-.357 4.095-.566 6.063-.71 5.147-.515 10.42-.83 15.7-.83h.046c5.272 0 10.55.315 15.7.83 1.97.144 4.107.353 6.05.71.23.06.34.227.304.533-.026.237-.38.37-.907.332m-21.148 1.233h-.045c-1.044-.015-13.83-.2-15.34-.616 2.212-.48 11.844-.6 15.34-.607h.045c3.486.01 13.123.13 15.334.607-1.512.416-14.297.603-15.335.617m-21.8-8.878c-.217-.22-.458-.775-.055-.785.608-.027 1.08.8 1.28 1.287.374 1.082.227 2.35-.608 3.158-.117.113-.253.125-.353.113-.274-.166.01-.375.093-.51.075-.084.113-.13.148-.203.548-.99.155-2.28-.504-3.06m-.89 1.777c-.014.165.04.425-.063.433-.24.006-.34-.387-.425-.717-.02-.42.25-.762.546-.91.124-.066.3-.053.41.03.183.132.204.616.048.708-.028.065-.44.186-.517.455m-7.564-27.76c-.018-.17.005-.276.09-.464.21-.572 1.002-1.41 1.317-1.252.43.193-.51 1.06.256 1.312.954.037.886-.994 1.573-1.396.475-.32 1.08-.3 1.624-.195.472.113.586.508.635.83.057.21 0 .494-.146.648-.627.357-1.256-.73-1.838.053-.342.412-.426 1.113-1.01 1.22-.328.02-.506-.27-.88-.173-.272.234-.67.516-1.098.387-.35-.127-.49-.363-.523-.97m.196 8.54c-.038.2-.24.123-.358.076-.736-.572-1.038-1.342-1.387-2.162-.21-.6-.614-1.047-.298-1.682.206-.467.206-.402.38-.785.04-.145.138-.307.005-.498-.665-.935-.768-2.954.034-3.52.207-.15.532-.167.42.12-.295.686-.336 1.53.112 2.186.497.336.788.955.71 1.555-.014.204-.066.382-.153.563.147.514.485 1.17.138 1.688-.112.175-.334.14-.435.24.383.648.93 1.418.833 2.22m-1.233 2.63c-.403.16-.75-.202-.898-.462-.758-1.117-1.44-2.26-1.863-3.5-.934-2.473-1.35-5.49-.184-7.955.37-.94 1.125-1.67 1.898-2.24 2.122-1.418 4.867-2.092 7.59-1.453.27.104.793.127.83.59-.01.197-.028.215-.12.4-.136.283-.57.254-1.21.076-1.712-.338-3.467-.12-5.07.514-1.315.594-2.793 1.52-3.192 2.975-1.112 3.645.365 7.535 2.49 10.38.072.208.13.485-.27.676m7.945-7.317c-.088.453-.247 1.03.022 1.402.167.406 1.102.416.692 1.018-.23.693 1.026 1.23.458 1.46-.426.087-.8.07-1.456.272-1.03.344-1.784.902-2.65 1.443-.265.148-.494.438-.632.707-.42-.207-1.065-.336-1.552-.3-.017-.362.083-.493.017-.81-.038-.75-.3-1.413-.574-2.114.218-.743.31-1.446.043-2.218-.21-.553.207-1.26-.044-1.71-.077-.136 0-.194 0-.194.275-.21.64-.455.974-.686.895.168 1.525-.338 2.087-.928.572.195 1.16-.3 1.598-.037.21.135.472.45.252.71-.203.41-.155 1.097.142 1.454.175.236.448.377.62.533m2.107 7.998c.08.218.1.474.232.683-.574.48-.896 1.373-.727 2.264.095.797.432 1.506.716 2.217-.223.043-.374.08-.59.037.163-1.42-1.072-4.667-2.828-5.187-.403-.062-.866.11-1.242.28-.198-.296-.312-.478-.445-.647 0-.066.062-.066.07-.098 1.076-1.22 2.31-2.023 4.318-2.367 0 0 1.075-.26 1.584-.067.413.27-.2.646-.51.92-.51.568-.688 1.15-.58 1.968m4.064-13.448c.118.375-.527.45-.308.875.176.238.223.56.153.846-.073.273-.356.31-.522.125-.154-.21-.4-.46-.706-.502-.192 0-.322.084-.395.22-.147.417.77 1.23 1.045 1.903.237.52.734 1.134.216 1.645.04.572.598 1.19.163 1.66-.456.15-1.276-1.486-1.25-1.943.093-1.104-.907-1.635-1.098-2.648-.14-.912-.247-1.723.128-2.53.094-.187.22-.247.393-.27.282-.044.368.27.642.165.392-.503-.144-1.042.133-1.634.152-.607.657-1.2 1.25-1.363.273-.03.453.17.445.312-.027.543-.635.68-.745 1.184-.222.676.11 1.4.456 1.952m-5.17.256c.314-2.51 1.51-5.295 4.136-6.102.13-.055.33-.11.486-.166 2.173-.61 4.474.025 6.49.86 1.662.573 3.463 1.058 5.233 1.38.24.04.518.098.65.354.07.17.102.482-.036.633-.3.404-.528.262-1.24.092-2.522-.63-5.037-1.413-7.454-2.253-1.5-.506-4.68-.137-5.943 1.697-.317.348-.552.814-.754 1.262-.71 1.936-.957 4.467-.093 6.46.65 1.712 1.555 3.132 2.75 4.538.112.22.14.45-.064.63-.166.108-.26.226-.53.134-.59-.297-1.073-.984-1.44-1.545-1.327-1.92-2.18-4.34-2.245-6.594-.004-.335.022-1.31.053-1.382m6.258-1.94c-.078-.402.05-.645.098-.764.23-.545.812-1.324 1.308-1.227.356.158-.017.64.306.852.46-.022.812-.388 1.31-.24.45.24.96.29 1.46.42.143.08.25.274.17.433-.206.408-.668.53-1.097.545-.506.02-.655-.314-1.023-.29-.992.435-.917 1.845-1.928 2.134-.253.016-.5-.066-.56-.332-.27-.497.187-1.057-.044-1.532m10.89 12.647c-.247.227-.578.307-.83.484-1.6.966-1.806 3.304-1.56 5.103.066.322.1.73.245 1.066-.155.067-.392-.09-.53-.21-.194-.217-.534-.553-.894-.477-.55.117-.64.832-1.128 1.02-.032-.016.036-3.82-.928-5.227-.44-.588-1.202-1.223-2.09-1.178-.307-.72-.762-1.43-1.56-1.652-.66-.217-1.923 0-2.057-.307-.176-.58.413-.622.712-.847 1.31-.744 2.3-1.242 4.603-1.09 1.108.084 2.04.355 3.112.494 1.117.188 1.75.29 3.095.412.268.013.19.036.56.087-.507.728-.932 1.363-.753 2.318m.652-4.317c.073.287.073.287.11.516-1.37-.045-2.728-.275-4.02-.436-1.98-.318-4.173-.967-6.136-.057-.39.13-.786.323-1.17.472-.082-.285-.082-.285-.104-.414 0 0-.222-.928-.274-1.416.237-.52.052-1.238-.16-1.664.317-.594.6-1.188.616-1.926.187-.293.59-.174.874-.307.61-.25 1.078-.785 1.356-1.367.487-.21.974-.088 1.613-.248.526-.148.684-.21.947-.416.288-.178.56-.994 1.193-.77.934.136 2.086.274 3.12.147.202-.034.36-.065.652 0-.1.755-.016 1.48.215 2.138-.28.65-.187 1.375.185 1.95-.305 1.12-.635 2.716.453 3.546.17.07.37.172.53.254m1.133-9.918c.23-.27.306-.297.506-.373.2-.03.34.076.422.227.145.746-.436 1.396-.765 2.098-.07.195.022.365.23.346.226-.02.466-.227.68-.06.203.134.18.208.104.343-.27.642.42 1.34-.094 1.843-.377.613-.777 1.85-.755 1.996.015.144-.02.284.216.38.225 0 .493-.23.702.12.232.694.268 1.544.154 2.323-.094.395-.144.527-.363.61-.358.015-.33-.29-.387-.485-.083-.418.056-.97-.365-1.24-.34-.014-.578.44-.92.107-.344-.486-.083-1.578-.006-1.756.116-.45.498-.728.312-1.16-.24-.26-.225-.67-.225-.964-.037-.354.4-.44.17-.79-.304-.114-.493-1.022-.493-1.15-.013-.666.583-1.916.876-2.416m-.23-6.416c.333-.932.863-1.445 1.762-1.855.277-.126.475-.083.475-.083v2.47s-1.393.18-2.193.24c-.213-.212-.112-.507-.043-.773m3.604 5.17h-.004.01-.006.03-.01.01c1.075.02.802 2.547.802 5.652 0 3.117.332 5.64-.803 5.664h-.03c-1.143-.025-.81-2.547-.81-5.664 0-3.105-.267-5.63.81-5.652m-.006-2.23h.046c1.037 0 2.093.057 3.142.14.25.03.45.24.397.522-.054.195-.213.328-.386.342-1.068-.08-2.095-.023-3.154-.023h-.045c-1.06 0-2.09-.057-3.152.023-.187-.014-.343-.146-.392-.342-.058-.283.142-.492.398-.523 1.04-.083 2.106-.14 3.147-.14m1.398-4.878s.2-.043.482.084c.885.41 1.428.923 1.748 1.854.085.266.172.56-.038.77-.806-.06-2.192-.24-2.192-.24v-2.47zm2.562 12.71c0 .294.015.702-.226.964-.188.433.2.71.315 1.16.064.177.332 1.267-.01 1.753-.348.334-.577-.12-.92-.105-.42.27-.282.82-.372 1.24-.047.195-.02.5-.376.484-.225-.082-.268-.217-.366-.61-.112-.78-.083-1.63.153-2.323.212-.35.478-.122.696-.122.244-.096.203-.234.207-.38.037-.147-.362-1.382-.742-1.995-.52-.506.173-1.2-.09-1.844-.083-.136-.102-.21.104-.343.21-.168.443.037.67.06.213.02.31-.15.234-.347-.33-.7-.904-1.352-.762-2.096.082-.15.223-.256.414-.227.207.076.27.104.508.37.293.503.89 1.753.867 2.417 0 .127-.183 1.035-.484 1.148-.217.354.2.44.18.792m.58 5.564c.155-.082.353-.186.528-.254 1.088-.828.756-2.426.45-3.545.376-.577.458-1.302.183-1.95.24-.656.32-1.383.223-2.137.286-.066.453-.037.647 0 1.037.125 2.193-.014 3.127-.15.632-.223.897.594 1.186.77.264.21.434.27.955.417.637.162 1.113.04 1.604.248.28.582.744 1.117 1.36 1.367.276.135.687.016.875.307.007.738.296 1.334.618 1.926-.223.426-.402 1.145-.162 1.664-.06.49-.27 1.418-.27 1.418-.023.127-.023.127-.107.414-.382-.148-.778-.342-1.177-.47-1.958-.913-4.153-.265-6.144.056-1.283.158-2.64.39-4.006.436.036-.23.036-.23.11-.518m10.135-10.32c.493-.098 1.08.682 1.308 1.227.05.12.166.36.09.764-.223.476.224 1.034-.04 1.53-.06.264-.302.348-.556.33-1.02-.287-.938-1.7-1.93-2.13-.36-.026-.514.31-1.02.288-.44-.016-.888-.14-1.102-.545-.083-.158.03-.355.17-.436.5-.127 1.015-.178 1.464-.418.5-.147.85.218 1.31.24.316-.21-.052-.692.305-.852m-8.655 15.12c-.256-.177-.58-.257-.83-.483.18-.953-.236-1.588-.746-2.312.358-.053.285-.074.545-.088 1.348-.12 1.99-.227 3.105-.414 1.076-.138 2.003-.41 3.112-.49 2.3-.155 3.297.343 4.598 1.09.31.224.89.265.717.845-.136.305-1.4.09-2.062.305-.788.227-1.256.934-1.557 1.652-.883-.045-1.654.592-2.09 1.18-.963 1.404-.895 5.21-.922 5.227-.495-.19-.583-.903-1.127-1.022-.366-.076-.71.26-.893.48-.146.118-.38.276-.546.208.158-.336.19-.746.25-1.068.25-1.804.047-4.142-1.554-5.11m11.873-7.98c.28-.67 1.196-1.485 1.05-1.903-.075-.135-.204-.22-.392-.22-.31.042-.56.294-.7.503-.173.188-.455.148-.53-.125-.075-.283-.016-.607.157-.846.223-.426-.422-.5-.312-.875.347-.55.687-1.275.455-1.953-.108-.505-.712-.642-.743-1.185-.01-.143.18-.344.44-.312.593.164 1.108.756 1.257 1.363.267.592-.26 1.13.138 1.633.267.103.354-.21.636-.165.174.02.303.082.39.268.372.81.272 1.62.126 2.53-.182 1.017-1.188 1.546-1.094 2.65.037.456-.793 2.093-1.254 1.942-.436-.47.123-1.088.168-1.66-.52-.512-.032-1.125.21-1.646m-12.553-6.886c.133-.256.414-.312.647-.354 1.777-.322 3.574-.807 5.238-1.38 2.016-.835 4.31-1.474 6.492-.86.146.055.355.11.482.166 2.614.807 3.817 3.592 4.138 6.102.027.072.053 1.047.046 1.38-.077 2.255-.915 4.675-2.235 6.595-.36.56-.85 1.248-1.44 1.545-.27.092-.368-.025-.537-.133-.197-.18-.182-.41-.07-.63 1.21-1.407 2.102-2.827 2.758-4.538.86-1.994.618-4.525-.09-6.46-.212-.448-.448-.915-.753-1.263-1.272-1.834-4.447-2.203-5.943-1.697-2.42.84-4.932 1.623-7.463 2.252-.692.17-.933.31-1.237-.093-.14-.15-.1-.463-.032-.633m16.253 22.066c-.21.043-.375.006-.586-.037.284-.71.626-1.42.713-2.217.18-.89-.15-1.78-.72-2.264.127-.21.148-.465.218-.682.13-.818-.06-1.4-.57-1.97-.31-.274-.93-.65-.5-.92.5-.194 1.58.067 1.58.067 2.005.344 3.235 1.146 4.314 2.365.007.03.07.03.07.1-.138.17-.25.352-.444.646-.383-.17-.834-.342-1.246-.28-1.758.524-2.988 3.772-2.83 5.192m1.728-11.793c.267-.37.11-.95.018-1.402.174-.156.44-.3.622-.53.292-.358.347-1.046.142-1.454-.218-.26.045-.575.254-.71.437-.264 1.016.232 1.594.037.564.59 1.19 1.096 2.09.928.337.23.7.475.977.686 0 0 .076.062 0 .194-.257.45.156 1.158-.047 1.71-.275.772-.18 1.476.047 2.22-.27.7-.533 1.365-.576 2.113-.06.318.04.45.016.812-.483-.038-1.13.09-1.552.298-.13-.27-.36-.56-.627-.707-.867-.54-1.623-1.1-2.65-1.442-.657-.203-1.027-.188-1.456-.273-.566-.23.688-.766.46-1.46-.41-.604.515-.613.69-1.018m13.476-1.746c.35-.354.575-.85.575-1.388 0-.688-.354-1.28-.88-1.627.19-.318.31-.68.31-1.062 0-.947-.666-1.732-1.56-1.92l.03-.066c.023-.127.036-.26.036-.396 0-1.08-.873-1.954-1.945-1.954-.16 0-.31.023-.45.053l-.006-.03c-.252-.783-.993-1.354-1.863-1.354-.296 0-.576.07-.833.2l-.018-.034c-.35-.52-.945-.855-1.622-.855-.408 0-.78.117-1.094.326l-.033-.02c-.31-.22-.687-.337-1.095-.337-.638 0-1.193.31-1.557.768-.34-.283-.782-.46-1.266-.46-.205 0-.416.034-.606.087-.147-.925-.952-1.634-1.925-1.634-.196 0-.395.03-.567.082l-.023-.016c0-1.078-.87-1.95-1.953-1.95-.555 0-1.062.23-1.418.606l-.007-.03c-.356-.524-.95-.868-1.623-.868-.727 0-1.362.4-1.688.982l-.017.012c-.318-.246-.732-.387-1.168-.387-.768 0-1.414.44-1.748 1.072l-.08-.01c-.124-.026-.26-.036-.38-.036-.7 0-1.307.36-1.657.902-.158-.05-.328-.072-.51-.072-.673 0-1.265.354-1.616.873l-.043-.006c-.305-.194-.678-.313-1.074-.313-.14 0-.275.014-.404.035l-.012-.064c.064-.195.127-.398.173-.605l.01.014c.353-.244.577-.662.577-1.123 0-.428-.188-.8-.492-1.047v.008c-.25-1.81-1.312-3.354-2.806-4.27l.007.035c-.15-.62-.486-.97-1.072-1.148.012-.29 0-1.123 0-1.123l1.31-.017c0 .748.613 1.36 1.37 1.36.67 0 1.24-.5 1.338-1.15h.026c.617-.128 1.095-.68 1.095-1.337 0-.68-.506-1.238-1.15-1.344h.025c-.133-.613-.686-1.082-1.336-1.082-.716 0-1.308.55-1.36 1.256h-1.32v-1.434h.033c.61-.146 1.07-.69 1.07-1.338 0-.666-.473-1.227-1.103-1.34l-.043-.04c-.123-.606-.67-1.075-1.317-1.087h-.03c-.658.012-1.197.48-1.32 1.088l-.047.04c-.63.112-1.104.673-1.104 1.34 0 .645.458 1.19 1.073 1.337h.03v1.434h-1.317c-.065-.705-.646-1.256-1.358-1.256-.662 0-1.205.47-1.337 1.082h.022c-.647.104-1.14.664-1.14 1.344 0 .658.464 1.21 1.088 1.336h.025c.097.652.658 1.152 1.343 1.152.752 0 1.36-.613 1.36-1.36l1.315.015s-.016.83-.006 1.122c-.576.178-.918.53-1.072 1.148l.007-.035c-1.49.914-2.554 2.46-2.796 4.27l-.007-.008c-.3.246-.497.62-.497 1.047 0 .46.23.88.592 1.123v-.014c.044.207.103.41.163.605v.064c-.133-.02-.265-.035-.41-.035-.395 0-.763.12-1.075.314l-.03.007c-.353-.52-.952-.873-1.634-.873-.173 0-.34.02-.51.072-.337-.54-.945-.902-1.635-.902-.135 0-.265.01-.398.037l-.08.01c-.33-.634-.985-1.073-1.746-1.073-.435 0-.843.14-1.17.387l-.013-.012c-.33-.582-.96-.982-1.685-.982-.68 0-1.278.344-1.624.87l-.012.028c-.358-.375-.86-.605-1.415-.605-1.08 0-1.953.87-1.953 1.95l-.02.015c-.183-.05-.365-.082-.565-.082-.982 0-1.78.71-1.937 1.635-.187-.052-.39-.085-.6-.085-.485 0-.928.176-1.265.46-.36-.46-.93-.77-1.56-.77-.408 0-.774.118-1.09.337l-.033.02c-.31-.208-.69-.325-1.1-.325-.67 0-1.262.334-1.614.855l-.013.033c-.258-.13-.542-.2-.844-.2-.862 0-1.597.57-1.86 1.355l-.004.03c-.144-.03-.293-.054-.45-.054-1.08 0-1.95.875-1.95 1.955 0 .14.007.272.04.397l.03.066c-.893.188-1.56.973-1.56 1.92 0 .383.114.744.317 1.062h-.005c-.536.348-.885.94-.885 1.627 0 .54.217 1.03.573 1.39l-.012.005c-.245.285-.387.645-.387 1.04 0 .628.36 1.163.885 1.42l.008.005c-.08.193-.138.41-.138.64 0 .692.46 1.288 1.085 1.505l.007-.014c-.08.193-.13.418-.13.643 0 .672.418 1.24 1.016 1.47-.02.112-.03.228-.03.335 0 .743.508 1.368 1.194 1.532l.053.09c-.104.203-.163.424-.163.658 0 .785.64 1.418 1.412 1.418.322 0 .613-.104.85-.283l.014.037c.947.562 1.546 1.562 2.053 2.514v.094c-.134.238-.214.514-.214.807 0 .875.706 1.582 1.58 1.582.075 0 .136-.01.205-.013 0 0 1.765 2.314 2.738 3.328h-.01c-.296.262-.482.645-.482 1.066 0 .73.555 1.345 1.26 1.42l.204 1.144c-.292.477-.463 1.025-.476 1.615-.02 1.267.702 2.42 1.75 2.946l.033 1.396s-.627.32-.83.65c-.132.217-.215.477-.224.748-.007.582.323 1.088.803 1.344 0 0 .62.47 2.244.695 5.304.698 10.57.983 16.1 1.17 1.44.022 2.9.036 4.364.036h.045c1.462 0 2.92-.014 4.356-.037 5.522-.187 10.79-.472 16.102-1.17 1.62-.228 2.242-.696 2.242-.696.48-.256.807-.762.793-1.344 0-.27-.075-.53-.21-.748-.198-.33-.834-.65-.834-.65l.027-1.396c1.057-.527 1.77-1.682 1.742-2.947-.01-.59-.173-1.14-.465-1.616l.198-1.143c.712-.075 1.256-.687 1.256-1.42 0-.423-.183-.806-.48-1.065h-.008c.974-1.014 2.74-3.328 2.74-3.328.068.004.135.012.205.012.87 0 1.575-.708 1.575-1.583 0-.293-.08-.568-.22-.807v-.094c.52-.95 1.105-1.95 2.062-2.514l.014-.037c.232.182.533.283.844.283.783 0 1.416-.633 1.416-1.418 0-.234-.057-.455-.163-.658l.055-.09c.68-.164 1.202-.79 1.202-1.53 0-.108-.014-.224-.045-.337.6-.23 1.023-.797 1.023-1.47 0-.224-.054-.448-.134-.642l.01.014c.634-.217 1.08-.812 1.08-1.506 0-.228-.044-.444-.136-.638l.008-.006c.532-.256.893-.79.893-1.42 0-.395-.144-.754-.392-1.04l-.012-.005z"/><path d="M181.655 463.12c.687 0 .95.286.73.517-.522.328-1.448 1.008-1.448 1.008h-.46c-1.012 0-1.364 0-1.364.39-.013.308 0 .065 0 .51-.403.278-1.486 1.134-1.486 1.134v-2.888s.188-.67.792-.67h3.235M182.542 466.677h-2.567l2.567-1.787zM180.374 454.472c-1.185-.027-1.343-.27-1.343-1.268 0-1.05.16-1.248 1.344-1.287h.056c1.184.05 1.342.268 1.342 1.287 0 1.04-.158 1.238-1.342 1.268h-.056zM196.01 455.04c-.845-.284-.915-.48-.697-1.216.22-.75.376-.86 1.243-.645l.035.024c.854.268.92.475.704 1.207-.23.75-.38.866-1.238.636l-.047-.007zM164.957 455.04c.843-.284.91-.48.69-1.216-.22-.75-.38-.86-1.238-.645l-.044.024c-.85.268-.914.475-.696 1.207.227.75.373.866 1.237.636l.05-.007zM145.498 4.56h-6.673V0h18.5v4.56h-6.674v18.83H145.5zM169.185 0h5.153v8.722h10.01V0h5.153v23.39h-5.152V13.28h-10.01v10.11h-5.153zM203.707 0h15.89v4.757H208.86V9.12h10.143v4.756H208.86v4.757h11.33v4.757h-16.483zM148.967 48.465h4.262l10.174 23.39h-5.815l-2.016-4.955h-9.085l-1.95 4.955h-5.682l10.11-23.39zm1.982 6.806l-2.842 7.27h5.715l-2.874-7.27zM175 48.465h9.05c4.79 0 8.822 1.652 8.822 7.104 0 3.27-1.752 5.813-5.055 6.407l5.946 9.878h-6.18l-4.89-9.35h-2.543v9.35H175v-23.39zm5.153 9.68h3.04c1.883 0 4.327-.066 4.327-2.61 0-2.345-2.114-2.708-3.997-2.708h-3.37v5.318zM209.59 53.025h-6.674v-4.56h18.5v4.56h-6.672v18.83h-5.155zM80.58 96.93h8.69c4.856 0 8.886 1.553 8.886 7.102 0 5.485-3.734 7.17-8.656 7.17h-3.766v9.117H80.58V96.93zm5.154 9.91h3.436c1.817 0 3.634-.627 3.634-2.808 0-2.41-2.445-2.742-4.427-2.742h-2.643v5.55zM110.643 96.93h9.052c4.79 0 8.82 1.652 8.82 7.103 0 3.27-1.75 5.814-5.053 6.41l5.946 9.876h-6.177l-4.89-9.35h-2.543v9.35h-5.154V96.93zm5.154 9.68h3.04c1.883 0 4.327-.066 4.327-2.61 0-2.345-2.114-2.71-3.997-2.71h-3.37v5.32zM152.666 96.335c7.3 0 12.62 4.79 12.62 12.29s-5.32 12.29-12.62 12.29-12.62-4.79-12.62-12.29 5.318-12.29 12.62-12.29m0 19.822c4.394 0 7.268-3.17 7.268-7.532s-2.874-7.533-7.268-7.533-7.268 3.172-7.268 7.533 2.873 7.532 7.268 7.532M190.128 112.49c0 4.328-1.123 8.424-7.467 8.424-3.7 0-6.408-1.717-7.166-5.45l4.724-1.157c.132 1.123 1.188 2.05 2.312 2.05 2.41 0 2.444-2.678 2.444-4.428v-15h5.154v15.56zM203.97 96.93h15.89v4.757h-10.735v4.36h10.142v4.758h-10.142v4.757h11.332v4.757H203.97zM249.13 103.008c-1.02-1.222-2.51-1.916-4.426-1.916-3.897 0-6.77 3.17-6.77 7.533 0 4.36 2.873 7.532 6.604 7.532 2.082 0 3.768-.925 4.823-2.51l4.297 3.203c-1.95 2.776-5.254 4.064-8.457 4.064-7.302 0-12.62-4.79-12.62-12.29s5.318-12.29 12.62-12.29c2.61 0 5.912.893 7.896 3.437l-3.966 3.238zM270.208 101.49h-6.67v-4.56h18.5v4.56h-6.676v18.83h-5.154zM157.578 198.845h45.38v2.01h-45.38z"/></g></symbol></svg>