<?xml version="1.0" encoding="utf-8"?>
<!-- Generator: Adobe Illustrator 15.0.2, SVG Export Plug-In . SVG Version: 6.00 Build 0)  -->
<!DOCTYPE svg PUBLIC "-//W3C//DTD SVG 1.1//EN" "http://www.w3.org/Graphics/SVG/1.1/DTD/svg11.dtd">
<svg version="1.1" id="Layer_1" xmlns="http://www.w3.org/2000/svg" xmlns:xlink="http://www.w3.org/1999/xlink" x="0px" y="0px"
	 width="20px" height="24.143px" viewBox="0 0 20 24.143" enable-background="new 0 0 20 24.143" xml:space="preserve">
<path d="M10,4.035c-1.593,0-3.091,0.621-4.218,1.747c-2.325,2.326-2.325,6.11,0,8.436c1.127,1.126,2.625,1.747,4.218,1.747
	s3.091-0.621,4.218-1.747c2.325-2.325,2.325-6.109,0-8.436C13.091,4.656,11.593,4.035,10,4.035"/>
<path d="M17.07,2.929c-3.904-3.905-10.236-3.905-14.142,0c-3.905,3.904-3.905,10.236,0,14.142L10,24.142l7.07-7.071
	C20.977,13.166,20.977,6.834,17.07,2.929 M14.925,14.924c-1.315,1.315-3.063,2.04-4.925,2.04c-1.861,0-3.609-0.725-4.925-2.04
	c-2.715-2.715-2.715-7.133,0-9.85C6.391,3.76,8.14,3.035,10,3.035c1.859,0,3.609,0.725,4.925,2.04
	C17.641,7.791,17.641,12.209,14.925,14.924"/>
</svg>
