<?xml version="1.0" encoding="utf-8"?>
<!-- Generator: Adobe Illustrator 15.0.2, SVG Export Plug-In . SVG Version: 6.00 Build 0)  -->
<!DOCTYPE svg PUBLIC "-//W3C//DTD SVG 1.1//EN" "http://www.w3.org/Graphics/SVG/1.1/DTD/svg11.dtd">
<svg version="1.1" id="Layer_1" xmlns="http://www.w3.org/2000/svg" xmlns:xlink="http://www.w3.org/1999/xlink" x="0px" y="0px"
	 width="64px" height="64px" viewBox="0 0 64 64" enable-background="new 0 0 64 64" xml:space="preserve">
<path id="crown" fill="currentColor" d="M59.232,20.249c0.279-0.281,0.393-0.617,0.393-1.01c0-0.505-0.279-0.953-0.617-1.178l0,0
	c0.168-0.225,0.225-0.506,0.225-0.785c0-0.674-0.504-1.291-1.121-1.402v-0.057c0-0.112,0.057-0.168,0.057-0.28
	c0-0.785-0.617-1.402-1.402-1.402c-0.111,0-0.225,0-0.336,0.056l0,0c-0.169-0.561-0.729-1.01-1.347-1.01
	c-0.226,0-0.449,0.057-0.617,0.113l0,0c-0.28-0.393-0.674-0.617-1.178-0.617c-0.281,0-0.562,0.111-0.786,0.225h-0.057
	c-0.225-0.169-0.504-0.225-0.784-0.225c-0.449,0-0.897,0.225-1.122,0.561c-0.225-0.225-0.561-0.336-0.953-0.336
	c-0.169,0-0.281,0-0.449,0.056c-0.111-0.673-0.673-1.179-1.402-1.179c-0.168,0-0.279,0-0.393,0.057l0,0
	c0-0.785-0.617-1.402-1.458-1.402c-0.393,0-0.784,0.168-1.01,0.449l0,0c-0.28-0.393-0.673-0.617-1.179-0.617
	c-0.504,0-1.01,0.28-1.233,0.729l0,0c-0.226-0.168-0.505-0.279-0.841-0.279c-0.562,0-1.01,0.336-1.29,0.785h-0.058
	c-0.111,0-0.168-0.057-0.279-0.057c-0.506,0-0.954,0.28-1.234,0.673c-0.111-0.056-0.224-0.056-0.393-0.056
	c-0.506,0-0.953,0.28-1.178,0.617h-0.057c-0.337-0.281-0.617-0.337-0.896-0.337c-0.112,0-0.226,0-0.281,0.056V12.34
	c0.057-0.169,0.111-0.28,0.111-0.448l0,0c0.281-0.169,0.449-0.506,0.449-0.842s-0.168-0.561-0.393-0.785l0,0
	c-0.169-1.29-0.954-2.412-2.02-3.085l0,0c-0.112-0.448-0.338-0.729-0.785-0.842c0-0.224,0-0.841,0-0.841h0.953
	c0,0.561,0.449,1.01,1.01,1.01c0.505,0,0.896-0.393,1.01-0.842l0,0c0.447-0.112,0.785-0.505,0.785-0.953
	c0-0.506-0.338-0.898-0.842-1.01l0,0c-0.111-0.449-0.504-0.785-0.953-0.785c-0.506,0-0.953,0.393-1.01,0.896h-0.953V2.748l0,0
	c0.447-0.112,0.785-0.505,0.785-0.953c0-0.505-0.338-0.897-0.785-0.954h-0.058C33.148,0.337,32.757,0,32.309,0l0,0
	c-0.505,0-0.897,0.337-0.954,0.785h-0.056c-0.448,0.112-0.785,0.505-0.785,0.954c0,0.504,0.337,0.896,0.785,0.953l0,0v1.065h-0.953
	c-0.057-0.505-0.449-0.897-1.01-0.897c-0.505,0-0.897,0.336-0.954,0.785l0,0c-0.505,0.112-0.841,0.561-0.841,1.066
	c0,0.504,0.336,0.896,0.785,0.953l0,0c0.056,0.449,0.505,0.842,1.01,0.842c0.561,0,1.01-0.449,1.01-1.01h0.953c0,0,0,0.617,0,0.841
	c-0.393,0.112-0.673,0.394-0.785,0.842l0,0c-1.065,0.673-1.852,1.795-2.075,3.141l0,0c-0.225,0.169-0.337,0.448-0.337,0.786
	c0,0.336,0.168,0.616,0.449,0.841l0,0c0.056,0.168,0.056,0.28,0.111,0.448v0.057c-0.111,0-0.224-0.057-0.28-0.057
	c-0.28,0-0.561,0.113-0.785,0.225h-0.056c-0.28-0.393-0.674-0.617-1.178-0.617c-0.112,0-0.225,0-0.394,0.057
	c-0.224-0.393-0.673-0.674-1.178-0.674c-0.112,0-0.168,0-0.28,0.057h-0.056c-0.225-0.449-0.729-0.785-1.29-0.785
	c-0.337,0-0.617,0.111-0.842,0.28l0,0c-0.225-0.448-0.729-0.729-1.234-0.729s-0.953,0.225-1.178,0.617l0,0
	c-0.28-0.28-0.617-0.449-1.01-0.449c-0.785,0-1.402,0.617-1.402,1.402l0,0c-0.111-0.056-0.28-0.056-0.393-0.056
	c-0.729,0-1.29,0.505-1.402,1.179c-0.111-0.057-0.28-0.057-0.448-0.057c-0.337,0-0.673,0.112-0.954,0.336
	c-0.28-0.336-0.673-0.561-1.121-0.561c-0.28,0-0.562,0.112-0.785,0.225l0,0c-0.225-0.168-0.505-0.225-0.786-0.225
	c-0.504,0-0.953,0.225-1.178,0.617l0,0c-0.168-0.112-0.393-0.112-0.617-0.112c-0.616,0-1.178,0.393-1.346,1.01l0,0
	c-0.112,0-0.225-0.056-0.337-0.056c-0.785,0-1.402,0.617-1.402,1.402c0,0.111,0,0.168,0.057,0.279v0.057
	c-0.673,0.112-1.122,0.729-1.122,1.402c0,0.28,0.057,0.561,0.225,0.785l0,0c-0.393,0.281-0.673,0.674-0.673,1.178
	c0,0.393,0.168,0.729,0.393,1.01l0,0c-0.169,0.225-0.281,0.449-0.281,0.785c0,0.449,0.281,0.842,0.674,1.066l0,0
	c-0.057,0.168-0.112,0.28-0.112,0.448c0,0.505,0.336,0.954,0.785,1.122l0,0c-0.056,0.168-0.112,0.28-0.112,0.449
	c0,0.504,0.337,0.896,0.729,1.064c0,0.057,0,0.169,0,0.225c0,0.562,0.393,1.01,0.897,1.122l0.056,0.056
	c-0.336,0.225-0.393,0.393-0.393,0.562c0,0.562,0.449,1.01,1.01,1.01c0.225,0,0.449-0.056,0.617-0.225l0,0
	c0.673,0.393,1.122,1.122,1.515,1.851v0.057c-0.112,0.168-0.169,0.393-0.169,0.617c0,0.617,0.505,1.178,1.179,1.178
	c0.056,0,0.111,0,0.168,0c0,0,1.29,1.683,2.02,2.468l0,0c-0.225,0.169-0.337,0.448-0.337,0.786c0,0.562,0.393,0.953,0.897,1.063
	l0.168,0.842c-0.224,0.338-0.336,0.729-0.336,1.179c0,0.954,0.505,1.739,1.29,2.132c0,0,0,0,0,1.01c0,0-0.449,0.225-0.617,0.448
	c-0.112,0.168-0.168,0.337-0.168,0.562c0,0.449,0.224,0.785,0.561,0.953c0,0,0.448,0.338,1.627,0.506
	c3.87,0.505,7.74,0.729,11.778,0.842c1.066,0,2.132,0.056,3.197,0.056h0.057c1.065,0,2.131,0,3.197-0.056
	c4.038-0.112,7.908-0.337,11.779-0.842c1.178-0.168,1.626-0.506,1.626-0.506c0.337-0.168,0.562-0.561,0.562-0.953
	c0-0.225-0.058-0.394-0.17-0.562c-0.168-0.225-0.615-0.448-0.615-0.448c0-1.01,0-1.01,0-1.01c0.785-0.393,1.289-1.232,1.289-2.132
	c0-0.448-0.111-0.841-0.336-1.179l0.168-0.842c0.504-0.056,0.896-0.504,0.896-1.063c0-0.338-0.111-0.617-0.336-0.786l0,0
	c0.729-0.729,2.02-2.468,2.02-2.468c0.057,0,0.111,0,0.168,0c0.617,0,1.178-0.505,1.178-1.178c0-0.225-0.057-0.393-0.168-0.617
	v-0.057c0.394-0.672,0.785-1.402,1.515-1.851l0,0c0.169,0.112,0.394,0.225,0.617,0.225c0.562,0,1.01-0.448,1.01-1.01
	c0-0.169-0.056-0.337-0.112-0.505l0.057-0.057c0.506-0.111,0.897-0.561,0.897-1.121c0-0.057,0-0.168,0-0.225
	c0.448-0.168,0.729-0.617,0.729-1.065c0-0.169-0.057-0.337-0.112-0.448l0,0c0.449-0.169,0.786-0.562,0.786-1.123
	c0-0.168-0.057-0.336-0.112-0.448l0,0c0.394-0.168,0.673-0.562,0.673-1.065C59.514,20.753,59.4,20.474,59.232,20.249L59.232,20.249
	L59.232,20.249z M49.359,21.538c0.168-0.279,0.057-0.672,0-1.009c0.113-0.112,0.338-0.225,0.449-0.393
	c0.225-0.28,0.28-0.786,0.111-1.065c-0.168-0.169,0.057-0.393,0.169-0.506c0.336-0.168,0.729,0.169,1.179,0
	c0.393,0.449,0.896,0.785,1.515,0.674c0.224,0.168,0.505,0.336,0.729,0.505c0,0,0.057,0.056,0,0.168
	c-0.169,0.337,0.111,0.841-0.057,1.233c-0.225,0.562-0.112,1.066,0.057,1.627c-0.225,0.506-0.394,1.01-0.394,1.57
	c-0.056,0.225,0,0.337,0,0.617c-0.336-0.056-0.841,0.057-1.122,0.225c-0.111-0.225-0.28-0.393-0.448-0.505
	c-0.616-0.393-1.178-0.785-1.963-1.065c-0.505-0.168-0.729-0.112-1.065-0.225c-0.394-0.168,0.504-0.561,0.336-1.065
	C48.52,21.876,49.191,21.876,49.359,21.538L49.359,21.538z M48.07,30.177c-0.168,0.057-0.28,0-0.449,0
	c0.225-0.505,0.449-1.065,0.505-1.627c0.112-0.673-0.112-1.289-0.505-1.682c0.111-0.169,0.111-0.338,0.169-0.506
	c0.112-0.617-0.058-1.01-0.449-1.458c-0.225-0.225-0.673-0.505-0.393-0.673c0.393-0.112,1.178,0.056,1.178,0.056
	c1.459,0.225,2.356,0.841,3.142,1.739c0,0.056,0.057,0,0.057,0.056c-0.112,0.112-0.168,0.28-0.336,0.448
	c-0.281-0.111-0.617-0.279-0.897-0.224C48.855,26.755,47.958,29.167,48.07,30.177L48.07,30.177z M36.18,14.022
	c0.111-0.168,0.279-0.225,0.448-0.28c1.29-0.225,2.636-0.617,3.813-1.01c1.459-0.616,3.142-1.065,4.769-0.616
	c0.11,0.055,0.28,0.055,0.336,0.111c1.907,0.617,2.806,2.637,3.029,4.487c0,0.056,0.056,0.785,0.056,1.01
	c-0.056,1.626-0.673,3.421-1.626,4.823c-0.28,0.393-0.616,0.898-1.065,1.123c-0.226,0.056-0.28,0-0.394-0.113
	c-0.168-0.111-0.112-0.279-0.056-0.448c0.896-1.01,1.515-2.075,2.019-3.31c0.617-1.458,0.449-3.309-0.056-4.711
	c-0.168-0.337-0.337-0.674-0.561-0.954c-0.955-1.347-3.254-1.626-4.375-1.233c-1.795,0.616-3.591,1.178-5.441,1.626
	c-0.506,0.112-0.674,0.225-0.896-0.056C36.123,14.415,36.123,14.19,36.18,14.022L36.18,14.022z M45.378,19.071
	c0.226-0.506,0.897-1.066,0.785-1.402c-0.056-0.113-0.168-0.169-0.28-0.169c-0.225,0.056-0.393,0.225-0.505,0.394
	c-0.112,0.111-0.337,0.111-0.394-0.113c-0.057-0.225,0-0.448,0.113-0.617c0.168-0.336-0.281-0.393-0.226-0.616
	c0.28-0.393,0.505-0.954,0.337-1.402c-0.057-0.393-0.505-0.448-0.562-0.841c0-0.113,0.112-0.225,0.338-0.225
	c0.447,0.111,0.785,0.561,0.896,1.01c0.225,0.448-0.168,0.841,0.112,1.178c0.224,0.056,0.28-0.168,0.448-0.112
	c0.111,0,0.225,0.056,0.279,0.224c0.281,0.617,0.225,1.178,0.112,1.852c-0.112,0.729-0.841,1.121-0.785,1.963
	c0,0.337-0.562,1.515-0.897,1.402c-0.336-0.336,0.113-0.785,0.113-1.234C44.816,19.912,45.21,19.464,45.378,19.071L45.378,19.071z
	 M36.684,24.904c-0.168-0.112-0.447-0.169-0.617-0.337c0.113-0.673-0.168-1.178-0.561-1.683c0.28-0.056,0.225-0.056,0.393-0.056
	c1.011-0.112,1.459-0.168,2.244-0.281c0.785-0.111,1.459-0.279,2.299-0.336c1.685-0.112,2.412,0.225,3.367,0.785
	c0.224,0.168,0.672,0.168,0.504,0.617c-0.111,0.225-1.01,0.057-1.515,0.225c-0.562,0.168-0.897,0.673-1.122,1.234
	c-0.673-0.057-1.234,0.448-1.515,0.841c-0.729,1.009-0.673,3.813-0.673,3.813c-0.338-0.111-0.449-0.672-0.842-0.729
	c-0.28-0.057-0.506,0.168-0.674,0.336c-0.111,0.113-0.279,0.225-0.393,0.169c0.111-0.225,0.111-0.562,0.168-0.786
	C38.029,27.316,37.861,25.634,36.684,24.904L36.684,24.904z M43.021,13.854c0.336-0.057,0.785,0.504,0.953,0.897
	c0.057,0.056,0.112,0.28,0.057,0.561c-0.168,0.337,0.169,0.786,0,1.122c-0.057,0.168-0.225,0.28-0.393,0.225
	c-0.729-0.225-0.674-1.234-1.402-1.57c-0.28,0-0.394,0.224-0.729,0.224c-0.337,0-0.674-0.112-0.784-0.393
	c-0.058-0.112,0-0.28,0.11-0.337c0.394-0.111,0.729-0.111,1.065-0.336c0.336-0.112,0.617,0.168,0.953,0.168
	C43.021,14.304,42.741,13.966,43.021,13.854L43.021,13.854z M35.618,21.427c0.112-0.057,0.28-0.112,0.394-0.168
	c0.784-0.617,0.561-1.795,0.336-2.58c0.28-0.393,0.336-0.954,0.111-1.402c0.169-0.506,0.225-1.01,0.169-1.571
	c0.224-0.056,0.336-0.056,0.448,0c0.785,0.112,1.627,0,2.3-0.112c0.449-0.168,0.673,0.449,0.842,0.562
	c0.169,0.168,0.337,0.224,0.673,0.28c0.448,0.112,0.842,0.057,1.178,0.168c0.226,0.449,0.562,0.842,1.011,1.01
	c0.226,0.112,0.505,0,0.616,0.225c0,0.561,0.226,0.953,0.449,1.402c-0.168,0.28-0.281,0.842-0.112,1.234
	c-0.056,0.336-0.224,1.01-0.224,1.01c0,0.111,0,0.111-0.058,0.279c-0.28-0.111-0.562-0.225-0.841-0.336
	c-1.402-0.674-3.029-0.168-4.487,0.057c-0.954,0.111-1.964,0.279-2.917,0.336C35.562,21.595,35.562,21.595,35.618,21.427
	L35.618,21.427z M35.169,17.332c0,0.224,0,0.505-0.168,0.729c-0.112,0.336,0.168,0.504,0.226,0.841c0.056,0.112,0.224,0.954,0,1.29
	c-0.281,0.225-0.449-0.056-0.675-0.056c-0.336,0.168-0.224,0.616-0.28,0.897c-0.056,0.111,0,0.336-0.279,0.336
	c-0.168-0.056-0.168-0.168-0.28-0.448c-0.058-0.562-0.058-1.179,0.112-1.683c0.168-0.281,0.336-0.112,0.505-0.112
	c0.168-0.056,0.168-0.169,0.168-0.28c0-0.112-0.28-1.01-0.562-1.459c-0.393-0.393,0.112-0.896-0.057-1.346
	c-0.056-0.112-0.056-0.168,0.057-0.225c0.168-0.112,0.336,0,0.506,0.057c0.168,0,0.224-0.113,0.168-0.281
	c-0.226-0.504-0.674-1.01-0.562-1.514c0.056-0.113,0.168-0.169,0.28-0.169c0.168,0.056,0.224,0.056,0.393,0.28
	c0.225,0.337,0.674,1.291,0.617,1.739c0,0.112-0.111,0.785-0.337,0.841C34.889,16.995,35.169,17.052,35.169,17.332L35.169,17.332z
	 M33.318,8.021c0,0,0.168-0.056,0.336,0.057c0.674,0.28,1.066,0.673,1.291,1.346c0.056,0.168,0.111,0.393-0.057,0.561
	c-0.562-0.056-1.627-0.168-1.627-0.168L33.318,8.021L33.318,8.021z M32.253,11.61L32.253,11.61c0.785,0,1.57,0.057,2.354,0.112
	c0.168,0,0.338,0.169,0.281,0.394c-0.057,0.111-0.168,0.224-0.281,0.224c-0.784-0.056-1.515,0-2.299,0h-0.056
	c-0.786,0-1.515-0.056-2.3,0c-0.112,0-0.225-0.112-0.281-0.224c-0.056-0.225,0.112-0.338,0.281-0.394
	C30.738,11.667,31.523,11.61,32.253,11.61L32.253,11.61z M32.253,13.237L32.253,13.237L32.253,13.237
	C32.309,13.237,32.309,13.237,32.253,13.237L32.253,13.237C32.309,13.237,32.309,13.237,32.253,13.237L32.253,13.237
	C32.309,13.237,32.309,13.237,32.253,13.237c0.785,0,0.616,1.852,0.616,4.15c0,2.301,0.225,4.15-0.616,4.15l0,0
	c-0.842,0-0.617-1.85-0.617-4.15C31.691,15.089,31.467,13.237,32.253,13.237L32.253,13.237z M29.672,9.423
	c0.225-0.673,0.617-1.065,1.29-1.346c0.225-0.112,0.337-0.057,0.337-0.057v1.795c0,0-1.01,0.112-1.627,0.168
	C29.504,9.872,29.561,9.647,29.672,9.423L29.672,9.423z M29.784,14.135c0.169-0.225,0.225-0.225,0.393-0.28
	c0.169,0,0.225,0.056,0.281,0.168c0.111,0.561-0.337,1.01-0.562,1.515c-0.056,0.168,0,0.28,0.168,0.28
	c0.169,0,0.337-0.168,0.505-0.057c0.169,0.113,0.112,0.169,0.057,0.225c-0.225,0.449,0.336,0.954-0.057,1.347
	c-0.28,0.448-0.561,1.347-0.561,1.458c0,0.112,0,0.225,0.168,0.281c0.169,0,0.337-0.169,0.505,0.111
	c0.169,0.506,0.169,1.122,0.112,1.684c-0.056,0.279-0.112,0.393-0.28,0.448c-0.28,0-0.225-0.225-0.28-0.337
	c-0.057-0.336,0.056-0.729-0.28-0.896c-0.225,0-0.393,0.336-0.674,0.056c-0.28-0.337-0.056-1.122,0-1.29
	c0.112-0.337,0.393-0.505,0.225-0.842c-0.168-0.168-0.168-0.505-0.168-0.729c0-0.281,0.28-0.337,0.112-0.562
	c-0.225-0.056-0.337-0.729-0.337-0.841C29.167,15.425,29.616,14.527,29.784,14.135L29.784,14.135z M28.999,21.427
	c0.057,0.225,0.057,0.225,0.057,0.393c-1.01-0.057-2.02-0.225-2.917-0.336c-1.459-0.225-3.085-0.73-4.487-0.057
	c-0.28,0.111-0.561,0.225-0.842,0.336c-0.056-0.225-0.056-0.225-0.056-0.279c0,0-0.168-0.674-0.225-1.01
	c0.168-0.393,0.057-0.898-0.112-1.234c0.225-0.449,0.449-0.897,0.449-1.402c0.112-0.225,0.448-0.112,0.617-0.225
	c0.448-0.168,0.785-0.561,1.009-1.01c0.337-0.168,0.729-0.056,1.179-0.168c0.393-0.112,0.505-0.168,0.673-0.28
	c0.225-0.112,0.393-0.729,0.897-0.562c0.673,0.113,1.515,0.225,2.3,0.113c0.168-0.057,0.28-0.057,0.505,0
	c-0.057,0.561,0,1.064,0.168,1.57c-0.225,0.448-0.112,1.01,0.112,1.402c-0.225,0.841-0.449,2.019,0.337,2.58
	C28.719,21.259,28.831,21.37,28.999,21.427L28.999,21.427z M28.494,24.567c-0.168,0.168-0.448,0.225-0.617,0.337
	c-1.178,0.729-1.346,2.412-1.121,3.759c0.056,0.224,0.056,0.561,0.168,0.785c-0.112,0.056-0.28-0.057-0.393-0.169
	c-0.112-0.168-0.393-0.393-0.673-0.337c-0.393,0.113-0.449,0.617-0.842,0.729c0,0,0-2.804-0.673-3.813
	c-0.337-0.449-0.897-0.898-1.515-0.842c-0.225-0.505-0.561-1.066-1.122-1.234c-0.505-0.168-1.402,0-1.515-0.225
	c-0.111-0.448,0.281-0.448,0.505-0.617c0.954-0.561,1.684-0.896,3.366-0.785c0.785,0.057,1.514,0.281,2.3,0.337
	c0.841,0.112,1.29,0.225,2.243,0.28c0.168,0,0.112,0,0.393,0.057C28.663,23.39,28.382,23.895,28.494,24.567L28.494,24.567z
	 M20.529,15.312c-0.056-0.28,0.057-0.448,0.057-0.561c0.168-0.394,0.616-0.954,0.953-0.897c0.28,0.111,0,0.449,0.225,0.617
	c0.336,0,0.617-0.281,0.953-0.168c0.337,0.168,0.729,0.224,1.066,0.336c0.111,0.057,0.168,0.225,0.111,0.336
	c-0.168,0.281-0.505,0.393-0.785,0.393c-0.393,0-0.505-0.224-0.729-0.224c-0.729,0.337-0.674,1.347-1.402,1.57
	c-0.169,0-0.337-0.056-0.393-0.224C20.361,16.042,20.697,15.649,20.529,15.312L20.529,15.312z M15.93,16.715
	c0.225-1.851,1.122-3.87,3.029-4.487c0.112-0.057,0.225-0.057,0.337-0.112c1.57-0.448,3.253,0,4.768,0.617
	c1.233,0.448,2.523,0.785,3.813,1.01c0.169,0.056,0.393,0.056,0.449,0.28c0.056,0.112,0.056,0.336,0,0.449
	c-0.225,0.28-0.393,0.168-0.897,0.056c-1.852-0.448-3.702-1.01-5.441-1.626c-1.121-0.393-3.421-0.113-4.375,1.233
	c-0.224,0.28-0.393,0.617-0.561,0.954c-0.505,1.402-0.673,3.253-0.056,4.711c0.448,1.234,1.121,2.3,2.019,3.31
	c0.057,0.169,0.112,0.337-0.056,0.448c-0.112,0.057-0.168,0.169-0.393,0.113c-0.449-0.225-0.785-0.73-1.066-1.123
	c-0.953-1.402-1.57-3.197-1.626-4.823C15.93,17.5,15.93,16.771,15.93,16.715L15.93,16.715z M19.744,16.547
	c0.056,0.28-0.393,0.337-0.225,0.616c0.112,0.169,0.169,0.393,0.112,0.617c-0.056,0.225-0.28,0.225-0.393,0.113
	c-0.112-0.169-0.28-0.338-0.505-0.394c-0.112,0-0.225,0.056-0.28,0.169c-0.112,0.28,0.561,0.896,0.785,1.402
	c0.168,0.393,0.561,0.841,0.168,1.233c0.057,0.393,0.449,0.841,0.112,1.234c-0.393,0.056-0.953-1.122-0.953-1.458
	c0.056-0.786-0.673-1.179-0.785-1.964c-0.112-0.673-0.169-1.233,0.112-1.851c0.056-0.112,0.168-0.168,0.28-0.225
	c0.225,0,0.28,0.225,0.448,0.112c0.28-0.394-0.112-0.786,0.112-1.179c0.112-0.448,0.505-0.896,0.897-1.01
	c0.225,0,0.337,0.113,0.337,0.225c0,0.393-0.449,0.506-0.562,0.842C19.239,15.593,19.464,16.154,19.744,16.547L19.744,16.547z
	 M16.771,26.362c0.056,0.168,0.056,0.337,0.168,0.506c-0.393,0.336-0.673,1.009-0.505,1.682c0.057,0.562,0.337,1.122,0.505,1.627
	c-0.168,0.057-0.28,0.057-0.448,0c0.112-1.065-0.785-3.422-2.076-3.814c-0.28-0.056-0.616,0.057-0.897,0.225
	c-0.168-0.225-0.224-0.336-0.336-0.449c0-0.056,0.056-0.056,0.056-0.056c0.785-0.897,1.683-1.458,3.142-1.739
	c0,0,0.785-0.168,1.178-0.056c0.337,0.225-0.168,0.448-0.393,0.673C16.827,25.353,16.659,25.802,16.771,26.362L16.771,26.362z
	 M15.201,20.529c-0.057,0.337-0.169,0.729,0,1.009c0.111,0.281,0.785,0.281,0.505,0.73c-0.169,0.504,0.729,0.896,0.336,1.064
	c-0.336,0.057-0.561,0.057-1.065,0.225c-0.729,0.281-1.29,0.674-1.963,1.066c-0.169,0.111-0.394,0.336-0.449,0.504
	c-0.28-0.168-0.785-0.224-1.122-0.224c0-0.28,0.057-0.393,0-0.617c-0.056-0.561-0.224-1.01-0.448-1.57
	c0.168-0.562,0.225-1.065,0.056-1.627c-0.168-0.393,0.169-0.897-0.056-1.233c-0.057-0.113,0-0.168,0-0.168
	c0.225-0.169,0.448-0.338,0.729-0.506c0.674,0.112,1.122-0.225,1.515-0.673c0.449,0.112,0.842-0.224,1.178,0
	c0.169,0.112,0.337,0.337,0.169,0.505c-0.169,0.28-0.112,0.785,0.112,1.066C14.92,20.305,15.089,20.417,15.201,20.529L15.201,20.529
	z M9.424,25.914c-0.281,0.112-0.562-0.169-0.674-0.337c-0.561-0.842-1.065-1.627-1.346-2.58c-0.673-1.795-1.01-4.039-0.112-5.834
	c0.28-0.672,0.841-1.233,1.402-1.626c1.57-1.065,3.59-1.515,5.553-1.065c0.168,0.056,0.562,0.111,0.617,0.448
	c0,0.169,0,0.169-0.112,0.28c-0.112,0.225-0.448,0.168-0.897,0.057c-1.234-0.225-2.524-0.057-3.702,0.393
	c-0.953,0.449-2.02,1.121-2.355,2.188c-0.785,2.692,0.28,5.496,1.795,7.629C9.647,25.521,9.704,25.745,9.424,25.914L9.424,25.914z
	 M10.321,23.95c0,0.169-0.169,0.113-0.281,0.057c-0.561-0.393-0.785-1.01-1.01-1.57c-0.168-0.449-0.448-0.785-0.224-1.234
	c0.168-0.336,0.168-0.28,0.28-0.561c0.056-0.112,0.112-0.225,0-0.393c-0.505-0.674-0.561-2.132,0-2.58
	c0.168-0.113,0.393-0.113,0.337,0.111c-0.225,0.506-0.281,1.122,0.056,1.57c0.393,0.225,0.561,0.73,0.505,1.123
	c0,0.168-0.057,0.279-0.112,0.393c0.112,0.393,0.337,0.841,0.112,1.233c-0.112,0.112-0.225,0.112-0.337,0.169
	C9.984,22.829,10.377,23.39,10.321,23.95L10.321,23.95z M10.152,17.725c0-0.112,0-0.225,0.057-0.337
	c0.168-0.448,0.729-1.01,0.953-0.896c0.337,0.111-0.393,0.785,0.168,0.953c0.674,0.056,0.617-0.729,1.122-1.01
	c0.337-0.225,0.785-0.225,1.178-0.168c0.337,0.111,0.449,0.393,0.449,0.617c0.056,0.168,0,0.336-0.112,0.448
	c-0.449,0.28-0.897-0.562-1.347,0.056c-0.224,0.281-0.336,0.842-0.729,0.898c-0.225,0-0.393-0.225-0.617-0.113
	c-0.225,0.169-0.505,0.393-0.785,0.281C10.265,18.342,10.209,18.173,10.152,17.725L10.152,17.725z M15.706,38.029
	c0,0.111,0.056,0.337-0.057,0.337c-0.168,0-0.225-0.28-0.337-0.505c0-0.28,0.169-0.562,0.394-0.674c0.111-0.057,0.224-0.057,0.28,0
	c0.112,0.111,0.168,0.448,0.056,0.504C16.042,37.749,15.762,37.807,15.706,38.029L15.706,38.029z M16.322,36.739
	c-0.168-0.169-0.336-0.562-0.056-0.562c0.448,0,0.785,0.562,0.953,0.953c0.281,0.785,0.169,1.739-0.448,2.301
	c-0.112,0.111-0.168,0.111-0.28,0.111c-0.225-0.111,0-0.279,0.056-0.393c0.057-0.058,0.057-0.112,0.112-0.168
	C17.107,38.254,16.827,37.3,16.322,36.739L16.322,36.739z M32.309,43.246L32.309,43.246c-0.785,0-10.152-0.169-11.274-0.448
	c1.627-0.337,8.694-0.448,11.219-0.448h0.056c2.581,0,9.592,0.111,11.217,0.448C42.404,43.077,33.094,43.189,32.309,43.246
	L32.309,43.246z M47.79,42.35c-5.161-0.562-10.151-0.843-15.481-0.843h-0.056c-5.329,0-10.321,0.281-15.481,0.843
	c-0.393,0.057-0.673-0.058-0.673-0.226c0-0.226,0.056-0.336,0.224-0.394c1.402-0.279,2.973-0.393,4.432-0.504
	c3.758-0.394,7.628-0.617,11.499-0.617h0.056c3.87,0,7.74,0.225,11.499,0.617c1.459,0.111,3.028,0.279,4.432,0.504
	c0.168,0.058,0.225,0.168,0.225,0.394C48.406,42.236,48.184,42.35,47.79,42.35L47.79,42.35z M19.912,36.796l-0.616,0.056
	c-0.337,0.057-0.674-0.224-0.729-0.561c-0.057-0.337,0.225-0.673,0.561-0.729l0.617-0.058c0.337-0.056,0.673,0.226,0.729,0.562
	C20.529,36.402,20.249,36.739,19.912,36.796L19.912,36.796z M20.81,39.264c0.057,0.394-0.224,0.674-0.561,0.729l-0.617,0.056
	c-0.336,0.057-0.673-0.224-0.729-0.562c-0.056-0.336,0.225-0.672,0.562-0.729l0.617-0.057C20.417,38.646,20.754,38.927,20.81,39.264
	L20.81,39.264z M22.212,37.132l0.842-1.01c0.168-0.168,0.393-0.226,0.617-0.056l1.009,0.841c0.169,0.169,0.225,0.393,0.057,0.616
	l-0.842,1.011c-0.168,0.168-0.393,0.225-0.616,0.057l-1.01-0.842C22.1,37.581,22.044,37.3,22.212,37.132L22.212,37.132z
	 M27.541,36.234h-0.617c-0.393,0-0.673-0.28-0.673-0.674c0-0.393,0.28-0.672,0.673-0.672h0.617c0.393,0,0.673,0.279,0.673,0.672
	C28.158,35.896,27.877,36.234,27.541,36.234L27.541,36.234z M28.27,38.759c0,0.394-0.28,0.673-0.673,0.673H26.98
	c-0.393,0-0.673-0.279-0.673-0.673c0-0.393,0.28-0.674,0.673-0.674h0.617C27.934,38.086,28.27,38.366,28.27,38.759L28.27,38.759z
	 M29.784,38.198v-3.31c0-0.281,0.225-0.506,0.505-0.506h4.318c0.281,0,0.506,0.225,0.506,0.506v3.31c0,0.28-0.225,0.504-0.506,0.504
	h-4.318C30.009,38.702,29.784,38.479,29.784,38.198L29.784,38.198z M36.964,38.086h0.617c0.394,0,0.673,0.28,0.673,0.673
	c0,0.394-0.279,0.673-0.673,0.673h-0.617c-0.394,0-0.673-0.279-0.673-0.673C36.348,38.366,36.628,38.086,36.964,38.086
	L36.964,38.086z M36.402,35.562c0-0.394,0.281-0.674,0.674-0.674h0.562c0.393,0,0.672,0.28,0.672,0.674
	c0,0.393-0.279,0.674-0.672,0.674h-0.562C36.684,36.234,36.402,35.896,36.402,35.562L36.402,35.562z M39.938,36.907l1.01-0.841
	c0.169-0.17,0.449-0.112,0.617,0.056l0.842,1.01c0.168,0.168,0.111,0.449-0.057,0.617l-1.011,0.842
	c-0.168,0.168-0.448,0.111-0.616-0.057l-0.842-1.011C39.713,37.355,39.713,37.076,39.938,36.907L39.938,36.907z M44.536,38.702
	l0.616,0.057c0.338,0.058,0.617,0.394,0.562,0.729c-0.056,0.394-0.394,0.617-0.729,0.562l-0.616-0.056
	c-0.337-0.057-0.617-0.393-0.562-0.729C43.809,38.927,44.145,38.646,44.536,38.702L44.536,38.702z M44.088,36.066
	c0.057-0.338,0.393-0.617,0.729-0.562l0.617,0.057c0.338,0.058,0.617,0.394,0.562,0.729c-0.057,0.394-0.393,0.616-0.729,0.562
	l-0.617-0.057C44.312,36.739,44.088,36.402,44.088,36.066L44.088,36.066z M47.846,38.982c0,0.057,0.057,0.111,0.112,0.168
	c0.056,0.113,0.28,0.226,0.056,0.394c-0.056,0-0.168,0-0.279-0.112c-0.617-0.561-0.729-1.515-0.448-2.3
	c0.168-0.336,0.505-0.952,0.952-0.952c0.281,0,0.113,0.393-0.055,0.561C47.732,37.3,47.453,38.254,47.846,38.982L47.846,38.982z
	 M48.911,38.366c-0.056,0-0.056-0.226-0.056-0.337c-0.057-0.168-0.338-0.28-0.394-0.338c-0.112-0.056-0.112-0.393,0.056-0.504
	c0.058-0.057,0.226-0.057,0.281,0c0.225,0.111,0.393,0.336,0.393,0.674C49.191,38.086,49.08,38.366,48.911,38.366L48.911,38.366z
	 M49.473,35.169c-0.111,0-0.393,0-0.617-0.058c-0.896-0.223-7.234-1.457-16.546-1.457h-0.056c-9.312,0-15.706,1.289-16.547,1.457
	c-0.169,0.058-0.449,0.058-0.617,0.058c-0.112-0.058-0.225-0.226-0.169-0.394c0.057-0.111,0.169-0.225,0.337-0.28
	c3.31-0.729,10.32-1.738,16.996-1.795h0.056c6.675,0,13.687,1.065,16.996,1.795c0.111,0.057,0.28,0.112,0.336,0.28
	C49.697,34.943,49.585,35.169,49.473,35.169L49.473,35.169z M53.791,27.709c-0.561,0.616-0.953,1.233-1.29,1.907l-0.056,0.056
	c-0.506-0.28-0.617-0.168-0.897,0.28c-0.28,0.449-0.28,0.617,0.112,0.898l0,0c-0.562,0.953-1.122,1.682-2.02,2.466
	c-0.729,0.617-2.021,0-2.133-1.009c-1.851,1.347-4.037,0.281-4.431-1.233c-1.011,1.122-2.412,2.02-4.769,0.225
	c-1.57,0.841-4.15,1.516-6.001-0.897h-0.056c-1.852,2.468-4.487,1.738-6.002,0.897c-2.3,1.795-3.759,0.954-4.768-0.225
	c-0.449,1.515-2.637,2.58-4.432,1.233c-0.112,0.954-1.458,1.571-2.132,1.009c-0.897-0.784-1.402-1.513-2.019-2.466v-0.113
	c0.393-0.279,0.393-0.448,0.112-0.896c-0.281-0.449-0.394-0.562-0.897-0.281l-0.057-0.056c-0.337-0.673-0.729-1.29-1.29-1.907
	c-0.225-0.225-0.617-0.393-0.337-0.617c0.169-0.168,0.393-0.225,0.617-0.336c0.393-0.169,0.897-0.337,1.234,0
	c0.505,0.617,0.056,1.57,0.28,1.795c0.056,0.056,0.168,0.111,0.28,0.056c0.393-0.337,0.785-1.29,1.402-1.065
	c0.562,0.393,1.01,1.402,1.122,2.299c0.056,0.449,0.168,1.01-0.225,1.347c-0.225,0.225-0.673-0.056-0.897,0.225
	c-0.112,0.337,0.112,0.505,0.28,0.841c0.281,0.337,0.617,0.729,1.122,0.785c0.729-0.11,0.785-0.841,1.065-1.346
	c0.057-0.112,0.057-0.057,0.169,0c0.673,0.505,1.515,0.785,2.355,0.674c0.393-0.113,0.897-0.281,1.01-0.73
	c0.112-0.279,0.056-0.561,0-0.841c-0.449-0.841-0.842,0.505-1.458,0.112c-0.617-0.505-1.179-1.178-1.402-2.02
	c-0.112-0.28-0.225-0.729,0.056-1.01c0.337-0.28,0.729,0,1.122-0.056c0.28,0,0.168-0.225,0.168-0.337
	c-0.28-0.449-1.01-0.561-1.065-1.178c0.056-0.561,0.505-0.729,1.01-1.01c0.785-0.336,1.683-0.617,2.523-0.449
	c0.225,0.057,0.393,0.113,0.505,0.394c0.057,0.224-0.056,0.337-0.112,0.448c-0.111,0.281-0.393,0.617-0.111,0.953
	c0.111,0.169,0.28,0.169,0.448,0.057c0.28-0.28,0.617-0.617,1.01-0.561c0.505,0.056,0.785,0.785,0.897,1.346
	c0.168,0.842,0.28,1.739-0.225,2.412c-0.505,0.449-0.897-0.449-1.346-0.057c-0.169,0.169,0,0.562,0.112,0.785
	c0.28,0.506,0.561,0.898,1.178,1.01c0.841,0.113,1.346-0.056,2.019-0.785c0.281-0.336,0.225-0.168,0.562-0.561
	c0.28,0.281,0.729,0.674,1.122,0.842c0.953,0.448,2.3,0.504,3.028-0.112c0.449-0.394,0.729-1.122,0.562-1.347
	c-0.729-0.729-0.786,0.393-1.29,0.617c-0.617,0.225-0.954,0.057-1.234-0.225c-0.729-1.01-0.842-2.468-0.393-3.701
	c0.056-0.113,0.056-0.113,0.168-0.281c0.225-0.336,0.505-0.448,0.842-0.393c0.448,0.112,0.785,0.449,0.953,0.842
	c0.112,0.168,0.28,0.168,0.449,0.111c0.168-0.056,0.336-0.279,0.224-0.448c-0.28-0.393-0.729-0.673-0.953-1.065
	c-0.168-0.281-0.225-0.674-0.112-1.01c0.112-0.28,0.337-0.505,0.617-0.673c0.561-0.337,1.29-0.562,2.02-0.562h0.056
	c0.729,0,1.458,0.168,2.02,0.562c0.28,0.168,0.505,0.393,0.617,0.673c0.168,0.336,0.057,0.729-0.112,1.01
	c-0.225,0.393-0.674,0.673-0.954,1.065c-0.111,0.169,0.057,0.393,0.225,0.448c0.169,0.057,0.394,0.057,0.449-0.111
	c0.225-0.393,0.504-0.729,0.953-0.842c0.338-0.056,0.617,0.057,0.842,0.393c0.057,0.112,0.057,0.112,0.168,0.281
	c0.449,1.233,0.394,2.691-0.393,3.701c-0.279,0.337-0.617,0.449-1.234,0.225c-0.504-0.168-0.561-1.346-1.289-0.617
	c-0.168,0.168,0.111,0.953,0.561,1.347c0.729,0.616,2.076,0.561,3.029,0.112c0.393-0.168,0.842-0.561,1.121-0.842
	c0.337,0.393,0.281,0.281,0.562,0.561c0.673,0.729,1.179,0.898,2.021,0.785c0.561-0.111,0.842-0.504,1.178-1.01
	c0.111-0.224,0.225-0.672,0.111-0.785c-0.504-0.393-0.842,0.506-1.346,0.057c-0.505-0.673-0.394-1.627-0.225-2.412
	c0.111-0.561,0.393-1.29,0.896-1.346c0.394-0.057,0.729,0.28,1.01,0.561c0.168,0.112,0.336,0.112,0.449-0.057
	c0.279-0.336,0-0.672-0.113-0.953c-0.055-0.111-0.168-0.225-0.111-0.448c0.057-0.28,0.281-0.337,0.505-0.394
	c0.843-0.168,1.739,0.113,2.524,0.449c0.505,0.281,0.953,0.449,1.01,1.01c-0.057,0.617-0.785,0.729-1.064,1.178
	c0,0.057-0.113,0.337,0.168,0.337c0.393,0,0.785-0.225,1.121,0.056c0.28,0.281,0.168,0.729,0.057,1.01
	c-0.225,0.842-0.785,1.515-1.402,2.02c-0.617,0.393-1.01-0.897-1.458-0.112c-0.058,0.28-0.112,0.505,0,0.841
	c0.112,0.449,0.617,0.674,1.011,0.73c0.784,0.111,1.682-0.225,2.354-0.674c0.112-0.057,0.112-0.112,0.168,0
	c0.28,0.505,0.394,1.233,1.065,1.346c0.506-0.056,0.842-0.448,1.121-0.785c0.17-0.28,0.449-0.448,0.281-0.841
	c-0.225-0.28-0.674,0-0.896-0.225c-0.395-0.337-0.281-0.897-0.226-1.347c0.112-0.841,0.562-1.906,1.122-2.299
	c0.616-0.281,1.01,0.673,1.4,1.065c0.113,0.056,0.226,0.056,0.281-0.056c0.225-0.169-0.168-1.122,0.28-1.795
	c0.336-0.281,0.841-0.169,1.233,0c0.225,0.111,0.449,0.168,0.617,0.336C54.354,27.316,53.96,27.484,53.791,27.709L53.791,27.709z
	 M54.016,18.397c-0.336,0.112-0.617-0.111-0.785-0.28c-0.279-0.056-0.393,0.169-0.617,0.112c-0.447-0.057-0.504-0.561-0.729-0.897
	c-0.449-0.562-0.896,0.224-1.347-0.056c-0.112-0.113-0.168-0.337-0.112-0.449c0.057-0.225,0.112-0.505,0.449-0.617
	c0.393-0.056,0.841-0.111,1.178,0.168c0.506,0.281,0.448,1.066,1.122,1.01c0.562-0.168-0.112-0.841,0.168-0.953
	c0.226-0.112,0.785,0.505,0.953,0.897c0.058,0.112,0.058,0.224,0.058,0.337C54.408,18.173,54.296,18.342,54.016,18.397
	L54.016,18.397z M54.521,24.007c-0.112,0.057-0.226,0.112-0.28-0.057c-0.056-0.561,0.337-1.121,0.616-1.626
	c-0.057-0.056-0.225-0.056-0.336-0.169c-0.28-0.393,0-0.841,0.111-1.233c-0.056-0.112-0.111-0.28-0.111-0.393
	c-0.057-0.448,0.168-0.897,0.504-1.122c0.338-0.505,0.281-1.121,0.058-1.57c-0.058-0.225,0.168-0.225,0.336-0.112
	c0.562,0.393,0.505,1.907,0,2.58c-0.112,0.112,0,0.28,0,0.393c0.112,0.28,0.112,0.225,0.28,0.562
	c0.225,0.448-0.057,0.785-0.225,1.233C55.307,23.054,55.082,23.614,54.521,24.007L54.521,24.007z M57.213,22.997
	c-0.336,0.897-0.785,1.738-1.346,2.58c-0.112,0.168-0.338,0.449-0.674,0.337c-0.28-0.169-0.225-0.337-0.168-0.505
	c1.57-2.076,2.637-4.936,1.795-7.629c-0.28-1.065-1.346-1.738-2.355-2.188c-1.178-0.448-2.469-0.617-3.701-0.393
	c-0.449,0.112-0.785,0.168-0.897-0.056c-0.058-0.112-0.058-0.169-0.112-0.28c0.057-0.337,0.393-0.337,0.617-0.449
	c1.963-0.449,3.982,0.057,5.553,1.066c0.561,0.393,1.122,0.953,1.402,1.626C58.167,18.958,57.887,21.202,57.213,22.997
	L57.213,22.997z"/>
<g id="waves">
	<path fill="#FFFFFF" d="M3.982,48.8v2.188c0,0,3.87,2.188,9.087,2.188c5.217,0,9.592-2.355,9.592-2.355s3.533,2.3,10.04,2.3
		c5.16,0,8.693-2.354,8.693-2.354s3.982,2.411,10.041,2.411c4.937,0,8.582-2.188,8.582-2.188v-2.134c0,0-3.928,2.302-8.75,2.302
		c-5.947,0-9.761-2.58-9.761-2.58s-4.991,2.69-9.031,2.69c-5.16,0-9.815-2.69-9.815-2.69s-3.982,2.58-9.479,2.58
		S3.982,48.8,3.982,48.8L3.982,48.8z"/>
	<path fill="#FFFFFF" d="M3.982,54.239v2.188c0,0,3.87,2.188,9.087,2.188c5.217,0,9.592-2.356,9.592-2.356s3.533,2.302,10.04,2.302
		c5.16,0,8.693-2.356,8.693-2.356s3.982,2.412,10.041,2.412c4.937,0,8.582-2.188,8.582-2.188v-2.131c0,0-3.928,2.301-8.75,2.301
		c-5.947,0-9.761-2.58-9.761-2.58s-4.991,2.691-9.031,2.691c-5.16,0-9.815-2.691-9.815-2.691s-3.982,2.58-9.479,2.58
		C7.685,56.54,3.982,54.239,3.982,54.239L3.982,54.239z"/>
	<path fill="#FFFFFF" d="M3.982,59.624v2.188c0,0,3.87,2.188,9.087,2.188c5.217,0,9.592-2.355,9.592-2.355s3.533,2.301,10.04,2.301
		c5.16,0,8.693-2.356,8.693-2.356S45.378,64,51.436,64c4.938,0,8.582-2.188,8.582-2.188v-2.131c0,0-3.927,2.299-8.75,2.299
		c-5.945,0-9.76-2.58-9.76-2.58s-4.992,2.692-9.031,2.692c-5.16,0-9.815-2.692-9.815-2.692s-3.982,2.58-9.479,2.58
		S3.982,59.624,3.982,59.624L3.982,59.624z"/>
</g>
</svg>
