<?xml version="1.0" encoding="utf-8"?>
<!-- Generator: Adobe Illustrator 15.0.2, SVG Export Plug-In . SVG Version: 6.00 Build 0)  -->
<!DOCTYPE svg PUBLIC "-//W3C//DTD SVG 1.1//EN" "http://www.w3.org/Graphics/SVG/1.1/DTD/svg11.dtd">
<svg version="1.1" id="Layer_1" xmlns="http://www.w3.org/2000/svg" xmlns:xlink="http://www.w3.org/1999/xlink" x="0px" y="0px"
	 width="361.128px" height="504.539px" viewBox="0 0 361.128 504.539" preserveAspectRatio='xMinYMin' enable-background="new 0 0 361.128 504.539"
	 xml:space="preserve">
<g id="artproject">
	<path fill="#FFFFFF" d="M69.758,276.357h-4.104v-1.621l3.886-6.066h1.853v6.219h1.405v1.471h-1.405v1.965h-1.635V276.357z
		 M69.758,270.986H69.73l-2.413,3.899h2.44L69.758,270.986L69.758,270.986z"/>
	<path fill="#FFFFFF" d="M88.591,268.669h1.486l4.159,9.651h-1.964l-0.9-2.206h-4.185l-0.873,2.206h-1.922L88.591,268.669z
		 M90.772,274.641l-1.485-3.927l-1.513,3.927H90.772z"/>
	<path fill="#FFFFFF" d="M98.862,268.669h3.354c1.853,0,3.598,0.601,3.598,2.769c0,1.393-0.804,2.414-2.235,2.617l2.562,4.27h-2.072
		l-2.235-4.092h-1.255v4.092h-1.717V268.669z M101.915,272.759c0.969,0,2.1-0.081,2.1-1.336c0-1.146-1.064-1.28-1.95-1.28h-1.486
		v2.616H101.915z"/>
	<polygon fill="#FFFFFF" points="112.73,270.225 109.772,270.225 109.772,268.669 117.407,268.669 117.407,270.225 114.449,270.225 
		114.449,278.32 112.73,278.32 	"/>
	<rect x="122.087" y="268.669" fill="#FFFFFF" width="1.718" height="9.651"/>
	<path fill="#FFFFFF" d="M134.196,270.742c-0.368-0.52-1.022-0.764-1.691-0.764c-0.79,0-1.582,0.354-1.582,1.239
		c0,1.937,4.581,0.832,4.581,4.267c0,2.074-1.635,3.082-3.531,3.082c-1.2,0-2.372-0.367-3.162-1.31l1.295-1.254
		c0.423,0.642,1.145,1.011,1.908,1.011c0.791,0,1.691-0.438,1.691-1.324c0-2.111-4.581-0.898-4.581-4.349
		c0-1.991,1.773-2.918,3.558-2.918c1.01,0,2.018,0.287,2.768,0.996L134.196,270.742z"/>
	<polygon fill="#FFFFFF" points="142.815,270.225 139.857,270.225 139.857,268.669 147.493,268.669 147.493,270.225 
		144.535,270.225 144.535,278.32 142.815,278.32 	"/>
	<path fill="#FFFFFF" d="M156.943,270.742c-0.368-0.52-1.022-0.764-1.691-0.764c-0.79,0-1.582,0.354-1.582,1.239
		c0,1.937,4.581,0.832,4.581,4.267c0,2.074-1.635,3.082-3.531,3.082c-1.2,0-2.372-0.367-3.162-1.31l1.295-1.254
		c0.423,0.642,1.145,1.011,1.908,1.011c0.791,0,1.691-0.438,1.691-1.324c0-2.111-4.581-0.898-4.581-4.349
		c0-1.991,1.773-2.918,3.558-2.918c1.01,0,2.018,0.287,2.768,0.996L156.943,270.742z"/>
	<path fill="#FFFFFF" d="M178.875,276.809c-0.914,1.254-2.168,1.76-3.586,1.76c-2.945,0-4.989-2.127-4.989-5.07
		s2.044-5.072,4.989-5.072c1.309,0,2.481,0.438,3.326,1.516l-0.735,0.613c-0.6-0.899-1.623-1.311-2.591-1.311
		c-2.522,0-4.089,1.854-4.089,4.254c0,2.396,1.567,4.252,4.089,4.252c0.968,0,2.168-0.463,2.85-1.498L178.875,276.809z"/>
	<polygon fill="#FFFFFF" points="184.059,268.669 189.962,268.669 189.962,269.488 184.958,269.488 184.958,272.923 
		189.649,272.923 189.649,273.742 184.958,273.742 184.958,277.505 190.18,277.505 190.18,278.32 184.059,278.32 	"/>
	<polygon fill="#FFFFFF" points="195.691,268.669 196.591,268.669 196.591,277.505 201.091,277.505 201.091,278.32 195.691,278.32 	
		"/>
	<polygon fill="#FFFFFF" points="206.042,268.669 211.946,268.669 211.946,269.488 206.942,269.488 206.942,272.923 
		211.632,272.923 211.632,273.742 206.942,273.742 206.942,277.505 212.164,277.505 212.164,278.32 206.042,278.32 	"/>
	<path fill="#FFFFFF" d="M217.677,268.669h2.779c1.475,0,3.108,0.367,3.108,2.552c0,0.979-0.586,1.771-1.729,2.004v0.024
		c1.268,0.099,2.151,1.022,2.151,2.373c0,2.224-1.922,2.698-3.229,2.698h-3.082v-9.651H217.677z M218.576,272.841h1.868
		c1.868,0,2.222-1.022,2.222-1.62c0-1.353-0.953-1.73-2.099-1.73h-1.991V272.841z M218.576,277.503h2.059
		c2.113,0,2.455-1.172,2.455-1.854c0-1.43-1.174-1.989-2.315-1.989h-2.194v3.844H218.576z"/>
	<path fill="#FFFFFF" d="M229.813,268.669h2.536c0.764,0,3.436,0,3.436,2.535c0,1.84-1.404,2.346-2.468,2.481l2.81,4.635h-1.021
		l-2.712-4.579h-1.679v4.579h-0.899L229.813,268.669L229.813,268.669z M230.714,272.923h1.908c1.895,0,2.264-1.051,2.264-1.719
		c0-0.666-0.369-1.718-2.264-1.718h-1.908V272.923z"/>
	<path fill="#FFFFFF" d="M244.405,268.669h0.927l4.062,9.651h-1.008l-1.051-2.562h-5.112l-1.091,2.562h-0.94L244.405,268.669z
		 M244.828,269.65l-2.248,5.289h4.43L244.828,269.65z"/>
	<polygon fill="#FFFFFF" points="255.548,269.488 252.25,269.488 252.25,268.669 259.748,268.669 259.748,269.488 256.449,269.488 
		256.449,278.322 255.548,278.322 	"/>
	<rect x="264.781" y="268.669" fill="#FFFFFF" width="0.899" height="9.651"/>
	<polygon fill="#FFFFFF" points="271.873,268.669 273.031,268.669 278.908,277.123 278.935,277.123 278.935,268.669 
		279.833,268.669 279.833,278.32 278.675,278.32 272.8,269.869 272.772,269.869 272.772,278.32 271.873,278.32 	"/>
	<path fill="#FFFFFF" d="M293.992,277.695c-1.119,0.641-2.346,0.873-3.601,0.873c-2.944,0-4.989-2.127-4.989-5.072
		s2.045-5.072,4.989-5.072c1.433,0,2.591,0.438,3.478,1.336l-0.656,0.684c-0.584-0.709-1.771-1.198-2.819-1.198
		c-2.521,0-4.091,1.854-4.091,4.254s1.568,4.252,4.091,4.252c1.034,0,1.964-0.135,2.698-0.571v-3.244h-2.316v-0.816h3.219v4.576
		H293.992z"/>
	<path fill="#FFFFFF" d="M0,295.945h2.781c1.364,0,3.109,0.531,3.109,2.551c0,1.744-1.39,2.521-2.904,2.521H0.9v4.58H0V295.945z
		 M0.9,300.199h2.046c1.022,0,2.044-0.438,2.044-1.703c0-1.242-1.063-1.73-2.099-1.73H0.9V300.199z"/>
	<path fill="#FFFFFF" d="M13.323,295.945h0.927l4.063,9.652h-1.008l-1.05-2.562h-5.113l-1.091,2.562h-0.94L13.323,295.945z
		 M13.746,296.928l-2.249,5.288h4.431L13.746,296.928z"/>
	<polygon fill="#FFFFFF" points="24.466,296.764 21.167,296.764 21.167,295.945 28.665,295.945 28.665,296.764 25.366,296.764 
		25.366,305.598 24.466,305.598 	"/>
	<polygon fill="#FFFFFF" points="35.839,296.764 32.541,296.764 32.541,295.945 40.039,295.945 40.039,296.764 36.739,296.764 
		36.739,305.598 35.839,305.598 	"/>
	<polygon fill="#FFFFFF" points="45.073,295.945 50.977,295.945 50.977,296.766 45.973,296.766 45.973,300.199 50.663,300.199 
		50.663,301.018 45.973,301.018 45.973,304.779 51.194,304.779 51.194,305.598 45.073,305.598 	"/>
	<path fill="#FFFFFF" d="M56.706,295.945h2.536c0.764,0,3.436,0,3.436,2.535c0,1.84-1.405,2.346-2.468,2.481l2.808,4.636h-1.022
		l-2.712-4.582h-1.678v4.582h-0.9V295.945z M57.606,300.199h1.909c1.894,0,2.263-1.051,2.263-1.719c0-0.666-0.369-1.717-2.263-1.717
		h-1.909V300.199z"/>
	<polygon fill="#FFFFFF" points="68.339,295.945 69.498,295.945 75.374,304.398 75.401,304.398 75.401,295.945 76.301,295.945 
		76.301,305.598 75.142,305.598 69.266,297.146 69.239,297.146 69.239,305.598 68.339,305.598 	"/>
	<polygon fill="#FFFFFF" points="89.587,295.945 90.746,295.945 96.622,304.398 96.649,304.398 96.649,295.945 97.549,295.945 
		97.549,305.598 96.39,305.598 90.514,297.146 90.487,297.146 90.487,305.598 89.587,305.598 	"/>
	<path fill="#FFFFFF" d="M108.092,295.701c2.946,0,4.99,2.127,4.99,5.07c0,2.944-2.044,5.071-4.99,5.071
		c-2.945,0-4.989-2.127-4.989-5.071C103.104,297.828,105.147,295.701,108.092,295.701 M108.092,305.023
		c2.523,0,4.09-1.854,4.09-4.252c0-2.399-1.567-4.254-4.09-4.254c-2.522,0-4.089,1.854-4.089,4.254
		C104.003,303.171,105.57,305.023,108.092,305.023"/>
	<path fill="#FFFFFF" d="M119.1,304.371c0.368,0,0.654,0.285,0.654,0.652c0,0.369-0.286,0.656-0.654,0.656
		c-0.368,0-0.654-0.287-0.654-0.656C118.446,304.656,118.731,304.371,119.1,304.371"/>
	<polygon fill="#FFFFFF" points="127.978,297.091 127.963,297.091 126.219,298.523 125.715,297.895 128.1,295.945 128.795,295.945 
		128.795,305.598 127.978,305.598 	"/>
	<path fill="#FFFFFF" d="M146.428,295.945h0.927l4.063,9.652h-1.008l-1.05-2.562h-5.113l-1.091,2.562h-0.94L146.428,295.945z
		 M146.851,296.928l-2.249,5.288h4.431L146.851,296.928z"/>
	<polygon fill="#FFFFFF" points="156.358,295.945 157.517,295.945 163.393,304.398 163.42,304.398 163.42,295.945 164.32,295.945 
		164.32,305.598 163.161,305.598 157.285,297.146 157.258,297.146 157.258,305.598 156.358,305.598 	"/>
	<path fill="#FFFFFF" d="M170.378,295.945h2.986c5.016,0,5.221,4.117,5.221,4.826s-0.205,4.826-5.221,4.826h-2.986V295.945
		L170.378,295.945z M171.278,304.779h1.854c2.563,0,4.553-1.24,4.553-4.008c0-2.769-1.99-4.008-4.553-4.008h-1.854V304.779z"/>
	<polygon fill="#FFFFFF" points="193.371,296.764 190.071,296.764 190.071,295.945 197.569,295.945 197.569,296.764 
		194.271,296.764 194.271,305.598 193.371,305.598 	"/>
	<polygon fill="#FFFFFF" points="202.604,295.945 203.503,295.945 203.503,300.199 208.902,300.199 208.902,295.945 
		209.802,295.945 209.802,305.598 208.902,305.598 208.902,301.018 203.503,301.018 203.503,305.598 202.604,305.598 	"/>
	<polygon fill="#FFFFFF" points="215.996,295.945 221.899,295.945 221.899,296.766 216.896,296.766 216.896,300.199 
		221.585,300.199 221.585,301.018 216.896,301.018 216.896,304.779 222.117,304.779 222.117,305.598 215.996,305.598 	"/>
	<path fill="#FFFFFF" d="M242.669,304.085c-0.914,1.252-2.168,1.758-3.586,1.758c-2.944,0-4.989-2.127-4.989-5.071
		c0-2.941,2.045-5.068,4.989-5.068c1.31,0,2.479,0.436,3.326,1.512l-0.736,0.615c-0.6-0.9-1.623-1.312-2.59-1.312
		c-2.521,0-4.09,1.854-4.09,4.254c0,2.4,1.566,4.254,4.09,4.254c0.967,0,2.168-0.463,2.851-1.5L242.669,304.085z"/>
	<path fill="#FFFFFF" d="M252.216,295.701c2.945,0,4.99,2.127,4.99,5.07c0,2.944-2.045,5.071-4.99,5.071
		c-2.944,0-4.988-2.127-4.988-5.071C247.228,297.828,249.271,295.701,252.216,295.701 M252.216,305.023
		c2.521,0,4.091-1.854,4.091-4.252c0-2.399-1.567-4.254-4.091-4.254c-2.521,0-4.09,1.854-4.09,4.254
		C248.126,303.171,249.694,305.023,252.216,305.023"/>
	<polygon fill="#FFFFFF" points="262.773,295.945 263.673,295.945 263.673,304.779 268.173,304.779 268.173,305.598 
		262.773,305.598 	"/>
	<path fill="#FFFFFF" d="M277.487,295.701c2.946,0,4.99,2.127,4.99,5.07c0,2.944-2.044,5.071-4.99,5.071
		c-2.944,0-4.989-2.127-4.989-5.071C272.498,297.828,274.542,295.701,277.487,295.701 M277.487,305.023
		c2.522,0,4.091-1.854,4.091-4.252c0-2.399-1.565-4.254-4.091-4.254c-2.521,0-4.089,1.854-4.089,4.254
		C273.398,303.171,274.966,305.023,277.487,305.023"/>
	<path fill="#FFFFFF" d="M294.902,301.902c0,2.059-0.886,3.94-3.518,3.94c-2.631,0-3.518-1.883-3.518-3.94v-5.957h0.898v5.727
		c0,1.377,0.367,3.354,2.617,3.354c2.248,0,2.617-1.978,2.617-3.354v-5.727h0.898v5.957H294.902z"/>
	<path fill="#FFFFFF" d="M300.919,295.945h2.535c0.765,0,3.436,0,3.436,2.535c0,1.84-1.404,2.346-2.467,2.481l2.809,4.636h-1.021
		l-2.713-4.582h-1.679v4.582h-0.899V295.945L300.919,295.945z M301.818,300.199h1.909c1.894,0,2.263-1.051,2.263-1.719
		c0-0.666-0.369-1.717-2.263-1.717h-1.909V300.199z"/>
	<path fill="#FFFFFF" d="M319.644,295.945h2.779c1.475,0,3.109,0.367,3.109,2.551c0,0.979-0.586,1.771-1.73,2.004v0.025
		c1.268,0.098,2.152,1.021,2.152,2.373c0,2.223-1.922,2.699-3.23,2.699h-3.082v-9.652H319.644z M320.542,300.117h1.869
		c1.867,0,2.221-1.023,2.221-1.621c0-1.352-0.953-1.73-2.098-1.73h-1.992V300.117z M320.542,304.779h2.059
		c2.113,0,2.455-1.172,2.455-1.854c0-1.43-1.174-1.99-2.316-1.99h-2.195v3.846h-0.002V304.779z"/>
	<polygon fill="#FFFFFF" points="331.781,295.945 332.681,295.945 332.681,304.779 337.181,304.779 337.181,305.598 
		331.781,305.598 	"/>
	<path fill="#FFFFFF" d="M348.99,301.902c0,2.059-0.887,3.94-3.518,3.94c-2.633,0-3.518-1.883-3.518-3.94v-5.957h0.896v5.727
		c0,1.377,0.369,3.354,2.619,3.354c2.248,0,2.615-1.978,2.615-3.354v-5.727h0.9v5.957H348.99z"/>
	<polygon fill="#FFFFFF" points="355.007,295.945 360.912,295.945 360.912,296.766 355.908,296.766 355.908,300.199 
		360.597,300.199 360.597,301.018 355.908,301.018 355.908,304.779 361.128,304.779 361.128,305.598 355.007,305.598 	"/>
	<rect x="61.561" y="323.221" fill="#FFFFFF" width="0.9" height="9.651"/>
	<polygon fill="#FFFFFF" points="68.653,323.221 69.812,323.221 75.688,331.673 75.715,331.673 75.715,323.221 76.615,323.221 
		76.615,332.873 75.456,332.873 69.58,324.421 69.553,324.421 69.553,332.873 68.653,332.873 	"/>
	<path fill="#FFFFFF" d="M97.835,331.359c-0.914,1.254-2.168,1.76-3.586,1.76c-2.945,0-4.989-2.127-4.989-5.07
		s2.044-5.07,4.989-5.07c1.309,0,2.481,0.435,3.326,1.513l-0.735,0.614c-0.6-0.899-1.623-1.311-2.591-1.311
		c-2.522,0-4.089,1.854-4.089,4.254c0,2.396,1.567,4.252,4.089,4.252c0.968,0,2.168-0.463,2.85-1.498L97.835,331.359z"/>
	<path fill="#FFFFFF" d="M107.383,322.977c2.946,0,4.99,2.127,4.99,5.071c0,2.943-2.044,5.07-4.99,5.07
		c-2.945,0-4.989-2.127-4.989-5.07C102.394,325.104,104.438,322.977,107.383,322.977 M107.383,332.3c2.523,0,4.09-1.854,4.09-4.252
		c0-2.399-1.567-4.254-4.09-4.254c-2.522,0-4.089,1.854-4.089,4.254C103.294,330.445,104.861,332.3,107.383,332.3"/>
	<polygon fill="#FFFFFF" points="117.94,323.221 118.84,323.221 118.84,332.057 123.339,332.057 123.339,332.873 117.94,332.873 	
		"/>
	<polygon fill="#FFFFFF" points="128.291,323.221 129.191,323.221 129.191,332.057 133.69,332.057 133.69,332.873 128.291,332.873 	
		"/>
	<path fill="#FFFFFF" d="M141.601,323.223h0.927l4.063,9.649h-1.008l-1.05-2.562h-5.113l-1.091,2.562h-0.94L141.601,323.223z
		 M142.024,324.203l-2.249,5.289h4.431L142.024,324.203z"/>
	<path fill="#FFFFFF" d="M151.53,323.221h2.781c1.473,0,3.109,0.368,3.109,2.551c0,0.979-0.586,1.772-1.731,2.004v0.026
		c1.267,0.097,2.153,1.021,2.153,2.371c0,2.224-1.922,2.701-3.23,2.701h-3.082V323.221z M152.43,327.393h1.868
		c1.868,0,2.222-1.021,2.222-1.621c0-1.351-0.954-1.73-2.099-1.73h-1.991V327.393z M152.43,332.057h2.058
		c2.114,0,2.454-1.175,2.454-1.854c0-1.433-1.172-1.99-2.316-1.99h-2.196V332.057z"/>
	<path fill="#FFFFFF" d="M168.031,322.977c2.946,0,4.99,2.127,4.99,5.071c0,2.943-2.044,5.07-4.99,5.07
		c-2.945,0-4.989-2.127-4.989-5.07C163.042,325.104,165.086,322.977,168.031,322.977 M168.031,332.3c2.523,0,4.09-1.854,4.09-4.252
		c0-2.399-1.567-4.254-4.09-4.254c-2.522,0-4.089,1.854-4.089,4.254C163.942,330.445,165.509,332.3,168.031,332.3"/>
	<path fill="#FFFFFF" d="M178.574,323.221h2.536c0.765,0,3.437,0,3.437,2.536c0,1.841-1.403,2.345-2.467,2.482l2.809,4.635h-1.021
		l-2.714-4.582h-1.678v4.582h-0.9L178.574,323.221L178.574,323.221z M179.474,327.475h1.908c1.895,0,2.264-1.05,2.264-1.718
		s-0.369-1.717-2.264-1.717h-1.908V327.475L179.474,327.475z"/>
	<path fill="#FFFFFF" d="M193.166,323.223h0.928l4.062,9.649h-1.008l-1.051-2.562h-5.112l-1.091,2.562h-0.939L193.166,323.223z
		 M193.589,324.203l-2.25,5.289h4.433L193.589,324.203z"/>
	<polygon fill="#FFFFFF" points="204.309,324.041 201.009,324.041 201.009,323.221 208.507,323.221 208.507,324.041 
		205.208,324.041 205.208,332.875 204.309,332.875 	"/>
	<rect x="213.542" y="323.221" fill="#FFFFFF" width="0.898" height="9.651"/>
	<path fill="#FFFFFF" d="M224.996,322.977c2.946,0,4.99,2.127,4.99,5.071c0,2.943-2.044,5.07-4.99,5.07
		c-2.942,0-4.988-2.127-4.988-5.07C220.007,325.104,222.052,322.977,224.996,322.977 M224.996,332.3c2.523,0,4.09-1.854,4.09-4.252
		c0-2.399-1.564-4.254-4.09-4.254c-2.521,0-4.088,1.854-4.088,4.254C220.908,330.445,222.475,332.3,224.996,332.3"/>
	<polygon fill="#FFFFFF" points="235.553,323.221 236.712,323.221 242.587,331.673 242.615,331.673 242.615,323.221 
		243.515,323.221 243.515,332.873 242.356,332.873 236.48,324.421 236.453,324.421 236.453,332.873 235.553,332.873 	"/>
	<polygon fill="#FFFFFF" points="255.535,323.221 256.46,323.221 258.861,331.77 258.888,331.77 261.328,323.221 262.474,323.221 
		264.914,331.77 264.941,331.77 267.339,323.221 268.268,323.221 265.458,332.873 264.354,332.873 261.914,324.285 261.887,324.285 
		259.446,332.873 258.341,332.873 	"/>
	<rect x="273.207" y="323.221" fill="#FFFFFF" width="0.9" height="9.651"/>
	<polygon fill="#FFFFFF" points="282.439,324.041 279.141,324.041 279.141,323.221 286.639,323.221 286.639,324.041 
		283.339,324.041 283.339,332.875 282.439,332.875 	"/>
	<polygon fill="#FFFFFF" points="291.671,323.221 292.572,323.221 292.572,327.475 297.972,327.475 297.972,323.221 
		298.871,323.221 298.871,332.873 297.972,332.873 297.972,328.292 292.572,328.292 292.572,332.873 291.671,332.873 	"/>
	<path fill="#FFFFFF" d="M81.515,350.498h3.354c1.853,0,3.598,0.6,3.598,2.768c0,1.392-0.804,2.414-2.235,2.617l2.562,4.268h-2.072
		l-2.235-4.09h-1.255v4.09h-1.717V350.498z M84.568,354.587c0.969,0,2.1-0.082,2.1-1.336c0-1.146-1.064-1.283-1.95-1.283h-1.486
		v2.619H84.568z"/>
	<path fill="#FFFFFF" d="M98.234,350.251c3.012-0.056,5.139,1.963,5.139,5.06c0,3.014-2.127,5.028-5.139,5.084
		c-2.972,0-5.099-2.019-5.099-5.029C93.135,352.27,95.262,350.251,98.234,350.251 M98.247,358.839c2.005,0,3.327-1.526,3.327-3.584
		c0-1.922-1.322-3.448-3.327-3.448c-1.99,0-3.313,1.526-3.313,3.448C94.934,357.312,96.257,358.839,98.247,358.839"/>
	<polygon fill="#FFFFFF" points="110.917,356.02 107.291,350.498 109.445,350.498 111.817,354.341 114.216,350.498 116.262,350.498 
		112.635,356.02 112.635,360.148 110.917,360.148 	"/>
	<path fill="#FFFFFF" d="M122.809,350.498h1.486l4.159,9.65h-1.964l-0.9-2.207h-4.185l-0.873,2.207h-1.922L122.809,350.498z
		 M124.99,356.468l-1.485-3.926l-1.513,3.926H124.99z"/>
	<polygon fill="#FFFFFF" points="133.08,350.498 134.798,350.498 134.798,358.596 138.901,358.596 138.901,360.148 133.08,360.148 	
		"/>
	<path fill="#FFFFFF" d="M157.898,352.759c-0.709-0.747-1.363-0.952-2.032-0.952c-1.99,0-3.313,1.526-3.313,3.448
		c0,2.06,1.323,3.584,3.313,3.584c0.778,0,1.528-0.354,2.168-1.172l1.418,1.011c-0.872,1.198-2.182,1.717-3.599,1.717
		c-2.972,0-5.099-2.019-5.099-5.029c0-3.096,2.127-5.111,5.099-5.111c1.309,0,2.427,0.422,3.381,1.525L157.898,352.759z"/>
	<path fill="#FFFFFF" d="M168.727,350.251c3.012-0.056,5.139,1.963,5.139,5.06c0,3.014-2.127,5.028-5.139,5.084
		c-2.972,0-5.099-2.019-5.099-5.029C163.628,352.27,165.755,350.251,168.727,350.251 M168.74,358.839
		c2.005,0,3.327-1.526,3.327-3.584c0-1.922-1.322-3.448-3.327-3.448c-1.99,0-3.313,1.526-3.313,3.448
		C165.427,357.312,166.75,358.839,168.74,358.839"/>
	<path fill="#FFFFFF" d="M179.053,350.498h3.245c1.867,0,3.558,0.654,3.558,2.793c0,2.428-1.812,2.865-3.858,2.865h-1.227v3.992
		h-1.718L179.053,350.498L179.053,350.498z M181.807,354.682c0.979,0,2.249-0.054,2.249-1.361c0-1.188-1.131-1.35-2.059-1.35h-1.229
		v2.711H181.807z"/>
	<polygon fill="#FFFFFF" points="190.917,350.498 197.312,350.498 197.312,352.05 192.636,352.05 192.636,354.423 197.066,354.423 
		197.066,355.979 192.636,355.979 192.636,358.596 197.557,358.596 197.557,360.148 190.917,360.148 	"/>
	<polygon fill="#FFFFFF" points="202.783,350.498 205.06,350.498 209.735,357.667 209.763,357.693 209.735,357.693 209.763,357.667 
		209.763,350.498 211.48,350.498 211.48,360.148 209.298,360.148 204.527,352.746 204.501,352.746 204.501,360.148 202.783,360.148 
			"/>
	<polygon fill="#FFFFFF" points="217.184,350.498 218.901,350.498 218.901,354.341 223.414,354.341 223.414,350.498 
		225.132,350.498 225.132,360.148 223.414,360.148 223.414,355.896 218.901,355.896 218.901,360.148 217.184,360.148 	"/>
	<path fill="#FFFFFF" d="M233.943,350.498h1.486l4.158,9.65h-1.963l-0.9-2.207h-4.186l-0.873,2.207h-1.922L233.943,350.498z
		 M236.125,356.468l-1.483-3.926l-1.515,3.926H236.125z"/>
	<path fill="#FFFFFF" d="M252.789,359.439c-1.172,0.627-2.509,0.955-3.994,0.955c-2.971,0-5.099-2.019-5.099-5.031
		c0-3.094,2.128-5.111,5.099-5.111c1.473,0,2.795,0.312,3.805,1.213l-1.27,1.281c-0.613-0.6-1.554-0.938-2.521-0.938
		c-1.989,0-3.312,1.523-3.312,3.447c0,2.059,1.322,3.584,3.312,3.584c0.872,0,1.663-0.164,2.265-0.504v-2.275h-1.98v-1.555h3.695
		V359.439z"/>
	<polygon fill="#FFFFFF" points="258.356,350.498 264.75,350.498 264.75,352.05 260.074,352.05 260.074,354.423 264.505,354.423 
		264.505,355.979 260.074,355.979 260.074,358.596 264.996,358.596 264.996,360.148 258.356,360.148 	"/>
	<polygon fill="#FFFFFF" points="270.222,350.498 272.498,350.498 277.175,357.667 277.201,357.693 277.175,357.693 
		277.201,357.667 277.201,350.498 278.919,350.498 278.919,360.148 276.737,360.148 271.966,352.746 271.939,352.746 
		271.939,360.148 270.222,360.148 	"/>
	<path fill="#FFFFFF" d="M141.167,483.335v3.053c0,0,5.43,3.047,12.694,3.047c7.261,0,13.375-3.262,13.375-3.262
		s4.887,3.189,13.987,3.189c7.19,0,12.153-3.263,12.153-3.263s5.58,3.332,13.996,3.332c6.881,0,11.996-3.047,11.996-3.047v-2.979
		c0,0-5.504,3.192-12.229,3.192c-8.257,0-13.604-3.623-13.604-3.623s-6.959,3.765-12.617,3.765c-7.183,0-13.681-3.765-13.681-3.765
		s-5.58,3.623-13.221,3.623C146.366,486.601,141.167,483.335,141.167,483.335"/>
	<path fill="#FFFFFF" d="M141.167,490.884v3.054c0,0,5.43,3.057,12.694,3.057c7.261,0,13.375-3.271,13.375-3.271
		s4.887,3.199,13.987,3.199c7.19,0,12.153-3.27,12.153-3.27s5.58,3.342,13.996,3.342c6.881,0,11.996-3.057,11.996-3.057v-2.98
		c0,0-5.504,3.189-12.229,3.189c-8.257,0-13.604-3.619-13.604-3.619s-6.959,3.768-12.617,3.768c-7.183,0-13.681-3.768-13.681-3.768
		s-5.58,3.619-13.221,3.619C146.366,494.146,141.167,490.884,141.167,490.884"/>
	<path fill="#FFFFFF" d="M141.167,498.429v3.058c0,0,5.43,3.053,12.694,3.053c7.261,0,13.375-3.262,13.375-3.262
		s4.887,3.19,13.987,3.19c7.19,0,12.153-3.27,12.153-3.27s5.58,3.34,13.996,3.34c6.881,0,11.996-3.055,11.996-3.055v-2.979
		c0,0-5.504,3.191-12.229,3.191c-8.257,0-13.604-3.619-13.604-3.619s-6.959,3.762-12.617,3.762c-7.183,0-13.681-3.762-13.681-3.762
		s-5.58,3.619-13.221,3.619C146.366,501.697,141.167,498.429,141.167,498.429"/>
	<path fill="#FFFFFF" d="M214.364,446.878c-0.433,1.24-1.104,2.383-1.864,3.5c-0.166,0.26-0.494,0.623-0.906,0.463
		c-0.405-0.19-0.348-0.469-0.27-0.676c2.116-2.848,3.6-6.738,2.479-10.383c-0.385-1.451-1.872-2.381-3.186-2.976
		c-1.6-0.631-3.361-0.852-5.066-0.514c-0.639,0.178-1.082,0.209-1.213-0.074c-0.086-0.188-0.104-0.203-0.119-0.401
		c0.039-0.464,0.572-0.484,0.828-0.591c2.726-0.637,5.48,0.037,7.602,1.455c0.771,0.568,1.518,1.297,1.891,2.24
		C215.705,441.388,215.289,444.406,214.364,446.878 M210.722,448.287c-0.127,0.047-0.32,0.123-0.36-0.076
		c-0.094-0.803,0.449-1.572,0.835-2.221c-0.113-0.103-0.316-0.066-0.439-0.238c-0.342-0.518,0-1.176,0.147-1.689
		c-0.094-0.182-0.147-0.356-0.17-0.561c-0.063-0.6,0.224-1.219,0.724-1.555c0.455-0.656,0.414-1.5,0.103-2.188
		c-0.101-0.285,0.222-0.27,0.435-0.119c0.795,0.564,0.691,2.584,0.025,3.519c-0.127,0.19-0.025,0.354,0.01,0.5
		c0.172,0.383,0.172,0.317,0.375,0.785c0.328,0.633-0.08,1.08-0.298,1.68C211.759,446.945,211.458,447.714,210.722,448.287
		 M210.033,440.64c-0.424,0.129-0.826-0.151-1.097-0.387c-0.371-0.1-0.56,0.193-0.881,0.172c-0.591-0.104-0.666-0.807-1.009-1.219
		c-0.59-0.783-1.211,0.307-1.838-0.053c-0.149-0.154-0.203-0.438-0.149-0.648c0.051-0.322,0.167-0.717,0.634-0.83
		c0.547-0.104,1.156-0.125,1.628,0.195c0.687,0.402,0.625,1.436,1.562,1.396c0.783-0.256-0.166-1.118,0.263-1.312
		c0.315-0.158,1.108,0.68,1.317,1.252c0.098,0.188,0.104,0.293,0.098,0.465C210.528,440.277,210.384,440.513,210.033,440.64
		 M209.673,453.324c-0.744,0.815-1.285,1.645-1.729,2.576l-0.047,0.043c-0.658-0.359-0.848-0.254-1.23,0.373
		c-0.36,0.582-0.39,0.812,0.16,1.211l-0.043,0.127c-0.791,1.291-1.513,2.285-2.742,3.354c-0.961,0.812-2.76-0.029-2.916-1.356
		c-2.502,1.812-5.486,0.354-6.071-1.683c-1.378,1.568-3.319,2.752-6.491,0.277c-2.12,1.119-5.707,2.076-8.216-1.266h-0.037
		c-2.507,3.342-6.096,2.385-8.217,1.266c-3.173,2.475-5.109,1.291-6.489-0.277c-0.59,2.037-3.571,3.494-6.075,1.683
		c-0.161,1.327-1.952,2.172-2.916,1.356c-1.233-1.067-1.947-2.062-2.744-3.354l-0.035-0.127c0.536-0.396,0.509-0.629,0.149-1.211
		c-0.377-0.627-0.558-0.732-1.224-0.373l-0.043-0.043c-0.457-0.935-0.978-1.761-1.734-2.576c-0.279-0.316-0.829-0.558-0.442-0.865
		c0.232-0.213,0.519-0.348,0.838-0.471c0.543-0.23,1.184-0.437,1.68-0.021c0.65,0.861,0.076,2.162,0.397,2.426
		c0.096,0.089,0.246,0.134,0.379,0.035c0.546-0.492,1.1-1.793,1.94-1.424c0.756,0.521,1.351,1.924,1.512,3.113
		c0.067,0.627,0.224,1.389-0.291,1.812c-0.338,0.3-0.935-0.065-1.241,0.283c-0.18,0.479,0.157,0.703,0.416,1.113
		c0.376,0.426,0.838,1.021,1.534,1.065c0.971-0.133,1.091-1.143,1.492-1.797c0.115-0.18,0.115-0.086,0.271,0.017
		c0.896,0.645,2.082,1.098,3.195,0.948c0.561-0.131,1.194-0.422,1.374-1.032c0.142-0.396,0.083-0.763-0.007-1.121
		c-0.619-1.119-1.166,0.674-1.986,0.121c-0.858-0.656-1.578-1.644-1.914-2.767c-0.123-0.401-0.283-1,0.101-1.364
		c0.457-0.396,0.981-0.029,1.507-0.062c0.408,0.031,0.269-0.334,0.246-0.447c-0.366-0.582-1.368-0.782-1.422-1.623
		c0.054-0.731,0.681-1.02,1.345-1.375c1.055-0.473,2.272-0.823,3.464-0.602c0.277,0.074,0.563,0.195,0.669,0.557
		c0.053,0.318-0.083,0.451-0.157,0.64c-0.148,0.401-0.558,0.844-0.149,1.313c0.149,0.23,0.359,0.215,0.626,0.064
		c0.365-0.39,0.828-0.873,1.344-0.781c0.686,0.074,1.068,1.074,1.23,1.844c0.242,1.127,0.344,2.396-0.312,3.322
		c-0.702,0.605-1.193-0.588-1.854-0.088c-0.186,0.192-0.013,0.772,0.134,1.096c0.389,0.674,0.802,1.197,1.571,1.355
		c1.158,0.16,1.84-0.107,2.795-1.086c0.372-0.42,0.271-0.246,0.722-0.777c0.4,0.389,1.003,0.928,1.56,1.158
		c1.286,0.633,3.164,0.711,4.137-0.152c0.644-0.541,1.003-1.557,0.788-1.811c-0.975-0.994-1.082,0.571-1.761,0.817
		c-0.868,0.31-1.264,0.095-1.685-0.342c-1.024-1.383-1.113-3.398-0.514-5.07c0.09-0.18,0.09-0.18,0.202-0.35
		c0.326-0.455,0.716-0.592,1.17-0.516c0.634,0.116,1.05,0.61,1.319,1.143c0.116,0.215,0.416,0.209,0.644,0.129
		c0.242-0.078,0.45-0.361,0.318-0.592c-0.377-0.527-0.994-0.912-1.328-1.459c-0.219-0.371-0.319-0.945-0.116-1.385
		c0.143-0.38,0.487-0.687,0.839-0.949c0.758-0.48,1.753-0.734,2.748-0.734h0.045c0.987,0,1.979,0.254,2.735,0.734
		c0.351,0.264,0.703,0.569,0.841,0.949c0.206,0.438,0.104,1.014-0.116,1.385c-0.34,0.547-0.941,0.932-1.328,1.459
		c-0.131,0.229,0.083,0.514,0.317,0.592c0.237,0.08,0.522,0.086,0.642-0.129c0.271-0.531,0.691-1.023,1.322-1.143
		c0.454-0.076,0.848,0.061,1.182,0.516c0.103,0.17,0.103,0.17,0.184,0.35c0.605,1.672,0.515,3.688-0.504,5.07
		c-0.42,0.434-0.818,0.648-1.688,0.342c-0.671-0.246-0.776-1.812-1.748-0.817c-0.228,0.256,0.126,1.27,0.775,1.811
		c0.973,0.863,2.849,0.785,4.146,0.152c0.557-0.23,1.146-0.771,1.557-1.158c0.447,0.531,0.352,0.355,0.729,0.777
		c0.943,0.979,1.633,1.246,2.78,1.086c0.774-0.158,1.19-0.685,1.575-1.355c0.146-0.32,0.328-0.902,0.135-1.096
		c-0.646-0.5-1.151,0.692-1.85,0.088c-0.66-0.926-0.549-2.195-0.312-3.322c0.164-0.77,0.551-1.77,1.227-1.844
		c0.525-0.092,0.973,0.395,1.354,0.781c0.253,0.149,0.463,0.166,0.621-0.064c0.408-0.473,0-0.912-0.158-1.313
		c-0.068-0.188-0.21-0.32-0.154-0.64c0.107-0.36,0.397-0.479,0.682-0.557c1.177-0.225,2.402,0.129,3.457,0.602
		c0.658,0.355,1.289,0.644,1.348,1.375c-0.059,0.841-1.055,1.041-1.436,1.623c-0.013,0.113-0.151,0.479,0.256,0.447
		c0.525,0.031,1.045-0.334,1.498,0.062c0.396,0.364,0.23,0.963,0.101,1.364c-0.323,1.123-1.046,2.107-1.899,2.767
		c-0.822,0.553-1.377-1.24-1.982-0.121c-0.088,0.358-0.163,0.725-0.018,1.121c0.184,0.61,0.811,0.901,1.377,1.032
		c1.113,0.146,2.303-0.305,3.191-0.948c0.161-0.103,0.161-0.193,0.271-0.017c0.404,0.654,0.52,1.664,1.486,1.797
		c0.701-0.045,1.168-0.643,1.543-1.065c0.258-0.41,0.592-0.635,0.412-1.113c-0.311-0.35-0.893,0.016-1.238-0.283
		c-0.504-0.426-0.354-1.188-0.295-1.812c0.17-1.189,0.758-2.594,1.517-3.113c0.84-0.369,1.382,0.932,1.938,1.424
		c0.144,0.099,0.282,0.054,0.383-0.035c0.312-0.264-0.262-1.562,0.396-2.426c0.49-0.412,1.135-0.209,1.688,0.021
		c0.314,0.123,0.603,0.258,0.824,0.471C210.501,452.767,209.953,453.007,209.673,453.324 M203.798,463.554
		c-0.168,0.045-0.571,0-0.824-0.045c-1.207-0.274-9.898-2.008-22.618-2.016h-0.045c-12.727,0.008-21.429,1.738-22.632,2.016
		c-0.25,0.045-0.646,0.09-0.808,0.045c-0.16-0.059-0.35-0.319-0.234-0.545c0.068-0.194,0.256-0.307,0.42-0.369
		c4.562-0.981,14.091-2.399,23.254-2.409h0.045c9.149,0.01,18.688,1.428,23.238,2.409c0.176,0.062,0.362,0.175,0.426,0.369
		C204.136,463.232,203.949,463.496,203.798,463.554 M203.054,467.863c-0.107-0.011-0.057-0.269-0.065-0.437
		c-0.069-0.27-0.485-0.389-0.512-0.453c-0.153-0.092-0.142-0.575,0.053-0.711c0.103-0.082,0.294-0.096,0.405-0.026
		c0.292,0.147,0.562,0.489,0.541,0.907C203.401,467.476,203.302,467.869,203.054,467.863 M201.597,468.712
		c0.033,0.074,0.076,0.121,0.146,0.203c0.084,0.135,0.361,0.344,0.1,0.51c-0.108,0.015-0.241,0-0.36-0.11
		c-0.833-0.812-0.979-2.076-0.614-3.158c0.211-0.49,0.689-1.314,1.289-1.287c0.41,0.01,0.166,0.563-0.059,0.785
		C201.447,466.433,201.05,467.722,201.597,468.712 M196.479,464.71c0.067-0.494,0.522-0.846,1.017-0.777l0.801,0.093
		c0.496,0.069,0.854,0.516,0.799,1.016c-0.071,0.502-0.52,0.852-1.016,0.793l-0.807-0.105
		C196.775,465.666,196.419,465.218,196.479,464.71 M197.048,468.333l0.812,0.105c0.487,0.059,0.845,0.508,0.786,0.997
		c-0.07,0.513-0.516,0.859-1.012,0.802l-0.814-0.104c-0.494-0.061-0.854-0.51-0.779-1.01
		C196.096,468.623,196.555,468.273,197.048,468.333 M190.742,465.929l1.385-1.18c0.244-0.209,0.608-0.172,0.812,0.062l1.164,1.394
		c0.214,0.24,0.182,0.611-0.064,0.813l-1.386,1.164c-0.241,0.209-0.604,0.17-0.812-0.065l-1.168-1.392
		C190.466,466.49,190.503,466.115,190.742,465.929 M185.951,464.052c0-0.498,0.394-0.901,0.897-0.901h0.819
		c0.492,0,0.902,0.403,0.902,0.901c0,0.494-0.41,0.912-0.902,0.912h-0.819C186.343,464.964,185.951,464.546,185.951,464.052
		 M186.746,467.49h0.823c0.501,0,0.897,0.408,0.897,0.914c0,0.5-0.396,0.897-0.897,0.897h-0.823c-0.494,0-0.904-0.397-0.904-0.897
		C185.841,467.898,186.251,467.49,186.746,467.49 M176.882,467.652v-4.521c0-0.393,0.311-0.723,0.711-0.723h5.907
		c0.401,0,0.719,0.33,0.719,0.723v4.521c0,0.401-0.315,0.719-0.719,0.719h-5.907C177.193,468.371,176.882,468.056,176.882,467.652
		 M174.811,468.404c0,0.5-0.4,0.897-0.899,0.897h-0.825c-0.492,0-0.901-0.397-0.901-0.897c0-0.506,0.409-0.914,0.901-0.914h0.825
		C174.411,467.49,174.811,467.898,174.811,468.404 M173.813,464.964h-0.82c-0.501,0-0.904-0.418-0.904-0.912
		c0-0.498,0.403-0.901,0.904-0.901h0.82c0.499,0,0.898,0.403,0.898,0.901C174.711,464.546,174.312,464.964,173.813,464.964
		 M166.545,466.205l1.176-1.391c0.209-0.236,0.575-0.273,0.811-0.064l1.381,1.18c0.246,0.188,0.273,0.562,0.073,0.797l-1.171,1.394
		c-0.2,0.233-0.566,0.274-0.812,0.065l-1.384-1.166C166.376,466.816,166.346,466.445,166.545,466.205 M164.619,469.125
		c0.065,0.502-0.289,0.949-0.784,1.01l-0.81,0.104c-0.492,0.061-0.951-0.289-1.008-0.799c-0.07-0.492,0.289-0.941,0.787-0.998
		l0.807-0.107C164.104,468.273,164.552,468.623,164.619,469.125 M163.395,465.726l-0.817,0.105c-0.493,0.061-0.945-0.291-1.01-0.791
		c-0.061-0.5,0.293-0.945,0.786-1.016l0.814-0.095c0.496-0.065,0.952,0.283,1.005,0.777
		C164.24,465.218,163.887,465.666,163.395,465.726 M201.503,473.298c-7.063-0.719-13.881-1.098-21.147-1.117h-0.045
		c-7.283,0.021-14.083,0.398-21.157,1.117c-0.531,0.037-0.884-0.096-0.904-0.332c-0.031-0.307,0.067-0.473,0.296-0.533
		c1.938-0.356,4.095-0.565,6.063-0.711c5.148-0.514,10.42-0.828,15.702-0.828h0.045c5.272,0,10.55,0.314,15.7,0.828
		c1.969,0.146,4.107,0.354,6.051,0.711c0.229,0.062,0.34,0.228,0.303,0.533C202.384,473.203,202.03,473.335,201.503,473.298
		 M180.355,474.531h-0.045c-1.044-0.017-13.831-0.201-15.34-0.617c2.212-0.48,11.844-0.6,15.34-0.607h0.045
		c3.486,0.011,13.123,0.129,15.334,0.607C194.178,474.33,181.393,474.517,180.355,474.531 M158.556,465.652
		c-0.218-0.22-0.459-0.775-0.056-0.785c0.608-0.027,1.079,0.799,1.281,1.287c0.373,1.082,0.226,2.35-0.609,3.157
		c-0.117,0.113-0.253,0.125-0.353,0.113c-0.273-0.166,0.012-0.375,0.094-0.51c0.075-0.084,0.113-0.131,0.148-0.203
		C159.608,467.722,159.215,466.433,158.556,465.652 M157.665,467.429c-0.013,0.166,0.04,0.427-0.062,0.435
		c-0.241,0.006-0.339-0.388-0.425-0.718c-0.019-0.42,0.25-0.762,0.546-0.909c0.124-0.066,0.3-0.054,0.41,0.028
		c0.183,0.134,0.204,0.617,0.048,0.709C158.154,467.039,157.742,467.16,157.665,467.429 M150.101,439.671
		c-0.019-0.172,0.004-0.277,0.09-0.465c0.21-0.572,1.001-1.41,1.316-1.252c0.431,0.192-0.509,1.059,0.256,1.312
		c0.954,0.037,0.886-0.993,1.573-1.396c0.475-0.32,1.081-0.299,1.624-0.195c0.472,0.113,0.586,0.508,0.635,0.83
		c0.057,0.211,0,0.494-0.146,0.648c-0.626,0.356-1.255-0.73-1.837,0.053c-0.342,0.412-0.426,1.113-1.009,1.219
		c-0.329,0.021-0.507-0.27-0.881-0.172c-0.272,0.234-0.669,0.516-1.098,0.387C150.274,440.513,150.133,440.277,150.101,439.671
		 M150.296,448.21c-0.038,0.199-0.241,0.123-0.358,0.076c-0.736-0.572-1.038-1.342-1.387-2.162c-0.212-0.6-0.615-1.047-0.299-1.682
		c0.206-0.468,0.206-0.402,0.379-0.785c0.04-0.146,0.139-0.308,0.006-0.498c-0.665-0.935-0.768-2.953,0.034-3.519
		c0.206-0.149,0.531-0.168,0.419,0.119c-0.295,0.687-0.336,1.529,0.112,2.187c0.497,0.336,0.788,0.955,0.71,1.555
		c-0.014,0.203-0.066,0.381-0.153,0.562c0.148,0.515,0.486,1.171,0.139,1.688c-0.112,0.174-0.334,0.139-0.435,0.238
		C149.846,446.638,150.394,447.408,150.296,448.21 M149.063,450.841c-0.403,0.16-0.749-0.203-0.898-0.463
		c-0.758-1.117-1.441-2.26-1.863-3.5c-0.934-2.473-1.349-5.49-0.184-7.955c0.37-0.94,1.125-1.67,1.898-2.24
		c2.122-1.418,4.867-2.092,7.591-1.452c0.268,0.104,0.792,0.127,0.828,0.59c-0.008,0.196-0.027,0.215-0.119,0.399
		c-0.136,0.283-0.57,0.254-1.21,0.076c-1.712-0.338-3.467-0.119-5.071,0.514c-1.314,0.595-2.792,1.521-3.191,2.976
		c-1.112,3.645,0.365,7.535,2.489,10.381C149.406,450.373,149.463,450.65,149.063,450.841 M157.009,443.523
		c-0.087,0.452-0.246,1.03,0.023,1.401c0.167,0.406,1.102,0.416,0.692,1.019c-0.229,0.692,1.026,1.229,0.458,1.459
		c-0.426,0.088-0.8,0.069-1.456,0.272c-1.031,0.345-1.784,0.902-2.651,1.443c-0.264,0.147-0.493,0.438-0.631,0.707
		c-0.421-0.207-1.065-0.336-1.552-0.299c-0.017-0.363,0.083-0.494,0.017-0.812c-0.037-0.748-0.298-1.412-0.573-2.113
		c0.218-0.743,0.311-1.446,0.043-2.219c-0.209-0.553,0.208-1.26-0.043-1.711c-0.077-0.135,0-0.192,0-0.192
		c0.275-0.212,0.639-0.455,0.974-0.687c0.895,0.168,1.525-0.338,2.087-0.928c0.572,0.194,1.16-0.301,1.598-0.037
		c0.209,0.135,0.472,0.449,0.252,0.711c-0.203,0.408-0.155,1.096,0.142,1.453C156.565,443.226,156.838,443.367,157.009,443.523
		 M159.117,451.521c0.08,0.217,0.101,0.473,0.232,0.682c-0.573,0.479-0.895,1.373-0.726,2.264c0.095,0.797,0.432,1.506,0.716,2.217
		c-0.222,0.043-0.373,0.08-0.589,0.037c0.163-1.42-1.072-4.668-2.828-5.188c-0.403-0.062-0.866,0.108-1.242,0.281
		c-0.198-0.298-0.312-0.479-0.445-0.648c0-0.066,0.062-0.066,0.07-0.098c1.076-1.222,2.309-2.023,4.318-2.367
		c0,0,1.075-0.262,1.584-0.068c0.413,0.271-0.2,0.646-0.509,0.92C159.187,450.121,159.009,450.703,159.117,451.521 M163.181,438.072
		c0.117,0.375-0.528,0.449-0.309,0.875c0.176,0.237,0.223,0.561,0.153,0.846c-0.073,0.273-0.356,0.311-0.522,0.125
		c-0.154-0.209-0.399-0.461-0.706-0.502c-0.192,0-0.322,0.084-0.395,0.219c-0.147,0.418,0.771,1.232,1.045,1.904
		c0.237,0.521,0.734,1.135,0.216,1.646c0.04,0.572,0.598,1.191,0.163,1.66c-0.456,0.15-1.276-1.485-1.25-1.942
		c0.093-1.104-0.907-1.636-1.098-2.648c-0.141-0.912-0.247-1.723,0.128-2.531c0.094-0.186,0.22-0.246,0.393-0.268
		c0.283-0.045,0.369,0.268,0.643,0.164c0.392-0.502-0.144-1.041,0.133-1.633c0.152-0.607,0.657-1.199,1.25-1.363
		c0.273-0.031,0.453,0.17,0.445,0.312c-0.027,0.543-0.635,0.681-0.745,1.185C162.503,436.796,162.835,437.521,163.181,438.072
		 M158.011,438.328c0.313-2.51,1.508-5.295,4.135-6.103c0.129-0.055,0.33-0.11,0.486-0.166c2.173-0.61,4.474,0.025,6.489,0.859
		c1.663,0.574,3.464,1.06,5.234,1.381c0.24,0.039,0.518,0.099,0.649,0.354c0.072,0.17,0.103,0.481-0.035,0.633
		c-0.298,0.404-0.527,0.262-1.239,0.092c-2.522-0.629-5.037-1.412-7.454-2.252c-1.5-0.506-4.679-0.137-5.943,1.697
		c-0.317,0.348-0.552,0.813-0.754,1.262c-0.71,1.937-0.956,4.467-0.092,6.461c0.65,1.711,1.555,3.131,2.75,4.537
		c0.112,0.221,0.141,0.451-0.064,0.631c-0.166,0.107-0.259,0.226-0.531,0.133c-0.588-0.297-1.072-0.983-1.44-1.545
		c-1.326-1.92-2.178-4.34-2.244-6.594C157.954,439.375,157.98,438.4,158.011,438.328 M164.268,436.388
		c-0.078-0.401,0.049-0.645,0.098-0.764c0.229-0.545,0.812-1.324,1.308-1.227c0.356,0.157-0.017,0.641,0.306,0.852
		c0.46-0.021,0.812-0.387,1.311-0.238c0.449,0.238,0.958,0.289,1.459,0.418c0.143,0.08,0.251,0.275,0.171,0.435
		c-0.207,0.407-0.669,0.528-1.098,0.545c-0.506,0.021-0.655-0.314-1.023-0.289c-0.992,0.434-0.917,1.844-1.928,2.133
		c-0.253,0.016-0.499-0.066-0.559-0.332C164.043,437.423,164.499,436.863,164.268,436.388 M175.157,449.035
		c-0.246,0.227-0.577,0.307-0.829,0.483c-1.6,0.968-1.806,3.306-1.56,5.104c0.066,0.322,0.1,0.73,0.245,1.066
		c-0.155,0.067-0.392-0.089-0.531-0.209c-0.193-0.218-0.533-0.554-0.893-0.478c-0.548,0.117-0.639,0.832-1.127,1.021
		c-0.032-0.017,0.036-3.82-0.928-5.228c-0.441-0.588-1.202-1.223-2.09-1.178c-0.307-0.721-0.762-1.43-1.561-1.652
		c-0.659-0.217-1.922,0-2.056-0.307c-0.176-0.578,0.413-0.621,0.712-0.847c1.312-0.743,2.302-1.241,4.604-1.09
		c1.108,0.084,2.04,0.355,3.112,0.494c1.117,0.188,1.75,0.291,3.095,0.412c0.268,0.014,0.19,0.037,0.559,0.088
		C175.403,447.445,174.978,448.08,175.157,449.035 M175.809,444.718c0.074,0.287,0.074,0.287,0.11,0.517
		c-1.368-0.045-2.727-0.275-4.019-0.437c-1.979-0.317-4.173-0.967-6.136-0.057c-0.391,0.129-0.786,0.321-1.169,0.471
		c-0.083-0.285-0.083-0.285-0.105-0.414c0,0-0.222-0.928-0.274-1.416c0.237-0.521,0.052-1.238-0.161-1.664
		c0.318-0.594,0.601-1.188,0.617-1.926c0.187-0.293,0.591-0.174,0.874-0.307c0.61-0.25,1.078-0.785,1.356-1.367
		c0.487-0.211,0.974-0.088,1.613-0.248c0.526-0.148,0.684-0.209,0.947-0.416c0.288-0.178,0.561-0.994,1.193-0.771
		c0.934,0.138,2.086,0.275,3.121,0.148c0.201-0.035,0.36-0.066,0.651,0c-0.099,0.754-0.016,1.479,0.215,2.137
		c-0.28,0.65-0.187,1.375,0.185,1.951c-0.305,1.119-0.635,2.715,0.453,3.545C175.45,444.533,175.65,444.636,175.809,444.718
		 M176.943,434.8c0.231-0.27,0.306-0.297,0.506-0.373c0.2-0.028,0.342,0.076,0.423,0.228c0.145,0.746-0.436,1.396-0.765,2.098
		c-0.071,0.195,0.022,0.365,0.229,0.346c0.227-0.021,0.467-0.227,0.681-0.061c0.203,0.135,0.181,0.209,0.104,0.344
		c-0.271,0.641,0.42,1.338-0.095,1.842c-0.377,0.613-0.777,1.851-0.755,1.996c0.014,0.146-0.022,0.285,0.215,0.381
		c0.225,0,0.493-0.229,0.702,0.119c0.232,0.695,0.268,1.545,0.154,2.324c-0.094,0.395-0.144,0.527-0.363,0.609
		c-0.357,0.016-0.33-0.289-0.386-0.484c-0.083-0.418,0.056-0.971-0.365-1.24c-0.34-0.014-0.578,0.441-0.919,0.107
		c-0.345-0.486-0.084-1.578-0.007-1.756c0.116-0.449,0.498-0.728,0.312-1.158c-0.241-0.262-0.225-0.67-0.225-0.965
		c-0.036-0.354,0.4-0.439,0.172-0.791c-0.305-0.113-0.494-1.021-0.494-1.148C176.054,436.55,176.65,435.3,176.943,434.8
		 M176.714,428.384c0.332-0.932,0.862-1.444,1.761-1.854c0.277-0.125,0.475-0.082,0.475-0.082v2.471c0,0-1.393,0.18-2.193,0.24
		C176.544,428.945,176.645,428.65,176.714,428.384 M180.318,433.554h-0.004h0.01H180.318h0.029h-0.01h0.01
		c1.076,0.021,0.803,2.547,0.803,5.652c0,3.117,0.332,5.639-0.803,5.664h-0.029c-1.144-0.025-0.812-2.547-0.812-5.664
		C179.506,436.101,179.24,433.576,180.318,433.554 M180.311,431.324h0.045c1.037,0,2.093,0.057,3.142,0.139
		c0.25,0.031,0.451,0.24,0.397,0.523c-0.054,0.194-0.213,0.328-0.386,0.342c-1.067-0.08-2.094-0.023-3.153-0.023h-0.045
		c-1.062,0-2.09-0.057-3.153,0.023c-0.187-0.014-0.343-0.146-0.392-0.342c-0.058-0.283,0.142-0.492,0.398-0.523
		C178.205,431.38,179.27,431.324,180.311,431.324 M181.708,426.445c0,0,0.199-0.043,0.481,0.084c0.886,0.41,1.429,0.924,1.748,1.854
		c0.085,0.267,0.172,0.562-0.038,0.771c-0.807-0.062-2.191-0.24-2.191-0.24V426.445z M184.27,439.154
		c0,0.295,0.015,0.703-0.226,0.965c-0.188,0.434,0.201,0.711,0.314,1.16c0.064,0.178,0.333,1.268-0.01,1.754
		c-0.348,0.334-0.576-0.121-0.919-0.105c-0.419,0.271-0.282,0.82-0.372,1.24c-0.047,0.195-0.02,0.5-0.376,0.484
		c-0.226-0.082-0.269-0.218-0.366-0.611c-0.111-0.779-0.083-1.629,0.153-2.322c0.213-0.35,0.479-0.121,0.696-0.121
		c0.244-0.096,0.203-0.233,0.207-0.381c0.037-0.146-0.361-1.381-0.742-1.994c-0.521-0.506,0.173-1.2-0.092-1.844
		c-0.082-0.135-0.101-0.209,0.105-0.342c0.21-0.168,0.443,0.037,0.669,0.059c0.214,0.021,0.31-0.147,0.235-0.346
		c-0.329-0.699-0.904-1.352-0.762-2.096c0.082-0.15,0.223-0.256,0.414-0.228c0.207,0.076,0.271,0.104,0.508,0.371
		c0.293,0.502,0.89,1.752,0.867,2.416c0,0.127-0.184,1.035-0.484,1.148C183.873,438.716,184.291,438.802,184.27,439.154
		 M184.85,444.718c0.155-0.082,0.353-0.186,0.528-0.254c1.088-0.828,0.756-2.426,0.451-3.545c0.375-0.576,0.457-1.301,0.182-1.949
		c0.24-0.655,0.318-1.383,0.222-2.137c0.286-0.066,0.453-0.037,0.647,0c1.037,0.125,2.193-0.014,3.127-0.15
		c0.632-0.223,0.896,0.595,1.186,0.771c0.264,0.209,0.434,0.268,0.955,0.416c0.637,0.162,1.113,0.039,1.604,0.248
		c0.279,0.582,0.744,1.117,1.359,1.367c0.277,0.135,0.688,0.016,0.876,0.307c0.007,0.738,0.296,1.334,0.618,1.926
		c-0.223,0.426-0.402,1.146-0.162,1.664c-0.061,0.49-0.271,1.418-0.271,1.418c-0.021,0.127-0.021,0.127-0.105,0.414
		c-0.382-0.147-0.777-0.342-1.177-0.471c-1.957-0.912-4.152-0.265-6.144,0.057c-1.283,0.158-2.64,0.39-4.006,0.437
		C184.776,445.005,184.776,445.005,184.85,444.718 M194.985,434.398c0.493-0.099,1.08,0.682,1.308,1.227
		c0.051,0.119,0.166,0.361,0.09,0.764c-0.223,0.478,0.225,1.035-0.039,1.531c-0.061,0.264-0.303,0.348-0.557,0.33
		c-1.019-0.287-0.938-1.699-1.929-2.131c-0.362-0.025-0.515,0.311-1.022,0.289c-0.438-0.017-0.887-0.14-1.101-0.545
		c-0.083-0.158,0.031-0.355,0.17-0.437c0.5-0.127,1.015-0.178,1.464-0.418c0.5-0.146,0.853,0.219,1.312,0.24
		C194.996,435.039,194.628,434.558,194.985,434.398 M186.33,449.519c-0.256-0.178-0.58-0.258-0.83-0.483
		c0.18-0.953-0.235-1.588-0.746-2.312c0.358-0.053,0.285-0.073,0.545-0.088c1.35-0.121,1.99-0.227,3.106-0.414
		c1.076-0.139,2.003-0.41,3.112-0.492c2.301-0.153,3.297,0.345,4.598,1.091c0.309,0.225,0.891,0.266,0.717,0.846
		c-0.136,0.305-1.398,0.09-2.062,0.305c-0.788,0.228-1.256,0.935-1.558,1.652c-0.883-0.045-1.653,0.592-2.09,1.18
		c-0.963,1.404-0.895,5.211-0.922,5.228c-0.496-0.188-0.584-0.902-1.127-1.021c-0.367-0.076-0.71,0.26-0.894,0.479
		c-0.146,0.118-0.38,0.276-0.546,0.209c0.158-0.336,0.188-0.746,0.25-1.068C188.134,452.824,187.931,450.486,186.33,449.519
		 M198.203,441.539c0.28-0.672,1.196-1.486,1.051-1.904c-0.075-0.135-0.205-0.219-0.393-0.219c-0.312,0.041-0.561,0.293-0.701,0.502
		c-0.173,0.188-0.455,0.148-0.531-0.125c-0.073-0.283-0.015-0.607,0.158-0.846c0.223-0.426-0.422-0.5-0.312-0.875
		c0.347-0.551,0.687-1.275,0.455-1.953c-0.108-0.504-0.712-0.641-0.743-1.185c-0.01-0.143,0.18-0.344,0.441-0.312
		c0.592,0.164,1.106,0.756,1.256,1.363c0.267,0.592-0.26,1.131,0.138,1.633c0.267,0.104,0.354-0.209,0.636-0.164
		c0.174,0.02,0.303,0.082,0.389,0.268c0.373,0.81,0.273,1.619,0.127,2.531c-0.182,1.016-1.188,1.545-1.094,2.648
		c0.037,0.457-0.793,2.094-1.254,1.942c-0.436-0.469,0.123-1.088,0.168-1.66C197.475,442.673,197.962,442.06,198.203,441.539
		 M185.651,434.654c0.132-0.256,0.413-0.312,0.646-0.354c1.777-0.322,3.574-0.807,5.238-1.381c2.016-0.834,4.31-1.473,6.492-0.859
		c0.146,0.056,0.355,0.111,0.482,0.166c2.615,0.808,3.818,3.593,4.139,6.103c0.027,0.072,0.053,1.047,0.046,1.381
		c-0.077,2.254-0.915,4.674-2.235,6.594c-0.359,0.562-0.849,1.248-1.438,1.545c-0.271,0.093-0.369-0.024-0.538-0.133
		c-0.196-0.18-0.183-0.41-0.069-0.631c1.211-1.406,2.102-2.826,2.758-4.537c0.858-1.994,0.617-4.525-0.092-6.461
		c-0.211-0.447-0.447-0.914-0.752-1.262c-1.272-1.834-4.447-2.203-5.943-1.697c-2.42,0.84-4.932,1.623-7.463,2.252
		c-0.693,0.17-0.935,0.312-1.238-0.092C185.544,435.138,185.582,434.824,185.651,434.654 M201.903,456.72
		c-0.211,0.043-0.375,0.006-0.586-0.037c0.284-0.711,0.626-1.42,0.713-2.217c0.179-0.891-0.151-1.781-0.721-2.264
		c0.128-0.209,0.149-0.465,0.219-0.683c0.13-0.817-0.06-1.399-0.569-1.971c-0.31-0.272-0.932-0.649-0.502-0.92
		c0.502-0.193,1.58,0.068,1.58,0.068c2.006,0.344,3.236,1.146,4.315,2.364c0.007,0.031,0.069,0.031,0.069,0.101
		c-0.137,0.17-0.248,0.352-0.443,0.646c-0.383-0.17-0.834-0.342-1.246-0.278C202.974,452.052,201.744,455.3,201.903,456.72
		 M203.63,444.927c0.267-0.371,0.108-0.949,0.018-1.401c0.174-0.156,0.441-0.3,0.622-0.531c0.292-0.357,0.347-1.045,0.142-1.453
		c-0.218-0.262,0.045-0.576,0.254-0.711c0.438-0.264,1.017,0.231,1.594,0.037c0.564,0.59,1.191,1.096,2.091,0.928
		c0.337,0.23,0.7,0.475,0.978,0.687c0,0,0.075,0.061,0,0.192c-0.258,0.451,0.155,1.158-0.048,1.711
		c-0.274,0.771-0.179,1.476,0.048,2.219c-0.271,0.701-0.533,1.365-0.576,2.113c-0.062,0.318,0.039,0.449,0.015,0.812
		c-0.483-0.037-1.13,0.092-1.552,0.299c-0.129-0.271-0.36-0.56-0.627-0.707c-0.867-0.541-1.623-1.103-2.65-1.443
		c-0.657-0.203-1.027-0.188-1.456-0.272c-0.567-0.229,0.687-0.767,0.458-1.459C202.529,445.341,203.455,445.332,203.63,444.927
		 M217.106,443.181c0.349-0.354,0.575-0.85,0.575-1.389c0-0.688-0.355-1.279-0.881-1.627c0.191-0.318,0.309-0.68,0.309-1.062
		c0-0.946-0.665-1.731-1.559-1.92l0.031-0.065c0.021-0.127,0.035-0.26,0.035-0.396c0-1.08-0.873-1.955-1.945-1.955
		c-0.16,0-0.312,0.023-0.452,0.054l-0.005-0.029c-0.252-0.783-0.993-1.354-1.863-1.354c-0.297,0-0.577,0.07-0.834,0.199
		l-0.018-0.033c-0.35-0.521-0.944-0.854-1.621-0.854c-0.408,0-0.78,0.117-1.094,0.326l-0.033-0.021
		c-0.311-0.219-0.688-0.336-1.097-0.336c-0.638,0-1.192,0.31-1.557,0.769c-0.341-0.283-0.782-0.459-1.267-0.459
		c-0.205,0-0.416,0.032-0.605,0.086c-0.146-0.927-0.952-1.636-1.926-1.636c-0.196,0-0.396,0.031-0.567,0.082l-0.022-0.016
		c0-1.078-0.871-1.949-1.953-1.949c-0.555,0-1.062,0.23-1.418,0.605l-0.006-0.029c-0.356-0.525-0.951-0.869-1.623-0.869
		c-0.728,0-1.362,0.4-1.688,0.982l-0.017,0.012c-0.318-0.246-0.732-0.387-1.168-0.387c-0.769,0-1.414,0.438-1.748,1.071l-0.08-0.008
		c-0.123-0.026-0.258-0.037-0.379-0.037c-0.701,0-1.308,0.361-1.657,0.902c-0.158-0.051-0.328-0.072-0.509-0.072
		c-0.674,0-1.267,0.354-1.617,0.873l-0.043-0.006c-0.305-0.195-0.678-0.313-1.074-0.313c-0.141,0-0.275,0.014-0.404,0.034
		l-0.012-0.063c0.064-0.195,0.127-0.398,0.173-0.605l0.009,0.015c0.354-0.244,0.578-0.662,0.578-1.123
		c0-0.428-0.188-0.801-0.492-1.047v0.008c-0.25-1.812-1.312-3.354-2.806-4.271l0.007,0.035c-0.15-0.619-0.486-0.971-1.072-1.147
		c0.012-0.291-0.002-1.123-0.002-1.123l1.312-0.017c0,0.748,0.612,1.361,1.369,1.361c0.67,0,1.241-0.5,1.339-1.152h0.025
		c0.617-0.127,1.096-0.678,1.096-1.336c0-0.68-0.506-1.237-1.148-1.344h0.024c-0.134-0.613-0.687-1.082-1.336-1.082
		c-0.716,0-1.308,0.551-1.359,1.256h-1.319v-1.434h0.033c0.61-0.146,1.07-0.689,1.07-1.338c0-0.666-0.475-1.228-1.104-1.34
		l-0.043-0.039c-0.123-0.607-0.669-1.076-1.317-1.089h-0.029c-0.659,0.013-1.198,0.479-1.322,1.089l-0.046,0.039
		c-0.629,0.112-1.104,0.674-1.104,1.34c0,0.646,0.459,1.19,1.074,1.338h0.03v1.434h-1.317c-0.065-0.705-0.646-1.256-1.358-1.256
		c-0.662,0-1.205,0.469-1.337,1.082h0.021c-0.647,0.104-1.14,0.664-1.14,1.344c0,0.658,0.464,1.209,1.088,1.336h0.025
		c0.097,0.652,0.658,1.152,1.343,1.152c0.752,0,1.361-0.613,1.361-1.361l1.314,0.017c0,0-0.016,0.832-0.006,1.123
		c-0.576,0.178-0.918,0.528-1.072,1.147l0.007-0.035c-1.49,0.914-2.554,2.459-2.796,4.271l-0.007-0.008
		c-0.298,0.246-0.496,0.619-0.496,1.047c0,0.461,0.231,0.879,0.592,1.123v-0.015c0.044,0.207,0.103,0.41,0.163,0.605v0.063
		c-0.133-0.021-0.265-0.034-0.411-0.034c-0.394,0-0.762,0.118-1.074,0.313l-0.031,0.006c-0.352-0.52-0.951-0.873-1.633-0.873
		c-0.172,0-0.338,0.021-0.509,0.072c-0.337-0.541-0.945-0.902-1.635-0.902c-0.135,0-0.265,0.011-0.398,0.037l-0.08,0.008
		c-0.329-0.633-0.985-1.071-1.746-1.071c-0.436,0-0.844,0.141-1.171,0.387l-0.013-0.012c-0.329-0.582-0.96-0.982-1.685-0.982
		c-0.681,0-1.278,0.344-1.624,0.869l-0.012,0.029c-0.358-0.375-0.86-0.605-1.415-0.605c-1.081,0-1.954,0.871-1.954,1.949
		l-0.02,0.016c-0.183-0.051-0.365-0.082-0.565-0.082c-0.982,0-1.781,0.709-1.937,1.636c-0.187-0.054-0.39-0.086-0.6-0.086
		c-0.485,0-0.928,0.176-1.265,0.459c-0.361-0.459-0.93-0.769-1.561-0.769c-0.407,0-0.773,0.117-1.09,0.336l-0.032,0.021
		c-0.311-0.209-0.69-0.326-1.099-0.326c-0.672,0-1.263,0.334-1.615,0.854l-0.013,0.033c-0.258-0.129-0.542-0.199-0.844-0.199
		c-0.862,0-1.597,0.57-1.86,1.354l-0.004,0.029c-0.144-0.029-0.293-0.054-0.45-0.054c-1.081,0-1.95,0.875-1.95,1.955
		c0,0.14,0.007,0.271,0.041,0.396l0.029,0.065c-0.893,0.188-1.559,0.974-1.559,1.92c0,0.384,0.113,0.744,0.316,1.062h-0.004
		c-0.536,0.348-0.885,0.938-0.885,1.627c0,0.539,0.217,1.031,0.573,1.389l-0.012,0.007c-0.246,0.284-0.388,0.645-0.388,1.038
		c0,0.63,0.36,1.164,0.885,1.421l0.008,0.006c-0.079,0.192-0.138,0.41-0.138,0.639c0,0.693,0.459,1.289,1.085,1.506l0.007-0.014
		c-0.08,0.192-0.13,0.418-0.13,0.643c0,0.672,0.418,1.24,1.016,1.47c-0.021,0.112-0.031,0.229-0.031,0.336
		c0,0.741,0.509,1.366,1.195,1.53l0.053,0.09c-0.104,0.203-0.163,0.425-0.163,0.658c0,0.785,0.641,1.418,1.412,1.418
		c0.322,0,0.613-0.104,0.849-0.282l0.015,0.036c0.947,0.562,1.546,1.562,2.053,2.515v0.094c-0.133,0.238-0.213,0.514-0.213,0.807
		c0,0.875,0.706,1.582,1.581,1.582c0.074,0,0.135-0.008,0.204-0.012c0,0,1.764,2.314,2.737,3.328h-0.009
		c-0.297,0.262-0.483,0.645-0.483,1.066c0,0.729,0.555,1.344,1.261,1.42l0.203,1.143c-0.292,0.478-0.463,1.025-0.476,1.615
		c-0.019,1.268,0.702,2.42,1.751,2.947l0.032,1.396c0,0-0.627,0.32-0.829,0.65c-0.133,0.217-0.216,0.477-0.225,0.748
		c-0.007,0.582,0.323,1.088,0.803,1.344c0,0,0.62,0.469,2.244,0.695c5.304,0.698,10.571,0.983,16.099,1.17
		c1.44,0.022,2.901,0.036,4.365,0.036h0.045c1.463,0,2.921-0.014,4.357-0.036c5.521-0.187,10.789-0.472,16.102-1.17
		c1.62-0.228,2.242-0.695,2.242-0.695c0.48-0.256,0.807-0.762,0.793-1.344c0-0.271-0.075-0.531-0.21-0.748
		c-0.198-0.33-0.834-0.65-0.834-0.65l0.028-1.396c1.057-0.527,1.771-1.683,1.742-2.947c-0.01-0.59-0.173-1.14-0.465-1.615
		l0.198-1.143c0.712-0.076,1.256-0.688,1.256-1.42c0-0.425-0.183-0.808-0.479-1.066h-0.008c0.975-1.014,2.74-3.328,2.74-3.328
		c0.068,0.004,0.135,0.012,0.205,0.012c0.87,0,1.575-0.707,1.575-1.582c0-0.293-0.079-0.567-0.22-0.807v-0.094
		c0.521-0.951,1.104-1.949,2.062-2.515l0.015-0.036c0.231,0.182,0.532,0.282,0.844,0.282c0.783,0,1.416-0.633,1.416-1.418
		c0-0.233-0.057-0.455-0.163-0.658l0.055-0.09c0.681-0.164,1.202-0.789,1.202-1.53c0-0.107-0.014-0.224-0.045-0.336
		c0.6-0.229,1.023-0.798,1.023-1.47c0-0.225-0.055-0.449-0.135-0.643l0.012,0.014c0.633-0.217,1.08-0.812,1.08-1.506
		c0-0.229-0.045-0.445-0.138-0.639l0.009-0.006c0.531-0.257,0.893-0.791,0.893-1.421c0-0.395-0.146-0.754-0.393-1.038
		L217.106,443.181z"/>
	<path fill="#FFFFFF" d="M181.655,463.121c0.687,0,0.949,0.285,0.729,0.516c-0.521,0.328-1.447,1.008-1.447,1.008h-0.46
		c-1.012,0-1.364,0-1.364,0.39c-0.013,0.309,0,0.065,0,0.51c-0.403,0.279-1.486,1.135-1.486,1.135v-2.887c0,0,0.188-0.67,0.792-0.67
		L181.655,463.121"/>
	<polygon fill="#FFFFFF" points="182.542,466.677 179.975,466.677 182.542,464.89 	"/>
	<path fill="#FFFFFF" d="M180.374,454.472c-1.185-0.026-1.343-0.27-1.343-1.268c0-1.049,0.158-1.248,1.343-1.287h0.056
		c1.184,0.049,1.342,0.268,1.342,1.287c0,1.039-0.158,1.238-1.342,1.268H180.374z"/>
	<path fill="#FFFFFF" d="M196.009,455.039c-0.844-0.283-0.914-0.479-0.696-1.215c0.22-0.75,0.376-0.859,1.243-0.646l0.035,0.025
		c0.853,0.268,0.918,0.475,0.703,1.207c-0.23,0.748-0.379,0.865-1.238,0.635L196.009,455.039z"/>
	<path fill="#FFFFFF" d="M164.957,455.039c0.843-0.283,0.91-0.479,0.69-1.215c-0.219-0.75-0.379-0.859-1.238-0.646l-0.043,0.025
		c-0.851,0.268-0.914,0.475-0.696,1.207c0.227,0.748,0.373,0.865,1.237,0.635L164.957,455.039z"/>
	<polygon fill="#FFFFFF" points="145.498,4.56 138.825,4.56 138.825,0 157.325,0 157.325,4.56 150.651,4.56 150.651,23.39 
		145.498,23.39 	"/>
	<polygon fill="#FFFFFF" points="169.185,0 174.338,0 174.338,8.722 184.348,8.722 184.348,0 189.501,0 189.501,23.39 
		184.348,23.39 184.348,13.281 174.338,13.281 174.338,23.39 169.185,23.39 	"/>
	<polygon fill="#FFFFFF" points="203.707,0 219.598,0 219.598,4.757 208.86,4.757 208.86,9.119 219.003,9.119 219.003,13.876 
		208.86,13.876 208.86,18.633 220.191,18.633 220.191,23.39 203.707,23.39 	"/>
	<path fill="#FFFFFF" d="M148.967,48.465h4.262l10.175,23.39h-5.815l-2.015-4.955h-9.085l-1.949,4.955h-5.682L148.967,48.465z
		 M150.949,55.271l-2.841,7.268h5.715L150.949,55.271z"/>
	<path fill="#FFFFFF" d="M175,48.465h9.05c4.791,0,8.822,1.652,8.822,7.104c0,3.27-1.752,5.814-5.056,6.408l5.946,9.878h-6.18
		l-4.89-9.35h-2.544v9.35H175V48.465z M180.153,58.145h3.04c1.883,0,4.327-0.066,4.327-2.61c0-2.345-2.114-2.708-3.997-2.708h-3.37
		V58.145z"/>
	<polygon fill="#FFFFFF" points="209.589,53.025 202.916,53.025 202.916,48.465 221.416,48.465 221.416,53.025 214.744,53.025 
		214.744,71.855 209.589,71.855 	"/>
	<path fill="#FFFFFF" d="M80.581,96.93h8.688c4.857,0,8.887,1.553,8.887,7.102c0,5.485-3.734,7.169-8.656,7.169h-3.766v9.118h-5.153
		V96.93z M85.734,106.841h3.436c1.817,0,3.634-0.628,3.634-2.809c0-2.411-2.445-2.742-4.427-2.742h-2.643V106.841z"/>
	<path fill="#FFFFFF" d="M110.643,96.93h9.052c4.79,0,8.821,1.652,8.821,7.103c0,3.27-1.751,5.814-5.054,6.409l5.946,9.877h-6.177
		l-4.89-9.349h-2.544v9.349h-5.154V96.93z M115.797,106.61h3.04c1.883,0,4.327-0.066,4.327-2.61c0-2.345-2.114-2.709-3.997-2.709
		h-3.37V106.61z"/>
	<path fill="#FFFFFF" d="M152.666,96.335c7.301,0,12.619,4.791,12.619,12.29s-5.318,12.289-12.619,12.289
		s-12.619-4.79-12.619-12.289S145.364,96.335,152.666,96.335 M152.666,116.157c4.394,0,7.268-3.171,7.268-7.532
		s-2.874-7.533-7.268-7.533s-7.268,3.172-7.268,7.533S148.271,116.157,152.666,116.157"/>
	<path fill="#FFFFFF" d="M190.128,112.49c0,4.328-1.123,8.424-7.467,8.424c-3.701,0-6.41-1.717-7.167-5.451l4.724-1.156
		c0.132,1.123,1.188,2.049,2.312,2.049c2.411,0,2.444-2.677,2.444-4.427V96.93h5.154V112.49L190.128,112.49z"/>
	<polygon fill="#FFFFFF" points="203.971,96.93 219.861,96.93 219.861,101.687 209.125,101.687 209.125,106.048 219.267,106.048 
		219.267,110.805 209.125,110.805 209.125,115.562 220.457,115.562 220.457,120.319 203.971,120.319 	"/>
	<path fill="#FFFFFF" d="M249.13,103.008c-1.021-1.222-2.51-1.916-4.426-1.916c-3.897,0-6.771,3.171-6.771,7.533
		c0,4.36,2.874,7.532,6.605,7.532c2.082,0,3.768-0.925,4.822-2.511l4.297,3.204c-1.949,2.776-5.255,4.064-8.457,4.064
		c-7.303,0-12.619-4.79-12.619-12.289s5.316-12.29,12.619-12.29c2.608,0,5.911,0.892,7.896,3.436L249.13,103.008z"/>
	<polygon fill="#FFFFFF" points="270.208,101.489 263.537,101.489 263.537,96.93 282.037,96.93 282.037,101.489 275.362,101.489 
		275.362,120.319 270.208,120.319 	"/>
	<rect x="157.578" y="198.845" fill="#FFFFFF" width="45.38" height="2.011"/>
</g>
</svg>
