<svg id="Layer_1" xmlns="http://www.w3.org/2000/svg" width="20" height="24.143"><path d="M10 4.035c-1.593 0-3.09.62-4.218 1.747-2.325 2.326-2.325 6.11 0 8.436C6.91 15.344 8.407 15.965 10 15.965s3.09-.62 4.218-1.747c2.325-2.325 2.325-6.11 0-8.436C13.09 4.656 11.593 4.035 10 4.035"/><path d="M17.07 2.93C13.166-.977 6.834-.977 2.928 2.93c-3.905 3.903-3.905 10.235 0 14.14L10 24.143l7.07-7.07c3.907-3.906 3.907-10.238 0-14.143m-2.145 11.994c-1.315 1.315-3.063 2.04-4.925 2.04-1.86 0-3.61-.725-4.925-2.04-2.715-2.715-2.715-7.133 0-9.85C6.39 3.76 8.14 3.034 10 3.034c1.86 0 3.61.726 4.925 2.04 2.716 2.717 2.716 7.135 0 9.85"/></svg>