<svg id="Layer_1" xmlns="http://www.w3.org/2000/svg" width="798.029" height="256"><path fill="#1D1D1B" d="M118.113 242.95v5.493h-2.64l.002-13.005h4.495c3.51 0 5.062 1.344 5.062 3.628 0 2.188-1.437 3.332-4.046 3.562.376.345.81.842 1.305 1.364l4.09 4.45h-3.306l-4.96-5.493zm.005-1.654h1.597c1.826 0 2.875-.81 2.875-2.154 0-1.312-1.054-1.96-2.97-1.96h-1.502v4.114zM195.088 242.95v5.493h-2.64v-13.005h4.497c3.51 0 5.062 1.344 5.062 3.628 0 2.188-1.438 3.332-4.047 3.562.378.345.812.842 1.307 1.364l4.088 4.45h-3.305l-4.962-5.493zm.006-1.654h1.595c1.828 0 2.875-.81 2.875-2.154 0-1.312-1.054-1.96-2.967-1.96h-1.504v4.114zM289.84 242.943v5.495h-2.64l.003-13.007h4.494c3.51 0 5.062 1.345 5.062 3.627 0 2.19-1.438 3.337-4.047 3.562.376.35.81.846 1.305 1.362l4.09 4.456H294.8l-4.96-5.495zm.005-1.656h1.598c1.827 0 2.875-.81 2.875-2.146 0-1.317-1.054-1.966-2.97-1.966h-1.503v4.113zM692.063 242.943v5.495h-2.64V235.43h4.495c3.514 0 5.062 1.345 5.062 3.627 0 2.19-1.436 3.337-4.045 3.562.377.35.812.846 1.307 1.362l4.088 4.456h-3.307l-4.96-5.495zm.006-1.656h1.597c1.824 0 2.875-.81 2.875-2.146 0-1.317-1.055-1.966-2.97-1.966h-1.503v4.113zM180.11 248.62c-4.902 0-7.194-2.708-7.194-6.536 0-4.275 3.54-6.79 7.657-6.79 4.44 0 7.283 2.263 7.283 6.538 0 4.328-3.482 6.79-7.747 6.79m.26-11.388c-2.465 0-4.643 1.615-4.643 4.65 0 2.636 1.248 4.773 4.555 4.773 2.64 0 4.73-1.543 4.73-4.627 0-3.132-1.8-4.796-4.643-4.796M234.487 248.62c-4.903 0-7.194-2.708-7.194-6.536 0-4.275 3.54-6.79 7.658-6.79 4.44 0 7.284 2.263 7.284 6.538 0 4.328-3.483 6.79-7.747 6.79m.26-11.388c-2.465 0-4.642 1.615-4.642 4.65 0 2.636 1.248 4.773 4.554 4.773 2.642 0 4.73-1.543 4.73-4.627 0-3.132-1.8-4.796-4.643-4.796M570.618 248.607c-4.9 0-7.192-2.712-7.192-6.54 0-4.275 3.54-6.79 7.66-6.79 4.438 0 7.28 2.26 7.28 6.54.002 4.33-3.482 6.79-7.748 6.79m.264-11.39c-2.465 0-4.643 1.615-4.643 4.65 0 2.637 1.245 4.772 4.554 4.772 2.643 0 4.73-1.542 4.73-4.626.002-3.132-1.797-4.797-4.642-4.797M603.48 248.436v-12.992h6.14c4.44 0 7.285 2.23 7.285 6.377 0 4.202-3.483 6.616-7.748 6.616h-5.677zm2.67-11.243v9.405h3.18c2.642 0 4.73-1.59 4.73-4.583 0-3.04-1.797-4.822-4.643-4.822h-3.268zM483.165 248.602c-4.903 0-7.194-2.71-7.194-6.54 0-4.274 3.542-6.79 7.663-6.79 4.438 0 7.278 2.264 7.278 6.54 0 2.384-1.053 4.198-2.71 5.35 0 0 .836.2 2.05.33 2.08.23 3.335.014 3.335.014v1.993s-1.44.21-2.418.124c-2.342-.2-5.377-.926-6.09-.95l-1.912-.072m.262-11.39c-2.465 0-4.645 1.614-4.645 4.65 0 2.64 1.25 4.77 4.56 4.77 2.64 0 4.73-1.537 4.73-4.623 0-3.133-1.802-4.798-4.645-4.798M168.548 235.428h2.755l-5.338 8.482v4.54h-2.64v-4.517l-5.25-8.505h2.928l3.75 5.865zM407.497 235.423h2.756l-5.338 8.48v4.54h-2.64v-4.515l-5.25-8.505h2.93l3.75 5.864zM87.766 244.03v4.413h-2.64v-13.005h4.612c3.656 0 5.537 1.544 5.537 4.056 0 2.783-2.288 4.55-6.118 4.55l-1.39-.013zm-.02-1.91h1.47c2.232 0 3.51-.878 3.51-2.57 0-1.388-1.102-2.384-3.277-2.384h-1.702v4.955zM146.13 248.44v-13.01h8.53v1.775h-5.888v3.682h5.54v1.722h-5.54v4.003h5.89v1.828zM274.14 248.428V235.42h8.528v1.775h-5.888v3.68h5.543v1.725h-5.543v4.004h5.888v1.824zM360.143 248.43v-13.007h8.53v1.774h-5.888v3.68h5.542v1.727h-5.542v4.003h5.888v1.824zM620.915 248.43v-13.007h8.53v1.774h-5.89v3.68h5.542v1.727h-5.543v4.003h5.89v1.824zM511.72 248.428V235.42h8.53v1.775h-5.888v3.68h5.54v1.725h-5.54v4.004h5.89v1.824zM524.812 248.428V235.42h8.532v1.775h-5.892v3.68h5.543v1.725h-5.543v4.004h5.892v1.824zM453.036 248.43v-13.007h8.53v1.774h-5.888v3.68h5.542v1.727h-5.542v4.003h5.887v1.824zM582.495 248.43v-13.007h8.53v1.774h-5.89v3.68h5.543v1.727h-5.542v5.824zM540.296 248.436h-2.553v-12.993h3.482l7.25 9.92.003-9.92h2.58v12.993h-3.475l-7.28-10.043zM636.47 248.436h-2.557v-12.993h3.483l7.25 9.92.003-9.92h2.58v12.993h-3.477l-7.28-10.043zM344.55 248.436l-1.19-2.712h-6.703l-1.188 2.712h-2.67l5.902-13.017h2.935l5.844 13.016h-2.93zm-4.508-10.524l-2.652 6.146h5.282l-2.63-6.146zM99.15 235.432h2.566v8.297s.087 2.92 3.29 2.92c3.2 0 3.183-2.87 3.183-2.87v-8.336h2.563v8.553s.267 4.634-5.818 4.634c-6.084 0-5.784-4.598-5.784-4.598v-8.6zM495.032 235.432h2.564v8.297s.09 2.92 3.29 2.92c3.202 0 3.187-2.87 3.187-2.87v-8.34h2.562v8.557s.27 4.634-5.817 4.634-5.785-4.598-5.785-4.598v-8.6zM127.707 235.44h2.906l4.595 10.01 4.636-10.02h2.754l-6 13.027h-2.955zM218.55 248.428h2.65v-11.233h4.407v-1.765h-11.45v1.763h4.39zM388.957 248.428h2.65v-11.233h4.408v-1.765h-11.453v1.763h4.392zM425.712 248.428h2.648v-11.233h4.407v-1.765h-11.45v1.763h4.39zM266.162 248.43v-5.826h-7.16v5.827h-2.64v-13.007h2.64v5.375h7.16v-5.375h2.64v13.008zM445.294 248.43v-5.826h-7.16v5.827h-2.64v-13.007h2.64v5.375h7.16v-5.375h2.642v13.008zM310.894 248.443h2.433l1.94-10.37 4.023 10.368h2.495l4.01-10.354 1.93 10.357h2.47l-2.257-13.015h-3.47l-3.935 10.164-3.936-10.173h-3.473zM651.228 248.443h2.43l1.943-10.37 4.022 10.368h2.496l4.008-10.354 1.93 10.357h2.472l-2.257-13.015h-3.47l-3.938 10.164-3.935-10.173h-3.47zM376.487 248.593c-1.114 0-2.43-.15-3.274-.32l.004-2.155c.907.34 2.276.582 3.593.582 1.607 0 3.214-.562 3.214-2.043 0-2.53-7.162-1.303-7.162-5.408 0-2.34 2.223-3.863 6.083-3.863.904 0 2.126.073 3.004.22l-.01 2.063c-.818-.223-2.207-.485-3.144-.485-2.16 0-3.354.714-3.354 1.82 0 2.485 7.416 1.353 7.416 5.41-.002 2.935-2.72 4.178-6.37 4.178M683.663 248.436l-1.188-2.712h-6.703l-1.188 2.712h-2.672l5.9-13.017h2.938l5.842 13.016h-2.93zm-4.506-10.524l-2.65 6.146h5.28l-2.63-6.146zM710.405 235.437l-4.498 5.83v-5.844h-2.644v12.993h2.64v-5.443l4.955 5.474h3.297l-5.818-6.29 5.37-6.727zM352.438 235.43h2.668v9.074c0 .3.124 2.564-1.23 3.492-.915.623-2.062.604-2.062.604h-2.107v-2.034h.405s1.262.096 1.788-.435c.593-.602.54-1.69.54-1.69l-.002-9.01zM8.887 198.66v18.493H0l.008-43.785H15.14c11.82 0 17.044 4.512 17.044 12.214 0 7.366-4.835 11.225-13.624 11.98 1.27 1.173 2.733 2.846 4.396 4.6l13.772 14.99H25.593L8.887 198.66zm.016-5.578h5.377c6.155 0 9.686-2.724 9.686-7.24 0-4.438-3.55-6.615-9.998-6.615H8.904v13.855zM66.916 217.822c-16.51 0-24.223-9.125-24.223-22.02 0-14.4 11.916-22.86 25.785-22.86 14.946 0 24.52 7.624 24.52 22.02 0 14.574-11.722 22.86-26.082 22.86m.877-38.343c-8.302 0-15.63 5.437-15.63 15.65 0 8.877 4.2 16.07 15.34 16.07 8.887 0 15.92-5.188 15.92-15.562.002-10.553-6.052-16.16-15.63-16.16M133.322 173.308h9.28l-17.976 28.553v15.293h-8.89v-15.21l-17.678-28.635h9.866l12.625 19.746zM180.21 217.153l-4.008-9.13H153.64l-4.005 9.13h-8.99l19.872-43.825h9.887l19.67 43.825h-9.864zm-15.175-35.435l-8.928 20.7h17.785l-8.857-20.7zM201.48 217.153v-43.825h8.892v37.296h18.167v6.53zM332.866 217.822c-16.512 0-24.226-9.125-24.226-22.02 0-14.4 11.912-22.86 25.786-22.86 14.946 0 24.52 7.624 24.52 22.02 0 14.574-11.722 22.86-26.08 22.86m.877-38.343c-8.302 0-15.628 5.437-15.628 15.65 0 8.877 4.2 16.07 15.335 16.07 8.888 0 15.922-5.188 15.922-15.562 0-10.553-6.054-16.16-15.63-16.16M382.918 202.306v14.848h-8.89l-.004-43.785h15.536c12.308 0 18.646 5.187 18.646 13.644 0 9.377-7.707 15.32-20.6 15.32l-4.688-.028zm-.062-6.436h4.942c7.515 0 11.82-2.964 11.82-8.65 0-4.693-3.71-8.043-11.034-8.043h-5.73v16.693zM421.974 217.153V173.35h28.72v5.978h-19.83v12.388h18.66v5.81h-18.66v13.477h19.83v6.15zM707.226 217.013v-43.798h28.72v5.98h-19.834v12.386h18.668v5.808h-18.668v13.48h19.834v6.145zM504.44 173.425h8.696v43.728h-11.698l-24.52-33.81-.017.255v33.555h-8.604v-43.728h11.725l24.415 33.398zM789.335 173.425h8.695v43.728h-11.697l-24.518-33.81-.02.255v33.555h-8.6v-43.728h11.722l24.412 33.398zM566.2 217.153v-19.618h-24.103v19.618h-8.89v-43.77h8.89v18.066H566.2v-18.067h8.883v43.77zM671.09 217.822c-15.24 0-26.083-7.53-26.083-21.6 0-13.06 10.45-23.194 28.033-23.194 5.178 0 10.146.564 15.32 1.9v7.295c-4.682-1.806-10.633-2.916-15.42-2.916-10.057 0-18.555 5.442-18.555 16.162 0 10.128 7.227 15.654 17.775 15.654 3.03 0 6.057-.334 8.402-1.006v-14.25h8.887v19.104c-5.66 1.848-11.623 2.85-18.36 2.85M626.74 217.153l-4.003-9.13h-22.563l-4.005 9.13h-8.987l19.872-43.825h9.885l19.67 43.825h-9.87zm-15.17-35.435l-8.928 20.7h17.784l-8.857-20.7zM284.604 217.693c-16.472-.157-24.918-7.626-24.918-21.82 0-14.375 11.915-22.3 26.508-22.634 4.574-.107 10.94 1.235 10.94 1.235v6.58s-7.287-1.77-11.538-1.534c-9.462.526-16.182 5.452-16.182 15.686 0 10.404 6.003 15.84 15.905 15.84 5.093 0 12.38-2.028 12.38-2.028v6.838c0-.002-5.66 1.907-13.096 1.837"/><path fill="#002F65" d="M306.428 101.77v7.252s12.896 7.25 30.144 7.25c17.246 0 31.774-7.758 31.774-7.758s11.61 7.585 33.222 7.585c17.07 0 28.867-7.754 28.867-7.754s13.26 7.924 33.232 7.924c16.338 0 28.502-7.25 28.502-7.25v-7.082s-13.077 7.584-29.054 7.584c-19.61 0-32.316-8.597-32.316-8.597s-16.526 8.937-29.956 8.937c-17.066 0-32.498-8.936-32.498-8.936s-13.257 8.597-31.41 8.597c-18.16 0-30.508-7.754-30.508-7.754M306.428 119.696v7.254s12.896 7.252 30.144 7.252c17.246 0 31.774-7.76 31.774-7.76s11.61 7.59 33.222 7.59c17.07 0 28.867-7.755 28.867-7.755s13.26 7.925 33.232 7.925c16.338 0 28.502-7.252 28.502-7.252v-7.083s-13.077 7.586-29.054 7.586c-19.61 0-32.316-8.602-32.316-8.602s-16.526 8.945-29.956 8.945c-17.066 0-32.498-8.944-32.498-8.944s-13.257 8.603-31.41 8.603c-18.16 0-30.508-7.757-30.508-7.757M306.428 137.624v7.257s12.896 7.25 30.144 7.25c17.246 0 31.774-7.756 31.774-7.756s11.61 7.585 33.222 7.585c17.07 0 28.867-7.758 28.867-7.758s13.26 7.927 33.232 7.927c16.338 0 28.502-7.25 28.502-7.25v-7.086s-13.077 7.588-29.054 7.588c-19.61 0-32.316-8.6-32.316-8.6s-16.526 8.94-29.956 8.94c-17.066 0-32.498-8.94-32.498-8.94s-13.257 8.6-31.41 8.6c-18.16 0-30.508-7.758-30.508-7.758"/><path fill="#B5975C" d="M448.49 43.342c.47-.476.766-1.127.766-1.847 0-.916-.472-1.714-1.175-2.18l-.005-.005c.264-.41.422-.896.422-1.414 0-1.26-.897-2.313-2.088-2.558l.042-.094c.03-.167.054-.345.054-.523 0-1.44-1.173-2.608-2.61-2.608-.203 0-.408.025-.597.067l-.012-.047c-.342-1.044-1.323-1.8-2.484-1.8-.396 0-.775.088-1.116.254l-.022-.038c-.467-.694-1.262-1.15-2.164-1.15-.537 0-1.045.165-1.45.446l-.054-.042c-.414-.28-.918-.444-1.457-.444-.853 0-1.6.407-2.08 1.037-.453-.388-1.042-.626-1.694-.626-.28 0-.55.046-.805.127-.198-1.242-1.273-2.188-2.57-2.188-.265 0-.524.04-.763.113l-.024-.02c0-1.44-1.17-2.608-2.612-2.608-.737 0-1.41.312-1.885.81l-.02-.044c-.47-.69-1.265-1.15-2.163-1.15-.967 0-1.81.53-2.258 1.313l-.02.015c-.434-.33-.97-.52-1.56-.52-1.02 0-1.895.583-2.328 1.43l-.117-.006c-.165-.037-.34-.05-.512-.05-.928 0-1.738.48-2.202 1.205-.214-.06-.442-.09-.675-.09-.905 0-1.7.466-2.17 1.165l-.052-.006c-.414-.27-.906-.43-1.434-.43-.19 0-.373.023-.545.06l-.013-.1c.088-.26.168-.525.23-.8l.004.012c.477-.33.79-.88.79-1.5 0-.567-.262-1.07-.668-1.403v.01c-.333-2.413-1.753-4.48-3.743-5.698l.005.042c-.197-.816-.654-1.297-1.42-1.525.004-.39-.01-1.502-.01-1.502l1.746-.02c0 1.004.817 1.818 1.82 1.818.907 0 1.663-.666 1.8-1.533l.03-.005c.83-.17 1.454-.904 1.454-1.783 0-.906-.662-1.657-1.526-1.796l.03.005c-.178-.826-.91-1.45-1.787-1.45-.95 0-1.734.736-1.81 1.67h-1.756v-1.92h.035c.822-.173 1.436-.903 1.436-1.777 0-.89-.632-1.63-1.47-1.79l-.063-.04c-.166-.827-.89-1.446-1.765-1.457h-.036c-.87.01-1.6.63-1.762 1.457l-.064.04c-.843.16-1.478.9-1.478 1.79 0 .874.616 1.604 1.443 1.778h.037v1.92h-1.76c-.08-.934-.862-1.67-1.812-1.67-.878 0-1.613.625-1.785 1.45l.026-.006c-.864.14-1.526.89-1.526 1.795 0 .878.622 1.612 1.455 1.782l.03.005c.137.867.892 1.534 1.8 1.534 1.003 0 1.818-.813 1.818-1.818l1.754.02s-.016 1.112-.012 1.503c-.764.228-1.225.71-1.426 1.524l.006-.043c-1.994 1.217-3.406 3.285-3.74 5.7l-.004-.012c-.403.333-.666.836-.666 1.403 0 .62.314 1.17.79 1.5l.003-.013c.06.276.138.542.228.8l-.008.1c-.176-.036-.358-.058-.546-.058-.53 0-1.02.16-1.436.43l-.052.005c-.468-.7-1.264-1.165-2.174-1.165-.232 0-.456.03-.673.09-.46-.726-1.272-1.206-2.195-1.206-.18 0-.353.015-.52.052l-.117.006c-.43-.847-1.31-1.43-2.326-1.43-.585 0-1.124.19-1.56.52l-.016-.015c-.448-.785-1.295-1.313-2.262-1.313-.902 0-1.695.46-2.16 1.15l-.018.044c-.478-.496-1.148-.81-1.89-.81-1.444 0-2.61 1.17-2.61 2.61l-.025.02c-.242-.073-.498-.115-.76-.115-1.302 0-2.374.946-2.576 2.187-.253-.08-.525-.126-.804-.126-.65 0-1.24.24-1.693.627-.477-.63-1.23-1.037-2.08-1.037-.542 0-1.04.163-1.46.444l-.046.042c-.415-.282-.92-.445-1.457-.445-.9 0-1.692.456-2.16 1.15l-.025.037c-.335-.166-.715-.254-1.12-.254-1.155 0-2.138.756-2.478 1.8l-.01.046c-.192-.043-.392-.068-.6-.068-1.44 0-2.607 1.17-2.607 2.61 0 .178.02.355.054.522l.038.094c-1.186.244-2.08 1.297-2.08 2.558 0 .518.152 1.003.42 1.414l-.006.005c-.71.465-1.178 1.264-1.178 2.18 0 .72.294 1.37.765 1.847l-.02.02c-.322.37-.517.852-.517 1.382 0 .833.482 1.552 1.182 1.895l.012.01c-.112.26-.177.546-.177.845 0 .934.604 1.722 1.444 2.006l.013-.003c-.11.26-.178.546-.178.85 0 .897.564 1.665 1.357 1.97-.028.144-.043.288-.043.44 0 .99.683 1.82 1.6 2.047l.07.122c-.142.27-.22.562-.22.88 0 1.042.847 1.89 1.89 1.89.424 0 .813-.144 1.13-.377l.017.04c1.27.753 2.065 2.09 2.753 3.36v.128c-.186.31-.295.683-.295 1.074 0 1.164.95 2.113 2.113 2.113.09 0 .177-.007.268-.02 0 0 2.36 3.094 3.656 4.454h-.01c-.393.344-.642.857-.642 1.424 0 .98.735 1.782 1.684 1.894l.266 1.525c-.387.627-.615 1.364-.63 2.156-.023 1.688.926 3.218 2.338 3.935l.036 1.866s-.842.43-1.105.864c-.18.29-.287.636-.294 1-.015.773.42 1.452 1.062 1.79 0 0 .833.633 3.002.923 7.088.95 14.113 1.326 21.49 1.573 1.923.032 3.87.053 5.827.053h.062c1.957 0 3.9-.02 5.82-.053 7.38-.248 14.405-.625 21.495-1.573 2.168-.29 2.997-.924 2.997-.924.642-.337 1.075-1.016 1.063-1.79-.004-.363-.11-.71-.29-1-.264-.434-1.11-.862-1.11-.862l.042-1.865c1.407-.716 2.36-2.247 2.332-3.936-.014-.793-.24-1.53-.627-2.157l.263-1.525c.947-.112 1.688-.915 1.688-1.894 0-.567-.25-1.08-.647-1.425h-.01c1.3-1.36 3.664-4.454 3.664-4.454.087.012.175.02.263.02 1.166 0 2.114-.95 2.114-2.114 0-.39-.105-.763-.297-1.074v-.128c.69-1.27 1.482-2.607 2.754-3.36l.02-.04c.314.232.704.375 1.133.375 1.04 0 1.887-.847 1.887-1.89 0-.318-.078-.61-.22-.88l.07-.12c.915-.227 1.6-1.058 1.6-2.048 0-.152-.01-.296-.044-.44.795-.305 1.358-1.073 1.358-1.97 0-.304-.063-.59-.18-.85l.015.004c.838-.283 1.446-1.072 1.446-2.005 0-.3-.066-.585-.182-.845l.012-.01c.697-.344 1.186-1.063 1.186-1.896 0-.53-.195-1.01-.52-1.382l-.017-.02zm-18.007 2.338c.358-.496.147-1.27.03-1.866.23-.223.593-.416.832-.72.384-.476.46-1.397.185-1.95-.29-.337.065-.76.344-.935.584-.35 1.36.3 2.133.046.74.798 1.59 1.47 2.793 1.243.44.296.925.63 1.294.905 0 0 .103.08 0 .26-.347.606.214 1.542-.062 2.292-.363 1.024-.228 1.966.062 2.96-.358.933-.71 1.82-.765 2.823-.09.425.042.586.015 1.09-.646-.058-1.504.105-2.064.397-.18-.36-.485-.752-.846-.958-1.153-.71-2.16-1.457-3.54-1.925-.873-.267-1.376-.246-1.943-.367-.758-.295.917-1.01.614-1.95-.546-.8.697-.814.92-1.348m-2.3 15.746c-.282.053-.49.005-.78-.048.38-.953.836-1.9.952-2.965.24-1.18-.202-2.375-.965-3.023.173-.283.197-.612.305-.91.16-1.093-.09-1.872-.77-2.623-.41-.376-1.236-.87-.676-1.24.676-.25 2.112.097 2.112.097 2.682.46 4.32 1.54 5.764 3.152.008.056.1.05.1.138-.184.23-.333.47-.603.87-.506-.222-1.11-.465-1.66-.375-2.34.694-3.99 5.032-3.78 6.926M406.49 31.958c.173-.338.546-.413.86-.465 2.365-.434 4.768-1.08 6.99-1.85 2.688-1.114 5.758-1.96 8.67-1.15.2.08.477.153.645.227 3.5 1.08 5.098 4.794 5.522 8.15.036.094.078 1.386.065 1.837-.097 3.016-1.226 6.25-2.983 8.8-.49.755-1.145 1.667-1.93 2.07-.36.125-.485-.028-.71-.177-.265-.24-.24-.55-.093-.83 1.606-1.89 2.803-3.785 3.674-6.07 1.153-2.667.83-6.047-.118-8.62-.276-.598-.588-1.217-1.004-1.69-1.69-2.453-5.937-2.936-7.937-2.264-3.23 1.112-6.58 2.165-9.962 3-.935.228-1.25.424-1.65-.122-.18-.195-.13-.614-.04-.846m16.76 9.187c.372-.883 1.593-1.98 1.4-2.538-.104-.177-.274-.288-.528-.288-.412.05-.74.39-.938.666-.224.253-.6.198-.698-.168-.1-.373-.027-.81.2-1.128.302-.565-.562-.672-.413-1.17.468-.725.912-1.69.61-2.61-.145-.67-.954-.85-.99-1.57-.014-.198.232-.46.594-.424.79.223 1.467 1.01 1.668 1.82.368.79-.348 1.515.182 2.187.36.142.476-.278.848-.232.238.036.415.113.527.365.503 1.085.36 2.16.17 3.383-.242 1.35-1.587 2.068-1.468 3.542.047.602-1.054 2.797-1.666 2.593-.58-.628.162-1.462.225-2.21-.7-.694-.04-1.513.28-2.218m-15.857 10.67c-.333-.232-.778-.354-1.11-.65.237-1.27-.322-2.118-.994-3.092.472-.067.382-.095.732-.116 1.793-.165 2.646-.3 4.142-.55 1.437-.196 2.676-.555 4.158-.657 3.07-.217 4.395.452 6.137 1.453.41.294 1.186.354.954 1.125-.182.412-1.87.117-2.752.412-1.06.298-1.674 1.25-2.082 2.203-1.18-.058-2.205.79-2.787 1.582-1.284 1.867-1.194 6.95-1.232 6.977-.662-.25-.778-1.213-1.507-1.373-.485-.103-.94.348-1.19.644-.196.16-.506.362-.718.275.2-.444.24-.994.328-1.418.332-2.414.053-5.532-2.08-6.817m11.555-20.195c.666-.127 1.445.916 1.74 1.635.074.153.234.48.123 1.02-.292.64.306 1.388-.048 2.043-.08.35-.408.474-.74.444-1.36-.39-1.256-2.263-2.58-2.852-.488-.025-.688.427-1.367.397-.578-.028-1.187-.18-1.47-.734-.106-.208.046-.473.228-.57.674-.17 1.353-.25 1.96-.57.66-.193 1.126.294 1.747.32.422-.272-.07-.92.408-1.133M405.41 45.4c.218-.11.48-.244.706-.343 1.45-1.098 1.016-3.24.604-4.736.497-.76.62-1.728.244-2.597.313-.875.427-1.853.296-2.854.382-.084.602-.054.865 0 1.387.175 2.924-.022 4.168-.19.847-.307 1.212.782 1.59 1.016.35.288.572.36 1.266.562.853.212 1.497.056 2.154.333.372.77.994 1.498 1.815 1.822.37.186.913.026 1.163.41.017.99.396 1.782.82 2.58-.295.556-.53 1.513-.213 2.216-.082.65-.36 1.89-.36 1.89-.036.18-.036.18-.14.552-.52-.207-1.044-.452-1.572-.63-2.61-1.22-5.547-.344-8.195.08-1.72.206-3.535.512-5.354.586.042-.315.042-.315.14-.697m-.77-7.43c0 .393.016.94-.3 1.286-.25.583.264.948.425 1.54.093.252.443 1.705-.018 2.35-.46.445-.77-.15-1.224-.127-.563.348-.38 1.078-.493 1.65-.07.25-.035.66-.51.646-.3-.115-.36-.297-.486-.826-.147-1.037-.11-2.165.203-3.098.28-.475.637-.163.937-.163.317-.127.268-.318.28-.508.037-.192-.494-1.836-1.004-2.663-.69-.677.236-1.608-.12-2.462-.105-.18-.13-.28.143-.452.29-.226.6.035.897.07.276.032.414-.2.313-.46-.44-.93-1.212-1.804-1.022-2.8.113-.196.3-.338.563-.302.27.106.362.144.68.51.384.66 1.18 2.334 1.157 3.21 0 .176-.245 1.393-.652 1.536-.298.467.27.587.232 1.06m-3.415-16.967s.263-.068.644.102c1.184.554 1.898 1.243 2.33 2.487.107.354.233.745-.053 1.027-1.07-.077-2.922-.315-2.922-.315v-3.302zm-1.875 6.504h.062c1.39 0 2.798.09 4.196.197.34.042.608.317.53.703-.068.25-.275.423-.518.45-1.418-.107-2.79-.033-4.21-.033h-.06c-1.418 0-2.793-.074-4.212.033-.242-.027-.45-.202-.52-.45-.076-.386.19-.66.53-.703 1.402-.107 2.813-.197 4.202-.197m.014 2.985h-.008.017c-.004-.002-.005 0-.01 0h.037-.008.008c1.438.027 1.08 3.4 1.08 7.552 0 4.156.44 7.527-1.08 7.558h-.036c-1.522-.03-1.08-3.402-1.08-7.558 0-4.153-.36-7.525 1.08-7.552m-4.806-6.9c.433-1.245 1.147-1.934 2.34-2.488.376-.17.642-.102.642-.102v3.302s-1.85.238-2.926.314c-.29-.282-.164-.673-.056-1.027m.3 8.575c.313-.365.406-.403.68-.51.263-.035.448.107.56.303.19.996-.582 1.87-1.023 2.8-.096.26.035.492.313.46.303-.036.61-.296.9-.07.273.17.247.273.145.452-.36.854.57 1.785-.124 2.46-.51.828-1.045 2.472-1.005 2.664.016.19-.04.38.28.507.3 0 .655-.31.94.164.312.933.35 2.06.2 3.098-.126.53-.187.71-.485.826-.474.015-.44-.398-.512-.646-.113-.572.072-1.302-.494-1.65-.453-.025-.762.57-1.222.126-.463-.645-.11-2.097-.02-2.35.162-.592.677-.957.425-1.54-.317-.345-.303-.893-.303-1.286-.035-.474.534-.593.234-1.058-.408-.143-.653-1.36-.653-1.536-.02-.878.777-2.55 1.164-3.213M393.34 45.4c.102.38.102.38.148.693-1.826-.074-3.642-.38-5.36-.587-2.646-.423-5.582-1.298-8.193-.078-.528.177-1.06.422-1.57.63-.106-.373-.106-.373-.145-.552 0 0-.28-1.242-.36-1.89.316-.705.08-1.66-.21-2.218.42-.797.804-1.588.822-2.58.248-.383.794-.223 1.163-.41.822-.323 1.443-1.05 1.815-1.82.656-.277 1.302-.12 2.155-.333.69-.202.915-.273 1.268-.562.378-.234.74-1.322 1.588-1.017 1.243.17 2.78.366 4.164.19.268-.053.486-.083.868 0-.13 1-.02 1.98.296 2.854-.374.87-.254 1.836.246 2.598-.413 1.497-.847 3.64.6 4.736.232.103.488.237.706.345m-.865 5.766c-.333.295-.78.417-1.11.65-2.138 1.284-2.415 4.402-2.083 6.815.09.425.13.975.33 1.418-.214.087-.52-.116-.717-.275-.248-.296-.702-.747-1.19-.645-.73.16-.848 1.122-1.507 1.373-.038-.025.05-5.11-1.234-6.976-.584-.793-1.606-1.64-2.79-1.582-.405-.954-1.02-1.905-2.077-2.203-.887-.295-2.57 0-2.754-.413-.232-.772.545-.832.952-1.125 1.746-1 3.07-1.67 6.14-1.453 1.48.1 2.73.46 4.16.657 1.492.248 2.347.385 4.14.55.354.02.255.048.732.115-.672.975-1.233 1.823-.993 3.094m-14.536-16.89c-.106-.54.062-.868.123-1.02.305-.72 1.083-1.764 1.746-1.636.477.21-.017.86.408 1.132.62-.024 1.085-.512 1.747-.32.608.32 1.285.4 1.957.572.186.097.337.36.227.57-.28.555-.89.706-1.47.733-.68.03-.876-.423-1.367-.397-1.323.59-1.216 2.46-2.576 2.852-.333.03-.665-.095-.742-.444-.352-.654.248-1.403-.054-2.043m-8.36 2.594c.425-3.356 2.02-7.07 5.522-8.15.168-.074.44-.148.644-.227 2.91-.81 5.98.036 8.668 1.15 2.226.77 4.625 1.416 6.992 1.85.314.052.688.127.863.465.09.232.14.65-.044.847-.4.546-.715.35-1.648.122-3.384-.835-6.733-1.89-9.963-3-1.997-.672-6.247-.19-7.938 2.265-.412.473-.73 1.09-1.006 1.69-.943 2.572-1.27 5.952-.117 8.62.868 2.285 2.067 4.18 3.676 6.07.146.28.172.59-.092.83-.227.148-.352.302-.715.176-.783-.403-1.433-1.315-1.925-2.07-1.76-2.55-2.893-5.785-2.986-8.8-.012-.452.03-1.744.068-1.84m6.91-.35c.145.5-.717.606-.415 1.172.228.317.3.755.2 1.128-.1.366-.473.42-.696.168-.202-.275-.533-.615-.943-.667-.257 0-.424.11-.528.287-.193.56 1.03 1.655 1.4 2.538.317.705.98 1.524.28 2.217.062.747.802 1.58.222 2.21-.61.203-1.712-1.992-1.667-2.594.122-1.474-1.222-2.19-1.466-3.542-.19-1.224-.337-2.298.17-3.383.116-.252.288-.33.527-.364.37-.047.488.373.848.23.527-.67-.187-1.396.184-2.185.196-.81.874-1.598 1.667-1.82.36-.037.606.225.593.423-.035.72-.848.9-.99 1.57-.302.92.14 1.887.61 2.61m-5.43 17.963c.108.298.136.627.304.91-.763.648-1.2 1.844-.963 3.023.116 1.063.572 2.012.954 2.965-.293.053-.496.1-.78.048.21-1.895-1.443-6.232-3.782-6.926-.545-.09-1.153.152-1.657.375-.267-.4-.42-.64-.6-.87 0-.087.09-.082.098-.138 1.438-1.613 3.08-2.693 5.767-3.152 0 0 1.433-.35 2.108-.096.563.37-.262.862-.677 1.238-.677.75-.923 1.53-.77 2.623m-2.818-10.666c-.116.597-.33 1.37.03 1.866.225.534 1.468.546.923 1.35-.302.938 1.374 1.652.616 1.948-.572.12-1.067.1-1.95.367-1.37.47-2.382 1.215-3.535 1.924-.356.205-.663.597-.844.957-.56-.292-1.417-.455-2.064-.397-.028-.503.105-.665.016-1.09-.053-1-.407-1.89-.768-2.822.292-.995.425-1.938.065-2.96-.276-.75.277-1.687-.066-2.294-.1-.18 0-.26 0-.26.37-.274.857-.608 1.297-.905 1.203.227 2.05-.446 2.79-1.244.77.255 1.55-.396 2.133-.047.282.173.636.597.344.935-.274.552-.2 1.474.187 1.95.237.303.595.496.828.72m-10.604 9.764c-.547.204-.998-.272-1.208-.622-1.015-1.492-1.917-3.017-2.487-4.678-1.244-3.292-1.802-7.33-.24-10.616.494-1.266 1.5-2.232 2.526-2.985 2.836-1.9 6.51-2.8 10.14-1.95.353.14 1.057.16 1.11.785-.016.267-.04.297-.157.54-.18.372-.77.33-1.62.096-2.286-.445-4.625-.15-6.772.694-1.75.783-3.726 2.032-4.256 3.962-1.482 4.872.488 10.062 3.317 13.873.1.272.183.636-.352.9m1.64-3.522c-.05.266-.32.18-.475.106-.988-.764-1.395-1.8-1.855-2.89-.28-.794-.825-1.397-.4-2.245.273-.616.276-.533.506-1.044.055-.2.184-.416.012-.67-.89-1.25-1.026-3.94.043-4.69.28-.206.706-.227.565.16-.41.915-.46 2.037.14 2.912.67.454 1.05 1.28.954 2.073-.023.278-.09.52-.21.75.2.69.65 1.565.187 2.257-.153.223-.438.19-.58.318.513.873 1.237 1.9 1.11 2.963m-.266-11.4c-.01-.222.01-.364.132-.618.277-.768 1.334-1.88 1.76-1.673.568.256-.69 1.413.343 1.75 1.26.055 1.176-1.32 2.09-1.86.638-.425 1.444-.406 2.173-.26.628.158.776.67.846 1.116.078.276 0 .646-.196.858-.833.487-1.673-.973-2.45.07-.458.557-.564 1.488-1.35 1.625-.437.043-.677-.358-1.176-.227-.36.318-.897.688-1.46.523-.476-.175-.667-.49-.71-1.3m10.107 37.06c-.018.228.056.577-.085.587-.326.01-.46-.513-.566-.96-.027-.552.333-1.02.725-1.215.16-.1.402-.08.545.038.252.18.282.825.07.945-.042.092-.593.253-.69.606m1.183-2.364c-.288-.292-.61-1.038-.07-1.048.806-.042 1.44 1.063 1.715 1.713.49 1.44.298 3.146-.816 4.213-.16.155-.333.18-.478.155-.36-.218.025-.497.13-.673.093-.11.148-.174.198-.273.732-1.324.204-3.046-.68-4.086m29.11 11.85h-.063c-1.394-.017-18.462-.267-20.483-.82 2.953-.65 15.822-.802 20.482-.816h.06c4.66.015 17.524.167 20.477.815-2.017.554-19.08.804-20.476.82m28.243-1.646c-9.438-.954-18.535-1.466-28.242-1.496h-.06c-9.712.03-18.805.542-28.245 1.495-.704.052-1.18-.117-1.212-.446-.04-.41.098-.634.4-.71 2.594-.477 5.463-.76 8.088-.952 6.882-.682 13.924-1.1 20.97-1.1h.06c7.042 0 14.084.418 20.965 1.1 2.625.192 5.492.475 8.084.953.308.075.442.298.4.71-.027.327-.505.496-1.207.444m-50.89-10.11l-1.08.137c-.663.08-1.27-.385-1.35-1.053-.086-.662.388-1.265 1.05-1.35l1.08-.13c.662-.087 1.267.383 1.35 1.047.083.668-.388 1.27-1.05 1.35m1.644 4.535c.083.667-.388 1.27-1.052 1.35l-1.08.137c-.662.08-1.268-.384-1.35-1.053-.084-.663.386-1.265 1.048-1.352l1.084-.13c.66-.086 1.267.388 1.35 1.047m2.572-3.896l1.563-1.852c.27-.326.76-.365 1.08-.093l1.853 1.563c.324.272.366.76.09 1.087l-1.56 1.844c-.27.323-.757.366-1.08.093l-1.854-1.563c-.325-.27-.364-.756-.093-1.08m9.697-1.662h-1.092c-.667 0-1.207-.544-1.207-1.21 0-.67.54-1.207 1.207-1.207h1.092c.667 0 1.208.54 1.208 1.207s-.54 1.21-1.208 1.21m1.338 4.59c0 .667-.542 1.21-1.207 1.21h-1.094c-.665 0-1.21-.543-1.21-1.21 0-.667.545-1.208 1.21-1.208h1.094c.665 0 1.207.54 1.207 1.206m2.753-.99v-6.04c0-.527.43-.962.96-.962h7.887c.532 0 .96.435.96.963v6.04c0 .53-.428.96-.96.96h-7.887c-.53 0-.96-.43-.96-.96m13.186-.218h1.09c.666 0 1.205.54 1.205 1.206 0 .668-.54 1.21-1.206 1.21h-1.09c-.668 0-1.213-.542-1.213-1.21 0-.665.546-1.207 1.214-1.207m-1.078-4.593c0-.668.537-1.206 1.205-1.206h1.092c.665 0 1.21.54 1.21 1.207s-.545 1.21-1.21 1.21h-1.09c-.67 0-1.206-.543-1.206-1.21m6.408 2.492l1.85-1.564c.32-.272.81-.233 1.084.093l1.562 1.85c.276.325.23.81-.093 1.082l-1.853 1.563c-.32.273-.81.23-1.084-.094l-1.562-1.843c-.27-.33-.228-.816.096-1.088m8.418 3.227l1.082.13c.66.088 1.135.69 1.053 1.352-.088.668-.688 1.133-1.348 1.052l-1.087-.137c-.662-.08-1.134-.683-1.05-1.35.08-.66.685-1.133 1.35-1.048m-.755-4.836c.074-.663.688-1.133 1.348-1.047l1.08.132c.66.084 1.136.687 1.053 1.35-.085.667-.69 1.13-1.35 1.052l-1.085-.137c-.66-.08-1.13-.682-1.047-1.35m6.826 5.34c.05.1.106.164.2.274.104.177.483.455.125.673-.14.026-.318 0-.477-.155-1.11-1.067-1.307-2.772-.817-4.212.276-.65.91-1.756 1.716-1.713.544.01.227.756-.072 1.048-.88 1.04-1.41 2.763-.676 4.086m1.947-1.132c-.14-.01-.064-.36-.084-.586-.098-.354-.646-.515-.688-.605-.213-.12-.182-.765.068-.945.143-.118.387-.138.545-.038.392.195.753.663.726 1.216-.104.444-.24.968-.565.958m.99-5.747c-.228.047-.758 0-1.086-.073-1.612-.37-13.23-2.68-30.213-2.684h-.06c-16.987.004-28.606 2.315-30.22 2.684-.328.074-.856.12-1.084.074-.205-.094-.453-.44-.303-.747.09-.248.34-.396.566-.475 6.087-1.328 18.813-3.213 31.038-3.225h.062c12.218.012 24.95 1.897 31.033 3.225.23.08.48.227.567.475.15.305-.095.652-.3.748m7.85-13.674c-.994 1.1-1.708 2.202-2.31 3.44l-.06.062c-.887-.47-1.13-.34-1.642.504-.48.78-.514 1.078.21 1.613l-.054.17c-1.066 1.72-2.02 3.05-3.662 4.477-1.284 1.09-3.684-.042-3.896-1.818-3.343 2.423-7.32.474-8.104-2.242-1.844 2.095-4.437 3.683-8.67.372-2.828 1.498-7.62 2.77-10.965-1.69h-.052c-3.35 4.46-8.146 3.188-10.97 1.69-4.236 3.31-6.827 1.724-8.67-.372-.782 2.716-4.765 4.665-8.106 2.242-.214 1.776-2.61 2.91-3.897 1.818-1.643-1.427-2.596-2.757-3.66-4.477l-.053-.17c.722-.536.688-.834.207-1.613-.508-.843-.752-.974-1.636-.504l-.066-.062c-.6-1.24-1.31-2.34-2.307-3.44-.377-.418-1.105-.73-.593-1.155.305-.278.687-.455 1.11-.627.73-.31 1.587-.577 2.248-.025.875 1.15.107 2.886.53 3.23.133.132.324.182.515.056.73-.657 1.462-2.39 2.584-1.9 1.01.69 1.81 2.563 2.02 4.148.086.84.297 1.86-.39 2.435-.455.39-1.25-.096-1.657.363-.24.647.212.948.555 1.493.504.577 1.122 1.376 2.055 1.433 1.292-.177 1.45-1.533 1.994-2.418.145-.227.146-.09.355.02 1.195.882 2.782 1.477 4.265 1.278.753-.17 1.6-.557 1.837-1.375.194-.525.104-1.017-.017-1.493-.813-1.497-1.545.89-2.646.16-1.147-.884-2.1-2.2-2.548-3.694-.168-.54-.38-1.33.13-1.82.612-.53 1.31-.043 2.014-.082.546.04.355-.447.333-.592-.492-.792-1.83-1.047-1.907-2.162.076-.996.918-1.372 1.802-1.842 1.404-.642 3.034-1.103 4.615-.806.373.09.758.254.903.737.07.427-.123.606-.206.854-.206.542-.754 1.127-.212 1.754.212.312.485.29.835.086.503-.516 1.107-1.168 1.796-1.048.92.103 1.428 1.444 1.644 2.46.326 1.504.466 3.208-.412 4.447-.937.804-1.598-.8-2.472-.128-.258.265-.016 1.043.176 1.468.514.906 1.064 1.603 2.102 1.796 1.532.23 2.45-.124 3.72-1.433.5-.565.37-.33.976-1.047.538.53 1.336 1.24 2.08 1.56 1.723.843 4.228.95 5.53-.204.856-.732 1.334-2.085 1.038-2.426-1.297-1.322-1.44.763-2.34 1.1-1.164.406-1.694.118-2.253-.458-1.364-1.853-1.484-4.535-.687-6.773.12-.238.12-.238.27-.465.436-.612.958-.784 1.566-.69.836.155 1.398.822 1.76 1.526.157.288.544.28.856.17.316-.103.603-.475.428-.79-.513-.7-1.328-1.217-1.773-1.943-.3-.503-.435-1.27-.158-1.847.187-.502.65-.92 1.123-1.27 1.017-.64 2.34-.978 3.66-.978h.062c1.325 0 2.646.337 3.66.978.472.35.937.768 1.12 1.27.272.576.143 1.344-.16 1.847-.445.726-1.256 1.244-1.77 1.942-.172.317.113.688.427.792.312.108.7.117.856-.17.36-.705.92-1.372 1.758-1.528.608-.094 1.133.08 1.573.69.148.227.148.227.26.465.802 2.238.68 4.92-.686 6.773-.555.576-1.085.864-2.25.46-.896-.338-1.04-2.423-2.333-1.102-.297.34.178 1.694 1.03 2.426 1.302 1.152 3.808 1.046 5.53.205.744-.322 1.544-1.03 2.08-1.56.604.716.473.48.98 1.046 1.268 1.31 2.184 1.662 3.718 1.433 1.033-.193 1.588-.89 2.102-1.796.188-.425.434-1.203.176-1.468-.87-.672-1.533.932-2.47.127-.883-1.24-.735-2.943-.418-4.448.22-1.017.73-2.358 1.644-2.46.69-.12 1.296.532 1.8 1.048.35.204.623.225.834-.086.54-.627-.004-1.212-.21-1.755-.09-.25-.275-.428-.208-.855.15-.482.53-.647.904-.737 1.575-.297 3.207.164 4.613.806.887.47 1.727.846 1.803 1.842-.076 1.114-1.414 1.37-1.908 2.162-.02.145-.21.63.334.593.7.04 1.402-.447 2.013.082.516.49.302 1.28.13 1.82-.446 1.494-1.4 2.81-2.548 3.694-1.1.73-1.834-1.656-2.646-.16-.124.478-.214.97-.017 1.495.236.82 1.086 1.207 1.838 1.376 1.48.2 3.07-.396 4.265-1.278.213-.11.213-.247.355-.02.546.885.7 2.242 1.992 2.418.934-.056 1.556-.855 2.056-1.433.347-.545.793-.846.556-1.493-.41-.46-1.2.027-1.66-.363-.686-.576-.476-1.594-.392-2.435.214-1.585 1.015-3.458 2.022-4.15 1.12-.488 1.853 1.245 2.582 1.902.19.126.383.076.516-.056.423-.344-.348-2.08.53-3.23.657-.552 1.516-.284 2.25.025.42.172.804.35 1.108.628.52.425-.214.738-.59 1.156m.476-16.926c-.562.166-1.102-.205-1.46-.523-.5-.13-.743.27-1.177.227-.784-.137-.89-1.068-1.348-1.624-.782-1.044-1.618.416-2.453-.07-.2-.212-.275-.582-.2-.858.073-.444.224-.958.85-1.115.728-.146 1.538-.166 2.17.258.917.54.83 1.917 2.09 1.862 1.036-.34-.222-1.496.346-1.75.43-.208 1.48.904 1.763 1.672.122.252.137.395.126.618-.044.812-.235 1.127-.71 1.302m.922 10.204c-.16.074-.43.16-.478-.106-.128-1.064.595-2.09 1.11-2.964-.143-.127-.424-.095-.58-.318-.463-.692-.014-1.566.19-2.258-.126-.23-.19-.47-.214-.748-.094-.792.282-1.62.955-2.073.6-.875.552-1.997.142-2.913-.14-.385.283-.364.565-.158 1.072.75.933 3.44.042 4.69-.168.254-.043.47.01.67.233.51.233.427.51 1.042.425.848-.12 1.45-.4 2.244-.46 1.092-.866 2.128-1.852 2.892m4.86-1.885c-.57 1.66-1.474 3.186-2.49 4.677-.208.35-.66.826-1.206.62-.532-.26-.45-.625-.354-.9 2.83-3.81 4.8-9 3.313-13.873-.523-1.93-2.503-3.18-4.25-3.962-2.147-.845-4.488-1.14-6.775-.693-.853.234-1.44.274-1.612-.097-.12-.243-.15-.273-.164-.54.052-.625.76-.645 1.107-.786 3.63-.848 7.308.05 10.144 1.95 1.027.753 2.028 1.72 2.526 2.985 1.56 3.288 1.006 7.325-.237 10.617"/><path fill="#B39859" d="M401.147 69.972c.926 0 1.268.382.975.683-.687.434-1.928 1.35-1.928 1.35h-.61c-1.355 0-1.824 0-1.824.523-.022.398 0 .083 0 .673-.543.382-1.986 1.516-1.986 1.516V70.86s.253-.888 1.058-.888h4.315zM402.33 74.714h-3.424l3.425-2.374zM399.44 58.425c-1.58-.046-1.79-.356-1.79-1.704 0-1.385.21-1.663 1.79-1.705h.076c1.58.055 1.785.354 1.785 1.706 0 1.393-.203 1.664-1.79 1.708l-.07-.003zM420.316 59.176c-1.132-.376-1.22-.637-.93-1.612.29-1.008.5-1.162 1.653-.857l.056.013c1.136.377 1.22.642.93 1.622-.3 1.003-.5 1.16-1.654.85l-.056-.016zM378.845 59.176c1.136-.376 1.225-.637.933-1.612-.29-1.008-.5-1.162-1.653-.857l-.06.013c-1.135.377-1.217.642-.93 1.622.298 1.003.507 1.16 1.66.85l.05-.016z"/></svg>