<svg xmlns="http://www.w3.org/2000/svg" width="64" height="64" viewBox="0 0 64 64"><path fill="#B4975A" d="M59.232 20.25c.28-.282.393-.618.393-1.01 0-.506-.28-.954-.617-1.18.168-.224.225-.505.225-.784 0-.674-.505-1.29-1.122-1.402v-.057c0-.112.058-.168.058-.28 0-.785-.617-1.402-1.402-1.402-.112 0-.225 0-.337.056-.17-.56-.73-1.01-1.347-1.01-.225 0-.45.058-.617.114-.28-.393-.674-.617-1.178-.617-.28 0-.562.11-.786.225h-.056c-.225-.17-.505-.225-.785-.225-.448 0-.896.225-1.12.56-.226-.224-.562-.335-.954-.335-.17 0-.28 0-.45.056-.11-.673-.672-1.18-1.4-1.18-.17 0-.28 0-.394.058 0-.785-.617-1.402-1.458-1.402-.393 0-.785.168-1.01.45-.28-.394-.673-.618-1.178-.618s-1.01.28-1.234.73c-.225-.17-.505-.28-.84-.28-.563 0-1.01.336-1.29.785h-.058c-.112 0-.168-.056-.28-.056-.505 0-.954.28-1.234.673-.112-.056-.224-.056-.393-.056-.505 0-.953.28-1.178.618h-.057c-.337-.28-.617-.337-.897-.337-.112 0-.225 0-.28.057v-.057c.056-.17.11-.28.11-.448.28-.17.45-.506.45-.842s-.17-.56-.393-.785c-.17-1.29-.954-2.412-2.02-3.085-.112-.448-.337-.73-.785-.842v-.84h.953c0 .56.45 1.01 1.01 1.01.506 0 .898-.394 1.01-.843.45-.112.786-.505.786-.953 0-.506-.337-.898-.84-1.01-.113-.45-.506-.785-.955-.785-.504 0-.952.393-1.01.896h-.952V2.748c.448-.112.785-.505.785-.953 0-.505-.337-.897-.785-.954h-.057c-.11-.503-.503-.84-.95-.84-.506 0-.898.337-.955.785H31.3c-.45.112-.786.505-.786.954 0 .503.337.895.785.952v1.065h-.954c-.057-.505-.45-.897-1.01-.897-.505 0-.897.336-.954.785-.505.112-.84.56-.84 1.066 0 .505.335.897.784.954.056.45.505.842 1.01.842.56 0 1.01-.45 1.01-1.01h.953v.84c-.394.113-.674.395-.786.843-1.065.672-1.852 1.794-2.075 3.14-.226.17-.338.448-.338.786 0 .336.168.616.45.84.055.17.055.28.11.45v.056c-.11 0-.224-.057-.28-.057-.28 0-.56.113-.785.225h-.056c-.28-.393-.673-.617-1.177-.617-.112 0-.225 0-.394.057-.225-.393-.674-.674-1.18-.674-.11 0-.167 0-.28.057h-.055c-.225-.45-.73-.785-1.29-.785-.337 0-.617.11-.842.28-.225-.448-.73-.73-1.234-.73s-.954.226-1.18.618c-.28-.28-.616-.45-1.01-.45-.784 0-1.4.618-1.4 1.403-.112-.057-.28-.057-.394-.057-.73 0-1.29.505-1.402 1.18-.11-.058-.28-.058-.448-.058-.337 0-.673.112-.954.336-.28-.335-.673-.56-1.12-.56-.28 0-.563.112-.786.225-.225-.168-.505-.225-.786-.225-.504 0-.953.225-1.178.617-.168-.112-.393-.112-.617-.112-.616 0-1.178.393-1.346 1.01-.113 0-.226-.056-.338-.056-.785 0-1.402.616-1.402 1.4 0 .112 0 .17.057.28v.057c-.673.112-1.122.73-1.122 1.402 0 .28.057.56.225.784-.393.28-.673.674-.673 1.178 0 .393.168.73.393 1.01-.17.225-.28.45-.28.785 0 .45.28.842.673 1.066-.057.168-.112.28-.112.448 0 .506.337.955.786 1.123-.056.168-.112.28-.112.45 0 .503.337.895.73 1.063v.225c0 .563.392 1.01.896 1.123l.056.056c-.336.224-.393.392-.393.56 0 .563.45 1.01 1.01 1.01.225 0 .45-.055.617-.224.673.393 1.122 1.122 1.515 1.85v.058c-.112.168-.17.393-.17.617 0 .618.506 1.18 1.18 1.18h.168s1.29 1.682 2.02 2.467c-.225.17-.337.448-.337.786 0 .56.393.953.897 1.064l.168.842c-.223.336-.335.728-.335 1.177 0 .954.505 1.74 1.29 2.132v1.01s-.45.223-.617.447c-.112.168-.168.337-.168.56 0 .45.224.787.56.955 0 0 .45.337 1.628.505 3.87.505 7.74.73 11.778.842 1.066 0 2.132.055 3.197.055h.057c1.065 0 2.13 0 3.197-.056 4.038-.113 7.908-.338 11.78-.843 1.177-.168 1.625-.505 1.625-.505.337-.168.562-.56.562-.954 0-.224-.057-.393-.17-.56-.167-.226-.615-.45-.615-.45v-1.01c.784-.392 1.29-1.232 1.29-2.13 0-.45-.113-.842-.338-1.18l.168-.84c.505-.057.897-.505.897-1.065 0-.338-.112-.617-.336-.786.73-.73 2.02-2.468 2.02-2.468h.17c.616 0 1.177-.506 1.177-1.18 0-.224-.057-.392-.168-.616v-.057c.392-.672.784-1.402 1.513-1.85.17.11.393.224.617.224.562 0 1.01-.447 1.01-1.01 0-.168-.056-.336-.112-.504l.057-.057c.505-.112.897-.562.897-1.122v-.225c.448-.168.73-.617.73-1.065 0-.17-.057-.337-.113-.448.448-.17.785-.562.785-1.123 0-.168-.057-.336-.112-.448.393-.17.673-.563.673-1.066-.003-.28-.116-.56-.284-.785zm-9.872 1.288c.168-.28.056-.672 0-1.01.112-.11.337-.224.448-.392.225-.28.28-.786.112-1.065-.168-.168.057-.392.17-.505.335-.168.728.17 1.177 0 .393.45.897.785 1.515.674.224.167.505.335.73.504 0 0 .056.056 0 .168-.17.337.11.84-.057 1.233-.225.562-.112 1.066.056 1.627-.223.506-.392 1.01-.392 1.57-.056.225 0 .337 0 .617-.336-.057-.84.056-1.122.224-.11-.225-.28-.393-.448-.505-.617-.394-1.178-.786-1.963-1.066-.505-.168-.73-.112-1.066-.225-.394-.17.504-.562.336-1.066-.337-.448.336-.448.504-.786zm-1.29 8.64c-.168.056-.28 0-.45 0 .226-.506.45-1.066.506-1.628.112-.673-.112-1.29-.505-1.682.113-.17.113-.338.17-.506.112-.617-.057-1.01-.45-1.458-.224-.225-.672-.505-.392-.673.393-.11 1.178.057 1.178.057 1.46.225 2.356.84 3.142 1.74 0 .055.056 0 .056.055-.112.112-.168.28-.336.448-.28-.11-.617-.28-.897-.224-1.235.45-2.132 2.86-2.02 3.87zM36.18 14.02c.11-.168.28-.225.448-.28 1.29-.225 2.636-.617 3.813-1.01 1.46-.616 3.143-1.065 4.77-.616.11.055.28.055.336.11 1.907.618 2.805 2.638 3.03 4.488 0 .056.055.785.055 1.01-.055 1.626-.672 3.42-1.625 4.823-.28.393-.617.898-1.066 1.123-.226.056-.28 0-.394-.113-.168-.11-.112-.28-.056-.448.897-1.01 1.515-2.076 2.02-3.31.616-1.46.448-3.31-.057-4.712-.168-.337-.337-.674-.56-.954-.955-1.347-3.255-1.626-4.376-1.233-1.795.617-3.59 1.18-5.44 1.627-.506.112-.674.225-.898-.056-.057-.055-.057-.28 0-.448zm9.198 5.05c.225-.507.897-1.067.785-1.403-.056-.114-.168-.17-.28-.17-.225.056-.393.225-.505.394-.112.11-.337.11-.393-.113-.057-.224 0-.447.112-.616.168-.336-.28-.393-.225-.616.28-.393.505-.954.337-1.402-.058-.393-.506-.448-.563-.84 0-.114.112-.226.337-.226.448.11.785.56.897 1.01.226.448-.167.84.113 1.178.224.056.28-.168.448-.112.113 0 .226.056.28.224.282.617.226 1.178.113 1.852-.112.73-.84 1.12-.785 1.963 0 .337-.56 1.515-.897 1.402-.335-.336.113-.785.113-1.234-.447-.45-.053-.9.115-1.292zm-8.694 5.832c-.168-.112-.448-.17-.617-.337.112-.673-.168-1.178-.56-1.683.28-.056.224-.056.392-.056 1.01-.112 1.457-.168 2.242-.28.786-.112 1.46-.28 2.3-.337 1.684-.11 2.412.226 3.366.786.224.168.673.168.505.617-.112.225-1.01.057-1.515.225-.562.168-.897.673-1.122 1.234-.673-.057-1.234.448-1.515.84-.728 1.01-.672 3.814-.672 3.814-.337-.11-.45-.672-.842-.73-.28-.056-.505.17-.673.337-.112.113-.28.225-.393.17.112-.226.112-.563.168-.787.282-1.4.113-3.082-1.064-3.812zm6.338-11.05c.336-.057.785.504.953.897.056.057.112.28.056.562-.167.337.17.786 0 1.122-.055.168-.223.28-.392.225-.73-.226-.673-1.235-1.402-1.57-.28 0-.393.223-.73.223-.336 0-.673-.112-.784-.393-.057-.112 0-.28.11-.337.395-.11.73-.11 1.067-.336.335-.112.616.168.952.168.17-.11-.11-.45.17-.56zm-7.404 7.573c.112-.057.28-.112.393-.168.786-.618.562-1.796.337-2.58.28-.394.337-.955.112-1.403.168-.506.224-1.01.168-1.57.224-.057.336-.057.448 0 .785.11 1.627 0 2.3-.113.45-.168.673.45.842.562.168.168.336.224.673.28.45.112.842.057 1.18.168.224.45.56.842 1.01 1.01.224.112.504 0 .616.225 0 .56.225.952.448 1.4-.168.28-.28.843-.112 1.235-.056.336-.224 1.01-.224 1.01 0 .11 0 .11-.057.28-.28-.112-.56-.226-.84-.337-1.402-.674-3.03-.168-4.487.057-.954.11-1.964.28-2.917.336.056-.225.056-.225.112-.393zm-.45-4.095c0 .224 0 .505-.167.73-.11.335.17.503.226.84.056.112.224.954 0 1.29-.28.225-.45-.056-.674-.056-.336.168-.224.616-.28.897-.056.11 0 .336-.28.336-.168-.057-.168-.17-.28-.45-.057-.56-.057-1.178.112-1.682.168-.28.336-.112.505-.112.167-.056.167-.17.167-.28 0-.112-.28-1.01-.56-1.46-.394-.392.11-.895-.058-1.345-.057-.11-.057-.167.056-.224.168-.112.336 0 .505.057.17 0 .225-.113.17-.28-.226-.505-.674-1.01-.562-1.515.056-.113.168-.17.28-.17.168.057.224.057.393.28.226.338.674 1.292.618 1.74 0 .112-.112.785-.337.84-.11.227.17.284.17.564zm-1.85-9.31s.168-.057.336.056c.674.28 1.066.673 1.29 1.346.057.168.112.393-.056.56-.56-.055-1.627-.167-1.627-.167l.058-1.796zm-1.065 3.588c.785 0 1.57.057 2.355.112.168 0 .337.17.28.394-.056.11-.168.224-.28.224-.785-.056-1.515 0-2.3 0h-.056c-.786 0-1.515-.056-2.3 0-.112 0-.225-.112-.28-.224-.057-.225.11-.338.28-.394.786-.055 1.57-.112 2.3-.112zm0 1.627c.056 0 .056 0 0 0 .056 0 .056 0 0 0 .056 0 .056 0 0 0 .785 0 .616 1.852.616 4.15 0 2.3.224 4.15-.617 4.15-.842 0-.617-1.85-.617-4.15.055-2.298-.17-4.15.617-4.15zm-2.58-3.814c.224-.673.616-1.065 1.29-1.346.224-.112.336-.057.336-.057v1.795s-1.01.112-1.628.168c-.168-.11-.11-.336 0-.56zm.11 4.712c.17-.225.226-.225.394-.28.17 0 .225.056.28.168.112.56-.336 1.01-.56 1.515-.057.168 0 .28.167.28.17 0 .337-.168.505-.057.168.114.11.17.056.226-.225.45.336.954-.057 1.347-.28.448-.562 1.347-.562 1.458 0 .113 0 .226.168.282.17 0 .337-.17.505.11.17.507.17 1.123.113 1.685-.056.28-.112.393-.28.448-.28 0-.225-.225-.28-.337-.057-.336.056-.73-.28-.896-.225 0-.393.336-.674.056-.28-.337-.057-1.122 0-1.29.11-.337.392-.505.224-.842-.168-.168-.168-.505-.168-.73 0-.28.28-.336.112-.56-.225-.057-.337-.73-.337-.842.057-.45.506-1.347.674-1.74zM29 21.427c.056.225.056.225.056.393-1.01-.057-2.02-.225-2.917-.336-1.46-.225-3.086-.73-4.488-.057-.28.11-.56.225-.842.336-.056-.225-.056-.225-.056-.28 0 0-.168-.673-.225-1.01.167-.392.056-.897-.113-1.233.225-.45.45-.897.45-1.402.11-.225.447-.112.616-.225.448-.168.785-.56 1.01-1.01.336-.168.728-.056 1.178-.168.394-.112.506-.168.674-.28.225-.112.393-.73.897-.562.674.113 1.516.225 2.3.113.17-.057.28-.057.506 0-.057.56 0 1.064.168 1.57-.225.448-.112 1.01.112 1.402-.225.84-.45 2.02.337 2.58.056 0 .168.112.336.17zm-.506 3.14c-.168.168-.448.225-.617.337-1.178.73-1.346 2.412-1.12 3.76.055.223.055.56.167.784-.112.056-.28-.057-.393-.17-.11-.167-.392-.392-.672-.336-.393.113-.45.617-.842.73 0 0 0-2.805-.673-3.814-.337-.45-.897-.898-1.515-.842-.225-.505-.56-1.066-1.122-1.234-.505-.168-1.402 0-1.515-.225-.11-.448.282-.448.506-.617.954-.56 1.684-.896 3.366-.785.785.057 1.514.28 2.3.337.84.112 1.29.225 2.243.28.168 0 .112 0 .393.057-.335.56-.616 1.065-.504 1.737zm-7.965-9.255c-.057-.28.056-.448.056-.56.168-.395.616-.955.953-.898.28.11 0 .45.224.617.336 0 .617-.28.953-.167.337.168.73.224 1.066.336.11.056.168.224.11.335-.167.28-.504.393-.784.393-.394 0-.506-.224-.73-.224-.73.337-.674 1.347-1.402 1.57-.17 0-.337-.056-.393-.224-.224-.448.112-.84-.056-1.178zm-4.6 1.403c.225-1.85 1.122-3.87 3.03-4.487.11-.057.224-.057.336-.112 1.57-.448 3.253 0 4.768.617 1.233.448 2.523.785 3.813 1.01.17.056.393.056.45.28.055.112.055.336 0 .45-.226.28-.394.167-.898.055-1.853-.448-3.703-1.01-5.442-1.626-1.12-.393-3.42-.113-4.375 1.233-.224.28-.393.617-.56.954-.506 1.4-.674 3.252-.057 4.71.448 1.234 1.12 2.3 2.02 3.31.056.17.11.337-.057.448-.113.057-.17.17-.394.113-.45-.224-.785-.73-1.066-1.122-.953-1.402-1.57-3.197-1.626-4.823.056-.225.056-.954.056-1.01zm3.814-.168c.056.28-.393.337-.225.616.11.17.168.393.11.617-.055.225-.28.225-.392.113-.112-.17-.28-.338-.505-.394-.112 0-.225.055-.28.168-.112.28.56.896.785 1.402.168.393.56.84.168 1.233.057.393.45.84.112 1.234-.393.056-.953-1.122-.953-1.458.056-.787-.673-1.18-.785-1.965-.112-.673-.17-1.233.112-1.85.056-.113.168-.17.28-.226.225 0 .28.224.448.11.28-.393-.112-.785.112-1.178.112-.448.505-.896.897-1.01.224 0 .336.113.336.225 0 .393-.45.506-.562.842-.165.563.06 1.124.34 1.517zm-2.973 9.815c.057.168.057.337.17.506-.394.336-.674 1.01-.506 1.682.057.562.337 1.122.505 1.627-.17.057-.28.057-.45 0 .113-1.065-.784-3.422-2.075-3.814-.28-.056-.616.057-.897.225-.168-.225-.224-.336-.336-.45 0-.055.056-.055.056-.055.785-.897 1.683-1.458 3.142-1.74 0 0 .785-.167 1.178-.055.337.225-.168.448-.393.673-.338.393-.506.842-.394 1.402zM15.2 20.53c-.056.336-.168.728 0 1.008.112.28.786.28.506.73-.17.504.73.896.336 1.064-.336.057-.56.057-1.065.225-.73.28-1.29.674-1.963 1.066-.17.11-.394.336-.45.504-.28-.168-.784-.224-1.12-.224 0-.28.056-.393 0-.617-.057-.56-.225-1.01-.45-1.57.17-.562.226-1.065.057-1.627-.167-.394.17-.898-.055-1.234-.057-.113 0-.168 0-.168.225-.17.448-.338.73-.506.673.112 1.12-.225 1.514-.673.448.11.84-.225 1.177 0 .17.11.337.336.17.504-.17.28-.113.785.11 1.066.223.225.392.337.504.45zm-5.776 5.384c-.28.112-.562-.17-.674-.337-.56-.842-1.065-1.627-1.346-2.58-.673-1.795-1.01-4.04-.112-5.834.28-.672.84-1.233 1.402-1.626 1.57-1.065 3.59-1.515 5.553-1.065.168.056.562.11.617.448 0 .17 0 .17-.112.28-.112.225-.448.168-.897.057-1.234-.225-2.524-.057-3.702.393-.953.45-2.02 1.12-2.355 2.188-.785 2.692.28 5.496 1.795 7.63.054.053.11.277-.17.446zm.897-1.964c0 .17-.168.113-.28.057-.56-.393-.785-1.01-1.01-1.57-.168-.45-.448-.785-.224-1.234.168-.336.168-.28.28-.56.056-.113.112-.226 0-.394-.505-.675-.56-2.133 0-2.58.168-.114.393-.114.337.11-.225.506-.28 1.122.056 1.57.392.225.56.73.504 1.123 0 .168-.057.28-.112.393.112.393.337.84.112 1.233-.112.11-.225.11-.337.168.337.56.73 1.122.674 1.682zm-.168-6.225c0-.112 0-.225.057-.337.167-.448.728-1.01.952-.896.337.11-.393.785.168.953.674.056.617-.73 1.122-1.01.337-.225.785-.225 1.178-.168.337.11.45.393.45.617.055.168 0 .336-.113.448-.45.28-.897-.562-1.347.056-.224.28-.336.842-.73.898-.224 0-.392-.225-.616-.113-.225.17-.505.393-.785.28-.225-.11-.28-.28-.338-.728zm5.554 20.305c0 .11.056.336-.057.336-.17 0-.226-.28-.338-.505 0-.28.17-.56.394-.672.11-.057.224-.057.28 0 .112.11.168.448.056.504 0 .057-.28.114-.336.338zm.616-1.29c-.168-.17-.336-.562-.056-.562.448 0 .785.56.953.953.28.786.168 1.74-.45 2.3-.11.113-.167.113-.28.113-.224-.112 0-.28.057-.393.057-.057.057-.112.112-.168.447-.728.167-1.682-.338-2.243zm15.987 6.506c-.786 0-10.153-.17-11.275-.448 1.627-.337 8.694-.45 11.22-.45h.055c2.58 0 9.592.113 11.218.45-1.123.28-10.434.392-11.22.448zm15.48-.897c-5.16-.562-10.152-.843-15.48-.843h-.057c-5.33 0-10.32.28-15.48.842-.394.056-.674-.058-.674-.226 0-.225.055-.336.223-.393 1.402-.28 2.973-.392 4.432-.504 3.758-.393 7.628-.616 11.5-.616h.055c3.87 0 7.74.224 11.5.616 1.457.112 3.027.28 4.43.505.168.058.225.17.225.394-.06.112-.282.225-.675.225zm-27.878-5.554l-.616.056c-.337.056-.674-.224-.73-.56-.056-.338.226-.674.562-.73l.617-.057c.337-.056.673.225.73.562.054.336-.226.672-.563.73zm.898 2.468c.057.393-.224.673-.56.73l-.618.055c-.336.055-.673-.225-.73-.563-.055-.336.226-.672.563-.73l.617-.056c.335-.054.672.227.728.564zm1.402-2.132l.842-1.01c.168-.168.393-.225.617-.056l1.01.84c.17.17.225.394.057.618l-.842 1.01c-.168.168-.393.225-.616.057l-1.01-.84c-.17-.17-.226-.45-.058-.618zm5.33-.897h-.618c-.393 0-.673-.28-.673-.674s.28-.672.674-.672h.617c.394 0 .674.28.674.673-.056.337-.337.675-.673.675zm.728 2.524c0 .392-.28.672-.673.672h-.617c-.393 0-.673-.28-.673-.673s.28-.675.673-.675h.617c.337 0 .673.28.673.674zm1.514-.562v-3.31c0-.28.225-.505.505-.505h4.318c.28 0 .505.225.505.505v3.31c0 .28-.225.504-.505.504h-4.32c-.28 0-.504-.223-.504-.504zm7.18-.112h.617c.394 0 .674.28.674.673s-.28.672-.673.672h-.616c-.393 0-.673-.28-.673-.673.057-.394.338-.674.674-.674zm-.56-2.524c0-.393.28-.673.672-.673h.562c.393 0 .673.28.673.672s-.28.674-.672.674h-.562c-.392 0-.673-.34-.673-.674zm3.533 1.345l1.01-.84c.17-.17.45-.113.617.055l.842 1.01c.168.168.112.45-.057.617l-1.01.84c-.17.17-.45.112-.617-.056l-.842-1.01c-.167-.168-.167-.448.057-.617zm4.6 1.795l.616.057c.337.056.617.392.56.728-.055.394-.392.617-.728.562l-.617-.056c-.337-.057-.617-.393-.56-.73 0-.337.336-.618.728-.562zm-.45-2.636c.057-.337.394-.617.73-.562l.617.057c.337.058.617.394.562.73-.057.393-.393.616-.73.56l-.616-.055c-.338-.056-.562-.392-.562-.73zm3.76 2.917c0 .056.056.11.11.168.057.113.28.226.057.394-.056 0-.168 0-.28-.112-.617-.56-.73-1.515-.448-2.3.168-.336.505-.953.953-.953.28 0 .11.392-.057.56-.45.56-.73 1.514-.337 2.243zm1.064-.617c-.055 0-.055-.225-.055-.336-.056-.17-.337-.28-.393-.338-.112-.056-.112-.393.056-.504.057-.057.225-.057.28 0 .225.11.394.336.394.673 0 .226-.112.506-.28.506zm.563-3.197c-.112 0-.393 0-.617-.058-.897-.224-7.235-1.458-16.547-1.458h-.057c-9.312 0-15.706 1.29-16.547 1.458-.17.057-.45.057-.617.057-.113-.058-.226-.226-.17-.394.057-.112.17-.225.337-.28 3.31-.73 10.32-1.74 16.996-1.796h.056c6.674 0 13.686 1.066 16.994 1.795.112.057.28.113.337.28.057.17-.055.394-.167.394zm4.318-7.46c-.56.615-.952 1.232-1.29 1.906l-.055.056c-.505-.28-.617-.168-.897.28-.28.45-.28.617.112.898-.562.953-1.122 1.682-2.02 2.467-.73.617-2.02 0-2.132-1.01-1.85 1.347-4.038.28-4.43-1.233-1.01 1.122-2.413 2.02-4.77.225-1.57.84-4.15 1.514-6-.898h-.057c-1.85 2.468-4.486 1.738-6 .897-2.3 1.794-3.76.953-4.77-.226-.448 1.515-2.636 2.58-4.43 1.233-.113.954-1.46 1.57-2.133 1.01-.897-.785-1.402-1.514-2.02-2.467v-.113c.394-.28.394-.448.113-.896-.28-.448-.394-.56-.897-.28l-.057-.056c-.337-.673-.73-1.29-1.29-1.907-.225-.225-.617-.393-.337-.617.168-.168.392-.225.616-.336.393-.17.897-.337 1.234 0 .505.617.056 1.57.28 1.795.056.055.168.11.28.055.393-.337.785-1.29 1.402-1.065.562.393 1.01 1.402 1.122 2.3.056.448.168 1.01-.225 1.346-.226.225-.674-.056-.898.225-.112.338.112.506.28.842.28.337.617.73 1.122.785.73-.11.785-.84 1.065-1.346.056-.11.056-.056.168 0 .673.506 1.515.786 2.355.675.393-.113.897-.28 1.01-.73.112-.28.056-.56 0-.84-.45-.842-.842.504-1.458.11-.617-.504-1.18-1.177-1.402-2.02-.112-.28-.225-.728.056-1.01.336-.28.728 0 1.12-.055.28 0 .17-.225.17-.337-.28-.45-1.01-.56-1.066-1.178.056-.56.505-.73 1.01-1.01.785-.336 1.683-.617 2.523-.45.225.058.393.114.505.395.057.224-.056.337-.112.448-.11.28-.393.617-.11.953.11.17.28.17.447.058.28-.28.617-.617 1.01-.56.505.055.785.784.897 1.345.168.842.28 1.74-.225 2.412-.506.45-.898-.45-1.347-.057-.17.17 0 .562.112.785.28.506.56.898 1.178 1.01.84.113 1.346-.056 2.02-.785.28-.336.224-.168.56-.56.28.28.73.673 1.123.84.953.45 2.3.505 3.028-.11.45-.395.73-1.123.562-1.348-.73-.73-.786.393-1.29.617-.617.225-.954.057-1.234-.225-.73-1.01-.842-2.468-.393-3.7.055-.114.055-.114.167-.282.225-.336.505-.448.842-.393.447.112.784.45.952.842.112.167.28.167.45.11.167-.056.335-.28.223-.448-.28-.393-.73-.673-.953-1.065-.168-.28-.225-.674-.112-1.01.112-.28.337-.505.617-.673.56-.337 1.29-.562 2.02-.562h.056c.73 0 1.458.168 2.02.562.28.168.505.393.617.673.168.336.056.73-.112 1.01-.225.393-.674.673-.954 1.065-.112.17.057.393.225.448.167.057.392.057.448-.11.224-.394.504-.73.953-.843.338-.056.618.057.843.393.056.112.056.112.168.28.45 1.234.394 2.692-.392 3.702-.28.337-.617.45-1.234.225-.505-.168-.56-1.346-1.29-.617-.168.168.112.953.56 1.347.73.616 2.077.56 3.03.112.393-.17.842-.562 1.122-.843.336.393.28.28.56.56.674.73 1.18.9 2.02.786.562-.11.843-.504 1.18-1.01.11-.224.224-.672.11-.785-.504-.393-.84.506-1.345.057-.504-.673-.393-1.627-.224-2.412.112-.56.393-1.29.897-1.346.393-.057.73.28 1.01.56.168.113.336.113.448-.056.28-.335 0-.67-.11-.952-.057-.11-.17-.225-.113-.448.057-.28.28-.337.505-.394.842-.168 1.74.113 2.524.45.505.28.953.448 1.01 1.01-.057.616-.785.728-1.065 1.177 0 .057-.11.337.17.337.392 0 .784-.225 1.12.056.28.28.17.73.057 1.01-.225.842-.785 1.515-1.402 2.02-.617.393-1.01-.897-1.458-.112-.057.28-.112.505 0 .84.112.45.617.675 1.01.73.785.112 1.683-.224 2.355-.673.112-.056.112-.11.168 0 .28.506.393 1.235 1.066 1.347.505-.056.84-.448 1.12-.785.17-.28.45-.448.282-.84-.225-.28-.674 0-.897-.226-.393-.337-.28-.897-.224-1.347.112-.842.56-1.907 1.122-2.3.616-.28 1.01.673 1.4 1.065.113.056.226.056.282-.056.224-.17-.17-1.123.28-1.796.336-.28.84-.17 1.233 0 .225.11.45.168.617.336.453.336.06.504-.11.73zm.226-9.313c-.336.112-.617-.11-.785-.28-.28-.056-.392.17-.616.112-.448-.058-.505-.562-.73-.898-.448-.562-.896.224-1.346-.056-.112-.113-.168-.337-.112-.45.057-.224.112-.504.45-.616.392-.056.84-.11 1.177.168.505.28.448 1.066 1.122 1.01.56-.168-.112-.84.168-.953.225-.112.785.505.953.897.057.112.057.224.057.337.055.503-.057.672-.337.727zm.505 5.61c-.11.057-.224.112-.28-.057-.055-.56.338-1.12.618-1.626-.057-.056-.225-.056-.337-.17-.28-.392 0-.84.113-1.232-.056-.112-.112-.28-.112-.393-.055-.45.17-.898.506-1.123.337-.505.28-1.12.057-1.57-.057-.225.168-.225.336-.112.56.393.504 1.907 0 2.58-.113.112 0 .28 0 .393.11.28.11.225.28.562.224.448-.057.785-.225 1.233-.17.56-.393 1.12-.954 1.514zm2.693-1.01c-.336.897-.785 1.738-1.346 2.58-.112.168-.337.45-.674.337-.28-.17-.224-.337-.168-.505 1.57-2.077 2.637-4.937 1.795-7.63-.28-1.065-1.346-1.738-2.355-2.188-1.178-.448-2.47-.617-3.702-.393-.45.11-.785.167-.897-.057-.057-.112-.057-.17-.112-.28.056-.337.393-.337.617-.45 1.964-.448 3.983.058 5.554 1.067.56.393 1.122.953 1.402 1.626.84 1.852.56 4.096-.113 5.89z"/><g fill="#FFF"><path d="M3.982 48.8v2.188s3.87 2.188 9.087 2.188 9.59-2.356 9.59-2.356 3.534 2.3 10.04 2.3c5.16 0 8.695-2.355 8.695-2.355s3.982 2.412 10.04 2.412c4.937 0 8.582-2.188 8.582-2.188v-2.134s-3.927 2.3-8.75 2.3c-5.946 0-9.76-2.58-9.76-2.58s-4.992 2.692-9.03 2.692c-5.16 0-9.816-2.69-9.816-2.69s-3.98 2.58-9.478 2.58-9.2-2.358-9.2-2.358zM3.982 54.24v2.187s3.87 2.188 9.087 2.188 9.59-2.356 9.59-2.356 3.534 2.3 10.04 2.3c5.16 0 8.695-2.356 8.695-2.356s3.982 2.412 10.04 2.412c4.937 0 8.582-2.188 8.582-2.188v-2.13s-3.927 2.3-8.75 2.3c-5.946 0-9.76-2.58-9.76-2.58s-4.992 2.69-9.03 2.69c-5.16 0-9.816-2.69-9.816-2.69s-3.98 2.58-9.478 2.58c-5.497-.058-9.2-2.36-9.2-2.36zM3.982 59.624v2.188S7.852 64 13.07 64s9.59-2.356 9.59-2.356 3.534 2.3 10.04 2.3c5.16 0 8.695-2.355 8.695-2.355S45.378 64 51.435 64c4.938 0 8.583-2.188 8.583-2.188v-2.13s-3.927 2.3-8.75 2.3c-5.946 0-9.76-2.58-9.76-2.58s-4.992 2.69-9.03 2.69c-5.16 0-9.816-2.69-9.816-2.69s-3.982 2.58-9.48 2.58-9.2-2.358-9.2-2.358z"/></g></svg>