<svg id="Layer_2" xmlns="http://www.w3.org/2000/svg" width="197" height="38"><g id="artproject-button"><path d="M20.655 22.9c-1.012.562-2.162.824-3.312.824-2.75 0-4.724-1.874-4.724-4.648 0-2.787 2.11-4.65 4.76-4.65 1.162 0 2.287.313 3.125 1.163l-.788.824c-.6-.65-1.512-1.012-2.412-1.012-2.025 0-3.562 1.525-3.562 3.674 0 2.11 1.487 3.674 3.662 3.674.712 0 1.55-.188 2.2-.512v-2.713h-2.037v-.974h3.087v4.35zM23.095 19.076c0-2.674 1.937-4.65 4.624-4.65 2.686 0 4.623 1.976 4.623 4.65 0 2.674-1.937 4.648-4.624 4.648-2.688 0-4.625-1.974-4.625-4.648zm8.123 0c0-2.037-1.425-3.674-3.5-3.674-2.074 0-3.5 1.637-3.5 3.674s1.426 3.674 3.5 3.674c2.075 0 3.5-1.637 3.5-3.674zM44.943 15.627H42.02V23.5h-1.05v-7.873h-2.925v-.975h6.898v.975zM46.42 19.076c0-2.674 1.936-4.65 4.623-4.65 2.687 0 4.624 1.976 4.624 4.65 0 2.674-1.937 4.648-4.624 4.648-2.687 0-4.624-1.974-4.624-4.648zm8.122 0c0-2.037-1.425-3.674-3.5-3.674-2.074 0-3.5 1.637-3.5 3.674s1.426 3.674 3.5 3.674c2.076 0 3.5-1.637 3.5-3.674zM63.844 16.377H61.32v-1.725h7v1.725h-2.525V23.5h-1.95v-7.123zM70.057 14.652h1.95v3.3h3.786v-3.3h1.95V23.5h-1.95v-3.824h-3.787V23.5h-1.95v-8.848zM80.37 14.652h6.01v1.8h-4.062v1.65h3.836V19.9h-3.836v1.8h4.287v1.8H80.37v-8.848zM96.28 14.652h1.612l3.85 8.848h-2.2l-.763-1.875H95.34l-.737 1.875h-2.15l3.825-8.848zm.75 2.575l-1.075 2.75h2.162l-1.087-2.75zM103.38 14.652h3.426c1.812 0 3.336.625 3.336 2.687 0 1.236-.662 2.2-1.91 2.424l2.248 3.736h-2.337l-1.85-3.537h-.962V23.5h-1.95v-8.848zm1.95 3.662h1.15c.712 0 1.637-.025 1.637-.987 0-.887-.8-1.025-1.512-1.025h-1.274v2.012zM113.72 16.377h-2.525v-1.725h6.998v1.725h-2.524V23.5h-1.95v-7.123zM124.38 14.652h3.288c1.837 0 3.36.587 3.36 2.687 0 2.074-1.41 2.71-3.272 2.71h-1.425v3.45h-1.95v-8.848zm1.95 3.75h1.3c.688 0 1.375-.24 1.375-1.063 0-.913-.925-1.038-1.675-1.038h-1v2.1zM133.006 14.652h3.425c1.813 0 3.337.625 3.337 2.687 0 1.236-.662 2.2-1.91 2.424l2.248 3.736h-2.337l-1.85-3.537h-.962V23.5h-1.95v-8.848zm1.95 3.662h1.15c.71 0 1.636-.025 1.636-.987 0-.887-.8-1.025-1.512-1.025h-1.274v2.012zM146.155 14.427c2.762 0 4.773 1.812 4.773 4.65s-2.012 4.647-4.773 4.647c-2.763 0-4.774-1.812-4.774-4.648s2.013-4.65 4.775-4.65zm0 7.5c1.66 0 2.75-1.2 2.75-2.85 0-1.65-1.09-2.85-2.75-2.85-1.662 0-2.75 1.2-2.75 2.85 0 1.65 1.088 2.85 2.75 2.85zM157.58 20.538c0 1.638-.426 3.187-2.825 3.187-1.4 0-2.425-.65-2.712-2.062l1.787-.438c.05.425.45.774.875.774.912 0 .925-1.013.925-1.675V14.65h1.95v5.888zM160.08 14.652h6.01v1.8h-4.06v1.65h3.836V19.9h-3.837v1.8h4.286v1.8h-6.236v-8.848zM174.416 16.952c-.387-.462-.95-.725-1.674-.725-1.475 0-2.562 1.2-2.562 2.85 0 1.65 1.088 2.85 2.5 2.85.787 0 1.424-.35 1.824-.95l1.624 1.212c-.737 1.05-1.986 1.536-3.2 1.536-2.76 0-4.772-1.812-4.772-4.648s2.012-4.65 4.773-4.65c.986 0 2.236.338 2.986 1.3l-1.5 1.224zM179.655 16.377h-2.524v-1.725h7v1.725h-2.525V23.5h-1.95v-7.123z"/></g></svg>