<svg xmlns="http://www.w3.org/2000/svg" width="361.128" height="504.539"><g id="artproject" fill="#FFF"><path d="M69.758 276.357h-4.104v-1.62l3.886-6.067h1.853v6.22h1.405v1.47h-1.405v1.965h-1.635v-1.968zm0-5.37h-.028l-2.413 3.898h2.44v-3.9zM88.59 268.67h1.487l4.16 9.65H92.27l-.9-2.206h-4.185l-.873 2.206h-1.922l4.2-9.65zm2.182 5.97l-1.485-3.926-1.513 3.927h2.998zM98.862 268.67h3.354c1.853 0 3.598.6 3.598 2.768 0 1.393-.804 2.414-2.235 2.617l2.56 4.27h-2.07l-2.236-4.092h-1.255v4.092H98.86v-9.656zm3.053 4.09c.97 0 2.1-.082 2.1-1.337 0-1.146-1.064-1.28-1.95-1.28h-1.486v2.616h1.335zM112.73 270.225h-2.958v-1.556h7.635v1.555h-2.958v8.095h-1.72zM122.087 268.67h1.718v9.65h-1.718zM134.196 270.742c-.368-.52-1.022-.764-1.69-.764-.79 0-1.583.354-1.583 1.24 0 1.936 4.58.83 4.58 4.266 0 2.074-1.634 3.082-3.53 3.082-1.2 0-2.372-.367-3.162-1.31l1.296-1.254c.423.642 1.145 1.01 1.908 1.01.79 0 1.69-.437 1.69-1.323 0-2.112-4.58-.9-4.58-4.35 0-1.99 1.773-2.918 3.558-2.918 1.01 0 2.018.287 2.768.996l-1.254 1.324zM142.815 270.225h-2.958v-1.556h7.636v1.555h-2.958v8.095h-1.72zM156.943 270.742c-.368-.52-1.022-.764-1.69-.764-.79 0-1.583.354-1.583 1.24 0 1.936 4.58.83 4.58 4.266 0 2.074-1.634 3.082-3.53 3.082-1.2 0-2.372-.367-3.162-1.31l1.295-1.254c.423.642 1.145 1.01 1.908 1.01.792 0 1.692-.437 1.692-1.323 0-2.112-4.58-.9-4.58-4.35 0-1.99 1.772-2.918 3.557-2.918 1.01 0 2.017.287 2.767.996l-1.254 1.324zM178.875 276.81c-.914 1.253-2.168 1.76-3.586 1.76-2.946 0-4.99-2.128-4.99-5.07s2.044-5.073 4.99-5.073c1.308 0 2.48.438 3.325 1.516l-.735.613c-.6-.9-1.623-1.31-2.59-1.31-2.523 0-4.09 1.853-4.09 4.253 0 2.395 1.567 4.25 4.09 4.25.967 0 2.167-.462 2.85-1.497l.735.556zM184.06 268.67h5.902v.818h-5.004v3.435h4.69v.82h-4.69v3.762h5.222v.815h-6.12zM195.69 268.67h.9v8.835h4.5v.815h-5.4zM206.042 268.67h5.904v.818h-5.004v3.435h4.69v.82h-4.69v3.762h5.222v.815h-6.122zM217.677 268.67h2.78c1.474 0 3.107.366 3.107 2.55 0 .98-.586 1.772-1.73 2.005v.024c1.27.098 2.152 1.02 2.152 2.372 0 2.224-1.922 2.698-3.23 2.698h-3.08v-9.65zm.9 4.17h1.867c1.868 0 2.222-1.02 2.222-1.62 0-1.352-.953-1.73-2.1-1.73h-1.99v3.35zm0 4.663h2.058c2.113 0 2.455-1.172 2.455-1.854 0-1.43-1.174-1.99-2.315-1.99h-2.194v3.844h-.004zM229.813 268.67h2.536c.763 0 3.435 0 3.435 2.534 0 1.84-1.404 2.346-2.468 2.48l2.81 4.636h-1.02l-2.713-4.58h-1.68v4.58h-.898l-.003-9.65zm.9 4.253h1.91c1.894 0 2.263-1.05 2.263-1.72 0-.665-.37-1.717-2.264-1.717h-1.908v3.437zM244.405 268.67h.927l4.062 9.65h-1.008l-1.05-2.562h-5.113l-1.09 2.562h-.94l4.212-9.65zm.423.98l-2.248 5.29h4.43l-2.182-5.29zM255.548 269.488h-3.298v-.82h7.498v.82h-3.3v8.834h-.9zM264.78 268.67h.9v9.65h-.9zM271.873 268.67h1.158l5.878 8.453h.027v-8.454h.898v9.65h-1.158l-5.875-8.45h-.028v8.45h-.9zM293.992 277.695c-1.12.64-2.346.873-3.6.873-2.945 0-4.99-2.127-4.99-5.072s2.045-5.072 4.99-5.072c1.432 0 2.59.438 3.477 1.336l-.657.684c-.584-.71-1.77-1.198-2.82-1.198-2.52 0-4.09 1.854-4.09 4.254s1.568 4.252 4.09 4.252c1.035 0 1.965-.135 2.7-.57v-3.245h-2.317v-.816h3.22v4.577h-.004zM0 295.945h2.78c1.365 0 3.11.53 3.11 2.55 0 1.745-1.39 2.522-2.904 2.522H.9v4.58H0v-9.652zm.9 4.254h2.046c1.022 0 2.044-.44 2.044-1.704 0-1.242-1.063-1.73-2.1-1.73H.9v3.433zM13.323 295.945h.927l4.063 9.652h-1.008l-1.05-2.562h-5.113l-1.09 2.562h-.94l4.21-9.652zm.423.983l-2.25 5.288h4.432l-2.182-5.288zM24.466 296.764h-3.3v-.82h7.5v.82h-3.3v8.834h-.9zM35.84 296.764h-3.3v-.82h7.5v.82h-3.3v8.834h-.9zM45.073 295.945h5.904v.82h-5.004v3.434h4.69v.818h-4.69v3.76h5.22v.82h-6.12zM56.706 295.945h2.536c.764 0 3.436 0 3.436 2.535 0 1.84-1.405 2.346-2.468 2.48l2.808 4.637h-1.022l-2.712-4.582h-1.678v4.582h-.9v-9.652zm.9 4.254h1.91c1.893 0 2.262-1.052 2.262-1.72 0-.666-.37-1.717-2.263-1.717h-1.91v3.436zM68.34 295.945h1.158l5.876 8.453h.027v-8.453h.9v9.653h-1.158l-5.876-8.452h-.027v8.452h-.9zM89.587 295.945h1.16l5.875 8.453h.027v-8.453h.9v9.653h-1.16l-5.876-8.452h-.027v8.452h-.9zM108.092 295.7c2.946 0 4.99 2.128 4.99 5.07 0 2.945-2.044 5.072-4.99 5.072-2.945 0-4.99-2.127-4.99-5.07.002-2.944 2.045-5.07 4.99-5.07m0 9.32c2.523 0 4.09-1.853 4.09-4.25 0-2.4-1.567-4.255-4.09-4.255-2.522 0-4.09 1.854-4.09 4.254 0 2.4 1.568 4.253 4.09 4.253M119.1 304.37c.368 0 .654.286.654.653 0 .37-.286.656-.654.656-.368 0-.654-.288-.654-.657 0-.367.285-.652.654-.652M127.978 297.09h-.015l-1.744 1.433-.505-.628 2.385-1.95h.695v9.653h-.817zM146.428 295.945h.927l4.063 9.652h-1.008l-1.05-2.562h-5.113l-1.09 2.562h-.94l4.21-9.652zm.423.983l-2.248 5.288h4.43l-2.18-5.288zM156.358 295.945h1.16l5.875 8.453h.027v-8.453h.9v9.653h-1.16l-5.875-8.452h-.027v8.452h-.9zM170.378 295.945h2.986c5.016 0 5.22 4.117 5.22 4.826s-.204 4.827-5.22 4.827h-2.986v-9.652zm.9 8.834h1.854c2.563 0 4.553-1.24 4.553-4.01 0-2.768-1.99-4.007-4.553-4.007h-1.854v8.016zM193.37 296.764h-3.3v-.82h7.5v.82h-3.3v8.834h-.9zM202.604 295.945h.9v4.254h5.398v-4.255h.9v9.653h-.9v-4.58h-5.4v4.58h-.898zM215.996 295.945h5.903v.82h-5.004v3.434h4.69v.818h-4.69v3.76h5.22v.82h-6.12zM242.67 304.085c-.915 1.252-2.17 1.758-3.587 1.758-2.944 0-4.99-2.127-4.99-5.07 0-2.942 2.046-5.07 4.99-5.07 1.31 0 2.48.437 3.326 1.513l-.737.615c-.6-.9-1.623-1.31-2.59-1.31-2.52 0-4.09 1.853-4.09 4.253 0 2.4 1.566 4.254 4.09 4.254.967 0 2.168-.463 2.85-1.5l.736.558zM252.216 295.7c2.945 0 4.99 2.128 4.99 5.07 0 2.945-2.045 5.072-4.99 5.072-2.944 0-4.988-2.127-4.988-5.07 0-2.944 2.043-5.07 4.988-5.07m0 9.32c2.52 0 4.09-1.853 4.09-4.25 0-2.4-1.566-4.255-4.09-4.255-2.52 0-4.09 1.854-4.09 4.254 0 2.4 1.568 4.253 4.09 4.253M262.773 295.945h.9v8.834h4.5v.818h-5.4zM277.487 295.7c2.946 0 4.99 2.128 4.99 5.07 0 2.945-2.044 5.072-4.99 5.072-2.944 0-4.99-2.127-4.99-5.07 0-2.944 2.045-5.07 4.99-5.07m0 9.32c2.522 0 4.09-1.853 4.09-4.25 0-2.4-1.564-4.255-4.09-4.255-2.52 0-4.09 1.854-4.09 4.254 0 2.4 1.57 4.253 4.09 4.253M294.902 301.902c0 2.06-.886 3.94-3.518 3.94-2.63 0-3.518-1.883-3.518-3.94v-5.957h.898v5.727c0 1.377.367 3.354 2.617 3.354s2.618-1.978 2.618-3.354v-5.727h.898v5.957h.006zM300.92 295.945h2.534c.765 0 3.436 0 3.436 2.535 0 1.84-1.404 2.346-2.467 2.48l2.81 4.637h-1.022l-2.712-4.582h-1.68v4.582h-.898v-9.652zm.898 4.254h1.91c1.893 0 2.262-1.052 2.262-1.72 0-.666-.37-1.717-2.263-1.717h-1.91v3.436zM319.644 295.945h2.78c1.474 0 3.108.367 3.108 2.55 0 .98-.586 1.772-1.73 2.005v.025c1.268.098 2.152 1.02 2.152 2.373 0 2.223-1.922 2.7-3.23 2.7h-3.082v-9.653h.002zm.898 4.172h1.87c1.866 0 2.22-1.023 2.22-1.62 0-1.353-.953-1.73-2.098-1.73h-1.992v3.35zm0 4.662h2.06c2.112 0 2.454-1.173 2.454-1.855 0-1.43-1.174-1.99-2.316-1.99h-2.195v3.846h-.002zM331.78 295.945h.9v8.834h4.5v.818h-5.4zM348.99 301.902c0 2.06-.887 3.94-3.518 3.94-2.633 0-3.518-1.883-3.518-3.94v-5.957h.896v5.727c0 1.377.37 3.354 2.62 3.354 2.247 0 2.614-1.978 2.614-3.354v-5.727h.9v5.957h.006zM355.007 295.945h5.905v.82h-5.004v3.434h4.69v.818h-4.69v3.76h5.22v.82h-6.12zM61.56 323.22h.9v9.652h-.9zM68.653 323.22h1.16l5.875 8.453h.027v-8.452h.9v9.653h-1.16l-5.875-8.452h-.027v8.453h-.9zM97.835 331.36c-.914 1.253-2.168 1.76-3.586 1.76-2.946 0-4.99-2.128-4.99-5.07s2.044-5.07 4.99-5.07c1.308 0 2.48.434 3.325 1.512l-.735.614c-.6-.9-1.623-1.31-2.59-1.31-2.523 0-4.09 1.853-4.09 4.253 0 2.395 1.567 4.25 4.09 4.25.967 0 2.167-.462 2.85-1.497l.735.556zM107.383 322.977c2.946 0 4.99 2.127 4.99 5.07 0 2.944-2.044 5.07-4.99 5.07-2.945 0-4.99-2.126-4.99-5.07 0-2.943 2.045-5.07 4.99-5.07m0 9.323c2.523 0 4.09-1.854 4.09-4.252 0-2.4-1.567-4.254-4.09-4.254-2.522 0-4.09 1.854-4.09 4.254 0 2.397 1.568 4.252 4.09 4.252M117.94 323.22h.9v8.837h4.5v.816h-5.4zM128.29 323.22h.9v8.837h4.5v.816h-5.4zM141.6 323.223h.928l4.063 9.65h-1.007l-1.05-2.563h-5.113l-1.09 2.562h-.94l4.21-9.65zm.424.98l-2.25 5.29h4.432l-2.182-5.29zM151.53 323.22h2.78c1.474 0 3.11.37 3.11 2.552 0 .98-.586 1.772-1.73 2.004v.026c1.266.097 2.152 1.02 2.152 2.37 0 2.225-1.922 2.702-3.23 2.702h-3.082v-9.653zm.9 4.173h1.868c1.868 0 2.222-1.02 2.222-1.62 0-1.352-.954-1.73-2.1-1.73h-1.99v3.35zm0 4.664h2.058c2.114 0 2.454-1.175 2.454-1.854 0-1.433-1.172-1.99-2.316-1.99h-2.196v3.844zM168.03 322.977c2.947 0 4.99 2.127 4.99 5.07 0 2.944-2.043 5.07-4.99 5.07-2.944 0-4.988-2.126-4.988-5.07 0-2.943 2.044-5.07 4.99-5.07m0 9.323c2.522 0 4.09-1.854 4.09-4.252 0-2.4-1.568-4.254-4.09-4.254-2.523 0-4.09 1.854-4.09 4.254 0 2.397 1.567 4.252 4.09 4.252M178.574 323.22h2.536c.765 0 3.437 0 3.437 2.537 0 1.84-1.403 2.345-2.467 2.482l2.81 4.634h-1.022l-2.714-4.582h-1.678v4.582h-.9l-.002-9.653zm.9 4.255h1.908c1.895 0 2.264-1.05 2.264-1.718s-.37-1.717-2.264-1.717h-1.908v3.435zM193.166 323.223h.928l4.062 9.65h-1.008l-1.05-2.563h-5.113l-1.09 2.562h-.94l4.21-9.65zm.423.98l-2.25 5.29h4.432l-2.183-5.29zM204.31 324.04h-3.3v-.82h7.497v.82h-3.3v8.835h-.898zM213.542 323.22h.898v9.652h-.898zM224.996 322.977c2.946 0 4.99 2.127 4.99 5.07 0 2.944-2.044 5.07-4.99 5.07-2.942 0-4.988-2.126-4.988-5.07 0-2.943 2.044-5.07 4.988-5.07m0 9.323c2.523 0 4.09-1.854 4.09-4.252 0-2.4-1.564-4.254-4.09-4.254-2.52 0-4.088 1.854-4.088 4.254 0 2.397 1.567 4.252 4.088 4.252M235.553 323.22h1.16l5.874 8.453h.028v-8.452h.9v9.653h-1.16l-5.875-8.452h-.027v8.453h-.9zM255.535 323.22h.925l2.4 8.55h.028l2.44-8.55h1.146l2.44 8.55h.027l2.4-8.55h.928l-2.81 9.653h-1.104l-2.44-8.588h-.027l-2.44 8.588h-1.106zM273.207 323.22h.9v9.652h-.9zM282.44 324.04h-3.3v-.82h7.5v.82h-3.3v8.835h-.9zM291.67 323.22h.902v4.255h5.4v-4.254h.9v9.653h-.9v-4.58h-5.4v4.58h-.9zM81.515 350.498h3.354c1.852 0 3.597.6 3.597 2.768 0 1.392-.804 2.414-2.235 2.617l2.562 4.268h-2.072l-2.235-4.09h-1.255v4.09h-1.717V350.5zm3.053 4.09c.97 0 2.1-.083 2.1-1.337 0-1.145-1.064-1.282-1.95-1.282h-1.486v2.62h1.336zM98.234 350.25c3.012-.055 5.14 1.964 5.14 5.06 0 3.015-2.128 5.03-5.14 5.085-2.972 0-5.1-2.02-5.1-5.03 0-3.095 2.128-5.114 5.1-5.114m.013 8.59c2.005 0 3.327-1.527 3.327-3.585 0-1.922-1.322-3.448-3.327-3.448-1.99 0-3.313 1.526-3.313 3.448 0 2.057 1.323 3.584 3.313 3.584M110.917 356.02l-3.626-5.522h2.155l2.372 3.843 2.4-3.842h2.045l-3.627 5.522v4.128h-1.718zM122.81 350.498h1.485l4.16 9.65h-1.965l-.9-2.207h-4.185l-.873 2.208h-1.922l4.2-9.65zm2.18 5.97l-1.485-3.926-1.513 3.926h2.998zM133.08 350.498h1.718v8.098h4.103v1.552h-5.82zM157.898 352.76c-.71-.748-1.363-.953-2.032-.953-1.99 0-3.313 1.526-3.313 3.448 0 2.06 1.323 3.584 3.313 3.584.778 0 1.528-.355 2.168-1.173l1.418 1.01c-.872 1.2-2.182 1.718-3.6 1.718-2.97 0-5.098-2.02-5.098-5.03 0-3.095 2.127-5.11 5.1-5.11 1.308 0 2.426.422 3.38 1.525l-1.336.98zM168.727 350.25c3.012-.055 5.14 1.964 5.14 5.06 0 3.015-2.128 5.03-5.14 5.085-2.972 0-5.1-2.02-5.1-5.03 0-3.095 2.128-5.114 5.1-5.114m.013 8.59c2.005 0 3.327-1.527 3.327-3.585 0-1.922-1.322-3.448-3.327-3.448-1.99 0-3.313 1.526-3.313 3.448 0 2.057 1.323 3.584 3.313 3.584M179.053 350.498h3.245c1.867 0 3.558.654 3.558 2.793 0 2.43-1.812 2.866-3.858 2.866h-1.227v3.992h-1.717v-9.65zm2.754 4.184c.98 0 2.25-.054 2.25-1.36 0-1.19-1.132-1.35-2.06-1.35h-1.23v2.71h1.04zM190.917 350.498h6.395v1.552h-4.676v2.373h4.43v1.556h-4.43v2.616h4.92v1.552h-6.64zM202.783 350.498h2.277l4.675 7.17.028.025h-.028l.028-.026v-7.17h1.717v9.65h-2.182l-4.77-7.4h-.027v7.4h-1.717zM217.184 350.498h1.717v3.843h4.514V350.5h1.718v9.65h-1.718v-4.252H218.9v4.252h-1.716zM233.943 350.498h1.486l4.157 9.65h-1.963l-.9-2.207h-4.186l-.873 2.208h-1.922l4.2-9.65zm2.182 5.97l-1.483-3.926-1.515 3.926h2.998zM252.79 359.44c-1.173.626-2.51.954-3.995.954-2.97 0-5.1-2.02-5.1-5.03 0-3.095 2.13-5.112 5.1-5.112 1.473 0 2.795.312 3.805 1.213l-1.27 1.28c-.613-.6-1.554-.937-2.52-.937-1.99 0-3.313 1.523-3.313 3.447 0 2.06 1.322 3.584 3.312 3.584.87 0 1.662-.165 2.264-.505v-2.275h-1.98v-1.555h3.695v4.934zM258.356 350.498h6.394v1.552h-4.676v2.373h4.43v1.556h-4.43v2.616h4.922v1.552h-6.64zM270.222 350.498h2.276l4.677 7.17.026.025h-.025l.026-.026v-7.17h1.72v9.65h-2.183l-4.77-7.4h-.028v7.4h-1.718zM141.167 483.335v3.053s5.43 3.047 12.694 3.047c7.262 0 13.376-3.262 13.376-3.262s4.887 3.19 13.987 3.19c7.19 0 12.153-3.264 12.153-3.264s5.58 3.33 13.996 3.33c6.88 0 11.996-3.046 11.996-3.046v-2.98s-5.504 3.193-12.23 3.193c-8.256 0-13.603-3.623-13.603-3.623s-6.96 3.765-12.617 3.765c-7.183 0-13.68-3.766-13.68-3.766s-5.58 3.623-13.222 3.623c-7.65.004-12.85-3.262-12.85-3.262M141.167 490.884v3.054s5.43 3.057 12.694 3.057c7.262 0 13.376-3.27 13.376-3.27s4.887 3.198 13.987 3.198c7.19 0 12.153-3.27 12.153-3.27s5.58 3.342 13.996 3.342c6.88 0 11.996-3.057 11.996-3.057v-2.98s-5.504 3.19-12.23 3.19c-8.256 0-13.603-3.62-13.603-3.62s-6.96 3.768-12.617 3.768c-7.183 0-13.68-3.768-13.68-3.768s-5.58 3.62-13.222 3.62c-7.65-.002-12.85-3.264-12.85-3.264M141.167 498.43v3.057s5.43 3.053 12.694 3.053c7.262 0 13.376-3.262 13.376-3.262s4.887 3.19 13.987 3.19c7.19 0 12.153-3.27 12.153-3.27s5.58 3.34 13.996 3.34c6.88 0 11.996-3.055 11.996-3.055v-2.98s-5.504 3.192-12.23 3.192c-8.256 0-13.603-3.62-13.603-3.62s-6.96 3.763-12.617 3.763c-7.183 0-13.68-3.762-13.68-3.762s-5.58 3.62-13.222 3.62c-7.65 0-12.85-3.267-12.85-3.267M214.364 446.878c-.433 1.24-1.104 2.383-1.864 3.5-.166.26-.494.623-.906.463-.405-.19-.348-.468-.27-.675 2.116-2.848 3.6-6.738 2.48-10.383-.386-1.45-1.873-2.38-3.187-2.976-1.6-.63-3.36-.852-5.066-.514-.638.178-1.08.21-1.212-.074-.086-.188-.104-.203-.12-.4.04-.465.573-.485.83-.592 2.725-.637 5.48.037 7.6 1.455.772.57 1.52 1.298 1.892 2.24 1.165 2.468.75 5.486-.176 7.958m-3.642 1.41c-.127.046-.32.122-.36-.077-.094-.802.45-1.57.835-2.22-.113-.103-.316-.066-.44-.238-.34-.518 0-1.176.148-1.69-.094-.18-.147-.355-.17-.56-.063-.6.224-1.22.724-1.555.454-.656.413-1.5.102-2.188-.1-.286.222-.27.435-.12.795.564.69 2.584.025 3.52-.127.19-.025.353.01.5.172.382.172.316.375.784.328.633-.08 1.08-.298 1.68-.35.82-.652 1.59-1.388 2.163m-.69-7.647c-.423.13-.825-.15-1.096-.387-.37-.1-.56.193-.88.172-.592-.104-.667-.807-1.01-1.22-.59-.782-1.21.308-1.838-.052-.15-.154-.203-.438-.15-.648.052-.322.168-.717.635-.83.547-.104 1.156-.125 1.628.195.688.402.626 1.436 1.563 1.396.783-.256-.166-1.118.263-1.312.315-.158 1.108.68 1.317 1.252.098.188.104.293.098.465-.032.607-.176.843-.527.97m-.36 12.684c-.744.815-1.285 1.645-1.73 2.576l-.046.043c-.658-.36-.848-.254-1.23.373-.36.582-.39.812.16 1.21l-.043.128c-.79 1.29-1.513 2.285-2.742 3.354-.96.812-2.76-.03-2.916-1.356-2.502 1.812-5.486.354-6.07-1.683-1.38 1.567-3.32 2.75-6.492.276-2.12 1.12-5.707 2.076-8.216-1.266h-.037c-2.506 3.342-6.095 2.385-8.216 1.266-3.173 2.475-5.11 1.29-6.49-.277-.59 2.036-3.57 3.493-6.074 1.682-.16 1.327-1.952 2.172-2.916 1.356-1.233-1.067-1.947-2.062-2.744-3.354l-.035-.127c.536-.396.51-.63.15-1.21-.378-.628-.56-.733-1.225-.374l-.043-.043c-.457-.935-.978-1.76-1.734-2.576-.28-.316-.83-.558-.442-.865.233-.214.52-.35.84-.472.542-.23 1.183-.437 1.68-.02.65.86.075 2.16.396 2.425.096.09.246.134.38.035.545-.492 1.1-1.793 1.94-1.424.755.52 1.35 1.924 1.51 3.113.068.627.225 1.39-.29 1.812-.338.3-.935-.066-1.24.282-.18.48.156.703.415 1.113.377.426.84 1.02 1.535 1.065.97-.133 1.09-1.143 1.492-1.797.115-.18.115-.086.27.017.897.645 2.083 1.098 3.196.948.56-.13 1.194-.422 1.374-1.032.142-.396.083-.763-.007-1.12-.62-1.12-1.166.673-1.986.12-.858-.656-1.578-1.644-1.914-2.767-.123-.402-.283-1 .1-1.365.458-.396.982-.03 1.508-.062.408.03.27-.334.246-.447-.366-.582-1.368-.782-1.422-1.623.054-.73.68-1.02 1.345-1.375 1.055-.473 2.272-.823 3.464-.602.278.074.564.195.67.557.053.318-.083.45-.157.64-.148.4-.558.844-.15 1.313.15.23.36.215.627.064.365-.39.828-.873 1.344-.78.686.073 1.068 1.073 1.23 1.843.242 1.127.344 2.396-.312 3.322-.702.605-1.193-.588-1.854-.088-.186.192-.013.772.134 1.096.39.674.802 1.197 1.57 1.355 1.16.16 1.84-.107 2.796-1.086.372-.42.27-.246.722-.777.4.39 1.003.928 1.56 1.158 1.286.633 3.164.71 4.137-.152.644-.54 1.003-1.556.788-1.81-.975-.994-1.082.57-1.76.817-.87.31-1.265.095-1.686-.342-1.025-1.383-1.114-3.398-.515-5.07.09-.18.09-.18.202-.35.326-.455.716-.592 1.17-.516.634.115 1.05.61 1.32 1.142.115.215.415.21.643.13.242-.08.45-.362.318-.593-.377-.528-.994-.913-1.328-1.46-.22-.37-.32-.945-.116-1.385.143-.38.487-.687.84-.95.757-.48 1.752-.733 2.747-.733h.046c.987 0 1.98.254 2.735.734.352.264.704.57.842.95.206.437.104 1.013-.116 1.384-.34.547-.94.932-1.328 1.46-.13.228.083.513.317.59.237.08.522.087.642-.128.27-.53.69-1.023 1.322-1.143.453-.077.847.06 1.18.515.104.17.104.17.185.35.605 1.672.515 3.688-.504 5.07-.42.434-.817.648-1.687.342-.67-.246-.776-1.812-1.748-.817-.228.256.126 1.27.775 1.81.973.864 2.85.786 4.146.153.557-.23 1.146-.77 1.557-1.158.447.53.352.355.73.777.942.98 1.632 1.246 2.78 1.086.773-.158 1.19-.685 1.574-1.355.146-.32.328-.902.135-1.096-.646-.5-1.15.692-1.85.088-.66-.926-.55-2.195-.312-3.322.164-.77.55-1.77 1.227-1.844.525-.093.973.394 1.354.78.254.15.464.166.622-.064.408-.473 0-.912-.158-1.313-.068-.188-.21-.32-.154-.64.107-.36.397-.48.682-.557 1.177-.225 2.402.13 3.457.602.657.355 1.288.644 1.347 1.375-.06.84-1.055 1.04-1.436 1.623-.012.113-.15.48.257.447.525.03 1.045-.334 1.498.062.396.364.23.963.1 1.364-.322 1.122-1.045 2.106-1.898 2.766-.822.553-1.377-1.24-1.982-.12-.088.357-.163.724-.018 1.12.184.61.81.9 1.377 1.032 1.113.146 2.303-.305 3.19-.948.162-.103.162-.193.272-.017.404.654.52 1.664 1.486 1.797.7-.045 1.168-.643 1.543-1.065.258-.41.592-.635.412-1.113-.31-.35-.893.016-1.238-.283-.505-.427-.355-1.19-.296-1.813.17-1.19.758-2.594 1.517-3.113.84-.37 1.383.932 1.94 1.424.143.1.28.054.382-.035.312-.264-.262-1.562.396-2.426.49-.412 1.135-.21 1.688.02.314.124.603.26.824.472.38.307-.167.547-.447.864m-5.875 10.23c-.168.045-.57 0-.824-.045-1.207-.275-9.898-2.01-22.618-2.017h-.045c-12.726.008-21.428 1.738-22.63 2.016-.25.044-.647.09-.81.044-.16-.06-.35-.32-.233-.545.068-.195.256-.308.42-.37 4.562-.98 14.09-2.4 23.254-2.41h.046c9.15.01 18.688 1.43 23.238 2.41.176.062.362.175.426.37.116.222-.07.486-.222.544m-.744 4.31c-.107-.012-.057-.27-.065-.438-.07-.27-.486-.39-.513-.453-.153-.092-.142-.575.053-.71.103-.083.294-.097.405-.027.292.147.562.49.54.907-.074.333-.173.726-.42.72m-1.458.85c.033.073.076.12.146.202.084.135.36.344.1.51-.108.015-.24 0-.36-.11-.833-.812-.98-2.076-.614-3.158.21-.49.688-1.314 1.288-1.287.41.01.166.563-.06.785-.65.778-1.048 2.067-.5 3.057m-5.12-4.002c.068-.494.523-.846 1.018-.777l.8.093c.497.07.855.516.8 1.016-.07.502-.52.852-1.016.793l-.807-.105c-.498-.064-.854-.512-.794-1.02m.568 3.623l.812.105c.487.06.845.508.786.997-.07.513-.516.86-1.012.802l-.814-.104c-.494-.06-.854-.51-.78-1.01.056-.5.515-.85 1.008-.79m-6.306-2.404l1.385-1.18c.244-.21.608-.173.812.06l1.163 1.395c.214.24.182.61-.064.813l-1.387 1.164c-.24.21-.604.17-.812-.065l-1.167-1.392c-.207-.235-.17-.61.07-.796m-4.792-1.878c0-.498.395-.9.898-.9h.82c.49 0 .9.402.9.9 0 .494-.41.912-.9.912h-.82c-.505 0-.897-.418-.897-.912m.796 3.438h.823c.5 0 .896.408.896.914 0 .5-.396.897-.897.897h-.824c-.494 0-.904-.396-.904-.896 0-.506.41-.914.904-.914m-9.864.162v-4.52c0-.394.31-.724.71-.724h5.908c.4 0 .72.33.72.723v4.522c0 .4-.316.72-.72.72h-5.907c-.4 0-.71-.316-.71-.72m-2.072.752c0 .5-.4.897-.898.897h-.825c-.492 0-.9-.396-.9-.896 0-.506.408-.914.9-.914h.825c.5 0 .9.408.9.914m-1-3.44h-.82c-.5 0-.903-.418-.903-.912 0-.498.402-.9.903-.9h.82c.5 0 .898.402.898.9 0 .494-.398.912-.897.912m-7.268 1.24l1.176-1.39c.21-.236.576-.273.812-.064l1.38 1.18c.247.188.274.562.074.797l-1.17 1.394c-.2.234-.567.275-.813.066l-1.384-1.166c-.244-.204-.274-.575-.075-.815m-1.926 2.92c.064.502-.29.95-.785 1.01l-.81.104c-.492.06-.95-.29-1.008-.8-.07-.492.29-.94.787-.998l.807-.107c.494-.062.942.288 1.01.79m-1.225-3.4l-.817.106c-.493.062-.945-.29-1.01-.79-.06-.5.293-.945.786-1.016l.814-.095c.496-.066.952.282 1.005.776.067.512-.286.96-.778 1.02m38.108 7.572c-7.063-.72-13.88-1.098-21.147-1.117h-.045c-7.282.022-14.082.4-21.156 1.118-.53.037-.884-.096-.904-.332-.03-.307.067-.473.296-.533 1.938-.356 4.095-.565 6.063-.71 5.147-.515 10.42-.83 15.7-.83h.046c5.272 0 10.55.315 15.7.83 1.97.145 4.107.353 6.05.71.23.062.34.228.304.533-.026.237-.38.37-.907.332m-21.148 1.233h-.045c-1.044-.016-13.83-.2-15.34-.616 2.212-.48 11.844-.6 15.34-.607h.045c3.486.01 13.123.13 15.334.607-1.512.416-14.297.603-15.335.617m-21.8-8.878c-.217-.22-.458-.775-.055-.785.608-.027 1.08.8 1.28 1.287.374 1.082.227 2.35-.608 3.157-.117.114-.253.126-.353.114-.274-.166.01-.375.093-.51.075-.084.113-.13.148-.203.548-.988.155-2.277-.504-3.058m-.89 1.777c-.014.165.04.426-.063.434-.24.006-.34-.388-.425-.718-.02-.42.25-.762.546-.91.124-.065.3-.053.41.03.183.133.204.616.048.708-.028.065-.44.186-.517.455m-7.564-27.76c-.018-.17.005-.276.09-.464.21-.572 1.002-1.41 1.317-1.252.43.192-.51 1.06.256 1.312.954.037.886-.993 1.573-1.396.475-.32 1.08-.3 1.624-.195.472.113.586.508.635.83.057.21 0 .494-.146.648-.627.356-1.256-.73-1.838.053-.342.412-.426 1.113-1.01 1.22-.328.02-.506-.27-.88-.173-.272.234-.67.516-1.098.387-.35-.127-.49-.363-.523-.97m.196 8.54c-.038.2-.24.123-.358.076-.736-.572-1.038-1.342-1.387-2.162-.21-.6-.614-1.047-.298-1.682.206-.468.206-.402.38-.785.04-.146.138-.308.005-.498-.665-.936-.768-2.954.034-3.52.207-.15.532-.168.42.12-.295.686-.336 1.528.112 2.186.497.336.788.955.71 1.555-.014.204-.066.382-.153.563.147.515.485 1.17.138 1.688-.112.175-.334.14-.435.24.383.648.93 1.418.833 2.22m-1.233 2.63c-.403.16-.75-.202-.898-.462-.758-1.117-1.44-2.26-1.863-3.5-.934-2.473-1.35-5.49-.184-7.955.37-.94 1.125-1.67 1.898-2.24 2.122-1.418 4.867-2.092 7.59-1.452.27.105.793.128.83.59-.01.197-.028.216-.12.4-.136.283-.57.254-1.21.076-1.712-.338-3.467-.12-5.07.514-1.315.595-2.793 1.52-3.192 2.976-1.112 3.645.365 7.535 2.49 10.38.072.207.13.484-.27.675m7.945-7.317c-.088.452-.247 1.03.022 1.4.167.407 1.102.417.692 1.02-.23.692 1.026 1.23.458 1.46-.426.087-.8.068-1.456.27-1.03.346-1.784.903-2.65 1.444-.265.147-.494.438-.632.707-.42-.207-1.065-.336-1.552-.3-.017-.362.083-.493.017-.81-.038-.75-.3-1.413-.574-2.114.218-.743.31-1.446.043-2.22-.21-.552.207-1.26-.044-1.71-.077-.135 0-.192 0-.192.275-.212.64-.455.974-.687.895.17 1.525-.337 2.087-.927.572.194 1.16-.3 1.598-.037.21.135.472.45.252.71-.203.41-.155 1.097.142 1.454.175.236.448.377.62.533m2.107 7.998c.08.218.1.474.232.683-.574.48-.896 1.373-.727 2.264.095.797.432 1.506.716 2.217-.223.043-.374.08-.59.037.163-1.42-1.072-4.667-2.828-5.187-.403-.062-.866.108-1.242.28-.198-.297-.312-.478-.445-.647 0-.066.062-.066.07-.098 1.076-1.222 2.31-2.023 4.318-2.367 0 0 1.075-.26 1.584-.067.413.27-.2.646-.51.92-.51.568-.688 1.15-.58 1.968m4.064-13.448c.118.375-.527.45-.308.875.176.237.223.56.153.846-.073.273-.356.31-.522.125-.154-.21-.4-.46-.706-.502-.192 0-.322.084-.395.22-.147.417.77 1.23 1.045 1.903.237.52.734 1.134.216 1.645.04.572.598 1.19.163 1.66-.456.15-1.276-1.485-1.25-1.942.093-1.104-.907-1.636-1.098-2.648-.14-.912-.247-1.723.128-2.53.094-.187.22-.247.393-.27.282-.044.368.27.642.165.392-.502-.144-1.04.133-1.633.152-.607.657-1.2 1.25-1.363.273-.03.453.17.445.312-.027.543-.635.68-.745 1.185-.222.676.11 1.4.456 1.952m-5.17.256c.314-2.51 1.51-5.295 4.136-6.103.13-.055.33-.11.486-.166 2.173-.61 4.474.024 6.49.858 1.662.574 3.463 1.06 5.233 1.38.24.04.518.1.65.355.07.17.102.48-.036.633-.3.404-.528.262-1.24.092-2.522-.63-5.037-1.412-7.454-2.252-1.5-.506-4.68-.137-5.943 1.697-.317.348-.552.813-.754 1.262-.71 1.937-.957 4.467-.093 6.46.65 1.712 1.555 3.132 2.75 4.538.112.22.14.45-.064.63-.166.108-.26.227-.53.134-.59-.297-1.073-.983-1.44-1.545-1.327-1.92-2.18-4.34-2.245-6.594-.004-.333.022-1.308.053-1.38m6.258-1.94c-.078-.4.05-.645.098-.764.23-.545.812-1.324 1.308-1.227.356.157-.017.64.306.852.46-.022.812-.388 1.31-.24.45.24.96.29 1.46.42.143.08.25.274.17.434-.206.407-.668.528-1.097.545-.506.02-.655-.315-1.023-.29-.992.434-.917 1.844-1.928 2.133-.253.016-.5-.066-.56-.332-.27-.497.187-1.057-.044-1.532m10.89 12.647c-.247.227-.578.307-.83.483-1.6.968-1.806 3.306-1.56 5.104.066.322.1.73.245 1.066-.155.067-.392-.09-.53-.21-.194-.217-.534-.553-.894-.477-.55.118-.64.833-1.128 1.022-.032-.017.036-3.82-.928-5.228-.44-.588-1.202-1.223-2.09-1.178-.307-.72-.762-1.43-1.56-1.652-.66-.217-1.923 0-2.057-.307-.176-.578.413-.62.712-.847 1.31-.743 2.3-1.24 4.603-1.09 1.108.084 2.04.355 3.112.494 1.117.188 1.75.29 3.095.412.268.014.19.037.56.088-.507.73-.932 1.366-.753 2.32m.652-4.316c.073.287.073.287.11.517-1.37-.045-2.728-.275-4.02-.437-1.98-.317-4.173-.967-6.136-.057-.39.13-.786.322-1.17.472-.082-.285-.082-.285-.104-.414 0 0-.222-.928-.274-1.416.237-.52.052-1.238-.16-1.664.317-.594.6-1.188.616-1.926.187-.293.59-.174.874-.307.61-.25 1.078-.785 1.356-1.367.487-.21.974-.088 1.613-.248.526-.148.684-.21.947-.416.288-.178.56-.994 1.193-.77.934.137 2.086.274 3.12.147.202-.034.36-.065.652 0-.1.755-.016 1.48.215 2.138-.28.65-.187 1.375.185 1.95-.305 1.12-.635 2.716.453 3.546.17.07.37.172.53.254m1.133-9.918c.23-.27.306-.297.506-.373.2-.028.34.076.422.228.145.746-.436 1.396-.765 2.098-.07.195.022.365.23.346.226-.022.466-.228.68-.062.203.135.18.21.104.344-.27.64.42 1.338-.094 1.842-.377.613-.777 1.85-.755 1.996.015.146-.02.285.216.38.225 0 .493-.228.702.12.232.695.268 1.545.154 2.324-.094.395-.144.527-.363.61-.358.015-.33-.29-.387-.485-.083-.42.056-.972-.365-1.24-.34-.015-.578.44-.92.106-.344-.486-.083-1.578-.006-1.756.116-.45.498-.728.312-1.158-.24-.262-.225-.67-.225-.965-.037-.354.4-.44.17-.79-.304-.114-.493-1.022-.493-1.15-.013-.667.583-1.917.876-2.417m-.23-6.416c.333-.932.863-1.444 1.762-1.854.277-.125.475-.082.475-.082v2.47s-1.393.18-2.193.24c-.213-.213-.112-.508-.043-.774m3.604 5.17h-.004.01-.006.03-.01.01c1.075.02.802 2.547.802 5.652 0 3.117.332 5.64-.803 5.664h-.03c-1.143-.025-.81-2.547-.81-5.664 0-3.105-.267-5.63.81-5.652m-.006-2.23h.046c1.037 0 2.093.057 3.142.14.25.03.45.24.397.522-.054.194-.213.328-.386.342-1.068-.08-2.095-.023-3.154-.023h-.045c-1.06 0-2.09-.057-3.152.023-.187-.014-.343-.146-.392-.342-.058-.283.142-.492.398-.523 1.04-.083 2.106-.14 3.147-.14m1.398-4.878s.2-.043.48.084c.887.41 1.43.923 1.75 1.853.084.267.17.562-.04.77-.806-.06-2.19-.24-2.19-.24v-2.468zm2.562 12.71c0 .294.015.702-.226.964-.188.433.2.71.314 1.16.064.177.333 1.267-.01 1.753-.348.334-.576-.12-.92-.105-.418.27-.28.82-.37 1.24-.048.195-.02.5-.377.484-.225-.082-.268-.218-.365-.61-.11-.78-.083-1.63.153-2.323.213-.35.48-.122.696-.122.244-.096.203-.233.207-.38.038-.147-.36-1.382-.74-1.995-.522-.506.172-1.2-.093-1.844-.082-.136-.1-.21.105-.343.21-.168.443.037.67.06.213.02.31-.148.234-.347-.33-.7-.904-1.352-.762-2.096.082-.15.223-.256.414-.228.207.076.27.104.508.37.293.503.89 1.753.867 2.417 0 .127-.184 1.035-.484 1.148-.217.356.2.442.18.794m.58 5.564c.155-.082.353-.186.528-.254 1.088-.828.756-2.426.45-3.545.376-.577.458-1.302.183-1.95.24-.655.32-1.383.223-2.137.286-.066.453-.037.647 0 1.037.125 2.193-.014 3.127-.15.632-.223.896.595 1.186.77.264.21.434.27.955.417.637.162 1.113.04 1.604.248.28.582.744 1.117 1.36 1.367.276.135.687.016.875.307.007.738.296 1.334.618 1.926-.223.426-.402 1.146-.162 1.664-.06.49-.27 1.418-.27 1.418-.022.127-.022.127-.106.414-.382-.147-.777-.342-1.177-.47-1.957-.913-4.152-.266-6.144.056-1.283.158-2.64.39-4.006.437.036-.232.036-.232.11-.52m10.135-10.32c.493-.098 1.08.683 1.308 1.228.05.12.166.36.09.764-.223.477.225 1.034-.04 1.53-.06.264-.302.348-.556.33-1.02-.287-.938-1.7-1.93-2.13-.36-.026-.514.31-1.02.288-.44-.017-.888-.14-1.102-.545-.083-.158.03-.355.17-.437.5-.127 1.015-.178 1.464-.418.5-.146.852.22 1.31.24.316-.21-.052-.69.305-.85m-8.655 15.12c-.256-.177-.58-.257-.83-.482.18-.953-.235-1.588-.746-2.312.358-.053.285-.073.545-.088 1.35-.12 1.99-.227 3.105-.414 1.076-.14 2.003-.41 3.112-.492 2.3-.153 3.297.345 4.598 1.09.31.226.89.267.717.847-.136.305-1.398.09-2.062.305-.788.228-1.256.935-1.558 1.652-.883-.045-1.653.592-2.09 1.18-.963 1.404-.895 5.21-.922 5.228-.496-.188-.584-.902-1.127-1.02-.367-.077-.71.26-.894.478-.147.118-.38.276-.547.21.158-.337.188-.747.25-1.07.25-1.806.048-4.144-1.553-5.11m11.873-7.98c.28-.673 1.196-1.487 1.05-1.905-.074-.135-.204-.22-.392-.22-.31.042-.56.294-.7.503-.173.188-.455.148-.53-.125-.074-.283-.016-.607.157-.846.223-.426-.422-.5-.312-.875.347-.55.687-1.275.455-1.953-.108-.505-.712-.642-.743-1.186-.01-.143.18-.344.44-.312.593.164 1.107.756 1.257 1.363.267.592-.26 1.13.138 1.633.267.104.354-.21.636-.164.174.02.303.082.39.268.372.81.272 1.62.126 2.53-.182 1.017-1.188 1.546-1.094 2.65.037.456-.793 2.093-1.254 1.94-.436-.468.123-1.087.168-1.66-.52-.51-.032-1.122.21-1.643m-12.553-6.886c.133-.256.414-.312.647-.354 1.777-.322 3.574-.807 5.238-1.38 2.016-.835 4.31-1.474 6.492-.86.146.056.355.11.482.166 2.614.808 3.817 3.593 4.138 6.103.027.07.053 1.046.046 1.38-.077 2.254-.915 4.674-2.235 6.594-.36.562-.85 1.248-1.44 1.545-.27.092-.368-.025-.537-.134-.196-.18-.183-.41-.07-.63 1.212-1.407 2.103-2.827 2.76-4.538.857-1.994.616-4.525-.093-6.46-.21-.448-.447-.915-.752-1.263-1.272-1.834-4.447-2.203-5.943-1.697-2.42.84-4.932 1.623-7.463 2.252-.693.17-.935.312-1.238-.092-.14-.15-.102-.464-.033-.634m16.253 22.066c-.21.043-.375.006-.586-.037.284-.71.626-1.42.713-2.217.18-.89-.15-1.78-.72-2.264.127-.21.148-.465.218-.683.13-.818-.06-1.4-.57-1.972-.31-.272-.93-.65-.5-.92.5-.193 1.58.068 1.58.068 2.005.344 3.235 1.146 4.314 2.364.007.03.07.03.07.1-.138.17-.25.353-.444.647-.383-.17-.834-.342-1.246-.278-1.758.522-2.988 3.77-2.83 5.19m1.728-11.793c.267-.37.108-.95.018-1.4.174-.157.44-.3.622-.532.292-.357.347-1.045.142-1.453-.218-.262.045-.576.254-.71.438-.265 1.017.23 1.594.036.564.59 1.19 1.096 2.09.928.338.23.7.475.98.687 0 0 .074.06 0 .192-.26.45.154 1.158-.05 1.71-.273.772-.178 1.477.05 2.22-.272.7-.534 1.365-.577 2.113-.062.318.04.45.015.812-.483-.037-1.13.092-1.552.3-.13-.272-.36-.56-.627-.708-.868-.54-1.624-1.103-2.65-1.443-.658-.204-1.028-.19-1.457-.273-.567-.23.687-.767.458-1.46-.41-.606.515-.615.69-1.02m13.476-1.746c.35-.353.575-.85.575-1.388 0-.688-.354-1.28-.88-1.627.19-.318.31-.68.31-1.062 0-.946-.666-1.73-1.56-1.92l.03-.065c.022-.127.036-.26.036-.396 0-1.08-.873-1.955-1.945-1.955-.16 0-.31.023-.45.054l-.006-.028c-.252-.783-.993-1.354-1.863-1.354-.296 0-.576.07-.833.2l-.018-.034c-.35-.52-.945-.854-1.622-.854-.408 0-.78.117-1.094.326l-.033-.02c-.31-.22-.687-.337-1.096-.337-.638 0-1.192.31-1.557.768-.34-.283-.782-.46-1.267-.46-.205 0-.416.033-.605.087-.146-.927-.952-1.636-1.926-1.636-.197 0-.397.03-.568.08l-.022-.015c0-1.078-.87-1.95-1.953-1.95-.555 0-1.062.23-1.418.606l-.007-.028c-.356-.525-.95-.87-1.623-.87-.728 0-1.362.4-1.688.983l-.017.012c-.318-.246-.732-.387-1.168-.387-.77 0-1.414.438-1.748 1.07l-.08-.007c-.124-.026-.26-.037-.38-.037-.7 0-1.308.36-1.657.902-.158-.05-.328-.072-.51-.072-.673 0-1.266.354-1.616.873l-.043-.007c-.305-.195-.678-.313-1.074-.313-.14 0-.275.014-.404.034l-.012-.063c.064-.194.127-.397.173-.604l.01.015c.353-.243.577-.66.577-1.122 0-.428-.188-.8-.492-1.047v.01c-.25-1.813-1.312-3.355-2.806-4.272l.007.035c-.15-.62-.486-.97-1.072-1.147.013-.29 0-1.123 0-1.123l1.31-.017c0 .748.613 1.36 1.37 1.36.67 0 1.24-.5 1.34-1.15h.024c.617-.128 1.096-.68 1.096-1.337 0-.68-.506-1.238-1.148-1.345h.024c-.134-.613-.687-1.082-1.336-1.082-.716 0-1.308.55-1.36 1.256h-1.318v-1.435h.033c.61-.146 1.07-.69 1.07-1.338 0-.666-.475-1.228-1.104-1.34l-.042-.04c-.123-.606-.67-1.075-1.317-1.088h-.028c-.66.012-1.198.478-1.322 1.088l-.046.04c-.63.11-1.104.673-1.104 1.34 0 .645.46 1.19 1.074 1.337h.03v1.434h-1.317c-.065-.706-.646-1.257-1.358-1.257-.663 0-1.206.47-1.338 1.082h.02c-.646.104-1.14.664-1.14 1.344 0 .657.465 1.208 1.09 1.335h.024c.097.652.658 1.152 1.343 1.152.75 0 1.36-.613 1.36-1.36l1.314.016s-.016.832-.006 1.123c-.576.178-.918.528-1.072 1.147l.007-.035c-1.49.914-2.554 2.46-2.796 4.27l-.007-.007c-.298.247-.496.62-.496 1.048 0 .46.23.88.592 1.123v-.014c.044.207.103.41.163.605v.064c-.134-.02-.266-.034-.412-.034-.394 0-.762.118-1.074.313l-.03.006c-.353-.52-.952-.874-1.634-.874-.172 0-.338.02-.51.072-.336-.54-.944-.902-1.634-.902-.135 0-.265.01-.398.037l-.08.008c-.33-.632-.985-1.07-1.746-1.07-.436 0-.844.14-1.17.387l-.014-.012c-.33-.582-.96-.982-1.685-.982-.68 0-1.278.344-1.624.87l-.013.028c-.358-.374-.86-.604-1.415-.604-1.08 0-1.954.87-1.954 1.95l-.02.015c-.183-.05-.365-.08-.565-.08-.982 0-1.78.708-1.937 1.635-.187-.054-.39-.086-.6-.086-.485 0-.928.175-1.265.458-.36-.46-.93-.77-1.56-.77-.407 0-.773.118-1.09.337l-.032.02c-.31-.208-.69-.325-1.1-.325-.67 0-1.262.334-1.614.854l-.013.033c-.257-.13-.54-.2-.843-.2-.862 0-1.597.57-1.86 1.355l-.004.03c-.144-.03-.293-.055-.45-.055-1.08 0-1.95.875-1.95 1.955 0 .14.007.27.04.396l.03.065c-.893.188-1.56.974-1.56 1.92 0 .384.114.744.317 1.062h-.004c-.536.348-.885.938-.885 1.627 0 .54.218 1.03.574 1.39l-.012.006c-.246.284-.388.645-.388 1.038 0 .63.36 1.164.885 1.42l.007.007c-.08.192-.138.41-.138.64 0 .692.458 1.288 1.084 1.505l.007-.014c-.08.192-.13.418-.13.643 0 .672.42 1.24 1.017 1.47-.02.112-.03.23-.03.336 0 .74.508 1.366 1.194 1.53l.054.09c-.104.203-.163.425-.163.658 0 .786.642 1.42 1.413 1.42.322 0 .613-.105.85-.283l.014.036c.947.562 1.546 1.562 2.053 2.515v.094c-.133.238-.213.514-.213.807 0 .874.706 1.58 1.58 1.58.075 0 .136-.007.205-.01 0 0 1.764 2.313 2.737 3.327h-.01c-.297.262-.483.645-.483 1.066 0 .73.555 1.344 1.26 1.42l.204 1.143c-.29.478-.462 1.025-.475 1.615-.02 1.27.702 2.42 1.75 2.948l.033 1.396s-.627.32-.83.65c-.132.217-.215.477-.224.748-.007.582.323 1.088.803 1.344 0 0 .62.47 2.244.695 5.305.7 10.572.984 16.1 1.17 1.44.023 2.9.037 4.365.037h.045c1.463 0 2.92-.014 4.357-.036 5.52-.186 10.79-.47 16.102-1.17 1.62-.227 2.24-.694 2.24-.694.48-.256.808-.762.794-1.344 0-.27-.075-.53-.21-.748-.198-.33-.834-.65-.834-.65l.028-1.396c1.057-.527 1.77-1.683 1.742-2.947-.01-.59-.173-1.14-.465-1.614l.198-1.143c.712-.076 1.256-.688 1.256-1.42 0-.425-.184-.808-.48-1.066h-.008c.975-1.014 2.74-3.328 2.74-3.328.068.003.135.01.205.01.87 0 1.575-.706 1.575-1.58 0-.294-.08-.568-.22-.808v-.094c.52-.95 1.104-1.95 2.062-2.515l.015-.036c.23.182.53.282.843.282.783 0 1.416-.634 1.416-1.42 0-.232-.058-.454-.164-.657l.055-.09c.682-.164 1.203-.79 1.203-1.53 0-.107-.014-.224-.045-.336.6-.23 1.023-.798 1.023-1.47 0-.225-.054-.45-.134-.643l.012.014c.633-.217 1.08-.812 1.08-1.506 0-.23-.045-.445-.138-.64l.01-.005c.53-.257.892-.79.892-1.42 0-.396-.146-.755-.393-1.04l-.014-.006z"/><path d="M181.655 463.12c.687 0 .95.286.73.517-.522.328-1.448 1.008-1.448 1.008h-.46c-1.012 0-1.364 0-1.364.39-.013.31 0 .065 0 .51-.403.28-1.486 1.135-1.486 1.135v-2.887s.188-.67.792-.67l3.235-.002M182.542 466.677h-2.567l2.567-1.787zM180.374 454.472c-1.185-.026-1.343-.27-1.343-1.268 0-1.05.16-1.248 1.344-1.287h.056c1.184.05 1.342.268 1.342 1.287 0 1.04-.158 1.238-1.342 1.268h-.056zM196.01 455.04c-.845-.284-.915-.48-.697-1.216.22-.75.376-.86 1.243-.646l.035.025c.854.268.92.475.704 1.207-.23.748-.38.865-1.238.635l-.047-.006zM164.957 455.04c.843-.284.91-.48.69-1.216-.22-.75-.38-.86-1.238-.646l-.044.025c-.85.268-.914.475-.696 1.207.227.748.373.865 1.237.635l.05-.006zM145.498 4.56h-6.673V0h18.5v4.56h-6.674v18.83H145.5zM169.185 0h5.153v8.722h10.01V0h5.153v23.39h-5.152V13.28h-10.01v10.11h-5.153zM203.707 0h15.89v4.757H208.86V9.12h10.143v4.756H208.86v4.757h11.33v4.757h-16.483zM148.967 48.465h4.262l10.174 23.39h-5.815l-2.016-4.955h-9.085l-1.95 4.955h-5.682l10.11-23.39zm1.982 6.806l-2.842 7.27h5.715l-2.874-7.27zM175 48.465h9.05c4.79 0 8.822 1.652 8.822 7.104 0 3.27-1.752 5.813-5.056 6.407l5.946 9.878h-6.18l-4.89-9.35h-2.544v9.35H175v-23.39zm5.153 9.68h3.04c1.883 0 4.327-.066 4.327-2.61 0-2.345-2.114-2.708-3.997-2.708h-3.37v5.318zM209.59 53.025h-6.674v-4.56h18.5v4.56h-6.672v18.83h-5.155zM80.58 96.93h8.69c4.856 0 8.886 1.553 8.886 7.102 0 5.485-3.734 7.17-8.656 7.17h-3.766v9.117H80.58V96.93zm5.154 9.91h3.436c1.817 0 3.634-.627 3.634-2.808 0-2.41-2.445-2.742-4.427-2.742h-2.643v5.55zM110.643 96.93h9.052c4.79 0 8.82 1.652 8.82 7.103 0 3.27-1.75 5.814-5.053 6.41l5.946 9.876h-6.177l-4.89-9.35h-2.543v9.35h-5.154V96.93zm5.154 9.68h3.04c1.883 0 4.327-.066 4.327-2.61 0-2.345-2.114-2.71-3.997-2.71h-3.37v5.32zM152.666 96.335c7.3 0 12.62 4.79 12.62 12.29s-5.32 12.29-12.62 12.29-12.62-4.79-12.62-12.29 5.318-12.29 12.62-12.29m0 19.822c4.394 0 7.268-3.17 7.268-7.532s-2.874-7.533-7.268-7.533-7.268 3.172-7.268 7.533 2.873 7.532 7.268 7.532M190.128 112.49c0 4.328-1.123 8.424-7.467 8.424-3.7 0-6.41-1.717-7.166-5.45l4.724-1.157c.132 1.123 1.188 2.05 2.312 2.05 2.41 0 2.444-2.678 2.444-4.428v-15h5.154v15.56zM203.97 96.93h15.89v4.757h-10.735v4.36h10.142v4.758h-10.142v4.757h11.332v4.757H203.97zM249.13 103.008c-1.02-1.222-2.51-1.916-4.426-1.916-3.897 0-6.77 3.17-6.77 7.533 0 4.36 2.873 7.532 6.604 7.532 2.082 0 3.768-.925 4.822-2.51l4.297 3.203c-1.95 2.776-5.255 4.064-8.457 4.064-7.303 0-12.62-4.79-12.62-12.29s5.317-12.29 12.62-12.29c2.608 0 5.91.893 7.896 3.437l-3.966 3.238zM270.208 101.49h-6.67v-4.56h18.5v4.56h-6.676v18.83h-5.154zM157.578 198.845h45.38v2.01h-45.38z"/></g></svg>