<?xml version="1.0" standalone="no"?>
<!DOCTYPE svg PUBLIC "-//W3C//DTD SVG 1.1//EN" "http://www.w3.org/Graphics/SVG/1.1/DTD/svg11.dtd" >
<svg xmlns="http://www.w3.org/2000/svg">
<metadata>
Created by FontPrep 20130207 at Mon Mar 30 22:06:44 2015
 By Anders Feldinger
Copyright (c) 1997 International Typeface Corporation. All rights reserved.
</metadata>
<defs>
<font id="1a565e8a76ea597cd4cd4388d4d08105" horiz-adv-x='1024' >
  <font-face 
    font-family="BodoniSvtyTwoITCTTBook"
    font-weight="400"
    font-stretch="normal"
    units-per-em="2048"
    panose-1="0 0 4 0 0 0 0 0 0 0"
    ascent="1638"
    descent="-410"
    x-height="893"
    cap-height="1423"
    bbox="-965 -553 3172 2374"
    underline-thickness="94"
    underline-position="-186"
    unicode-range="U+0020-FB02"
  />
<missing-glyph horiz-adv-x="1024" 
d="M256 129h512v1272h-512v-1272zM129 0v1528h768v-1528h-768z" />
    <glyph glyph-name="fi" unicode="fi" horiz-adv-x="1028" 
d="M96 -4q-63 0 -63 15q1 15 59 15t72 5.5t16 23.5v799q-76 0 -88 3t-12 19t61 17h37v37q0 160 30 254t101 159q109 100 281 101q117 0 191.5 -50.5t74.5 -127.5q0 -45 -28.5 -74t-72.5 -29t-75 30t-31 76t45 74q25 18 25 27q0 45 -129 45t-184.5 -66.5t-55.5 -215.5v-240
h363q94 0 137 31q16 -33 16 -123v-45q-2 -20 -2 -47v-623q0 -43 29 -53q14 -4 68 -4h20q27 -1 27 -18t-35 -17l-49 4l-136 4l-180 -4q-10 -2 -28 -2t-19 14q0 20 39 21h33q47 0 54 12t7 84v428q-2 123 -2 231v39q0 20 -9 24.5t-50 4.5h-283v-791q0 -27 14.5 -30.5
t108.5 -5.5q33 1 33 -15t-18 -16t-27 2h-49l-66 2h-45l-166 -4h-39z" />
    <glyph glyph-name="fl" unicode="fl" horiz-adv-x="1032" 
d="M872 1032l2 -549v-362q0 -66 6.5 -79t71.5 -13h33q29 -3 29 -15q0 -18 -27 -18h-16q-27 0 -129 4l-47 2l-82 -4l-47 -2h-39q-10 -2 -33 -2t-23 16q-1 16 55 16t67 7q11 6 14 24v1108q-82 23 -82 99q0 53 45 79q25 18 24 27q0 45 -121 45q-223 0 -223 -282v-240h92
q61 0 71.5 -2.5t10.5 -18.5t-51 -16h-123v-793q0 -37 64.5 -36t64.5 -15t-19 -16t-30 2l-137 2l-158 -4h-41q-61 0 -61 15q1 15 59 15t71 6q13 5 17 23v801q-76 0 -88 3t-12 19t61 15h37v37q0 160 30 254t101 159q111 100 266 101q98 0 170 -43q25 8 62 24q12 10 53 25
q14 -53 14 -131t-2 -100v-187z" />
    <glyph glyph-name=".notdef" horiz-adv-x="1024" 
d="M256 129h512v1272h-512v-1272zM129 0v1528h768v-1528h-768z" />
    <glyph glyph-name=".null" 
 />
    <glyph glyph-name="nonmarkingreturn" horiz-adv-x="380" 
 />
    <glyph glyph-name="space" unicode=" " horiz-adv-x="380" 
 />
    <glyph glyph-name="exclam" unicode="!" horiz-adv-x="729" 
d="M473 98q0 -45 -31.5 -77.5t-79 -32.5t-79 31.5t-31.5 78.5t33 79t79 32t77.5 -33t31.5 -78zM364.5 346q-26.5 0 -26.5 41q2 385 -90 918q43 84 45 86q35 57 65 57t46 -18.5t65 -106.5l10 -18q-90 -528 -88 -914q0 -45 -26.5 -45z" />
    <glyph glyph-name="quotedbl" unicode="&#x22;" horiz-adv-x="1091" 
d="M539 1360q0 -57 -93 -171t-192 -312q-25 -51 -45 -52q-29 0 -29 25q0 6 6 20q74 160 114 324t69.5 207t87.5 43q82 0 82 -84zM909 1360q0 -57 -94 -173t-190 -310q-25 -51 -45 -52q-29 0 -29 25q0 6 6 20q72 158 113 323t70.5 208t86.5 43q82 0 82 -84z" />
    <glyph glyph-name="numbersign" unicode="#" horiz-adv-x="1091" 
d="M700 889h-241l-72 -246h244zM981 889h-199l-71 -248h196v-117h-229l-107 -366h-82l107 366h-244l-104 -366h-82l106 366h-178v119h211l72 246h-211v119h246l104 366h82l-104 -366h241l107 366h82l-107 -366h164v-119z" />
    <glyph glyph-name="dollar" unicode="$" horiz-adv-x="1091" 
d="M776 299q0 109 -42 171t-156 122v-557q198 37 198 264zM348 1098q0 -104 39 -163t137 -104v480q-176 -39 -176 -213zM524 29v592q-131 61 -221 137q-119 98 -119 244t96.5 245t243.5 109v141q0 37 27 37t27 -41v-135q135 -6 208 -68q102 -86 103 -196q0 -53 -32 -89
t-79 -36q-104 0 -104 98t108 104q18 0 19 13q0 51 -80 100q-49 31 -143 33v-510q211 -102 272 -174q90 -105 90 -251t-101.5 -256t-260.5 -132v-170q0 -31 -5.5 -38t-19.5 -7q-29 0 -29 45v166q-139 2 -229 55q-141 82 -141 217q0 68 35 111t89 43t86.5 -31t32.5 -76
q0 -109 -106 -108l-45 4q-14 0 -15 -15q0 -59 92.5 -110t200.5 -51z" />
    <glyph glyph-name="percent" unicode="%" horiz-adv-x="1464" 
d="M1243 354q0 133 -41 221q-31 68 -110 68q-160 0 -160 -313t166 -314q145 0 145 338zM528 1108q0 148 -41 238q-31 68 -108 67q-160 0 -160 -313t164 -314q81 0 113 87t32 235zM382 752q-142 0 -237.5 98t-95.5 246t92 248t230 100q72 0 211 -48t225 -48q133 0 270 96h97
l-787 -1444h-96l737 1358q-100 -62 -210 -62t-195 33q77 -111 77 -248t-88 -233t-230 -96zM1415 307q0 -174 -143 -276q-70 -49 -172 -49q-147 0 -242.5 98t-95.5 250t93 248t233 96t223 -84q104 -109 104 -283z" />
    <glyph glyph-name="ampersand" unicode="&#x26;" horiz-adv-x="1492" 
d="M266 451q0 -174 97.5 -291t242.5 -117q183 0 322 145q-125 217 -477 611q-100 -76 -142.5 -156t-42.5 -192zM754 1155q0 115 -50.5 186.5t-131.5 71.5t-134 -54t-53 -136q0 -152 221 -330q148 80 148 262zM524 -27q-203 0 -329.5 108.5t-126.5 283.5q0 291 360 458
q-4 6 -68 72t-89 110t-25 115q0 145 95 235.5t243 90.5t237.5 -75t89.5 -195q0 -195 -284 -310q12 -14 147 -170t273 -354q145 233 145 434q0 45 -18.5 52.5t-105.5 7.5t-87 18t35 18h332q94 0 110 -4t15 -15q0 -11 -13.5 -13t-85.5 -5t-91 -15.5t-28 -63.5
q-47 -256 -178 -461q41 -66 60 -102q49 -98 95 -123t185 -31q43 -2 43 -23q0 -16 -28 -16l-252 8q-68 0 -148 -8q-8 23 -69 131l-11 16q-164 -174 -428 -174z" />
    <glyph glyph-name="quotesingle" unicode="'" horiz-adv-x="729" 
d="M543 1360q0 -57 -93 -171t-192 -312q-25 -51 -45 -52q-29 0 -29 25q0 6 6 20q74 160 114 324t69.5 207t87.5 43q82 0 82 -84z" />
    <glyph glyph-name="parenleft" unicode="(" horiz-adv-x="624" 
d="M510 1442q0 -10 -14 -37q-178 -336 -178 -852t174 -832q16 -31 16 -43t-14 -12t-66 66q-129 168 -211 398t-82 425q0 420 273 805q70 98 86 98t16 -16z" />
    <glyph glyph-name="parenright" unicode=")" horiz-adv-x="624" 
d="M489 569q0 -446 -305 -850q-41 -53 -55 -53t-14 17q0 10 14 36q180 332 180 848q0 268 -41 460t-137 376q-16 31 -16 43t15 12t77 -78t133 -229q149 -310 149 -582z" />
    <glyph glyph-name="asterisk" unicode="*" horiz-adv-x="1091" 
d="M735 1274q0 -16 -39 -37q-74 -37 -110 -102q16 -2 50 -2t79 22q46 22 58.5 22.5t27.5 -22.5q20 -33 41.5 -44t43.5 -19t21 -17q0 -23 -43 -18q-35 -2 -46.5 -7.5t-31.5 -24.5t-32 -19t-58 42t-114 56q27 -84 92 -150q12 -12 12 -17t-22.5 -37t-24.5 -74t-17 -42
q-16 0 -34 40t-49 58t-31 28t20 60q20 48 21 82q0 34 -2 46q-63 -43 -109 -129q-12 -23 -24 -23q-4 0 -26 11t-42 12l-74 -15q-18 0 -18 14t20 27q25 23 35 38.5t17 49.5q8 27 32 27q6 0 52 -8h16q55 0 111 22q-57 53 -160 68q-29 4 -29 25q0 14 2 24v19q0 23 -20 52
q-37 54 -6 54q1 0 79 -39l68 6q19 1 27 -63t59 -121q21 53 21 99t-4 58t-5 23q0 17 39 27q38 10 62 43t40 33t15 -17l-10 -67q0 -24 10 -46t10 -28z" />
    <glyph glyph-name="plus" unicode="+" horiz-adv-x="1091" 
d="M971 651h-387v-381h-74v381h-389v74h389v379h74v-379h387v-74z" />
    <glyph glyph-name="comma" unicode="," horiz-adv-x="530" 
d="M442 12q0 -150 -114 -217q-82 -49 -135 -49q-16 0 -16.5 12.5t20.5 16.5q172 41 172 176q0 84 -45 112q0 -76 -76 -75q-39 0 -66.5 27.5t-27.5 74.5t34 81t98 34t110 -54.5t46 -138.5z" />
    <glyph glyph-name="hyphen" unicode="-" horiz-adv-x="624" 
d="M594 406h-563v106h563v-106z" />
    <glyph glyph-name="hyphen" unicode="&#x2010;" horiz-adv-x="624" 
d="M594 406h-563v106h563v-106z" />
    <glyph glyph-name="period" unicode="." horiz-adv-x="530" 
d="M373 97q0 -46 -32 -77.5t-78 -31.5t-77.5 31.5t-31.5 77.5t31.5 78t77.5 32t78 -32t32 -78z" />
    <glyph glyph-name="slash" unicode="/" horiz-adv-x="1001" 
d="M973 1487l-846 -1548h-100l845 1548h101z" />
    <glyph glyph-name="zero" unicode="0" horiz-adv-x="1091" 
d="M565 10q234 0 234 728q0 328 -68 526q-51 152 -180 151q-258 -1 -258 -703t272 -702zM1020 686q0 -182 -54.5 -344t-151.5 -264t-253 -103q-213 0 -351 209t-138 535q0 377 194 594q117 131 287 131q201 0 319 -182q148 -226 148 -576z" />
    <glyph glyph-name="one" unicode="1" horiz-adv-x="1091" 
d="M653 1458q16 0 17 -20v-39q-2 -16 -2 -37v-1225q0 -74 7 -86t50 -14l47 -2l35 -2h31q28 -1 28 -18t-45 -17h-102q-78 2 -158 2l-242 -4q-49 0 -49 18.5t37 18.5t94 2t62.5 31.5t5.5 128.5v962q0 66 -4 78t-29 12l-166 -12q-25 0 -24 14q0 16 24 19q96 10 194.5 58
t158.5 114q23 18 30 18z" />
    <glyph glyph-name="two" unicode="2" horiz-adv-x="1091" 
d="M1010 385q0 -5 -7 -53t-30 -314l-2 -24q-211 10 -419 10t-335 -4l-111 -4q-55 0 -55 18t107 105q256 209 364 340q188 227 189 534q0 207 -86 314q-66 82 -184 82t-185 -72q-53 -55 -53 -111q0 -35 55 -37q143 -6 143 -125q0 -113 -118 -112q-76 0 -121 47t-45 129
q0 152 106.5 244t280.5 92t298 -120t124 -337t-151.5 -408.5t-510.5 -416.5q134 4 322 4t233 5t77 25t49 120t44 100q21 0 21 -31z" />
    <glyph glyph-name="three" unicode="3" horiz-adv-x="1091" 
d="M971 412q-1 -182 -145 -310q-144 -126 -358 -126t-304 90q-58 58 -58 126t40 106t100 38t95.5 -31t35.5 -78q0 -72 -96 -112q-39 -16 -39 -33q0 -27 53 -48.5t117 -21.5q156 0 253 106.5t97 278.5q0 346 -311 346q-31 0 -45 -2h-15q-27 0 -26 19q0 14 49 22
q143 20 221 105.5t78 217.5t-67.5 211t-167.5 79t-162 -36t-62 -83q0 -18 29 -25q135 -33 135 -112q0 -104 -109 -105q-70 0 -111.5 41t-41.5 109q0 111 95 185.5t277 74.5t284.5 -100.5t102.5 -233.5q0 -184 -174 -272q-61 -31 -198 -52v-14q170 -6 274 -76
q154 -102 154 -284z" />
    <glyph glyph-name="four" unicode="4" horiz-adv-x="1091" 
d="M360 436q168 0 246 2v146q0 102 6 292t6 263q-35 -58 -358 -498l-145 -199q77 -6 245 -6zM428 389l-102 -2l-260 6q-29 3 -29 15t301 426q94 133 416 585q14 20 28 21q20 0 21 -39v-963h20q70 0 110 8.5t40 40.5l-2 88q2 74 22 74q29 0 29 -57v-92l2 -148q2 -76 4 -95.5
t2 -31.5q0 -20 -19 -20t-24.5 23.5t-15.5 127.5q-4 16 -17 25q-25 14 -78 14t-73 -2l2 -321q10 -25 33.5 -31t91.5 -6t74 -6q6 -5 6 -17t-20 -12l-566 -6q-41 0 -40.5 20.5t64.5 18.5t105 5t47 24.5t6 76.5v248q-41 2 -94 2h-84z" />
    <glyph glyph-name="five" unicode="5" horiz-adv-x="1091" 
d="M963 461q0 -262 -201 -402q-121 -84 -313.5 -84t-282.5 101q-49 54 -49 124t41 110t100 40t95 -30.5t36 -75.5q0 -76 -100 -115q-45 -16 -45 -37q0 -33 60.5 -58.5t133.5 -25.5q143 0 215 98q98 135 99 365q0 168 -78 260t-205 92t-260 -84q12 461 16 557t32.5 110.5
t102.5 14.5h123q49 -2 78 -2h70q141 0 164.5 5.5t30.5 43.5t27.5 37.5t20.5 -22.5q0 -14 -2 -23l-4 -47q-10 -115 -41.5 -142.5t-154.5 -27.5l-391 2q-8 -70 -15 -420q117 53 244 54q211 0 332 -111.5t121 -306.5z" />
    <glyph glyph-name="six" unicode="6" horiz-adv-x="1091" 
d="M786 451q0 381 -235 380q-106 0 -163.5 -91t-57.5 -255q0 -236 84 -381q53 -92 155 -92q217 1 217 439zM997 457q0 -199 -120.5 -340.5t-288.5 -141.5q-211 0 -342 174.5t-131 441.5t111.5 478t297.5 307q156 80 340 80q43 0 43 -15t-28 -18q-184 -16 -326 -133
q-184 -152 -217 -516q113 106 241 106t228 -61q192 -116 192 -362z" />
    <glyph glyph-name="seven" unicode="7" horiz-adv-x="1091" 
d="M950 1417l56 2q65 0 65 -14t-185 -304t-234.5 -407.5t-49.5 -205.5t20 -206t19 -161q0 -145 -109 -146q-129 -1 -129 215t191 553q121 213 313 496h-311q-242 0 -283 -2t-58 -14.5t-24.5 -34t-33.5 -144.5q-8 -25 -25 -24q-20 0 -20 24.5t16 114.5q16 89 22 165
q4 76 27 101l309 -12z" />
    <glyph glyph-name="eight" unicode="8" horiz-adv-x="1091" 
d="M803 369q0 373 -250 372q-125 0 -194.5 -95t-69.5 -266t72.5 -271.5t190.5 -100.5t169 62q82 98 82 299zM729 1103q0 171 -65 257q-39 51 -125 51q-193 0 -193 -317t207 -318q92 0 129 68q47 88 47 259zM1012 389q0 -205 -170 -330q-115 -84 -291 -84t-301 82
q-170 111 -170 312q0 305 330 387v10q-125 35 -196 118t-71 197q0 160 109.5 261.5t273.5 101.5t262 -74q143 -106 144 -274q0 -121 -72 -216.5t-178 -115.5l2 -8q328 -66 328 -367z" />
    <glyph glyph-name="nine" unicode="9" horiz-adv-x="1091" 
d="M762 948q0 233 -86 369q-59 92 -162 92q-211 0 -211 -442q0 -379 236 -379q104 0 163.5 95t59.5 265zM977 818q0 -274 -124 -491.5t-325 -301.5q-147 -61 -295 -62q-53 0 -53 13t29 18q346 45 475 344q51 121 72 307q-113 -106 -251 -106t-249 82q-162 119 -162 350
q0 197 120 335t290 138q209 0 341 -176t132 -450z" />
    <glyph glyph-name="colon" unicode=":" horiz-adv-x="530" 
d="M373 97q0 -46 -32 -77.5t-78 -31.5t-77.5 31.5t-31.5 77.5t31.5 78t77.5 32t78 -32t32 -78zM373 800q0 -46 -31 -78t-78 -32t-78.5 32t-31.5 78t31.5 77.5t77.5 31.5t78 -31.5t32 -77.5z" />
    <glyph glyph-name="semicolon" unicode=";" horiz-adv-x="530" 
d="M449 12q0 -150 -115 -217q-84 -49 -133 -49q-18 0 -18.5 12.5t20.5 16.5q172 41 172 180q0 78 -41 108v-8q0 -72 -80 -71q-43 0 -71.5 29.5t-28.5 77.5t36.5 84t101.5 36t111 -55.5t46 -143.5zM379 800q0 -46 -32 -78t-78 -32t-77.5 32t-31.5 78t31.5 77.5t77.5 31.5
t78 -31.5t32 -77.5z" />
    <glyph glyph-name="less" unicode="&#x3c;" horiz-adv-x="1110" 
d="M995 135l-878 588v14l878 563v-94l-749 -477l749 -500v-94z" />
    <glyph glyph-name="equal" unicode="=" horiz-adv-x="1091" 
d="M971 551h-850v74h850v-74zM971 752h-850v73h850v-73z" />
    <glyph glyph-name="greater" unicode="&#x3e;" horiz-adv-x="1110" 
d="M995 723l-878 -588v94l749 500l-749 477v94l878 -563v-14z" />
    <glyph glyph-name="question" unicode="?" horiz-adv-x="845" 
d="M477 98q0 -45 -31.5 -77.5t-77.5 -32.5t-79 32.5t-33 78.5t33 78t79 32t77.5 -33t31.5 -78zM768 1146q0 -176 -68 -248t-206 -190t-138 -212q0 -33 14 -76t13 -58q1 -16 -19 -16t-41.5 59t-21.5 131t33 145t121 185q131 168 131 286t-59.5 182.5t-157.5 64.5t-162 -66.5
t-64 -167.5q0 -23 7 -22q2 4 12 20q20 39 76 39q92 0 92 -96t-107 -96q-63 0 -100 42t-37 111q0 125 91 205t244 80t250 -87.5t97 -214.5z" />
    <glyph glyph-name="at" unicode="@" horiz-adv-x="2027" 
d="M1360 923q0 39 -40 77t-95 38q-119 0 -248 -194q-178 -270 -178 -477q0 -135 102 -136q150 0 291 299l111 234q57 120 57 159zM1609.5 1092q12.5 0 12.5 -14.5t-49 -121.5l-62 -133q-25 -57 -75 -174l-84 -184q-59 -131 -60 -182q0 -49 67 -49t152.5 41.5t153.5 109.5
t110 183.5t42 236.5q0 266 -179.5 435t-484.5 169q-367 0 -604.5 -258t-237.5 -653q0 -340 190.5 -552t495.5 -212q346 0 615 223q139 115 209 248q13 25 37 25t24 -28t-74 -116q-338 -408 -841 -408q-358 0 -597 229.5t-239 573.5q0 395 305 683t703 288q186 0 352 -59.5
t266 -161.5q160 -164 160 -408q0 -313 -244 -510q-168 -135 -385 -135q-166 0 -166 117q0 10 6 43q-121 -164 -290 -164q-106 0 -174 72.5t-68 185.5q0 209 212 433.5t409 224.5q152 0 174 -134l2 9q27 57 39 85.5t30 28.5l70 -8q16 0 40.5 10.5t37 10.5z" />
    <glyph glyph-name="A" unicode="A" horiz-adv-x="1232" 
d="M768 504q-33 92 -109 305l-98 281q-86 -225 -207 -586h414zM-49 18.5q0 18.5 64.5 20.5t93 19.5t45.5 66.5q264 754 430 1210q4 25 16 56l10 36q6 23 14 23t13 -12q27 -80 111 -306t376 -1026q16 -45 42 -57t92 -14t67 -20.5t-25 -18.5t-43 2l-260 4l-260 -4
q-15 -2 -43 -2t-28 22t55 21q180 2 180 37q0 2 -4 16l-16 55l-11 29q-18 63 -90 281h-438q-123 -328 -123 -367t25 -45q6 -2 84 -6t78 -23q0 -20 -54 -20l-70 2l-302 2q-29 0 -29 18.5z" />
    <glyph glyph-name="B" unicode="B" horiz-adv-x="1169" 
d="M858 395q0 258 -209 320q-61 18 -227 18v-610q0 -59 16 -71t111 -11q141 0 225 90t84 264zM799 1079q0 197 -90 262q-47 35 -179 35q-35 0 -108 -6v-594h18l113 4q117 4 181.5 83t64.5 216zM1073 368q0 -204 -190 -305q-92 -49 -265 -61q-47 -2 -278 -2h-250
q-35 0 -35 18.5t69 18.5t82 15.5t13 92.5v1108q0 90 -11 110q-11 21 -84 21t-73 20t51 19h25q23 -2 41 -2l399 -4q457 -4 457 -317q0 -139 -104.5 -228.5t-292.5 -111.5v-12q446 -29 446 -380z" />
    <glyph glyph-name="C" unicode="C" horiz-adv-x="1337" 
d="M1241 12q0 -27 -16.5 -26.5t-36.5 49.5t-49 69q-147 -129 -355 -129q-301 0 -498.5 210t-197.5 531t181.5 524.5t467.5 203.5q104 0 167.5 -17.5t131.5 -57.5t88 -40t42 45t38.5 45t16.5 -16q0 -8 -4 -27q-23 -98 -23 -368q0 -39 -6 -45.5t-17 -6.5q-20 0 -26 39
q-27 164 -76 244q-100 164 -315 164q-166 0 -262 -111q-174 -199 -174 -561t143 -551q125 -164 332 -164q106 0 230 74t175 348q8 49 27 49q20 1 20 -30l-4 -56q-8 -119 -8 -229l8 -141v-19z" />
    <glyph glyph-name="D" unicode="D" horiz-adv-x="1466" 
d="M1151 710q0 347 -133 505.5t-416 158.5q-137 0 -166 -28q-12 -14 -12 -99v-1089q0 -57 7 -86t224 -29t357 160t139 507zM69 0q-28 0 -28 19q1 19 75 19t95 32q8 14 8 77v1104q0 100 -15.5 116.5t-105.5 16.5q-47 0 -47 23q0 16 35 16l45 -2q47 -2 92 -2h219
q369 0 523 -51q186 -61 300.5 -242t114.5 -417q0 -360 -252 -562q-184 -147 -493 -147l-260 4h-103l-161 -2q-14 -2 -42 -2z" />
    <glyph glyph-name="E" unicode="E" horiz-adv-x="1191" 
d="M453 1421l511 2q68 0 119 9q4 -88 19 -244l8 -88q2 -10 2 -28t-18 -19q-23 0 -33 51q-39 184 -127 233q-66 37 -344 37h-168v-600h49q229 0 279.5 35t68.5 203q4 43 25 43t20.5 -37t-4.5 -108.5t-4 -199.5t5 -179t5 -66q0 -27 -22 -27q-14 0 -19.5 18t-19.5 126t-98 137
q-37 12 -193 12h-92v-688q451 0 528 18q135 31 154 263q4 51 26 51t21 -43l-8 -277v-67q-201 10 -534 10l-496 -2h-21q-39 0 -39 18q-1 12 9 14t72 6q62 5 73.5 23.5t11.5 96.5v1151q0 59 -17.5 70t-111.5 11q-33 0 -33 18.5t45 18.5z" />
    <glyph glyph-name="F" unicode="F" horiz-adv-x="1112" 
d="M539 -2l-142 2l-305 -2q-39 0 -39 16.5t71 20.5t83 19.5t12 95.5l-2 1175q-2 37 -21.5 46t-105.5 11q-33 0 -33 22t37 21h33l198 -2q202 -2 439 -2t315 17l33 -357q0 -29 -20.5 -28.5t-28.5 51.5q-25 147 -100 215q-49 43 -152 53q-37 4 -147 4t-242 -6v-598
q262 -2 323.5 34t73.5 202q4 47 24.5 47t20.5 -31l-8 -293q0 -156 5 -205q5 -50 5 -70t-18 -20t-22.5 12t-17.5 116t-61.5 134.5t-158.5 30.5t-166 -4l2 -209l-4 -401q0 -59 47 -76q23 -8 100 -6q33 1 33 -17t-41 -18h-20z" />
    <glyph glyph-name="G" unicode="G" horiz-adv-x="1361" 
d="M1313 451l53 2q41 -1 41 -20t-18 -19l-48 2q-94 4 -106 -33q-8 -25 -8 -178v-66q-104 -90 -201.5 -127t-232.5 -37q-324 0 -514.5 193.5t-190.5 527.5t186.5 541t491.5 207q133 0 291 -74q47 -23 78 -22q39 0 51 49q10 29 24 28q16 0 17 -16l-17 -211l2 -133l2 -64
q-4 -49 -24 -49t-23 29q-10 199 -114.5 312.5t-274.5 113.5q-213 0 -337 -190.5t-124 -512.5t126 -507t341 -185q164 0 226 94q30 48 30 160t-19 131t-91 18t-80 2t-8 13q0 23 45 23h37q31 -6 217 -4z" />
    <glyph glyph-name="H" unicode="H" horiz-adv-x="1458" 
d="M909 1421l221 -2l226 4q43 0 42.5 -18.5t-58.5 -19.5t-74 -6t-21.5 -21.5t-5.5 -95.5v-1090q0 -98 10 -115q20 -23 119 -22q33 3 33 -16t-39 -19l-283 2l-166 -4q-41 0 -41 16.5t74 21.5t82 18.5t8 95.5v598h-616v-580q0 -92 14.5 -108.5t81.5 -21.5t68 -20
q0 -18 -41 -18h-19l-168 4l-258 -4q-41 0 -41 16.5t34 19.5t71 6t46 16t9 118v1081q0 92 -8.5 108.5t-68.5 19.5t-71.5 5.5t-11.5 17.5q-1 15 17 15t57 -3t229 -3l183 4q37 0 37 -19t-67 -19.5t-80 -15.5t-13 -97v-471h616v440q0 109 -16 128t-115 17q-31 0 -31 18.5
t35 18.5z" />
    <glyph glyph-name="I" unicode="I" horiz-adv-x="643" 
d="M55 17q0 17 68 19t82 20t14 118v1077q0 100 -10 113q-12 20 -82 24t-70 19q0 16 25 16l276 -4q31 0 119 2l78 2q33 0 33 -17q0 -16 -70 -20t-82 -20t-12 -86v-1094q0 -117 10 -127q23 -23 133 -26q23 0 23 -16.5t-25 -16.5h-20q-12 6 -279 6l-184 -6q-27 0 -27 17z" />
    <glyph glyph-name="J" unicode="J" horiz-adv-x="671" 
d="M637 1405q-1 -19 -61 -19t-78.5 -5t-21.5 -17t-3 -80v-657l2 -191q5 -319 -19 -424q-24 -104 -120 -181t-190 -77t-143.5 42t-49.5 110q0 117 115 117q47 0 78.5 -29t31.5 -71t-22 -69t-23 -38q0 -18 31 -19q66 0 92 80q14 43 14 252v1169q0 66 -39 82q-17 6 -85 6
t-68 18t33 19l159 -4l301 4q66 0 66 -18z" />
    <glyph glyph-name="K" unicode="K" horiz-adv-x="1363" 
d="M86 -4q-31 0 -31 19t73 21t85 32q6 10 6 129l-2 1140q-2 43 -111 43q-49 0 -49 23q1 18 23 18t47 -3t179 -3t188 3t64 3t30 -22q0 -12 -11.5 -15.5t-71 -5.5t-70.5 -16t-11 -92v-500l174 174q395 395 395 412q-1 26 -79 24t-78 21q0 14 28.5 16t198.5 2h113q72 0 86 -3
q14 -2 16 -22q0 -20 -45 -20q-94 2 -121 -4t-53 -33q-133 -139 -406 -417l-80 -82q12 -14 103 -111q172 -178 493 -571q68 -82 93.5 -99t91.5 -21t67 -21q0 -17 -28 -17h-17l-246 2l-239 -2q-12 -2 -39 -2t-27 16.5t79 23.5t79 33t-559 664v-592q0 -72 22.5 -89t120.5 -17
q23 1 23 -19t-24 -20t-42 2l-284 4l-136 -6h-18z" />
    <glyph glyph-name="L" unicode="L" horiz-adv-x="1155" 
d="M549 1423q37 0 37 -20q0 -12 -11.5 -15.5t-71 -5.5t-70.5 -19t-11 -108v-1208q55 -2 224 -2t267.5 24.5t133 92t40.5 182.5q2 27 27 27t23 -31l-2 -51v-19q2 -14 2 -28v-80q0 -53 -7 -176h-22l-166 8l-852 6q-35 0 -35 16t67 20t82 18t15 77v1151q0 76 -15.5 88
t-109.5 12q-39 0 -39 23q0 18 25 18h18q68 -6 269 -6l159 6h23z" />
    <glyph glyph-name="M" unicode="M" horiz-adv-x="1546" 
d="M1243 0l-254 -2h-14q-43 0 -43 19t82 19t104 23q10 10 10 138v1060q0 -3 -52 -161t-208 -656l-96 -325q-29 -96 -41 -97q-14 0 -31 50q-59 186 -335 929l-82 220q2 -39 2 -107v-666q0 -375 6 -378q14 -27 90 -27q76 1 76 -19t-43 -20l-101 4l-235 -6q-37 0 -37 19t83 21
t91 18t8 106v981q0 170 -4 184q-8 29 -34.5 39t-114.5 16q-33 2 -33 19q0 23 59 22q8 0 35 -2h107q121 0 170 2q10 -27 88 -235t297 -803q39 133 79 262l218 678q18 59 32 98l308 2q68 0 78 -6t10 -18q0 -21 -46 -21t-81 -6t-54 -31q-10 -14 -10 -239v-952q0 -82 16 -97
q27 -18 134 -18h12q41 0 41 -20.5t-43 -20.5h-23z" />
    <glyph glyph-name="N" unicode="N" horiz-adv-x="1343" 
d="M186 1415q63 0 189 4l706 -1050v911q0 63 -2 76.5t-16 20.5t-93 7t-79 20t49 19l166 -2l100 2h64q45 0 45 -20.5t-51 -18.5l-45 2h-37q-33 0 -39 -11t-6 -68v-1180q0 -109 -1.5 -127t-13.5 -18t-28 22l-263 383q-227 334 -552 834l2 -1143q2 -27 30.5 -34t137.5 -9
q27 0 26 -17q0 -20 -53 -20l-180 8l-36 -4q-38 -4 -116 -4h-20q-47 0 -47 18.5t40 18.5q121 2 140.5 15t19.5 87v1010q0 170 -69 213q-34 20 -102 20t-68 20t30 19z" />
    <glyph glyph-name="O" unicode="O" horiz-adv-x="1474" 
d="M1159 692q0 375 -153 584q-96 131 -264 131t-259 -100q-166 -184 -166 -600q0 -330 116 -512.5t318 -182.5t300 172q108 191 108 508zM1389 707q0 -310 -183.5 -521t-457.5 -211t-467 214.5t-193 530.5t186 520t466 204t464.5 -213.5t184.5 -523.5z" />
    <glyph glyph-name="P" unicode="P" horiz-adv-x="1032" 
d="M805 1077q0 307 -258 307q-86 0 -113 -28q-12 -12 -12 -64v-544q16 -2 37 -3q135 0 229 60q117 73 117 272zM1020 1081q0 -199 -170 -309q-106 -70 -270 -70q-70 0 -158 15v-582q0 -47 4 -59q10 -29 57 -36t103 -7q23 0 22 -15q0 -20 -28 -20h-471q-61 0 -62 20
q-1 14 69 14t85 19q16 8 18 41v1208q0 63 -35 78q-20 8 -71 8h-21q-6 -2 -14 -2q-31 0 -31 20t57 19h451q465 0 465 -342z" />
    <glyph glyph-name="Q" unicode="Q" horiz-adv-x="1478" 
d="M1161 686q0 373 -143 582q-96 141 -273 141q-207 0 -317.5 -181t-110.5 -520t114 -519.5t336 -180.5t323 238q71 170 71 440zM1264 -381q0 -17 -86 -33t-205 -16q-199 0 -291 117q-51 66 -51 229v47l2 27q-197 49 -309 151q-236 213 -236 572q0 197 82 367.5t222 267
t358 96.5t376 -135q125 -106 195 -267.5t70 -341.5q0 -281 -149.5 -477t-399.5 -241v-64q0 -162 60.5 -222.5t219.5 -60.5l109 7q33 0 33 -23z" />
    <glyph glyph-name="R" unicode="R" horiz-adv-x="1204" 
d="M793 1087q0 293 -254 293q-68 0 -92.5 -18.5t-24.5 -65.5v-520q197 -2 284 71.5t87 239.5zM436 0l-264 -2h-80q-45 0 -45 16q-1 16 77 18t87 25q8 10 8 80v1131q0 82 -17.5 98t-87.5 17t-69 21q0 20 33 19q6 0 18 -2l273 -6l229 6q190 0 302 -85t112 -229t-115 -237.5
t-311 -109.5q-18 -2 -21 -6q0 -8 21 -9q215 -37 296 -150.5t107 -410.5q16 -168 115 -168q31 0 31 13l-13 41q0 43 45 43q50 -1 50 -52q0 -86 -152 -86t-242 134q-39 57 -50 110t-34 270q-12 131 -83.5 185.5t-233.5 58.5v-645q0 -41 65 -51q18 -2 95 -4q27 0 26 -17
q0 -18 -35 -18h-24q-17 2 -113 2z" />
    <glyph glyph-name="S" unicode="S" horiz-adv-x="1019" 
d="M135 430q22 0 31 -49q53 -365 346 -365q125 0 193.5 71t68.5 193t-67 202.5t-245 168.5t-253.5 178.5t-75.5 223.5q0 170 109.5 280.5t277.5 110.5q70 0 153 -32t105 -32t28.5 8t11.5 36q4 28 24 28t20 -20t-4 -50q-4 -28 -4 -112t10 -142l2 -32q2 -23 -20 -23t-29 47
q-23 121 -106 202t-187 81t-164.5 -65.5t-60.5 -187.5t88 -202q49 -45 227 -134t262.5 -188.5t84.5 -226.5q0 -176 -134.5 -300t-322.5 -124q-111 0 -264 68q-41 18 -64 18t-27 -45t-26 -45q-33 0 -21 49q16 125 17 232l-6 147q0 31 22 31z" />
    <glyph glyph-name="T" unicode="T" horiz-adv-x="1200" 
d="M1144.5 1032q-24.5 0 -31.5 45t-16 101t-42 106q-43 68 -136 85t-225 5v-1235q0 -74 39 -92q20 -10 115 -12q25 -2 24 -19q0 -18 -32 -18l-203 6l-279 -4q-47 0 -47 17q-1 17 75 19t90 22q14 21 16 89v1227q-203 -2 -252 -20q-129 -47 -152 -252q-6 -61 -29 -62
q-25 0 -25 33t3 55l4 48q6 94 18 247h93l417 -6q74 -2 230 2l340 6q4 -115 26 -340l4 -26q0 -27 -24.5 -27z" />
    <glyph glyph-name="U" unicode="U" horiz-adv-x="1363" 
d="M1178 1421l90 2h30q48 0 48 -19t-37 -20l-70 5q-51 0 -61 -27q-4 -14 -4 -47v-768q0 -299 -112 -435.5t-360 -136.5q-297 0 -417 168q-80 113 -80 371l-2 821q-6 37 -49 45q-12 2 -76 2q-35 4 -35 22t29 17h37l106 -2l293 2q10 2 34 2t25 -22q0 -14 -11.5 -16.5
t-61.5 -3.5t-65 -7t-17 -20t-2 -123v-733q0 -270 86 -368.5t256 -98.5q311 0 352 354q6 53 6 451v116l2 164l-2 141v46l2 22q0 45 -43 55q-13 4 -69 4t-56 23q0 18 29 18z" />
    <glyph glyph-name="V" unicode="V" horiz-adv-x="1296" 
d="M598 1427q37 1 37 -21t-74 -24l-125 -4q-43 -2 -43 -26q0 -4 4 -17l17 -53q4 -16 118 -344t205 -600q338 956 338 1005.5t-100 45.5l-64 -3q-25 0 -24 17q0 20 61 20h70q57 -2 84 -2h65l136 2q36 0 36 -16t-39 -18q-90 -2 -120.5 -27t-63.5 -115l-69 -190
q-252 -690 -355 -1059q-6 -25 -21 -25q-15 -1 -87 217t-125 366t-162 458l-98 276q-20 57 -45.5 76.5t-87.5 21.5t-75.5 4.5t-13.5 18.5t41 16h19l258 -6l274 6h29z" />
    <glyph glyph-name="W" unicode="W" horiz-adv-x="1867" 
d="M1188 1346q0 37 -127 36h-25l-35 -2q-74 -4 -73 -26q0 -4 121 -355q47 102 83 198t52 132zM1927 1407q1 -19 -73 -21t-99.5 -51t-98.5 -269q-72 -220 -170 -487q-98 -266 -198 -579q-8 -27 -19 -27t-20.5 20.5t-60.5 162.5q-52 142 -112 286t-111 279
q-143 -346 -285 -723q-8 -25 -20 -25t-25 35q-63 152 -471 1256q-29 78 -43.5 97t-92.5 22t-77 28q-1 19 23 19t84 -4t184 -5l241 6h23q35 0 35 -18q0 -23 -64 -25q-127 -4 -127 -32q0 -57 377 -1067q137 346 205 510l-203 524q-16 43 -37.5 55t-79 14.5t-57.5 18.5
q0 23 38 23t85 -4.5t164 -4.5h155l226 -4l211 10q49 0 49 -19t-35 -19h-35q-92 0 -139 -25q-20 -10 -60 -107t-76 -181q-34 -84 -59 -146q14 -42 101 -254t151 -381q353 1020 353 1055q0 34 -86 34t-87 23q0 20 41 20l138 -6l163 2q61 0 67.5 -5t6.5 -11z" />
    <glyph glyph-name="X" unicode="X" horiz-adv-x="1280" 
d="M1204 1425q35 0 35 -18t-27 -18q-129 0 -157.5 -24.5t-98.5 -150.5t-225 -362l-22 -35q14 -27 276 -538q90 -176 129 -210t154 -32q51 0 51 -18.5t-57 -18.5l-285 4l-297 -6q-59 0 -59 21t47 20l92 -2q49 -2 59 2q31 6 31 38t-51 134l-219 442l-258 -436
q-68 -115 -68 -135q0 -37 68 -43h92q37 1 37 -19t-31 -20l-232 2l-174 -2q-33 0 -32.5 18.5t45.5 23.5t82 9q31 8 51 27q38 36 184 286t207 351l-234 438q-72 135 -99.5 175t-57.5 52q-33 6 -129 6q-25 0 -25 17q0 23 33 22l283 -6q240 0 264 4h28q43 0 43 -16
q0 -23 -73 -23q-137 2 -138 -32q0 -37 234 -480q84 123 184.5 292t100.5 190q0 31 -113 30q-55 0 -55 20t39 19l155 -4l195 6h18z" />
    <glyph glyph-name="Y" unicode="Y" horiz-adv-x="1243" 
d="M556 1425q28 0 28 -19t-70 -20q-127 0 -127 -45q0 -35 129 -280l186 -354q51 92 117 227l121 244q68 131 68 165t-35 37q-73 10 -107 8t-35 21q0 16 39 16l119 -2l68 2q209 7 209 -20q0 -16 -35 -16q-113 -2 -139 -39q-25 -22 -135 -258t-160 -330t-56 -121t-6 -119v-387
q0 -68 17.5 -80t97.5 -17t80 -21.5t-29 -16.5h-24l-287 6l-228 -6q-29 0 -28.5 18.5t47.5 20.5q113 4 133.5 20.5t20.5 98.5v432q-20 45 -119 239l-205 406q-31 59 -74 133q-23 20 -97.5 20.5t-74.5 22.5q0 16 33 16l278 -6l238 2q14 2 42 2z" />
    <glyph glyph-name="Z" unicode="Z" horiz-adv-x="1150" 
d="M999 1425q18 0 33 2q-10 -33 -76 -167q-14 -43 -637 -1213q99 -6 237 -6t194 8q111 18 170 78q88 88 118 303q4 35 28 35t24 -25q0 -14 -3 -22l-10 -68q-33 -213 -47 -354l-93 2q-108 2 -230 2h-152q-291 0 -359 -7t-92 -7q-26 0 -26 16q17 50 340 654q324 604 375 712
q-47 10 -205 10q-250 0 -316 -102q-16 -27 -41.5 -110t-32.5 -134t-32 -51q-20 0 -21 20q0 16 2 25l15 98q6 47 16 103l15 84q8 47 24 121q123 -12 385 -13l365 6h32z" />
    <glyph glyph-name="bracketleft" unicode="[" horiz-adv-x="624" 
d="M567 -276.5q0 -22.5 -61 -22.5h-324v1722h320q51 0 51 -24q0 -14 -8.5 -17.5t-88.5 -3.5t-102 -10q-14 -8 -16 -20.5t-2 -75.5v-1417q0 -80 15.5 -94.5t101.5 -14.5h79q35 0 35 -22.5z" />
    <glyph glyph-name="backslash" unicode="\" horiz-adv-x="1001" 
d="M973 -61h-101l-845 1548h100z" />
    <glyph glyph-name="bracketright" unicode="]" horiz-adv-x="624" 
d="M444 -299h-319q-66 0 -66 22.5t41 22.5q129 0 155 5t31 18.5t5 68.5v1422q0 78 -5 94t-38 21q-34 5 -104 5t-70 22t47 21h323v-1722z" />
    <glyph glyph-name="asciicircum" unicode="^" horiz-adv-x="1091" 
d="M143 653q-23 0 -22 23q0 16 24 47q160 197 299 569q43 115 54.5 135.5t32.5 20.5t32.5 -18.5t63.5 -139.5q154 -364 334 -624h-203q-147 193 -287 528q-75 -203 -185 -372t-143 -169z" />
    <glyph glyph-name="underscore" unicode="_" horiz-adv-x="1064" 
d="M1018 -281h-971v95h971v-95z" />
    <glyph glyph-name="grave" unicode="`" horiz-adv-x="1026" 
d="M586 1044q0 -10 -16 -10t-140 129l-186 195h35l59 2h108l84 -182q0 -2 23 -54l29 -67q4 -9 4 -13z" />
    <glyph glyph-name="a" unicode="a" horiz-adv-x="813" 
d="M518 309v150q-154 -35 -220.5 -91.5t-66.5 -136.5t38 -121.5t96 -41.5q88 0 141 98q12 22 12 143zM879 92q0 -35 -73 -72.5t-140 -37.5q-141 0 -148 145q-78 -152 -242 -152q-88 0 -145 52.5t-57 134.5q0 168 202 266q70 33 242 66v51q0 180 -18 237q-33 104 -148 105
q-72 0 -120 -39t-48 -98q0 -16 26 -16.5t46 -25t20 -55.5q0 -90 -90 -90q-47 0 -77.5 32t-30.5 81q0 96 80 169t229 73q225 0 277 -123q18 -47 18 -187v-383q0 -94 2 -110q10 -74 59 -74q57 0 86 32t39.5 31.5t10.5 -12.5z" />
    <glyph glyph-name="b" unicode="b" horiz-adv-x="985" 
d="M735 454q0 216 -60.5 320.5t-168.5 104.5q-57 0 -108.5 -36t-70 -89.5t-18.5 -329.5t15 -330q22 -86 146 -86t181 92q84 138 84 354zM922 478q0 -204 -129 -353.5t-312 -149.5q-63 0 -132.5 27t-93.5 27t-52.5 -19.5t-43.5 -19.5t-16 67v1065q0 207 -26 224q-9 6 -69 6
t-60 15t22 15h29q113 0 217 48q31 14 43 14h8v-643q78 117 242 117t268.5 -118t104.5 -322z" />
    <glyph glyph-name="c" unicode="c" horiz-adv-x="837" 
d="M809 707q0 -94 -92 -95q-90 0 -90 86q0 22 13 52t13 45q0 41 -42 67.5t-105 26.5q-123 0 -190.5 -106.5t-67.5 -311.5t69.5 -322.5t196.5 -117.5q86 0 154 53q31 25 80 94q10 10 18 10q20 0 20 -22t-71 -94q-92 -96 -236 -97q-180 0 -298 129t-118 333t125 342.5
t314 138.5q121 0 214 -63.5t93 -147.5z" />
    <glyph glyph-name="d" unicode="d" horiz-adv-x="974" 
d="M676 555q0 197 -49 259t-135 63q-111 0 -176.5 -115t-65.5 -303t57 -320q25 -55 73 -91t105 -36t108.5 38t67 91.5t15.5 413.5zM979 42q0 -15 -29 -15h-10q-16 0 -35 2h-16q-100 0 -170 -41q-29 -16 -35 -17q-18 0 -18 25l2 63q-88 -84 -209 -84q-172 0 -284 132.5
t-112 340.5t112 339t292 131q139 0 209 -101v320q0 155 -13 189t-38 32q-59 -6 -79 -6t-20 18.5t23 18.5l74 -3q61 -2 188 58q8 4 14 4q20 0 21 -49v-43q-2 -33 -2 -58v-706q0 -485 10 -520q4 -14 96 -15q29 0 29 -15z" />
    <glyph glyph-name="e" unicode="e" horiz-adv-x="880" 
d="M474 887q-167 0 -208 -246h383q-8 246 -175 246zM827 220q0 -17 -31.5 -69.5t-64.5 -84.5q-88 -90 -235 -91q-184 0 -308.5 133.5t-124.5 333.5t118 338t294 138q145 0 243.5 -85t104.5 -219q-66 -10 -174 -8l-143 2q-14 0 -246 -6q-10 -68 -10 -129q0 -207 79 -318.5
t222 -111.5q82 0 131 37t106 141q8 16 23 17q16 -1 16 -18z" />
    <glyph glyph-name="f" unicode="f" horiz-adv-x="540" 
d="M739 1302q0 -56 -25.5 -84t-65.5 -28t-66.5 24.5t-26.5 58.5q1 33 17 59t16 34q0 47 -68 47q-115 0 -151 -147q-18 -78 -19 -273v-100h135q41 0 41 -18.5t-53 -18.5h-123v-801q0 -29 73 -27t81 -10q2 -2 2 -8q0 -14 -18 -14t-27 2l-168 2l-223 -4q-37 0 -37 15t28 16
q101 0 109 8t8 16l2 27v778q-76 0 -88 2t-12 18t37 17h65q8 260 70 375q94 176 283 176q90 0 147 -43t57 -99z" />
    <glyph glyph-name="g" unicode="g" horiz-adv-x="956" 
d="M784 -190q0 170 -200 170q-57 0 -169 -18.5t-167 -18.5q-104 -55 -105 -195q0 -104 74.5 -167.5t214.5 -63.5t246 85t106 208zM473 303q154 0 154 294t-162 294t-162 -277q0 -311 170 -311zM833 846q-27 0 -49 -26t-22 -42t10 -79.5t10 -96.5q0 -139 -96 -233.5
t-240 -94.5q-38 0 -100 20t-70 19q-43 0 -77.5 -34.5t-34.5 -75.5q0 -106 129 -107q49 0 145 16t166 17q125 0 195.5 -65.5t70.5 -182.5q0 -176 -150.5 -292.5t-379.5 -116.5q-170 0 -267.5 68.5t-97.5 187.5t91 178q45 29 143 51q-145 57 -146 176q0 147 189 205
q-123 96 -123 248t94 242t248 90q84 0 136 -23t122 -90q66 96 162 96q117 0 117 -104q0 -94 -84 -95q-29 0 -52.5 19.5t-23.5 44.5l12 53q0 27 -27 27z" />
    <glyph glyph-name="h" unicode="h" horiz-adv-x="976" 
d="M971 12q1 -16 -25 -16h-383q-27 0 -27 15t63 15q62 0 69.5 11.5t7.5 77.5v415q0 186 -17 232q-35 94 -143 94t-170 -88q-20 -29 -20 -127v-522q0 -55 2 -69t16 -17.5t88 -5.5q25 1 25 -15t-21 -16l-20 2l-162 2q-170 2 -188 -4h-21q-23 0 -22 14q0 16 22 17h31l30 2
q47 -2 50 28v920q0 328 -11 354q-13 19 -81 21t-68 15t10 15t92 4t178 50q8 4 29 10q14 -25 14 -158v-502q90 132 250 132t230 -91q35 -45 43 -127q4 -29 4 -137v-516q2 -20 106 -20q19 -5 19 -15z" />
    <glyph glyph-name="i" unicode="i" horiz-adv-x="514" 
d="M496 11q0 -17 -35 -17l-49 4q-61 4 -103 4l-213 -4q-10 -2 -28 -2t-19 14q-1 20 59 22t67 10.5t7 84.5l-2 621q-2 51 -5 60t-25 9l-60 -2q-8 -2 -26 -2t-17 15q0 15 35 18q137 6 235 65l21 13q16 -31 16 -113v-20q-2 -25 -2 -80v-559q0 -82 3 -96.5t28 -20.5q25 -7 69 -7
t44 -17zM342 1288q0 -92 -92 -92q-39 0 -65.5 25.5t-26.5 62.5q0 96 92 96t92 -92z" />
    <glyph glyph-name="j" unicode="j" horiz-adv-x="485" 
d="M354 496l2 -152v-397q0 -219 -75.5 -347t-206.5 -128q-63 0 -105.5 32.5t-42.5 81.5q0 96 105 97q86 0 86 -72l-15 -82q0 -18 13 -18q39 0 56 62t17 314l-2 904q-2 27 -30 26h-23q-8 -2 -94 -2q-23 0 -23 15t54 16q145 -2 213 49q37 23 47 23q16 0 18 -24t4 -155z
M252 1380q94 0 94 -92t-90 -92q-41 0 -67.5 25.5t-26.5 65.5t25.5 66.5t64.5 26.5z" />
    <glyph glyph-name="k" unicode="k" horiz-adv-x="960" 
d="M467 14q0 -18 -45 -18l-10 2h-50q-49 2 -133 2h-159q-50 0 -50 13t9.5 15.5t64.5 4.5t58 22q4 14 4 107v1001q0 162 -2 168q-4 14 -60 15h-20q-56 -8 -56 11t73 20t179 59q25 14 33 14q23 0 23 -170v-756q332 297 331 328q-1 12 -41 12h-51q-12 -2 -30 -2h-21
q-37 0 -37 18t64 17h84l75 -2h127q74 0 86.5 -2t12.5 -15q0 -14 -84 -16t-102 -13q-20 -11 -42 -34l-256 -248q285 -311 404 -456q49 -59 75 -71t103 -9q18 -1 18 -16t-75 -15l-254 6l-162 -8q-18 0 -19 14q0 16 39 17q99 1 99 31t-344 415l2 -418q2 -31 57 -28l55 2
q27 1 27 -17z" />
    <glyph glyph-name="l" unicode="l" horiz-adv-x="481" 
d="M20 12q0 14 23 15h53q57 0 58 24q2 12 2 160v1042q0 68 -4 74q-6 16 -33 16h-17l-57 -2q-29 -1 -29 17t75 22t159 43l43 21l16 6q16 -59 15 -180l-2 -146l2 -1003q0 -61 2 -72.5t9 -14.5q7 -2 67 -4t61 -18q0 -16 -27 -16h-24q-4 0 -109 4l-63 2l-189 -8q-31 -2 -31 18z
" />
    <glyph glyph-name="m" unicode="m" horiz-adv-x="1439" 
d="M555 -4q-25 0 -25 16q0 10 12.5 12.5t82.5 2.5q33 2 34 20l3 29v571q0 119 -30 164t-105.5 45t-126 -47t-50.5 -119v-581q0 -61 9.5 -72.5t60.5 -11.5h16q12 2 23 2q23 0 22 -17q0 -14 -26 -14h-21q-49 6 -153 4l-201 -4q-29 0 -29 15t27 16q78 0 90 7t14 25v533
q0 154 -6 180.5t-59 26.5h-29q-18 -2 -42 -2t-23 14q0 12 9 14t61 5t123 26t81 39q23 23 33 23t12 -16.5t4 -115.5q82 132 258 132t215 -138q80 138 244 138t217 -109q29 -57 29 -191v-505q0 -70 7 -77t64 -11l37 2q23 2 23 -14.5t-35 -16.5l-152 4q-6 0 -217 -4
q-27 0 -26 14q0 16 22 17h17l51 2q31 2 36 14t5 86v508q0 119 -32.5 169t-96.5 50t-110 -31.5t-64 -81.5q-8 -31 -9 -227v-387q0 -68 2 -78q6 -25 37 -24h60q27 0 26 -17q0 -14 -30 -14h-15q-20 4 -139 4l-192 -4h-23z" />
    <glyph glyph-name="n" unicode="n" horiz-adv-x="1001" 
d="M82 -4q-31 0 -31 14.5t32 16.5q31 2 59 2t34 14l6 31v446q0 233 -4 258t-51 25q-14 0 -49 -4h-10q-41 0 -41 16t52 17t123.5 21.5t95.5 42.5t34 22q14 0 14 -39v-99q106 138 264 138t224 -109q37 -61 36 -234v-466q0 -66 10 -75t36 -9t42 2h15q20 -1 20 -16t-30 -15h-25
q-37 4 -169 4t-169 -4h-14q-27 0 -27 12t11.5 14.5t64.5 4.5t59 11t6 66v394q0 223 -16 266q-35 92 -138 92t-173 -90q-20 -27 -21 -74l2 -639q0 -25 43 -26l62 -2q20 0 20 -14.5t-24 -14.5h-33q-45 4 -143 4l-185 -4h-12z" />
    <glyph glyph-name="o" unicode="o" horiz-adv-x="983" 
d="M735 440q0 229 -69 355q-51 92 -169 92t-182.5 -118t-64.5 -326t68.5 -323.5t191.5 -115.5q94 0 139 72q86 135 86 364zM922 444q0 -201 -121 -335t-304 -134t-308.5 134.5t-125.5 336.5t122 337t305 135t307.5 -136.5t124.5 -337.5z" />
    <glyph glyph-name="p" unicode="p" horiz-adv-x="1001" 
d="M756 426q0 188 -49 299q-66 156 -203 156q-72 0 -123 -50.5t-55 -130.5t0 -298q4 -217 8 -247t26 -61q60 -84 160 -84t154 90q82 138 82 326zM331 -508l-159 -2h-109q-59 0 -59 16t25 17h61q59 0 64 26q2 12 2 189v1020q0 57 -56 53q-82 4 -86 4q-18 0 -18 16t45 17
q113 -2 205 53q52 31 59.5 8.5t9.5 -100.5q76 109 217 109q178 0 292 -130t114 -334t-115.5 -341.5t-287.5 -137.5q-135 0 -209 99v-477q0 -45 3 -53.5t19 -14.5q31 -6 119 -6q25 0 25 -19q0 -14 -27 -14z" />
    <glyph glyph-name="q" unicode="q" horiz-adv-x="948" 
d="M674 420q0 254 -3 314.5t-24 88.5q-45 61 -145 62q-254 0 -254 -451q0 -199 61.5 -308.5t171.5 -109.5q57 0 107 33t68 75t18 296zM547 -508q-20 0 -21 14q0 16 37 17q89 2 99 13t10 145v391q-88 -96 -219 -97q-164 0 -278 134.5t-114 334.5t127 337t320 137
q66 0 132 -22t103 -22t55.5 20.5t26.5 20.5q16 0 17 -34v-1321q0 -33 49 -35q84 -5 84 -20q1 -15 -19 -15t-28 2l-246 4l-117 -4h-18z" />
    <glyph glyph-name="r" unicode="r" horiz-adv-x="692" 
d="M37 10.5q0 14.5 26 14.5h29q70 0 82 16q4 8 4 76v563q0 113 -33.5 130t-107.5 19q-25 0 -25 14.5t21 14.5h14q31 0 62 -3l26 -3q76 0 168 43l27 12l16 6q8 -49 8 -98v-41q66 143 185 144q66 0 108.5 -40.5t42.5 -93.5t-28.5 -83.5t-69.5 -30.5t-65.5 22t-24.5 52
t18.5 50.5t18.5 28.5q0 31 -51 31q-52 0 -96 -78t-44 -305v-405q0 -25 17.5 -31t105.5 -8q23 -3 23 -17t-27 -14l-244 4l-153 -4q-33 0 -33 14.5z" />
    <glyph glyph-name="s" unicode="s" horiz-adv-x="741" 
d="M100 266q0 23 16 23t17 -23q12 -94 53 -147q82 -106 220 -107q74 0 118.5 43t44.5 119t-51 123q-29 27 -52.5 38t-137.5 54q-227 86 -228 258q0 115 78 193t193 78q41 0 92 -16t67 -15q43 0 54 41q6 20 19 20t13 -16q0 -2 -2 -12l-2 -86q-2 -49 11 -158v-4q0 -16 -17 -17
q-12 0 -33 68t-77 113t-128 45t-116.5 -43t-44.5 -109q0 -102 137 -156q212 -83 278 -147t66 -174t-87 -193.5t-208 -83.5q-70 0 -170 50q-27 14 -51 14t-36 -32q-11 -32 -25.5 -32t-14.5 17q0 10 4 38t4 107l-4 107v22z" />
    <glyph glyph-name="t" unicode="t" horiz-adv-x="581" 
d="M364 -25q-117 0 -174 58q-33 33 -32 192v611q-2 20 -23 22h-78q-45 0 -45 14.5t23 16.5q160 14 250 155q12 18 28 18t17 -13v-9q-2 -10 -2 -65t8 -80q18 -4 96 -4t100 6t29 6q16 0 17 -18q0 -31 -166 -31q-29 0 -84 2v-379q0 -287 14 -359.5t88 -72.5t158 76q8 10 20 10
t13 -14q0 -14 -52 -62q-88 -80 -205 -80z" />
    <glyph glyph-name="u" unicode="u" horiz-adv-x="1003" 
d="M326 322q0 -158 20 -209q34 -80 138 -80t155 90q37 66 37 209v317q0 70 -2 105l-4 67q-2 31 -14 36t-72 4t-60 20q0 12 43 12h19q16 -2 124 -2t136 2v-571q0 -147 6 -186.5t31.5 -45.5t115.5 -6q25 0 25 -14.5t-45 -16.5q-160 -10 -281 -69q-8 -4 -14 -4q-12 0 -12 16
l2 115q-94 -135 -255 -135t-226 87q-27 37 -32 68t-5 166v469q0 72 -8.5 84t-55.5 14l-26 -2q-55 -4 -56 17q0 14 35 14l148 -6q72 0 133 6v-571z" />
    <glyph glyph-name="v" unicode="v" horiz-adv-x="786" 
d="M362 893q20 0 21 -14q0 -16 -63.5 -16.5t-63.5 -16.5q0 -22 26 -86t92 -260q68 -196 95 -258q57 182 125 380t68 224q0 18 -24 18t-34 -2h-18q-27 0 -27 16t25 15l127 -2l77 2q62 2 62 -14.5t-26 -16.5t-50 2h-12q-37 0 -57 -45q-12 -39 -25 -78l-172 -528
q-14 -41 -44 -139t-49 -99q-19 0 -50 95q-166 449 -168 446q-106 303 -129 330q-18 18 -58 16l-47 -2q-20 0 -20 16.5t28 16.5l144 -4l237 4h10z" />
    <glyph glyph-name="w" unicode="w" horiz-adv-x="1226" 
d="M176 893l133 2h25q29 0 28 -16q0 -18 -20 -19l-51 2q-49 2 -49 -18t54 -172t144 -443q88 287 129 406t64 191t43 72t50 -96t100 -289t100 -284l184 619q0 16 -16 16t-68 -2q-23 0 -22.5 16.5t28.5 16.5h236q24 0 24 -16.5t-26 -16.5t-41 2h-17q-43 0 -74 -100t-51 -176
l-63 -205q-35 -106 -102 -340q-18 -70 -34 -70t-42 61.5t-114 304.5q-89 243 -105 296q-80 -225 -207 -637q-8 -25 -25 -24.5t-25 22.5t-28 78l-49 131q-31 81 -150 461q-57 164 -84 188q-18 8 -66 8t-48 19q0 14 22 14z" />
    <glyph glyph-name="x" unicode="x" horiz-adv-x="862" 
d="M795 862q-63 0 -82 -16.5t-39 -50.5l-39 -66q-27 -45 -78 -121l-68 -100l35 -59q82 -149 197 -347q27 -45 51.5 -58t82.5 -13t58 -16.5t-23 -16.5h-36q-12 2 -31 2l-202 2l-183 -4q-37 0 -37 14t12.5 16.5t78.5 2.5t67 16q-1 15 -35 77t-137 238l-12 21
q-211 -301 -211 -334q0 -18 115 -20q20 -1 20 -17t-35 -16l-129 4h-18q-29 0 -54 -2l-40 2q-27 -2 -33 -2q-23 0 -23.5 16.5t57.5 19.5t97 48l170 256q14 20 57 84q-35 59 -176 330q-41 80 -62.5 94t-103.5 16q-31 0 -31 16t29 15l232 -4l190 4q53 0 52.5 -16.5t-80.5 -18.5
t-80 -19t58 -125q59 -108 87 -165q61 84 123.5 185.5t62.5 115.5t-49 12l-43 -2q-14 0 -14 16.5t26 16.5l70 -4q20 -2 41 -2l111 6h22q14 2 30 2t15 -12q0 -21 -63 -21z" />
    <glyph glyph-name="y" unicode="y" horiz-adv-x="821" 
d="M868 878.5q0 -14.5 -49 -16.5t-62.5 -8t-23.5 -35l-14 -37l-17 -51q-241 -780 -354 -1087q-66 -174 -180 -174q-49 0 -81 28.5t-32 70.5t25.5 66.5t73.5 24.5t70 -40t34 -40q18 0 66 126t82 243q-152 397 -242 647t-100 256t-64.5 6t-54.5 21q0 16 26 16l142 -6h37
q43 2 118 4l105 2q23 0 23 -15q0 -16 -70 -18t-70 -20t76 -226l35 -102q15 -46 55 -150t65 -174q197 616 197 641t-15.5 29t-86.5 4q-20 0 -21 17q0 14 25 14l131 -6h57l76 4q18 0 18 -14.5z" />
    <glyph glyph-name="z" unicode="z" horiz-adv-x="808" 
d="M98 -6q-55 0 -55 16q0 4 141 250l357 600q-45 6 -153 6t-161 -48t-84 -191q-6 -25 -24 -25t-19 16q0 2 20 119t36 166q143 -6 542 -6h27q2 -4 2 -10q0 -23 -174 -319t-322 -535q55 -2 134 -2q244 0 299 90q43 70 65 172q7 18 23 18t16 -14q0 -15 -24 -115t-31 -184
l-289 2l-320 -6h-6z" />
    <glyph glyph-name="braceleft" unicode="{" horiz-adv-x="624" 
d="M543 1423q43 0 43 -18.5t-72 -18.5t-104.5 -46t-32.5 -150l8 -246q0 -211 -127 -315q-57 -47 -125 -60q-10 -2 -10 -9t12 -7q49 -2 109 -49q141 -109 141 -297l-8 -266q0 -209 119 -205l49 2q37 2 37 -18.5t-67 -20.5q-67 1 -137 25t-120.5 104t-50.5 184l10 275
q0 141 -46 191t-98 55t-53 28q0 20 46 27q88 14 120 74t33 190l-12 260q0 102 55 186t139 111q47 14 142 14z" />
    <glyph glyph-name="bar" unicode="|" horiz-adv-x="1064" 
d="M590 -354h-117v1773h117v-1773z" />
    <glyph glyph-name="braceright" unicode="}" horiz-adv-x="624" 
d="M602 561q0 -20 -45 -26q-84 -13 -118 -73t-33 -192l10 -258q0 -104 -55.5 -188t-139.5 -111q-45 -14 -115 -14t-71 18.5t73 18.5t106 46t32 155l-8 239q0 215 124 318q57 47 127 59q10 4 11 8q0 8 -13 8q-49 2 -108 49q-141 111 -141 300l8 266q0 209 -121 202l-47 -2
q-37 -2 -37.5 18.5t65.5 20.5q179 0 244.5 -103t65.5 -212l-10 -274q0 -139 46 -189.5t98 -54.5t52 -29z" />
    <glyph glyph-name="asciitilde" unicode="~" horiz-adv-x="1394" 
d="M854 1337q-40 -1 -178 45t-198 46t-97 -24t-100 -99l-31 20q127 207 293 207q59 0 181 -43t177 -43q117 0 211 115l31 -19q-51 -94 -131 -149.5t-158 -55.5z" />
    <glyph glyph-name="nonbreakingspace" unicode="&#xa0;" horiz-adv-x="380" 
 />
    <glyph glyph-name="exclamdown" unicode="&#xa1;" horiz-adv-x="729" 
d="M362.5 559q26.5 0 26.5 -51q0 -370 90 -909q-72 -141 -114 -142q-29 0 -46.5 19.5t-60.5 103.5l-10 21q94 537 88 913q0 45 26.5 45zM471 808q0 -46 -31.5 -77t-77.5 -31t-78 32t-32 78t31.5 78t77.5 32t78 -33t32 -79z" />
    <glyph glyph-name="cent" unicode="&#xa2;" horiz-adv-x="1042" 
d="M612 1124q-117 0 -184.5 -104.5t-67.5 -292.5t35 -278l371 585q-37 90 -154 90zM1006 1300q0 -6 -35 -61l-113 -178q51 -35 51 -103q0 -39 -24.5 -64.5t-64.5 -25.5t-66 39l-334 -514q76 -131 209 -131q63 0 124.5 38t96.5 97q12 23 30 23t17 -22q0 -22 -59 -85
q-98 -106 -238 -106t-252 84l-172 -266q-25 -37 -37 -37q-27 0 -26 26q0 8 20 41l170 264q-141 158 -141 356t128 337t312 139q121 0 215 -55l111 166q14 20 24 40t29 21q25 0 25 -23z" />
    <glyph glyph-name="sterling" unicode="&#xa3;" horiz-adv-x="1056" 
d="M1016 291q0 -141 -35 -201t-89 -92.5t-123 -32.5q-69 -1 -225 67t-234 68t-116 -23t-67 -63q-30 -40 -44.5 -39.5t-35 25.5t-20.5 41t22 22q252 70 252 345q0 72 -25 151h-190q-39 0 -39 26t43 25h168q-57 217 -57 328q0 197 109.5 315.5t275.5 118.5t261 -81t95 -210
q0 -70 -39 -113.5t-98 -43.5q-115 0 -115 106q0 56 36 80t108 31q28 1 28 31t-50 85t-166 55t-185.5 -87t-69.5 -231t68 -384h336q49 0 49 -22q0 -29 -51 -29h-326v-24q0 -125 -72 -220q-72 -86 -145 -172q-2 -4 -2 -8t7 -4t24 12q99 72 197 72t218 -50t164 -50q68 0 94 90
q6 25 10 78t28 53q26 0 26 -45z" />
    <glyph glyph-name="yen" unicode="&#xa5;" horiz-adv-x="1144" 
d="M553 1331.5q0 -18.5 -35 -18.5h-43q-113 0 -113 -41q0 -33 119 -264l174 -334l168 336q115 236 115 264t-54 35.5t-86 5.5t-32 16t90 19h59q195 0 234 -2t39 -16.5t-29 -16.5q-106 -6 -139 -37q-14 -12 -30 -44t-68 -144l-72 -152q-29 -63 -74 -152h219q37 0 37 -24
t-53 -25h-227l-15 -30q-39 -82 -45 -103t-6 -78v-12h309q37 0 37 -25t-53 -24h-293v-338q0 -59 16.5 -72.5t94.5 -17.5t77.5 -20.5t-26.5 -16.5h-21l-129 4l-161 2l-179 -4q-12 -2 -34 -2t-21 17q0 17 41 20q111 4 131.5 16.5t20.5 38.5l2 55v318h-346q-41 0 -41 24.5
t57 24.5h330v45q-35 82 -86 178h-260q-41 0 -41 24.5t57 24.5h219q-76 160 -116 234q-41 74 -85 170q-44 94 -60 108t-136 17q-31 0 -31 18t37 19l250 -6l270 4q37 0 37 -18.5z" />
    <glyph glyph-name="brokenbar" unicode="&#xa6;" horiz-adv-x="1064" 
d="M590 -354h-117v680h117v-680zM590 707h-117v712h117v-712z" />
    <glyph glyph-name="section" unicode="&#xa7;" horiz-adv-x="1091" 
d="M303 760q0 -84 105 -178q46 -43 146 -121t181 -150q68 79 68 138q0 117 -203 270q-39 31 -81 63t-68 54l-91 79q-57 -71 -57 -155zM879 559q0 -150 -115 -274q84 -111 84 -249t-99.5 -239.5t-233.5 -101.5t-212 66.5t-78 166.5q0 68 37 108t90 40t87 -31t34 -72
q0 -80 -141 -88q-45 -2 -45 -20q0 -51 66.5 -93t148.5 -42q199 0 198 227q0 102 -43 172.5t-189 178.5t-200 176t-53 192q0 125 119 268q-70 92 -70 195q0 139 89 224t221 85t207 -62.5t75 -162.5q0 -125 -113 -125q-106 0 -106 92q0 47 26.5 65.5t104.5 22.5q18 0 18 16
q0 45 -59 81t-139 36t-131 -51t-51 -135t47 -148.5t182 -162.5t189 -184t55 -171z" />
    <glyph glyph-name="dieresis" unicode="&#xa8;" horiz-adv-x="1026" 
d="M434 1146q0 -40 -29.5 -68.5t-70.5 -28.5t-69.5 28.5t-28.5 70.5t28.5 70.5t69.5 28.5t70.5 -30.5t29.5 -70.5zM786 1146q0 -42 -27.5 -68.5t-69.5 -26.5t-70.5 27.5t-28.5 68.5t29.5 70.5t71.5 29.5t68.5 -29.5t26.5 -71.5z" />
    <glyph glyph-name="copyright" unicode="&#xa9;" horiz-adv-x="1644" 
d="M416 716q0 192 118.5 314.5t305.5 122.5q109 0 207 -61q29 -18 39 -18.5t22 32.5t28 33q16 -1 15 -13q0 -12 -8 -54t-8 -191q0 -29 -21 -29q-16 0 -22 27q-27 131 -80.5 184t-167.5 53t-183 -107.5t-69 -296t76.5 -296t210.5 -107.5q205 0 247 246q6 33 24 33t17 -25
l-8 -168l4 -80v-12q0 -23 -16 -22q-16 0 -55 84q-76 -92 -220 -93q-199 0 -327.5 126t-128.5 318zM1483 713q0 281 -195.5 475t-467.5 194t-464 -199t-192 -475t192.5 -473.5t467 -197.5t467 197.5t192.5 478.5zM1559 708q0 -302 -215.5 -517.5t-521.5 -215.5t-520 215.5
t-214 521.5t218 519t522 213t517.5 -217t213.5 -519z" />
    <glyph glyph-name="ordfeminine" unicode="&#xaa;" horiz-adv-x="737" 
d="M436 756v86q-168 -39 -168 -133q0 -82 74 -82q94 0 94 129zM678 635q0 -23 -49 -47.5t-97 -24.5q-92 0 -92 84q-72 -88 -142 -88t-109 32t-39 83q0 166 286 200v25q0 102 -10 137q-16 59 -92 60q-51 0 -76 -27t-25 -39t11 -12q55 -6 55 -53q0 -59 -68 -60q-80 0 -79 74
q0 66 57 106.5t161 40.5t154 -51q29 -31 29 -137v-225q0 -74 4.5 -88.5t26.5 -14.5t44 18t36 19q14 0 14 -12z" />
    <glyph glyph-name="guillemotleft" unicode="&#xab;" horiz-adv-x="854" 
d="M449 123q1 -12 -11 -12t-22 12q-193 188 -301 285q-14 12 -15 26q0 51 3 63.5t24 26.5q176 168 268 281q20 25 33 24q16 0 16 -16q0 -39 -206 -350q68 -106 202 -316q9 -12 9 -24zM780 125q0 -12 -11 -12t-21 12q-180 174 -302 283q-14 12 -14 44t3 44t24 30
q158 139 268 279q17 25 33 25t16 -19q0 -41 -205 -348q25 -37 172 -268l29 -45q8 -13 8 -25z" />
    <glyph glyph-name="logicalnot" unicode="&#xac;" horiz-adv-x="1091" 
d="M971 0h-131v379h-719v74h850v-453z" />
    <glyph glyph-name="sfthyphen" unicode="&#xad;" horiz-adv-x="624" 
d="M594 406h-563v106h563v-106z" />
    <glyph glyph-name="registered" unicode="&#xae;" horiz-adv-x="1644" 
d="M926 944q0 164 -150 164q-45 0 -53 -11.5t-8 -31.5v-301q211 0 211 180zM741 1143l72 2q125 0 198.5 -52.5t73.5 -149.5t-104 -152q-59 -33 -168 -41q-10 0 -10 -7q2 -4 10 -4q131 -12 187.5 -82.5t72.5 -246.5q10 -96 62 -97q10 0 10 4l-6 21q1 35 37 35t36 -37
q0 -57 -99 -57t-163 79q-24 33 -32 65q-8 33 -20 139t-53 134q-42 28 -130 31v-332q0 -57 16 -63q17 -6 59 -6t41.5 -16.5t-32.5 -16.5h-15q-20 2 -78 2h-94q-35 -2 -65 -2h-49q-39 0 -39 16.5t45 16.5t54 7t9 48v668q0 45 -8 54t-49 9h-10q-6 -2 -15 -2q-27 0 -26.5 18.5
t26.5 18.5h17q25 -4 162 -4h77zM1483 713q0 281 -195.5 475t-467.5 194t-464 -199t-192 -475t192.5 -473.5t467 -197.5t467 197.5t192.5 478.5zM1559 708q0 -302 -215.5 -517.5t-521.5 -215.5t-520 215.5t-214 521.5t218 519t522 213t517.5 -217t213.5 -519z" />
    <glyph glyph-name="macron" unicode="&#xaf;" horiz-adv-x="1026" 
d="M756 1098h-486v100h486v-100z" />
    <glyph glyph-name="macron" unicode="&#x2c9;" horiz-adv-x="1026" 
d="M756 1098h-486v100h486v-100z" />
    <glyph glyph-name="degree" unicode="&#xb0;" horiz-adv-x="1091" 
d="M707 1196q0 74 -46.5 122t-112.5 48t-111.5 -50t-45.5 -122t46 -120t113.5 -48t112 48t44.5 122zM799 1195q0 -105 -74 -176t-179 -71t-178 73t-73 176t72.5 175t179 72t179.5 -72t73 -177z" />
    <glyph glyph-name="plusminus" unicode="&#xb1;" horiz-adv-x="1091" 
d="M971 25h-850v73h850v-73zM971 651h-387v-381h-74v381h-389v74h389v379h74v-379h387v-74z" />
    <glyph glyph-name="twosuperior" unicode="&#xb2;" horiz-adv-x="724" 
d="M666 807q0 -2 -3.5 -18.5t-7.5 -49.5l-10 -92l-4 -61l-2 -21q-190 6 -242 6l-334 -4q-23 -1 -23 15t73 69q201 152 272.5 257.5t71.5 252.5q0 227 -160 228q-57 0 -99 -30t-42 -71q0 -16 22 -16q90 0 90 -80q0 -74 -80 -74q-106 0 -106 111q0 92 69.5 148.5t189.5 56.5
t195.5 -75t75.5 -202t-91 -236.5t-310 -242.5h82q55 2 143 2t115 4t43 21q8 12 24 96q6 27 27 26.5t21 -20.5z" />
    <glyph glyph-name="threesuperior" unicode="&#xb3;" horiz-adv-x="724" 
d="M641 806q0 -104 -97.5 -177.5t-221.5 -73.5t-185 37t-61 100q0 88 89 88t89 -71q0 -49 -59 -72q-14 -6 -15 -12q0 -35 98 -35t154.5 61.5t56.5 155.5t-47 147.5t-129 53.5q-18 0 -39 -2h-8q-28 0 -28 15t41 21q180 27 180 185q0 76 -39.5 120t-97.5 44t-95 -18.5
t-37 -41.5q0 -14 35 -22q53 -12 54 -62q0 -68 -70 -67q-100 0 -100 94q0 72 65.5 116t177.5 44t183 -56.5t71 -146.5q0 -168 -227 -191v-8q262 -21 262 -226z" />
    <glyph glyph-name="acute" unicode="&#xb4;" horiz-adv-x="1026" 
d="M573 1360l168 -2h37l-186 -195q-123 -129 -143 -129t-9 23q23 55 68 160z" />
    <glyph glyph-name="mu" unicode="&#xb5;" horiz-adv-x="1003" 
d="M326 322q0 -158 20 -209q34 -80 138 -80t155 90q37 66 37 209v317q0 70 -2 105l-4 67q-2 31 -14 36t-72 4t-60 20q0 12 43 12h19q16 -2 124 -2t136 2v-571q0 -147 6 -186.5t31.5 -45.5t115.5 -6q25 0 25 -14.5t-45 -16.5q-160 -10 -281 -69q-8 -4 -14 -4q-12 0 -12 16
l2 115q-94 -135 -260 -136q-117 0 -172 78q6 -45 11 -105t15 -138l17 -105q4 -27 4 -63t-35 -92t-66 -56t-63.5 57t-32.5 89t32 252t32 405v469q0 72 -8.5 84t-55.5 14l-26 -2q-55 -4 -56 17q0 14 35 14l148 -6q72 0 133 6v-571z" />
    <glyph glyph-name="paragraph" unicode="&#xb6;" horiz-adv-x="1091" 
d="M801 1382h-133v-1042q0 -260 -4 -301q-14 -205 -89 -266l11 -13q141 92 184 240q27 92 31 328v1054zM1055 1403q0 -15 -70 -17t-91.5 -8t-28.5 -21.5t-7 -76.5v-842q0 -238 -6 -297q-18 -174 -96 -274q-139 -182 -357 -182q-115 0 -189.5 52t-74.5 132q0 53 36 89t91 36
q109 0 109 -96q0 -63 -101 -95q-27 -8 -26 -22q0 -23 48 -41.5t103 -18.5q123 -1 170 89t47 315v633q-215 2 -329 73q-160 98 -160 273q0 217 178 282q98 37 311 37h396q47 0 47 -20z" />
    <glyph glyph-name="periodcentered" unicode="&#xb7;" horiz-adv-x="530" 
d="M375 466q0 -46 -32 -79t-79 -33t-78.5 33t-31.5 79t32.5 77.5t78.5 31.5t78 -31.5t32 -77.5z" />
    <glyph glyph-name="cedilla" unicode="&#xb8;" horiz-adv-x="1026" 
d="M719 -219q0 -68 -56.5 -117t-120.5 -49t-116.5 25.5t-52.5 48.5q0 12 14 12q8 1 33 -19t65.5 -20t72.5 45t32 105q0 98 -76 98q-18 0 -29 -2v100h43v-71q82 0 136.5 -44t54.5 -112z" />
    <glyph glyph-name="onesuperior" unicode="&#xb9;" horiz-adv-x="724" 
d="M444 569l-184 -2h-39q-41 -1 -41 17t27 18h61q33 0 35 14l2 15v626q0 47 -10 48q-39 -6 -84 -7h-21q-27 0 -26 15q0 12 24 16q125 16 222 101q14 12 25 12t13.5 -8.5t2.5 -55.5v-757q2 -18 24 -19q100 0 100 -17t-36 -18h-17z" />
    <glyph glyph-name="ordmasculine" unicode="&#xba;" horiz-adv-x="737" 
d="M379 588q133 0 133 254t-143 254q-66 0 -105 -67.5t-39 -186.5q0 -254 154 -254zM649 842q0 -121 -78.5 -202t-198.5 -81t-202 81t-82 202t80 202.5t200 81.5t200.5 -81.5t80.5 -202.5z" />
    <glyph glyph-name="guillemotright" unicode="&#xbb;" horiz-adv-x="854" 
d="M422 488q0 -32 -3 -45t-24 -29q-152 -133 -268 -279q-20 -25 -33 -24q-16 0 -16 18q0 37 207 348q-43 63 -201 316q-8 16 -8 25t11 9t22 -12q176 -172 299 -283q14 -12 14 -44zM408 815q0 12 11 12t21 -12q188 -184 301 -283q15 -12 15 -26q0 -51 -3 -62.5t-24 -29.5
q-168 -150 -268 -279q-17 -25 -33 -25t-16 17q0 41 206 350q-210 306 -210 338z" />
    <glyph glyph-name="onequarter" unicode="&#xbc;" horiz-adv-x="1726" 
d="M1194 270h135v82q0 61 2 111.5t6 204.5q-90 -131 -282 -383l-11 -13q59 -2 150 -2zM420 569l-184 -2h-39q-41 -1 -41 17t26 18h62q33 0 35 14l2 15v626q0 47 -11 48q-39 -6 -84 -7h-20q-27 0 -27 14t25 17q125 16 221 101q13 12 25 12t14 -8.5t2 -55.5v-757q2 -18 25 -19
q100 0 100 -17t-37 -18h-16zM1290 1419l-774 -1419h-80l774 1419h80zM1407 0l-195 -4q-24 0 -24 19t49 17.5t78 4.5q14 4 14 51v141h-102q-170 0 -213 4.5t-43 15.5t137 185q138 174 194 250t95 128q39 50 53 50q23 0 23 -28v-564q81 0 85.5 10.5t4 62.5t23.5 52t22 -28
l-2 -45q-4 -104 6 -164v-17q0 -20 -18 -20t-20.5 9.5t-6.5 53.5t-27 46t-67 3v-143q0 -37 3 -45t19 -10l82 -2q27 0 27 -16.5t-62 -16.5h-135z" />
    <glyph glyph-name="onehalf" unicode="&#xbd;" horiz-adv-x="1726" 
d="M408 569l-185 -2h-39q-41 -1 -41 17t27 18h61q33 0 35 14l2 15v626q0 47 -10 48q-39 -6 -84 -7h-20q-27 0 -27 14t25 17q125 16 221 101q14 12 25 12t13.5 -8.5t2.5 -55.5v-757q2 -18 24 -19q101 0 101 -17t-37 -18h-17zM1229 1419l-774 -1419h-80l774 1419h80zM1630 238
q0 -8 -8 -58t-12 -100l-4 -64l-2 -20q-154 8 -244 6l-332 -4q-23 0 -22 16q0 12 26 33q190 147 236 195q154 158 153 350q0 227 -159 227q-59 0 -100.5 -29.5t-41.5 -70.5q0 -16 23 -17q90 0 90 -79q0 -74 -80 -74q-106 0 -106 110q0 92 69.5 148.5t189.5 56.5t195.5 -74.5
t75.5 -201.5t-89 -234.5t-312 -244.5l73 2h121q117 0 144.5 4t44.5 20q6 8 24 96q6 27 26.5 27t20.5 -20z" />
    <glyph glyph-name="threequarters" unicode="&#xbe;" horiz-adv-x="1726" 
d="M1219 270h135v82q0 61 2 111.5t6 204.5q-68 -90 -118 -162t-91 -127l-84 -107q59 -2 150 -2zM678 806q0 -104 -97 -177.5t-221 -73.5t-185.5 37t-61.5 100q0 88 89 88t89 -71q0 -49 -60 -72q-14 -6 -14 -12q0 -35 97 -35t154.5 61.5t57.5 155.5t-47 147.5t-129 53.5
q-18 0 -39 -2h-8q-29 0 -29 15t41 21q180 27 181 185q0 76 -40 120t-98 44t-94.5 -18.5t-36.5 -41.5q0 -14 35 -22q53 -12 53 -62q0 -68 -69 -67q-100 0 -101 94q0 72 65.5 116t177.5 44t183.5 -56.5t71.5 -146.5q0 -168 -227 -191v-8q262 -21 262 -226zM1352 1419
l-774 -1419h-80l774 1419h80zM1432 0l-195 -4q-25 0 -25 19t49.5 17.5t77.5 4.5q14 4 15 51v141h-103q-170 0 -213 4.5t-43 14.5t118 158q119 148 231 302t133 154t20 -37v-555q23 2 56.5 2t33.5 49.5t4 61.5t19 12q25 0 22 -28l-2 -52q-2 -70 6 -157v-15q0 -23 -18 -22
q-23 0 -26 49t-11 56t-84 7v-143q0 -37 3 -44t20 -11l82 -2q27 0 26 -19q0 -14 -61 -14h-135z" />
    <glyph glyph-name="questiondown" unicode="&#xbf;" horiz-adv-x="845" 
d="M782 -260q0 -125 -92 -205t-244 -80t-249 88t-97 232q0 107 46 185t206 216q158 138 158 236q0 30 -12 74t-13 58q0 14 17 15q23 0 43 -59.5t20 -133.5t-32.5 -144t-120.5 -183q-129 -164 -129 -284t59.5 -185.5t157.5 -65.5t161.5 67t63.5 167q0 23 -4 24q-4 -2 -14 -20
q-23 -41 -78 -41q-92 0 -92 96.5t106 96.5q139 0 139 -154zM610 810q0 -46 -32.5 -78t-78.5 -32t-78 32t-32 79t33 79t79 32t77.5 -33t31.5 -79z" />
    <glyph glyph-name="Agrave" unicode="&#xc0;" horiz-adv-x="1232" 
d="M768 504q-33 92 -109 305l-98 281q-86 -225 -207 -586h414zM-49 18.5q0 18.5 64.5 20.5t93 19.5t45.5 66.5q264 754 430 1210q4 25 16 56l10 36q6 23 14 23t13 -12q27 -80 111 -306t376 -1026q16 -45 42 -57t92 -14t67 -20.5t-25 -18.5t-43 2l-260 4l-260 -4
q-15 -2 -43 -2t-28 22t55 21q180 2 180 37q0 2 -4 16l-16 55l-11 29q-18 63 -90 281h-438q-123 -328 -123 -367t25 -45q6 -2 84 -6t78 -23q0 -20 -54 -20l-70 2l-302 2q-29 0 -29 18.5zM684 1565q0 -11 -15 -11t-141 129l-186 193l35 2l59 2h43q37 0 66 -2l84 -182
q8 -16 22 -54l17 -36l12 -29q4 -8 4 -12z" />
    <glyph glyph-name="Aacute" unicode="&#xc1;" horiz-adv-x="1232" 
d="M768 504q-33 92 -109 305l-98 281q-86 -225 -207 -586h414zM-49 18.5q0 18.5 64.5 20.5t93 19.5t45.5 66.5q264 754 430 1210q4 25 16 56l10 36q6 23 14 23t13 -12q27 -80 111 -306t376 -1026q16 -45 42 -57t92 -14t67 -20.5t-25 -18.5t-43 2l-260 4l-260 -4
q-15 -2 -43 -2t-28 22t55 21q180 2 180 37q0 2 -4 16l-16 55l-11 29q-18 63 -90 281h-438q-123 -328 -123 -367t25 -45q6 -2 84 -6t78 -23q0 -20 -54 -20l-70 2l-302 2q-29 0 -29 18.5zM574 1554q-16 0 -15 8q-1 8 13 38l59 137l65 141q31 2 81 2t87 -2l37 -2l-186 -193
q-125 -129 -141 -129z" />
    <glyph glyph-name="Acircumflex" unicode="&#xc2;" horiz-adv-x="1232" 
d="M768 504q-33 92 -109 305l-98 281q-86 -225 -207 -586h414zM-49 18.5q0 18.5 64.5 20.5t93 19.5t45.5 66.5q264 754 430 1210q4 25 16 56l10 36q6 23 14 23t13 -12q27 -80 111 -306t376 -1026q16 -45 42 -57t92 -14t67 -20.5t-25 -18.5t-43 2l-260 4l-260 -4
q-15 -2 -43 -2t-28 22t55 21q180 2 180 37q0 2 -4 16l-16 55l-11 29q-18 63 -90 281h-438q-123 -328 -123 -367t25 -45q6 -2 84 -6t78 -23q0 -20 -54 -20l-70 2l-302 2q-29 0 -29 18.5zM421 1538q-44 0 -11 33q92 90 174 266q33 72 50 72q16 0 76 -113t173 -252h-135
q-72 68 -150 225q-45 -92 -99.5 -161.5t-77.5 -69.5z" />
    <glyph glyph-name="Atilde" unicode="&#xc3;" horiz-adv-x="1232" 
d="M768 504q-33 92 -109 305l-98 281q-86 -225 -207 -586h414zM-49 18.5q0 18.5 64.5 20.5t93 19.5t45.5 66.5q264 754 430 1210q4 25 16 56l10 36q6 23 14 23t13 -12q27 -80 111 -306t376 -1026q16 -45 42 -57t92 -14t67 -20.5t-25 -18.5t-43 2l-260 4l-260 -4
q-15 -2 -43 -2t-28 22t55 21q180 2 180 37q0 2 -4 16l-16 55l-11 29q-18 63 -90 281h-438q-123 -328 -123 -367t25 -45q6 -2 84 -6t78 -23q0 -20 -54 -20l-70 2l-302 2q-29 0 -29 18.5zM922 1755q0 -49 -42 -116.5t-122 -67.5q-48 1 -180 69t-156 68q-41 0 -41 -43
q1 -23 21 -44t20 -28q0 -16 -20.5 -16t-41 26.5t-20.5 67.5t44 81t110 40t187 -63.5t147 -63.5t46 72q10 35 29 34.5t19 -16.5z" />
    <glyph glyph-name="Adieresis" unicode="&#xc4;" horiz-adv-x="1232" 
d="M768 504q-33 92 -109 305l-98 281q-86 -225 -207 -586h414zM-49 18.5q0 18.5 64.5 20.5t93 19.5t45.5 66.5q264 754 430 1210q4 25 16 56l10 36q6 23 14 23t13 -12q27 -80 111 -306t376 -1026q16 -45 42 -57t92 -14t67 -20.5t-25 -18.5t-43 2l-260 4l-260 -4
q-15 -2 -43 -2t-28 22t55 21q180 2 180 37q0 2 -4 16l-16 55l-11 29q-18 63 -90 281h-438q-123 -328 -123 -367t25 -45q6 -2 84 -6t78 -23q0 -20 -54 -20l-70 2l-302 2q-29 0 -29 18.5zM549 1666q0 -40 -30 -68.5t-70.5 -28.5t-69.5 28.5t-29 70.5t29 70.5t69.5 28.5
t70.5 -30.5t30 -70.5zM901 1664q0 -42 -27.5 -68.5t-69.5 -26.5t-70.5 27.5t-28.5 68.5t29.5 70.5t71.5 29.5t68.5 -29.5t26.5 -71.5z" />
    <glyph glyph-name="Aring" unicode="&#xc5;" horiz-adv-x="1232" 
d="M768 504q-33 92 -109 305l-98 281q-86 -225 -207 -586h414zM739 1742q0 52 -31.5 85t-78.5 33t-78 -35t-31 -85t32 -84t79 -34t77.5 34t30.5 86zM-49 18.5q0 18.5 64.5 20.5t93 19.5t45.5 66.5q264 754 430 1210q4 25 16 56l10 36q6 23 14 23t13 -12q27 -80 111 -306
t376 -1026q16 -45 42 -57t92 -14t67 -20.5t-25 -18.5t-43 2l-260 4l-260 -4q-15 -2 -43 -2t-28 22t55 21q180 2 180 37q0 2 -4 16l-16 55l-11 29q-18 63 -90 281h-438q-123 -328 -123 -367t25 -45q6 -2 84 -6t78 -23q0 -20 -54 -20l-70 2l-302 2q-29 0 -29 18.5zM809 1740
q0 -75 -52 -125t-128 -50t-128 51t-52 125t52 125t128 51t128 -51t52 -126z" />
    <glyph glyph-name="AE" unicode="&#xc6;" horiz-adv-x="1912" 
d="M938 504v813q-51 -91 -132 -227t-167 -287t-172 -299h471zM375 -2l-305 2q-90 0 -107 5q-18 5 -18 15q0 16 53 21q123 8 164 74q8 8 67 108l555 942q80 133 154 262h37l65 -2q66 -2 131 -2l320 4l213 -2q35 0 100 7q0 -8 21 -256l6 -76q2 -10 2 -29t-18 -18q-14 0 -19 22
q-29 182 -105.5 245.5t-373.5 63.5q-121 0 -174 -2v-608h88q229 0 274 62q29 39 35 129t27 90t20 -35l-10 -217q0 -201 5 -265t5 -73q0 -27 -20 -27q-14 0 -18.5 9.5t-15.5 96.5t-31.5 121.5t-92.5 57.5q-31 10 -266 12v-694q335 0 453 15q118 16 160 70t61 200q6 49 32 49
q21 0 21 -53l-6 -250v-84q-244 10 -542 10l-495 -2h-14q-41 0 -41 20.5t66 20.5t83 18.5t17 106.5v295h-504q-211 -332 -211 -383q0 -20 19.5 -25.5t128.5 -13.5q39 -1 39 -19t-35 -18z" />
    <glyph glyph-name="Ccedilla" unicode="&#xc7;" horiz-adv-x="1337" 
d="M1245 464q0 -24 -7 -91q-7 -68 -7 -158t10 -184v-19q0 -27 -16.5 -26.5t-36.5 50.5t-49 68q-150 -129 -359 -129q-33 0 -57 2v-40q82 0 136 -44.5t54 -112.5t-55.5 -116.5t-119.5 -48.5t-117.5 25.5t-53.5 48.5q0 12 15 12q8 1 32 -19t65.5 -20t73 44t31.5 104
q0 100 -75 100q-18 0 -29 -2v76q-264 39 -428 240.5t-164 507.5t181.5 509t467.5 203q102 0 165.5 -17.5t131.5 -57.5t88 -40t42 45t38.5 45t16.5 -16q0 -8 -5 -27q-31 -135 -22 -334l2 -47q2 -39 -23 -39q-20 0 -26 39q-33 195 -109 289q-96 119 -272 119t-272 -111
q-174 -199 -174 -559t145 -553q125 -164 330 -164q106 0 231 74.5t174 347.5q8 49 27 49q20 1 20 -23z" />
    <glyph glyph-name="Egrave" unicode="&#xc8;" horiz-adv-x="1191" 
d="M453 1421l511 2q68 0 119 9q4 -88 19 -244l8 -88q2 -10 2 -28t-18 -19q-23 0 -33 51q-39 184 -127 233q-66 37 -344 37h-168v-600h49q229 0 279.5 35t68.5 203q4 43 25 43t20.5 -37t-4.5 -108.5t-4 -199.5t5 -179t5 -66q0 -27 -22 -27q-14 0 -19.5 18t-19.5 126t-98 137
q-37 12 -193 12h-92v-688q451 0 528 18q135 31 154 263q4 51 26 51t21 -43l-8 -277v-67q-201 10 -534 10l-496 -2h-21q-39 0 -39 18q-1 12 9 14t72 6q62 5 73.5 23.5t11.5 96.5v1151q0 59 -17.5 70t-111.5 11q-33 0 -33 18.5t45 18.5zM715 1565q1 -11 -15 -11t-141 129
l-186 193l35 2l59 2h43q37 0 65 -2l84 -182q8 -16 23 -54l29 -65q4 -8 4 -12z" />
    <glyph glyph-name="Eacute" unicode="&#xc9;" horiz-adv-x="1191" 
d="M453 1421l511 2q68 0 119 9q4 -88 19 -244l8 -88q2 -10 2 -28t-18 -19q-23 0 -33 51q-39 184 -127 233q-66 37 -344 37h-168v-600h49q229 0 279.5 35t68.5 203q4 43 25 43t20.5 -37t-4.5 -108.5t-4 -199.5t5 -179t5 -66q0 -27 -22 -27q-14 0 -19.5 18t-19.5 126t-98 137
q-37 12 -193 12h-92v-688q451 0 528 18q135 31 154 263q4 51 26 51t21 -43l-8 -277v-67q-201 10 -534 10l-496 -2h-21q-39 0 -39 18q-1 12 9 14t72 6q62 5 73.5 23.5t11.5 96.5v1151q0 59 -17.5 70t-111.5 11q-33 0 -33 18.5t45 18.5zM593 1554q-15 0 -15 8t14 38
q14 32 57 137l66 141q31 2 81 2t87 -2l37 -2l-187 -193q-125 -129 -140 -129z" />
    <glyph glyph-name="Ecircumflex" unicode="&#xca;" horiz-adv-x="1191" 
d="M453 1421l511 2q68 0 119 9q4 -88 19 -244l8 -88q2 -10 2 -28t-18 -19q-23 0 -33 51q-39 184 -127 233q-66 37 -344 37h-168v-600h49q229 0 279.5 35t68.5 203q4 43 25 43t20.5 -37t-4.5 -108.5t-4 -199.5t5 -179t5 -66q0 -27 -22 -27q-14 0 -19.5 18t-19.5 126t-98 137
q-37 12 -193 12h-92v-688q451 0 528 18q135 31 154 263q4 51 26 51t21 -43l-8 -277v-67q-201 10 -534 10l-496 -2h-21q-39 0 -39 18q-1 12 9 14t72 6q62 5 73.5 23.5t11.5 96.5v1151q0 59 -17.5 70t-111.5 11q-33 0 -33 18.5t45 18.5zM413 1538q-42 0 -12 33q92 90 174 266
q33 72 51 72t76 -113q59 -113 172 -252h-135q-72 68 -149 225q-45 -92 -99.5 -161.5t-77.5 -69.5z" />
    <glyph glyph-name="Edieresis" unicode="&#xcb;" horiz-adv-x="1191" 
d="M453 1421l511 2q68 0 119 9q4 -88 19 -244l8 -88q2 -10 2 -28t-18 -19q-23 0 -33 51q-39 184 -127 233q-66 37 -344 37h-168v-600h49q229 0 279.5 35t68.5 203q4 43 25 43t20.5 -37t-4.5 -108.5t-4 -199.5t5 -179t5 -66q0 -27 -22 -27q-14 0 -19.5 18t-19.5 126t-98 137
q-37 12 -193 12h-92v-688q451 0 528 18q135 31 154 263q4 51 26 51t21 -43l-8 -277v-67q-201 10 -534 10l-496 -2h-21q-39 0 -39 18q-1 12 9 14t72 6q62 5 73.5 23.5t11.5 96.5v1151q0 59 -17.5 70t-111.5 11q-33 0 -33 18.5t45 18.5zM567 1666q0 -40 -29.5 -68.5
t-70.5 -28.5t-69.5 28.5t-28.5 70.5t28.5 70.5t69.5 28.5t70.5 -30.5t29.5 -70.5zM920 1664q0 -42 -28 -68.5t-70 -26.5t-70.5 27.5t-28.5 68.5t29.5 70.5t71.5 29.5t69 -29.5t27 -71.5z" />
    <glyph glyph-name="Igrave" unicode="&#xcc;" horiz-adv-x="643" 
d="M55 17q0 17 68 19t82 20t14 118v1077q0 100 -10 113q-12 20 -82 24t-70 19q0 16 25 16l276 -4q31 0 119 2l78 2q33 0 33 -17q0 -16 -70 -20t-82 -20t-12 -86v-1094q0 -117 10 -127q23 -23 133 -26q23 0 23 -16.5t-25 -16.5h-20q-12 6 -279 6l-184 -6q-27 0 -27 17z
M377 1565q0 -11 -15 -11t-141 129l-186 193l35 2l59 2h43q37 0 66 -2l84 -182q8 -16 22 -54l29 -65q4 -8 4 -12z" />
    <glyph glyph-name="Iacute" unicode="&#xcd;" horiz-adv-x="643" 
d="M55 17q0 17 68 19t82 20t14 118v1077q0 100 -10 113q-12 20 -82 24t-70 19q0 16 25 16l276 -4q31 0 119 2l78 2q33 0 33 -17q0 -16 -70 -20t-82 -20t-12 -86v-1094q0 -117 10 -127q23 -23 133 -26q23 0 23 -16.5t-25 -16.5h-20q-12 6 -279 6l-184 -6q-27 0 -27 17z
M268 1554q-16 0 -16 8t14 38l58 137l65 141q31 2 81 2t87 -2l37 -2l-186 -193q-124 -129 -140 -129z" />
    <glyph glyph-name="Icircumflex" unicode="&#xce;" horiz-adv-x="643" 
d="M55 17q0 17 68 19t82 20t14 118v1077q0 100 -10 113q-12 20 -82 24t-70 19q0 16 25 16l276 -4q31 0 119 2l78 2q33 0 33 -17q0 -16 -70 -20t-82 -20t-12 -86v-1094q0 -117 10 -127q23 -23 133 -26q23 0 23 -16.5t-25 -16.5h-20q-12 6 -279 6l-184 -6q-27 0 -27 17z
M114 1538q-42 0 -12 33q92 90 174 266q32 72 50 72t77 -113t172 -252h-135q-72 68 -149 225q-45 -92 -99.5 -161.5t-77.5 -69.5z" />
    <glyph glyph-name="Idieresis" unicode="&#xcf;" horiz-adv-x="643" 
d="M55 17q0 17 68 19t82 20t14 118v1077q0 100 -10 113q-12 20 -82 24t-70 19q0 16 25 16l276 -4q31 0 119 2l78 2q33 0 33 -17q0 -16 -70 -20t-82 -20t-12 -86v-1094q0 -117 10 -127q23 -23 133 -26q23 0 23 -16.5t-25 -16.5h-20q-12 6 -279 6l-184 -6q-27 0 -27 17z
M274 1666q0 -40 -29.5 -68.5t-70.5 -28.5t-69.5 28.5t-28.5 70.5t28.5 70.5t69.5 28.5t70.5 -30.5t29.5 -70.5zM565 1664q0 -42 -27.5 -68.5t-68.5 -26.5t-70.5 28.5t-29.5 68.5t29.5 69.5t70.5 29.5t68.5 -29.5t27.5 -71.5z" />
    <glyph glyph-name="Eth" unicode="&#xd0;" horiz-adv-x="1466" 
d="M1151 711q0 346 -133 504.5t-418 158.5q-135 0 -164 -28q-12 -14 -12 -99v-497h274q31 0 31 -25t-45 -25h-260v-542q0 -57 7 -86t225 -29t356 161t139 507zM69 0q-28 0 -28 19q1 19 75 19t95 32q8 14 8 77v553h-143q-35 0 -35 25t47 25h131v501q0 100 -15.5 116.5
t-105.5 16.5q-47 0 -47 23q0 16 35 16l45 -2q47 -2 92 -2h219q367 0 538 -56t285.5 -238t114.5 -418q0 -358 -252 -560q-184 -147 -491 -147l-262 4h-103l-161 -2q-14 -2 -42 -2z" />
    <glyph glyph-name="Ntilde" unicode="&#xd1;" horiz-adv-x="1343" 
d="M186 1415q63 0 189 4l706 -1050v911q0 63 -2 76.5t-16 20.5t-93 7t-79 20t49 19l166 -2l100 2h64q45 0 45 -20.5t-51 -18.5l-45 2h-37q-33 0 -39 -11t-6 -68v-1180q0 -109 -1.5 -127t-13.5 -18t-28 22l-263 383q-227 334 -552 834l2 -1143q2 -27 30.5 -34t137.5 -9
q27 0 26 -17q0 -20 -53 -20l-180 8l-36 -4q-38 -4 -116 -4h-20q-47 0 -47 18.5t40 18.5q121 2 140.5 15t19.5 87v1010q0 170 -69 213q-34 20 -102 20t-68 20t30 19zM963 1755q0 -49 -42 -116.5t-122 -67.5q-49 1 -181 69t-155 68q-41 0 -41 -43q0 -23 20 -44t21 -28
q0 -16 -20.5 -16t-41 26.5t-20.5 67.5t43.5 81t109.5 40t187 -63.5t147 -63.5t47 72q10 35 29 34.5t19 -16.5z" />
    <glyph glyph-name="Ograve" unicode="&#xd2;" horiz-adv-x="1474" 
d="M1159 692q0 375 -153 584q-96 131 -264 131t-259 -100q-166 -184 -166 -600q0 -330 116 -512.5t318 -182.5t300 172q108 191 108 508zM1389 707q0 -310 -183.5 -521t-457.5 -211t-467 214.5t-193 530.5t186 520t466 204t464.5 -213.5t184.5 -523.5zM795 1565
q1 -11 -15 -11t-141 129l-186 193l34 2l60 2h43q37 0 65 -2l84 -182q8 -16 23 -54l29 -65q4 -8 4 -12z" />
    <glyph glyph-name="Oacute" unicode="&#xd3;" horiz-adv-x="1474" 
d="M1159 692q0 375 -153 584q-96 131 -264 131t-259 -100q-166 -184 -166 -600q0 -330 116 -512.5t318 -182.5t300 172q108 191 108 508zM1389 707q0 -310 -183.5 -521t-457.5 -211t-467 214.5t-193 530.5t186 520t466 204t464.5 -213.5t184.5 -523.5zM683 1554q-15 0 -15 8
t14 38q14 32 57 137l66 141q31 2 81 2t87 -2l37 -2l-187 -193q-125 -129 -140 -129z" />
    <glyph glyph-name="Ocircumflex" unicode="&#xd4;" horiz-adv-x="1474" 
d="M1159 692q0 375 -153 584q-96 131 -264 131t-259 -100q-166 -184 -166 -600q0 -330 116 -512.5t318 -182.5t300 172q108 191 108 508zM1389 707q0 -310 -183.5 -521t-457.5 -211t-467 214.5t-193 530.5t186 520t466 204t464.5 -213.5t184.5 -523.5zM530 1538
q-24 0 -24 14q0 6 12 19q92 90 174 266q33 72 50 72t57 -74q79 -152 192 -291h-135q-72 68 -149 225q-45 -92 -99 -161.5t-78 -69.5z" />
    <glyph glyph-name="Otilde" unicode="&#xd5;" horiz-adv-x="1474" 
d="M1159 692q0 375 -153 584q-96 131 -264 131t-259 -100q-166 -184 -166 -600q0 -330 116 -512.5t318 -182.5t300 172q108 191 108 508zM1389 707q0 -310 -183.5 -521t-457.5 -211t-467 214.5t-193 530.5t186 520t466 204t464.5 -213.5t184.5 -523.5zM1030 1755
q0 -49 -42 -116.5t-122 -67.5q-49 1 -180 69t-156 68q-41 0 -41 -43q1 -23 21 -44t20 -28q0 -16 -20.5 -16t-40.5 26.5t-20 67.5t43.5 81t109.5 40t186.5 -63.5t147.5 -63.5t47 72q10 35 28.5 34.5t18.5 -16.5z" />
    <glyph glyph-name="Odieresis" unicode="&#xd6;" horiz-adv-x="1474" 
d="M1159 692q0 375 -153 584q-96 131 -264 131t-259 -100q-166 -184 -166 -600q0 -330 116 -512.5t318 -182.5t300 172q108 191 108 508zM1389 707q0 -310 -183.5 -521t-457.5 -211t-467 214.5t-193 530.5t186 520t466 204t464.5 -213.5t184.5 -523.5zM657 1666
q0 -40 -29.5 -68.5t-70.5 -28.5t-69.5 28.5t-28.5 70.5t28.5 70.5t69.5 28.5t70.5 -30.5t29.5 -70.5zM1010 1664q0 -42 -28 -68.5t-70 -26.5t-70.5 27.5t-28.5 68.5t29.5 70.5t71.5 29.5t69 -29.5t27 -71.5z" />
    <glyph glyph-name="multiply" unicode="&#xd7;" horiz-adv-x="1091" 
d="M821 360l-274 275l-268 -268l-54 51l271 270l-277 275l53 51l275 -275l268 269l51 -54l-266 -266l272 -274z" />
    <glyph glyph-name="Oslash" unicode="&#xd8;" horiz-adv-x="1474" 
d="M1159 713q0 254 -96 479l-621 -1024q127 -156 314 -156q250 0 350 293q53 154 53 408zM740 1407q-190 0 -289 -145q-133 -192 -133 -518t90 -521l622 1026q-100 158 -290 158zM1389 700q0 -305 -183.5 -515t-449.5 -210q-193 0 -361 115l-114 -190q-10 -18 -37 -18
t-27 22q0 4 16 30l115 191q-260 215 -260 596q0 311 185.5 517t467.5 206q186 0 344 -105l115 191q8 14 34 14t26 -22q0 -6 -13 -27l-117 -192q259 -234 259 -603z" />
    <glyph glyph-name="Ugrave" unicode="&#xd9;" horiz-adv-x="1363" 
d="M1178 1421l90 2h30q48 0 48 -19t-37 -20l-70 5q-51 0 -61 -27q-4 -14 -4 -47v-768q0 -299 -112 -435.5t-360 -136.5q-297 0 -417 168q-80 113 -80 371l-2 821q-6 37 -49 45q-12 2 -76 2q-35 4 -35 22t29 17h37l106 -2l293 2q10 2 34 2t25 -22q0 -14 -11.5 -16.5
t-61.5 -3.5t-65 -7t-17 -20t-2 -123v-733q0 -270 86 -368.5t256 -98.5q311 0 352 354q6 53 6 451v116l2 164l-2 141v46l2 22q0 45 -43 55q-13 4 -69 4t-56 23q0 18 29 18zM813 1565q0 -11 -15 -11t-141 129l-186 193l35 2l59 2h43q37 0 66 -2l84 -182q8 -16 22 -54l17 -36
l12 -29q4 -8 4 -12z" />
    <glyph glyph-name="Uacute" unicode="&#xda;" horiz-adv-x="1363" 
d="M1178 1421l90 2h30q48 0 48 -19t-37 -20l-70 5q-51 0 -61 -27q-4 -14 -4 -47v-768q0 -299 -112 -435.5t-360 -136.5q-297 0 -417 168q-80 113 -80 371l-2 821q-6 37 -49 45q-12 2 -76 2q-35 4 -35 22t29 17h37l106 -2l293 2q10 2 34 2t25 -22q0 -14 -11.5 -16.5
t-61.5 -3.5t-65 -7t-17 -20t-2 -123v-733q0 -270 86 -368.5t256 -98.5q311 0 352 354q6 53 6 451v116l2 164l-2 141v46l2 22q0 45 -43 55q-13 4 -69 4t-56 23q0 18 29 18zM691 1554q-15 0 -15 8t14 38l58 137l65 141q31 2 81 2t87 -2l37 -2l-187 -193q-125 -129 -140 -129z
" />
    <glyph glyph-name="Ucircumflex" unicode="&#xdb;" horiz-adv-x="1363" 
d="M1178 1421l90 2h30q48 0 48 -19t-37 -20l-70 5q-51 0 -61 -27q-4 -14 -4 -47v-768q0 -299 -112 -435.5t-360 -136.5q-297 0 -417 168q-80 113 -80 371l-2 821q-6 37 -49 45q-12 2 -76 2q-35 4 -35 22t29 17h37l106 -2l293 2q10 2 34 2t25 -22q0 -14 -11.5 -16.5
t-61.5 -3.5t-65 -7t-17 -20t-2 -123v-733q0 -270 86 -368.5t256 -98.5q311 0 352 354q6 53 6 451v116l2 164l-2 141v46l2 22q0 45 -43 55q-13 4 -69 4t-56 23q0 18 29 18zM512 1538q-44 0 -12 33q92 90 174 266q33 72 50 72q16 0 76 -113t173 -252h-135q-72 68 -150 225
q-45 -92 -98.5 -161.5t-77.5 -69.5z" />
    <glyph glyph-name="Udieresis" unicode="&#xdc;" horiz-adv-x="1363" 
d="M1178 1421l90 2h30q48 0 48 -19t-37 -20l-70 5q-51 0 -61 -27q-4 -14 -4 -47v-768q0 -299 -112 -435.5t-360 -136.5q-297 0 -417 168q-80 113 -80 371l-2 821q-6 37 -49 45q-12 2 -76 2q-35 4 -35 22t29 17h37l106 -2l293 2q10 2 34 2t25 -22q0 -14 -11.5 -16.5
t-61.5 -3.5t-65 -7t-17 -20t-2 -123v-733q0 -270 86 -368.5t256 -98.5q311 0 352 354q6 53 6 451v116l2 164l-2 141v46l2 22q0 45 -43 55q-13 4 -69 4t-56 23q0 18 29 18zM641 1666q0 -40 -29.5 -68.5t-70.5 -28.5t-70 28.5t-29 70.5t29 70.5t70 28.5t70.5 -30.5t29.5 -70.5
zM993 1664q0 -42 -27.5 -68.5t-69.5 -26.5t-70.5 27.5t-28.5 68.5t29.5 70.5t71.5 29.5t68.5 -29.5t26.5 -71.5z" />
    <glyph glyph-name="Yacute" unicode="&#xdd;" horiz-adv-x="1243" 
d="M556 1425q28 0 28 -19t-70 -20q-127 0 -127 -45q0 -35 129 -280l186 -354q51 92 117 227l121 244q68 131 68 165t-35 37q-73 10 -107 8t-35 21q0 16 39 16l119 -2l68 2q209 7 209 -20q0 -16 -35 -16q-113 -2 -139 -39q-25 -22 -135 -258t-160 -330t-56 -121t-6 -119v-387
q0 -68 17.5 -80t97.5 -17t80 -21.5t-29 -16.5h-24l-287 6l-228 -6q-29 0 -28.5 18.5t47.5 20.5q113 4 133.5 20.5t20.5 98.5v432q-20 45 -119 239l-205 406q-31 59 -74 133q-23 20 -97.5 20.5t-74.5 22.5q0 16 33 16l278 -6l238 2q14 2 42 2zM618 1554q-16 0 -16 8t14 38
l58 137l65 141q31 2 81 2t87 -2l37 -2l-186 -193q-124 -129 -140 -129z" />
    <glyph glyph-name="Thorn" unicode="&#xde;" horiz-adv-x="1083" 
d="M831 766q0 295 -282 295q-86 0 -113 -29q-12 -12 -12 -59v-524q219 2 313 74.5t94 242.5zM530 1423h23q35 0 35 -17q0 -16 -70 -20t-82 -20t-12 -86v-180q168 0 260 -6q160 -10 261.5 -100.5t101.5 -221.5q0 -88 -49.5 -170t-129.5 -129q-119 -70 -284 -70q-72 0 -160 15
v-299q0 -55 21.5 -68.5t121.5 -17.5q23 0 23 -16.5t-25 -16.5h-20l-135 4q-74 2 -80 2l-226 -6h-10q-39 0 -39 17t64 19t82 17t18 66v1181q0 59 -15.5 71.5t-81.5 16.5t-65 19q0 16 25 16h18l258 -4l55 2q60 2 117 2z" />
    <glyph glyph-name="germandbls" unicode="&#xdf;" horiz-adv-x="1013" 
d="M950 422q0 -225 -143 -354q-102 -92 -229 -93q-86 0 -141.5 45.5t-55.5 103.5t28.5 88t70.5 30t68.5 -23.5t26.5 -58.5q0 -53 -65 -82q-33 -14 -33 -30t26.5 -29t59.5 -13q96 0 148.5 107.5t52.5 300.5q0 416 -283 415h-39q-29 0 -28 19q0 16 47 16q258 2 258 320
q0 231 -176 231q-145 0 -197 -145q-33 -94 -33 -340v-930l-241 -4q-74 0 -74 15t52 15t65 7q29 12 28 69v703q0 330 58 448q94 195 329 195q152 0 254.5 -83t102.5 -204t-84 -205t-221 -100v-10q102 -6 198 -64q170 -102 170 -360z" />
    <glyph glyph-name="agrave" unicode="&#xe0;" horiz-adv-x="813" 
d="M518 309v150q-154 -35 -220.5 -91.5t-66.5 -136.5t38 -121.5t96 -41.5q88 0 141 98q12 22 12 143zM879 92q0 -35 -73 -72.5t-140 -37.5q-141 0 -148 145q-78 -152 -242 -152q-88 0 -145 52.5t-57 134.5q0 168 202 266q70 33 242 66v51q0 180 -18 237q-33 104 -148 105
q-72 0 -120 -39t-48 -98q0 -16 26 -16.5t46 -25t20 -55.5q0 -90 -90 -90q-47 0 -77.5 32t-30.5 81q0 96 80 169t229 73q225 0 277 -123q18 -47 18 -187v-383q0 -94 2 -110q10 -74 59 -74q57 0 86 32t39.5 31.5t10.5 -12.5zM442 1041q0 -7 -16 -7t-139 129l-187 195h35l60 2
h108l84 -182q0 -2 23 -54l28 -67q4 -9 4 -16z" />
    <glyph glyph-name="aacute" unicode="&#xe1;" horiz-adv-x="813" 
d="M518 309v150q-154 -35 -220.5 -91.5t-66.5 -136.5t38 -121.5t96 -41.5q88 0 141 98q12 22 12 143zM879 92q0 -35 -73 -72.5t-140 -37.5q-141 0 -148 145q-78 -152 -242 -152q-88 0 -145 52.5t-57 134.5q0 168 202 266q70 33 242 66v51q0 180 -18 237q-33 104 -148 105
q-72 0 -120 -39t-48 -98q0 -16 26 -16.5t46 -25t20 -55.5q0 -90 -90 -90q-47 0 -77.5 32t-30.5 81q0 96 80 169t229 73q225 0 277 -123q18 -47 18 -187v-383q0 -94 2 -110q10 -74 59 -74q57 0 86 32t39.5 31.5t10.5 -12.5zM467 1360l168 -2h37l-187 -195
q-123 -129 -139 -129t-16 7t14 39t57 137z" />
    <glyph glyph-name="acircumflex" unicode="&#xe2;" horiz-adv-x="813" 
d="M518 309v150q-154 -35 -220.5 -91.5t-66.5 -136.5t38 -121.5t96 -41.5q88 0 141 98q12 22 12 143zM879 92q0 -35 -73 -72.5t-140 -37.5q-141 0 -148 145q-78 -152 -242 -152q-88 0 -145 52.5t-57 134.5q0 168 202 266q70 33 242 66v51q0 180 -18 237q-33 104 -148 105
q-72 0 -120 -39t-48 -98q0 -16 26 -16.5t46 -25t20 -55.5q0 -90 -90 -90q-47 0 -77.5 32t-30.5 81q0 96 80 169t229 73q225 0 277 -123q18 -47 18 -187v-383q0 -94 2 -110q10 -74 59 -74q57 0 86 32t39.5 31.5t10.5 -12.5zM174 1020q-24 0 -24 11t12 20q94 94 174 266
q33 72 50 72t56 -74q80 -154 195 -291h-135q-76 72 -150 227q-43 -88 -98.5 -159.5t-79.5 -71.5z" />
    <glyph glyph-name="atilde" unicode="&#xe3;" horiz-adv-x="813" 
d="M518 309v150q-154 -35 -220.5 -91.5t-66.5 -136.5t38 -121.5t96 -41.5q88 0 141 98q12 22 12 143zM879 92q0 -35 -73 -72.5t-140 -37.5q-141 0 -148 145q-78 -152 -242 -152q-88 0 -145 52.5t-57 134.5q0 168 202 266q70 33 242 66v51q0 180 -18 237q-33 104 -148 105
q-72 0 -120 -39t-48 -98q0 -16 26 -16.5t46 -25t20 -55.5q0 -90 -90 -90q-47 0 -77.5 32t-30.5 81q0 96 80 169t229 73q225 0 277 -123q18 -47 18 -187v-383q0 -94 2 -110q10 -74 59 -74q57 0 86 32t39.5 31.5t10.5 -12.5zM698 1235q0 -51 -42 -116.5t-109 -65.5
t-195.5 67.5t-147.5 67.5t-32.5 -15t-13.5 -33t30 -50q10 -6 11 -17q0 -14 -20.5 -14t-41 25.5t-20.5 66.5t43.5 81t107.5 40t187 -62.5t149 -62.5q26 1 42 53q15 52 33.5 51.5t18.5 -16.5z" />
    <glyph glyph-name="adieresis" unicode="&#xe4;" horiz-adv-x="813" 
d="M518 309v150q-154 -35 -220.5 -91.5t-66.5 -136.5t38 -121.5t96 -41.5q88 0 141 98q12 22 12 143zM879 92q0 -35 -73 -72.5t-140 -37.5q-141 0 -148 145q-78 -152 -242 -152q-88 0 -145 52.5t-57 134.5q0 168 202 266q70 33 242 66v51q0 180 -18 237q-33 104 -148 105
q-72 0 -120 -39t-48 -98q0 -16 26 -16.5t46 -25t20 -55.5q0 -90 -90 -90q-47 0 -77.5 32t-30.5 81q0 96 80 169t229 73q225 0 277 -123q18 -47 18 -187v-383q0 -94 2 -110q10 -74 59 -74q57 0 86 32t39.5 31.5t10.5 -12.5zM315 1146q0 -40 -29.5 -68.5t-70.5 -28.5
t-69.5 28.5t-28.5 70.5t28.5 70.5t69.5 28.5t70.5 -30.5t29.5 -70.5zM668 1146q0 -42 -28 -68.5t-70 -26.5t-70.5 27.5t-28.5 68.5t29.5 70.5t71.5 29.5t69 -29.5t27 -71.5z" />
    <glyph glyph-name="aring" unicode="&#xe5;" horiz-adv-x="813" 
d="M518 309v150q-154 -35 -220.5 -91.5t-66.5 -136.5t38 -121.5t96 -41.5q88 0 141 98q12 22 12 143zM518 1222q0 52 -31.5 84.5t-78.5 32.5t-78 -34.5t-31 -84.5t31.5 -84t79 -34t78 34t30.5 86zM879 92q0 -35 -73 -72.5t-140 -37.5q-141 0 -148 145q-78 -152 -242 -152
q-88 0 -145 52.5t-57 134.5q0 168 202 266q70 33 242 66v51q0 180 -18 237q-33 104 -148 105q-72 0 -120 -39t-48 -98q0 -16 26 -16.5t46 -25t20 -55.5q0 -90 -90 -90q-47 0 -77.5 32t-30.5 81q0 96 80 169t229 73q225 0 277 -123q18 -47 18 -187v-383q0 -94 2 -110
q10 -74 59 -74q57 0 86 32t39.5 31.5t10.5 -12.5zM588 1220q0 -75 -52.5 -125.5t-128.5 -50.5t-128 51.5t-52 125.5t52.5 125t128 51t128 -51t52.5 -126z" />
    <glyph glyph-name="ae" unicode="&#xe6;" horiz-adv-x="1347" 
d="M242 219q0 -72 43 -114t116 -42q135 0 152 218q2 26 2 221q-313 -74 -313 -283zM936 889q-190 0 -215 -320q290 39 407 78q-45 242 -192 242zM1296 220q0 -17 -29.5 -66.5t-60.5 -81.5q-94 -96 -250 -97q-254 0 -370 213q-96 -213 -277 -213q-102 0 -162.5 55.5
t-60.5 147.5q0 166 203 273q84 43 266 86q0 182 -20 243q-35 106 -144 107q-72 0 -122 -37t-50 -88q1 -20 27 -20t46.5 -26t20.5 -54q0 -88 -90 -89q-47 0 -77.5 30t-30.5 77q0 90 77.5 164t231.5 74q92 0 150.5 -26t119.5 -91q98 117 250 117q268 0 344 -265
q-98 -41 -279 -71t-290 -52q-2 -27 -2 -73q0 -236 112 -342q74 -70 183 -70q164 0 245 176q8 16 23 17q16 -1 16 -18z" />
    <glyph glyph-name="ccedilla" unicode="&#xe7;" horiz-adv-x="837" 
d="M809 707q0 -94 -92 -95q-90 0 -90 86q0 22 13 52t13 45q0 41 -42 67.5t-105 26.5q-123 0 -190.5 -106.5t-67.5 -311.5t69.5 -322.5t196.5 -117.5q86 0 154 53q31 25 80 94q10 10 18 10q20 0 20 -20t-71 -96q-90 -96 -234 -97q-25 0 -45 2v-40q82 0 136.5 -44.5
t54.5 -112.5t-56.5 -116.5t-120.5 -48.5t-116.5 25.5t-52.5 48.5q0 12 14 12q8 1 35 -19q28 -20 66 -20t70 44t32 104q0 100 -76 100q-18 0 -29 -2v76q-152 35 -241 156.5t-89 309.5t124 328t311 140q125 0 218 -63.5t93 -147.5z" />
    <glyph glyph-name="egrave" unicode="&#xe8;" horiz-adv-x="880" 
d="M474 887q-167 0 -208 -246h383q-8 246 -175 246zM827 220q0 -17 -31.5 -69.5t-64.5 -84.5q-88 -90 -235 -91q-184 0 -308.5 133.5t-124.5 333.5t118 338t294 138q145 0 243.5 -85t104.5 -219q-66 -10 -174 -8l-143 2q-14 0 -246 -6q-10 -68 -10 -129q0 -207 79 -318.5
t222 -111.5q82 0 131 37t106 141q8 16 23 17q16 -1 16 -18zM551 1041q0 -7 -16 -7t-140 129l-186 195h35l59 2h109l84 -182q0 -2 22 -54l29 -67q4 -9 4 -16z" />
    <glyph glyph-name="eacute" unicode="&#xe9;" horiz-adv-x="880" 
d="M474 887q-167 0 -208 -246h383q-8 246 -175 246zM827 220q0 -17 -31.5 -69.5t-64.5 -84.5q-88 -90 -235 -91q-184 0 -308.5 133.5t-124.5 333.5t118 338t294 138q145 0 243.5 -85t104.5 -219q-66 -10 -174 -8l-143 2q-14 0 -246 -6q-10 -68 -10 -129q0 -207 79 -318.5
t222 -111.5q82 0 131 37t106 141q8 16 23 17q16 -1 16 -18zM539 1360l168 -2h36l-186 -195q-123 -129 -143 -129t-3 39q18 39 62 144z" />
    <glyph glyph-name="ecircumflex" unicode="&#xea;" horiz-adv-x="880" 
d="M474 887q-167 0 -208 -246h383q-8 246 -175 246zM827 220q0 -17 -31.5 -69.5t-64.5 -84.5q-88 -90 -235 -91q-184 0 -308.5 133.5t-124.5 333.5t118 338t294 138q145 0 243.5 -85t104.5 -219q-66 -10 -174 -8l-143 2q-14 0 -246 -6q-10 -68 -10 -129q0 -207 79 -318.5
t222 -111.5q82 0 131 37t106 141q8 16 23 17q16 -1 16 -18zM270 1020q-24 0 -24 11t12 20q94 94 174 266q33 72 50 72t57 -74q79 -154 194 -291h-135q-76 72 -149 227q-43 -88 -99 -159.5t-80 -71.5z" />
    <glyph glyph-name="edieresis" unicode="&#xeb;" horiz-adv-x="880" 
d="M474 887q-167 0 -208 -246h383q-8 246 -175 246zM827 220q0 -17 -31.5 -69.5t-64.5 -84.5q-88 -90 -235 -91q-184 0 -308.5 133.5t-124.5 333.5t118 338t294 138q145 0 243.5 -85t104.5 -219q-66 -10 -174 -8l-143 2q-14 0 -246 -6q-10 -68 -10 -129q0 -207 79 -318.5
t222 -111.5q82 0 131 37t106 141q8 16 23 17q16 -1 16 -18zM406 1146q0 -40 -30 -68.5t-71 -28.5t-69.5 28.5t-28.5 70.5t28.5 70.5t69.5 28.5t71 -30.5t30 -70.5zM758 1146q0 -42 -28 -68.5t-70 -26.5t-70.5 27.5t-28.5 68.5t30 70.5t72 29.5t68.5 -29.5t26.5 -71.5z" />
    <glyph glyph-name="igrave" unicode="&#xec;" horiz-adv-x="514" 
d="M494 11q0 -17 -35 -17l-49 4q-61 4 -103 4l-213 -4q-10 -2 -28 -2t-19 14q-1 20 59 22t67 10.5t7 84.5l-2 621q-2 51 -5 60t-26 9l-59 -2q-8 -2 -26 -2t-17 15q0 15 35 18q137 6 235 65l21 13q16 -31 16 -113v-20q-2 -25 -2 -80v-559q0 -82 3 -96.5t28 -20.5q25 -7 69 -7
t44 -17zM330 1044q0 -10 -16 -10t-140 129l-186 195h35l59 2h108l84 -182q0 -2 23 -54l29 -67q4 -9 4 -13z" />
    <glyph glyph-name="iacute" unicode="&#xed;" horiz-adv-x="514" 
d="M496 11q0 -17 -35 -17l-49 4q-61 4 -103 4l-213 -4q-10 -2 -28 -2t-19 14q-1 20 59 22t67 10.5t7 84.5l-2 621q-2 51 -5 60t-25 9l-60 -2q-8 -2 -26 -2t-17 15q0 15 35 18q137 6 235 65l21 13q16 -31 16 -113v-20q-2 -25 -2 -80v-559q0 -82 3 -96.5t28 -20.5q25 -7 69 -7
t44 -17zM319 1360l168 -2h37l-186 -195q-123 -129 -143 -129t-9 23q23 55 68 160z" />
    <glyph glyph-name="icircumflex" unicode="&#xee;" horiz-adv-x="514" 
d="M496 11q0 -17 -35 -17l-49 4q-61 4 -103 4l-213 -4q-10 -2 -28 -2t-19 14q-1 20 59 22t67 10.5t7 84.5l-2 621q-2 51 -5 60t-25 9l-60 -2q-8 -2 -26 -2t-17 15q0 15 35 18q137 6 235 65l21 13q16 -31 16 -113v-20q-2 -25 -2 -80v-559q0 -82 3 -96.5t28 -20.5q25 -7 69 -7
t44 -17zM30 1020q-24 0 -24 11t12 20q94 94 175 266q33 72 50 72t56 -74q80 -154 195 -291h-136q-76 72 -149 227q-43 -88 -99.5 -159.5t-79.5 -71.5z" />
    <glyph glyph-name="idieresis" unicode="&#xef;" horiz-adv-x="514" 
d="M494 11q0 -17 -35 -17l-49 4q-61 4 -103 4l-213 -4q-10 -2 -28 -2t-19 14q-1 20 59 22t67 10.5t7 84.5l-2 621q-2 51 -5 60t-26 9l-59 -2q-8 -2 -26 -2t-17 15q0 15 35 18q137 6 235 65l21 13q16 -31 16 -113v-20q-2 -25 -2 -80v-559q0 -82 3 -96.5t28 -20.5q25 -7 69 -7
t44 -17zM215 1146q0 -40 -29.5 -68.5t-70.5 -28.5t-70 28.5t-29 70.5t29 70.5t70 28.5t70.5 -30.5t29.5 -70.5zM494 1146q0 -42 -28 -68.5t-70 -26.5t-70.5 27.5t-28.5 68.5t29.5 70.5t70.5 29.5t69 -29.5t28 -71.5z" />
    <glyph glyph-name="eth" unicode="&#xf0;" horiz-adv-x="983" 
d="M733 444q0 414 -244 414q-113 0 -176 -117.5t-63 -317.5t63 -308.5t177 -108.5t178.5 115.5t64.5 322.5zM920 508q0 -246 -144 -404q-117 -129 -289 -129t-286 111q-137 133 -137.5 334t121.5 335t307 134q113 0 182 -72q-61 199 -164 332q-4 -2 -28.5 -13.5t-57.5 -27.5
l-94 -47q-27 -14 -75 -40t-62 -26q-23 0 -23 21q0 14 51 39l176 86q53 27 88 41q-39 53 -122 130t-125 99t-41 27q0 10 18 10q51 0 155 -56t214 -157l71 35q113 55 132 55t20 -18q0 -14 -37 -31q-36 -17 -74 -35t-80 -37q304 -305 304 -696z" />
    <glyph glyph-name="ntilde" unicode="&#xf1;" horiz-adv-x="1001" 
d="M82 -4q-31 0 -31 14.5t32 16.5q31 2 59 2t34 14l6 31v446q0 233 -4 258t-51 25q-14 0 -49 -4h-10q-41 0 -41 16t52 17t123.5 21.5t95.5 42.5t34 22q14 0 14 -39v-99q106 138 264 138t224 -109q37 -61 36 -234v-466q0 -66 10 -75t36 -9t42 2h15q20 -1 20 -16t-30 -15h-25
q-37 4 -169 4t-169 -4h-14q-27 0 -27 12t11.5 14.5t64.5 4.5t59 11t6 66v394q0 223 -16 266q-35 92 -138 92t-173 -90q-20 -27 -21 -74l2 -639q0 -25 43 -26l62 -2q20 0 20 -14.5t-24 -14.5h-33q-45 4 -143 4l-185 -4h-12zM793 1235q0 -51 -41.5 -116.5t-109.5 -65.5
t-196.5 67.5t-147.5 67.5t-32.5 -15t-13.5 -33t31 -50q10 -6 10 -18t-20.5 -12.5t-41 25t-20.5 66.5t43.5 81t107.5 40t187 -62.5t149 -62.5q26 1 42 53q15 52 34 51.5t19 -16.5z" />
    <glyph glyph-name="ograve" unicode="&#xf2;" horiz-adv-x="983" 
d="M735 440q0 229 -69 355q-51 92 -169 92t-182.5 -118t-64.5 -326t68.5 -323.5t191.5 -115.5q94 0 139 72q86 135 86 364zM922 444q0 -201 -121 -335t-304 -134t-308.5 134.5t-125.5 336.5t122 337t305 135t307.5 -136.5t124.5 -337.5zM565 1041q0 -7 -16 -7t-139 129
l-187 195h35l59 2h109l84 -182q0 -2 22 -54l29 -67q4 -9 4 -16z" />
    <glyph glyph-name="oacute" unicode="&#xf3;" horiz-adv-x="983" 
d="M735 440q0 229 -69 355q-51 92 -169 92t-182.5 -118t-64.5 -326t68.5 -323.5t191.5 -115.5q94 0 139 72q86 135 86 364zM922 444q0 -201 -121 -335t-304 -134t-308.5 134.5t-125.5 336.5t122 337t305 135t307.5 -136.5t124.5 -337.5zM553 1360l168 -2h37l-187 -195
q-123 -129 -139 -129t-16 7t14 39t57 137z" />
    <glyph glyph-name="ocircumflex" unicode="&#xf4;" horiz-adv-x="983" 
d="M735 440q0 229 -69 355q-51 92 -169 92t-182.5 -118t-64.5 -326t68.5 -323.5t191.5 -115.5q94 0 139 72q86 135 86 364zM922 444q0 -201 -121 -335t-304 -134t-308.5 134.5t-125.5 336.5t122 337t305 135t307.5 -136.5t124.5 -337.5zM284 1020q-24 0 -24 11t12 20
q94 94 174 266q32 72 50 72t57 -74q80 -154 195 -291h-136q-76 72 -149 227q-43 -88 -99.5 -159.5t-79.5 -71.5z" />
    <glyph glyph-name="otilde" unicode="&#xf5;" horiz-adv-x="983" 
d="M735 440q0 229 -69 355q-51 92 -169 92t-182.5 -118t-64.5 -326t68.5 -323.5t191.5 -115.5q94 0 139 72q86 135 86 364zM922 444q0 -201 -121 -335t-304 -134t-308.5 134.5t-125.5 336.5t122 337t305 135t307.5 -136.5t124.5 -337.5zM782 1235q0 -51 -42 -116.5
t-110 -65.5t-195.5 67.5t-146.5 67.5t-32.5 -15t-13.5 -33t30 -50q10 -6 11 -17q0 -14 -20.5 -14t-41 25.5t-20.5 66.5t43.5 81t107.5 40t187 -62.5t149 -62.5q26 1 42 53q15 52 33.5 51.5t18.5 -16.5z" />
    <glyph glyph-name="odieresis" unicode="&#xf6;" horiz-adv-x="983" 
d="M735 440q0 229 -69 355q-51 92 -169 92t-182.5 -118t-64.5 -326t68.5 -323.5t191.5 -115.5q94 0 139 72q86 135 86 364zM922 444q0 -201 -121 -335t-304 -134t-308.5 134.5t-125.5 336.5t122 337t305 135t307.5 -136.5t124.5 -337.5zM412 1146q0 -40 -30 -68.5t-71 -28.5
t-69.5 28.5t-28.5 70.5t28.5 70.5t69.5 28.5t71 -30.5t30 -70.5zM764 1146q0 -42 -27.5 -68.5t-69.5 -26.5t-71 27.5t-29 68.5t30 70.5t72 29.5t68.5 -29.5t26.5 -71.5z" />
    <glyph glyph-name="divide" unicode="&#xf7;" horiz-adv-x="1091" 
d="M643 439q0 -42 -28.5 -70.5t-70.5 -28.5t-71 28.5t-29 70.5t30 71t71 29t69.5 -29t28.5 -71zM971 651h-850v74h850v-74zM643 939q0 -42 -28.5 -70.5t-70.5 -28.5t-71 28.5t-29 70.5t29 70.5t71 28.5t70.5 -28.5t28.5 -70.5z" />
    <glyph glyph-name="oslash" unicode="&#xf8;" horiz-adv-x="983" 
d="M509 4q116 0 171 125t55 302t-43 317l-381 -629q82 -115 198 -115zM490 887q-110 0 -175 -117t-65 -300t37 -298l379 627q-66 88 -176 88zM922 444q0 -201 -121 -335t-301 -134q-125 0 -234 68l-63 -104q-12 -21 -34 -21t-22 21q2 6 7 14l73 121q-164 139 -164 355
t122 352.5t300 136.5q117 0 217 -60l84 137q8 15 29 15t21 -21q0 -10 -15 -28l-78 -130q179 -147 179 -387z" />
    <glyph glyph-name="ugrave" unicode="&#xf9;" horiz-adv-x="1003" 
d="M326 322q0 -158 20 -209q34 -80 138 -80t155 90q37 66 37 209v317q0 70 -2 105l-4 67q-2 31 -14 36t-72 4t-60 20q0 12 43 12h19q16 -2 124 -2t136 2v-571q0 -147 6 -186.5t31.5 -45.5t115.5 -6q25 0 25 -14.5t-45 -16.5q-160 -10 -281 -69q-8 -4 -14 -4q-12 0 -12 16
l2 115q-94 -135 -255 -135t-226 87q-27 37 -32 68t-5 166v469q0 72 -8.5 84t-55.5 14l-26 -2q-55 -4 -56 17q0 14 35 14l148 -6q72 0 133 6v-571zM573 1041q0 -7 -16 -7t-139 129l-187 195h35l60 2h108l84 -182q0 -2 23 -54l28 -67q4 -9 4 -16z" />
    <glyph glyph-name="uacute" unicode="&#xfa;" horiz-adv-x="1003" 
d="M326 322q0 -158 20 -209q34 -80 138 -80t155 90q37 66 37 209v317q0 70 -2 105l-4 67q-2 31 -14 36t-72 4t-60 20q0 12 43 12h19q16 -2 124 -2t136 2v-571q0 -147 6 -186.5t31.5 -45.5t115.5 -6q25 0 25 -14.5t-45 -16.5q-160 -10 -281 -69q-8 -4 -14 -4q-12 0 -12 16
l2 115q-94 -135 -255 -135t-226 87q-27 37 -32 68t-5 166v469q0 72 -8.5 84t-55.5 14l-26 -2q-55 -4 -56 17q0 14 35 14l148 -6q72 0 133 6v-571zM563 1360l168 -2h37l-186 -195q-124 -129 -140 -129t-16 8t72 175z" />
    <glyph glyph-name="ucircumflex" unicode="&#xfb;" horiz-adv-x="1003" 
d="M326 322q0 -158 20 -209q34 -80 138 -80t155 90q37 66 37 209v317q0 70 -2 105l-4 67q-2 31 -14 36t-72 4t-60 20q0 12 43 12h19q16 -2 124 -2t136 2v-571q0 -147 6 -186.5t31.5 -45.5t115.5 -6q25 0 25 -14.5t-45 -16.5q-160 -10 -281 -69q-8 -4 -14 -4q-12 0 -12 16
l2 115q-94 -135 -255 -135t-226 87q-27 37 -32 68t-5 166v469q0 72 -8.5 84t-55.5 14l-26 -2q-55 -4 -56 17q0 14 35 14l148 -6q72 0 133 6v-571zM292 1020q-24 0 -24 11t13 20q94 94 174 266q33 72 50 72t56 -74q80 -154 195 -291h-135q-76 72 -150 227
q-43 -88 -99.5 -159.5t-79.5 -71.5z" />
    <glyph glyph-name="udieresis" unicode="&#xfc;" horiz-adv-x="1003" 
d="M326 322q0 -158 20 -209q34 -80 138 -80t155 90q37 66 37 209v317q0 70 -2 105l-4 67q-2 31 -14 36t-72 4t-60 20q0 12 43 12h19q16 -2 124 -2t136 2v-571q0 -147 6 -186.5t31.5 -45.5t115.5 -6q25 0 25 -14.5t-45 -16.5q-160 -10 -281 -69q-8 -4 -14 -4q-12 0 -12 16
l2 115q-94 -135 -255 -135t-226 87q-27 37 -32 68t-5 166v469q0 72 -8.5 84t-55.5 14l-26 -2q-55 -4 -56 17q0 14 35 14l148 -6q72 0 133 6v-571zM422 1146q0 -40 -30 -68.5t-70.5 -28.5t-69.5 28.5t-29 70.5t29 70.5t70 28.5t70.5 -30.5t29.5 -70.5zM774 1146
q0 -42 -27.5 -68.5t-69.5 -26.5t-70.5 27.5t-28.5 68.5t29.5 70.5t71.5 29.5t68.5 -29.5t26.5 -71.5z" />
    <glyph glyph-name="yacute" unicode="&#xfd;" horiz-adv-x="821" 
d="M868 879q0 -15 -49 -17t-62 -8t-24 -35l-14 -37l-17 -51q-241 -780 -354 -1087q-66 -174 -180 -174q-49 0 -81 28t-32 71t26 67q25 24 73 24t70 -40t34 -40q18 0 66 126t82 243q-152 397 -242 647t-100 256t-64 6t-55 21q0 16 26 16l142 -6h37q43 2 118 4l105 2
q23 0 23 -15q0 -16 -70 -18t-70 -20t76 -226l35 -102q15 -46 55 -150t65 -174q197 616 197 641t-15 29t-87 4q-20 0 -21 17q0 14 25 14l131 -6h57l76 4q18 0 18 -14zM371 1329l168 -2h36l-186 -194q-123 -129 -139 -129q-26 0 -12 22q23 55 67 160z" />
    <glyph glyph-name="thorn" unicode="&#xfe;" horiz-adv-x="1001" 
d="M756 453q0 201 -69 315.5t-183 114.5q-70 0 -125 -52.5t-55 -117.5l2 -21v-190q0 -266 8 -334t60 -113t120 -45q113 0 177.5 121t64.5 322zM938 456q0 -208 -114.5 -344.5t-288.5 -136.5q-137 0 -209 99l2 -518q2 -20 23.5 -25.5t115.5 -7.5q25 0 25 -19q0 -14 -33 -14
h-33q-20 2 -109 2l-51 -2h-207q-55 0 -55 16t25 17h61q59 0 64 26q2 12 2 189v1515q0 68 -4 74q-6 16 -33 16h-17l-57 -2q-29 0 -29 19q0 14 52 18q90 0 188 47q12 10 53 25q15 -53 15 -130t-2 -99v-402q84 100 210 101q168 0 275 -115q131 -141 131 -349z" />
    <glyph glyph-name="ydieresis" unicode="&#xff;" horiz-adv-x="821" 
d="M868 878.5q0 -14.5 -49 -16.5t-62.5 -8t-23.5 -35l-14 -37l-17 -51q-241 -780 -354 -1087q-66 -174 -180 -174q-49 0 -81 28.5t-32 70.5t25.5 66.5t73.5 24.5t70 -40t34 -40q18 0 66 126t82 243q-152 397 -242 647t-100 256t-64.5 6t-54.5 21q0 16 26 16l142 -6h37
q43 2 118 4l105 2q23 0 23 -15q0 -16 -70 -18t-70 -20t76 -226l35 -102q15 -46 55 -150t65 -174q197 616 197 641t-15.5 29t-86.5 4q-20 0 -21 17q0 14 25 14l131 -6h57l76 4q18 0 18 -14.5zM350 1146q0 -40 -29.5 -68.5t-70.5 -28.5t-69.5 28.5t-28.5 70.5t28.5 70.5
t69.5 28.5t70.5 -30.5t29.5 -70.5zM702 1146q0 -42 -27.5 -68.5t-69.5 -26.5t-70.5 27.5t-28.5 68.5t29.5 70.5t71.5 29.5t68.5 -29.5t26.5 -71.5z" />
    <glyph glyph-name="Amacron" unicode="&#x100;" horiz-adv-x="1232" 
d="M768 504q-33 92 -109 305l-98 281q-86 -225 -207 -586h414zM-49 18q1 18 65 20t93 20q29 17 45 67q264 754 430 1210q4 25 16 56l10 36q6 23 14 23t13 -12q27 -80 111 -306t376 -1026q16 -45 42 -57q26 -13 92 -15t67 -20t-25 -18t-43 2l-260 4l-260 -4q-15 -2 -43 -2
t-28 22t55 21q180 2 180 37q0 2 -4 16l-16 55l-11 29q-18 63 -90 281h-438q-123 -328 -123 -367t25 -45q6 -2 84 -6t78 -23q0 -20 -54 -20l-282 10l-90 -6q-29 0 -29 18zM879 1552h-486v101h486v-101z" />
    <glyph glyph-name="amacron" unicode="&#x101;" horiz-adv-x="813" 
d="M518 309v150q-154 -35 -220 -91t-67 -136q0 -80 38 -122t96 -42q88 0 141 98q12 22 12 143zM879 92q0 -35 -73 -73t-140 -37q-141 0 -148 145q-78 -152 -242 -152q-88 1 -145 53t-57 134q0 168 202 266q70 33 242 66v51q0 180 -18 237q-33 104 -148 105q-72 0 -120 -39
t-48 -98q0 -16 26 -16t46 -26q20 -24 20 -55q0 -90 -90 -90q-48 0 -78 32t-30 81q0 96 80 169t229 73q225 0 277 -123q18 -47 18 -187v-383q0 -94 2 -110q10 -74 59 -74q57 0 86 32q29 31 39 31t11 -12zM717 1026h-486v100h486v-100z" />
    <glyph glyph-name="Abreve" unicode="&#x102;" horiz-adv-x="1232" 
d="M768 504q-33 92 -109 305l-98 281q-86 -225 -207 -586h414zM-49 18q1 18 65 20t93 20q29 17 45 67q264 754 430 1210q4 25 16 56l10 36q6 23 14 23t13 -12q27 -80 111 -306t376 -1026q16 -45 42 -57q26 -13 92 -15t67 -20t-25 -18t-43 2l-260 4l-260 -4q-15 -2 -43 -2
t-28 22t55 21q180 2 180 37q0 2 -4 16l-16 55l-11 29q-18 63 -90 281h-438q-123 -328 -123 -367t25 -45q6 -2 84 -6t78 -23q0 -20 -54 -20l-282 10l-90 -6q-29 0 -29 18zM864 1786q0 -96 -68 -165t-164 -69q-98 0 -160 64t-62 164q0 25 18 24q8 0 12 -16q33 -131 197 -131
t194 121q6 27 21 26q12 0 12 -18z" />
    <glyph glyph-name="abreve" unicode="&#x103;" horiz-adv-x="813" 
d="M518 309v150q-154 -35 -220 -91t-67 -136q0 -80 38 -122t96 -42q88 0 141 98q12 22 12 143zM879 92q0 -35 -73 -73t-140 -37q-141 0 -148 145q-78 -152 -242 -152q-88 1 -145 53t-57 134q0 168 202 266q70 33 242 66v51q0 180 -18 237q-33 104 -148 105q-72 0 -120 -39
t-48 -98q0 -16 26 -16t46 -26q20 -24 20 -55q0 -90 -90 -90q-48 0 -78 32t-30 81q0 96 80 169t229 73q225 0 277 -123q18 -47 18 -187v-383q0 -94 2 -110q10 -74 59 -74q57 0 86 32q29 31 39 31t11 -12zM702 1260q0 -96 -68 -165t-164 -69q-98 0 -160 64t-62 163q0 25 18 25
q8 0 13 -16q33 -132 197 -132t194 121q6 27 19 27t13 -18z" />
    <glyph glyph-name="Aogonek" unicode="&#x104;" horiz-adv-x="1232" 
d="M768 504q-33 92 -109 305l-98 281q-86 -225 -207 -586h414zM-49 18q1 18 65 20t93 20q29 17 45 67q264 754 430 1210q4 25 16 56l10 36q6 23 14 23t13 -12q27 -80 111 -306t376 -1026q16 -45 42 -57q26 -13 92 -15t67 -20t-25 -18t-43 2l-260 4l-260 -4q-3 0 -6 -1
q-84 -91 -84 -165t33 -114q33 -42 79 -42q47 0 71 20t35 21q11 0 12 -10q0 -12 -52 -48t-125 -36t-128 48q-54 48 -54 118q0 113 167 209q-19 4 -19 18q0 23 55 23q180 2 180 37q0 2 -4 16l-16 55l-11 29q-18 63 -90 281h-438q-123 -328 -123 -367t25 -45q6 -2 84 -6t78 -23
q0 -20 -54 -20l-282 10l-90 -6q-29 0 -29 18z" />
    <glyph glyph-name="aogonek" unicode="&#x105;" horiz-adv-x="813" 
d="M518 309v150q-154 -35 -220 -91t-67 -136q0 -80 38 -122t96 -42q88 0 141 98q12 22 12 143zM879 92q0 -35 -73 -73q-109 -57 -202 -29q-78 -87 -78 -159q0 -71 33 -113t79 -42t70 20t36 21q11 0 12 -10q0 -12 -52 -48t-125 -36t-127 48t-55 118q0 116 178 215
q-53 35 -57 123q-78 -152 -242 -152q-88 1 -145 53t-57 134q0 168 202 266q70 33 242 66v51q0 180 -18 237q-33 104 -148 105q-72 0 -120 -39t-48 -98q0 -16 26 -16t46 -26q20 -24 20 -55q0 -90 -90 -90q-48 0 -78 32t-30 81q0 96 80 169t229 73q225 0 277 -123
q18 -47 18 -187v-383q0 -94 2 -110q10 -74 59 -74q57 0 86 32q29 31 39 31t11 -12z" />
    <glyph glyph-name="Cacute" unicode="&#x106;" horiz-adv-x="1337" 
d="M1241 12q0 -27 -16 -26q-16 0 -37 49t-49 69q-147 -129 -355 -129q-300 0 -498 210t-198 531q0 320 181 524t468 204q105 0 167 -18t131 -57q69 -40 89 -40t42 45t38 45t16 -12t-3 -31q-23 -98 -23 -368q0 -39 -6 -45t-17 -7q-20 0 -26 39q-27 164 -76 244
q-100 164 -315 164q-166 0 -262 -111q-174 -199 -174 -561t143 -551q125 -164 332 -164q106 0 194 52q160 95 211 370q8 49 27 49q20 1 20 -30l-4 -56q-8 -119 -8 -229l8 -141v-19zM631 1872l168 -2h37l-187 -195q-123 -129 -139 -129t-16 7t14 39t57 137z" />
    <glyph glyph-name="cacute" unicode="&#x107;" horiz-adv-x="837" 
d="M809 707q0 -94 -92 -95q-90 0 -90 86q0 22 13 52t13 45q0 41 -42 67t-105 27q-123 -1 -191 -107q-67 -106 -67 -311t70 -323t196 -117q86 0 154 53q31 25 80 94q10 10 18 10q20 0 20 -22t-71 -94q-92 -96 -236 -97q-180 0 -298 129t-118 333t125 342t314 139
q121 0 214 -64t93 -147zM401 1352l168 -2h37l-186 -195q-124 -129 -140 -129t-16 8t72 174z" />
    <glyph glyph-name="Ccircumflex" unicode="&#x108;" horiz-adv-x="1337" 
d="M1241 12q0 -27 -16 -26q-16 0 -37 49t-49 69q-147 -129 -355 -129q-300 0 -498 210t-198 531q0 320 181 524t468 204q105 0 167 -18t131 -57q69 -40 89 -40t42 45t38 45t16 -12t-3 -31q-23 -98 -23 -368q0 -39 -6 -45t-17 -7q-20 0 -26 39q-27 164 -76 244
q-100 164 -315 164q-166 0 -262 -111q-174 -199 -174 -561t143 -551q125 -164 332 -164q106 0 194 52q160 95 211 370q8 49 27 49q20 1 20 -30l-4 -56q-8 -119 -8 -229l8 -141v-19zM446 1546q-24 0 -24 15q0 8 12 16q94 94 174 266q33 72 50 72t57 -74q79 -154 194 -291
h-135q-76 72 -149 228q-43 -88 -99 -160t-80 -72z" />
    <glyph glyph-name="ccircumflex" unicode="&#x109;" horiz-adv-x="837" 
d="M809 707q0 -94 -92 -95q-90 0 -90 86q0 22 13 52t13 45q0 41 -42 67t-105 27q-123 -1 -191 -107q-67 -106 -67 -311t70 -323t196 -117q86 0 154 53q31 25 80 94q10 10 18 10q20 0 20 -22t-71 -94q-92 -96 -236 -97q-180 0 -298 129t-118 333t125 342t314 139
q121 0 214 -64t93 -147zM216 1020q-24 0 -23 11q0 11 12 20q94 94 174 266q33 72 50 72t56 -74q80 -154 195 -291h-135q-76 72 -150 227q-43 -87 -99 -159t-80 -72z" />
    <glyph glyph-name="Cdotaccent" unicode="&#x10a;" horiz-adv-x="1337" 
d="M1241 12q0 -27 -16 -26q-16 0 -37 49t-49 69q-147 -129 -355 -129q-300 0 -498 210t-198 531q0 320 181 524t468 204q105 0 167 -18t131 -57q69 -40 89 -40t42 45t38 45t16 -12t-3 -31q-23 -98 -23 -368q0 -39 -6 -45t-17 -7q-20 0 -26 39q-27 164 -76 244
q-100 164 -315 164q-166 0 -262 -111q-174 -199 -174 -561t143 -551q125 -164 332 -164q106 0 194 52q160 95 211 370q8 49 27 49q20 1 20 -30l-4 -56q-8 -119 -8 -229l8 -141v-19zM561 1649q0 43 32 73t75 31q44 1 72 -31t28 -75t-29 -72t-73 -29t-74 30q-31 30 -31 73z
" />
    <glyph glyph-name="cdotaccent" unicode="&#x10b;" horiz-adv-x="837" 
d="M809 707q0 -94 -92 -95q-90 0 -90 86q0 22 13 52t13 45q0 41 -42 67t-105 27q-123 -1 -191 -107q-67 -106 -67 -311t70 -323t196 -117q86 0 154 53q31 25 80 94q10 10 18 10q20 0 20 -22t-71 -94q-92 -96 -236 -97q-180 0 -298 129t-118 333t125 342t314 139
q121 0 214 -64t93 -147zM539 1126q0 -44 -29 -72t-73 -28t-75 30q-30 30 -30 72t32 74q32 31 74 31t72 -32q29 -32 29 -75z" />
    <glyph glyph-name="Ccaron" unicode="&#x10c;" horiz-adv-x="1337" 
d="M1241 12q0 -27 -16 -26q-16 0 -37 49t-49 69q-147 -129 -355 -129q-300 0 -498 210t-198 531q0 320 181 524t468 204q105 0 167 -18t131 -57q69 -40 89 -40t42 45t38 45t16 -12t-3 -31q-23 -98 -23 -368q0 -39 -6 -45t-17 -7q-20 0 -26 39q-27 164 -76 244
q-100 164 -315 164q-166 0 -262 -111q-174 -199 -174 -561t143 -551q125 -164 332 -164q106 0 194 52q160 95 211 370q8 49 27 49q20 1 20 -30l-4 -56q-8 -119 -8 -229l8 -141v-19zM907 1901q0 -4 -12 -17q-92 -90 -174 -266q-33 -72 -50 -72t-81 119t-168 246h133
q84 -84 150 -228q41 88 98 160t81 72t23 -14z" />
    <glyph glyph-name="ccaron" unicode="&#x10d;" horiz-adv-x="837" 
d="M809 707q0 -94 -92 -95q-90 0 -90 86q0 22 13 52t13 45q0 41 -42 67t-105 27q-123 -1 -191 -107q-67 -106 -67 -311t70 -323t196 -117q86 0 154 53q31 25 80 94q10 10 18 10q20 0 20 -22t-71 -94q-92 -96 -236 -97q-180 0 -298 129t-118 333t125 342t314 139
q121 0 214 -64t93 -147zM678 1374q0 -4 -12 -16q-92 -90 -174 -266q-32 -72 -50 -72t-82 119t-167 245h133q84 -84 149 -227q41 88 98 160q57 71 81 71t24 -14z" />
    <glyph glyph-name="Dcaron" unicode="&#x10e;" horiz-adv-x="1466" 
d="M1151 710q0 348 -133 506t-416 158q-137 0 -166 -28q-12 -14 -12 -99v-1089q0 -58 3 -70q11 -45 228 -45t357 160t139 507zM69 0q-28 0 -28 19q1 19 75 19t95 32q8 14 8 77v1104q0 101 -15 117t-106 16q-47 0 -47 23q0 16 35 16l45 -2q47 -2 92 -2h219q369 0 523 -51
q187 -61 301 -242t114 -417q0 -360 -252 -562q-184 -147 -493 -147l-260 4h-103l-161 -2q-14 -2 -42 -2zM952 1880q0 -4 -12 -16q-92 -90 -174 -267q-33 -71 -50 -71t-57 73q-88 164 -192 291h133q84 -84 150 -227q41 88 98 160q56 71 80 71t24 -14z" />
    <glyph glyph-name="dcaron" unicode="&#x10f;" horiz-adv-x="1185" 
d="M676 555q0 197 -49 259t-135 63q-111 0 -177 -115q-65 -115 -65 -303t57 -320q25 -55 73 -91t105 -36t109 38q50 38 66 92t16 413zM979 42q0 -15 -29 -15h-10q-16 0 -35 2h-16q-100 0 -170 -41q-29 -16 -35 -17q-18 0 -18 25l2 63q-88 -84 -209 -84q-172 1 -284 133
t-112 340t112 338q112 131 292 132q139 0 209 -101v320q0 155 -13 189t-38 32q-59 -6 -79 -6t-20 18t23 19l74 -3q61 -2 188 58q8 4 14 4q20 0 21 -49v-43q-2 -33 -2 -58v-706q0 -485 10 -520q4 -14 96 -15q29 0 29 -15zM1152 1343q0 -119 -95 -173q-65 -38 -97 -38t-32 12
t20 17q76 21 106 51t29 79q0 50 -21 81q0 -56 -71 -55q-36 -1 -60 23t-24 62t30 66q31 29 83 29q52 1 92 -43t40 -111z" />
    <glyph glyph-name="Dcroat" unicode="&#x110;" horiz-adv-x="1466" 
d="M1151 711q0 347 -133 505t-418 158q-135 0 -164 -28q-12 -14 -12 -99v-497h274q31 0 31 -25t-45 -25h-260v-542q0 -58 3 -70q11 -45 229 -45t356 161t139 507zM69 0q-28 0 -28 19q1 19 75 19t95 32q8 14 8 77v553h-143q-35 0 -35 25t47 25h131v501q0 101 -15 117t-106 16
q-47 0 -47 23q0 16 35 16l45 -2q47 -2 92 -2h219q367 0 538 -56q172 -56 286 -238t114 -418q0 -358 -252 -560q-184 -147 -491 -147l-262 4h-103l-161 -2q-14 -2 -42 -2z" />
    <glyph glyph-name="dcroat" unicode="&#x111;" horiz-adv-x="974" 
d="M676 555q0 197 -49 259t-135 63q-111 0 -177 -115q-65 -115 -65 -303t57 -320q25 -55 73 -91t105 -36t109 38q50 38 66 92t16 413zM963 1102h-119v-510q0 -485 10 -520q4 -14 96 -15q29 0 29 -15t-29 -15h-10q-16 0 -35 2h-16q-100 0 -170 -41q-29 -16 -35 -17
q-18 0 -18 25l2 63q-88 -84 -209 -84q-172 1 -284 133t-112 340t112 338q112 131 292 132q139 0 209 -101v285h-277v106h275q-2 92 -13 122t-36 28q-59 -6 -79 -6t-20 18t23 19l74 -3q61 -2 188 58q8 4 14 4q20 0 21 -49v-43q-2 -33 -2 -58v-90h119v-106z" />
    <glyph glyph-name="Emacron" unicode="&#x112;" horiz-adv-x="1191" 
d="M453 1421l511 2q68 0 119 9q4 -88 19 -244l8 -88q2 -10 2 -28t-18 -19q-23 0 -33 51q-39 184 -127 233q-66 37 -344 37h-168v-600h49q229 0 280 35q50 35 68 203q4 43 25 43t20 -37l-8 -217q0 -219 5 -270t5 -66q0 -27 -22 -27q-14 0 -20 18t-19 126q-14 108 -98 137
q-37 12 -193 12h-92v-688q451 0 528 18q135 31 154 263q4 51 26 51t21 -43l-8 -277v-67q-201 10 -534 10l-496 -2h-21q-39 0 -39 18q-1 12 9 14t72 6q62 5 74 23q11 18 11 97v1151q0 59 -17 70t-112 11q-33 0 -33 18t45 19zM844 1534h-486v100h486v-100z" />
    <glyph glyph-name="emacron" unicode="&#x113;" horiz-adv-x="880" 
d="M474 887q-167 0 -208 -246h383q-8 246 -175 246zM827 220q1 -17 -31 -69t-65 -85q-88 -90 -235 -91q-184 -1 -308 133t-125 334q0 200 118 338q119 138 279 138t258 -85t105 -219q-66 -10 -174 -8l-143 2q-14 0 -246 -6q-10 -68 -10 -129q0 -207 79 -319t222 -111
q82 0 131 37t106 141q8 16 23 17q16 -1 16 -18zM686 1026h-485v100h485v-100z" />
    <glyph glyph-name="Ebreve" unicode="&#x114;" horiz-adv-x="1191" 
d="M453 1421l511 2q68 0 119 9q4 -88 19 -244l8 -88q2 -10 2 -28t-18 -19q-23 0 -33 51q-39 184 -127 233q-66 37 -344 37h-168v-600h49q229 0 280 35q50 35 68 203q4 43 25 43t20 -37l-8 -217q0 -219 5 -270t5 -66q0 -27 -22 -27q-14 0 -20 18t-19 126q-14 108 -98 137
q-37 12 -193 12h-92v-688q451 0 528 18q135 31 154 263q4 51 26 51t21 -43l-8 -277v-67q-201 10 -534 10l-496 -2h-21q-39 0 -39 18q-1 12 9 14t72 6q62 5 74 23q11 18 11 97v1151q0 59 -17 70t-112 11q-33 0 -33 18t45 19zM829 1767q1 -97 -67 -165t-165 -68t-160 63
q-62 63 -62 164q0 25 18 25q8 0 13 -17q32 -131 196 -131t195 121q6 27 20 27q12 -1 12 -19z" />
    <glyph glyph-name="ebreve" unicode="&#x115;" horiz-adv-x="880" 
d="M474 887q-167 0 -208 -246h383q-8 246 -175 246zM827 220q1 -17 -31 -69t-65 -85q-88 -90 -235 -91q-184 -1 -308 133t-125 334q0 200 118 338q119 138 279 138t258 -85t105 -219q-66 -10 -174 -8l-143 2q-14 0 -246 -6q-10 -68 -10 -129q0 -207 79 -319t222 -111
q82 0 131 37t106 141q8 16 23 17q16 -1 16 -18zM672 1260q0 -96 -68 -165t-165 -69t-159 64t-63 163q0 25 19 25q8 0 12 -16q32 -132 196 -132t195 121q5 27 19 27t14 -18z" />
    <glyph glyph-name="Edotaccent" unicode="&#x116;" horiz-adv-x="1191" 
d="M453 1421l511 2q68 0 119 9q4 -88 19 -244l8 -88q2 -10 2 -28t-18 -19q-23 0 -33 51q-39 184 -127 233q-66 37 -344 37h-168v-600h49q229 0 280 35q50 35 68 203q4 43 25 43t20 -37l-8 -217q0 -219 5 -270t5 -66q0 -27 -22 -27q-14 0 -20 18t-19 126q-14 108 -98 137
q-37 12 -193 12h-92v-688q451 0 528 18q135 31 154 263q4 51 26 51t21 -43l-8 -277v-67q-201 10 -534 10l-496 -2h-21q-39 0 -39 18q-1 12 9 14t72 6q62 5 74 23q11 18 11 97v1151q0 59 -17 70t-112 11q-33 0 -33 18t45 19zM705 1634q0 -44 -29 -72t-73 -28t-75 30
q-30 30 -30 72t31 74q32 31 75 31t72 -32t29 -75z" />
    <glyph glyph-name="edotaccent" unicode="&#x117;" horiz-adv-x="880" 
d="M474 887q-167 0 -208 -246h383q-8 246 -175 246zM827 220q1 -17 -31 -69t-65 -85q-88 -90 -235 -91q-184 -1 -308 133t-125 334q0 200 118 338q119 138 279 138t258 -85t105 -219q-66 -10 -174 -8l-143 2q-14 0 -246 -6q-10 -68 -10 -129q0 -207 79 -319t222 -111
q82 0 131 37t106 141q8 16 23 17q16 -1 16 -18zM447 1233q43 0 71 -32t29 -75q0 -44 -29 -72t-73 -28q-45 0 -75 30t-30 72t32 74q32 31 75 31z" />
    <glyph glyph-name="Eogonek" unicode="&#x118;" horiz-adv-x="1191" 
d="M453 1421l511 2q68 0 119 9q4 -88 19 -244l8 -88q2 -10 2 -28t-18 -19q-23 0 -33 51q-39 184 -127 233q-66 37 -344 37h-168v-600h49q229 0 280 35q50 35 68 203q4 43 25 43t20 -37l-8 -217q0 -219 5 -270t5 -66q0 -27 -22 -27q-14 0 -20 18t-19 126q-14 108 -98 137
q-37 12 -193 12h-92v-688q451 0 528 18q135 31 154 263q4 51 26 51t21 -43l-8 -277v-67q-146 7 -501 9q-92 -95 -91 -183q0 -62 33 -104t79 -42t70 20q23 20 35 21q12 0 12 -11t-52 -47t-125 -36t-127 48t-54 118q0 117 180 216q-118 1 -222 1l-267 -2h-21q-39 0 -39 18
q-1 12 9 14t72 6q62 5 74 23q11 18 11 97v1151q0 59 -17 70t-112 11q-33 0 -33 18t45 19z" />
    <glyph glyph-name="eogonek" unicode="&#x119;" horiz-adv-x="880" 
d="M474 887q-167 0 -208 -246h383q-8 246 -175 246zM827 220q1 -17 -31 -69t-65 -85q-88 -90 -235 -91q-12 0 -23 1q-79 -88 -79 -161t32 -114q33 -41 79 -41q47 0 71 20t35 21q11 0 12 -10q0 -12 -52 -48t-125 -36t-128 48q-54 48 -54 118q0 112 165 207q-141 20 -242 129
q-124 133 -124 333t118 338q119 138 279 138t258 -85t105 -219q-66 -10 -174 -8l-143 2q-14 0 -246 -6q-10 -68 -10 -129q0 -207 79 -319t222 -111q82 0 131 37t106 141q8 16 23 17q16 -1 16 -18z" />
    <glyph glyph-name="Ecaron" unicode="&#x11a;" horiz-adv-x="1191" 
d="M453 1421l511 2q68 0 119 9q4 -88 19 -244l8 -88q2 -10 2 -28t-18 -19q-23 0 -33 51q-39 184 -127 233q-66 37 -344 37h-168v-600h49q229 0 280 35q50 35 68 203q4 43 25 43t20 -37l-8 -217q0 -219 5 -270t5 -66q0 -27 -22 -27q-14 0 -20 18t-19 126q-14 108 -98 137
q-37 12 -193 12h-92v-688q451 0 528 18q135 31 154 263q4 51 26 51t21 -43l-8 -277v-67q-201 10 -534 10l-496 -2h-21q-39 0 -39 18q-1 12 9 14t72 6q62 5 74 23q11 18 11 97v1151q0 59 -17 70t-112 11q-33 0 -33 18t45 19zM844 1888q0 -4 -13 -16q-92 -90 -174 -266
q-33 -72 -50 -72t-81 119t-168 245h134q84 -84 149 -227q41 88 98 160q57 71 81 71t24 -14z" />
    <glyph glyph-name="ecaron" unicode="&#x11b;" horiz-adv-x="880" 
d="M474 887q-167 0 -208 -246h383q-8 246 -175 246zM827 220q1 -17 -31 -69t-65 -85q-88 -90 -235 -91q-184 -1 -308 133t-125 334q0 200 118 338q119 138 279 138t258 -85t105 -219q-66 -10 -174 -8l-143 2q-14 0 -246 -6q-10 -68 -10 -129q0 -207 79 -319t222 -111
q82 0 131 37t106 141q8 16 23 17q16 -1 16 -18zM686 1374q0 -4 -12 -16q-92 -90 -174 -266q-33 -72 -50 -72t-81 119t-168 245h133q84 -84 149 -227q41 88 99 160q58 71 80 71q24 0 24 -14z" />
    <glyph glyph-name="Gcircumflex" unicode="&#x11c;" horiz-adv-x="1361" 
d="M1313 451l53 2q41 -1 41 -20t-18 -19l-48 2q-94 4 -106 -33q-8 -25 -8 -178v-66q-103 -90 -201 -127t-233 -37q-324 0 -514 194q-191 193 -191 527t186 541t492 207q133 0 291 -74q47 -23 78 -22q39 0 51 49q10 29 24 28q16 0 17 -16l-17 -211l2 -133l2 -64
q-4 -49 -24 -49t-23 29q-10 199 -114 313t-275 113q-213 0 -337 -190t-124 -512t126 -507t341 -186q164 0 226 94q30 48 30 160t-19 130t-91 18t-80 3t-8 13q0 23 45 23h37q31 -6 217 -4zM528 1546q-24 0 -24 15q0 8 12 16q94 94 174 266q33 72 50 72t57 -74
q79 -154 194 -291h-135q-76 72 -149 228q-43 -88 -99 -160t-80 -72z" />
    <glyph glyph-name="gcircumflex" unicode="&#x11d;" horiz-adv-x="956" 
d="M784 -190q0 170 -200 170q-57 0 -169 -18t-167 -19q-104 -55 -105 -195q0 -104 75 -168q74 -64 214 -63q140 0 246 85t106 208zM473 303q154 0 154 294t-162 294t-162 -277q0 -311 170 -311zM833 846q-27 0 -49 -26t-22 -42t10 -80t10 -96q0 -139 -96 -233t-240 -95
q-38 0 -100 20t-70 19q-44 -1 -78 -35t-34 -75q0 -106 129 -107q49 0 145 16t166 17q125 0 196 -66t70 -182q0 -176 -150 -293t-380 -116q-170 0 -267 68t-97 188q0 119 90 178q45 29 143 51q-145 57 -146 176q0 147 189 205q-123 96 -123 248t94 242q94 89 248 90
q84 0 136 -23t122 -90q66 96 162 96q117 0 117 -104q0 -94 -84 -95q-29 0 -53 20t-23 44l12 53q0 27 -27 27zM272 1020q-24 0 -24 11t12 20q94 94 174 266q33 72 50 72t57 -74q79 -154 194 -291h-135q-76 72 -149 227q-43 -87 -99 -159t-80 -72z" />
    <glyph glyph-name="Gbreve" unicode="&#x11e;" horiz-adv-x="1361" 
d="M1313 451l53 2q41 -1 41 -20t-18 -19l-48 2q-94 4 -106 -33q-8 -25 -8 -178v-66q-103 -90 -201 -127t-233 -37q-324 0 -514 194q-191 193 -191 527t186 541t492 207q133 0 291 -74q47 -23 78 -22q39 0 51 49q10 29 24 28q16 0 17 -16l-17 -211l2 -133l2 -64
q-4 -49 -24 -49t-23 29q-10 199 -114 313t-275 113q-213 0 -337 -190t-124 -512t126 -507t341 -186q164 0 226 94q30 48 30 160t-19 130t-91 18t-80 3t-8 13q0 23 45 23h37q31 -6 217 -4zM975 1780q0 -96 -68 -165t-165 -69t-159 64t-63 164q0 25 19 24q8 0 12 -16
q33 -131 197 -131t194 121q6 27 21 26q12 0 12 -18z" />
    <glyph glyph-name="gbreve" unicode="&#x11f;" horiz-adv-x="956" 
d="M784 -190q0 170 -200 170q-57 0 -169 -18t-167 -19q-104 -55 -105 -195q0 -104 75 -168q74 -64 214 -63q140 0 246 85t106 208zM473 303q154 0 154 294t-162 294t-162 -277q0 -311 170 -311zM833 846q-27 0 -49 -26t-22 -42t10 -80t10 -96q0 -139 -96 -233t-240 -95
q-38 0 -100 20t-70 19q-44 -1 -78 -35t-34 -75q0 -106 129 -107q49 0 145 16t166 17q125 0 196 -66t70 -182q0 -176 -150 -293t-380 -116q-170 0 -267 68t-97 188q0 119 90 178q45 29 143 51q-145 57 -146 176q0 147 189 205q-123 96 -123 248t94 242q94 89 248 90
q84 0 136 -23t122 -90q66 96 162 96q117 0 117 -104q0 -94 -84 -95q-29 0 -53 20t-23 44l12 53q0 27 -27 27zM719 1260q0 -96 -68 -165t-165 -69t-159 64t-63 163q0 25 19 25q8 0 12 -16q33 -132 197 -132t194 121q6 27 20 27t13 -18z" />
    <glyph glyph-name="Gdotaccent" unicode="&#x120;" horiz-adv-x="1361" 
d="M1313 451l53 2q41 -1 41 -20t-18 -19l-48 2q-94 4 -106 -33q-8 -25 -8 -178v-66q-103 -90 -201 -127t-233 -37q-324 0 -514 194q-191 193 -191 527t186 541t492 207q133 0 291 -74q47 -23 78 -22q39 0 51 49q10 29 24 28q16 0 17 -16l-17 -211l2 -133l2 -64
q-4 -49 -24 -49t-23 29q-10 199 -114 313t-275 113q-213 0 -337 -190t-124 -512t126 -507t341 -186q164 0 226 94q30 48 30 160t-19 130t-91 18t-80 3t-8 13q0 23 45 23h37q31 -6 217 -4zM643 1649q0 43 32 73t75 31q44 1 72 -31t28 -75t-29 -72t-73 -29t-74 30
q-31 30 -31 73z" />
    <glyph glyph-name="gdotaccent" unicode="&#x121;" horiz-adv-x="956" 
d="M784 -190q0 170 -200 170q-57 0 -169 -18t-167 -19q-104 -55 -105 -195q0 -104 75 -168q74 -64 214 -63q140 0 246 85t106 208zM473 303q154 0 154 294t-162 294t-162 -277q0 -311 170 -311zM833 846q-27 0 -49 -26t-22 -42t10 -80t10 -96q0 -139 -96 -233t-240 -95
q-38 0 -100 20t-70 19q-44 -1 -78 -35t-34 -75q0 -106 129 -107q49 0 145 16t166 17q125 0 196 -66t70 -182q0 -176 -150 -293t-380 -116q-170 0 -267 68t-97 188q0 119 90 178q45 29 143 51q-145 57 -146 176q0 147 189 205q-123 96 -123 248t94 242q94 89 248 90
q84 0 136 -23t122 -90q66 96 162 96q117 0 117 -104q0 -94 -84 -95q-29 0 -53 20t-23 44l12 53q0 27 -27 27zM494 1233q44 0 72 -32t28 -75q0 -44 -29 -72t-73 -28t-74 30q-31 30 -31 72t32 74q32 31 75 31z" />
    <glyph glyph-name="Gcedilla" unicode="&#x122;" horiz-adv-x="1361" 
d="M1313 451l53 2q41 -1 41 -20t-18 -19l-48 2q-94 4 -106 -33q-8 -25 -8 -178v-66q-103 -90 -201 -127t-233 -37q-324 0 -514 194q-191 193 -191 527t186 541t492 207q133 0 291 -74q47 -23 78 -22q39 0 51 49q10 29 24 28q16 0 17 -16l-17 -211l2 -133l2 -64
q-4 -49 -24 -49t-23 29q-10 199 -114 313t-275 113q-213 0 -337 -190t-124 -512t126 -507t341 -186q164 0 226 94q30 48 30 160t-19 130t-91 18t-80 3t-8 13q0 23 45 23h37q31 -6 217 -4zM868 -274q0 -121 -94 -175q-66 -37 -97 -37t-32 13q0 12 21 16q76 20 104 50t29 80
q0 50 -21 81q0 -55 -69 -55q-37 -1 -61 23t-24 62t30 66t83 29q53 -1 92 -43t39 -110z" />
    <glyph glyph-name="gcedilla" unicode="&#x123;" horiz-adv-x="956" 
d="M784 -190q0 170 -200 170q-57 0 -169 -18t-167 -19q-104 -55 -105 -195q0 -104 75 -168q74 -64 214 -63q140 0 246 85t106 208zM473 303q154 0 154 294t-162 294t-162 -277q0 -311 170 -311zM833 846q-27 0 -49 -26t-22 -42t10 -80t10 -96q0 -139 -96 -233t-240 -95
q-38 0 -100 20t-70 19q-44 -1 -78 -35t-34 -75q0 -106 129 -107q49 0 145 16t166 17q125 0 196 -66t70 -182q0 -176 -150 -293t-380 -116q-170 0 -267 68t-97 188q0 119 90 178q45 29 143 51q-145 57 -146 176q0 147 189 205q-123 96 -123 248t94 242q94 89 248 90
q84 0 136 -23t122 -90q66 96 162 96q117 0 117 -104q0 -94 -84 -95q-29 0 -53 20t-23 44l12 53q0 27 -27 27zM466 1209q36 0 60 -24q24 -23 23 -61q0 -38 -30 -66q-31 -28 -83 -29q-52 0 -92 43q-39 43 -39 111q0 121 95 174q68 37 98 37t30 -12t-20 -17q-134 -36 -134 -138
q0 -43 23 -74q3 56 69 56z" />
    <glyph glyph-name="Hcircumflex" unicode="&#x124;" horiz-adv-x="1458" 
d="M909 1421l221 -2l226 4q43 0 43 -18q-1 -17 -59 -19t-74 -7t-22 -21t-5 -96v-1090q0 -98 10 -115q20 -23 119 -22q33 3 33 -16t-39 -19l-283 2l-166 -4q-41 0 -41 16t74 22t82 18q8 13 8 96v598h-616v-580q0 -92 14 -108t82 -22q68 -5 68 -20q0 -18 -41 -18h-19l-168 4
l-258 -4q-41 0 -41 16t34 20t71 6q37 3 46 16t9 118v1081q0 93 -9 109q-8 16 -68 19t-71 5t-12 17q-1 16 17 16t57 -3t229 -3l183 4q37 0 37 -19q0 -20 -67 -20t-80 -15t-13 -97v-471h616v440q0 109 -16 128t-115 17q-31 0 -31 18t35 19zM973 1530h-135q-76 72 -150 227
q-43 -88 -99 -160q-55 -71 -79 -71t-24 11t12 19q94 94 174 267q33 71 50 71t56 -73q80 -154 195 -291z" />
    <glyph glyph-name="hcircumflex" unicode="&#x125;" horiz-adv-x="976" 
d="M971 12q1 -16 -25 -16h-383q-27 0 -27 15t63 15q62 0 70 12q7 11 7 77v415q0 186 -17 232q-35 94 -143 94t-170 -88q-20 -29 -20 -127v-522q0 -55 2 -69t16 -18q14 -3 88 -5q25 1 25 -15t-21 -16l-20 2l-162 2q-170 2 -188 -4h-21q-23 0 -22 14q0 16 22 17h31l30 2
q47 -2 50 28v920q0 328 -11 354q-13 19 -81 21t-68 15t10 15t92 4t178 50q8 4 29 10q14 -25 14 -158v-502q90 132 250 132t230 -91q35 -45 43 -127q4 -29 4 -137v-516q2 -20 106 -20q19 -5 19 -15zM264 1548q-24 0 -24 15q0 8 12 16q94 94 174 266q33 72 50 72t56 -74
q80 -154 195 -291h-135q-76 72 -150 228q-43 -88 -99 -160q-55 -72 -79 -72z" />
    <glyph glyph-name="Hbar" unicode="&#x126;" horiz-adv-x="1458" 
d="M1036 799v219h-616v-219h616zM1399 1405q-1 -17 -59 -19t-74 -7t-22 -21t-5 -96v-170h162v-74h-162v-846q0 -98 10 -115q20 -23 119 -22q33 5 33 -15t-39 -20l-283 2l-166 -4q-41 0 -41 16t74 22t82 18q8 13 8 96v598h-616v-580q0 -92 14 -108t82 -22q68 -5 68 -20
q0 -18 -41 -18h-19l-168 4l-258 -4q-41 0 -41 16t34 20t71 6q37 3 46 16t9 118v842h-178v74h178v165q0 93 -9 109q-8 16 -68 19t-71 5t-12 17q-1 16 17 16t57 -3t229 -3l183 4q37 0 37 -19q0 -20 -67 -20t-80 -15t-13 -97v-178h616v147q0 109 -16 128t-115 17q-31 0 -31 18
t35 19h111q74 -2 110 -2l226 4q43 0 43 -18z" />
    <glyph glyph-name="hbar" unicode="&#x127;" horiz-adv-x="976" 
d="M582 1079h-263v-293q90 132 250 132t230 -91q35 -45 43 -127q4 -29 4 -137v-516q2 -20 106 -20q18 -4 19 -15q1 -16 -25 -16h-383q-27 0 -27 15t63 15q62 0 70 12q7 11 7 77v415q0 186 -17 232q-35 94 -143 94t-170 -88q-20 -29 -20 -127v-522q0 -55 2 -69t16 -18
q14 -3 88 -5q25 1 25 -15t-21 -16l-20 2l-162 2q-170 2 -188 -4h-21q-23 0 -22 14q0 16 22 17h31l30 2q47 -2 50 28v1022h-138v74h136q-2 160 -12 179q-10 18 -78 20t-68 15t10 15t92 4t178 50q8 4 29 10q14 -25 14 -158v-135h263v-74z" />
    <glyph glyph-name="Itilde" unicode="&#x128;" horiz-adv-x="643" 
d="M55 17q0 17 68 19t82 20q14 17 14 118v1077q0 100 -10 113q-12 20 -82 24t-70 19q0 16 25 16l276 -4q31 0 119 2l78 2q33 0 33 -17q0 -16 -70 -20t-82 -20t-12 -86v-1094q0 -117 10 -127q23 -23 133 -26q23 -1 23 -17t-25 -16h-20q-12 6 -279 6l-184 -6q-27 0 -27 17z
M612 1708q0 -51 -42 -117q-42 -65 -109 -65t-195 68t-148 67q-18 0 -32 -14t-14 -33t30 -51q10 -6 11 -17q-1 -14 -21 -14t-40 26t-21 66q0 40 44 81q43 40 107 40q64 -1 187 -63t149 -62t42 52q15 52 34 52q18 0 18 -16z" />
    <glyph glyph-name="itilde" unicode="&#x129;" horiz-adv-x="514" 
d="M496 11q0 -17 -35 -17l-49 4q-61 4 -103 4l-213 -4q-10 -2 -28 -2t-19 14q-1 20 59 22t67 10q7 9 7 85l-2 621q-2 51 -5 60t-25 9l-60 -2q-8 -2 -26 -2t-17 15q0 15 35 18q137 6 235 65l21 13q16 -31 16 -113v-20q-2 -25 -2 -80v-559q0 -82 3 -97q5 -25 73 -26t68 -18z
M561 1214q0 -50 -42 -116q-41 -66 -109 -66t-196 68t-148 68t-32 -15q-32 -34 17 -84q10 -6 10 -18q0 -13 -20 -13t-41 26q-20 26 -20 66t44 81q44 40 108 40t186 -62t151 -63q25 0 40 52t34 53q18 -1 18 -17z" />
    <glyph glyph-name="Imacron" unicode="&#x12a;" horiz-adv-x="643" 
d="M55 17q0 17 68 19t82 20q14 17 14 118v1077q0 100 -10 113q-12 20 -82 24t-70 19q0 16 25 16l276 -4q31 0 119 2l78 2q33 0 33 -17q0 -16 -70 -20t-82 -20t-12 -86v-1094q0 -117 10 -127q23 -23 133 -26q23 -1 23 -17t-25 -16h-20q-12 6 -279 6l-184 -6q-27 0 -27 17z
M563 1526h-485v100h485v-100z" />
    <glyph glyph-name="imacron" unicode="&#x12b;" horiz-adv-x="514" 
d="M496 11q0 -17 -35 -17l-49 4q-61 4 -103 4l-213 -4q-10 -2 -28 -2t-19 14q-1 20 59 22t67 10q7 9 7 85l-2 621q-2 51 -5 60t-25 9l-60 -2q-8 -2 -26 -2t-17 15q0 15 35 18q137 6 235 65l21 13q16 -31 16 -113v-20q-2 -25 -2 -80v-559q0 -82 3 -97q5 -25 73 -26t68 -18z
M512 1032h-485v101h485v-101z" />
    <glyph glyph-name="Ibreve" unicode="&#x12c;" horiz-adv-x="643" 
d="M55 17q0 17 68 19t82 20q14 17 14 118v1077q0 100 -10 113q-12 20 -82 24t-70 19q0 16 25 16l276 -4q31 0 119 2l78 2q33 0 33 -17q0 -16 -70 -20t-82 -20t-12 -86v-1094q0 -117 10 -127q23 -23 133 -26q23 -1 23 -17t-25 -16h-20q-12 6 -279 6l-184 -6q-27 0 -27 17z
M555 1759q0 -96 -68 -165q-69 -68 -165 -68t-159 63q-62 63 -63 164q0 25 19 25q8 0 12 -17q33 -131 197 -131t194 121q6 27 21 27q12 -1 12 -19z" />
    <glyph glyph-name="ibreve" unicode="&#x12d;" horiz-adv-x="514" 
d="M496 11q0 -17 -35 -17l-49 4q-61 4 -103 4l-213 -4q-10 -2 -28 -2t-19 14q-1 20 59 22t67 10q7 9 7 85l-2 621q-2 51 -5 60t-25 9l-60 -2q-8 -2 -26 -2t-17 15q0 15 35 18q137 6 235 65l21 13q16 -31 16 -113v-20q-2 -25 -2 -80v-559q0 -82 3 -97q5 -25 73 -26t68 -18z
M504 1266q0 -96 -68 -165t-165 -69t-159 64t-63 164q0 25 19 24q8 0 12 -16q32 -131 196 -131t195 120q5 27 19 27t14 -18z" />
    <glyph glyph-name="Iogonek" unicode="&#x12e;" horiz-adv-x="643" 
d="M55 17q0 17 68 19t82 20q14 17 14 118v1077q0 100 -10 113q-12 20 -82 24t-70 19q0 16 25 16l276 -4q31 0 119 2l78 2q33 0 33 -17q0 -16 -70 -20t-82 -20t-12 -86v-1094q0 -117 10 -127q23 -23 133 -26q23 -1 23 -17t-25 -16h-20q-10 5 -187 6q-88 -93 -88 -168
q0 -74 33 -116t79 -42t70 21q24 20 36 20q11 0 12 -10q0 -12 -52 -48t-125 -36t-127 48t-55 118q0 115 174 213h-49l-184 -6q-27 0 -27 17z" />
    <glyph glyph-name="iogonek" unicode="&#x12f;" horiz-adv-x="514" 
d="M496 11q0 -17 -35 -17l-49 4q-61 4 -103 4h-20q-90 -94 -90 -170t32 -117q33 -41 79 -41t70 20t36 21q12 0 12 -11t-52 -47t-125 -36t-127 48t-54 118q0 116 175 214l-149 -3q-10 -2 -28 -2t-19 14q-1 20 59 22t67 10q7 9 7 85l-2 621q-2 51 -5 60t-25 9l-60 -2
q-8 -2 -26 -2t-17 15q0 15 35 18q137 6 235 65l21 13q16 -31 16 -113v-20q-2 -25 -2 -80v-559q0 -82 3 -97q5 -25 73 -26t68 -18zM342 1288q0 -92 -92 -92q-39 0 -66 26t-26 62q0 96 92 96t92 -92z" />
    <glyph glyph-name="Idotaccent" unicode="&#x130;" horiz-adv-x="643" 
d="M55 17q0 17 68 19t82 20q14 17 14 118v1077q0 100 -10 113q-12 20 -82 24t-70 19q0 16 25 16l276 -4q31 0 119 2l78 2q33 0 33 -17q0 -16 -70 -20t-82 -20t-12 -86v-1094q0 -117 10 -127q23 -23 133 -26q23 -1 23 -17t-25 -16h-20q-12 6 -279 6l-184 -6q-27 0 -27 17z
M332 1733q44 0 72 -32t28 -75t-29 -72q-29 -28 -73 -28t-74 30q-31 30 -31 72q0 43 32 74t75 31z" />
    <glyph glyph-name="dotlessi" unicode="&#x131;" horiz-adv-x="514" 
d="M496 11q0 -17 -35 -17l-49 4q-61 4 -103 4l-213 -4q-10 -2 -28 -2t-19 14q-1 20 59 22t67 10.5t7 84.5l-2 621q-2 51 -5 60t-25 9l-60 -2q-8 -2 -26 -2t-17 15q0 15 35 18q137 6 235 65l21 13q16 -31 16 -113v-20q-2 -25 -2 -80v-559q0 -82 3 -96.5t28 -20.5q25 -7 69 -7
t44 -17z" />
    <glyph glyph-name="IJ" unicode="&#x132;" horiz-adv-x="1314" 
d="M55 17q0 17 68 19t82 20q14 17 14 118v1077q0 100 -10 113q-12 20 -82 24t-70 19q0 16 25 16l276 -4q31 0 119 2l78 2q33 0 33 -17q0 -16 -70 -20t-82 -20t-12 -86v-1094q0 -117 10 -127q23 -23 133 -26q23 -1 23 -17t-25 -16h-20q-12 6 -279 6l-184 -6q-27 0 -27 17z
M1280 1405q0 -19 -60 -19t-79 -5q-17 -5 -21 -17t-4 -80v-657l2 -191q5 -319 -19 -424q-24 -104 -120 -181q-97 -77 -191 -77t-143 42t-49 110q0 117 115 117q47 0 79 -29t32 -71t-23 -69q-22 -27 -23 -38q0 -18 31 -19q66 0 92 80q14 43 14 252v1169q0 66 -39 82
q-18 6 -86 6t-67 18q0 18 33 19l159 -4l301 4q66 0 66 -18z" />
    <glyph glyph-name="ij" unicode="&#x133;" horiz-adv-x="999" 
d="M496 11q0 -17 -35 -17l-49 4q-61 4 -103 4l-213 -4q-10 -2 -28 -2t-19 14q-1 20 59 22t67 10q7 9 7 85l-2 621q-2 51 -5 60t-25 9l-60 -2q-8 -2 -26 -2t-17 15q0 15 35 18q137 6 235 65l21 13q16 -31 16 -113v-20q-2 -25 -2 -80v-559q0 -82 3 -97q5 -25 73 -26t68 -18z
M342 1288q0 -92 -92 -92q-39 0 -66 26t-26 62q0 96 92 96t92 -92zM868 496l2 -152v-397q0 -219 -76 -347t-206 -128q-63 0 -106 32q-42 33 -42 82q0 96 105 97q86 0 86 -72l-15 -82q0 -18 13 -18q39 0 56 62t17 314l-2 904q-2 27 -30 26h-23q-8 -2 -94 -2q-23 0 -23 15
t54 16q145 -2 213 49q37 23 47 23q16 0 18 -24t4 -155zM860 1288q0 -92 -90 -92q-41 0 -68 26q-26 26 -26 66t25 66q26 27 65 26q94 0 94 -92z" />
    <glyph glyph-name="Jcircumflex" unicode="&#x134;" horiz-adv-x="671" 
d="M637 1405q-1 -19 -61 -19t-78 -5t-22 -17t-3 -80v-657l2 -191q5 -319 -19 -424q-24 -104 -120 -181t-190 -77t-144 42q-49 42 -49 110q0 117 115 117q46 0 78 -29t32 -71t-22 -69t-23 -38q0 -18 31 -19q66 0 92 80q14 43 14 252v1169q0 66 -39 82q-17 6 -85 6t-68 18
t33 19l159 -4l301 4q66 0 66 -18zM119 1537q0 11 12 19q94 94 174 267q33 71 50 71t57 -73q79 -154 194 -291h-135q-76 72 -149 227q-44 -88 -100 -160q-56 -71 -80 -71t-23 11z" />
    <glyph glyph-name="jcircumflex" unicode="&#x135;" horiz-adv-x="485" 
d="M354 496l2 -152v-397q0 -219 -76 -347t-206 -128q-63 0 -106 32q-42 33 -42 82q0 96 105 97q86 0 86 -72l-15 -82q0 -18 13 -18q39 0 56 62t17 314l-2 904q-2 27 -30 26h-23q-8 -2 -94 -2q-23 0 -23 15t54 16q145 -2 213 49q37 23 47 23q16 0 18 -24t4 -155zM30 1020
q-24 0 -24 11t12 20q94 94 175 266q33 72 50 72t56 -74q80 -154 195 -291h-136q-76 72 -149 227q-43 -87 -99 -159t-80 -72z" />
    <glyph glyph-name="Kcedilla" unicode="&#x136;" horiz-adv-x="1363" 
d="M86 -4q-31 0 -31 19t73 21t85 32q6 10 6 129l-2 1140q-2 43 -111 43q-49 0 -49 23q1 18 23 18t47 -3t179 -3t188 3t64 3t30 -22q0 -11 -11 -15t-71 -6t-70 -16q-12 -14 -12 -92v-500l174 174q395 395 395 412q-1 26 -79 24t-78 21q0 14 28 16t199 2h113q72 0 86 -3
q14 -2 16 -22q0 -20 -45 -20q-94 2 -121 -4t-53 -33q-133 -139 -406 -417l-80 -82q12 -14 103 -111q172 -178 493 -571q68 -82 94 -98t92 -22q66 -4 66 -21t-28 -17h-17l-246 2l-239 -2q-12 -2 -39 -2t-27 16t79 24t79 33q0 26 -559 664v-592q0 -72 22 -89t121 -17
q23 1 23 -19t-24 -20t-42 2l-284 4l-136 -6h-18zM858 -254q0 -121 -94 -174q-66 -37 -98 -37t-31 12q0 12 20 17q76 20 105 50q28 30 28 80t-20 81q0 -55 -70 -56q-36 0 -60 24q-24 23 -24 61t30 67t83 29t92 -43t39 -111z" />
    <glyph glyph-name="kcedilla" unicode="&#x137;" horiz-adv-x="960" 
d="M467 14q0 -18 -45 -18l-10 2h-50q-49 2 -133 2h-159q-50 0 -50 13t10 15t64 5q55 2 58 22q4 14 4 107v1001q0 162 -2 168q-4 14 -60 15h-20q-56 -8 -56 14q0 16 73 17t179 59q25 14 33 14q23 0 23 -170v-756q332 297 331 328q-1 12 -41 12h-51q-12 -2 -30 -2h-21
q-37 0 -37 18t64 17h84l75 -2h127q74 0 86 -2t13 -14q0 -15 -84 -17t-102 -13q-20 -11 -42 -34l-256 -248q285 -311 404 -456q49 -59 75 -71t103 -9q18 -1 18 -16t-75 -15l-254 6l-162 -8q-18 0 -19 14q0 16 39 17q99 1 99 31t-344 415l2 -418q2 -31 57 -28l55 2
q27 1 27 -17zM651 -254q0 -121 -94 -174q-65 -37 -97 -37t-32 12t21 17q77 20 105 50t28 80t-21 81q0 -55 -69 -56q-37 0 -61 24q-23 23 -23 61t29 67q30 29 83 29t92 -43t39 -111z" />
    <glyph glyph-name="kgreenlandic" unicode="&#x138;" horiz-adv-x="960" 
d="M467 14q0 -18 -45 -18l-10 2h-50q-49 2 -133 2h-159q-50 0 -50 13t10 15t64 5q55 2 58 22q4 14 4 107v530q0 162 -2 168q-4 14 -60 14h-20q-14 -2 -35 -2t-21 16t73 18q73 1 179 59q25 14 33 14q23 0 23 -170v-285q332 297 331 328q-1 12 -41 12h-51q-12 -2 -30 -2h-21
q-37 0 -37 18t64 17h84l75 -2h127q74 0 86 -2t13 -14q0 -15 -84 -17t-102 -13q-20 -11 -42 -34l-256 -248q285 -311 404 -456q49 -59 75 -71t103 -9q18 -1 18 -16t-75 -15l-254 6l-162 -8q-18 0 -19 14q0 16 39 17q99 1 99 31t-344 415l2 -418q2 -31 57 -28l55 2
q27 1 27 -17z" />
    <glyph glyph-name="Lacute" unicode="&#x139;" horiz-adv-x="1155" 
d="M549 1423q37 0 37 -20q0 -12 -12 -15q-12 -4 -70 -6t-70 -19t-12 -108v-1208q55 -2 224 -2t267 25t134 92q35 68 40 182q2 27 27 27t23 -31l-2 -51v-19q2 -14 2 -28v-80q0 -53 -7 -176h-22l-166 8l-852 6q-35 0 -35 16t67 20t82 18q15 13 15 77v1151q0 76 -15 88t-110 12
q-39 0 -39 23q0 18 25 18h18q68 -6 269 -6l159 6h23zM561 1851l168 -2h37l-186 -194q-124 -129 -140 -129t-16 7t14 39z" />
    <glyph glyph-name="lacute" unicode="&#x13a;" horiz-adv-x="481" 
d="M20 12q0 14 23 15h53q57 0 58 24q2 12 2 160v1042q0 68 -4 74q-6 16 -33 16h-17l-57 -2q-29 -1 -29 17t75 22t159 43l43 21l16 6q16 -59 15 -180l-2 -146l2 -1003q0 -61 2 -73t9 -14t67 -4t61 -18q0 -16 -27 -16h-24q-4 0 -109 4l-63 2l-189 -8q-31 -2 -31 18zM205 1878
l168 -2h37l-187 -195q-123 -129 -139 -129t-16 8t14 38q14 32 57 137z" />
    <glyph glyph-name="Lcedilla" unicode="&#x13b;" horiz-adv-x="1155" 
d="M549 1423q37 0 37 -20q0 -12 -12 -15q-12 -4 -70 -6t-70 -19t-12 -108v-1208q55 -2 224 -2t267 25t134 92q35 68 40 182q2 27 27 27t23 -31l-2 -51v-19q2 -14 2 -28v-80q0 -53 -7 -176h-22l-166 8l-852 6q-35 0 -35 16t67 20t82 18q15 13 15 77v1151q0 76 -15 88t-110 12
q-39 0 -39 23q0 18 25 18h18q68 -6 269 -6l159 6h23zM717 -264q0 -121 -94 -174q-65 -37 -97 -37t-32 12t20 17q76 20 104 50t29 80q0 50 -20 80q0 -55 -70 -55q-37 0 -61 24q-24 23 -23 61q0 38 30 67t83 29t92 -44q39 -42 39 -110z" />
    <glyph glyph-name="lcedilla" unicode="&#x13c;" horiz-adv-x="481" 
d="M20 12q0 14 23 15h53q57 0 58 24q2 12 2 160v1042q0 68 -4 74q-6 16 -33 16h-17l-57 -2q-29 -1 -29 17t75 22t159 43l43 21l16 6q16 -59 15 -180l-2 -146l2 -1003q0 -61 2 -73t9 -14t67 -4t61 -18q0 -16 -27 -16h-24q-4 0 -109 4l-63 2l-189 -8q-31 -2 -31 18zM360 -258
q0 -121 -94 -174q-66 -37 -97 -37t-32 12q0 12 21 17q76 20 104 50t29 80q0 50 -21 81q0 -55 -69 -56q-37 0 -61 24q-24 23 -24 61t30 67t83 29t92 -43t39 -111z" />
    <glyph glyph-name="Lcaron" unicode="&#x13d;" horiz-adv-x="1155" 
d="M549 1423q37 0 37 -20q0 -12 -12 -15q-12 -4 -70 -6t-70 -19t-12 -108v-1208q55 -2 224 -2t267 25t134 92q35 68 40 182q2 27 27 27t23 -31l-2 -51v-19q2 -14 2 -28v-80q0 -53 -7 -176h-22l-166 8l-852 6q-35 0 -35 16t67 20t82 18q15 13 15 77v1151q0 76 -15 88t-110 12
q-39 0 -39 23q0 18 25 18h18q68 -6 269 -6l159 6h23zM838 1880q0 -4 -13 -16q-92 -90 -174 -267q-33 -71 -50 -71t-81 118t-168 246h133q84 -84 150 -227q41 88 98 160q57 71 81 71t24 -14z" />
    <glyph glyph-name="lcaron" unicode="&#x13e;" horiz-adv-x="481" 
d="M20 12q0 14 23 15h53q57 0 58 24q2 12 2 160v1042q0 68 -4 74q-6 16 -33 16h-17l-57 -2q-29 -1 -29 17t75 22t159 43l43 21l16 6q16 -59 15 -180l-2 -146l2 -1003q0 -61 2 -73t9 -14t67 -4t61 -18q0 -16 -27 -16h-24q-4 0 -109 4l-63 2l-189 -8q-31 -2 -31 18zM481 1907
q0 -4 -12 -17q-92 -90 -174 -266q-33 -72 -50 -72t-81 119t-168 246h133q84 -84 150 -227q41 88 98 160t81 71q24 0 23 -14z" />
    <glyph glyph-name="Ldotaccent" unicode="&#x13f;" horiz-adv-x="1155" 
d="M922 842q44 0 72 -32t28 -75t-29 -71t-73 -29q-44 0 -74 30q-31 31 -31 73t32 73t75 31zM549 1423q37 0 37 -20q0 -12 -12 -15q-12 -4 -70 -6t-70 -19t-12 -108v-1208q55 -2 224 -2t267 25t134 92q35 68 40 182q2 27 27 27t23 -31l-2 -51v-19q2 -14 2 -28v-80
q0 -53 -7 -176h-22l-166 8l-852 6q-35 0 -35 16t67 20t82 18q15 13 15 77v1151q0 76 -15 88t-110 12q-39 0 -39 23q0 18 25 18h18q68 -6 269 -6l159 6h23z" />
    <glyph glyph-name="ldotaccent" unicode="&#x140;" horiz-adv-x="886" 
d="M717 842q43 0 71 -32t29 -75q0 -43 -29 -71q-28 -28 -72 -29q-44 0 -75 30q-31 31 -31 73t32 73t75 31zM20 12q0 14 23 15h53q57 0 58 24q2 12 2 160v1042q0 68 -4 74q-6 16 -33 16h-17l-57 -2q-29 -1 -29 17t75 22t159 43l43 21l16 6q16 -59 15 -180l-2 -146l2 -1003
q0 -61 2 -73t9 -14t67 -4t61 -18q0 -16 -27 -16h-24q-4 0 -109 4l-63 2l-189 -8q-31 -2 -31 18z" />
    <glyph glyph-name="Lslash" unicode="&#x141;" horiz-adv-x="1155" 
d="M549 1423q37 0 37 -20q0 -12 -11.5 -15.5t-71 -5.5t-70.5 -19t-11 -108v-477l223 154q8 6 17 6q29 0 28 -23q0 -12 -26 -30l-242 -168v-670q55 -2 224 -2t267.5 24.5t133 92t40.5 182.5q2 27 27 27t23 -31l-2 -51v-19q2 -14 2 -28v-62q0 -55 -7 -194h-22l-166 8l-852 6
q-35 0 -35 16t67 20t82 18t15 77v477l-117 -82q-12 -8 -22 -8q-27 0 -27 25q0 10 29 30l137 97v612q0 76 -15.5 88t-109.5 12q-39 0 -39 23q0 18 25 18h18q68 -6 269 -6l159 6h23z" />
    <glyph glyph-name="lslash" unicode="&#x142;" horiz-adv-x="481" 
d="M158 211v479l-119 -82q-8 -6 -16 -6q-27 0 -27 25q0 8 24 24l138 97v505q0 68 -4 74q-6 16 -33 16h-17l-57 -2q-29 -1 -29 17t76 22t133 32t84 38q16 -57 15 -178l-2 -135v-301l141 96q4 4 12 4q27 0 27 -23q0 -8 -23 -24l-157 -109q2 -31 2 -82v-577q0 -61 2 -72.5
t9 -14.5t67 -4q60 -2 61 -18q0 -16 -27 -16h-24q-4 0 -109 4l-63 2l-189 -8q-31 -2 -30 18q1 14 63 14t67 10q5 9 5 175z" />
    <glyph glyph-name="Nacute" unicode="&#x143;" horiz-adv-x="1343" 
d="M186 1415q63 0 189 4l706 -1050v911q0 62 -2 76t-16 21t-93 7t-79 20t49 19l166 -2l100 2h64q45 0 45 -20t-51 -19l-45 2h-37q-33 0 -39 -11t-6 -68v-1180q0 -109 -2 -127q-1 -18 -13 -18t-28 22l-263 383q-227 334 -552 834l2 -1143q3 -27 31 -34t137 -9q27 0 26 -17
q0 -20 -53 -20l-180 8l-36 -4q-38 -4 -116 -4h-20q-47 0 -47 18t40 19q121 2 141 15q19 13 19 87v1010q0 170 -69 213q-34 20 -102 20t-68 20t30 19zM614 1851l168 -2h37l-186 -194q-123 -129 -139 -129t-17 7t13 39z" />
    <glyph glyph-name="nacute" unicode="&#x144;" horiz-adv-x="1001" 
d="M82 -4q-31 0 -31 14t37 19h51q31 0 37 14l6 31v446q0 233 -4 258t-51 25q-14 0 -49 -4h-10q-41 0 -41 16t52 17q52 2 124 22t95 42t34 22q14 0 14 -39v-99q106 138 264 138t224 -109q37 -61 36 -234v-466q0 -66 10 -75t36 -9t42 2h15q20 -1 20 -16t-30 -15h-25
q-37 4 -169 4t-169 -4h-14q-27 0 -27 12t11 14q10 2 64 5q54 2 60 11t6 66v394q0 223 -16 266q-35 92 -138 92t-173 -90q-20 -27 -21 -74l2 -639q0 -25 43 -26l62 -2q20 -1 20 -15t-24 -14h-33q-45 4 -143 4l-185 -4h-12zM475 1352l168 -2h37l-186 -195q-124 -129 -140 -129
t-16 8t72 174z" />
    <glyph glyph-name="Ncedilla" unicode="&#x145;" horiz-adv-x="1343" 
d="M186 1415q63 0 189 4l706 -1050v911q0 62 -2 76t-16 21t-93 7t-79 20t49 19l166 -2l100 2h64q45 0 45 -20t-51 -19l-45 2h-37q-33 0 -39 -11t-6 -68v-1180q0 -109 -2 -127q-1 -18 -13 -18t-28 22l-263 383q-227 334 -552 834l2 -1143q3 -27 31 -34t137 -9q27 0 26 -17
q0 -20 -53 -20l-180 8l-36 -4q-38 -4 -116 -4h-20q-47 0 -47 18t40 19q121 2 141 15q19 13 19 87v1010q0 170 -69 213q-34 20 -102 20t-68 20t30 19zM770 -268q0 -121 -94 -174q-66 -37 -98 -37t-31 12q0 12 20 16q76 21 105 51q28 30 28 80t-20 80q0 -55 -70 -55
q-36 0 -60 24q-24 23 -24 61t30 67t83 29t92 -44q39 -42 39 -110z" />
    <glyph glyph-name="ncedilla" unicode="&#x146;" horiz-adv-x="1001" 
d="M82 -4q-31 0 -31 14t37 19h51q31 0 37 14l6 31v446q0 233 -4 258t-51 25q-14 0 -49 -4h-10q-41 0 -41 16t52 17q52 2 124 22t95 42t34 22q14 0 14 -39v-99q106 138 264 138t224 -109q37 -61 36 -234v-466q0 -66 10 -75t36 -9t42 2h15q20 -1 20 -16t-30 -15h-25
q-37 4 -169 4t-169 -4h-14q-27 0 -27 12t11 14q10 2 64 5q54 2 60 11t6 66v394q0 223 -16 266q-35 92 -138 92t-173 -90q-20 -27 -21 -74l2 -639q0 -25 43 -26l62 -2q20 -1 20 -15t-24 -14h-33q-45 4 -143 4l-185 -4h-12zM631 -254q0 -121 -94 -174q-65 -37 -97 -37t-32 12
t20 17q76 20 104 50t29 80q0 50 -20 81q0 -55 -70 -56q-37 0 -61 24q-24 23 -23 61q0 38 30 67t83 29t92 -43t39 -111z" />
    <glyph glyph-name="Ncaron" unicode="&#x147;" horiz-adv-x="1343" 
d="M186 1415q63 0 189 4l706 -1050v911q0 62 -2 76t-16 21t-93 7t-79 20t49 19l166 -2l100 2h64q45 0 45 -20t-51 -19l-45 2h-37q-33 0 -39 -11t-6 -68v-1180q0 -109 -2 -127q-1 -18 -13 -18t-28 22l-263 383q-227 334 -552 834l2 -1143q3 -27 31 -34t137 -9q27 0 26 -17
q0 -20 -53 -20l-180 8l-36 -4q-38 -4 -116 -4h-20q-47 0 -47 18t40 19q121 2 141 15q19 13 19 87v1010q0 170 -69 213q-34 20 -102 20t-68 20t30 19zM891 1880q0 -4 -12 -16q-92 -90 -174 -267q-33 -71 -51 -71t-80 118q-64 118 -168 246h133q84 -84 149 -227q41 88 98 160
q57 71 81 71t24 -14z" />
    <glyph glyph-name="ncaron" unicode="&#x148;" horiz-adv-x="1001" 
d="M82 -4q-31 0 -31 14t37 19h51q31 0 37 14l6 31v446q0 233 -4 258t-51 25q-14 0 -49 -4h-10q-41 0 -41 16t52 17q52 2 124 22t95 42t34 22q14 0 14 -39v-99q106 138 264 138t224 -109q37 -61 36 -234v-466q0 -66 10 -75t36 -9t42 2h15q20 -1 20 -16t-30 -15h-25
q-37 4 -169 4t-169 -4h-14q-27 0 -27 12t11 14q10 2 64 5q54 2 60 11t6 66v394q0 223 -16 266q-35 92 -138 92t-173 -90q-20 -27 -21 -74l2 -639q0 -25 43 -26l62 -2q20 -1 20 -15t-24 -14h-33q-45 4 -143 4l-185 -4h-12zM752 1374q0 -4 -13 -16q-92 -90 -174 -266
q-33 -72 -50 -72t-81 119t-168 245h133q84 -84 150 -227q41 88 98 160q57 71 81 71t24 -14z" />
    <glyph glyph-name="napostrophe" unicode="&#x149;" horiz-adv-x="1333" 
d="M424 1251q0 -150 -119 -217q-82 -47 -121 -47q-39 -1 -39 15t25 22q94 28 131 64t37 98t-27 102q0 -70 -88 -69q-45 -1 -75 29t-30 77t39 83q37 36 103 36t115 -54t49 -139zM414 -4q-31 0 -31 14t37 19h51q31 0 37 14l6 31v446q0 233 -4 258t-51 25q-14 0 -49 -4h-11
q-41 0 -41 16t52 17q52 2 124 22t96 42q23 22 34 22q14 0 14 -39v-99q106 138 264 138t223 -109q37 -61 37 -234v-466q0 -66 9 -75t36 -9t43 2h15q20 -1 20 -16t-31 -15h-24q-38 4 -170 4t-168 -4h-14q-27 0 -27 12t11 14q10 2 64 5q54 2 60 11t6 66v394q0 223 -16 266
q-35 92 -138 92t-173 -90q-20 -27 -21 -74l2 -639q0 -25 43 -26l62 -2q20 -1 20 -15t-25 -14h-32q-45 4 -144 4l-184 -4h-12z" />
    <glyph glyph-name="Eng" unicode="&#x14a;" horiz-adv-x="1343" 
d="M186 1415q63 0 189 4l706 -1050v911q0 62 -2 76t-16 21t-93 7t-79 20t49 19h129q33 -2 37 -2t39 2h125q45 0 45 -20t-51 -19l-45 2h-37q-33 0 -39 -11t-6 -68v-1180q0 -92 -2 -119h2q-2 -280 -78 -408t-207 -128q-63 0 -106 32q-42 33 -41 82q0 96 104 97q86 0 86 -72
l-14 -82q0 -18 12 -18q39 0 56 62t18 615l-136 199q-227 334 -552 834l2 -1143q3 -27 31 -34t137 -9q27 0 26 -17q0 -20 -53 -20l-180 8l-36 -4q-38 -4 -116 -4h-20q-47 0 -47 18t40 19q121 2 141 15q19 13 19 87v1010q0 170 -69 213q-34 20 -102 20t-68 20t30 19z" />
    <glyph glyph-name="eng" unicode="&#x14b;" horiz-adv-x="1001" 
d="M82 -4q-31 0 -31 14t37 19h51q31 0 37 14l6 31v446q0 233 -4 258t-51 25q-14 0 -49 -4h-10q-41 0 -41 16t52 17q52 2 124 22t95 42t34 22q14 0 14 -39v-99q106 138 264 138t224 -109q37 -61 36 -234v-690h-2q-12 -176 -75 -284q-76 -129 -207 -129q-63 0 -106 32
q-42 33 -42 82q0 96 105 97q86 0 86 -72l-15 -82q0 -18 13 -18q39 0 56 62t17 312v613q0 223 -16 266q-35 92 -138 92t-173 -90q-20 -27 -21 -74l2 -639q0 -25 43 -26l62 -2q20 -1 20 -15t-24 -14h-33q-45 4 -143 4l-185 -4h-12z" />
    <glyph glyph-name="Omacron" unicode="&#x14c;" horiz-adv-x="1474" 
d="M1159 692q0 375 -153 584q-96 131 -264 131t-259 -100q-166 -184 -166 -600q0 -330 116 -512q116 -183 318 -183t300 172q108 191 108 508zM739 1444q281 0 465 -214t185 -523q1 -310 -183 -521t-458 -211t-468 214q-192 215 -192 531t185 520t466 204zM979 1546h-485
v101h485v-101z" />
    <glyph glyph-name="omacron" unicode="&#x14d;" horiz-adv-x="983" 
d="M735 440q0 229 -69 355q-51 92 -169 92t-183 -118q-64 -118 -64 -326q0 -207 68 -323t192 -116q94 0 139 72q86 135 86 364zM922 444q0 -200 -121 -334t-304 -134t-309 134t-125 336q0 202 122 336q122 136 305 136q184 0 308 -136t124 -338zM733 1026h-485v100h485v-100
z" />
    <glyph glyph-name="Obreve" unicode="&#x14e;" horiz-adv-x="1474" 
d="M1159 692q0 375 -153 584q-96 131 -264 131t-259 -100q-166 -184 -166 -600q0 -330 116 -512q116 -183 318 -183t300 172q108 191 108 508zM739 1444q281 0 465 -214t185 -523q1 -310 -183 -521t-458 -211t-468 214q-192 215 -192 531t185 520t466 204zM965 1780
q0 -96 -68 -165t-165 -69q-98 0 -160 64t-62 164q0 25 18 24q8 0 13 -16q33 -131 197 -131t194 121q6 27 20 26q13 0 13 -18z" />
    <glyph glyph-name="obreve" unicode="&#x14f;" horiz-adv-x="983" 
d="M735 440q0 229 -69 355q-51 92 -169 92t-183 -118q-64 -118 -64 -326q0 -207 68 -323t192 -116q94 0 139 72q86 135 86 364zM922 444q0 -200 -121 -334t-304 -134t-309 134t-125 336q0 202 122 336q122 136 305 136q184 0 308 -136t124 -338zM719 1260q0 -96 -68 -165
t-165 -69t-159 64t-63 163q0 25 19 25q8 0 12 -16q33 -132 197 -132t194 121q6 27 20 27t13 -18z" />
    <glyph glyph-name="Ohungarumlaut" unicode="&#x150;" horiz-adv-x="1474" 
d="M1159 692q0 375 -153 584q-96 131 -264 131t-259 -100q-166 -184 -166 -600q0 -330 116 -512q116 -183 318 -183t300 172q108 191 108 508zM739 1444q281 0 465 -214t185 -523q1 -310 -183 -521t-458 -211t-468 214q-192 215 -192 531t185 520t466 204zM537 1872l151 -2
h39l-254 -252q-72 -72 -85 -72t-13 8t5 16t15 27l19 39q8 14 49 93zM907 1872l150 -2h41l-199 -195q-131 -129 -143 -129t-13 10l5 13l16 28q2 2 18 39q10 16 27 54z" />
    <glyph glyph-name="ohungarumlaut" unicode="&#x151;" horiz-adv-x="983" 
d="M735 440q0 229 -69 355q-51 92 -169 92t-183 -118q-64 -118 -64 -326q0 -207 68 -323t192 -116q94 0 139 72q86 135 86 364zM922 444q0 -200 -121 -334t-304 -134t-309 134t-125 336q0 202 122 336q122 136 305 136q184 0 308 -136t124 -338zM291 1352l151 -2h39
l-254 -252q-72 -72 -85 -72t-13 8t21 43l18 39q8 14 49 92zM662 1352l149 -2h41l-199 -195q-131 -129 -143 -129t-12 10l4 13l16 28q9 9 45 92z" />
    <glyph glyph-name="OE" unicode="&#x152;" horiz-adv-x="1937" 
d="M965 152v1134q0 74 -39 92q-20 10 -136 10t-198 -34q-301 -127 -301 -629q0 -330 131 -511t366 -181q111 0 136 12q41 21 41 107zM1839 1053q-14 0 -18 22q-33 188 -110 248.5t-370 60.5q-111 0 -174 -2v-608h95q201 0 246.5 37t58.5 201q4 43 22 43q23 0 23 -37v-25
q0 -74 -5 -126.5t-5 -170.5t6 -165t6 -70t-21 -23q-14 0 -19 19.5t-20 122.5q-16 129 -139 147q-33 4 -248 8v-694q66 -2 198 -2t189 6q162 16 222 76q31 31 40 60.5t29 156.5q6 37 31 37q20 0 20 -51l-2 -39q-6 -117 -6 -211v-86q-211 10 -647 10h-323q-207 0 -271 10
q-248 39 -404.5 233.5t-156.5 443.5t106.5 432t282.5 259q119 51 303 58q-82 -4 314 -7l276 -2q393 -2 461 7q29 -351 29 -365t-19 -14z" />
    <glyph glyph-name="oe" unicode="&#x153;" horiz-adv-x="1525" 
d="M737 438q0 232 -71 357q-53 94 -169 94t-180.5 -120t-64.5 -329t68.5 -322.5t193.5 -113.5q92 0 137 70q86 132 86 364zM1118 889q-160 0 -207 -248h385q-2 248 -178 248zM1475 223q0 -37 -62 -119q-97 -129 -285 -129t-317 170q-119 -170 -309 -170t-314.5 135.5
t-124.5 336t123 336t311 135.5t308 -148q135 148 317 148t287 -134q55 -72 61 -170q-51 -6 -79 -6h-195q-63 0 -291 -6q-10 -61 -10 -129q0 -207 80 -318.5t227 -111.5q84 0 137 46q53 45 77 97t42 52q17 -1 17 -15z" />
    <glyph glyph-name="Racute" unicode="&#x154;" horiz-adv-x="1204" 
d="M793 1087q0 293 -254 293q-68 0 -93 -18t-24 -66v-520q197 -2 284 72t87 239zM436 0l-264 -2h-80q-45 0 -45 16q-1 16 77 18t87 25q8 10 8 80v1131q0 82 -17 98t-87 17t-70 21t33 19q6 0 18 -2l273 -6l229 6q190 0 302 -85t112 -229q0 -143 -115 -237t-311 -110
q-18 -2 -21 -6q0 -8 21 -9q215 -37 296 -151t107 -410q16 -168 115 -168q31 0 31 13l-13 41q0 43 45 43q50 -1 50 -52q0 -86 -152 -86t-242 134q-39 57 -50 110t-34 270q-12 131 -84 185t-233 59v-645q0 -41 65 -51q18 -2 95 -4q27 0 26 -17q0 -18 -35 -18h-24q-17 2 -113 2
zM596 1851l168 -2h37l-187 -194q-123 -129 -139 -129t-16 7q-1 7 13 39t58 136z" />
    <glyph glyph-name="racute" unicode="&#x155;" horiz-adv-x="692" 
d="M37 10q0 14 26 15h29q70 0 82 16q4 8 4 76v563q0 113 -34 130t-107 19q-25 1 -25 15t21 14h14q31 0 62 -3l26 -3q76 0 168 43l27 12l16 6q8 -49 8 -98v-41q66 143 185 144q67 0 109 -40t42 -94q0 -53 -28 -84q-28 -30 -70 -30q-41 0 -66 22q-24 22 -24 52t18 50t19 29
q0 31 -51 31q-52 0 -96 -78t-44 -305v-405q0 -25 18 -31t105 -8q23 -3 23 -17t-27 -14l-244 4l-153 -4q-33 0 -33 14zM315 1352l168 -2h37l-186 -195q-124 -129 -140 -129t-16 8t72 174z" />
    <glyph glyph-name="Rcedilla" unicode="&#x156;" horiz-adv-x="1204" 
d="M793 1087q0 293 -254 293q-68 0 -93 -18t-24 -66v-520q197 -2 284 72t87 239zM436 0l-264 -2h-80q-45 0 -45 16q-1 16 77 18t87 25q8 10 8 80v1131q0 82 -17 98t-87 17t-70 21t33 19q6 0 18 -2l273 -6l229 6q190 0 302 -85t112 -229q0 -143 -115 -237t-311 -110
q-18 -2 -21 -6q0 -8 21 -9q215 -37 296 -151t107 -410q16 -168 115 -168q31 0 31 13l-13 41q0 43 45 43q50 -1 50 -52q0 -86 -152 -86t-242 134q-39 57 -50 110t-34 270q-12 131 -84 185t-233 59v-645q0 -41 65 -51q18 -2 95 -4q27 0 26 -17q0 -18 -35 -18h-24q-17 2 -113 2
zM752 -274q0 -121 -95 -175q-66 -37 -97 -37t-32 13q0 12 21 16q77 20 105 50t28 80t-20 81q0 -55 -70 -55q-37 -1 -61 23q-23 24 -23 62t30 66t82 29q52 -1 92 -43t40 -110z" />
    <glyph glyph-name="rcedilla" unicode="&#x157;" horiz-adv-x="692" 
d="M37 10q0 14 26 15h29q70 0 82 16q4 8 4 76v563q0 113 -34 130t-107 19q-25 1 -25 15t21 14h14q31 0 62 -3l26 -3q76 0 168 43l27 12l16 6q8 -49 8 -98v-41q66 143 185 144q67 0 109 -40t42 -94q0 -53 -28 -84q-28 -30 -70 -30q-41 0 -66 22q-24 22 -24 52t18 50t19 29
q0 31 -51 31q-52 0 -96 -78t-44 -305v-405q0 -25 18 -31t105 -8q23 -3 23 -17t-27 -14l-244 4l-153 -4q-33 0 -33 14zM471 -254q0 -121 -94 -174q-65 -37 -97 -37t-32 12t20 17q76 20 105 50t29 80t-21 81q0 -55 -70 -56q-37 0 -61 24q-24 23 -23 61q0 38 30 67t83 29
t92 -43t39 -111z" />
    <glyph glyph-name="Rcaron" unicode="&#x158;" horiz-adv-x="1204" 
d="M793 1087q0 293 -254 293q-68 0 -93 -18t-24 -66v-520q197 -2 284 72t87 239zM436 0l-264 -2h-80q-45 0 -45 16q-1 16 77 18t87 25q8 10 8 80v1131q0 82 -17 98t-87 17t-70 21t33 19q6 0 18 -2l273 -6l229 6q190 0 302 -85t112 -229q0 -143 -115 -237t-311 -110
q-18 -2 -21 -6q0 -8 21 -9q215 -37 296 -151t107 -410q16 -168 115 -168q31 0 31 13l-13 41q0 43 45 43q50 -1 50 -52q0 -86 -152 -86t-242 134q-39 57 -50 110t-34 270q-12 131 -84 185t-233 59v-645q0 -41 65 -51q18 -2 95 -4q27 0 26 -17q0 -18 -35 -18h-24q-17 2 -113 2
zM872 1880q0 -4 -12 -16q-92 -90 -174 -267q-33 -71 -50 -71q-16 0 -80 118t-169 246h133q84 -84 150 -227q41 88 98 160q56 71 80 71t24 -14z" />
    <glyph glyph-name="rcaron" unicode="&#x159;" horiz-adv-x="692" 
d="M37 10q0 14 26 15h29q70 0 82 16q4 8 4 76v563q0 113 -34 130t-107 19q-25 1 -25 15t21 14h14q31 0 62 -3l26 -3q76 0 168 43l27 12l16 6q8 -49 8 -98v-41q66 143 185 144q67 0 109 -40t42 -94q0 -53 -28 -84q-28 -30 -70 -30q-41 0 -66 22q-24 22 -24 52t18 50t19 29
q0 31 -51 31q-52 0 -96 -78t-44 -305v-405q0 -25 18 -31t105 -8q23 -3 23 -17t-27 -14l-244 4l-153 -4q-33 0 -33 14zM592 1374q0 -4 -12 -16q-92 -90 -174 -266q-32 -72 -50 -72t-82 119t-168 245h134q84 -84 149 -227q41 88 98 160q57 71 81 71t24 -14z" />
    <glyph glyph-name="Sacute" unicode="&#x15a;" horiz-adv-x="1019" 
d="M135 430q22 0 31 -49q53 -365 346 -365q125 0 194 71q68 71 68 193t-66 202t-246 169q-178 88 -254 178t-75 242q0 153 110 263t277 110q70 0 153 -32t105 -32t28 8q7 8 12 36q4 28 24 28t20 -20t-4 -50q-4 -28 -4 -112t10 -142l2 -32q2 -23 -20 -23t-29 47
q-23 121 -106 202t-187 81t-164 -66q-60 -65 -61 -187q0 -122 88 -202q49 -45 227 -134q178 -88 263 -188q84 -100 84 -227q-1 -176 -135 -300t-322 -124q-111 0 -264 68q-41 18 -64 18t-27 -45t-26 -45q-33 0 -21 49q16 125 17 232l-6 147q0 31 22 31zM496 1880l168 -2h36
l-186 -195q-123 -129 -143 -129t-9 23q23 55 68 160z" />
    <glyph glyph-name="sacute" unicode="&#x15b;" horiz-adv-x="741" 
d="M100 266q0 23 16 23t17 -23q12 -94 53 -147q82 -106 220 -107q74 0 118 43t45 119q0 76 -51 123q-28 27 -52 38t-138 54q-227 86 -228 258q0 115 78 193t193 78q41 0 92 -16t67 -15q43 0 54 41q6 20 19 20t13 -16q0 -2 -2 -12l-2 -86q-2 -49 11 -158v-4q0 -16 -17 -17
q-12 0 -33 68t-76 113q-56 45 -128 45t-117 -43t-45 -109q0 -102 137 -156q212 -83 278 -147t66 -174t-87 -194q-87 -83 -208 -83q-70 0 -170 50q-27 14 -51 14t-36 -32q-11 -32 -25 -32q-19 0 -13 41t6 121l-4 107v22zM356 1376l168 -2h37l-186 -194q-123 -129 -139 -129
t-17 7q-1 6 13 38z" />
    <glyph glyph-name="Scircumflex" unicode="&#x15c;" horiz-adv-x="1019" 
d="M135 430q22 0 31 -49q53 -365 346 -365q125 0 194 71q68 71 68 193t-66 202t-246 169q-178 88 -254 178t-75 242q0 153 110 263t277 110q70 0 153 -32t105 -32t28 8q7 8 12 36q4 28 24 28t20 -20t-4 -50q-4 -28 -4 -112t10 -142l2 -32q2 -23 -20 -23t-29 47
q-23 121 -106 202t-187 81t-164 -66q-60 -65 -61 -187q0 -122 88 -202q49 -45 227 -134q178 -88 263 -188q84 -100 84 -227q-1 -176 -135 -300t-322 -124q-111 0 -264 68q-41 18 -64 18t-27 -45t-26 -45q-33 0 -21 49q16 125 17 232l-6 147q0 31 22 31zM310 1554
q-24 0 -23 15q0 8 12 16q94 94 174 266q33 72 50 72t57 -74q79 -153 194 -290h-135q-76 72 -150 227q-43 -88 -99 -160t-80 -72z" />
    <glyph glyph-name="scircumflex" unicode="&#x15d;" horiz-adv-x="741" 
d="M100 266q0 23 16 23t17 -23q12 -94 53 -147q82 -106 220 -107q74 0 118 43t45 119q0 76 -51 123q-28 27 -52 38t-138 54q-227 86 -228 258q0 115 78 193t193 78q41 0 92 -16t67 -15q43 0 54 41q6 20 19 20t13 -16q0 -2 -2 -12l-2 -86q-2 -49 11 -158v-4q0 -16 -17 -17
q-12 0 -33 68t-76 113q-56 45 -128 45t-117 -43t-45 -109q0 -102 137 -156q212 -83 278 -147t66 -174t-87 -194q-87 -83 -208 -83q-70 0 -170 50q-27 14 -51 14t-36 -32q-11 -32 -25 -32q-19 0 -13 41t6 121l-4 107v22zM635 1055h-135q-76 72 -150 227q-43 -88 -99 -160
q-55 -72 -79 -72t-24 12q0 11 12 19q94 94 174 267q33 72 50 72t56 -74q80 -154 195 -291z" />
    <glyph glyph-name="Scedilla" unicode="&#x15e;" horiz-adv-x="1019" 
d="M135 430q22 0 31 -49q53 -365 346 -365q125 0 194 71q68 71 68 193t-66 202t-246 169q-178 88 -254 178t-75 242q0 153 110 263t277 110q70 0 153 -32t105 -32t28 8q7 8 12 36q4 28 24 28t20 -20t-4 -50q-4 -28 -4 -112t10 -142l2 -32q2 -23 -20 -23t-29 47
q-23 121 -106 202t-187 81t-164 -66q-60 -65 -61 -187q0 -122 88 -202q49 -45 227 -134q178 -88 263 -188q84 -100 84 -227q0 -177 -133 -299t-316 -125v-49q82 0 136 -44t54 -112t-56 -116q-56 -49 -120 -49q-64 -1 -116 25q-53 26 -54 48q0 12 12 12t36 -19t65 -19t73 45
t31 104q0 98 -75 99q-18 0 -29 -2v79q-99 9 -229 66q-41 18 -64 18t-27 -45t-26 -45q-33 0 -21 49q16 125 17 232l-6 147q0 31 22 31z" />
    <glyph glyph-name="scedilla" unicode="&#x15f;" horiz-adv-x="741" 
d="M100 266q0 23 16 23t17 -23q12 -94 53 -147q82 -106 220 -107q74 0 118 43t45 119q0 76 -51 123q-28 27 -52 38t-138 54q-227 86 -228 258q0 115 78 193t193 78q41 0 92 -16t67 -15q43 0 54 41q6 20 19 20t13 -16q0 -2 -2 -12l-2 -86q-2 -49 11 -158v-4q0 -16 -17 -17
q-12 0 -33 68t-76 113q-56 45 -128 45t-117 -43t-45 -109q0 -102 137 -156q212 -83 278 -147t66 -174t-87 -194q-87 -83 -208 -83v-45q82 0 136 -44q55 -44 55 -112t-56 -116q-56 -49 -120 -49q-64 -1 -117 25t-53 49q0 12 14 12q8 0 33 -20q25 -19 65 -19t73 45
q32 45 32 104q0 98 -76 99q-18 0 -29 -2v78q-56 10 -105 34t-73 25q-24 0 -36 -32q-11 -32 -25 -32q-19 0 -13 41t6 121l-4 107v22z" />
    <glyph glyph-name="Scaron" unicode="&#x160;" horiz-adv-x="1019" 
d="M135 430q22 0 31 -49q53 -365 346 -365q125 0 193.5 71t68.5 193t-67 202.5t-245 168.5t-253.5 178.5t-75.5 223.5q0 170 109.5 280.5t277.5 110.5q70 0 153 -32t105 -32t28.5 8t11.5 36q4 28 24 28t20 -20t-4 -50q-4 -28 -4 -112t10 -142l2 -32q2 -23 -20 -23t-29 47
q-23 121 -106 202t-187 81t-164.5 -65.5t-60.5 -187.5t88 -202q49 -45 227 -134t262.5 -188.5t84.5 -226.5q0 -176 -134.5 -300t-322.5 -124q-111 0 -264 68q-41 18 -64 18t-27 -45t-26 -45q-33 0 -21 49q16 125 17 232l-6 147q0 31 22 31zM768 1892q0 -4 -12 -16
q-92 -90 -174 -266q-32 -72 -50 -72t-78 114t-171 251h133q78 -76 149 -228q41 88 98 159.5t81 71.5t24 -14z" />
    <glyph glyph-name="scaron" unicode="&#x161;" horiz-adv-x="741" 
d="M100 266q0 23 16 23t17 -23q12 -94 53 -147q82 -106 220 -107q74 0 118.5 43t44.5 119t-51 123q-29 27 -52.5 38t-137.5 54q-227 86 -228 258q0 115 78 193t193 78q41 0 92 -16t67 -15q43 0 54 41q6 20 19 20t13 -16q0 -2 -2 -12l-2 -86q-2 -49 11 -158v-4q0 -16 -17 -17
q-12 0 -33 68t-77 113t-128 45t-116.5 -43t-44.5 -109q0 -102 137 -156q212 -83 278 -147t66 -174t-87 -193.5t-208 -83.5q-70 0 -170 50q-27 14 -51 14t-36 -32q-11 -32 -25.5 -32t-14.5 17q0 10 4 38t4 107l-4 107v22zM631 1374q0 -4 -13 -16q-92 -90 -174 -266
q-33 -72 -50 -72q-16 0 -80 119t-169 245h134q84 -84 149 -227q41 88 98.5 159.5t81.5 71.5t23 -14z" />
    <glyph glyph-name="Tcedilla" unicode="&#x162;" horiz-adv-x="1200" 
d="M1144 1032q-24 0 -31 45t-16 101t-42 106q-43 68 -136 85t-225 5v-1235q0 -74 39 -92q20 -10 115 -12q25 -2 24 -19q0 -18 -32 -18l-203 6h-53v-55q82 0 136 -44t54 -112t-56 -117t-120 -49t-116 26q-54 26 -54 48q0 12 14 12q8 1 33 -19t66 -20t73 45t31 105
q0 98 -76 98q-18 0 -28 -2v83l-183 -3q-47 0 -47 17q-1 17 75 19t90 22q14 21 16 89v1227q-203 -2 -252 -20q-129 -47 -152 -252q-6 -61 -29 -62q-25 0 -25 33t3 55l4 48q6 94 18 247h93l417 -6q74 -2 230 2l340 6q4 -115 26 -340l4 -26q-1 -27 -25 -27z" />
    <glyph glyph-name="tcedilla" unicode="&#x163;" horiz-adv-x="581" 
d="M360 -25q-23 0 -43 3v-48q83 0 137 -44t54 -112t-56 -116q-56 -49 -120 -49q-64 -1 -117 25t-53 49q0 12 14 12q8 0 33 -20q25 -19 65 -19t73 45q32 45 32 104q0 98 -76 99q-18 0 -29 -2v84q-51 14 -84 47t-32 192v611q-2 20 -23 22h-78q-45 0 -45 14t23 17
q160 14 250 155q12 18 28 18t17 -13v-9q-2 -10 -2 -65t8 -80q18 -4 96 -4t100 6t29 6q16 0 17 -18q0 -31 -166 -31q-29 0 -84 2v-379q0 -287 14 -359t88 -73q74 0 158 76q8 10 20 10t13 -14q0 -14 -52 -62q-88 -80 -209 -80z" />
    <glyph glyph-name="Tcaron" unicode="&#x164;" horiz-adv-x="1200" 
d="M1144 1032q-24 0 -31 45t-16 101t-42 106q-43 68 -136 85t-225 5v-1235q0 -74 39 -92q20 -10 115 -12q25 -2 24 -19q0 -18 -32 -18l-203 6l-279 -4q-47 0 -47 17q-1 17 75 19t90 22q14 21 16 89v1227q-203 -2 -252 -20q-129 -47 -152 -252q-6 -61 -29 -62q-25 0 -25 33
t3 55l4 48q6 94 18 247h93l417 -6q74 -2 230 2l340 6q4 -115 26 -340l4 -26q-1 -27 -25 -27zM844 1882q0 -4 -13 -16q-92 -90 -174 -267q-33 -71 -50 -71t-81 119t-168 245h134q84 -84 149 -227q41 88 98 160q57 71 81 71t24 -14z" />
    <glyph glyph-name="tcaron" unicode="&#x165;" horiz-adv-x="581" 
d="M364 -25q-117 0 -174 58q-33 33 -32 192v611q-2 20 -23 22h-78q-45 0 -45 14t23 17q160 14 250 155q12 18 28 18t17 -13v-9q-2 -10 -2 -65t8 -80q18 -4 96 -4t100 6t29 6q16 0 17 -18q0 -31 -166 -31q-29 0 -84 2v-379q0 -287 14 -359t88 -73q74 0 158 76q8 10 20 10
t13 -14q0 -14 -52 -62q-88 -80 -205 -80zM608 1214q0 -119 -96 -173q-66 -38 -98 -38t-31 12q0 12 20 17q76 20 106 50q29 30 29 80t-21 81q0 -56 -71 -55q-36 0 -60 24t-24 60q0 38 30 67q32 29 84 29t92 -44t40 -110z" />
    <glyph glyph-name="Tbar" unicode="&#x166;" horiz-adv-x="1200" 
d="M1144 1032q-24 0 -34 53l-8 74q-14 74 -47 125q-43 68 -136 85t-225 5v-651h318v-74h-318v-510q0 -74 39 -92q20 -10 115 -12q25 -2 24 -19q0 -18 -32 -18l-203 6l-279 -4q-47 0 -47 17q-1 17 75 19t90 22q14 21 16 89v502h-330v74h330v651q-203 -2 -252 -20
q-129 -47 -152 -252q-6 -61 -29 -62q-25 0 -25 33t3 55l4 48q6 94 18 247h93l417 -6q74 -2 230 2l340 6q4 -115 26 -340l4 -26q-1 -27 -25 -27z" />
    <glyph glyph-name="tbar" unicode="&#x167;" horiz-adv-x="581" 
d="M541 444h-213q0 -258 14 -328t88 -71q74 0 158 76q8 10 20 10t12 -14t-51 -62q-88 -80 -205 -80t-174 58q-33 33 -32 192v219h-140v74h140v318q-2 20 -23 22h-78q-45 0 -45 14t23 17q160 14 250 155q12 18 28 18t17 -13v-9q-2 -10 -2 -65t8 -80q18 -4 96 -4t100 6t29 6
q16 0 17 -18q0 -31 -166 -31q-29 0 -84 2v-338h213v-74z" />
    <glyph glyph-name="Utilde" unicode="&#x168;" horiz-adv-x="1363" 
d="M1178 1421l90 2h30q48 0 48 -19t-37 -20l-70 5q-51 0 -61 -27q-4 -14 -4 -47v-768q0 -299 -112 -435t-360 -137q-297 0 -417 168q-80 113 -80 371l-2 821q-6 37 -49 45q-12 2 -76 2q-35 4 -35 22t29 17h37l106 -2l293 2q10 2 34 2t25 -22q0 -15 -12 -17q-11 -2 -61 -3
t-65 -7t-17 -20t-2 -123v-733q0 -270 86 -368t256 -99q311 0 352 354q6 53 6 451v116l2 164l-2 141v46l2 22q0 45 -43 55q-13 4 -69 4t-56 23q0 18 29 18zM985 1710q0 -51 -42 -117t-122 -65q-55 0 -183 68t-148 67q-20 0 -32 -14q-32 -34 17 -84q10 -7 10 -19t-20 -12
t-41 26q-20 26 -20 66t43 81q44 40 108 40q65 -1 187 -63t149 -62t42 52t34 52q18 0 18 -16z" />
    <glyph glyph-name="utilde" unicode="&#x169;" horiz-adv-x="1003" 
d="M326 322q0 -158 20 -209q34 -80 138 -80t155 90q37 66 37 209v317q0 70 -2 105l-4 67q-2 31 -14 36t-72 4t-60 20q0 12 43 12h19q16 -2 124 -2t136 2v-571q0 -146 6 -186t32 -46t115 -6q25 0 25 -14t-45 -17q-160 -10 -281 -69q-8 -4 -14 -4q-12 0 -12 16l2 115
q-94 -135 -255 -135t-226 87q-27 37 -32 68t-5 166v469q0 72 -8 84t-56 14l-26 -2q-55 -4 -56 17q0 14 35 14l148 -6q72 0 133 6v-571zM807 1184q0 -51 -42 -117q-41 -66 -109 -66t-196 68t-148 68q-20 -1 -32 -15q-14 -14 -14 -32t31 -52q10 -6 10 -18t-20 -12t-41 25
q-20 27 -20 67t43 80q44 40 108 41q65 -1 187 -63t149 -62t42 52t33 52t19 -16z" />
    <glyph glyph-name="Umacron" unicode="&#x16a;" horiz-adv-x="1363" 
d="M1178 1421l90 2h30q48 0 48 -19t-37 -20l-70 5q-51 0 -61 -27q-4 -14 -4 -47v-768q0 -299 -112 -435t-360 -137q-297 0 -417 168q-80 113 -80 371l-2 821q-6 37 -49 45q-12 2 -76 2q-35 4 -35 22t29 17h37l106 -2l293 2q10 2 34 2t25 -22q0 -15 -12 -17q-11 -2 -61 -3
t-65 -7t-17 -20t-2 -123v-733q0 -270 86 -368t256 -99q311 0 352 354q6 53 6 451v116l2 164l-2 141v46l2 22q0 45 -43 55q-13 4 -69 4t-56 23q0 18 29 18zM936 1528h-485v100h485v-100z" />
    <glyph glyph-name="umacron" unicode="&#x16b;" horiz-adv-x="1003" 
d="M326 322q0 -158 20 -209q34 -80 138 -80t155 90q37 66 37 209v317q0 70 -2 105l-4 67q-2 31 -14 36t-72 4t-60 20q0 12 43 12h19q16 -2 124 -2t136 2v-571q0 -146 6 -186t32 -46t115 -6q25 0 25 -14t-45 -17q-160 -10 -281 -69q-8 -4 -14 -4q-12 0 -12 16l2 115
q-94 -135 -255 -135t-226 87q-27 37 -32 68t-5 166v469q0 72 -8 84t-56 14l-26 -2q-55 -4 -56 17q0 14 35 14l148 -6q72 0 133 6v-571zM758 1001h-486v101h486v-101z" />
    <glyph glyph-name="Ubreve" unicode="&#x16c;" horiz-adv-x="1363" 
d="M1178 1421l90 2h30q48 0 48 -19t-37 -20l-70 5q-51 0 -61 -27q-4 -14 -4 -47v-768q0 -299 -112 -435t-360 -137q-297 0 -417 168q-80 113 -80 371l-2 821q-6 37 -49 45q-12 2 -76 2q-35 4 -35 22t29 17h37l106 -2l293 2q10 2 34 2t25 -22q0 -15 -12 -17q-11 -2 -61 -3
t-65 -7t-17 -20t-2 -123v-733q0 -270 86 -368t256 -99q311 0 352 354q6 53 6 451v116l2 164l-2 141v46l2 22q0 45 -43 55q-13 4 -69 4t-56 23q0 18 29 18zM922 1761q0 -96 -68 -165q-68 -68 -165 -68t-160 63q-62 63 -62 164q0 25 18 25q8 0 13 -17q32 -131 196 -131
t195 121q6 27 20 27q13 -1 13 -19z" />
    <glyph glyph-name="ubreve" unicode="&#x16d;" horiz-adv-x="1003" 
d="M326 322q0 -158 20 -209q34 -80 138 -80t155 90q37 66 37 209v317q0 70 -2 105l-4 67q-2 31 -14 36t-72 4t-60 20q0 12 43 12h19q16 -2 124 -2t136 2v-571q0 -146 6 -186t32 -46t115 -6q25 0 25 -14t-45 -17q-160 -10 -281 -69q-8 -4 -14 -4q-12 0 -12 16l2 115
q-94 -135 -255 -135t-226 87q-27 37 -32 68t-5 166v469q0 72 -8 84t-56 14l-26 -2q-55 -4 -56 17q0 14 35 14l148 -6q72 0 133 6v-571zM743 1235q1 -96 -67 -165t-165 -69q-97 -1 -159 63t-63 165q0 25 18 24q8 0 12 -16q33 -131 197 -131t195 121q6 27 20 26q12 0 12 -18z
" />
    <glyph glyph-name="Uring" unicode="&#x16e;" horiz-adv-x="1363" 
d="M1178 1421l90 2h30q48 0 48 -19t-37 -20l-70 5q-51 0 -61 -27q-4 -14 -4 -47v-768q0 -299 -112 -435t-360 -137q-297 0 -417 168q-80 113 -80 371l-2 821q-6 37 -49 45q-12 2 -76 2q-35 4 -35 22t29 17h37l106 -2l293 2q10 2 34 2t25 -22q0 -15 -12 -17q-11 -2 -61 -3
t-65 -7t-17 -20t-2 -123v-733q0 -270 86 -368t256 -99q311 0 352 354q6 53 6 451v116l2 164l-2 141v46l2 22q0 45 -43 55q-13 4 -69 4t-56 23q0 18 29 18zM805 1705q0 52 -32 85t-79 33t-78 -35q-30 -35 -30 -85t32 -84t78 -34q47 0 78 34t31 86zM874 1703q0 -75 -52 -125
t-128 -50t-128 51t-52 125t52 125t128 51t128 -51t52 -126z" />
    <glyph glyph-name="uring" unicode="&#x16f;" horiz-adv-x="1003" 
d="M326 322q0 -158 20 -209q34 -80 138 -80t155 90q37 66 37 209v317q0 70 -2 105l-4 67q-2 31 -14 36t-72 4t-60 20q0 12 43 12h19q16 -2 124 -2t136 2v-571q0 -146 6 -186t32 -46t115 -6q25 0 25 -14t-45 -17q-160 -10 -281 -69q-8 -4 -14 -4q-12 0 -12 16l2 115
q-94 -135 -255 -135t-226 87q-27 37 -32 68t-5 166v469q0 72 -8 84t-56 14l-26 -2q-55 -4 -56 17q0 14 35 14l148 -6q72 0 133 6v-571zM627 1179q0 52 -32 85q-32 32 -79 32t-78 -34q-30 -34 -30 -85q0 -50 32 -84t78 -34q47 0 78 34t31 86zM696 1177q0 -75 -52 -125
t-128 -50t-128 50q-52 52 -52 126t52 125t128 51t128 -51t52 -126z" />
    <glyph glyph-name="Uhungarumlaut" unicode="&#x170;" horiz-adv-x="1363" 
d="M1178 1421l90 2h30q48 0 48 -19t-37 -20l-70 5q-51 0 -61 -27q-4 -14 -4 -47v-768q0 -299 -112 -435t-360 -137q-297 0 -417 168q-80 113 -80 371l-2 821q-6 37 -49 45q-12 2 -76 2q-35 4 -35 22t29 17h37l106 -2l293 2q10 2 34 2t25 -22q0 -15 -12 -17q-11 -2 -61 -3
t-65 -7t-17 -20t-2 -123v-733q0 -270 86 -368t256 -99q311 0 352 354q6 53 6 451v116l2 164l-2 141v46l2 22q0 45 -43 55q-13 4 -69 4t-56 23q0 18 29 18zM494 1853l151 -2h39l-254 -252q-72 -71 -85 -71t-13 8t5 16t15 27l19 39q8 14 49 92zM864 1853l150 -2h41l-199 -194
q-131 -129 -143 -129t-13 10l5 12l16 29q2 2 18 39q10 16 27 53z" />
    <glyph glyph-name="uhungarumlaut" unicode="&#x171;" horiz-adv-x="1003" 
d="M326 322q0 -158 20 -209q34 -80 138 -80t155 90q37 66 37 209v317q0 70 -2 105l-4 67q-2 31 -14 36t-72 4t-60 20q0 12 43 12h19q16 -2 124 -2t136 2v-571q0 -146 6 -186t32 -46t115 -6q25 0 25 -14t-45 -17q-160 -10 -281 -69q-8 -4 -14 -4q-12 0 -12 16l2 115
q-94 -135 -255 -135t-226 87q-27 37 -32 68t-5 166v469q0 72 -8 84t-56 14l-26 -2q-55 -4 -56 17q0 14 35 14l148 -6q72 0 133 6v-571zM315 1327l152 -2h39l-254 -252q-72 -72 -85 -72q-13 1 -13 9t5 16t15 27l19 39q8 14 49 92zM686 1327l150 -2h41l-199 -195
q-131 -129 -143 -129t-13 11l4 12l17 29q2 2 18 39q10 16 27 53z" />
    <glyph glyph-name="Uogonek" unicode="&#x172;" horiz-adv-x="1363" 
d="M1178 1421l90 2h30q48 0 48 -19t-37 -20l-70 5q-51 0 -61 -27q-4 -14 -4 -47v-768q0 -299 -110 -433t-342 -138q-79 -88 -79 -161t33 -114t79 -41q47 0 71 20t35 21q11 0 11 -11t-52 -47t-125 -36t-127 48t-54 118q0 109 157 203q-272 8 -386 167q-80 113 -80 371l-2 821
q-6 37 -49 45q-12 2 -76 2q-35 4 -35 22t29 17h37l106 -2l293 2q10 2 34 2t25 -22q0 -15 -12 -17q-11 -2 -61 -3t-65 -7t-17 -20t-2 -123v-733q0 -270 86 -368t256 -99q311 0 352 354q6 53 6 451v116l2 164l-2 141v46l2 22q0 45 -43 55q-13 4 -69 4t-56 23q0 18 29 18z" />
    <glyph glyph-name="uogonek" unicode="&#x173;" horiz-adv-x="1003" 
d="M326 322q0 -158 20 -209q34 -80 138 -80t155 90q37 66 37 209v317q0 70 -2 105l-4 67q-2 31 -14 36t-72 4t-60 20q0 12 43 12h19q16 -2 124 -2t136 2v-571q0 -146 6 -186t32 -46t115 -6q25 0 25 -14t-45 -17q-157 -10 -277 -68q-73 -85 -73 -155t33 -112q32 -42 78 -42
t70 20t36 21q12 0 12 -11t-52 -47t-125 -36t-127 48t-54 118q0 115 172 212l2 110q-94 -135 -255 -135t-226 87q-27 37 -32 68t-5 166v469q0 72 -8 84t-56 14l-26 -2q-55 -4 -56 17q0 14 35 14l148 -6q72 0 133 6v-571z" />
    <glyph glyph-name="Wcircumflex" unicode="&#x174;" horiz-adv-x="1867" 
d="M1188 1346q0 37 -127 36h-25l-35 -2q-74 -4 -73 -26q0 -4 121 -355q47 102 83 198t52 132zM1927 1407q1 -19 -73 -21t-100 -51t-98 -269t-170 -487q-98 -266 -198 -579q-8 -27 -19 -27q-11 1 -21 21t-60 162q-52 142 -112 286t-111 279q-143 -346 -285 -723
q-8 -25 -20 -25t-25 35q-63 152 -471 1256q-29 78 -43 97t-92 22t-78 28q-1 19 23 19t84 -4t184 -5l241 6h23q35 0 35 -18q0 -23 -64 -25q-127 -4 -127 -32q0 -57 377 -1067q137 346 205 510l-203 524q-16 43 -38 55t-79 14t-57 19q0 23 38 23t85 -4t164 -5h155l226 -4
l211 10q49 0 49 -19t-35 -19h-35q-92 0 -139 -25q-20 -10 -60 -107t-76 -181q-34 -84 -59 -146q14 -42 101 -254t151 -381q353 1020 353 1055q0 34 -86 34t-87 23q0 20 41 20l138 -6l163 2q61 0 67 -5t7 -11zM718 1532q-24 0 -24 11t13 20q94 94 174 266q33 72 50 72t56 -74
q80 -154 195 -291h-135q-76 72 -150 227q-43 -87 -99 -159t-80 -72z" />
    <glyph glyph-name="wcircumflex" unicode="&#x175;" horiz-adv-x="1226" 
d="M176 893l133 2h25q29 0 28 -16q0 -18 -20 -19l-51 2q-49 2 -49 -18t54 -172t144 -443q88 287 129 406t64 191t43 73q20 -1 50 -97t100 -289t100 -284l184 619q0 16 -16 16t-68 -2q-23 0 -22 17q0 16 28 16h236q24 0 24 -16q0 -25 -67 -15h-17q-43 0 -74 -100t-51 -176
l-63 -205q-35 -106 -102 -340q-18 -70 -34 -70t-41 62q-26 62 -115 304q-89 243 -105 296q-80 -225 -207 -637q-8 -25 -24 -25q-16 1 -26 23q-8 22 -28 78l-49 131q-48 127 -150 461q-57 164 -84 188q-18 8 -66 8t-48 19q0 14 22 14zM373 1019q0 11 12 19q94 94 174 267
q33 71 50 71t57 -73q79 -154 194 -291h-135q-76 72 -150 227q-43 -88 -99 -160q-56 -71 -80 -71t-23 11z" />
    <glyph glyph-name="Ycircumflex" unicode="&#x176;" horiz-adv-x="1243" 
d="M556 1425q28 0 28 -19t-70 -20q-127 0 -127 -45q0 -35 129 -280l186 -354q51 92 117 227l121 244q68 131 68 165t-35 37q-73 10 -107 8t-35 21q0 16 39 16l119 -2l68 2q209 7 209 -20q0 -16 -35 -16q-113 -2 -139 -39q-25 -22 -135 -258t-160 -330t-56 -120
q-6 -28 -6 -120v-387q-1 -68 17 -80t98 -17t80 -22q0 -16 -29 -16h-24l-287 6l-228 -6q-29 0 -28 18q0 18 47 21q113 4 133 20t21 99v432q-20 45 -119 239l-205 406q-31 59 -74 133q-23 20 -97 20t-75 23q0 16 33 16l278 -6l238 2q14 2 42 2zM394 1534q-24 0 -23 11
q0 11 12 20q94 94 174 266q33 72 50 72t57 -74q79 -154 194 -291h-135q-76 72 -150 227q-43 -87 -99 -159t-80 -72z" />
    <glyph glyph-name="ycircumflex" unicode="&#x177;" horiz-adv-x="821" 
d="M868 879q0 -15 -49 -17t-62 -8t-24 -35l-14 -37l-17 -51q-241 -780 -354 -1087q-66 -174 -180 -174q-49 0 -81 28t-32 71t26 67q25 24 73 24t70 -40t34 -40q18 0 66 126t82 243q-152 397 -242 647t-100 256t-64 6t-55 21q0 16 26 16l142 -6h37q43 2 118 4l105 2
q23 0 23 -15q0 -16 -70 -18t-70 -20t76 -226l35 -102q15 -46 55 -150t65 -174q197 616 197 641t-15 29t-87 4q-20 0 -21 17q0 14 25 14l131 -6h57l76 4q18 0 18 -14zM162 1015q0 11 12 19q94 94 174 266q33 72 50 72t57 -74q79 -153 194 -290h-135q-76 72 -149 227
q-43 -88 -99 -160q-56 -71 -80 -71t-24 11z" />
    <glyph glyph-name="Ydieresis" unicode="&#x178;" horiz-adv-x="1243" 
d="M556 1425q28 0 28 -19t-70 -20q-127 0 -127 -45q0 -35 129 -280l186 -354q51 92 117 227l121 244q68 131 68 165t-35 37q-73 10 -107 8t-35 21q0 16 39 16l119 -2l68 2q209 7 209 -20q0 -16 -35 -16q-113 -2 -139 -39q-25 -22 -135 -258t-160 -330t-56 -121t-6 -119v-387
q0 -68 17.5 -80t97.5 -17t80 -21.5t-29 -16.5h-24l-287 6l-228 -6q-29 0 -28.5 18.5t47.5 20.5q113 4 133.5 20.5t20.5 98.5v432q-20 45 -119 239l-205 406q-31 59 -74 133q-23 20 -97.5 20.5t-74.5 22.5q0 16 33 16l278 -6l238 2q14 2 42 2zM565 1666q0 -40 -29.5 -68.5
t-70.5 -28.5t-69.5 28.5t-28.5 70.5t28.5 70.5t69.5 28.5t70.5 -30.5t29.5 -70.5zM918 1664q0 -42 -28 -68.5t-70 -26.5t-70.5 27.5t-28.5 68.5t29.5 70.5t71.5 29.5t69 -29.5t27 -71.5z" />
    <glyph glyph-name="Zacute" unicode="&#x179;" horiz-adv-x="1150" 
d="M999 1425q18 0 33 2q-10 -33 -76 -167q-14 -43 -637 -1213q99 -6 237 -6t194 8q111 18 170 78q88 88 118 303q4 35 28 35t24 -25q0 -14 -3 -22l-10 -68q-33 -213 -47 -354l-93 2q-108 2 -230 2h-152q-291 0 -359 -7t-92 -7q-26 0 -26 16q17 50 340 654q324 604 375 712
q-47 10 -205 10q-250 0 -316 -102q-16 -27 -42 -110t-32 -134t-32 -51q-20 0 -21 20q0 16 2 25l15 98q6 47 16 103l15 84q8 47 24 121q123 -12 385 -13l365 6h32zM549 1860l168 -2h37l-187 -195q-123 -129 -139 -129t-16 7t14 39t57 136z" />
    <glyph glyph-name="zacute" unicode="&#x17a;" horiz-adv-x="808" 
d="M98 -6q-55 0 -55 16q0 4 141 250l357 600q-45 6 -153 6t-160 -48q-54 -48 -85 -191q-6 -25 -24 -25t-19 16q0 2 20 119t36 166q143 -6 542 -6h27q2 -4 2 -10q0 -23 -174 -319t-322 -535q55 -2 134 -2q244 0 299 90q43 70 65 172q7 18 23 18t16 -14q0 -15 -24 -115
t-31 -184l-289 2l-320 -6h-6zM371 1337l168 -2h36l-186 -194q-123 -129 -139 -129q-26 0 -12 22q23 55 67 160z" />
    <glyph glyph-name="Zdotaccent" unicode="&#x17b;" horiz-adv-x="1150" 
d="M999 1425q18 0 33 2q-10 -33 -76 -167q-14 -43 -637 -1213q99 -6 237 -6t194 8q111 18 170 78q88 88 118 303q4 35 28 35t24 -25q0 -14 -3 -22l-10 -68q-33 -213 -47 -354l-93 2q-108 2 -230 2h-152q-291 0 -359 -7t-92 -7q-26 0 -26 16q17 50 340 654q324 604 375 712
q-47 10 -205 10q-250 0 -316 -102q-16 -27 -42 -110t-32 -134t-32 -51q-20 0 -21 20q0 16 2 25l15 98q6 47 16 103l15 84q8 47 24 121q123 -12 385 -13l365 6h32zM586 1741q44 0 72 -32t28 -75q0 -44 -29 -72t-73 -28t-74 30q-31 30 -31 72t32 74q32 31 75 31z" />
    <glyph glyph-name="zdotaccent" unicode="&#x17c;" horiz-adv-x="808" 
d="M98 -6q-55 0 -55 16q0 4 141 250l357 600q-45 6 -153 6t-160 -48q-54 -48 -85 -191q-6 -25 -24 -25t-19 16q0 2 20 119t36 166q143 -6 542 -6h27q2 -4 2 -10q0 -23 -174 -319t-322 -535q55 -2 134 -2q244 0 299 90q43 70 65 172q7 18 23 18t16 -14q0 -15 -24 -115
t-31 -184l-289 2l-320 -6h-6zM408 1219q44 0 72 -32t28 -75t-29 -72q-29 -28 -73 -28t-74 30q-31 30 -31 72q0 43 32 74t75 31z" />
    <glyph glyph-name="Zcaron" unicode="&#x17d;" horiz-adv-x="1150" 
d="M999 1425q18 0 33 2q-10 -33 -76 -167q-14 -43 -637 -1213q99 -6 237 -6t194 8q111 18 170 78q88 88 118 303q4 35 28 35t24 -25q0 -14 -3 -22l-10 -68q-33 -213 -47 -354l-93 2q-108 2 -230 2h-152q-291 0 -359 -7t-92 -7q-26 0 -26 16q17 50 340 654q324 604 375 712
q-47 10 -205 10q-250 0 -316 -102q-16 -27 -41.5 -110t-32.5 -134t-32 -51q-20 0 -21 20q0 16 2 25l15 98q6 47 16 103l15 84q8 47 24 121q123 -12 385 -13l365 6h32zM825 1892q0 -4 -12 -16q-92 -90 -174 -266q-33 -72 -50 -72t-57 74q-80 154 -192 291h133
q78 -76 150 -228q41 88 98 159.5t81 71.5t23 -14z" />
    <glyph glyph-name="zcaron" unicode="&#x17e;" horiz-adv-x="808" 
d="M98 -6q-55 0 -55 16q0 4 141 250l357 600q-45 6 -153 6t-161 -48t-84 -191q-6 -25 -24 -25t-19 16q0 2 20 119t36 166q143 -6 542 -6h27q2 -4 2 -10q0 -23 -174 -319t-322 -535q55 -2 134 -2q244 0 299 90q43 70 65 172q7 18 23 18t16 -14q0 -15 -24 -115t-31 -184
l-289 2l-320 -6h-6zM678 1374q0 -4 -12 -16q-92 -90 -174 -266q-32 -72 -50 -72t-82 119t-167 245h133q84 -84 149 -227q41 88 98 159.5t81 71.5t24 -14z" />
    <glyph glyph-name="slong" unicode="&#x17f;" horiz-adv-x="540" 
d="M350 55q0 -29 73 -27t81 -10q2 -2 2 -8q0 -14 -18 -14t-27 2l-168 2l-223 -4q-37 0 -37 15t28 16q101 0 109 8t8 16l2 27v778q-76 0 -88 2t-12 18t37 17h65q8 260 70 375q94 176 283 176q90 0 147 -43t57 -99q1 -56 -25 -84t-66 -28t-66 24t-27 59q1 33 17 59t16 34
q0 47 -68 47q-115 0 -151 -147q-18 -78 -19 -273v-938z" />
    <glyph glyph-name="florin" unicode="&#x192;" horiz-adv-x="1091" 
d="M1231 1296q0 -82 -77 -82t-77 64q0 27 17.5 39t17.5 26q0 53 -78 54q-106 0 -177 -123t-191 -512h16l51 -2h29l96 2q12 2 39 2t27 -26.5t-35 -26.5l-61 3q-62 3 -99 3h-18q-29 0 -60 -2q-157 -434 -223 -591q-275 -660 -578 -661q-80 0 -133 35t-53 88q0 84 88 84
q78 0 78 -55q0 -19 -16 -35t-15 -31q0 -43 60 -43q127 0 223 187q37 82 233 622l144 398q-10 0 -29 -2h-125l-26 -2q-35 -2 -35 24q0 31 59 31h170l88 229q55 147 158 281q121 158 319 158q84 0 138.5 -38.5t54.5 -97.5z" />
    <glyph glyph-name="clickretroflex" unicode="&#x1c3;" horiz-adv-x="729" 
d="M473 98q0 -45 -32 -78q-32 -32 -79 -32q-46 0 -78 32t-32 78q0 47 33 79t79 32t78 -33t31 -78zM364 346q-26 0 -26 41q2 385 -90 918q43 84 45 86q35 57 65 57t46 -18q15 -18 65 -107l10 -18q-90 -528 -88 -914q-1 -45 -27 -45z" />
    <glyph glyph-name="DZcaron" unicode="&#x1c4;" horiz-adv-x="2617" 
d="M1151 710q0 348 -133 506t-416 158q-137 0 -166 -28q-12 -14 -12 -99v-1089q0 -58 3 -70q11 -45 228 -45t357 160t139 507zM69 0q-28 0 -28 19q1 19 75 19t95 32q8 14 8 77v1104q0 101 -15 117t-106 16q-47 0 -47 23q0 16 35 16l45 -2q47 -2 92 -2h219q369 0 523 -51
q187 -61 301 -242t114 -417q0 -360 -252 -562q-184 -147 -493 -147l-260 4h-103l-161 -2q-14 -2 -42 -2zM2466 1425q18 0 33 2q-10 -33 -76 -167q-14 -43 -637 -1213q98 -6 236 -6t194 8q111 18 170 78q88 88 119 303q3 35 27 35t24 -25q0 -14 -2 -22l-10 -68
q-33 -213 -47 -354l-94 2q-108 2 -230 2h-152q-291 0 -358 -7t-93 -7t-26 16q17 50 340 654q324 604 375 712q-47 10 -205 10q-250 0 -315 -102q-16 -27 -42 -110t-33 -134t-32 -51q-20 0 -20 18t2 27l14 98q6 47 17 103l14 84q8 47 24 121q123 -12 385 -13l365 6h33z
M2294 1888q0 -4 -13 -16q-92 -90 -174 -266q-33 -72 -50 -72t-81 119t-168 245h134q84 -84 149 -227q41 88 98 160q57 71 81 71t24 -14z" />
    <glyph glyph-name="Dzcaron" unicode="&#x1c5;" horiz-adv-x="2379" 
d="M1151 710q0 348 -133 506t-416 158q-137 0 -166 -28q-12 -14 -12 -99v-1089q0 -58 3 -70q11 -45 228 -45t357 160t139 507zM69 0q-28 0 -28 19q1 19 75 19t95 32q8 14 8 77v1104q0 101 -15 117t-106 16q-47 0 -47 23q0 16 35 16l45 -2q47 -2 92 -2h219q369 0 523 -51
q187 -61 301 -242t114 -417q0 -360 -252 -562q-184 -147 -493 -147l-260 4h-103l-161 -2q-14 -2 -42 -2zM1565 -6q-55 0 -56 16q0 2 142 250l356 600q-45 6 -153 6t-160 -48q-53 -48 -84 -191q-6 -25 -27 -25q-16 0 -16 16q-1 2 19 119t36 166q143 -6 543 -6h26q2 -4 2 -10
q0 -23 -174 -319t-321 -535q55 -2 133 -2q244 0 299 90q43 70 65 172q7 18 23 18t16 -14q0 -15 -24 -115t-31 -184l-289 2l-319 -6h-6zM2116 1366q0 -4 -13 -16q-92 -90 -174 -267q-33 -71 -50 -71t-81 118t-168 246h133q84 -84 150 -227q41 88 98 160q57 71 81 71t24 -14z
" />
    <glyph glyph-name="dzcaron" unicode="&#x1c6;" horiz-adv-x="1888" 
d="M676 555q0 197 -49 259t-135 63q-111 0 -177 -115q-65 -115 -65 -303t57 -320q25 -55 73 -91t105 -36t109 38q50 38 66 92t16 413zM979 42q0 -15 -29 -15h-10q-16 0 -35 2h-16q-100 0 -170 -41q-29 -16 -35 -17q-18 0 -18 25l2 63q-88 -84 -209 -84q-172 1 -284 133
t-112 340t112 338q112 131 292 132q139 0 209 -101v320q0 155 -13 189t-38 32q-59 -6 -79 -6t-20 18t23 19l74 -3q61 -2 188 58q8 4 14 4q20 0 21 -49v-43q-2 -33 -2 -58v-706q0 -485 10 -520q4 -14 96 -15q29 0 29 -15zM1073 -6q-55 0 -55 16q0 4 141 250l357 600
q-45 6 -153 6t-161 -48t-84 -191q-6 -25 -24 -25t-19 16q0 2 20 119t35 166q143 -6 543 -6h27q2 -4 2 -10q0 -23 -174 -319t-322 -535q55 -2 133 -2q244 0 299 90q43 70 66 172q6 18 22 18t17 -14q1 -15 -23 -115t-32 -184l-289 2l-320 -6h-6zM1624 1366q0 -4 -12 -16
q-92 -90 -174 -267q-32 -71 -50 -71t-82 118t-167 246h133q84 -84 149 -227q41 88 99 160q58 71 80 71q24 0 24 -14z" />
    <glyph glyph-name="LJ" unicode="&#x1c7;" horiz-adv-x="1826" 
d="M1792 1405q0 -19 -60 -19t-79 -5q-17 -5 -21 -17t-4 -80v-657l2 -191q5 -319 -19 -424q-24 -104 -120 -181q-97 -77 -191 -77t-143 42t-49 102t22 88h-22l-166 8l-852 6q-35 0 -35 16t67 20t82 18q15 13 15 77v1151q0 76 -15 88t-110 12q-39 0 -39 23q0 18 25 18h18
q68 -6 269 -6l159 6h23q37 0 37 -20q0 -12 -12 -15q-12 -4 -70 -6t-70 -19t-12 -108v-1208q55 -2 224 -2t267 25t134 92q35 68 40 182q2 27 27 27t23 -31l-2 -51v-19q2 -14 2 -28v-80q0 -53 -6 -176q27 36 83 36t88 -28q32 -29 32 -71t-23 -69q-22 -27 -23 -38q0 -18 31 -19
q66 0 92 80q14 43 14 252v1169q0 66 -39 82q-18 6 -86 6t-67 18q0 18 33 19l159 -4l301 4q66 0 66 -18z" />
    <glyph glyph-name="Lj" unicode="&#x1c8;" horiz-adv-x="1640" 
d="M549 1423q37 0 37 -20q0 -12 -12 -15q-12 -4 -70 -6t-70 -19t-12 -108v-1208q55 -2 224 -2t267 25t134 92q35 68 40 182q2 27 27 27t23 -31l-2 -51v-19q2 -14 2 -28v-80q0 -53 -7 -176h-22l-166 8l-852 6q-35 0 -35 16t67 20t82 18q15 13 15 77v1151q0 76 -15 88t-110 12
q-39 0 -39 23q0 18 25 18h18q68 -6 269 -6l159 6h23zM1509 496l2 -152v-397q1 -219 -75 -347t-207 -128q-63 0 -106 32q-42 33 -42 82q0 96 105 97q86 0 86 -72l-15 -82q0 -18 13 -18q39 0 56 62t17 314l-2 904q-2 27 -30 26h-23q-8 -2 -94 -2q-23 0 -23 15t54 16
q145 -2 213 49q37 23 47 23q16 0 18 -24t4 -155zM1501 1288q0 -92 -90 -92q-41 0 -68 26t-27 66t26 66q26 27 65 26q94 0 94 -92z" />
    <glyph glyph-name="lj" unicode="&#x1c9;" horiz-adv-x="966" 
d="M20 12q0 14 23 15h53q57 0 58 24q2 12 2 160v1042q0 68 -4 74q-6 16 -33 16h-17l-57 -2q-29 -1 -29 17t75 22t159 43l43 21l16 6q16 -59 15 -180l-2 -146l2 -1003q0 -61 2 -73t9 -14t67 -4t61 -18q0 -16 -27 -16h-24q-4 0 -109 4l-63 2l-189 -8q-31 -2 -31 18zM836 496
l2 -152v-397q0 -219 -76 -347t-207 -128q-63 0 -105 32t-42 82q0 96 104 97q86 0 86 -72l-14 -82q0 -18 12 -18q39 0 56 62t18 314l-2 904q-2 27 -31 26h-23q-8 -2 -94 -2q-23 0 -22 16q0 14 53 15q145 -2 213 49q37 23 47 23q16 0 18 -24t5 -155zM827 1288q0 -92 -90 -92
q-41 0 -67 26t-27 66q0 40 26 66q26 27 64 26q94 0 94 -92z" />
    <glyph glyph-name="NJ" unicode="&#x1ca;" horiz-adv-x="2015" 
d="M186 1415q63 0 189 4l706 -1050v911q0 62 -2 76t-16 21t-93 7t-79 20t49 19l166 -2l100 2h64q45 0 45 -20t-51 -19l-45 2h-37q-33 0 -39 -11t-6 -68v-1180q0 -109 -2 -127q-1 -18 -13 -18t-28 22l-263 383q-227 334 -552 834l2 -1143q3 -27 31 -34t137 -9q27 0 26 -17
q0 -20 -53 -20l-180 8l-36 -4q-38 -4 -116 -4h-20q-47 0 -47 18t40 19q121 2 141 15q19 13 19 87v1010q0 170 -69 213q-34 20 -102 20t-68 20t30 19zM1980 1405q0 -19 -60 -19t-79 -5q-18 -5 -21 -17t-3 -80v-657l2 -191q5 -321 -20 -425q-24 -103 -120 -180t-190 -77
t-143 42t-50 110q0 117 115 117q47 0 79 -29t32 -71t-22 -69t-23 -38q0 -18 30 -19q66 0 92 80q14 43 15 252v1169q0 66 -39 82q-18 6 -85 6t-69 17q0 20 33 20l160 -4l301 4q65 0 65 -18z" />
    <glyph glyph-name="Nj" unicode="&#x1cb;" horiz-adv-x="1828" 
d="M186 1415q63 0 189 4l706 -1050v911q0 62 -2 76t-16 21t-93 7t-79 20t49 19l166 -2l100 2h64q45 0 45 -20t-51 -19l-45 2h-37q-33 0 -39 -11t-6 -68v-1180q0 -109 -2 -127q-1 -18 -13 -18t-28 22l-263 383q-227 334 -552 834l2 -1143q3 -27 31 -34t137 -9q27 0 26 -17
q0 -20 -53 -20l-180 8l-36 -4q-38 -4 -116 -4h-20q-47 0 -47 18t40 19q121 2 141 15q19 13 19 87v1010q0 170 -69 213q-34 20 -102 20t-68 20t30 19zM1698 496l2 -152v-397q0 -219 -76 -347t-207 -128q-63 0 -105 32t-42 82q0 96 104 97q86 0 86 -72l-14 -82q0 -18 12 -18
q39 0 56 62t18 314l-2 904q-2 27 -31 26h-22q-8 -2 -95 -2q-23 0 -22 16q0 14 53 15q145 -2 213 49q37 23 47 23q17 0 19 -24t4 -155zM1690 1288q0 -92 -91 -92q-41 0 -67 26t-27 66q0 40 26 66q26 27 64 26q95 0 95 -92z" />
    <glyph glyph-name="nj" unicode="&#x1cc;" horiz-adv-x="1486" 
d="M82 -4q-31 0 -31 14t37 19h51q31 0 37 14l6 31v446q0 233 -4 258t-51 25q-14 0 -49 -4h-10q-41 0 -41 16t52 17q52 2 124 22t95 42t34 22q14 0 14 -39v-99q106 138 264 138t224 -109q37 -61 36 -234v-466q0 -66 10 -75t36 -9t42 2h15q20 -1 20 -16t-30 -15h-25
q-37 4 -169 4t-169 -4h-14q-27 0 -27 12t11 14q10 2 64 5q54 2 60 11t6 66v394q0 223 -16 266q-35 92 -138 92t-173 -90q-20 -27 -21 -74l2 -639q0 -25 43 -26l62 -2q20 -1 20 -15t-24 -14h-33q-45 4 -143 4l-185 -4h-12zM1356 496l2 -152v-397q0 -219 -76 -347t-207 -128
q-63 0 -105 32t-42 82q0 96 104 97q86 0 86 -72l-14 -82q0 -18 12 -18q39 0 56 62t18 314l-2 904q-2 27 -31 26h-22q-8 -2 -95 -2q-23 0 -22 16q0 14 53 15q145 -2 213 49q37 23 47 23q17 0 19 -24t4 -155zM1348 1288q0 -92 -91 -92q-41 0 -67 26t-27 66q0 40 26 66
q26 27 64 26q95 0 95 -92z" />
    <glyph glyph-name="Acaron" unicode="&#x1cd;" horiz-adv-x="1232" 
d="M768 504q-33 92 -109 305l-98 281q-86 -225 -207 -586h414zM-49 18q1 18 65 20t93 20q29 17 45 67q264 754 430 1210q4 25 16 56l10 36q6 23 14 23t13 -12q27 -80 111 -306t376 -1026q16 -45 42 -57q26 -13 92 -15t67 -20t-25 -18t-43 2l-260 4l-260 -4q-15 -2 -43 -2
t-28 22t55 21q180 2 180 37q0 2 -4 16l-16 55l-11 29q-18 63 -90 281h-438q-123 -328 -123 -367t25 -45q6 -2 84 -6t78 -23q0 -20 -54 -20l-282 10l-90 -6q-29 0 -29 18zM881 1907q0 -4 -13 -17q-92 -90 -174 -266q-33 -72 -50 -72q-16 0 -80 119t-169 246h133
q84 -84 150 -227q41 88 98 160t81 71q24 0 24 -14z" />
    <glyph glyph-name="acaron" unicode="&#x1ce;" horiz-adv-x="813" 
d="M518 309v150q-154 -35 -220 -91t-67 -136q0 -80 38 -122t96 -42q88 0 141 98q12 22 12 143zM879 92q0 -35 -73 -73t-140 -37q-141 0 -148 145q-78 -152 -242 -152q-88 1 -145 53t-57 134q0 168 202 266q70 33 242 66v51q0 180 -18 237q-33 104 -148 105q-72 0 -120 -39
t-48 -98q0 -16 26 -16t46 -26q20 -24 20 -55q0 -90 -90 -90q-48 0 -78 32t-30 81q0 96 80 169t229 73q225 0 277 -123q18 -47 18 -187v-383q0 -94 2 -110q10 -74 59 -74q57 0 86 32q29 31 39 31t11 -12zM725 1374q0 -4 -12 -16q-92 -90 -174 -266q-33 -72 -51 -72t-80 119
q-64 119 -168 245h133q84 -84 149 -227q40 88 98 160q58 71 82 71t23 -14z" />
    <glyph glyph-name="Icaron" unicode="&#x1cf;" horiz-adv-x="643" 
d="M55 17q0 17 68 19t82 20q14 17 14 118v1077q0 100 -10 113q-12 20 -82 24t-70 19q0 16 25 16l276 -4q31 0 119 2l78 2q33 0 33 -17q0 -16 -70 -20t-82 -20t-12 -86v-1094q0 -117 10 -127q23 -23 133 -26q23 -1 23 -17t-25 -16h-20q-12 6 -279 6l-184 -6q-27 0 -27 17z
M571 1880q0 -4 -12 -16q-92 -90 -174 -267q-33 -71 -50 -71t-81 118t-168 246h133q84 -84 150 -227q41 88 98 160q57 71 81 71t23 -14z" />
    <glyph glyph-name="icaron" unicode="&#x1d0;" horiz-adv-x="514" 
d="M496 11q0 -17 -35 -17l-49 4q-61 4 -103 4l-213 -4q-10 -2 -28 -2t-19 14q-1 20 59 22t67 10q7 9 7 85l-2 621q-2 51 -5 60t-25 9l-60 -2q-8 -2 -26 -2t-17 15q0 15 35 18q137 6 235 65l21 13q16 -31 16 -113v-20q-2 -25 -2 -80v-559q0 -82 3 -97q5 -25 73 -26t68 -18z
M520 1380q0 -4 -12 -16q-92 -90 -174 -266q-33 -72 -50 -72t-81 119t-168 246h133q84 -84 149 -228q41 88 99 160q58 71 80 71q24 0 24 -14z" />
    <glyph glyph-name="Ocaron" unicode="&#x1d1;" horiz-adv-x="1474" 
d="M1159 692q0 375 -153 584q-96 131 -264 131t-259 -100q-166 -184 -166 -600q0 -330 116 -512q116 -183 318 -183t300 172q108 191 108 508zM739 1444q281 0 465 -214t185 -523q1 -310 -183 -521t-458 -211t-468 214q-192 215 -192 531t185 520t466 204zM981 1901
q0 -4 -12 -17q-92 -90 -174 -266q-33 -72 -51 -72t-80 119q-64 119 -168 246h133q84 -84 149 -228q40 88 98 160t82 72t23 -14z" />
    <glyph glyph-name="ocaron" unicode="&#x1d2;" horiz-adv-x="983" 
d="M735 440q0 229 -69 355q-51 92 -169 92t-183 -118q-64 -118 -64 -326q0 -207 68 -323t192 -116q94 0 139 72q86 135 86 364zM922 444q0 -200 -121 -334t-304 -134t-309 134t-125 336q0 202 122 336q122 136 305 136q184 0 308 -136t124 -338zM741 1374q0 -4 -12 -16
q-92 -90 -174 -266q-33 -72 -50 -72t-81 119t-168 245h133q84 -84 150 -227q41 88 98 160q57 71 81 71t23 -14z" />
    <glyph glyph-name="Ucaron" unicode="&#x1d3;" horiz-adv-x="1363" 
d="M1178 1421l90 2h30q48 0 48 -19t-37 -20l-70 5q-51 0 -61 -27q-4 -14 -4 -47v-768q0 -299 -112 -435t-360 -137q-297 0 -417 168q-80 113 -80 371l-2 821q-6 37 -49 45q-12 2 -76 2q-35 4 -35 22t29 17h37l106 -2l293 2q10 2 34 2t25 -22q0 -15 -12 -17q-11 -2 -61 -3
t-65 -7t-17 -20t-2 -123v-733q0 -270 86 -368t256 -99q311 0 352 354q6 53 6 451v116l2 164l-2 141v46l2 22q0 45 -43 55q-13 4 -69 4t-56 23q0 18 29 18zM938 1882q0 -4 -12 -16q-92 -90 -174 -267q-32 -71 -50 -71t-82 119t-167 245h133q84 -84 149 -227q41 88 99 160
q58 71 80 71q24 0 24 -14z" />
    <glyph glyph-name="ucaron" unicode="&#x1d4;" horiz-adv-x="1003" 
d="M326 322q0 -158 20 -209q34 -80 138 -80t155 90q37 66 37 209v317q0 70 -2 105l-4 67q-2 31 -14 36t-72 4t-60 20q0 12 43 12h19q16 -2 124 -2t136 2v-571q0 -146 6 -186t32 -46t115 -6q25 0 25 -14t-45 -17q-160 -10 -281 -69q-8 -4 -14 -4q-12 0 -12 16l2 115
q-94 -135 -255 -135t-226 87q-27 37 -32 68t-5 166v469q0 72 -8 84t-56 14l-26 -2q-55 -4 -56 17q0 14 35 14l148 -6q72 0 133 6v-571zM762 1356q0 -4 -12 -17q-92 -90 -175 -266q-33 -72 -50 -72t-81 119t-168 246h134q84 -84 149 -227q41 87 98 159t81 72t24 -14z" />
    <glyph glyph-name="Udieresismacron" unicode="&#x1d5;" horiz-adv-x="1363" 
d="M1178 1421l90 2h30q48 0 48 -19t-37 -20l-70 5q-51 0 -61 -27q-4 -14 -4 -47v-768q0 -299 -112 -435t-360 -137q-297 0 -417 168q-80 113 -80 371l-2 821q-6 37 -49 45q-12 2 -76 2q-35 4 -35 22t29 17h37l106 -2l293 2q10 2 34 2t25 -22q0 -15 -12 -17q-11 -2 -61 -3
t-65 -7t-17 -20t-2 -123v-733q0 -270 86 -368t256 -99q311 0 352 354q6 53 6 451v116l2 164l-2 141v46l2 22q0 45 -43 55q-13 4 -69 4t-56 23q0 18 29 18zM618 1625q0 -40 -30 -69q-30 -28 -70 -28q-42 0 -70 28t-28 71q0 42 29 71q29 28 69 28t71 -30q29 -31 29 -71z
M971 1625q0 -42 -28 -69q-28 -26 -70 -26q-43 0 -71 28t-28 68t30 71q30 29 72 29t68 -30t27 -71zM938 1829h-485v100h485v-100z" />
    <glyph glyph-name="udieresismacron" unicode="&#x1d6;" horiz-adv-x="1003" 
d="M326 322q0 -158 20 -209q34 -80 138 -80t155 90q37 66 37 209v317q0 70 -2 105l-4 67q-2 31 -14 36t-72 4t-60 20q0 12 43 12h19q16 -2 124 -2t136 2v-571q0 -146 6 -186t32 -46t115 -6q25 0 25 -14t-45 -17q-160 -10 -281 -69q-8 -4 -14 -4q-12 0 -12 16l2 115
q-94 -135 -255 -135t-226 87q-27 37 -32 68t-5 166v469q0 72 -8 84t-56 14l-26 -2q-55 -4 -56 17q0 14 35 14l148 -6q72 0 133 6v-571zM340 1200q40 0 70 -30t30 -71q0 -40 -30 -69t-70 -29q-41 0 -70 29q-28 29 -28 71q0 43 28 71t70 28zM596 1100q0 40 30 70t72 30t68 -30
q27 -30 27 -71q0 -42 -28 -69q-28 -26 -70 -26q-43 0 -71 28t-28 68zM760 1296h-486v101h486v-101z" />
    <glyph glyph-name="Udieresisacute" unicode="&#x1d7;" horiz-adv-x="1363" 
d="M1178 1421l90 2h30q48 0 48 -19t-37 -20l-70 5q-51 0 -61 -27q-4 -14 -4 -47v-768q0 -299 -112 -435t-360 -137q-297 0 -417 168q-80 113 -80 371l-2 821q-6 37 -49 45q-12 2 -76 2q-35 4 -35 22t29 17h37l106 -2l293 2q10 2 34 2t25 -22q0 -15 -12 -17q-11 -2 -61 -3
t-65 -7t-17 -20t-2 -123v-733q0 -270 86 -368t256 -99q311 0 352 354q6 53 6 451v116l2 164l-2 141v46l2 22q0 45 -43 55q-13 4 -69 4t-56 23q0 18 29 18zM618 1625q0 -40 -30 -69q-30 -28 -70 -28q-42 0 -70 28t-28 71q0 42 29 71q29 28 69 28t71 -30q29 -31 29 -71z
M971 1625q0 -42 -28 -69q-28 -26 -70 -26q-43 0 -71 28t-28 68t30 71q30 29 72 29t68 -30t27 -71zM662 2154l167 -2h37l-186 -194q-123 -129 -143 -129t-9 22q23 55 68 160z" />
    <glyph glyph-name="udieresisacute" unicode="&#x1d8;" horiz-adv-x="1003" 
d="M326 322q0 -158 20 -209q34 -80 138 -80t155 90q37 66 37 209v317q0 70 -2 105l-4 67q-2 31 -14 36t-72 4t-60 20q0 12 43 12h19q16 -2 124 -2t136 2v-571q0 -146 6 -186t32 -46t115 -6q25 0 25 -14t-45 -17q-160 -10 -281 -69q-8 -4 -14 -4q-12 0 -12 16l2 115
q-94 -135 -255 -135t-226 87q-27 37 -32 68t-5 166v469q0 72 -8 84t-56 14l-26 -2q-55 -4 -56 17q0 14 35 14l148 -6q72 0 133 6v-571zM340 1200q40 0 70 -30t30 -71q0 -40 -30 -69t-70 -29q-41 0 -70 29q-28 29 -28 71q0 43 28 71t70 28zM596 1100q0 40 30 70t72 30t68 -30
q27 -30 27 -71q0 -42 -28 -69q-28 -26 -70 -26q-43 0 -71 28t-28 68zM489 1622l168 -2h37l-186 -195q-123 -129 -143 -129t-9 23q23 55 68 160z" />
    <glyph glyph-name="Udieresiscaron" unicode="&#x1d9;" horiz-adv-x="1363" 
d="M1178 1421l90 2h30q48 0 48 -19t-37 -20l-70 5q-51 0 -61 -27q-4 -14 -4 -47v-768q0 -299 -112 -435t-360 -137q-297 0 -417 168q-80 113 -80 371l-2 821q-6 37 -49 45q-12 2 -76 2q-35 4 -35 22t29 17h37l106 -2l293 2q10 2 34 2t25 -22q0 -15 -12 -17q-11 -2 -61 -3
t-65 -7t-17 -20t-2 -123v-733q0 -270 86 -368t256 -99q311 0 352 354q6 53 6 451v116l2 164l-2 141v46l2 22q0 45 -43 55q-13 4 -69 4t-56 23q0 18 29 18zM618 1625q0 -40 -30 -69q-30 -28 -70 -28q-42 0 -70 28t-28 71q0 42 29 71q29 28 69 28t71 -30q29 -31 29 -71z
M971 1625q0 -42 -28 -69q-28 -26 -70 -26q-43 0 -71 28t-28 68t30 71q30 29 72 29t68 -30t27 -71zM938 2183q0 -4 -12 -16q-92 -90 -174 -266q-32 -72 -50 -72t-82 119t-167 245h133q84 -84 149 -227q41 88 99 160t80 72q24 0 24 -15z" />
    <glyph glyph-name="udieresiscaron" unicode="&#x1da;" horiz-adv-x="1003" 
d="M326 322q0 -158 20 -209q34 -80 138 -80t155 90q37 66 37 209v317q0 70 -2 105l-4 67q-2 31 -14 36t-72 4t-60 20q0 12 43 12h19q16 -2 124 -2t136 2v-571q0 -146 6 -186t32 -46t115 -6q25 0 25 -14t-45 -17q-160 -10 -281 -69q-8 -4 -14 -4q-12 0 -12 16l2 115
q-94 -135 -255 -135t-226 87q-27 37 -32 68t-5 166v469q0 72 -8 84t-56 14l-26 -2q-55 -4 -56 17q0 14 35 14l148 -6q72 0 133 6v-571zM340 1200q40 0 70 -30t30 -71q0 -40 -30 -69t-70 -29q-41 0 -70 29q-28 29 -28 71q0 43 28 71t70 28zM596 1100q0 40 30 70t72 30t68 -30
q27 -30 27 -71q0 -42 -28 -69q-28 -26 -70 -26q-43 0 -71 28t-28 68zM762 1651q0 -4 -12 -17q-92 -90 -175 -266q-33 -72 -50 -72t-81 119t-168 246h134q84 -84 149 -227q41 88 98 160t81 71q24 0 24 -14z" />
    <glyph glyph-name="Udieresisgrave" unicode="&#x1db;" horiz-adv-x="1363" 
d="M1178 1421l90 2h30q48 0 48 -19t-37 -20l-70 5q-51 0 -61 -27q-4 -14 -4 -47v-768q0 -299 -112 -435t-360 -137q-297 0 -417 168q-80 113 -80 371l-2 821q-6 37 -49 45q-12 2 -76 2q-35 4 -35 22t29 17h37l106 -2l293 2q10 2 34 2t25 -22q0 -15 -12 -17q-11 -2 -61 -3
t-65 -7t-17 -20t-2 -123v-733q0 -270 86 -368t256 -99q311 0 352 354q6 53 6 451v116l2 164l-2 141v46l2 22q0 45 -43 55q-13 4 -69 4t-56 23q0 18 29 18zM618 1625q0 -40 -30 -69q-30 -28 -70 -28q-42 0 -70 28t-28 71q0 42 29 71q29 28 69 28t71 -30q29 -31 29 -71z
M971 1625q0 -42 -28 -69q-28 -26 -70 -26q-43 0 -71 28t-28 68t30 71q30 29 72 29t68 -30t27 -71zM866 1839q0 -10 -16 -10t-139 129l-187 194h35l59 2h109l84 -182q0 -2 23 -53l28 -68q4 -8 4 -12z" />
    <glyph glyph-name="udieresisgrave" unicode="&#x1dc;" horiz-adv-x="1003" 
d="M326 322q0 -158 20 -209q34 -80 138 -80t155 90q37 66 37 209v317q0 70 -2 105l-4 67q-2 31 -14 36t-72 4t-60 20q0 12 43 12h19q16 -2 124 -2t136 2v-571q0 -146 6 -186t32 -46t115 -6q25 0 25 -14t-45 -17q-160 -10 -281 -69q-8 -4 -14 -4q-12 0 -12 16l2 115
q-94 -135 -255 -135t-226 87q-27 37 -32 68t-5 166v469q0 72 -8 84t-56 14l-26 -2q-55 -4 -56 17q0 14 35 14l148 -6q72 0 133 6v-571zM340 1200q40 0 70 -30t30 -71q0 -40 -30 -69t-70 -29q-41 0 -70 29q-28 29 -28 71q0 43 28 71t70 28zM596 1100q0 40 30 70t72 30t68 -30
q27 -30 27 -71q0 -42 -28 -69q-28 -26 -70 -26q-43 0 -71 28t-28 68zM688 1307q0 -11 -16 -11t-140 129l-186 195h35l59 2h109l84 -182q0 -2 22 -54l29 -67q4 -8 4 -12z" />
    <glyph glyph-name="Adieresismacron" unicode="&#x1de;" horiz-adv-x="1232" 
d="M768 504q-33 92 -109 305l-98 281q-86 -225 -207 -586h414zM-49 18q1 18 65 20t93 20q29 17 45 67q264 754 430 1210q4 25 16 56l10 36q6 23 14 23t13 -12q27 -80 111 -306t376 -1026q16 -45 42 -57q26 -13 92 -15t67 -20t-25 -18t-43 2l-260 4l-260 -4q-15 -2 -43 -2
t-28 22t55 21q180 2 180 37q0 2 -4 16l-16 55l-11 29q-18 63 -90 281h-438q-123 -328 -123 -367t25 -45q6 -2 84 -6t78 -23q0 -20 -54 -20l-282 10l-90 -6q-29 0 -29 18zM362 1652q0 42 29 70t70 29q41 -1 71 -31t29 -70q0 -40 -30 -69q-31 -29 -71 -29t-69 29t-29 71z
M818 1751q42 1 68 -29t27 -72t-27 -69t-70 -27t-71 28t-28 69q-1 41 29 71t72 29zM881 1853h-486v101h486v-101z" />
    <glyph glyph-name="adieresismacron" unicode="&#x1df;" horiz-adv-x="813" 
d="M518 309v150q-154 -35 -220 -91t-67 -136q0 -80 38 -122t96 -42q88 0 141 98q12 22 12 143zM879 92q0 -35 -73 -73t-140 -37q-141 0 -148 145q-78 -152 -242 -152q-88 1 -145 53t-57 134q0 168 202 266q70 33 242 66v51q0 180 -18 237q-33 104 -148 105q-72 0 -120 -39
t-48 -98q0 -16 26 -16t46 -26q20 -24 20 -55q0 -90 -90 -90q-48 0 -78 32t-30 81q0 96 80 169t229 73q225 0 277 -123q18 -47 18 -187v-383q0 -94 2 -110q10 -74 59 -74q57 0 86 32q29 31 39 31t11 -12zM406 1123q0 -41 -30 -69t-71 -28t-69 29t-29 71q0 42 29 70
q30 29 70 29t70 -31t30 -71zM663 1225q43 0 69 -30t26 -72q0 -43 -28 -69t-70 -26t-70 28q-29 28 -29 68t30 71q30 30 72 30zM725 1321h-485v100h485v-100z" />
    <glyph glyph-name="Adotmacron" unicode="&#x1e0;" horiz-adv-x="1232" 
d="M768 504q-33 92 -109 305l-98 281q-86 -225 -207 -586h414zM-49 18q1 18 65 20t93 20q29 17 45 67q264 754 430 1210q4 25 16 56l10 36q6 23 14 23t13 -12q27 -80 111 -306t376 -1026q16 -45 42 -57q26 -13 92 -15t67 -20t-25 -18t-43 2l-260 4l-260 -4q-15 -2 -43 -2
t-28 22t55 21q180 2 180 37q0 2 -4 16l-16 55l-11 29q-18 63 -90 281h-438q-123 -328 -123 -367t25 -45q6 -2 84 -6t78 -23q0 -20 -54 -20l-282 10l-90 -6q-29 0 -29 18zM741 1653q-1 -43 -29 -72t-72 -29t-75 30t-30 73q0 43 31 74q32 31 75 31t71 -32t29 -75zM881 1862
h-486v100h486v-100z" />
    <glyph glyph-name="adotmacron" unicode="&#x1e1;" horiz-adv-x="813" 
d="M518 309v150q-154 -35 -220 -91t-67 -136q0 -80 38 -122t96 -42q88 0 141 98q12 22 12 143zM879 92q0 -35 -73 -73t-140 -37q-141 0 -148 145q-78 -152 -242 -152q-88 1 -145 53t-57 134q0 168 202 266q70 33 242 66v51q0 180 -18 237q-33 104 -148 105q-72 0 -120 -39
t-48 -98q0 -16 26 -16t46 -26q20 -24 20 -55q0 -90 -90 -90q-48 0 -78 32t-30 81q0 96 80 169t229 73q225 0 277 -123q18 -47 18 -187v-383q0 -94 2 -110q10 -74 59 -74q57 0 86 32q29 31 39 31t11 -12zM586 1126q0 -44 -29 -72t-73 -28t-74 30t-31 72q0 42 32 74
q33 31 75 31t71 -32t29 -75zM725 1329h-485v101h485v-101z" />
    <glyph glyph-name="AEmacron" unicode="&#x1e2;" horiz-adv-x="1912" 
d="M938 504v813q-51 -91 -132 -227t-167 -287t-172 -299h471zM375 -2l-305 2q-90 0 -107 5q-18 5 -18 15q0 16 53 21q123 8 164 74q8 8 67 108l555 942q80 133 154 262h37l65 -2q66 -2 131 -2l320 4l213 -2q35 0 100 7q0 -8 21 -256l6 -76q2 -10 2 -29t-18 -18q-14 0 -19 22
q-29 182 -105 246q-77 63 -374 63q-121 0 -174 -2v-608h88q229 0 274 62q29 39 35 129t27 90t20 -35l-10 -217q0 -201 5 -265t5 -73q0 -27 -20 -27q-14 0 -19 9q-4 9 -15 97t-31 122q-20 35 -93 57q-31 10 -266 12v-694q335 0 453 15q118 16 160 70t61 200q6 49 32 49
q21 0 21 -53l-6 -250v-84q-244 10 -542 10l-495 -2h-14q-41 0 -41 20t66 20t84 19q16 18 16 107v295h-504q-211 -332 -211 -383q-1 -20 19 -26t129 -13q39 -1 39 -19t-35 -18zM1561 1534h-486v100h486v-100z" />
    <glyph glyph-name="aemacron" unicode="&#x1e3;" horiz-adv-x="1347" 
d="M242 219q0 -72 43 -114t116 -42q135 0 152 218q2 26 2 221q-313 -74 -313 -283zM936 889q-190 0 -215 -320q290 39 407 78q-45 242 -192 242zM1296 220q0 -17 -30 -66t-60 -82q-94 -96 -250 -97q-254 0 -370 213q-96 -213 -277 -213q-103 -1 -163 55t-60 148
q0 166 203 273q84 43 266 86q0 182 -20 243q-35 106 -144 107q-72 0 -122 -37t-50 -88q1 -20 27 -20t47 -26q20 -26 20 -54q0 -88 -90 -89q-47 0 -78 30t-30 77q0 90 78 164t231 74q92 0 150 -26t120 -91q98 117 250 117q268 0 344 -265q-98 -41 -279 -71t-290 -52
q-2 -27 -2 -73q0 -236 112 -342q74 -70 183 -70q164 0 245 176q8 16 23 17q16 -1 16 -18zM934 1026h-485v100h485v-100z" />
    <glyph glyph-name="Gcaron" unicode="&#x1e6;" horiz-adv-x="1361" 
d="M1313 451l53 2q41 -1 41 -20t-18 -19l-48 2q-94 4 -106 -33q-8 -25 -8 -178v-66q-103 -90 -201 -127t-233 -37q-324 0 -514 194q-191 193 -191 527t186 541t492 207q133 0 291 -74q47 -23 78 -22q39 0 51 49q10 29 24 28q16 0 17 -16l-17 -211l2 -133l2 -64
q-4 -49 -24 -49t-23 29q-10 199 -114 313t-275 113q-213 0 -337 -190t-124 -512t126 -507t341 -186q164 0 226 94q30 48 30 160t-19 130t-91 18t-80 3t-8 13q0 23 45 23h37q31 -6 217 -4zM991 1901q0 -4 -12 -17q-92 -90 -174 -266q-33 -72 -50 -72t-81 119t-168 246h133
q84 -84 149 -228q40 88 98 160t82 72t23 -14z" />
    <glyph glyph-name="gcaron" unicode="&#x1e7;" horiz-adv-x="956" 
d="M784 -190q0 170 -200 170q-57 0 -169 -18t-167 -19q-104 -55 -105 -195q0 -104 75 -168q74 -64 214 -63q140 0 246 85t106 208zM473 303q154 0 154 294t-162 294t-162 -277q0 -311 170 -311zM833 846q-27 0 -49 -26t-22 -42t10 -80t10 -96q0 -139 -96 -233t-240 -95
q-38 0 -100 20t-70 19q-44 -1 -78 -35t-34 -75q0 -106 129 -107q49 0 145 16t166 17q125 0 196 -66t70 -182q0 -176 -150 -293t-380 -116q-170 0 -267 68t-97 188q0 119 90 178q45 29 143 51q-145 57 -146 176q0 147 189 205q-123 96 -123 248t94 242q94 89 248 90
q84 0 136 -23t122 -90q66 96 162 96q117 0 117 -104q0 -94 -84 -95q-29 0 -53 20t-23 44l12 53q0 27 -27 27zM741 1374q0 -4 -12 -16q-92 -90 -174 -266q-33 -72 -50 -72t-81 119t-168 245h133q84 -84 150 -227q41 88 98 160q57 71 81 71t23 -14z" />
    <glyph glyph-name="Kcaron" unicode="&#x1e8;" horiz-adv-x="1363" 
d="M86 -4q-31 0 -31 19t73 21t85 32q6 10 6 129l-2 1140q-2 43 -111 43q-49 0 -49 23q1 18 23 18t47 -3t179 -3t188 3t64 3t30 -22q0 -11 -11 -15t-71 -6t-70 -16q-12 -14 -12 -92v-500l174 174q395 395 395 412q-1 26 -79 24t-78 21q0 14 28 16t199 2h113q72 0 86 -3
q14 -2 16 -22q0 -20 -45 -20q-94 2 -121 -4t-53 -33q-133 -139 -406 -417l-80 -82q12 -14 103 -111q172 -178 493 -571q68 -82 94 -98t92 -22q66 -4 66 -21t-28 -17h-17l-246 2l-239 -2q-12 -2 -39 -2t-27 16t79 24t79 33q0 26 -559 664v-592q0 -72 22 -89t121 -17
q23 1 23 -19t-24 -20t-42 2l-284 4l-136 -6h-18zM981 1878q0 -4 -12 -16q-92 -90 -174 -267q-33 -71 -51 -71t-80 118q-64 118 -168 246h133q84 -84 149 -227q40 88 98 160q58 71 82 71t23 -14z" />
    <glyph glyph-name="kcaron" unicode="&#x1e9;" horiz-adv-x="960" 
d="M467 14q0 -18 -45 -18l-10 2h-50q-49 2 -133 2h-159q-50 0 -50 13t10 15t64 5q55 2 58 22q4 14 4 107v1001q0 162 -2 168q-4 14 -60 15h-20q-56 -8 -56 14q0 16 73 17t179 59q25 14 33 14q23 0 23 -170v-756q332 297 331 328q-1 12 -41 12h-51q-12 -2 -30 -2h-21
q-37 0 -37 18t64 17h84l75 -2h127q74 0 86 -2t13 -14q0 -15 -84 -17t-102 -13q-20 -11 -42 -34l-256 -248q285 -311 404 -456q49 -59 75 -71t103 -9q18 -1 18 -16t-75 -15l-254 6l-162 -8q-18 0 -19 14q0 16 39 17q99 1 99 31t-344 415l2 -418q2 -31 57 -28l55 2
q27 1 27 -17zM774 1907q0 -4 -12 -17q-92 -90 -174 -266q-33 -72 -50 -72t-81 119t-168 246h133q84 -84 149 -227q41 88 99 160t80 71q24 0 24 -14z" />
    <glyph glyph-name="Oogonek" unicode="&#x1ea;" horiz-adv-x="1474" 
d="M1159 692q0 375 -153 584q-96 131 -264 131t-259 -100q-166 -184 -166 -600q0 -330 116 -512q116 -183 318 -183t300 172q108 191 108 508zM739 1444q281 0 465 -214t185 -523q0 -311 -178 -515t-424 -216q-99 -99 -99 -191q0 -63 33 -104t79 -41t81 28t37 2
q0 -12 -52 -48t-126 -36t-127 48q-54 48 -54 118q0 121 193 223q-280 1 -472 215t-192 530t185 520t466 204z" />
    <glyph glyph-name="oogonek" unicode="&#x1eb;" horiz-adv-x="983" 
d="M735 440q0 229 -69 355q-51 92 -169 92t-183 -118q-64 -118 -64 -326q0 -207 68 -323t192 -116q94 0 139 72q86 135 86 364zM922 444q0 -201 -112 -325t-261 -141q-101 -101 -100 -193q1 -63 33 -104t78 -41t70 20t36 20t12 -10q0 -12 -52 -48t-125 -36t-127 48t-55 118
q0 121 194 224q-6 0 -13 -1q-186 1 -312 135t-125 336q0 202 122 336q122 136 305 136q184 0 308 -136t124 -338z" />
    <glyph glyph-name="Oogonekmacron" unicode="&#x1ec;" horiz-adv-x="1474" 
d="M1159 692q0 375 -153 584q-96 131 -264 131t-259 -100q-166 -184 -166 -600q0 -330 116 -512q116 -183 318 -183t300 172q108 191 108 508zM739 1444q281 0 465 -214t185 -523q0 -311 -178 -515t-424 -216q-99 -99 -99 -191q0 -63 33 -104t79 -41t81 28t37 2
q0 -12 -52 -48t-126 -36t-127 48q-54 48 -54 118q0 121 193 223q-280 1 -472 215t-192 530t185 520t466 204zM981 1546h-485v101h485v-101z" />
    <glyph glyph-name="oogonekmacron" unicode="&#x1ed;" horiz-adv-x="983" 
d="M735 440q0 229 -69 355q-51 92 -169 92t-183 -118q-64 -118 -64 -326q0 -207 68 -323t192 -116q94 0 139 72q86 135 86 364zM922 444q0 -201 -112 -325t-261 -141q-101 -101 -100 -193q1 -63 33 -104t78 -41t70 20t36 20t12 -10q0 -12 -52 -48t-125 -36t-127 48t-55 118
q0 121 194 224q-6 0 -13 -1q-186 1 -312 135t-125 336q0 202 122 336q122 136 305 136q184 0 308 -136t124 -338zM741 1026h-485v100h485v-100z" />
    <glyph glyph-name="jcaron" unicode="&#x1f0;" horiz-adv-x="485" 
d="M354 496l2 -152v-397q0 -219 -76 -347t-206 -128q-63 0 -106 32q-42 33 -42 82q0 96 105 97q86 0 86 -72l-15 -82q0 -18 13 -18q39 0 56 62t17 314l-2 904q-2 27 -30 26h-23q-8 -2 -94 -2q-23 0 -23 15t54 16q145 -2 213 49q37 23 47 23q16 0 18 -24t4 -155zM494 1374
q0 -4 -13 -16q-92 -90 -174 -266q-33 -72 -50 -72t-81 119t-168 245h133q84 -84 150 -227q41 88 98 160q57 71 81 71t24 -14z" />
    <glyph glyph-name="DZ" unicode="&#x1f1;" horiz-adv-x="2617" 
d="M1151 710q0 348 -133 506t-416 158q-137 0 -166 -28q-12 -14 -12 -99v-1089q0 -58 3 -70q11 -45 228 -45t357 160t139 507zM69 0q-28 0 -28 19q1 19 75 19t95 32q8 14 8 77v1104q0 101 -15 117t-106 16q-47 0 -47 23q0 16 35 16l45 -2q47 -2 92 -2h219q369 0 523 -51
q187 -61 301 -242t114 -417q0 -360 -252 -562q-184 -147 -493 -147l-260 4h-103l-161 -2q-14 -2 -42 -2zM2466 1425q18 0 33 2q-10 -33 -76 -167q-14 -43 -637 -1213q98 -6 236 -6t194 8q111 18 170 78q88 88 119 303q3 35 27 35t24 -25q0 -14 -2 -22l-10 -68
q-33 -213 -47 -354l-94 2q-108 2 -230 2h-152q-291 0 -358 -7t-93 -7t-26 16q17 50 340 654q324 604 375 712q-47 10 -205 10q-250 0 -315 -102q-16 -27 -42 -110t-33 -134t-32 -51q-20 0 -20 18t2 27l14 98q6 47 17 103l14 84q8 47 24 121q123 -12 385 -13l365 6h33z" />
    <glyph glyph-name="Dz" unicode="&#x1f2;" horiz-adv-x="2275" 
d="M1151 710q0 348 -133 506t-416 158q-137 0 -166 -28q-12 -14 -12 -99v-1089q0 -58 3 -70q11 -45 228 -45t357 160t139 507zM69 0q-28 0 -28 19q1 19 75 19t95 32q8 14 8 77v1104q0 101 -15 117t-106 16q-47 0 -47 23q0 16 35 16l45 -2q47 -2 92 -2h219q369 0 523 -51
q187 -61 301 -242t114 -417q0 -360 -252 -562q-184 -147 -493 -147l-260 4h-103l-161 -2q-14 -2 -42 -2zM1565 -6q-55 0 -56 16q0 2 142 250l356 600q-45 6 -153 6t-160 -48q-53 -48 -84 -191q-6 -25 -27 -25q-16 0 -16 16q-1 2 19 119t36 166q143 -6 543 -6h26q2 -4 2 -10
q0 -23 -174 -319t-321 -535q55 -2 133 -2q244 0 299 90q43 70 65 172q7 18 23 18t16 -14q0 -15 -24 -115t-31 -184l-289 2l-319 -6h-6z" />
    <glyph glyph-name="dz" unicode="&#x1f3;" horiz-adv-x="1783" 
d="M676 555q0 197 -49 259t-135 63q-111 0 -177 -115q-65 -115 -65 -303t57 -320q25 -55 73 -91t105 -36t109 38q50 38 66 92t16 413zM979 42q0 -15 -29 -15h-10q-16 0 -35 2h-16q-100 0 -170 -41q-29 -16 -35 -17q-18 0 -18 25l2 63q-88 -84 -209 -84q-172 1 -284 133
t-112 340t112 338q112 131 292 132q139 0 209 -101v320q0 155 -13 189t-38 32q-59 -6 -79 -6t-20 18t23 19l74 -3q61 -2 188 58q8 4 14 4q20 0 21 -49v-43q-2 -33 -2 -58v-706q0 -485 10 -520q4 -14 96 -15q29 0 29 -15zM1073 -6q-55 0 -55 16q0 4 141 250l357 600
q-45 6 -153 6t-161 -48t-84 -191q-6 -25 -24 -25t-19 16q0 2 20 119t35 166q143 -6 543 -6h27q2 -4 2 -10q0 -23 -174 -319t-322 -535q55 -2 133 -2q244 0 299 90q43 70 66 172q6 18 22 18t17 -14q1 -15 -23 -115t-32 -184l-289 2l-320 -6h-6z" />
    <glyph glyph-name="Gacute" unicode="&#x1f4;" horiz-adv-x="1361" 
d="M1313 451l53 2q41 -1 41 -20t-18 -19l-48 2q-94 4 -106 -33q-8 -25 -8 -178v-66q-103 -90 -201 -127t-233 -37q-324 0 -514 194q-191 193 -191 527t186 541t492 207q133 0 291 -74q47 -23 78 -22q39 0 51 49q10 29 24 28q16 0 17 -16l-17 -211l2 -133l2 -64
q-4 -49 -24 -49t-23 29q-10 199 -114 313t-275 113q-213 0 -337 -190t-124 -512t126 -507t341 -186q164 0 226 94q30 48 30 160t-19 130t-91 18t-80 3t-8 13q0 23 45 23h37q31 -6 217 -4zM715 1872l168 -2h37l-187 -195q-123 -129 -139 -129t-16 7t14 39t57 137z" />
    <glyph glyph-name="gacute" unicode="&#x1f5;" horiz-adv-x="956" 
d="M784 -190q0 170 -200 170q-57 0 -169 -18t-167 -19q-104 -55 -105 -195q0 -104 75 -168q74 -64 214 -63q140 0 246 85t106 208zM473 303q154 0 154 294t-162 294t-162 -277q0 -311 170 -311zM833 846q-27 0 -49 -26t-22 -42t10 -80t10 -96q0 -139 -96 -233t-240 -95
q-38 0 -100 20t-70 19q-44 -1 -78 -35t-34 -75q0 -106 129 -107q49 0 145 16t166 17q125 0 196 -66t70 -182q0 -176 -150 -293t-380 -116q-170 0 -267 68t-97 188q0 119 90 178q45 29 143 51q-145 57 -146 176q0 147 189 205q-123 96 -123 248t94 242q94 89 248 90
q84 0 136 -23t122 -90q66 96 162 96q117 0 117 -104q0 -94 -84 -95q-29 0 -53 20t-23 44l12 53q0 27 -27 27zM465 1352l168 -2h37l-187 -195q-123 -129 -139 -129t-16 7t71 175z" />
    <glyph glyph-name="Ngrave" unicode="&#x1f8;" horiz-adv-x="1343" 
d="M186 1415q63 0 189 4l706 -1050v911q0 62 -2 76t-16 21t-93 7t-79 20t49 19l166 -2l100 2h64q45 0 45 -20t-51 -19l-45 2h-37q-33 0 -39 -11t-6 -68v-1180q0 -109 -2 -127q-1 -18 -13 -18t-28 22l-263 383q-227 334 -552 834l2 -1143q3 -27 31 -34t137 -9q27 0 26 -17
q0 -20 -53 -20l-180 8l-36 -4q-38 -4 -116 -4h-20q-47 0 -47 18t40 19q121 2 141 15q19 13 19 87v1010q0 170 -69 213q-34 20 -102 20t-68 20t30 19zM821 1536q0 -10 -16 -10t-139 129l-187 194h35l59 2h109l84 -182q0 -2 22 -53l29 -68q4 -8 4 -12z" />
    <glyph glyph-name="ngrave" unicode="&#x1f9;" horiz-adv-x="1001" 
d="M82 -4q-31 0 -31 14t37 19h51q31 0 37 14l6 31v446q0 233 -4 258t-51 25q-14 0 -49 -4h-10q-41 0 -41 16t52 17q52 2 124 22t95 42t34 22q14 0 14 -39v-99q106 138 264 138t224 -109q37 -61 36 -234v-466q0 -66 10 -75t36 -9t42 2h15q20 -1 20 -16t-30 -15h-25
q-37 4 -169 4t-169 -4h-14q-27 0 -27 12t11 14q10 2 64 5q54 2 60 11t6 66v394q0 223 -16 266q-35 92 -138 92t-173 -90q-20 -27 -21 -74l2 -639q0 -25 43 -26l62 -2q20 -1 20 -15t-24 -14h-33q-45 4 -143 4l-185 -4h-12zM682 1033q0 -7 -16 -7t-140 129l-186 195h35l59 2
h109l84 -183q0 -2 22 -53l29 -67q4 -9 4 -16z" />
    <glyph glyph-name="Aringacute" unicode="&#x1fa;" horiz-adv-x="1232" 
d="M768 504q-33 92 -109 305l-98 281q-86 -225 -207 -586h414zM-49 18q1 18 65 20t93 20q29 17 45 67q264 754 430 1210q4 25 16 56l10 36q6 23 14 23t13 -12q27 -80 111 -306t376 -1026q16 -45 42 -57q26 -13 92 -15t67 -20t-25 -18t-43 2l-260 4l-260 -4q-15 -2 -43 -2
t-28 22t55 21q180 2 180 37q0 2 -4 16l-16 55l-11 29q-18 63 -90 281h-438q-123 -328 -123 -367t25 -45q6 -2 84 -6t78 -23q0 -20 -54 -20l-282 10l-90 -6q-29 0 -29 18zM748 1730q0 52 -32 85t-79 33t-78 -36q-31 -35 -31 -85q0 -49 32 -83t79 -34t78 34t31 86zM817 1728
q0 -75 -52 -125q-52 -51 -128 -51t-128 52t-52 124q0 74 52 125t128 51t128 -50q52 -51 52 -126zM604 2333l168 -2h37l-186 -195q-123 -129 -139 -129t-17 8q0 8 72 174z" />
    <glyph glyph-name="aringacute" unicode="&#x1fb;" horiz-adv-x="813" 
d="M518 309v150q-154 -35 -220 -91t-67 -136q0 -80 38 -122t96 -42q88 0 141 98q12 22 12 143zM879 92q0 -35 -73 -73t-140 -37q-141 0 -148 145q-78 -152 -242 -152q-88 1 -145 53t-57 134q0 168 202 266q70 33 242 66v51q0 180 -18 237q-33 104 -148 105q-72 0 -120 -39
t-48 -98q0 -16 26 -16t46 -26q20 -24 20 -55q0 -90 -90 -90q-48 0 -78 32t-30 81q0 96 80 169t229 73q225 0 277 -123q18 -47 18 -187v-383q0 -94 2 -110q10 -74 59 -74q57 0 86 32q29 31 39 31t11 -12zM592 1203q0 52 -32 85t-79 33t-78 -35t-31 -85t32 -84t79 -34t78 34
t31 86zM481 1378q77 0 129 -51t52 -126t-52 -125t-129 -50q-76 0 -128 51t-52 125t52 125t128 51zM449 1800l167 -2h37l-186 -194q-123 -129 -143 -129t-9 22q23 55 68 160z" />
    <glyph glyph-name="AEacute" unicode="&#x1fc;" horiz-adv-x="1912" 
d="M938 504v813q-51 -91 -132 -227t-167 -287t-172 -299h471zM375 -2l-305 2q-90 0 -107 5q-18 5 -18 15q0 16 53 21q123 8 164 74q8 8 67 108l555 942q80 133 154 262h37l65 -2q66 -2 131 -2l320 4l213 -2q35 0 100 7q0 -8 21 -256l6 -76q2 -10 2 -29t-18 -18q-14 0 -19 22
q-29 182 -105 246q-77 63 -374 63q-121 0 -174 -2v-608h88q229 0 274 62q29 39 35 129t27 90t20 -35l-10 -217q0 -201 5 -265t5 -73q0 -27 -20 -27q-14 0 -19 9q-4 9 -15 97t-31 122q-20 35 -93 57q-31 10 -266 12v-694q335 0 453 15q118 16 160 70t61 200q6 49 32 49
q21 0 21 -53l-6 -250v-84q-244 10 -542 10l-495 -2h-14q-41 0 -41 20t66 20t84 19q16 18 16 107v295h-504q-211 -332 -211 -383q-1 -20 19 -26t129 -13q39 -1 39 -19t-35 -18zM1284 1860l168 -2h37l-186 -195q-123 -129 -139 -129t-17 7t13 39z" />
    <glyph glyph-name="aeacute" unicode="&#x1fd;" horiz-adv-x="1347" 
d="M242 219q0 -72 43 -114t116 -42q135 0 152 218q2 26 2 221q-313 -74 -313 -283zM936 889q-190 0 -215 -320q290 39 407 78q-45 242 -192 242zM1296 220q0 -17 -30 -66t-60 -82q-94 -96 -250 -97q-254 0 -370 213q-96 -213 -277 -213q-103 -1 -163 55t-60 148
q0 166 203 273q84 43 266 86q0 182 -20 243q-35 106 -144 107q-72 0 -122 -37t-50 -88q1 -20 27 -20t47 -26q20 -26 20 -54q0 -88 -90 -89q-47 0 -78 30t-30 77q0 90 78 164t231 74q92 0 150 -26t120 -91q98 117 250 117q268 0 344 -265q-98 -41 -279 -71t-290 -52
q-2 -27 -2 -73q0 -236 112 -342q74 -70 183 -70q164 0 245 176q8 16 23 17q16 -1 16 -18zM657 1352l168 -2h37l-186 -195q-124 -129 -140 -129t-16 8t72 174z" />
    <glyph glyph-name="Oslashacute" unicode="&#x1fe;" horiz-adv-x="1474" 
d="M1159 713q0 254 -96 479l-621 -1024q127 -156 314 -156q250 0 350 293q53 154 53 408zM740 1407q-190 0 -289 -145q-133 -192 -133 -518t90 -521l622 1026q-100 158 -290 158zM1389 700q1 -305 -183 -515t-450 -210q-193 0 -361 115l-114 -190q-10 -18 -37 -18t-27 22
q0 4 16 30l115 191q-260 215 -260 596q0 311 185 517t468 206q186 0 344 -105l115 191q8 14 34 14t26 -22q0 -6 -13 -27l-117 -192q259 -234 259 -603zM705 1972l167 -2h37l-186 -194q-123 -129 -143 -129t-9 22q23 55 68 160z" />
    <glyph glyph-name="oslashacute" unicode="&#x1ff;" horiz-adv-x="983" 
d="M509 4q116 0 171 125t55 302t-43 317l-381 -629q82 -115 198 -115zM490 887q-110 0 -176 -117q-64 -117 -64 -300t37 -298l379 627q-66 88 -176 88zM922 444q0 -200 -121 -334t-301 -135q-125 0 -234 68l-63 -104q-12 -21 -34 -21t-22 21q2 6 7 14l73 121
q-164 139 -164 355t122 352t300 137q117 0 217 -60l84 137q8 15 29 15t21 -21q0 -10 -15 -28l-78 -130q179 -147 179 -387zM465 1438l168 -2h37l-187 -195q-123 -129 -139 -129t-16 7t71 175z" />
    <glyph glyph-name="Adblgrave" unicode="&#x200;" horiz-adv-x="1232" 
d="M768 504q-33 92 -109 305l-98 281q-86 -225 -207 -586h414zM-49 18q1 18 65 20t93 20q29 17 45 67q264 754 430 1210q4 25 16 56l10 36q6 23 14 23t13 -12q27 -80 111 -306t376 -1026q16 -45 42 -57q26 -13 92 -15t67 -20t-25 -18t-43 2l-260 4l-260 -4q-15 -2 -43 -2
t-28 22t55 21q180 2 180 37q0 2 -4 16l-16 55l-11 29q-18 63 -90 281h-438q-123 -328 -123 -367t25 -45q6 -2 84 -6t78 -23q0 -20 -54 -20l-282 10l-90 -6q-29 0 -29 18zM684 1876l96 2h56l73 -143q41 -78 49 -93l19 -38l15 -27q5 -8 5 -16q0 -9 -13 -9t-85 72l-254 252h39z
M315 1876l97 2h53l98 -182q16 -37 27 -54q16 -37 18 -38l17 -29l4 -12q-1 -11 -13 -11t-143 129l-199 195h41z" />
    <glyph glyph-name="adblgrave" unicode="&#x201;" horiz-adv-x="813" 
d="M518 309v150q-154 -35 -220 -91t-67 -136q0 -80 38 -122t96 -42q88 0 141 98q12 22 12 143zM879 92q0 -35 -73 -73t-140 -37q-141 0 -148 145q-78 -152 -242 -152q-88 1 -145 53t-57 134q0 168 202 266q70 33 242 66v51q0 180 -18 237q-33 104 -148 105q-72 0 -120 -39
t-48 -98q0 -16 26 -16t46 -26q20 -24 20 -55q0 -90 -90 -90q-48 0 -78 32t-30 81q0 96 80 169t229 73q225 0 277 -123q18 -47 18 -187v-383q0 -94 2 -110q10 -74 59 -74q57 0 86 32q29 31 39 31t11 -12zM522 1350l96 2h56l74 -144q41 -78 49 -92l18 -39q10 -18 15 -26t6 -15
q0 -10 -14 -10t-85 72l-254 252h39zM154 1350l96 2h53l98 -183q16 -37 27 -53q16 -37 18 -39l17 -28l4 -13q0 -10 -12 -10t-144 129l-198 195h41z" />
    <glyph glyph-name="Ainvertedbreve" unicode="&#x202;" horiz-adv-x="1232" 
d="M768 504q-33 92 -109 305l-98 281q-86 -225 -207 -586h414zM-49 18q1 18 65 20t93 20q29 17 45 67q264 754 430 1210q4 25 16 56l10 36q6 23 14 23t13 -12q27 -80 111 -306t376 -1026q16 -45 42 -57q26 -13 92 -15t67 -20t-25 -18t-43 2l-260 4l-260 -4q-15 -2 -43 -2
t-28 22t55 21q180 2 180 37q0 2 -4 16l-16 55l-11 29q-18 63 -90 281h-438q-123 -328 -123 -367t25 -45q6 -2 84 -6t78 -23q0 -20 -54 -20l-282 10l-90 -6q-29 0 -29 18zM410 1571q0 96 67 165q68 68 165 68q98 0 160 -63t62 -164q0 -25 -18 -25q-8 0 -12 17
q-33 131 -197 131t-195 -121q-6 -27 -20 -27q-12 1 -12 19z" />
    </font>
</defs>
</svg>
